<svg width="390" height="390" viewBox="0 0 390 390" fill="none" xmlns="http://www.w3.org/2000/svg">
<rect width="390" height="390"/>
<path d="M60.3018 39.9584L63.661 40.1326L70.6282 43.5664L73.2408 47.672L73.5643 51.7777L74.3108 53.7434L81.4771 59.6158L80.7306 63.7711L81.079 66.0852L85.2344 67.6279L86.6527 71.0617L88.5189 71.1115L92.2763 73.3509L92.3509 74.9434L91.3555 77.0833L91.7786 78.626L99.1439 81.6369L100.488 83.2294L100.388 84.0505L96.9045 86.489L96.3073 87.957L96.9045 88.4298L99.766 89.2011L101.931 88.604L106.932 91.8636L116.189 88.2059L119.623 84.6477L124.5 84.2993L125.868 85.0707L126.117 88.2059L128.879 89.6242L132.288 89.9228L133.607 89.2011L135 86.7129L138.16 86.066L139.355 86.8374L138.757 89.7984L141.37 89.9725L143.784 91.6397L152.269 91.1919L153.538 88.3303L157.494 84.1998L156.25 81.6618L159.261 79.9947L160.182 77.7552L159.659 72.9528L163.566 67.8021L166.253 65.6124L171.006 65.4382L173.071 66.6327L174.141 65.8115L177.624 61.0589L178.62 54.9378L185.04 49.7124L188.672 53.1462L188.648 54.0918L186.234 55.4603L186.881 56.0576L202.134 57.3265L204.647 52.574L207.011 49.9115L207.957 44.0889L223.757 45.9303L224.578 47.0499V49.6129L223.061 54.5396L224.056 56.4307L225.375 57.1523L229.754 57.5007L237.542 55.1866L242.743 52.9223L242.992 51.9768L242.171 49.9613L243.763 46.2289L251.377 44.9101L252.895 43.4917L252.746 41.7748L251.178 40.3565L241.499 39.7097L241.424 38.8885L249.113 32.9415L257.299 35.1561L260.484 34.6833L265.162 29.3335L264.988 25.3523L265.685 23.9838L271.955 27.9152L275.638 32.9664L280.465 33.265L280.54 34.8077L277.032 39.5106L278.773 46.8261L277.952 51.927L281.212 54.7138L282.033 56.5054L284.123 57.625L284.795 59.6903L287.781 62.7012L289.299 62.5768L292.981 59.3669L290.717 56.7542L290.468 55.2115L294.848 44.8851L296.614 43.6908L299.202 44.288L302.238 43.5166L304.403 42.2476L304.552 43.1186L305.199 43.5415L305.622 44.0143L306.543 44.4871L306.617 44.9101L307.538 45.0843L307.314 44.4871L308.384 44.3129L309.529 44.2631L309.952 44.4373L310.225 44.7359L310.3 45.0843L311.146 45.3828L311.37 45.9303L311.644 46.1045L311.992 46.9255L312.266 47.2241L312.415 47.9955L312.838 48.2941V48.543L313.112 48.4932L313.684 48.7172L313.833 49.0158L314.182 49.1401L314.256 49.3143L314.406 49.1899L314.63 49.2396L314.704 49.4138L315.351 49.2894V49.4636L315.575 49.4138L315.724 49.5382V49.8369H316.073L316.222 50.011H316.446V49.8369L316.944 49.6627L317.018 49.3143L317.168 49.2645L317.591 49.5631L317.815 50.0857L318.312 50.5086V50.6828L318.661 50.8072L318.735 51.1058L318.934 51.1556L319.009 51.4044L319.581 51.927L320.303 52.1757L321.995 52.1261L322.194 52.5989L322.393 52.7232V53.0218L322.816 53.4946V53.7932L323.164 54.266V54.5147L323.662 54.9875L323.811 55.7588L324.16 56.1072V56.6298L324.433 57.1026L324.359 57.451L324.707 57.9734L324.558 58.3964L324.782 58.6453L324.632 58.8941L324.707 59.3172L324.931 59.4416L324.782 59.6654L325.205 59.964L325.354 60.5613L325.777 60.8101L325.852 61.1585L326.051 61.2082L325.976 61.3823L326.822 62.2782L327.096 62.9998L327.594 63.2236L327.867 63.174V64.4181L328.091 64.6669L328.365 64.8411L329.435 64.7913L329.584 64.9655V65.264L329.161 65.3886L329.086 65.5626L329.509 66.2843H329.709L329.858 66.5082V67.2299L330.007 67.2795L329.858 67.4537L330.082 67.8021L329.933 68.872L330.082 68.9964L330.156 69.5936L330.505 69.8923V70.3651L330.778 70.589L330.928 71.1115L331.276 71.634L331.475 71.7585L331.674 72.5795L331.824 72.6293L331.749 72.8534L332.247 73.4505L332.446 74.0975L332.719 74.3463L332.918 74.819H333.142L333.64 75.2918L334.287 77.0584L334.71 77.1829V77.7054L335.133 78.5265L335.407 79.5965L335.904 80.1936V80.4922L336.103 80.6167L336.253 81.0895L336.402 81.1392L336.551 81.7363L337.049 82.458L336.974 82.8064L337.173 82.9308L337.248 83.5778L338.094 84.9959L338.019 85.5933L338.293 86.1157V86.4641L338.642 86.8871L338.791 87.7082L339.064 88.0068L339.214 88.6538L339.786 89.5495L339.861 89.8979L340.134 90.1218L340.284 90.7687L340.632 90.9927L340.981 91.988L341.329 92.212V92.5106L341.826 93.2073L341.976 93.8542L342.473 94.3767L342.324 94.5509L342.548 94.9739V95.397L342.896 95.7453L342.822 95.9693L343.021 96.0937L343.17 96.9894L343.394 97.1636V97.6862L343.742 98.159L344.091 99.4528L344.315 99.6269L344.514 100.523L344.439 100.821L345.086 101.891V102.314L345.235 102.364V102.663L345.385 102.787L345.459 103.608L345.683 103.907L345.459 104.131L345.534 106.495L345.758 106.619L345.683 107.092L345.957 107.39V107.689L346.181 107.988V108.585L346.33 108.634L346.405 108.983L346.679 109.157L346.878 111.098L347.027 111.446L347.251 111.571L347.4 112.466L347.549 112.516L347.4 113.163L347.624 113.586L347.549 114.109L347.699 114.158V114.457L347.425 114.681V115.029L347.574 115.204L347.351 115.452L347.276 117.642L347.127 117.766V118.413L346.977 118.762L347.052 119.409L346.977 119.757L346.828 119.807L346.753 125.58L346.48 126.923L346.33 126.973L346.405 128.317L346.256 128.491V129.561L345.758 130.158L345.683 130.805L345.459 131.153L345.534 131.452L345.26 133.343L345.036 133.816L344.887 133.766L344.24 134.114L342.822 134.065L342.548 134.662L342.05 134.836H341.403L341.13 135.01V135.234L340.906 135.408L340.408 135.458L340.334 135.284H339.985L339.786 135.458L339.711 136.155H338.94L338.791 136.279V137.1L338.019 137.15L337.746 137.573L337.323 137.747L336.9 138.27V138.867L336.626 139.041L336.203 139.738L335.556 139.962L335.133 140.435L334.785 140.484L333.64 141.256V141.48L333.839 141.604L333.914 141.903L333.416 141.952L333.491 142.301L332.844 142.525L331.998 142.574L331.152 143.744L330.878 143.918L330.455 144.739H329.957L329.534 145.162V145.511H329.111L328.614 146.158L328.041 146.332L327.892 146.556H327.618L327.394 147.028H327.245L326.822 147.551H325.976L325.827 147.675V147.85L326.026 147.974L325.827 148.322V148.745L325.329 148.621L325.18 148.919H324.956L324.807 149.143L324.16 149.268V149.741L323.438 150.388V150.985L323.164 151.159L322.169 151.283L321.671 151.632V152.279L322.318 152.702V152.826L321.049 152.95L320.402 153.597H320.054L320.129 153.821L320.328 153.871V154.095L320.178 154.269L319.83 154.219L319.681 154.344L319.606 154.767L319.805 154.991V155.215H319.307L318.611 155.563L318.536 155.986L318.81 156.459L318.461 156.683H317.964L318.038 157.628L317.541 157.678V157.852H316.894L317.093 158.201V158.425L316.894 158.549L317.466 158.773V158.997L316.819 158.872L316.744 159.644L316.894 160.042L316.322 160.117L316.471 160.764L316.396 161.112L315.625 161.46L315.276 161.411L315.052 161.585L314.854 161.933H314.704L314.779 162.53L314.132 163.302V163.476L314.356 163.65L313.933 163.476L313.784 163.949L313.435 163.899L313.584 164.197L313.36 164.322L313.435 164.919L313.36 165.043H313.012L312.937 165.218L313.211 165.442L313.137 165.566L312.788 165.516L312.365 165.865L312.44 166.213L312.713 166.387L312.639 167.034L312.365 167.681L310.374 169.373L309.603 170.418L308.334 171.538L307.264 172.707L307.19 172.931L306.841 173.23V173.454L307.115 173.578L307.314 173.404L307.389 173.18L308.956 171.836L309.728 170.717L310.922 169.423H311.146L311.569 169.945L311.644 170.766L311.494 171.189L311.146 171.538L311.221 172.533L310.499 172.956L310.648 173.18H311.221L311.494 172.881L312.266 172.757L312.415 172.981L311.992 173.404L312.141 173.927H312.415L312.639 174.101L313.286 173.976L313.709 174.101V174.524H313.933L314.281 175.22H314.854L315.202 174.524H315.55L315.625 175.22L316.819 175.096L317.391 174.325L317.74 174.275L317.939 174.449V175.146L319.432 176.838H320.079L320.228 176.241L320.452 176.29L320.726 176.888L320.577 177.709L320.651 178.306H321.373L321.224 178.654H321.497L321.771 178.878H322.194L322.343 179.351L323.339 179.227L323.413 179.45H323.563L323.836 179.276L323.761 179.052L323.911 178.928L323.761 178.804L324.334 178.928L324.483 179.152L324.334 179.376L324.608 179.6H324.956V179.824H324.757L324.831 180.048H325.18L324.956 180.471L325.304 180.52V180.645L325.031 180.819V181.118L325.304 181.342H325.877L325.951 181.516L325.877 181.814L325.304 182.461L326.374 183.282L327.096 183.631L327.17 184.228L327.021 184.751H327.17L327.245 185.049L327.892 185.173L328.464 185.522L328.539 186.691L328.962 187.388L329.31 187.612L329.385 188.085L329.733 188.781L329.808 189.727H329.957L330.032 189.503L330.306 189.553L330.803 190.498H331.002L331.152 190.324L331.5 190.374L331.998 191.145L332.272 191.021V190.374L332.62 190.598H332.894L333.317 190.299L333.391 190.598L333.665 190.648L333.814 190.996L334.387 190.772L334.884 191.369L335.73 191.494H336.303L336.875 191.27L337.87 191.145L338.442 190.722L338.915 190.673L335.606 200.451L337.696 203.263L337.372 204.557L327.594 211.848L324.11 211.275L321.174 211.101L314.555 214.709L309.802 215.232L308.857 216.277L309.429 222.572L308.259 225.483L306.244 227.3L302.138 227.399L295.594 225.135L291.588 226.877L289.224 226.479L284.621 229.266L281.71 228.046L278.798 228.569L276.708 225.558L268.745 227.399L261.977 224.015L250.954 229.738L246.674 229.788L242.718 228.395L239.657 229.813L241.698 232.227L242.793 235.536L241.797 244.145L243.465 245.414L249.461 244.568L249.287 247.878L251.427 250.565L250.307 255.915L257.847 260.468L259.439 267.659L258.917 269.351L253.418 276.717L249.138 280.126L247.943 282.913L240.479 286.446L240.329 289.979L243.415 295.18L243.763 298.265L238.115 299.459L235.278 303.565V308.293L234.432 310.532L233.263 311.353L231.023 310.881L228.609 307.646L226.942 307.123L220.473 308.567L220.149 310.059L221.095 312.896L221.344 317.499L218.806 322.401L209.3 328.796L205.095 328.622L203.279 331.857L199.372 330.762L198.476 332.081L198.551 333.748L196.909 335.888L190.215 338.251L190.29 340.317L191.733 341.063L193.599 344.522L196.635 347.334L196.66 348.951L195.714 349.523L193.052 350.145L192.977 353.878L188.672 358.108L187.229 358.406L182.228 347.383L181.033 346.985L175.833 349.225L171.678 348.876L169.985 351.166L162.346 353.181L159.51 355.022L156.598 358.581L160.878 360.347L159.51 360.994L157.021 364.378L153.986 364.727L151.249 366.742L144.804 366.344L141.992 367.14L140.848 366.444L137.911 355.993L136.817 354.201L137.165 347.483L135.523 346.214L139.728 344.024L143.56 343.502L144.381 342.357L133.681 328.796L134.154 326.88L135.995 324.74L142.938 321.804L143.361 319.614L140.798 316.504L140.723 315.061L148.089 310.458L147.989 305.78L146.048 303.714L148.81 299.783L148.113 298.738L143.834 297.767L142.838 295.976L144.904 294.358L151.572 292.094L153.588 290.079L153.339 287.814L150.875 283.136L147.665 275.945L143.908 273.805L137.24 262.683L124.176 255.765L123.106 252.979L121.439 251.013L111.511 246.584L108.599 242.802L105.016 241.458L105.489 237.278L103.374 232.923L106.211 231.181L106.559 228.743L100.687 221.353L100.289 219.661L98.1735 219.536L97.1533 217.795L95.3368 219.959L93.0476 219.661L92.3011 215.107L87.7725 213.415L85.3588 211.002L88.9171 204.259L94.4411 201.347L96.2575 195.923L99.343 193.235L97.1036 189.08L94.2669 186.865L82.7461 185.995L80.8799 184.875L78.3916 181.59L74.2113 181.466L72.6437 179.998L69.608 179.575L69.2098 176.415L67.4432 173.429L67.5178 169.274L69.608 169.149L70.5038 168.104L71.2502 164.695L71.1009 161.46L78.0433 157.006L79.6109 153.299L79.3621 148.596L77.2719 146.531L76.6 144.466L75.7043 138.295L76.2765 134.189L72.7432 128.192L72.8179 123.315L72.2207 121.847L69.608 118.787L65.4526 115.95L55.8228 111.994L53.2351 107.988L50.1247 109.381L50.8961 104.504L48.3829 102.09L47.7359 97.3129L47.4125 82.0598L47.0143 79.6463L44.7749 76.2125L45.0237 74.6947L46.5913 73.8984L49.5275 68.7477L48.358 67.0308L45.6706 65.7368L45.4965 64.1444L45.9941 62.5519L49.4031 59.0434L50.0002 53.6937L51.8167 48.1697L55.7731 47.9209L57.5149 46.851L58.6595 42.6209L60.3018 39.9584Z" fill="#F2F2F2"/>
</svg>
