<svg width="530" height="530" viewBox="0 0 530 530" fill="none" xmlns="http://www.w3.org/2000/svg">
<rect width="530" height="530"/>
<path d="M192.142 251.314L192.565 251.488V251.911L192.142 251.861L191.719 252.234L191.072 252.409L190.798 253.429L190.997 254.101L191.42 254.524V255.071L192.067 255.32L192.142 255.793L192.416 256.041L192.913 257.908L192.839 259.425L193.063 260.023L193.411 260.371L193.336 261.342L193.56 262.486L193.759 262.909V263.083L193.485 263.332V263.929L193.336 264.228L193.983 264.477L194.257 264.85L194.605 265.024L194.68 265.497L195.103 265.248L195.526 265.422V265.895L195.327 265.945L195.252 266.243L195.824 266.293L196.248 267.015L196.024 267.438L196.098 267.911L196.248 267.96L196.098 268.508L196.173 268.931L196.87 270.075L197.367 270.026L197.865 270.324L197.94 270.872L198.163 271.046L198.238 271.469V272.738L198.661 273.335L199.159 273.509L199.433 273.882H199.632L200.129 273.758L202.045 272.564L202.269 272.862L202.344 273.335L202.543 273.385L202.468 272.489L202.692 272.439L203.041 272.613L203.115 272.987L202.618 274.305H201.772L201.697 274.43L201.498 274.38L201.149 274.554L200.154 274.679L199.955 274.853L198.761 274.728L198.114 274.355L197.964 273.982L197.467 273.434V273.186L197.044 272.763L196.695 271.618L196.422 271.195L196.073 271.021L195.078 269.279L194.73 268.98L194.157 267.96L193.66 267.537L191.669 263.979L191.52 263.208L191.171 262.785L191.022 262.063L190.375 260.968L190.226 259.998L189.878 259.276L189.803 258.43L190.002 258.38V257.709L189.803 257.46L189.728 256.44L189.454 255.768L189.38 253.23L189.728 252.807V252.558L190.3 252.011L191.221 251.712L191.793 251.239H192.142V251.314ZM264.775 22.8166L265.82 24.0358L268.806 33.4912L270.498 35.9545L275.997 37.8706L277.316 42.4489L281.471 45.4846L282.467 47.5747L287.816 46.032L290.379 47.6992L289.036 49.3663L289.608 50.8345L289.185 52.4517L290.802 56.6569L280.849 62.7034L279.953 64.0471L279.854 68.4264L276.768 72.7312L280.202 74.6968L281.198 79.2006L283.188 82.4104L280.924 84.0029L279.53 89.0542L276.544 91.3184L277.316 93.4583L280.003 96.7179L280.401 99.2311L279.506 101.57L280.352 104.382L284.184 107.816L288.463 108.438L297.272 102.292L299.636 99.5296L301.203 99.1565L306.056 107.194L313.321 113.265L310.485 125.557L307.076 133.644L308.245 135.535L315.113 139.143L316.432 140.909L316.606 142.552L315.71 144.742L313.222 147.479L314.391 152.903L315.81 156.187L325.489 164.05L327.753 168.629L331.411 169.35L332.058 178.657L333.054 181.394L332.431 185.201L330.764 184.33L327.48 187.191L321.035 186.893L316.954 189.63L314.541 193.511L316.108 198.538V201.15L307.972 208.242L308.743 210.009L312.351 212.671L313.197 214.736L313.272 220.857L312.525 223.271L313.943 226.779L313.496 230.412L312.749 231.557L310.236 232.104L307.3 229.989L303.443 231.93L301.179 234.841L295.182 234.418L294.435 237.255L286.995 247.158L286.075 249.647L282.417 251.637L281.919 256.589L282.74 259.774L286.025 263.332L292.569 267.139L293.639 268.881L293.788 274.181L295.033 275.748L297.794 276.172L303.717 274.554L307.001 275.226L307.748 276.42L308.146 279.68L309.29 280.526L307.947 283.96L309.539 286.373L313.993 286.796L315.611 290.703L317.278 290.952L323.225 288.19L323.125 290.355L323.897 291.375L327.928 291.848L329.445 294.261L330.018 298.292L338.826 302.92L339.772 308.569L343.778 314.142L348.058 317.402L347.461 320.488L346.192 322.403L340.021 325.389L336.836 329.52L336.736 337.283L331.859 343.678L333.203 348.033L332.929 349.899L334.099 350.421L335.442 352.984L337.184 352.81L339.672 355.199L341.912 354.602L343.977 352.686L346.341 352.561L346.689 354.776L348.257 357.04L347.784 360.549L349.202 362.166L350.098 366.645L353.781 367.466L355.199 371.92L360.201 377.444L365.376 384.934L363.734 387.621L362.589 391.851L360.848 392.921L356.891 393.17L355.075 398.694L354.478 404.043L351.069 407.552L350.571 409.144L350.745 410.737L353.433 412.031L354.602 413.748L351.666 418.898L350.098 419.695L349.849 421.212L352.089 424.646L352.487 427.06L352.81 442.313L353.457 447.09L355.971 449.504L355.199 454.381L351.541 458.91L348.356 459.208L343.529 463.214H339.274L336.288 461.273L334.621 461.522L334.372 462.343L335.542 464.931L335.044 466.524L332.108 467.121L320.811 480.607L317.527 481.951L313.272 481.603L309.44 486.48L305.583 487.301L304.563 490.486L305.508 498.299L303.941 500.563L298.218 502.877L297.297 505.764L294.933 507.456L291.176 508.053L286.846 506.46L285.005 509.521L281.073 507.58L278.56 508.177L277.067 503.25L272.812 501.384L259.425 505.44L253.478 501.558L248.601 501.733L246.735 497.926L242.53 493.77L242.978 491.531L242.032 487.077L238.076 477.099L238.275 476.377L232.601 472.023L229.939 467.245L230.138 466.3L236.309 462.119L235.886 458.934L230.437 452.739L224.564 447.663L219.986 445.174L214.387 445.299L213.442 443.283L212.944 443.98L212.795 443.657L213.019 443.532V443.358L212.596 443.657V443.433L212.247 443.084L212.173 442.736H211.949L211.799 442.512L211.575 440.969L212.72 440.919L212.869 441.342H213.019L212.869 440.87L213.591 440.82L213.666 440.646L213.019 440.696L212.67 440.397L212.247 440.347L212.098 440.472L211.874 440.297L212.297 440.074L212.496 439.725L212.844 439.775L213.267 440.248H213.491L213.566 439.999L213.342 440.049V439.825L213.566 439.352L214.064 439.526L214.91 439.402L214.984 439.277L215.258 439.327V439.153L214.91 439.103L214.636 439.277L213.218 439.028L212.72 439.277L212.869 438.979L212.72 438.63L213.143 438.456L213.342 438.506L213.417 438.158L212.645 438.282L212.421 438.705L211.998 438.755L211.799 438.531L211.376 438.406L211.302 438.108L211.65 438.158V438.033H211.924L212.073 437.685L211.575 437.859L211.302 437.809L211.376 437.461L211.103 437.685L210.68 437.461L210.605 436.864L210.406 436.565V436.092H211.55L211.7 436.043V435.819L210.854 435.868L211.003 435.445L210.356 435.744L209.784 434.923L209.635 434.45V434.151L209.858 433.977L209.137 433.803V433.156L208.938 432.982L208.789 432.459L208.863 431.464L208.639 431.041L208.291 430.817L208.216 429.399L207.793 429.1L208.216 429.051L208.44 429.349H208.639V429.175L207.943 428.453L207.718 428.404L205.952 426.04L205.529 425.865L204.882 425.144L204.459 425.019L203.389 423.825L203.041 423.651L202.692 423.054L202.419 422.058L202.07 421.586L201.348 421.113L201.199 420.516L200.702 419.918L200.627 419.496L200.478 419.446V419.023L200.204 418.849L199.856 417.356L199.656 417.132V416.883L199.308 416.709L199.234 416.36L199.731 416.236L200.726 415.415L201 414.818H201.149L201.921 413.922V413.673L202.692 413.325L203.19 412.852H203.414L204.061 412.379H204.334L204.757 411.956L205.604 411.782L205.803 411.533L206.524 411.309L207.022 410.961L207.594 410.836L208.017 410.413L208.938 410.289L210.008 409.642L210.505 409.518L211.078 409.045H211.575L212.148 408.796L212.571 408.273L212.919 408.224L213.417 407.577L214.064 407.452L213.914 407.204L214.487 406.979L215.183 406.158L217.025 405.81L217.298 405.462L218.642 405.039L219.065 404.74H219.837L220.11 404.914L220.309 405.437L220.459 405.487V406.308L220.807 406.905L220.732 407.328L221.081 407.626L221.23 408.746L221.504 409.169L221.429 409.418L222.076 410.239V410.463L222.3 410.513L222.648 411.284L222.922 411.334V412.528L221.927 412.951L221.653 412.777L221.454 412.902L220.608 412.479L219.19 412.703L218.841 412.479L218.766 412.18H218.543L218.393 411.881H218.244L218.443 412.479L219.165 412.902H219.812L220.085 412.727L220.782 412.777L221.429 413.126L221.703 413.598H221.852V413.847L222.126 414.021H222.474V413.847L222.822 413.723H223.395V414.146L223.743 414.494L223.594 415.614L224.017 417.281L224.365 417.58L224.589 418.401L225.087 418.351L225.161 418.873L224.937 418.998V419.819L225.087 420.167L225.51 420.342L225.734 420.988L226.231 421.337L226.157 421.635L226.43 421.685L226.58 421.262L226.779 421.66L227.127 421.859L227.053 422.083L227.202 422.332L227.923 422.805L227.849 423.029L228.197 423.377V423.676L228.844 424.621L228.769 424.97L229.043 425.219V425.517L229.392 425.766V426.114L229.74 426.587L229.889 426.935L229.814 427.358L230.088 427.781V428.08L230.437 428.428L230.785 429.249L231.706 429.971L232.054 430.966L232.253 431.016L232.328 431.489L232.9 431.912L233.049 432.385L233.472 432.609V432.783L233.895 433.007L234.045 433.256L234.542 433.554L235.189 433.43L235.413 433.604L235.687 433.48L236.035 433.604L236.259 433.952L236.533 434.077L236.608 434.375L237.105 434.425L238.3 435.495L238.723 436.217L238.996 436.266L239.718 436.864L239.992 436.814L240.415 437.112L241.062 437.063L241.634 436.839L241.908 436.888L242.181 436.665V436.49L242.604 436.366L243.177 436.54L243.401 436.49V436.316L243.475 436.441L244.172 436.391L244.52 436.515L244.744 436.167L245.242 436.117L246.66 435.221L247.158 435.097L247.506 434.624L248.651 433.803L248.8 433.927L249.024 433.753L249.298 433.878L249.721 433.828L249.995 434.002L250.144 433.828H250.915L251.064 433.654L251.562 433.952L251.711 433.778H252.856L253.13 433.903V434.326H253.279L253.702 434.102L253.851 433.853L254.2 433.728L255.12 432.833L256.041 432.41L256.315 432.061L256.514 432.285H257.011L257.434 433.181L257.783 433.405H258.778L258.704 433.231H258.057L257.634 433.007L257.061 431.763L256.215 431.116L255.568 430.394L255.369 429.673L255.145 429.548V429.249L254.872 428.951L252.881 428.901L252.607 429.548L252.334 429.598L252.06 430.021L250.865 430.145L249.945 429.2L249.099 428.777L248.825 428.428L247.83 427.956L247.481 428.08V428.304L246.486 428.354L245.715 429.001H245.491L245.416 429.175L242.878 428.876L240.962 427.931L240.24 428.055V427.881L240.514 427.657L239.942 427.533L239.519 427.06L238.947 426.886L238.25 426.164L237.404 425.816L237.205 425.393L236.632 425.044L236.558 424.746L235.911 424.273L235.637 423.626L235.139 423.327L235.065 423.079L234.567 422.78L234.492 422.556L233.995 422.133L233.348 421.909L232.999 421.486L232.353 421.188L232.004 420.765L231.158 420.466L230.934 420.118L230.238 419.869L230.014 419.52H229.74L228.745 418.923L228.321 418.326L227.252 417.43H227.053L226.903 416.783L226.256 416.062L225.609 414.046L225.385 413.872L225.037 412.752L224.813 412.703L224.738 411.807L224.39 411.334V410.438L224.191 410.09L223.843 408.423V406.83L223.569 405.238L223.494 404.989L223.221 404.939L222.872 403.919L223.022 403.745H223.668V403.62H223.171L223.668 403.322V403.148L223.245 403.396L223.022 403.347V403.173H222.748L222.897 403.471L222.822 403.72L222.524 402.799L222.175 402.501V402.277L222.673 402.152L223.022 401.854L223.096 401.555L222.598 401.804L222.947 401.505V401.281L222.375 401.456L222.524 401.207H222.175L221.827 401.381L221.976 401.903L221.703 401.555L221.13 401.68L220.981 401.431L220.633 401.257L219.861 400.137L219.712 399.714H219.563L219.289 399.291L219.787 398.868L219.861 398.345L219.588 397.45L218.667 396.031L218.169 394.837L217.821 394.538L217.473 392.871L217.199 392.448L217.05 391.727H216.9L216.627 389.711L216.477 389.587V388.641L216.676 388.293L216.477 386.8L216.278 386.576L215.134 386.277L214.288 384.909L213.79 384.685L213.516 384.336L212.944 383.988L212.745 383.515L212.322 383.266L211.899 382.719L211.55 381.127L211.974 377.792L212.123 377.742V377.394L212.471 376.498L213.242 375.254V374.906L213.516 374.657L213.715 374.01L214.487 372.94L214.561 372.517L214.91 372.219L215.557 371.273L215.83 370.502L216.029 370.377L216.527 369.606L216.676 369.009H216.826L217.025 368.71L217.249 367.939L217.672 367.391L217.746 366.794L217.896 366.744L218.169 365.849L218.443 365.6L218.866 364.779L219.214 363.758L219.413 363.46L219.637 363.41V363.236L219.837 363.112V362.937L220.259 362.39L220.757 362.141L221.479 360.648L221.678 360.524L222.25 359.628L222.598 359.379L222.175 358.956L221.752 358.782V358.608H222.175L222.673 359.155L222.897 359.105L223.096 358.757L223.519 358.583L223.942 358.16L224.714 357.14L225.211 357.015L225.56 356.667L225.634 356.244L225.833 356.194L225.983 354.577L225.833 354.278L225.485 354.029L226.48 353.557L226.555 352.959L226.903 352.536L227.102 351.889L227.376 351.715L227.525 351.292L227.874 351.043L228.147 350.446L228.919 349.899L229.765 349.774L230.113 349.177L230.685 349.053V348.505L230.884 347.958L231.158 347.41L231.581 347.162V347.037L230.735 346.863L230.586 345.918L231.507 345.445L231.78 345.022L232.004 345.072L232.153 344.599L232.502 344.3V343.753L231.855 342.31L231.93 342.185L231.432 342.135L231.283 341.961L231.084 342.135L230.81 342.086V341.737H230.461L230.188 341.911L227.426 341.787L225.659 341.314L225.161 341.016H224.888L224.813 341.265L224.614 341.314L224.465 341.14L223.693 341.09L222.424 340.543L222.001 340.12L221.429 339.871V339.747L220.583 339.274L219.936 338.503L219.588 337.731L218.816 336.711L218.319 335.218L217.821 334.372L217.249 332.207V328.674L217.448 327.654L217.298 324.295L217.448 323.225L217.373 320.96L217.597 317.974L217.796 317.502L218.368 313.371L218.592 312.948L218.518 311.505L218.667 311.157L218.592 307.549L218.368 306.603L218.443 305.757L218.368 305.035L218.219 304.861L218.294 304.314L218.144 303.941L218.219 303.045L218.07 302.92V301.85L218.717 301.004L219.861 300.407L220.931 300.109H221.354L221.429 300.283H222.001V300.158L223.42 299.437H223.693L223.892 299.611L224.241 300.756L224.017 301.303L223.32 301.726L223.668 301.9L223.743 302.149L223.668 303.717L223.868 306.603L224.29 307.449L224.714 307.573V308.245L225.286 308.793L225.435 309.216L227.923 310.41L228.073 310.883L228.496 311.231L228.57 312.003L228.147 312.251L227.376 312.301V313.023L227.65 313.794L227.575 314.217L228.222 314.565H228.72L228.869 314.391L229.566 314.267L230.063 314.69L230.486 315.835L231.059 316.481L231.556 316.73H232.203L232.552 316.556L232.477 316.382L231.631 316.506L231.059 316.158L230.785 315.735L230.561 314.839L230.287 314.366H230.063L229.79 314.068H229.292L229.217 313.894L228.794 314.018L228.147 313.769L228.57 312.699H228.794L229.143 312.276L229.217 311.679L228.869 310.659L228.446 310.36V310.111L227.724 309.564V309.39L227.451 309.34L227.376 309.091L227.028 308.917L226.605 308.37L226.182 307.399L225.684 306.976L225.336 304.986L225.485 304.388L225.211 304.214L225.41 303.07L225.211 303.02L224.987 302.423L225.136 300.507L224.913 300.208L225.136 299.86L226.406 299.686L226.555 299.511L227.699 299.039L227.923 298.79L228.421 298.74L229.342 298.093L229.989 297.919L230.835 297.446L231.83 297.272L232.328 296.973L233.398 296.799L233.821 296.252H234.244L234.393 296.078L234.965 296.202L235.612 296.078L236.533 296.973L236.956 297.148H237.951L238.15 297.023V296.55H239.071L239.643 296.202L239.718 295.953L240.066 295.904L240.415 295.605L240.639 295.057L240.489 294.809L240.639 294.137L241.286 293.788L241.783 293.963L242.007 293.614L242.355 293.565L242.704 292.793L242.978 292.619L243.177 292.022L243.45 291.972L243.376 291.798L242.38 291.673L240.738 290.703L240.39 289.31L240.539 288.961L240.39 288.912L239.693 286.274L238.922 285.552L238.772 285.079L238.349 284.482L238.2 283.462L237.553 282.741L237.354 282.069L237.279 280.999L237.055 280.75L236.906 280.028L236.757 279.779L236.184 279.829L235.911 279.655L235.762 279.357L235.413 279.108L235.189 278.56L234.492 277.889L234.766 277.839L234.99 277.465L235.562 277.341L235.637 277.167L235.363 277.042L234.716 277.092L234.567 277.465L234.418 277.416V277.167L235.189 276.619L235.538 276.57L235.737 276.196L236.085 276.246L236.234 276.072H236.657L236.732 275.475L236.508 275.301V275.002L236.782 274.703L236.508 274.529L236.583 274.156L237.23 274.206L237.653 273.957L237.926 272.812L238.275 272.215V271.543L238.847 271.071L238.996 270.349L239.419 270.399L240.265 269.802L240.415 268.906L239.917 268.234L240.141 268.184L240.415 268.558L240.838 268.433L241.609 268.682L242.455 267.786L242.878 267.836L243.226 267.711L243.575 267.886H243.998L245.068 267.338L245.715 266.567L245.789 266.094L246.486 265.97V265.795L247.257 265.621L247.83 265.248L248.054 263.68L248.477 262.785L248.402 262.013L248.551 261.889V261.466L248.701 261.292L249.124 261.242L249.397 260.769L249.671 260.645L250.442 259.202L250.791 258.181L250.716 257.584L250.99 257.161V256.614L251.139 256.564L251.214 256.265H250.99L250.641 256.937L250.144 256.987L249.497 256.564L249.422 256.091L249.223 255.842L248.228 255.668V255.195L247.879 254.822L247.805 254.349L247.606 254.3V253.454L247.257 252.608V252.433L247.83 252.011V251.413L247.68 251.164L246.536 251.413L245.615 249.896V247.606L245.466 247.009L245.117 246.586L244.62 246.337L244.396 245.964L243.898 245.914L243.749 245.616L242.405 245.143L242.132 245.193L241.708 244.894L241.783 244.172L242.206 243.749L241.708 243.078L242.355 242.53H243.351L243.625 241.933L244.545 241.684L244.694 241.211L245.615 240.838L245.764 240.465H247.257L247.332 240.092L247.481 240.042V239.619L247.904 239.445V239.022L248.676 238.474V238.101L249.173 237.38L249.248 237.006L249.447 236.882L249.87 236.932L250.567 236.036L251.064 235.911L251.263 235.364L251.612 235.24V234.817L251.338 234.518L251.114 233.796L250.691 233.672L250.617 233.125L250.417 232.95L250.492 232.403L250.293 231.98L250.368 231.806L250.094 231.209L249.248 231.034H248.327L248.402 231.532L248.676 231.905L248.949 232.03H249.149L249.223 231.781L249.422 231.657L250.069 231.781L249.92 232.453L249.497 233.125L249.422 233.622L249.497 235.737L248.502 235.911L248.153 236.384L245.814 237.28L245.54 237.703L245.192 238.972L244.844 239.445V239.868L244.645 240.042L244.296 240.092L243.027 239.793L242.38 240.266L241.111 240.39L240.041 240.813L239.195 241.361L239.345 242.033L239.146 242.406H238.872V241.858L238.598 241.809L237.255 242.232L237.18 242.48L236.682 242.779V242.953L236.259 243.252L236.184 243.799H235.985L236.06 244.347L235.786 244.396L235.587 244.645V245.665L235.438 245.964L235.513 246.636L235.015 247.606L235.214 248.452L234.94 248.627L234.667 248.502H234.393L234.318 248.627L234.542 248.875L235.115 248.925L234.965 249.174V250.07L234.194 250.493L233.622 251.164L233.472 251.762L233.049 251.289L232.9 250.319L232.477 250.144L231.631 250.518L231.283 250.468L230.86 251.065L230.287 251.314L229.79 251.737H229.367L228.222 252.21L227.077 252.259L226.007 251.538L225.584 251.413V251.164L225.311 251.04L225.236 250.567L224.589 250.443L224.44 250.02L224.241 249.896L224.589 249.472V249.298L225.012 249.124L225.087 248.751L224.863 248.203L225.435 247.357L225.161 246.462L224.888 246.412L224.813 246.113H224.465L224.266 245.939L223.345 244.72L222.698 244.297L222.35 243.824L221.777 243.525L221.205 242.978L221.13 242.729L220.284 242.132L220.782 241.833H220.931L221.006 242.008L221.504 241.833L221.653 241.162L221.877 240.988L222.375 241.037L222.723 240.863L222.947 240.614V240.191L222.673 239.345L221.902 238.798L221.827 237.653L221.329 237.23L221.18 236.086L220.608 235.19L220.384 235.016H219.961L219.538 235.488H219.264L218.617 234.891L218.543 233.796L219.04 233.672L218.891 233.199L219.812 233.125L219.961 233L220.459 232.403L220.384 231.806H220.882V231.507L220.683 231.457L220.11 231.706L220.185 232.502L220.036 232.627L218.841 232.453L218.692 232.627L218.543 233.597L218.045 234.394V235.115L218.194 235.414L217.97 235.837V236.558L217.821 236.857L218.169 237.404L218.866 237.23L219.787 237.604L220.21 238.026L220.284 238.698L219.787 239.669L219.637 240.689L219.14 240.938L218.866 241.41L218.294 241.361L217.945 241.734L217.796 242.456L217.647 242.58V243.003L217.995 243.302V243.899L217.423 244.272L217.149 244.695L217.074 245.118L216.652 245.591L216.726 246.014L217 246.263V246.81L217.224 247.233V247.706L217 247.955L217.074 248.975L216.925 249.149V249.696L216.278 249.821L216.005 250.07L215.93 250.319L215.581 250.493L215.507 250.916L215.084 251.164L214.735 251.712L214.586 252.259L214.163 252.732L213.964 253.28L214.039 253.752L213.541 254.897V255.32L213.043 255.668L212.546 256.464L211.899 256.888L211.824 257.36L211.476 257.609V258.58L211.277 259.003L210.008 259.674L209.435 260.147L209.087 261.167H208.888L208.042 261.939L208.191 262.187L208.042 262.486L207.121 263.158V263.282L206.773 263.407L206.574 263.78L205.429 264.626L204.658 265.472L204.509 265.945L203.663 266.666L203.389 267.338V267.811L203.464 268.06L203.737 268.234V268.533L204.384 268.831L204.583 269.254L205.23 269.727H205.653L206.076 270.399L206.002 270.772L205.803 270.822V270.946L205.156 270.822L205.081 270.996H204.857L204.658 269.603L203.513 268.707L203.314 268.334L203.389 268.085L203.041 267.612L202.767 267.662L202.916 268.01L202.642 268.184L202.866 269.03L202.518 269.08L202.443 268.831L202.17 268.707L202.319 268.284L202.518 268.159V267.736L202.866 267.139L202.792 266.666L201.224 265.397L200.876 264.8V264.502L201.149 264.377V263.83L200.95 263.656V263.233L200.303 262.436L199.383 262.312L199.532 261.889L199.034 261.117H198.761L198.114 261.59L197.616 261.764V261.939L197.964 262.312L198.039 263.083L197.541 263.208L196.969 263.68L196.77 264.651L195.775 264.352L195.078 263.034L194.655 262.859L194.381 262.486L194.033 261.715L193.958 260.695L193.809 260.57L193.884 260.097L193.535 259.625L193.461 259.251L193.61 258.281L193.461 256.763L193.61 255.619L194.108 253.877V253.28L194.257 253.105L194.182 252.135L194.605 251.463V251.04L194.033 250.443L193.461 250.567V250.941L193.038 250.891L192.839 250.169L192.341 249.796L191.918 249L191.993 248.403L192.416 247.855L193.61 247.382L194.879 247.507L195.103 247.681H195.874L196.571 247.133V246.711L197.069 246.462L197.417 245.616L197.342 244.77L197.118 244.471H196.919L196.198 243.998L196.471 243.874L196.969 244.172L197.467 244.048L197.616 242.953L197.467 242.779L197.541 242.406L198.039 242.033L198.537 241.361V240.938L198.263 240.639L198.188 240.042L197.84 239.793L197.691 239.37L198.039 239.619H198.313L198.587 239.32L198.86 238.773L199.009 236.957L199.234 236.782L199.433 236.185L199.706 236.011L199.781 235.638L200.129 235.265L200.403 234.543L200.975 233.996L201.125 233.448H200.776L200.577 233.996L200.08 234.543L199.93 235.09L199.582 235.265L199.358 235.215L199.433 234.841L199.009 232.677L198.81 232.304L198.039 231.632L197.89 231.209L197.616 231.084L197.541 230.612L197.815 230.313L197.591 229.467L196.248 228.372L195.75 228.322V227.949L196.024 227.7L196.297 227.028L196.073 226.357L195.924 226.232L195.576 226.282L195.377 227.003L195.153 227.053L195.302 227.426L195.028 227.601L194.954 228.073L195.227 228.198V228.496L195.501 229.044L196.272 229.417L196.048 230.686L195.849 230.81V230.985L195.999 231.034L196.073 232.129L195.725 232.726L195.526 232.851L195.451 233.398L195.103 233.647V234.194L194.68 234.742L194.605 235.115L194.456 235.289H194.108L193.958 235.588L193.461 235.712L193.112 236.857H192.764L192.565 237.031L192.416 237.529L192.49 237.778L192.764 237.827L192.913 238.201H193.187V238.375L192.913 238.549V239.022L193.635 239.32L193.784 239.918L194.132 240.291V240.589L193.71 240.838L193.361 242.157L192.59 242.754L192.44 243.053L192.092 242.928L191.868 243.177L191.097 243.426H190.525L189.828 243.177L189.181 242.505L189.032 242.033L188.758 241.908L188.409 242.082L187.489 243.227L186.344 243.949L185.001 243.998L184.154 243.749L183.657 243.451L183.458 243.202V242.953L182.462 241.809L182.313 241.386L182.039 241.087L181.691 239.992L180.845 238.773L178.929 235.265L178.581 234.966L177.934 233.523L177.088 232.602L176.242 231.283L175.968 231.109L175.769 230.636L175.197 229.965L174.699 229.666L173.928 228.223L173.579 227.849L173.306 227.302L173.38 226.381L173.032 226.257L172.833 225.759L172.634 225.635L171.788 224.241L171.29 222.973L171.215 222.251L171.365 221.828L171.141 221.703L170.991 221.33L170.917 220.534L171.116 220.161L171.763 219.663L171.837 218.27L171.688 216.702L171.539 216.652V215.682L171.116 215.01L170.967 214.04L170.693 213.542L170.618 213.069V212.148L170.842 211.651L170.917 210.432L171.489 209.834L171.912 209.586L172.484 208.366L172.708 208.416L172.783 208.715L172.559 209.187L172.634 210.108L172.36 210.83L172.783 211.253L173.48 211.551H173.977L174.898 210.531H175.122L175.694 210.108L175.62 209.611L175.346 209.561L175.197 209.81L175.271 209.984L174.624 210.407H174.4L174.201 210.656L173.554 210.78L172.982 210.656V209.984L173.206 209.735V208.64L172.982 208.043L172.41 207.62L172.484 206.824L172.833 206.027L173.554 205.903V205.53L173.753 205.156H173.48L173.281 205.579L172.509 205.53L172.435 205.356H172.161V205.729L172.31 205.853L172.236 206.401L172.385 206.45L172.186 206.824H171.912L171.564 206.401L170.867 206.351L170.593 206.525L170.394 207.072H170.046L169.125 206.401V205.978L169.399 205.43V205.132L169.051 204.709L168.702 204.659L168.628 204.783L168.901 205.156V205.455L168.677 205.579V206.376L169.449 207.097L170.444 207.471L171.29 208.068L171.215 208.914L170.295 209.586L169.648 209.71L169.374 209.337L168.951 209.088L168.453 208.118L167.458 207.147L166.96 206.127L166.189 205.156L165.766 204.136L165.194 203.29L164.621 201.175L164.422 201.001L164.149 200.28L163.576 199.732L162.656 197.916L162.233 197.418H162.083L161.013 196.025L160.789 195.975L160.142 195.004V194.756L159.296 193.785L159.147 193.412H158.998L159.222 193.238L158.998 193.288L158.724 193.039L158.376 192.242L157.231 190.973L157.082 190.6L156.51 190.103L156.161 189.381L155.464 188.659L155.191 188.062L154.27 187.341L153.573 186.494L153.15 186.32L152.926 185.474L152.429 184.927L152.279 184.33L151.931 184.156L151.359 183.434L150.712 181.667L149.94 180.871L149.592 179.95L149.244 179.577L149.045 179.08L148.696 178.905L148.423 178.408L147.427 177.562H147.228L147.029 177.86H146.308L145.81 177.611L145.586 176.566L145.014 175.646L144.74 174.8L144.242 174.675L143.819 174.252L143.247 172.237L143.396 171.739L143.595 171.565L144.864 171.142L145.561 170.47L146.333 170.097L146.556 170.221L146.905 169.798L147.253 168.952L147.527 168.778L147.676 168.057L147.826 167.932L147.975 166.29L148.622 164.697V164.324L148.821 164.374L149.045 164.673L149.542 164.623L149.468 164.374L149.617 164.249L149.766 163.578L149.617 162.483L150.463 161.512L150.538 160.119L151.035 159.82V159.447L150.762 159.273L150.687 158.551L150.538 158.502L150.687 156.61L150.612 155.64L151.035 155.342L151.309 154.794L151.657 153.575L151.857 153.45L151.931 152.903L152.08 152.853L152.006 152.181L152.23 151.883L152.08 151.385L152.23 150.664V148.349L151.881 147.628L151.533 146.234V144.045L151.11 142.278L151.458 142.452L151.682 142.875L152.329 143.124L152.603 143.074L152.528 142.278L153.101 141.606V141.308L153.374 141.009L153.225 140.213L154.071 139.417L154.419 138.919V138.67L154.842 138.421V138.048L155.191 137.749L155.415 137.202L155.987 136.953L156.261 136.456L156.684 136.406L157.181 136.033V135.659L157.455 135.411L157.53 135.112L158.177 134.614L158.45 133.694L158.948 133.146V132.723L159.172 132.425V131.703L159.52 131.156L159.446 130.733L159.72 130.558V130.135L159.919 129.837V127.995L160.142 128.045L160.217 128.294H160.864L160.789 128.12L161.362 127.572L161.859 126.104L163.278 125.258L164.348 124.164V123.989L165.492 123.442L165.716 123.143L166.139 123.019L166.562 122.272L167.135 121.849L167.209 121.601H167.358V121.103L168.205 120.431L168.279 120.182L168.851 119.635L169.424 118.59L169.498 117.968L169.697 117.594L169.847 115.206L169.996 115.032L169.921 113.738L170.121 113.364H169.971V112.941L169.747 112.892V112.518L169.598 112.469L169.399 111.498L169.175 111.125L169.026 109.035L169.598 108.239L170.17 106.397L170.519 105.9L170.668 105.153L170.942 104.73V104.357L171.365 103.561L171.29 103.436L171.564 103.063L171.912 101.894L172.609 100.426L173.107 97.788L173.33 97.4894V96.5686L173.604 95.7725L173.753 95.7227V95.225L174.102 94.4287L174.674 94.18L175.943 92.7616L176.092 92.2141L176.515 91.7166L176.864 90.8456L177.784 89.8006V89.6264L179.974 88.2828L180.248 87.9842L180.522 87.9344L180.596 87.7602L181.019 87.6358H182.015L182.363 87.8846L181.094 88.5565L181.169 88.7307L181.666 88.6809L181.94 89.3527L183.707 90.0246L184.354 89.9748L185.001 90.149L185.075 90.3978H185.2L186.269 91.0696L186.842 91.2438L186.916 91.4428L187.19 91.5673L187.115 91.8161L187.464 92.3634H188.235L188.509 92.5376L188.733 92.8362L188.509 93.3339L188.658 93.3837V93.6325L188.932 93.7072L189.081 93.3339L189.007 92.7118L189.156 92.5376L188.808 92.2889L188.584 91.4428L188.385 91.2438L188.534 90.1987L187.688 89.9499V89.5269L187.912 89.3527L188.608 89.2284L190.3 89.7259L190.5 89.4771L191.221 89.1785L191.42 88.8052L191.694 88.7556L191.893 88.2081L192.739 87.2129L192.814 85.6203L192.963 85.3218H193.162V85.6203L193.436 85.7447H194.929L195.277 86.4912L195.974 87.0387L196.322 86.9639V86.2922L195.252 85.9935L194.829 85.247L193.411 85.1227L193.137 84.8739V84.625H192.938L192.863 84.7992L191.445 85.2969L191.022 86.1677L190.176 87.0883H188.409L188.26 86.9639L188.409 86.7897L188.335 86.541L187.837 86.4166L187.339 86.541L187.115 86.1677H186.543L186.618 85.5456L186.12 85.1227L185.971 84.625L186.394 82.7837L187.041 81.4897L187.812 80.6936L187.961 80.3203L189.156 79.4495L190.35 78.8274L191.072 78.7029L191.769 78.1555H192.042L192.192 77.9066L192.54 77.9564L193.734 77.5833L194.083 77.0856L194.804 76.5879L195.078 76.2146L196.272 76.0902L196.969 75.5926H198.611L199.955 76.2644L200.602 76.3143L201.025 76.8118L201.299 77.6828L201.995 78.479L202.419 78.6532L203.19 78.7278L203.464 79.0264L204.459 79.1508L204.807 79.5241L204.882 80.1959H205.031L205.106 80.3701L206.176 80.7931L206.45 81.0419H206.798L207.221 81.4152L208.838 81.241L209.983 81.6143L210.555 81.5645L211.401 81.1912L211.974 80.5194L212.67 80.2208L213.815 79.9719L215.581 79.1011L216.154 78.479L216.427 77.4837L217.498 77.5584L217.572 77.4339H217.846L217.92 77.2598H218.194L218.468 77.5086L219.165 77.5833L219.239 77.7077L220.882 77.8321L221.529 77.4588L222.375 77.21L222.101 77.0856L221.031 77.5086L219.961 77.4588L219.389 77.5833L218.244 76.4137L217.174 76.2893L216.676 76.5381L216.328 76.4885L215.557 75.6175L215.134 75.8664L214.91 76.2893L214.636 76.3392L214.213 76.7621L213.715 76.8865L213.218 76.6377V76.2146L213.019 76.0157V75.095L213.442 74.473L214.586 73.8011L214.86 73.2536L215.507 72.7062L216.154 71.7109L216.726 69.795L217.423 68.9988L217.995 68.9489L218.269 69.1231L218.493 70.5911L218.841 70.9644L219.264 71.1386L219.115 71.7607L219.264 72.4326L220.11 72.557L221.752 71.8851H221.329L219.986 72.4326H219.637L219.364 72.1837L219.588 70.9395L219.314 70.5166L218.816 70.3922V69.4715L218.667 69.347V69.0484L218.244 68.7498L218.766 65.0922L220.633 61.7578L220.309 53.7953L222.648 53.8452L227.401 56.5574L230.884 56.4331L233.721 49.5903L239.345 47.3757L241.186 42.6729L245.54 38.7663L247.531 34.3869L253.777 32.9686L256.962 31.1771L262.909 26.0513L264.775 22.8166Z" fill="#F2F2F2"/>
</svg>
