<svg width="223" height="488" viewBox="0 0 223 488" fill="none" xmlns="http://www.w3.org/2000/svg">
<path d="M49.1419 229.314L49.5648 229.488V229.911L49.1419 229.861L48.7188 230.234L48.0719 230.409L47.7982 231.429L47.9972 232.101L48.4202 232.524V233.071L49.0672 233.32L49.1419 233.793L49.4156 234.041L49.9132 235.908L49.8386 237.425L50.0625 238.023L50.4109 238.371L50.3362 239.342L50.5601 240.486L50.7592 240.909V241.083L50.4855 241.332V241.929L50.3362 242.228L50.9832 242.477L51.2569 242.85L51.6053 243.024L51.6799 243.497L52.1029 243.248L52.5259 243.422V243.895L52.3269 243.945L52.2522 244.243L52.8245 244.293L53.2475 245.015L53.0236 245.438L53.0982 245.911L53.2475 245.96L53.0982 246.508L53.1729 246.931L53.8696 248.075L54.3673 248.026L54.8649 248.324L54.9395 248.872L55.1635 249.046L55.2381 249.469V250.738L55.6612 251.335L56.1588 251.509L56.4325 251.882H56.6316L57.1293 251.758L59.0452 250.564L59.2691 250.862L59.3439 251.335L59.5429 251.385L59.4682 250.489L59.6922 250.439L60.0406 250.613L60.1152 250.987L59.6175 252.305H58.7715L58.6969 252.43L58.4978 252.38L58.1495 252.554L57.1542 252.679L56.9551 252.853L55.7607 252.728L55.1137 252.355L54.9645 251.982L54.4668 251.434V251.186L54.0438 250.763L53.6954 249.618L53.4217 249.195L53.0733 249.021L52.078 247.279L51.7296 246.98L51.1574 245.96L50.6597 245.537L48.6691 241.979L48.5198 241.208L48.1714 240.785L48.0221 240.063L47.3751 238.968L47.2258 237.998L46.8775 237.276L46.8029 236.43L47.0019 236.38V235.709L46.8029 235.46L46.7282 234.44L46.4545 233.768L46.3798 231.23L46.7282 230.807V230.558L47.3005 230.011L48.2212 229.712L48.7935 229.239H49.1419V229.314ZM121.775 0.816589L122.82 2.03581L125.806 11.4912L127.498 13.9545L132.997 15.8706L134.316 20.4489L138.471 23.4846L139.467 25.5747L144.816 24.032L147.379 25.6992L146.036 27.3663L146.608 28.8345L146.185 30.4517L147.802 34.6569L137.849 40.7034L136.953 42.0471L136.854 46.4264L133.768 50.7312L137.202 52.6968L138.198 57.2006L140.188 60.4104L137.924 62.0029L136.53 67.0542L133.544 69.3184L134.316 71.4583L137.003 74.7179L137.401 77.2311L136.506 79.57L137.352 82.3818L141.184 85.8156L145.463 86.4377L154.272 80.2917L156.636 77.5296L158.203 77.1565L163.056 85.1935L170.321 91.2649L167.485 103.557L164.076 111.644L165.245 113.535L172.113 117.143L173.432 118.909L173.606 120.552L172.71 122.742L170.222 125.479L171.391 130.903L172.81 134.187L182.489 142.05L184.753 146.629L188.411 147.35L189.058 156.657L190.054 159.394L189.431 163.201L187.764 162.33L184.48 165.191L178.035 164.893L173.954 167.63L171.541 171.511L173.108 176.538V179.15L164.972 186.242L165.743 188.009L169.351 190.671L170.197 192.736L170.272 198.857L169.525 201.271L170.943 204.779L170.496 208.412L169.749 209.557L167.236 210.104L164.3 207.989L160.443 209.93L158.179 212.841L152.182 212.418L151.435 215.255L143.995 225.158L143.075 227.647L139.417 229.637L138.919 234.589L139.74 237.774L143.025 241.332L149.569 245.139L150.639 246.881L150.788 252.181L152.033 253.748L154.794 254.172L160.717 252.554L164.001 253.226L164.748 254.42L165.146 257.68L166.29 258.526L164.947 261.96L166.539 264.373L170.993 264.796L172.611 268.703L174.278 268.952L180.225 266.19L180.125 268.355L180.897 269.375L184.928 269.848L186.445 272.261L187.018 276.292L195.826 280.92L196.772 286.569L200.778 292.142L205.058 295.402L204.461 298.488L203.192 300.403L197.021 303.389L193.836 307.52L193.736 315.283L188.859 321.678L190.203 326.033L189.929 327.899L191.099 328.421L192.442 330.984L194.184 330.81L196.672 333.199L198.912 332.602L200.977 330.686L203.341 330.561L203.689 332.776L205.257 335.04L204.784 338.549L206.202 340.166L207.098 344.645L210.781 345.466L212.199 349.92L217.201 355.444L222.376 362.934L220.734 365.621L219.589 369.851L217.848 370.921L213.891 371.17L212.075 376.694L211.478 382.043L208.069 385.552L207.571 387.144L207.745 388.737L210.433 390.031L211.602 391.748L208.666 396.898L207.098 397.695L206.849 399.212L209.089 402.646L209.487 405.06L209.81 420.313L210.457 425.09L212.971 427.504L212.199 432.381L208.541 436.91L205.356 437.208L200.529 441.214H196.274L193.288 439.273L191.621 439.522L191.372 440.343L192.542 442.931L192.044 444.524L189.108 445.121L177.811 458.607L174.527 459.951L170.272 459.603L166.44 464.48L162.583 465.301L161.563 468.486L162.508 476.299L160.941 478.563L155.218 480.877L154.297 483.764L151.933 485.456L148.176 486.053L143.846 484.46L142.005 487.521L138.073 485.58L135.56 486.177L134.067 481.25L129.812 479.384L116.425 483.44L110.478 479.558L105.601 479.733L103.735 475.926L99.5297 471.77L99.9775 469.531L99.032 465.077L95.0756 455.099L95.2746 454.377L89.6014 450.023L86.9389 445.245L87.138 444.3L93.309 440.12L92.8859 436.934L87.4366 430.739L81.5642 425.663L76.9858 423.174L71.3872 423.299L70.4416 421.283L69.9439 421.98L69.7946 421.657L70.0186 421.532V421.358L69.5956 421.657V421.433L69.2472 421.084L69.1725 420.736H68.9486L68.7993 420.512L68.5754 418.969L69.72 418.919L69.8693 419.342H70.0186L69.8693 418.87L70.5909 418.82L70.6655 418.646L70.0186 418.696L69.6702 418.397L69.2472 418.347L69.0979 418.472L68.874 418.297L69.297 418.074L69.496 417.725L69.8444 417.775L70.2674 418.248H70.4913L70.566 417.999L70.342 418.049V417.825L70.566 417.352L71.0637 417.526L71.9097 417.402L71.9843 417.277L72.258 417.327V417.153L71.9097 417.103L71.6359 417.277L70.2177 417.028L69.72 417.277L69.8693 416.979L69.72 416.63L70.143 416.456L70.342 416.506L70.4167 416.158L69.6453 416.282L69.4214 416.705L68.9984 416.755L68.7993 416.531L68.3763 416.406L68.3016 416.108L68.65 416.158V416.033H68.9237L69.073 415.685L68.5754 415.859L68.3016 415.809L68.3763 415.461L68.1026 415.685L67.6796 415.461L67.6049 414.864L67.4059 414.565V414.092H68.5505L68.6998 414.043V413.819L67.8538 413.868L68.0031 413.445L67.3561 413.744L66.7838 412.923L66.6345 412.45V412.151L66.8585 411.977L66.1368 411.803V411.156L65.9378 410.982L65.7885 410.459L65.8632 409.464L65.6392 409.041L65.2908 408.817L65.2162 407.399L64.7931 407.1L65.2162 407.051L65.4401 407.349H65.6392V407.175L64.9425 406.453L64.7185 406.404L62.9518 404.04L62.5289 403.865L61.8819 403.144L61.4588 403.019L60.3889 401.825L60.0406 401.651L59.6922 401.054L59.4185 400.058L59.0701 399.586L58.3485 399.113L58.1992 398.516L57.7016 397.918L57.6269 397.496L57.4776 397.446V397.023L57.2039 396.849L56.8556 395.356L56.6565 395.132V394.883L56.3082 394.709L56.2335 394.36L56.7311 394.236L57.7264 393.415L58.0002 392.818H58.1495L58.9208 391.922V391.673L59.6922 391.325L60.1899 390.852H60.4138L61.0607 390.379H61.3345L61.7574 389.956L62.6035 389.782L62.8025 389.533L63.5242 389.309L64.0218 388.961L64.5941 388.836L65.0172 388.413L65.9378 388.289L67.0078 387.642L67.5054 387.518L68.0777 387.045H68.5754L69.1476 386.796L69.5707 386.273L69.9191 386.224L70.4167 385.577L71.0637 385.452L70.9144 385.203L71.4866 384.979L72.1833 384.158L74.0247 383.81L74.2984 383.462L75.6421 383.039L76.0651 382.74H76.8365L77.1102 382.914L77.3092 383.437L77.4586 383.487V384.308L77.8069 384.905L77.7323 385.328L78.0807 385.626L78.2299 386.746L78.5036 387.169L78.429 387.418L79.076 388.239V388.463L79.2999 388.513L79.6482 389.284L79.922 389.334V390.528L78.9267 390.951L78.6529 390.777L78.4539 390.902L77.6079 390.479L76.1895 390.703L75.8411 390.479L75.7665 390.18H75.5426L75.3933 389.881H75.244L75.443 390.479L76.1646 390.902H76.8116L77.0853 390.727L77.782 390.777L78.429 391.126L78.7027 391.598H78.852V391.847L79.1257 392.021H79.4741V391.847L79.8224 391.723H80.3947V392.146L80.7431 392.494L80.5938 393.614L81.0168 395.281L81.3651 395.58L81.5891 396.401L82.0868 396.351L82.1614 396.873L81.9375 396.998V397.819L82.0868 398.167L82.5098 398.342L82.7337 398.988L83.2313 399.337L83.1567 399.635L83.4305 399.685L83.5797 399.262L83.7788 399.66L84.1272 399.859L84.0525 400.083L84.2018 400.332L84.9234 400.805L84.8488 401.029L85.1971 401.377V401.676L85.8441 402.621L85.7694 402.97L86.0431 403.219V403.517L86.3915 403.766V404.114L86.7398 404.587L86.8891 404.935L86.8145 405.358L87.0882 405.781V406.08L87.4366 406.428L87.785 407.249L88.7056 407.971L89.0539 408.966L89.253 409.016L89.3277 409.489L89.9 409.912L90.0493 410.385L90.4723 410.609V410.783L90.8953 411.007L91.0446 411.256L91.5422 411.554L92.1892 411.43L92.4131 411.604L92.6869 411.48L93.0352 411.604L93.2591 411.952L93.5329 412.077L93.6075 412.375L94.1051 412.425L95.2996 413.495L95.7226 414.217L95.9963 414.266L96.7179 414.864L96.9916 414.814L97.4146 415.112L98.0616 415.063L98.6338 414.839L98.9076 414.888L99.1813 414.665V414.49L99.6043 414.366L100.177 414.54L100.401 414.49V414.316L100.475 414.441L101.172 414.391L101.52 414.515L101.744 414.167L102.242 414.117L103.66 413.221L104.158 413.097L104.506 412.624L105.651 411.803L105.8 411.927L106.024 411.753L106.298 411.878L106.721 411.828L106.995 412.002L107.144 411.828H107.915L108.064 411.654L108.562 411.952L108.711 411.778H109.856L110.13 411.903V412.326H110.279L110.702 412.102L110.851 411.853L111.2 411.728L112.12 410.833L113.041 410.41L113.315 410.061L113.514 410.285H114.011L114.434 411.181L114.783 411.405H115.778L115.704 411.231H115.057L114.634 411.007L114.061 409.763L113.215 409.116L112.568 408.394L112.369 407.673L112.145 407.548V407.249L111.872 406.951L109.881 406.901L109.607 407.548L109.334 407.598L109.06 408.021L107.865 408.145L106.945 407.2L106.099 406.777L105.825 406.428L104.83 405.956L104.481 406.08V406.304L103.486 406.354L102.715 407.001H102.491L102.416 407.175L99.878 406.876L97.962 405.931L97.2404 406.055V405.881L97.5142 405.657L96.9418 405.533L96.5188 405.06L95.9465 404.886L95.2498 404.164L94.4038 403.816L94.2047 403.393L93.6324 403.044L93.5578 402.746L92.9108 402.273L92.6371 401.626L92.1395 401.327L92.0648 401.079L91.5671 400.78L91.4925 400.556L90.9948 400.133L90.3479 399.909L89.9995 399.486L89.3526 399.188L89.0042 398.765L88.1582 398.466L87.9342 398.118L87.2375 397.869L87.0136 397.52H86.7398L85.7445 396.923L85.3215 396.326L84.2516 395.43H84.0525L83.9032 394.783L83.2563 394.062L82.6093 392.046L82.3853 391.872L82.037 390.752L81.8131 390.703L81.7384 389.807L81.39 389.334V388.438L81.191 388.09L80.8426 386.423V384.83L80.5689 383.238L80.4943 382.989L80.2205 382.939L79.8722 381.919L80.0215 381.745H80.6684V381.62H80.1708L80.6684 381.322V381.148L80.2455 381.396L80.0215 381.347V381.173H79.7478L79.8971 381.471L79.8224 381.72L79.5238 380.799L79.1754 380.501V380.277L79.6731 380.152L80.0215 379.854L80.0962 379.555L79.5985 379.804L79.9469 379.505V379.281L79.3745 379.456L79.5238 379.207H79.1754L78.8271 379.381L78.9764 379.904L78.7027 379.555L78.1304 379.68L77.9811 379.431L77.6327 379.257L76.8613 378.137L76.7121 377.714H76.5628L76.2891 377.291L76.7867 376.868L76.8613 376.345L76.5877 375.45L75.667 374.031L75.1693 372.837L74.8209 372.538L74.4726 370.871L74.1989 370.448L74.0496 369.727H73.9003L73.6266 367.711L73.4773 367.587V366.641L73.6763 366.293L73.4773 364.8L73.2782 364.576L72.1336 364.277L71.2876 362.909L70.7899 362.685L70.5162 362.336L69.9439 361.988L69.7449 361.515L69.3218 361.266L68.8989 360.719L68.5505 359.127L68.9735 355.792L69.1228 355.742V355.394L69.4711 354.498L70.2425 353.254V352.906L70.5162 352.657L70.7153 352.01L71.4866 350.94L71.5613 350.517L71.9097 350.219L72.5567 349.273L72.8303 348.502L73.0294 348.377L73.527 347.606L73.6763 347.009H73.8256L74.0247 346.71L74.2487 345.939L74.6716 345.391L74.7463 344.794L74.8957 344.744L75.1693 343.849L75.443 343.6L75.866 342.779L76.2144 341.758L76.4135 341.46L76.6374 341.41V341.236L76.8365 341.112V340.937L77.2595 340.39L77.7572 340.141L78.4787 338.648L78.6778 338.524L79.2502 337.628L79.5985 337.379L79.1754 336.956L78.7525 336.782V336.608H79.1754L79.6731 337.155L79.8971 337.105L80.0962 336.757L80.5191 336.583L80.9422 336.16L81.7135 335.14L82.2111 335.015L82.5595 334.667L82.6342 334.244L82.8332 334.194L82.9826 332.577L82.8332 332.278L82.4849 332.029L83.4802 331.557L83.5548 330.959L83.9032 330.536L84.1023 329.889L84.376 329.715L84.5253 329.292L84.8736 329.043L85.1474 328.446L85.9187 327.899L86.7647 327.774L87.1131 327.177L87.6854 327.053V326.505L87.8844 325.958L88.1582 325.41L88.5812 325.162V325.037L87.7351 324.863L87.5858 323.918L88.5065 323.445L88.7803 323.022L89.0042 323.072L89.1535 322.599L89.5019 322.3V321.753L88.8549 320.31L88.9295 320.185L88.4319 320.135L88.2826 319.961L88.0835 320.135L87.8098 320.086V319.737H87.4615L87.1877 319.911L84.4258 319.787L82.6591 319.314L82.1614 319.016H81.8877L81.8131 319.265L81.614 319.314L81.4647 319.14L80.6933 319.09L79.4243 318.543L79.0013 318.12L78.429 317.871V317.747L77.583 317.274L76.936 316.503L76.5877 315.731L75.8163 314.711L75.3186 313.218L74.8209 312.372L74.2487 310.207V306.674L74.4477 305.654L74.2984 302.295L74.4477 301.225L74.3731 298.96L74.597 295.974L74.7961 295.502L75.3684 291.371L75.5924 290.948L75.5177 289.505L75.667 289.157L75.5924 285.549L75.3684 284.603L75.443 283.757L75.3684 283.035L75.2191 282.861L75.2937 282.314L75.1444 281.941L75.2191 281.045L75.0698 280.92V279.85L75.7168 279.004L76.8613 278.407L77.9313 278.109H78.3543L78.429 278.283H79.0013V278.158L80.4196 277.437H80.6933L80.8924 277.611L81.2408 278.756L81.0168 279.303L80.3201 279.726L80.6684 279.9L80.7431 280.149L80.6684 281.717L80.8675 284.603L81.2905 285.449L81.7135 285.573V286.245L82.2858 286.793L82.4352 287.216L84.9234 288.41L85.0727 288.883L85.4957 289.231L85.5703 290.003L85.1474 290.251L84.376 290.301V291.023L84.6497 291.794L84.575 292.217L85.222 292.565H85.7196L85.8689 292.391L86.5656 292.267L87.0633 292.69L87.4864 293.835L88.0586 294.481L88.5563 294.73H89.2033L89.5516 294.556L89.477 294.382L88.631 294.506L88.0586 294.158L87.785 293.735L87.561 292.839L87.2873 292.366H87.0633L86.7897 292.068H86.292L86.2173 291.894L85.7943 292.018L85.1474 291.769L85.5703 290.699H85.7943L86.1427 290.276L86.2173 289.679L85.8689 288.659L85.446 288.36V288.111L84.7243 287.564V287.39L84.4507 287.34L84.376 287.091L84.0276 286.917L83.6047 286.37L83.1816 285.399L82.6839 284.976L82.3356 282.986L82.4849 282.388L82.2111 282.214L82.4102 281.07L82.2111 281.02L81.9872 280.423L82.1365 278.507L81.9126 278.208L82.1365 277.86L83.4055 277.686L83.5548 277.511L84.6994 277.039L84.9234 276.79L85.4211 276.74L86.3417 276.093L86.9887 275.919L87.8347 275.446L88.83 275.272L89.3277 274.973L90.3976 274.799L90.8207 274.252H91.2436L91.3929 274.078L91.9653 274.202L92.6122 274.078L93.5329 274.973L93.9559 275.148H94.9512L95.1503 275.023V274.551H96.0709L96.6432 274.202L96.7179 273.953L97.0662 273.904L97.4146 273.605L97.6385 273.057L97.4893 272.809L97.6385 272.137L98.2855 271.788L98.7831 271.963L99.0071 271.614L99.3555 271.565L99.7038 270.793L99.9775 270.619L100.177 270.022L100.45 269.972L100.376 269.798L99.3804 269.673L97.7381 268.703L97.3897 267.31L97.539 266.961L97.3897 266.911L96.693 264.274L95.9216 263.552L95.7723 263.079L95.3493 262.482L95.2 261.462L94.5531 260.741L94.354 260.069L94.2793 258.999L94.0554 258.75L93.9061 258.028L93.7568 257.779L93.1845 257.829L92.9108 257.655L92.7615 257.357L92.4131 257.108L92.1892 256.56L91.4925 255.889L91.7662 255.839L91.9902 255.465L92.5624 255.341L92.6371 255.167L92.3634 255.042L91.7164 255.092L91.5671 255.465L91.4178 255.416V255.167L92.1892 254.619L92.5376 254.57L92.7366 254.196L93.085 254.246L93.2343 254.072H93.6573L93.7319 253.475L93.508 253.301V253.002L93.7817 252.703L93.508 252.529L93.5826 252.156L94.2296 252.206L94.6526 251.957L94.9263 250.812L95.2746 250.215V249.543L95.847 249.071L95.9963 248.349L96.4193 248.399L97.2653 247.802L97.4146 246.906L96.9169 246.234L97.1409 246.184L97.4146 246.558L97.8376 246.433L98.609 246.682L99.455 245.786L99.878 245.836L100.226 245.711L100.575 245.886H100.998L102.068 245.338L102.715 244.567L102.789 244.094L103.486 243.97V243.795L104.257 243.621L104.83 243.248L105.054 241.68L105.477 240.785L105.402 240.013L105.551 239.889V239.466L105.701 239.292L106.124 239.242L106.397 238.769L106.671 238.645L107.442 237.202L107.791 236.181L107.716 235.584L107.99 235.161V234.614L108.139 234.564L108.214 234.266H107.99L107.641 234.937L107.144 234.987L106.497 234.564L106.422 234.091L106.223 233.842L105.228 233.668V233.195L104.879 232.822L104.805 232.349L104.606 232.3V231.454L104.257 230.608V230.433L104.83 230.011V229.413L104.68 229.164L103.536 229.413L102.615 227.896V225.606L102.466 225.009L102.117 224.586L101.62 224.337L101.396 223.964L100.898 223.914L100.749 223.616L99.4052 223.143L99.1315 223.193L98.7085 222.894L98.7831 222.172L99.2062 221.749L98.7085 221.078L99.3555 220.53H100.351L100.625 219.933L101.545 219.684L101.694 219.211L102.615 218.838L102.764 218.465H104.257L104.332 218.092L104.481 218.042V217.619L104.904 217.445V217.022L105.676 216.474V216.101L106.173 215.38L106.248 215.006L106.447 214.882L106.87 214.932L107.567 214.036L108.064 213.911L108.263 213.364L108.612 213.24V212.817L108.338 212.518L108.114 211.796L107.691 211.672L107.617 211.125L107.417 210.95L107.492 210.403L107.293 209.98L107.368 209.806L107.094 209.209L106.248 209.034H105.327L105.402 209.532L105.676 209.905L105.949 210.03H106.149L106.223 209.781L106.422 209.657L107.069 209.781L106.92 210.453L106.497 211.125L106.422 211.622L106.497 213.737L105.502 213.911L105.153 214.384L102.814 215.28L102.54 215.703L102.192 216.972L101.844 217.445V217.868L101.645 218.042L101.296 218.092L100.027 217.793L99.3804 218.266L98.1113 218.39L97.0414 218.813L96.1954 219.361L96.3447 220.033L96.1456 220.406H95.8719V219.858L95.5981 219.809L94.2545 220.232L94.1799 220.48L93.6822 220.779V220.953L93.2591 221.252L93.1845 221.799H92.9855L93.0601 222.347L92.7864 222.396L92.5873 222.645V223.665L92.438 223.964L92.5127 224.636L92.015 225.606L92.2141 226.452L91.9403 226.627L91.6667 226.502H91.3929L91.3183 226.627L91.5422 226.875L92.1145 226.925L91.9653 227.174V228.07L91.1939 228.493L90.6216 229.164L90.4723 229.762L90.0493 229.289L89.9 228.319L89.477 228.144L88.631 228.518L88.2826 228.468L87.8596 229.065L87.2873 229.314L86.7897 229.737H86.3666L85.222 230.21L84.0774 230.259L83.0074 229.538L82.5844 229.413V229.164L82.3107 229.04L82.236 228.567L81.5891 228.443L81.4398 228.02L81.2408 227.896L81.5891 227.472V227.298L82.0121 227.124L82.0868 226.751L81.8628 226.203L82.4352 225.357L82.1614 224.462L81.8877 224.412L81.8131 224.113H81.4647L81.2657 223.939L80.3449 222.72L79.698 222.297L79.3496 221.824L78.7774 221.525L78.205 220.978L78.1304 220.729L77.2844 220.132L77.782 219.833H77.9313L78.006 220.008L78.5036 219.833L78.6529 219.162L78.8768 218.988L79.3745 219.037L79.7229 218.863L79.9469 218.614V218.191L79.6731 217.345L78.9018 216.798L78.8271 215.653L78.3294 215.23L78.1801 214.086L77.6079 213.19L77.3839 213.016H76.9609L76.5378 213.488H76.2642L75.6172 212.891L75.5426 211.796L76.0402 211.672L75.891 211.199L76.8116 211.125L76.9609 211L77.4586 210.403L77.3839 209.806H77.8815V209.507L77.6825 209.457L77.1102 209.706L77.1848 210.502L77.0355 210.627L75.8411 210.453L75.6918 210.627L75.5426 211.597L75.0449 212.394V213.115L75.1942 213.414L74.9703 213.837V214.558L74.8209 214.857L75.1693 215.404L75.866 215.23L76.7867 215.604L77.2097 216.026L77.2844 216.698L76.7867 217.669L76.6374 218.689L76.1398 218.938L75.866 219.41L75.2937 219.361L74.9454 219.734L74.7961 220.456L74.6468 220.58V221.003L74.9951 221.302V221.899L74.4229 222.272L74.1491 222.695L74.0745 223.118L73.6515 223.591L73.7262 224.014L73.9998 224.263V224.81L74.2238 225.233V225.706L73.9998 225.955L74.0745 226.975L73.9252 227.149V227.696L73.2782 227.821L73.0045 228.07L72.9299 228.319L72.5815 228.493L72.5068 228.916L72.0839 229.164L71.7355 229.712L71.5862 230.259L71.1632 230.732L70.9641 231.28L71.0388 231.752L70.5412 232.897V233.32L70.0435 233.668L69.5458 234.464L68.8989 234.888L68.8242 235.36L68.4758 235.609V236.58L68.2768 237.003L67.0078 237.674L66.4354 238.147L66.0871 239.167H65.888L65.042 239.939L65.1913 240.187L65.042 240.486L64.1213 241.158V241.282L63.773 241.407L63.5739 241.78L62.4293 242.626L61.658 243.472L61.5087 243.945L60.6627 244.666L60.3889 245.338V245.811L60.4635 246.06L60.7373 246.234V246.533L61.3842 246.831L61.5833 247.254L62.2302 247.727H62.6533L63.0763 248.399L63.0016 248.772L62.8025 248.822V248.946L62.1556 248.822L62.0809 248.996H61.857L61.658 247.603L60.5133 246.707L60.3143 246.334L60.3889 246.085L60.0406 245.612L59.7668 245.662L59.9161 246.01L59.6424 246.184L59.8664 247.03L59.518 247.08L59.4433 246.831L59.1697 246.707L59.319 246.284L59.518 246.159V245.736L59.8664 245.139L59.7917 244.666L58.2241 243.397L57.8757 242.8V242.502L58.1495 242.377V241.83L57.9504 241.656V241.233L57.3035 240.436L56.3828 240.312L56.5321 239.889L56.0344 239.117H55.7607L55.1137 239.59L54.6161 239.764V239.939L54.9645 240.312L55.0391 241.083L54.5414 241.208L53.9692 241.68L53.7701 242.651L52.7748 242.352L52.078 241.034L51.655 240.859L51.3813 240.486L51.0329 239.715L50.9583 238.695L50.809 238.57L50.8836 238.097L50.5353 237.625L50.4607 237.251L50.61 236.281L50.4607 234.763L50.61 233.619L51.1076 231.877V231.28L51.2569 231.105L51.1822 230.135L51.6053 229.463V229.04L51.0329 228.443L50.4607 228.567V228.941L50.0376 228.891L49.8386 228.169L49.3409 227.796L48.9179 227L48.9926 226.402L49.4156 225.855L50.61 225.382L51.879 225.507L52.1029 225.681H52.8743L53.571 225.133V224.71L54.0686 224.462L54.417 223.616L54.3424 222.77L54.1184 222.471H53.9193L53.1978 221.998L53.4715 221.874L53.9692 222.172L54.4668 222.048L54.6161 220.953L54.4668 220.779L54.5414 220.406L55.0391 220.033L55.5367 219.361V218.938L55.263 218.639L55.1884 218.042L54.84 217.793L54.6907 217.37L55.0391 217.619H55.3128L55.5865 217.32L55.8602 216.773L56.0095 214.957L56.2335 214.782L56.4325 214.185L56.7062 214.011L56.7809 213.638L57.1293 213.265L57.4029 212.543L57.9753 211.996L58.1245 211.448H57.7762L57.5771 211.996L57.0795 212.543L56.9302 213.09L56.5818 213.265L56.3579 213.215L56.4325 212.841L56.0095 210.677L55.8105 210.304L55.0391 209.632L54.8898 209.209L54.6161 209.084L54.5414 208.612L54.8152 208.313L54.5912 207.467L53.2475 206.372L52.7498 206.322V205.949L53.0236 205.7L53.2973 205.028L53.0733 204.357L52.924 204.232L52.5757 204.282L52.3766 205.003L52.1527 205.053L52.302 205.426L52.0283 205.601L51.9537 206.073L52.2273 206.198V206.496L52.5011 207.044L53.2724 207.417L53.0484 208.686L52.8494 208.81V208.985L52.9987 209.034L53.0733 210.129L52.725 210.726L52.5259 210.851L52.4513 211.398L52.1029 211.647V212.194L51.6799 212.742L51.6053 213.115L51.456 213.289H51.1076L50.9583 213.588L50.4607 213.712L50.1123 214.857H49.7639L49.5648 215.031L49.4156 215.529L49.4902 215.778L49.7639 215.827L49.9132 216.201H50.1869V216.375L49.9132 216.549V217.022L50.6349 217.32L50.7842 217.918L51.1325 218.291V218.589L50.7095 218.838L50.3611 220.157L49.5897 220.754L49.4405 221.053L49.0921 220.928L48.8681 221.177L48.0968 221.426H47.5245L46.8277 221.177L46.1808 220.505L46.0315 220.033L45.7578 219.908L45.4094 220.082L44.4888 221.227L43.3441 221.949L42.0005 221.998L41.1544 221.749L40.6568 221.451L40.4577 221.202V220.953L39.4624 219.809L39.3131 219.386L39.0394 219.087L38.691 217.992L37.845 216.773L35.9291 213.265L35.5807 212.966L34.9337 211.523L34.0877 210.602L33.2417 209.283L32.968 209.109L32.7689 208.636L32.1967 207.965L31.699 207.666L30.9276 206.223L30.5792 205.849L30.3055 205.302L30.3802 204.381L30.0318 204.257L29.8328 203.759L29.6337 203.635L28.7876 202.241L28.29 200.973L28.2154 200.251L28.3647 199.828L28.1407 199.703L27.9914 199.33L27.9168 198.534L28.1158 198.161L28.7628 197.663L28.8375 196.27L28.6882 194.702L28.5389 194.652V193.682L28.1158 193.01L27.9665 192.04L27.6929 191.542L27.6182 191.069V190.148L27.8422 189.651L27.9168 188.432L28.4891 187.834L28.9121 187.586L29.4844 186.366L29.7084 186.416L29.783 186.715L29.5591 187.187L29.6337 188.108L29.36 188.83L29.783 189.253L30.4797 189.551H30.9773L31.898 188.531H32.122L32.6943 188.108L32.6196 187.611L32.3459 187.561L32.1967 187.81L32.2713 187.984L31.6243 188.407H31.4004L31.2013 188.656L30.5544 188.78L29.982 188.656V187.984L30.206 187.735V186.64L29.982 186.043L29.4097 185.62L29.4844 184.824L29.8328 184.027L30.5544 183.903V183.53L30.7534 183.156H30.4797L30.2806 183.579L29.5093 183.53L29.4346 183.356H29.1609V183.729L29.3102 183.853L29.2356 184.401L29.3849 184.45L29.1858 184.824H28.9121L28.5637 184.401L27.867 184.351L27.5933 184.525L27.3942 185.072H27.0459L26.1252 184.401V183.978L26.3989 183.43V183.132L26.0506 182.709L25.7022 182.659L25.6275 182.783L25.9013 183.156V183.455L25.6773 183.579V184.376L26.4487 185.097L27.444 185.471L28.29 186.068L28.2154 186.914L27.2947 187.586L26.6477 187.71L26.3741 187.337L25.951 187.088L25.4533 186.118L24.458 185.147L23.9604 184.127L23.189 183.156L22.766 182.136L22.1937 181.29L21.6214 179.175L21.4223 179.001L21.1487 178.28L20.5763 177.732L19.6557 175.916L19.2326 175.418H19.0833L18.0134 174.025L17.7895 173.975L17.1425 173.004V172.756L16.2965 171.785L16.1472 171.412H15.9979L16.2218 171.238L15.9979 171.288L15.7241 171.039L15.3758 170.242L14.2312 168.973L14.0819 168.6L13.5096 168.103L13.1612 167.381L12.4645 166.659L12.1908 166.062L11.2702 165.341L10.5734 164.494L10.1504 164.32L9.92646 163.474L9.42878 162.927L9.27948 162.33L8.93116 162.156L8.35883 161.434L7.71193 159.667L6.94049 158.871L6.59217 157.95L6.24377 157.577L6.04474 157.08L5.69635 156.905L5.42267 156.408L4.42737 155.562H4.22827L4.02924 155.86H3.30761L2.81 155.611L2.58599 154.566L2.01373 153.646L1.73998 152.8L1.24237 152.675L0.819327 152.252L0.24707 150.237L0.396361 149.739L0.595391 149.565L1.86444 149.142L2.56116 148.47L3.33252 148.097L3.55646 148.221L3.90478 147.798L4.25317 146.952L4.52685 146.778L4.67622 146.057L4.82551 145.932L4.9748 144.29L5.6217 142.697V142.324L5.82081 142.374L6.04474 142.673L6.54243 142.623L6.46779 142.374L6.61708 142.249L6.76637 141.578L6.61708 140.483L7.46308 139.512L7.53773 138.119L8.03534 137.82V137.447L7.76167 137.273L7.68702 136.551L7.53773 136.502L7.68702 134.61L7.61238 133.64L8.03534 133.342L8.30909 132.794L8.65741 131.575L8.85652 131.45L8.93116 130.903L9.08045 130.853L9.00581 130.181L9.22975 129.883L9.08045 129.385L9.22975 128.664V126.349L8.88135 125.628L8.53303 124.234V122.045L8.10999 120.278L8.45838 120.452L8.68232 120.875L9.3293 121.124L9.60297 121.074L9.52833 120.278L10.1007 119.606V119.308L10.3743 119.009L10.225 118.213L11.0711 117.417L11.4194 116.919V116.67L11.8424 116.421V116.048L12.1908 115.749L12.4147 115.202L12.9871 114.953L13.2608 114.456L13.6838 114.406L14.1814 114.033V113.659L14.4552 113.411L14.5298 113.112L15.1768 112.614L15.4505 111.694L15.9481 111.146V110.723L16.1721 110.425V109.703L16.5204 109.156L16.4458 108.733L16.7195 108.558V108.135L16.9185 107.837V105.995L17.1425 106.045L17.2171 106.294H17.8641L17.7895 106.12L18.3618 105.572L18.8594 104.104L20.2777 103.258L21.3477 102.164V101.989L22.4923 101.442L22.7163 101.143L23.1393 101.019L23.5623 100.272L24.1346 99.8494L24.2092 99.6005H24.3585V99.103L25.2046 98.4311L25.2792 98.1824L25.8515 97.6349L26.4238 96.5898L26.4985 95.9678L26.6975 95.5945L26.8468 93.2058L26.9961 93.0316L26.9214 91.7377L27.1205 91.3644H26.9712V90.9414L26.7473 90.8916V90.5185L26.598 90.4687L26.3989 89.4982L26.175 89.125L26.0257 87.0348L26.598 86.2386L27.1703 84.3973L27.5187 83.8996L27.668 83.1531L27.9416 82.7302V82.3569L28.3647 81.5606L28.29 81.4362L28.5637 81.0631L28.9121 79.8935L29.6088 78.4255L30.1065 75.788L30.3304 75.4894V74.5686L30.6041 73.7725L30.7534 73.7227V73.225L31.1018 72.4287L31.6741 72.18L32.9431 70.7616L33.0924 70.2141L33.5154 69.7166L33.8638 68.8456L34.7844 67.8006V67.6264L36.9741 66.2828L37.2479 65.9842L37.5215 65.9344L37.5962 65.7602L38.0192 65.6358H39.0145L39.3629 65.8846L38.0939 66.5565L38.1685 66.7307L38.6661 66.6809L38.9399 67.3527L40.7066 68.0246L41.3535 67.9748L42.0005 68.149L42.0752 68.3978H42.1995L43.2695 69.0696L43.8418 69.2438L43.9165 69.4428L44.1901 69.5673L44.1155 69.8161L44.4639 70.3634H45.2352L45.5089 70.5376L45.7329 70.8362L45.5089 71.3339L45.6583 71.3837V71.6325L45.932 71.7072L46.0813 71.3339L46.0066 70.7118L46.1559 70.5376L45.8076 70.2889L45.5836 69.4428L45.3845 69.2438L45.5338 68.1987L44.6878 67.9499V67.5269L44.9118 67.3527L45.6085 67.2283L47.3005 67.7259L47.4996 67.4771L48.2212 67.1785L48.4202 66.8052L48.6939 66.7556L48.893 66.2081L49.739 65.2129L49.8137 63.6203L49.963 63.3218H50.1621V63.6203L50.4358 63.7447H51.9287L52.2771 64.4912L52.9738 65.0387L53.3222 64.9639V64.2922L52.2522 63.9935L51.8292 63.247L50.4109 63.1227L50.1372 62.8739V62.625H49.9381L49.8634 62.7992L48.4452 63.2969L48.0221 64.1677L47.1761 65.0883H45.4094L45.2602 64.9639L45.4094 64.7897L45.3348 64.541L44.8371 64.4166L44.3394 64.541L44.1155 64.1677H43.5432L43.6179 63.5456L43.1202 63.1227L42.9709 62.625L43.3939 60.7837L44.0408 59.4897L44.8122 58.6936L44.9615 58.3203L46.1559 57.4495L47.3503 56.8274L48.0719 56.7029L48.7686 56.1555H49.0423L49.1916 55.9066L49.54 55.9564L50.7343 55.5833L51.0827 55.0856L51.8043 54.5879L52.078 54.2146L53.2724 54.0902L53.9692 53.5926H55.6114L56.9551 54.2644L57.602 54.3143L58.025 54.8118L58.2987 55.6828L58.9955 56.479L59.4185 56.6532L60.1899 56.7278L60.4635 57.0264L61.4588 57.1508L61.8072 57.5241L61.8819 58.1959H62.0312L62.1058 58.3701L63.1758 58.7931L63.4495 59.0419H63.7978L64.2209 59.4152L65.8383 59.241L66.9828 59.6143L67.5552 59.5645L68.4012 59.1912L68.9735 58.5194L69.6702 58.2208L70.8148 57.9719L72.5815 57.1011L73.1538 56.479L73.4275 55.4837L74.4975 55.5584L74.5722 55.4339H74.8458L74.9205 55.2598H75.1942L75.4679 55.5086L76.1646 55.5833L76.2393 55.7077L77.8815 55.8321L78.5285 55.4588L79.3745 55.21L79.1008 55.0856L78.0308 55.5086L76.9609 55.4588L76.3886 55.5833L75.244 54.4137L74.174 54.2893L73.6763 54.5381L73.328 54.4885L72.5567 53.6175L72.1336 53.8664L71.9097 54.2893L71.6359 54.3392L71.213 54.7621L70.7153 54.8865L70.2177 54.6377V54.2146L70.0186 54.0157V53.095L70.4416 52.473L71.5862 51.8011L71.8599 51.2536L72.5068 50.7062L73.1538 49.7109L73.7262 47.795L74.4229 46.9988L74.9951 46.9489L75.2689 47.1231L75.4928 48.5911L75.8411 48.9644L76.2642 49.1386L76.1149 49.7607L76.2642 50.4326L77.1102 50.557L78.7525 49.8851H78.3294L76.9858 50.4326H76.6374L76.3637 50.1837L76.5877 48.9395L76.3139 48.5166L75.8163 48.3922V47.4715L75.667 47.347V47.0484L75.244 46.7498L75.7665 43.0922L77.6327 39.7578L77.3092 31.7953L79.6482 31.8452L84.4008 34.5574L87.8844 34.4331L90.7211 27.5903L96.3447 25.3757L98.186 20.6729L102.54 16.7663L104.531 12.3869L110.777 10.9686L113.962 9.17712L119.909 4.0513L121.775 0.816589Z" fill="#F2F2F2"/>
</svg>
