<svg width="341" height="341" viewBox="0 0 341 341" fill="none" xmlns="http://www.w3.org/2000/svg">
<rect width="341" height="341"/>
<path d="M200.15 25.3811L203.235 24.0125L205.823 28.0187L215.477 31.9749L219.608 34.7867L222.221 37.8721L222.843 39.3402L222.768 44.2173L226.302 50.2388L225.729 54.3444L226.625 60.5154L227.297 62.5805L229.387 64.6209L229.636 69.3238L228.068 73.0313L221.126 77.4854L221.275 80.7201L220.529 84.1041L219.633 85.174L217.543 85.2736L217.493 89.429L219.26 92.4397L219.633 95.5999L222.693 95.9981L224.261 97.466L228.441 97.5904L230.905 100.85L232.796 101.97L244.292 102.841L247.128 105.08L249.368 109.211L246.282 111.898L244.466 117.347L238.942 120.259L235.384 127.002L237.822 129.415L242.351 131.107L243.097 135.661L245.387 135.96L247.203 133.795L248.223 135.536L250.363 135.661L250.736 137.353L256.634 144.743L256.26 147.182L253.424 148.948L255.564 153.303L255.091 157.483L258.674 158.827L261.585 162.609L271.489 167.013L273.156 169.004L274.226 171.79L287.289 178.683L293.958 189.83L297.715 191.97L300.9 199.136L303.389 203.839L303.613 206.079L301.597 208.119L294.953 210.359L292.888 211.976L293.883 213.767L298.163 214.763L298.885 215.808L296.123 219.739L298.064 221.805L298.163 226.483L290.798 231.086L290.873 232.529L293.435 235.639L292.988 237.854L286.045 240.79L284.204 242.905L283.731 244.821L282.164 246.762L281.168 250.444L277.063 253.804L279.924 256.665L279.078 258.556L276.316 259.253L272.733 255.968L270.369 255.744L268.901 256.043L269.05 259.029L268.528 259.477L264.721 259.95L264.123 262.413L261.536 265.698L261.486 269.878L259.694 278.612L258.649 280.677L255.141 281.423L254.593 284.633L249.965 285.031L249.044 287.395L247.701 287.569L241.505 281.573L241.58 280.503L243.844 278.039L246.631 272.764L245.511 271.968L240.883 272.714L238.693 271.844L234.588 264.777L233.418 260.696L230.731 259.775L228.068 256.391L225.456 257.81L220.927 264.03L217.194 263.16L214.607 265.299L214.507 266.22L216.498 267.24L219.16 271.147L219.459 274.257L218.613 276.596L217.12 276.671L212.641 272.466L209.406 271.794L207.565 272.714L204.554 272.018L200.896 272.864L193.257 278.263L188.057 276.671H183.702L180.617 279.234L178.925 276.969L182.533 269.554L176.187 269.878L175.441 271.271L174.694 276.745L176.81 279.308L174.918 280.801L170.663 280.154L167.329 285.678L165.09 285.952L157.948 283.713L156.48 279.831L153.619 275.178L150.16 275.75L147.025 279.358L144.512 280.453L142.421 279.408L140.904 275.526L138.44 274.183L136.972 278.836L137.569 281.025L136.126 283.439L135.803 286.922L138.49 289.062L139.211 292.72L141.874 295.706L142.247 298.169L141.799 299.588L137.221 302.449L132.692 303.021L130.926 307.376L126.994 306.804L123.411 308.297L122.54 310.287L120.923 309.889L118.136 311.73L116.941 308.471H116.07L115.324 309.765L114.627 314.915L113.234 316.433L112.413 314.642L110.198 314.169L108.207 311.382H103.181L99.4238 305.833L99.3492 304.241L97.9059 301.827L92.5312 298.568L86.7086 292.944L83.0011 293.467L76.8301 297.523L74.6404 296.9L73.8193 294.885L71.1071 293.641L70.3855 289.958L66.0062 285.853L63.1197 281.722L58.6159 273.685L59.5863 270.873L59.1882 268.634L55.3314 263.906L53.4403 263.682L54.9083 257.959L56.3764 255.57L56.9238 254.998L53.4652 253.505L53.1417 252.012L60.0342 247.633L60.4075 246.19L59.9845 245.617L56.3516 246.364L55.3314 245.393L55.1821 243.9L61.8258 233.748L62.6718 230.414L66.0062 228.1L68.0217 225.338L75.5612 224.119L75.7353 223.248L74.9142 222.203L70.908 221.108L69.5395 218.744L70.6592 213.942L75.163 210.956L75.6358 209.388L75.1132 207.497L72.7991 206.427L66.877 207.696L61.0296 206.726L56.4262 201.799L51.798 198.614L48.4637 194.508L44.6815 193.115L43.0143 191.025L42.3674 188.711V184.605L44.6815 181.246L50.6285 178.932L55.829 175.548L65.9314 175.025L67.1756 171.542L70.7836 170.397L72.9484 165.62L72.1273 163.704L68.2953 159.822L61.0047 164.749L58.6657 168.357L55.6549 169.004L54.4854 168.357L55.9285 164.873L53.7388 160.568L53.8384 157.209L59.4121 153.253L60.4822 151.387L61.5272 145.44L65.9563 142.305L66.3545 140.613L65.5085 136.233L68.2704 130.062L73.6451 129.142L75.2874 126.902L75.1381 125.633L70.6592 122.996L69.5395 120.383L62.1742 118.691L61.0047 117.745L60.0591 115.406L55.1572 114.76L52.8928 113.839L51.7233 112.246L49.8074 106.872L50.3796 104.359L54.4854 99.6806L52.8928 93.9577L57.3469 91.6684L58.2675 87.6872L61.3779 84.9749L62.1742 85.2736L70.4601 79.1276L74.4414 79.3018L78.8208 83.5318L85.0913 81.5909L88.3509 82.0637L97.3088 90.7228L101.564 87.3388L105.421 86.8164L105.769 80.7201L104.4 76.3905L117.787 72.3097L122.017 74.2008L123.51 79.1276L126.024 78.5304L129.955 80.4712L131.796 77.4356L136.126 79.0032L139.883 78.4309L142.247 76.714L143.168 73.8524L148.891 71.5135L150.459 69.274L149.513 61.4609L150.533 58.2759L154.415 57.4547L158.222 52.5778L162.477 52.9262L165.762 51.5825L177.083 38.0961L180.019 37.499L180.517 35.9064L179.348 33.3187L179.596 32.4975L181.264 32.2735L184.225 34.2144H188.48L193.282 30.2084L196.492 29.9098L200.15 25.3811Z" fill="#F2F2F2"/>
</svg>
