<svg width="390" height="390" viewBox="0 0 390 390" fill="none" xmlns="http://www.w3.org/2000/svg">
<rect width="390" height="390"/>
<path d="M274.536 247.163L276.104 247.586L276.253 248.009L275.681 248.258L273.69 248.134L273.118 247.885L272.894 247.586V247.287L273.118 247.163H274.536ZM259.084 239.698L259.233 241.017L258.81 241.365V241.714L258.462 241.664L258.039 241.838L257.964 242.087L257.268 242.435L257.193 242.61L256.845 242.659L256.571 242.485L256.496 242.311L256.646 241.963L256.496 241.714L257.342 240.221L258.263 239.922L258.412 239.748L259.084 239.698ZM244.204 58.0053L244.627 58.08L244.428 58.3287V58.7517L244.702 59.1748H244.926L245.125 59.4734L245.548 59.7222L245.324 60.0955L245.548 60.5931L245.971 60.9663H246.618L247.389 61.2649L247.588 61.6382L247.663 62.1855L247.936 62.5588L248.011 63.3551L247.812 63.5293V63.778L248.31 64.4996L249.38 64.6738L250.151 64.2508L250.499 63.8775L251.271 63.9273L251.843 63.5044V63.2058L252.117 63.156L252.391 63.2804L252.465 63.4546L252.888 63.5044L253.311 64.0517L253.46 64.649L254.033 64.9476L254.381 65.6193L254.73 65.9179L256.347 66.2912L256.422 66.5898L256.695 66.8386L256.969 67.809L257.691 67.8588L257.268 69.3268L257.915 70.1729L258.263 70.2227L258.338 70.4715L259.258 70.9692L260.677 71.3921L261.746 71.5165L262.393 71.7654L263.314 72.3875L264.807 72.5119L264.956 72.8105L266.101 72.5617L266.375 72.8105L267.942 73.2334L268.515 74.0795L270.082 74.4526L271.078 75.4231L271.849 77.0654L271.924 77.6128L272.645 78.5832L273.068 78.9565H273.342L273.765 79.3795H274.039L274.536 80.2254L275.183 80.7231L275.258 81.2208L275.457 81.395H275.731L276.154 81.818L276.801 82.1165V83.2114L276.651 83.7589L275.656 84.4804L275.457 85.5753V86.6701L275.955 87.7649L276.179 87.8893L276.253 88.4865L276.602 88.9842L277.249 89.2827L277.821 89.9546L278.592 90.2532L278.866 90.6762L279.588 90.9251H280.234L280.583 90.6762L281.28 91.6466L281.926 92.1443L282.126 92.5175L282.549 92.5673L282.972 92.9406L283.743 94.4584L284.166 94.5828L284.589 95.5532V95.8518L285.087 96.5733L285.236 97.2452L286.082 98.3899L286.43 99.3105L286.505 101.5L287.276 101.674L287.699 102.396L287.774 102.819L288.122 103.242V103.74L288.471 104.287L288.247 105.382L289.317 105.556L289.665 106.054L289.59 106.526L289.74 107.024L290.163 107.148L290.312 107.323V107.696L290.163 107.746L290.013 108.343L289.59 108.467L289.516 109.189L289.789 109.662H290.138L289.789 110.259V110.98L290.213 112.548L290.486 112.847H291.058L291.407 113.27L291.258 113.693L291.034 113.742L290.884 114.24V114.713H291.034L291.307 115.982L291.531 116.032L291.73 116.455L292.079 116.753L292.775 116.803L293.348 116.33H293.696L294.194 116.878V117.475L293.92 118.072L293.572 118.371L292.95 118.147V118.321H292.8L292.601 118.694L292.527 118.943L292.726 119.615V120.287L293.298 120.884L293.522 120.934L294.169 122.028L294.741 122.327L295.388 122.377L295.463 123.223L295.811 123.521L295.96 123.944L296.234 124.118H296.583L296.732 124.591L296.309 125.064H296.159V125.313L296.657 126.109L297.155 126.532L297.727 126.706L298.15 127.179H298.722L298.922 126.806L300.191 126.632L300.414 127.527L300.987 127.95L301.41 128.075V128.199L302.057 128.324L302.206 128.498L303.127 128.871L303.624 129.717L306.809 130.986L306.959 131.16L307.954 131.583L308.452 132.006L309.223 132.056L310.567 132.653V132.778L310.218 132.827L307.879 132.355L307.307 133.151V133.698L307.108 134.246L307.183 134.619L306.909 135.042L307.058 135.216L306.984 135.888L307.133 136.137V136.734L307.282 136.784V137.58L307.631 138.003L307.705 138.426L307.904 138.55L308.128 139.347L308.402 139.72H308.75L308.601 140.093L309.372 140.641L309.522 141.188L309.721 141.238L310.144 141.785L310.417 141.835V142.009L311.189 142.557L311.338 142.805H311.686V143.179L311.96 143.427L312.607 143.552V143.801L312.881 143.85L313.03 144.149L313.801 144.448L314.025 144.696L314.523 144.746L314.797 145.045L317.907 145.592L318.131 145.642V145.766L318.33 145.642L318.828 145.891L319.524 145.941V146.065L321.167 146.438L321.59 146.612L321.739 146.861L322.461 147.11L322.535 147.483L322.958 147.782L324.451 148.379L326.442 149.897L328.781 150.867L329.353 150.693L329.627 150.743L329.901 151.166L330.05 150.867L330.697 151.041L331.12 151.639H331.543L331.891 152.236L332.464 152.534L332.538 152.783L332.887 152.833V153.803H333.16L333.733 154.102L333.658 154.898L332.389 156.043L331.742 156.217L331.319 156.59L330.548 156.764L329.975 157.138L328.557 157.262L328.482 157.013L327.985 157.138H325.571L325.073 157.013L324.874 157.312L323.108 157.785L321.764 158.332L321.689 158.581L321.416 158.705L321.341 158.954L320.769 159.502L320.619 159.974L320.196 160.273L319.848 160.945V161.318L319.574 161.567L319.425 162.239L319.226 162.363L318.579 162.313L318.504 162.487L318.007 162.786L317.808 163.508L317.235 164.18V164.428L316.812 164.976L316.538 165.697L315.817 169.853L315.892 170.873L315.742 171.122L315.817 172.864L315.668 174.779L315.742 175.327L316.016 175.626L315.867 176.173L315.941 176.944L316.215 177.243L316.14 177.915L316.364 178.039L316.29 178.213H316.14V178.512L316.364 178.885L316.514 179.656L316.787 179.955L316.987 181.274L317.185 181.821L317.409 181.995L317.609 183.14L318.032 183.986V184.334L318.455 185.479V185.952L318.877 186.922L318.952 187.694L319.599 189.187L319.748 190.082L320.246 191.277V191.749L320.968 193.193L321.241 194.387L321.515 194.686L321.714 195.457L322.137 196.054L322.212 196.477L322.784 197.547L323.058 198.866L322.983 199.339H323.182L323.332 199.588V200.608L325.024 204.216L325.247 204.34L325.745 205.485L325.894 205.534L326.118 206.256L326.318 206.38L326.392 206.729L326.616 206.903L327.114 207.923L327.313 208.048L327.736 208.943L328.457 209.839L328.88 210.735L329.727 211.705V211.88L330.647 213.024L330.722 213.323L330.995 213.497L331.493 214.467L332.14 215.114L332.414 215.786L333.135 216.433L333.21 216.732L333.558 216.98L333.758 217.827L334.678 218.971L335.823 220.937L336.818 222.131L337.739 223.748L338.162 224.172L338.386 224.644L338.585 224.694L339.082 225.764L339.854 226.709L340.128 227.307L341.894 229.272L342.541 230.168V230.417L342.964 230.89V231.188L343.312 231.238L343.462 231.711L344.034 232.358L344.183 232.781L344.532 233.03L344.88 233.751L345.527 234.224L345.676 234.697L345.875 234.747V234.921L346.075 235.045L346.298 235.468H346.448L346.597 235.817L347.244 236.414L347.742 237.31L348.09 237.558L348.165 237.857L348.737 238.504L349.185 240.072L349.682 240.37L350.106 241.142L350.678 241.614L351.673 243.107L351.872 243.655L352.146 243.779L352.917 245.098L353.191 245.272L353.39 245.745L353.813 246.043L354.162 246.815L354.51 246.989L355.082 247.536L355.157 247.835L355.505 248.084L355.704 248.382V248.681L356.426 249.826L356.625 249.95L356.849 250.547L357.048 250.846H357.197L357.894 252.09L358.242 252.388L358.516 253.284L358.939 253.533L358.864 254.006L359.138 254.777L359.287 254.827V255.175L359.785 255.773L360.979 260.052L361.402 261.122V261.943L361.552 262.118L361.477 262.715L361.676 262.964L361.601 263.312L361.875 263.785L361.95 265.203L361.8 265.726L361.079 266.97L360.357 267.567L360.158 268.04L359.735 268.338L359.038 269.358L357.969 270.379L357.322 271.324L357.048 271.573H356.699L356.55 271.225L356.899 270.802L356.824 270.627L357.247 270.677V270.503L357.745 270.329L357.67 269.98L358.093 270.03L358.242 269.906V269.607L358.441 269.557L358.715 268.96L359.063 268.736L359.262 268.189L359.611 267.94L359.685 267.691H360.034L360.73 266.92L361.502 265.551L361.577 264.481L361.377 263.71L360.954 263.237L360.88 262.889L360.308 262.341L359.885 262.167L359.81 261.869L359.312 261.446L359.238 261.097L358.964 260.799L358.391 260.749L358.118 260.276L357.894 260.226L356.55 258.982L354.709 257.962L354.51 257.663L353.664 257.365L353.39 257.066L352.32 256.643H351.972L351.399 256.295L350.329 256.171L348.264 255.573L346.995 255.449L344.88 256.27L343.387 256.395L343.114 256.569L341.77 256.867L340.998 257.29L339.505 257.763L339.082 258.062L336.744 258.833L336.097 259.356H335.25L332.215 258.883L330.299 258.36L329.727 258.012L329.229 257.888L325.82 254.678V254.504L325.546 254.379L325.472 254.08L325.247 254.031L323.058 251.418L321.64 250.348L321.44 250L321.515 249.452L321.316 249.154L321.092 249.104L321.018 248.557L320.744 248.432L320.594 248.009L320.171 247.885L319.4 246.989L317.285 245.247L317.21 244.7L316.066 243.505L315.419 243.157L315.27 242.908L314.772 242.784L314.274 242.435H314.001V242.137L313.577 241.415L313.229 240.271L312.881 239.798V238.554L312.035 237.608L311.811 237.185V236.538L311.537 236.414L311.313 237.061H311.114L311.039 236.812L310.766 236.638L310.193 236.389L309.77 236.439L309.696 236.264L308.775 235.966L308.203 235.493L307.133 235.195L304.794 235.02L304.296 235.269L303.798 235.145L301.883 235.568L300.962 235.991H300.614L300.34 236.24L299.842 236.364L299.767 236.613L299.544 236.563L298.548 237.036L298.399 237.285H297.976V237.409L297.404 237.534L297.254 237.708L295.562 238.429L294.99 238.479L294.716 238.728L293.646 238.977L293.223 239.226L291.307 239.474L290.113 239.947L289.541 239.997L289.391 240.171L288.695 240.295L287.699 240.843L286.281 241.142L286.057 241.316L285.41 241.266L284.34 240.669L281.852 240.544L281.777 240.669L280.633 240.718L280.558 240.843L279.488 241.017L279.214 241.191L278.294 241.316L275.805 242.087L274.312 242.211L273.889 242.386H272.62L271.849 242.037L271.7 241.739L270.431 241.017L270.008 240.37L269.361 239.947L268.515 239.002L268.241 238.952L267.893 238.529L266.972 238.106L265.827 237.932L265.753 237.757L264.757 237.708L263.115 237.832L261.97 238.181H261.323L260.751 238.479L259.557 238.778L259.208 239.076L257.566 239.425L257.367 239.673L256.869 239.848L256.795 240.146L256.372 240.495L256.148 241.34L255.874 241.639L255.799 242.286L255.451 242.634L255.376 242.933L254.456 243.481L253.61 245.446V246.889L254.107 248.208L254.953 249.104L255.6 248.93L254.953 246.964L254.456 246.491L254.307 245.944L254.381 245.595L254.232 245.297L254.953 244.65L256.372 244.302L257.516 243.704L258.512 243.58L259.432 242.933L260.776 242.585L261.423 241.987L263.911 241.216H264.907L265.404 241.465L267.096 243.903L267.868 244.451H268.092L268.44 244.924H268.788L269.211 245.272L270.207 246.591L271.053 247.238L271.625 247.959L272.695 248.681L274.113 248.979L277.572 248.805L278.642 248.507L279.563 247.735L279.836 247.188L280.334 246.715L280.906 246.367L281.18 245.894L281.528 245.77L281.951 245.173L282.648 244.874L282.797 244.625L283.643 244.799H285.758L285.833 244.924L290.586 244.749L291.432 244.501L291.705 244.55L293.397 243.903L294.318 243.854L294.542 243.679L294.891 243.729L296.234 243.306V242.56L295.886 242.386L296.085 242.137H296.433V242.858L296.781 242.908L297.279 242.56L298.125 242.61L300.041 241.838L301.957 241.49H303.226L304.296 241.067L305.217 241.117L306.212 241.415L306.561 241.589L306.635 241.888L307.282 242.361L307.78 243.257L308.128 243.555L308.9 245.396L309.173 245.745L309.447 246.641L309.87 247.238L310.069 247.885L310.343 248.183L310.617 249.029L310.89 249.203L311.537 250.273L312.184 250.871V251.119L313.105 251.717L313.254 252.264L313.752 252.911L314.175 254.056L314.946 254.902L314.871 255.026L315.145 255.499L315.493 255.623L315.842 255.275V255.026H316.19L316.34 255.374L315.991 255.325L315.493 255.847L315.767 256.146L316.116 256.096L316.389 255.847V255.673H316.738V255.847L315.892 256.444L316.24 256.569L316.315 256.867H316.514L317.086 256.444L317.434 256.967L318.156 257.564V257.813L317.882 257.863L317.385 257.315L317.161 257.265L317.011 257.688L317.509 258.112L318.504 258.534L318.156 258.236V258.062H318.355L318.778 258.41L318.853 258.883H319.126V259.181L319.326 259.132L319.4 258.883L319.972 259.132L319.898 259.306L319.475 259.132L319.326 259.43L319.898 259.729L320.545 260.326L321.192 259.729H321.391L321.241 259.38H321.59L321.515 259.157L320.744 258.808L320.818 258.684H321.316L321.59 258.933H321.863L322.137 259.281L322.71 259.455V259.58H322.436L321.789 259.331L321.714 259.679L320.719 260.5L321.565 260.849L321.64 261.097L322.212 261.396V261.57L322.859 261.869L323.058 262.167L323.555 262.466L324.327 263.66L324.899 263.884L325.621 264.531L325.77 264.88L327.039 266.198L327.238 266.671L328.01 267.144L328.706 267.915L330.199 268.985L330.274 269.234L330.622 269.533L331.195 269.408L332.264 269.831L332.414 270.478L332.688 270.603L332.887 270.055L333.16 269.757L333.359 268.985L333.782 269.11L333.857 269.632L334.429 270.105L334.927 270.354H335.35L334.778 269.632L334.355 269.458L334.205 269.209L335.051 269.333L335.4 269.931L335.599 269.98L335.45 270.105L335.524 270.403H335.798L336.072 270.652L335.997 270.827L336.271 271.075L336.196 271.424L336.967 271.722L337.241 272.071L338.51 272.792L339.008 273.688L339.431 273.812L339.207 274.235L339.928 275.057L340.128 275.604L340.476 275.778V275.952L340.824 276.201V276.425H340.973L341.247 276.848L341.82 276.898L342.317 277.371L342.392 278.018L342.665 278.067L343.014 278.839L343.785 279.61L344.432 280.804L344.706 280.929V281.526L344.283 281.825V281.949H344.557L344.706 282.148L342.541 283.417L339.505 284.188L336.918 283.591L335.151 284.786L330.772 295.112L331.02 296.655L333.285 299.267L329.602 302.477L328.084 302.602L325.098 299.591L324.426 297.526L322.336 296.406L321.515 294.614L318.255 291.827L319.077 286.727L317.335 279.411L320.843 274.708L320.769 273.165L315.941 272.867L312.259 267.816L305.988 263.884L305.292 265.253L305.466 269.234L300.788 274.584L297.603 275.057L289.416 272.842L281.727 278.789L281.802 279.61L291.482 280.257L293.049 281.675L293.199 283.392L291.681 284.811L284.066 286.129L282.474 289.862L283.295 291.877L283.046 292.823L277.846 295.087L270.057 297.401L265.678 297.053L264.359 296.331L263.364 294.44L264.882 289.513V286.95L264.061 285.831L248.26 283.989L247.314 289.812L244.951 292.474L242.437 297.227L227.184 295.958L226.537 295.361L228.951 293.992L228.976 293.047L225.343 289.613L218.923 294.838L217.928 300.959L214.444 305.712L213.374 306.533L211.309 305.339L206.556 305.513L203.869 307.703L199.962 312.853L200.485 317.656L199.564 319.895L196.553 321.562L197.798 324.1L193.841 328.231L192.572 331.092L184.087 331.54L181.673 329.873L179.061 329.699L179.658 326.738L178.464 325.966L175.303 326.613L173.91 329.102L172.591 329.823L169.182 329.525L166.42 328.106L166.171 324.971L164.803 324.2L159.926 324.548L156.492 328.106L147.236 331.764L142.234 328.504L140.069 329.102L137.208 328.33L136.611 327.857L137.208 326.389L140.691 323.951L140.791 323.13L139.447 321.537L132.082 318.526L131.659 316.984L132.654 314.844L132.58 313.251L128.822 311.012L126.956 310.962L125.538 307.528L121.382 305.986L121.034 303.672L121.78 299.516L114.614 293.644L113.868 291.678L113.544 287.572L110.931 283.467L103.964 280.033L100.605 279.859L95.4294 272.369L90.428 266.845L89.0097 262.391L85.327 261.57L84.4312 257.091L83.0129 255.474L83.4857 251.965L81.918 249.701L81.5697 247.487L79.2058 247.611L77.1406 249.527L74.9011 250.124L72.4128 247.735L70.671 247.91L69.3273 245.347L68.1578 244.824L68.4316 242.958L67.0879 238.603L71.9649 232.209L72.0644 224.445L75.2494 220.315L81.4204 217.329L82.6894 215.413L83.2866 212.327L79.0068 209.068L75.0006 203.494L74.055 197.846L65.2466 193.218L64.6742 189.187L63.1563 186.773L59.1253 186.3L58.354 185.28L58.4535 183.115L52.5065 185.877L50.8394 185.628L49.222 181.722L44.7679 181.299L43.1754 178.885L44.5191 175.451L43.3745 174.605L42.9764 171.346L42.2299 170.151L38.9454 169.479L33.0232 171.097L30.2612 170.674L29.017 169.106L28.8678 163.806L27.7978 162.064L21.2536 158.257L17.9691 154.699L17.1479 151.514L17.6456 146.563L21.3034 144.572L22.2241 142.084L29.664 132.18L30.4106 129.344L36.4073 129.767L38.6716 126.856L42.5285 124.915L45.4647 127.03L47.9779 126.482L48.7243 125.338L49.1722 121.705L47.7538 118.196L48.5004 115.783L48.4257 109.662L47.5797 107.596L43.9717 104.934L43.2003 103.167L51.337 96.0757V93.463L49.7694 88.4368L52.1831 84.5551L56.2638 81.818L62.7085 82.1165L65.993 79.2551L67.6601 80.126L69.7254 81.4448L74.7269 77.4386L81.6444 74.8758L86.5711 76.4434L93.0656 80.3996L96.3252 80.35L106.477 74.7016L106.627 71.8898L108.393 69.4514L109.837 69.8245L114.589 74.4526L115.585 70.1978L117.152 67.3861L117.177 64.1513L119.491 63.7282L122.577 64.9476L123.995 63.4795L130.539 63.6786L133.102 65.3208L133.998 68.3067L134.67 68.6053L138.452 67.6846L139.646 68.5307L141.313 72.6612L147.086 78.011L148.654 77.7124L147.982 74.6021L151.889 75.025L153.232 76.717L154.8 81.7681L156.318 83.1616L157.736 82.5644L158.134 81.0964L155.522 74.1541L155.497 71.6658L156.442 70.6955L158.035 70.8697L159.403 72.4621L159.926 74.5274L161.867 75.2738L162.937 72.064L165.524 72.8603L166.296 71.84L167.863 72.8603L168.859 77.5382H172.517L173.363 78.6827L183.341 73.1588L185.033 70.4715L189.288 69.1279L200.435 70.8448L205.511 69.3268L211.284 72.064L218.052 70.4217L220.715 70.9692L223.626 73.333L230.22 71.3176L235.644 73.2085L235.719 66.9382L236.789 63.8279L238.655 61.5138L242.014 60.0456L243.234 57.8311H244.204V58.0053Z" fill="#F2F2F2"/>
</svg>
