<svg width="338" height="359" viewBox="0 0 338 359" fill="none" xmlns="http://www.w3.org/2000/svg">
<g clip-path="url(#clip0_331_164)">
<path d="M210.276 282.473L211.471 282.523L211.894 282.921L212.615 283.269L212.764 283.493L212.068 283.891H211.645L211.222 284.165L210.575 284.215L209.928 283.767L208.733 283.419L208.46 283.145L208.609 282.573L209.53 282.622L210.276 282.473ZM204.255 281.727L204.677 282.249V282.523L205.175 282.747V283.145L205.374 283.419L205.175 284.339L204.901 284.563L203.757 284.165L202.911 284.339L202.488 283.941L203.334 283.369L203.409 282.672L203.682 282.1L204.031 281.702H204.255V281.727ZM235.706 265.702L237.398 266.722L238.817 266.772L239.389 266.946L240.036 267.394L240.608 267.494L240.384 268.24L239.812 268.862H239.538L239.464 269.086H239.265L239.115 269.609L238.692 269.659L238.344 270.007L237.623 270.181L237.349 270.529L236.702 270.753L236.129 271.152L235.433 271.201L234.661 271.599H234.388L233.044 272.694H232.123L231.626 272.993L229.56 273.043L227.794 272.769L227.221 272.819L226.873 272.545L226.798 271.45L226.948 271.4V271.052L227.371 270.082L227.943 269.46L228.217 269.41L228.64 269.012L229.063 268.962L229.411 268.738L229.56 267.942L229.983 267.593L230.182 267.195L231.103 267.245L231.252 266.797L231.825 266.623L232.397 266.1L234.164 265.926L234.811 265.702H235.706ZM200.149 19.812L201.493 19.9862L201.99 20.2848L207.091 21.2802L207.663 21.6284L207.887 22.0515L207.539 22.3501L207.39 22.773L208.236 23.0716L208.037 23.5444H207.887L207.962 23.7684H208.31L208.46 23.4698L208.385 22.6985L208.037 22.6487L208.186 22.0515L209.181 21.7031L210.376 21.8275L210.649 21.6533L210.724 21.4294L210.923 21.4791L211.072 21.8275H211.794L214.058 22.3003L216.124 22.2505L216.547 22.773L216.198 22.9971L215.701 22.9472L215.626 23.4698L215.85 23.5942L216.198 23.5444L216.547 23.0218H216.771L216.845 22.798L217.268 22.4994L218.612 22.3252L219.756 22.549L219.956 22.6736L220.105 23.0218L220.03 23.5444H219.458L219.383 23.7684L219.11 23.8181V24.2412L220.105 24.8384L220.304 26.0078L220.727 26.3562H220.951V26.1321L220.677 24.9627L221.449 24.49L221.722 23.7186L222.22 23.42L222.444 22.9971L222.519 22.6985L222.369 22.5739L222.519 21.9768L223.29 21.8026V21.3796L223.713 21.4294V21.7777L224.434 21.9022L224.509 22.2008H224.783V22.4247L224.285 22.3003L224.136 22.5243L224.41 22.8725V23.3951H224.982L225.554 22.798L225.828 22.8478L226.052 23.2707L226.823 23.2209L226.898 23.0965L227.246 23.2707H227.819L227.968 22.8478H228.117L228.267 23.0716V23.5942L229.187 24.0172L228.689 24.49V24.8384H228.914L229.112 24.3656L229.461 24.3158L229.536 24.0919L230.232 23.5693L231.004 23.9177L230.655 24.0919L230.506 24.6143L231.153 24.7387V24.9129L231.651 25.0373L232.372 24.9129L232.521 24.6143H233.293L234.91 25.4355H235.134V25.3111L235.482 25.1369V24.714L235.632 24.5398L235.98 24.8384H236.403L236.552 24.6143L237.623 24.3905L238.269 24.5149L238.468 24.6891H239.315L239.588 24.8633L239.513 24.4401H239.787V24.6642H239.937L240.011 24.4401L240.857 24.3158L241.629 24.7387H241.977L242.624 24.3905L243.047 24.3407V24.2163L242.475 24.0421L242.325 23.7435L241.604 23.4449L240.608 23.2707L240.111 23.5693L239.339 23.5195V23.2209H238.842L238.643 23.6439L237.996 23.8679V23.7435L237.349 23.6937L237.125 23.5195L237.05 23.2209H236.776L236.851 22.798L237.125 22.7481L237.398 22.4496L237.896 22.3252L238.045 22.1012L238.543 22.2257L238.767 21.927H239.041L239.389 22.2257L240.957 22.5243L241.031 22.6985L243.296 23.3951L243.719 23.6937L244.291 23.7435L244.44 23.9177L245.436 24.3407L245.933 24.3905L246.431 24.6891L247.003 24.7387L247.153 24.9129L248.222 25.1369L248.571 25.3608L248.77 25.3111L250.188 25.9083L251.109 26.0825L251.532 26.3811H251.955L252.03 26.5553H252.453L252.677 26.7295L253.821 26.9035L254.17 27.1275L255.737 27.4261L256.235 27.7247L256.509 27.675L258.076 28.098L258.723 28.0482L259.295 28.2224L262.207 28.3965L262.555 28.5707L266.661 28.6204L266.735 28.7449L269.497 29.1679L269.647 29.3421L271.289 29.4665L271.488 29.6407L273.553 29.9393L273.703 30.1135L274.474 30.2378L275.046 30.5862H275.693L275.892 30.8101L276.614 30.8599L276.688 31.0839L277.958 31.258L278.729 31.7806H278.953L279.102 32.0046L279.874 32.1289L279.948 32.4275L280.595 32.6515L281.168 33.1242H281.74L282.013 33.5473L282.511 33.5969L283.506 34.0697L284.004 34.5923L284.651 34.8163L284.8 34.9904L284.726 35.2144L284.95 35.4384L285.223 35.488V35.6622L285.721 35.8862L286.293 36.4834L286.94 36.6078L288.558 37.8519L289.553 38.3247L289.702 38.5487L290.051 38.4989L290.125 38.8473L290.698 38.9717V39.1459L291.27 39.3697L291.618 39.7181H291.892L292.464 40.3651L293.111 40.6637L293.684 41.2359L294.181 41.4101L295.176 42.4055L295.898 42.8783L296.247 43.4754L296.819 43.9482L296.893 44.2468L297.963 45.1176L298.113 45.466L299.954 46.9838V47.158L300.228 47.2824L300.452 47.805H300.8L301.87 49.0242L302.019 48.9745L302.865 49.7956H303.064L303.288 50.1439L303.935 50.4425L305.428 51.7365L306.573 52.4331L307.071 53.0801L307.991 53.8514L308.14 54.15L308.787 54.4984V54.7224L309.857 55.7674L310.504 55.9416V56.1655L311.002 56.5886L311.574 56.8872L312.42 57.7082L312.993 57.9322L313.067 58.2308L313.416 58.3552L313.565 58.6538L313.839 58.7036L313.913 58.9276L314.486 59.3256L314.685 59.674L315.531 60.2463L315.879 60.8435L316.302 61.1918H316.501L317.696 62.3116L318.392 63.2571L318.815 63.3815L319.238 63.8045V63.9787L320.01 64.4515L320.084 64.6755H320.233L320.308 65.2477L320.806 65.5463L320.955 65.8947L321.229 65.9444L321.577 66.5168L322.224 66.8153L323.07 67.9848L323.916 68.7314L325.758 71.4684L327.101 72.9364L328.942 75.9223L329.863 78.7341L329.789 79.2068L329.988 80.1524L332.177 86.398L332.327 86.7464L332.551 86.8707V87.3435L332.824 87.9158V88.6622L333.173 89.3092L333.098 89.8318L333.372 90.1304L333.297 90.4788L333.571 90.7773V91.2998L333.77 91.4243L333.994 92.9919L334.143 93.2158L334.068 93.5642L334.342 93.6886V93.9871L334.616 94.3853L334.765 95.6046L334.914 95.7788L334.765 96.998L334.566 97.0477V98.0928L334.417 98.6153L334.491 100.059L334.143 101.153V101.85L333.944 102.024L334.143 103.069L333.944 103.99L333.795 104.114L333.869 104.687L334.019 104.811L333.795 105.458L333.944 106.329L334.093 106.453L334.019 106.752L334.168 107.324L334.093 107.498L333.247 107.897L333.471 109.862L333.397 110.957L333.969 114.565L334.666 116.182V116.655L334.89 117.352L335.089 117.576L335.437 119.094L335.636 119.268L336.134 121.756L336.358 121.881L336.507 122.751L336.781 123.15L336.98 125.364L337.253 125.837L337.328 126.534L337.179 126.583L337.104 127.28L336.681 128.275H336.258L336.333 127.803L336.482 127.753V127.529H336.333L335.984 128.101L336.059 128.4L335.487 128.574L335.561 128.698L335.362 128.873V129.097L335.089 129.271L334.939 129.967L334.666 130.366V130.664L334.815 130.714H334.666L334.392 131.585L333.894 132.282L333.322 134.421L332.973 136.561L332.899 139.174L333.322 139.821L333.397 140.568L333.198 140.966L333.397 141.015V141.19L333.247 142.06L333.098 142.185L332.874 143.28L332.725 143.404L332.65 144.325L332.227 144.847L331.879 145.942L331.68 146.066L331.456 146.937L330.883 147.336V147.634L330.684 147.858V148.331L330.46 148.505L330.187 149.152L329.913 150.247L329.415 150.894L329.341 151.366L328.918 151.939L328.694 152.685L328.495 152.735V152.959L328.221 153.258L328.296 153.88L328.097 154.104L327.897 155.547L327.673 155.895V156.766L327.474 156.99V157.637L327.25 157.811L326.977 158.956L326.703 159.254V159.553L326.479 159.677L326.28 160.2L325.932 160.424V160.648L326.081 160.697L326.006 161.17H325.807L325.111 161.693L324.837 162.091L324.066 162.663L323.792 163.186L323.443 163.36L323.02 163.883L322.946 164.231L322.523 164.579L322.448 164.928L321.876 165.848V166.147L320.731 168.859L320.383 171.447L320.308 175.901L320.035 178.314L319.835 178.936L319.686 181.3L319.537 181.649L319.611 182.868L319.388 184.013V185.754L319.611 187.198L319.537 187.596L319.338 187.72L319.188 188.068L318.84 189.288L317.845 191.129V191.651L317.347 193.045L317.123 194.662L316.626 196.454L316.551 197.374L315.78 199.962L315.133 204.516L314.71 205.959L314.51 207.402L313.863 208.771L312.171 209.99L311.326 210.214L306.374 212.677L302.84 214.22L300.427 216.012L299.506 217.206L298.934 218.575L298.361 219.197L297.939 219.421V219.644L297.366 219.943L296.595 220.913L296.321 222.058L295.55 223.949V224.522L295.276 224.646L294.928 225.517L292.813 227.532L290.324 229.075V227.532L290.051 226.96L289.852 226.836V226.612L289.279 226.039L288.583 225.741L288.234 225.392L287.239 225.044L286.667 224.522L286.517 224.347V223.551L286.667 223.501L286.741 222.879L286.393 221.784L286.119 221.56L285.895 220.988L285.248 220.764L285.099 220.54L284.402 220.242V220.117H284.203L283.929 219.719L284.004 219.371L284.999 218.45L284.85 217.305L284.999 216.858L284.576 216.634L284.303 216.236L283.954 216.111L283.805 215.813L283.88 215.589L283.656 215.464L283.73 214.942L284.004 214.643L283.929 213.722L283.78 213.673L283.929 213.051L283.656 212.876H283.307L282.81 212.429L282.312 212.254L282.038 211.906L281.964 211.558L281.391 211.16V210.413L281.242 210.189L280.819 210.015L280.471 210.139L279.923 209.94V209.716L280.346 209.542L280.57 209.244L280.421 208.099L281.267 207.8V207.626L281.466 207.502V206.979L281.889 207.029V206.332L281.242 206.556L281.168 207.701L281.018 207.825H280.297L280.097 208.223L280.247 208.92L279.898 209.094L279.625 209.965L279.774 210.438L280.421 210.562L280.346 210.687L280.57 210.811L280.645 211.383L281.416 212.08V212.603L281.765 212.777L282.113 213.349L282.188 213.747L282.461 213.971V214.32L282.188 214.668V215.589L282.387 216.161L283.158 216.957L284.079 217.48V218.226L283.656 218.45L283.158 219.147V220.067L283.73 220.864L284.875 221.436L285.447 222.058L285.646 222.581L285.572 224.422L285.721 224.472V224.82L285.995 225.268L287.687 226.189H287.96L288.184 226.636L288.757 227.209V227.557L289.03 227.906V228.304H289.603V228.826L289.453 229.05L289.528 229.573L289.379 230.319L288.184 231.514V231.737L287.96 231.862L287.612 232.434V232.658L287.264 233.006L287.189 233.305L286.915 233.479L286.99 233.778L286.069 233.952L285.92 234.176L284.726 234.524L283.531 235.271L283.457 235.619L283.233 235.843L283.083 235.793V236.017L282.884 236.191L282.611 236.888L281.964 237.859L281.74 237.958L281.391 238.754L281.043 239.103L280.968 239.501L280.321 240.372L280.172 240.148V239.451L280.521 238.879L280.595 237.784L280.446 237.61V237.162L280.297 237.037L279.948 237.162V236.863L280.172 236.59L279.898 236.142L278.829 235.445L278.107 234.748L276.191 233.554V233.206L275.693 232.807L275.494 231.787V230.643L275.693 228.577L275.843 228.528L275.768 227.831L275.494 227.706L275.419 227.881H274.996L274.648 227.706V227.408L274.499 227.283L273.852 227.408L273.777 227.184L272.931 227.134L272.857 226.836L272.359 227.01L271.712 226.661L270.99 226.487L270.916 226.263L270.194 225.965L269.049 225.044L267.855 225.094L267.009 224.92L266.511 223.999L265.168 223.427L265.018 223.203L263.675 223.252L262.978 222.63L262.829 222.183L261.634 221.138L261.361 220.217H260.365L260.291 219.918L260.017 219.794L259.743 219.097L259.669 218.4H259.519L259.295 219.147L259.445 219.844L259.718 220.018V220.316L260.365 220.714L260.291 221.063L260.564 221.287L260.987 222.481L262.679 224.248L263.6 224.82H263.874L264.148 224.596L265.068 224.82L265.64 225.343L265.715 225.741L266.412 226.487L266.487 226.836L267.407 226.786L267.681 226.96H268.95L269.522 227.358L270.095 227.483L270.169 227.657L271.165 228.005L271.314 228.179L272.234 228.304L273.155 228.652H273.578L273.777 228.826L274.2 229.797V232.559L274.623 233.081L275.196 234.524L274.996 235.146L274.648 235.32V235.495L273.727 235.669L272.657 234.873L271.513 234.475L270.866 234.425L270.294 234.823L269.522 235.047L269.448 235.221L268.676 235.395L268.602 235.569L268.029 235.619L267.955 235.893L267.681 236.067H267.332L267.059 235.943V235.719L266.835 235.594L266.188 235.719L265.84 235.669L265.69 235.495L265.118 235.544L264.695 235.37L264.048 235.544L263.351 235.495L263.003 235.196L262.505 233.828L262.157 233.429L260.166 233.081L260.017 233.479L259.669 233.355L259.395 233.529L259.47 233.828L258.201 234.002L257.355 234.45L257.081 234.798L256.434 235.146L256.285 235.768L256.061 235.818L254.916 235.37L254.07 235.42L253.572 235.768H252.801L252.652 235.644L252.229 235.768L251.308 234.972L250.387 234.848L249.691 235.544L249.268 235.594L249.044 235.47L248.894 235.594V235.868L248.397 236.042V236.266L248.048 236.838L247.775 236.565L247.849 236.167L247.625 235.992L247.202 236.167L247.128 236.39L247.7 236.838L247.003 236.39H246.779V236.614L247.352 236.963L247.551 237.311L249.616 237.261L249.89 237.709H250.313L250.661 237.411H251.084L251.507 237.759L252.577 237.933L252.652 238.107H254.219L254.792 238.63H255.215L255.638 238.282L256.981 238.58L258.126 238.058L258.4 237.834L258.474 237.535L261.037 236.913L261.46 236.963L261.659 237.585L262.232 238.107L263.874 238.506L265.018 238.456L266.437 237.834L267.009 237.933L267.357 237.659L267.706 237.709L268.129 238.157H268.701L268.975 237.585L269.622 237.461L269.846 237.635L270.343 237.012L270.617 236.888H272.185L272.832 237.062L273.105 237.411L273.255 237.286L273.528 237.336L273.727 237.51V238.132L274.3 238.306L274.524 238.705L274.797 238.829L275.37 238.655L275.295 238.207L274.947 237.908V237.56L275.444 237.61L275.718 237.485V237.187L276.066 236.963L276.34 236.515L276.838 236.689L276.987 237.137L276.838 237.436L276.614 237.485L276.763 238.058L276.614 239.028L276.763 239.202L275.917 239.327L274.723 240.422L274.573 240.869L274.151 240.919L274.225 241.317L274.076 241.84L273.802 242.014L273.603 242.537L273.031 243.059L272.956 243.407L272.757 243.582V243.93L272.409 244.726L272.259 245.821L271.836 246.169L271.637 246.692L271.712 246.866L271.364 247.214L271.09 248.185L271.165 248.633L271.015 249.155L270.443 249.728L269.373 249.678L269.025 249.28L269.099 248.757L269.249 248.707L269.049 248.533L268.701 249.155L269.049 250.001L268.701 250.051L268.552 250.225H268.054V250.623L266.71 250.972L266.785 251.146L267.059 251.196L267.134 251.096L267.781 251.146L268.353 250.922V251.768L268.079 252.166L268.228 252.29L268.577 252.116L268.651 251.27L268.801 251.146L268.726 250.847L269.298 250.549L270.941 250.847L271.637 250.549L271.563 250.325H271.911L272.185 250.151L272.757 250.2L272.906 250.325L272.981 251.021L273.404 251.32L273.329 252.34L273.553 252.39L273.703 252.689L273.777 253.435L273.976 253.833V254.182L273.28 254.406V254.53L273.553 254.58L274.25 254.281L274.325 253.883L274.051 252.614L273.827 252.315L273.752 251.171L273.479 250.773L273.28 249.976H273.429L273.578 250.375H274.001L273.802 250.151L273.951 250.026L274.101 250.375L274.524 250.598L274.673 250.897L275.096 251.245L275.793 251.544L276.365 251.992V252.166L276.937 252.514L276.788 254.455L276.589 254.679V254.903L275.867 255.6L275.718 255.998L275.37 256.346V256.695H275.171L274.947 256.919L274.673 257.615L274.101 258.188L273.827 258.76L273.255 259.108L272.906 259.556L272.757 260.004L272.409 260.228L271.911 261.074L271.413 261.472L270.692 262.741L270.194 263.015L269.92 263.637L268.776 264.383L268.577 264.831L268.154 265.005L267.581 265.578L267.233 265.628L266.462 266.374L265.392 266.822L265.242 267.046L263.675 267.842L262.53 268.365L262.381 268.315L261.958 268.663L261.883 268.962L259.818 270.057L259.743 270.355L260.017 270.704L259.942 270.878L259.594 270.828L259.096 270.43L258.449 271.127L257.603 271.749L257.404 271.699L256.757 272.221H256.484L256.409 272.396H255.762L255.488 272.62L254.717 272.844L254.369 273.192L254.02 273.068L252.253 273.291H250.611L250.338 273.167L248.496 273.69L245.585 273.814L244.814 273.515V273.291L244.391 272.893V272.445L244.042 272.396L243.893 272.221V271.375L243.669 271.201L243.52 270.679L243.445 269.659L243.097 269.211L243.171 268.813L243.445 268.763L243.37 269.111L243.52 269.236L243.793 270.33L243.993 270.206V270.032H244.191L244.415 270.33V269.634L243.918 269.335V268.813L243.569 268.415L243.146 268.016H242.873L242.101 267.568L242.027 267.295L242.3 266.847L243.37 267.469H244.067L244.415 267.17L245.261 266.996L245.411 266.772L245.908 266.648L246.63 266.125V265.951L247.775 265.329L247.999 264.657L247.775 264.607L247.576 265.055L247.003 265.453L245.361 266.076L244.938 266.424L242.45 266.598V266.299L242.3 266.175L241.877 266.349L240.957 266.175L240.459 265.827L240.185 265.304L238.991 264.334L238.568 263.313L238.22 262.915L237.946 262.069L237.672 261.895L237.523 261.273L237.797 260.004L238.643 259.706L237.996 259.606L237.722 259.382V259.158L237.299 258.71L237.374 258.138L236.951 257.566L236.378 257.267L236.03 257.317L235.184 256.869L235.682 257.491H236.105L236.876 258.063L237.025 259.954L236.951 260.402L236.602 260.676L236.528 261.472L236.677 261.696V262.144L237.1 262.766L237.448 263.861L236.453 263.637L235.458 263.015L235.234 262.617L235.308 261.995L235.035 262.119L235.109 262.965H234.761L233.691 262.517H233.467V262.741L235.582 263.488L236.304 264.06L236.577 264.582L237.224 265.03L237.871 265.254L238.643 266.051L237.299 266.001L236.801 265.379L235.806 264.806L234.885 264.931L234.189 265.279L232.621 265.453L231.899 265.901L230.207 265.951L230.058 266.076L230.207 266.25L231.476 266.2L231.7 266.25V266.424L231.053 266.772L230.904 267.121L230.257 266.996L229.336 267.693V268.041L228.988 268.613L228.416 268.738L227.147 269.708L226.873 270.231L226.724 270.928L226.525 271.102V270.529L226.948 269.907L227.097 269.335L227.595 268.589L228.167 268.066L228.242 267.668L228.043 267.718V267.942L227.271 268.514V268.738L226.923 269.186V269.534H226.773V269.758L226.575 269.932L226.301 270.853L226.151 271.948L226.226 272.868L226.077 272.819L225.928 272.246L225.007 271.674L224.658 271.152L223.812 270.853L223.539 271.027H223.116L221.921 270.505L220.578 270.729L220.155 271.127V271.301L220.926 270.903L221.349 270.952L221.772 270.778V270.903L222.27 271.127L224.186 271.699L224.459 272.097L225.032 272.495L225.679 273.59L225.952 273.764L225.803 274.113L226.5 274.511L225.654 274.784L225.305 275.083H224.957L224.111 274.784L223.464 274.336L222.12 274.162L221.897 273.889L221.971 273.142H221.697V273.491H221.548L221.623 273.938L220.976 273.59H220.627L221.399 274.212L220.478 274.336V274.461L221.399 274.585L221.971 274.809V275.033L221.473 275.481H221.747L222.095 275.133H222.444L223.638 275.879H223.912L224.484 276.228H224.907L224.41 276.75L223.34 277.372L222.917 278.069L222.643 278.119L222.568 278.343L221.424 279.189L221.001 279.014L220.727 279.064L221.075 279.363L220.926 279.587L220.428 279.885L220.005 279.935L219.931 280.283L218.861 280.159L217.791 280.283L216.298 280.159L215.949 280.283L215.452 280.159L215.377 279.935L214.656 279.537L214.233 279.661L214.083 279.487H213.66V279.313L213.461 279.189V279.413L213.188 279.761H213.959L214.108 279.985L214.382 280.035H213.536L212.964 280.259L212.814 280.532L211.471 280.259L211.321 279.811L210.973 279.636L210.774 279.686V279.91L211.047 280.134L209.903 280.084L209.754 279.786L209.53 279.736L209.455 280.184L209.107 280.458L208.758 280.507L208.534 280.806L208.037 280.856L207.539 280.632L207.962 281.328L207.887 281.503L207.315 281.776L206.171 281.652L206.245 281.926L206.096 282.05L205.598 281.926L204.877 281.353L204.528 280.831L203.956 280.557H203.533L203.11 280.682L203.259 281.13L203.035 281.304L203.11 281.528L202.687 282.05L202.538 283.021L202.388 283.145L201.891 283.095L201.741 282.473L200.97 282.249L201.045 282.075L201.692 282.199L201.965 282.498L202.115 283.021H202.264L202.189 282.797L202.388 282.448L201.318 281.652V281.478L200.97 281.204L200.622 281.08L200.472 281.353L200.821 281.478L200.671 281.702L200.746 282.1L200.522 282.15L200.671 282.374H200.248V282.548L201.318 282.672L201.169 282.797L201.244 283.021L201.094 283.294L201.667 283.468L201.866 283.991L202.936 285.011L203.583 284.787L204.852 285.484H205.698L206.842 285.882L207.265 285.832L207.912 286.28L208.559 286.056L209.555 286.454L210.276 286.33V286.504L209.629 286.628L209.355 287.201L208.932 287.475H208.659L208.161 287.997L208.086 288.221L208.36 288.569L208.286 289.191L207.564 289.316L207.415 289.888L206.917 289.838L206.992 289.44H206.842L206.618 289.714V290.112L206.195 290.336V290.56H206.419L207.116 290.112H207.34L207.539 290.51H208.037L207.962 290.062L208.534 289.938V289.764L208.808 289.714L209.007 289.316L208.808 288.619L208.883 288.221L209.803 287.599L210.376 287.649L210.649 287.873L210.575 289.465L210.923 289.814H211.197V289.639H210.923L210.774 289.415L210.923 287.748L210.5 287.226L211.147 286.877L211.57 286.828L211.993 286.479L212.565 286.604V286.38L212.764 286.255H213.262V286.081L212.914 285.957L213.188 285.733L213.038 285.285L213.188 284.439L213.536 284.265L214.606 284.314L214.456 284.713L214.805 284.837L214.73 284.538L214.88 284.414L216.372 283.792L217.293 283.916L218.488 285.061L218.836 284.887L220.105 284.762L220.254 284.588L220.827 284.638L221.25 284.414H221.598L221.872 283.966L222.643 283.667L222.917 283.394H223.066V283.667L223.489 283.543L223.414 282.971L223.688 282.846L223.887 282.399L224.236 282.274L224.385 282L224.31 281.702L225.38 280.557L225.305 279.935L226.226 279.014L226.724 278.89L226.997 278.666L229.063 278.392L229.56 278.168L230.63 278.343L231.128 278.741V278.965L231.825 279.413L231.899 279.761L232.173 279.885L232.248 280.234L232.521 280.408L232.87 280.98V281.328L233.143 281.901L232.945 282.697L233.143 283.618L232.994 283.667L232.273 285.608V287.027L231.999 287.549L232.074 288.744L232.92 290.635L232.845 290.983L233.044 291.605L232.77 292.053V293.198L232.347 293.82V294.74L232.123 294.964L232.273 295.188L232.123 295.81L232.198 296.159L231.924 296.507L231.85 297.477L231.427 298.398L231.775 298.672L231.626 298.896L231.7 299.418L231.277 299.692L231.427 300.214V301.185L231.277 301.284L231.128 301.956L230.481 302.479L231.75 304.519L232.82 304.345L233.243 304.469L234.388 304.345L234.189 305.191L233.915 305.415V305.689L233.417 306.087L233.193 306.709L232.994 306.833L232.845 307.231L232.621 307.356L232.123 308.152L231.551 308.5V308.724L230.904 309.645L230.257 310.317L229.61 310.715V310.889L229.187 311.163L229.038 311.511L228.689 311.636L228.117 312.307L227.843 312.357L227.769 312.581L227.346 312.805L227.271 313.079H226.997L226.425 313.527L226.35 313.8L226.077 313.85L225.928 314.198L225.654 314.149L224.882 314.895L224.385 314.995L224.111 315.219L224.036 315.443L223.041 316.114L222.817 316.562L222.17 317.085L221.598 317.433L221.026 317.483L219.756 316.737L219.408 316.687V316.911L220.403 317.483L220.478 318.155L220.279 318.205V318.379L219.781 318.827L219.209 319.001L218.064 319.921H217.791L217.219 320.593H216.721L216.223 320.867L216.024 321.215L214.83 322.061L214.133 322.858L213.486 323.306L212.565 324.276L212.491 324.55L211.346 324.599L210.923 324.251L210.575 324.201L209.803 323.529H209.604L209.38 323.256L208.31 323.131L207.614 322.858H205.2L204.354 322.584L204.13 322.31L203.06 322.484L202.712 322.26H201.293L201.094 322.086L200.373 321.962L200.099 321.738L198.457 321.613L196.889 321.041H195.048L194.401 320.693H193.829L193.679 320.817L193.829 320.991L194.177 321.041L194.252 321.439L193.903 321.564L193.406 322.31L192.709 322.534H192.062L191.788 322.36L190.221 322.41L189.375 321.887V321.763H189.026L188.678 321.414L188.18 321.365L187.956 321.19L186.264 320.917H185.418L184.647 320.693L185.418 321.215L186.414 321.166L188.603 321.738L189.101 322.26V322.833L189.375 323.057L191.141 322.932L191.639 323.156L191.863 323.43H192.062L192.137 323.654L192.361 323.753V323.977L192.087 323.853L192.161 324.077L192.734 324.127L192.933 324.301V324.525L192.584 324.873L192.012 324.749L191.514 325.495L191.092 325.595L190.594 326.043L189.175 326.217L187.185 326.739L186.687 325.993L186.463 325.943L186.314 326.117L186.463 326.565L186.389 326.789L186.04 327.063L185.393 327.113L185.244 327.287H184.672L183.03 326.938L182.955 326.814H182.457L181.736 325.445L181.462 325.396L181.313 326.192L181.163 326.316L181.089 327.113L181.736 327.237V327.511H181.586L181.014 327.287L181.163 325.47L181.512 325.122L180.516 324.724L179.247 325.246L178.75 324.724L178.526 323.803L177.953 322.783L177.381 322.609L177.53 322.833L177.381 322.882L177.033 322.659H176.61L177.381 322.932L177.729 323.281L177.928 323.903V324.425L177.655 324.599L177.928 324.823L178.003 325.271L178.277 325.669L178.998 325.844L179.197 326.068L180.392 326.018L180.591 326.142V326.54L179.82 326.988H179.397L178.476 327.337L178.202 326.938H177.978L176.834 327.859L175.838 327.809L175.689 327.585L175.191 327.76L175.042 327.536H174.843L174.768 327.71L174.495 327.76L172.429 327.809L171.857 328.083L171.359 328.133L171.011 327.735L170.24 327.511L170.016 327.685L170.09 327.859L169.667 327.809L169.443 328.033L169.518 328.257L169.319 328.382L169.17 328.73L168.523 329.004L168.597 329.75L167.95 330.596L168.025 331.343L167.876 331.616L167.95 332.462L167.801 332.512V333.707L167.652 333.756L167.726 334.503L167.577 334.677L167.502 335.349L167.353 335.448L167.428 336.021L167.279 336.543L166.706 337.215L165.139 337.713L164.989 337.936L164.143 338.036L164.492 339.081L161.008 339.405L158.371 340.45L155.21 339.828L151.478 335.921L145.531 337.737L140.181 334.329L139.285 333.408L139.559 331.766L142.545 329.103L143.267 324.798L146.452 325.47L147.372 323.38L154.539 320.718L151.976 316.164L150.98 312.755L147.945 311.735L146.178 309.745L143.69 304.967L143.291 302.802L141.177 302.454L135.229 304.445L125.998 305.241L123.883 307.853L122.39 308.202L115.622 304.096L114.427 300.861L111.69 299.045L110.048 298.199L110.794 294.89L110.247 292.6L92.8042 290.162L91.4854 292.899L89.5695 294.84L86.1107 295.686L83.9459 297.328L82.5027 294.367L81.3084 293.62L80.4125 294.591L79.2679 299.368L70.7579 301.359L63.9898 305.465L56.5997 305.29L53.1658 306.211L51.7475 304.843L50.3043 305.116L49.7071 308.874L48.7864 310.267L45.5765 306.833L44.6807 303.3L44.9046 299.99L48.1892 294.516L48.3385 292.924L47.0943 292.177L43.1877 293.023L42.914 289.216L41.4709 286.131L41.7943 284.538L44.9545 282.075L44.5563 280.706L42.6901 279.86L39.7041 281.279L36.6187 277.795L31.1942 277.845L27.2876 275.854L25.7946 273.64L25.8195 270.206L25.1726 268.215L22.8336 265.702L21.1665 265.478L18.5786 261.646L20.7434 257.416L22.2364 257.118L25.6702 258.486L26.0186 259.805L25.4214 261.348L28.2829 265.005L33.3839 265.354L37.7633 267.071L41.2718 262.89L43.6108 263.338L43.5361 261.796L41.4211 259.332L40.1023 256.073L34.7525 250.872L31.891 251.619L27.3623 247.488L23.9284 246.169L26.1928 239.302L29.8505 233.977L28.258 228.577L30.7712 225.193L31.3435 220.267L30.3233 218.475L27.7355 218.077L30.0745 214.568L33.2595 213.125L32.3637 211.284L32.8365 210.761L38.5346 206.108L36.6933 201.679L31.1444 195.782L32.4632 189.885L28.2332 186.227L30.7712 181.325L30.5224 176.722L29.5769 173.885L29.9003 172.392L36.3698 170.949L38.037 171.472L40.4507 174.706L42.6901 175.179L43.8596 174.358L44.7056 172.119V167.391L47.5422 163.285L53.1906 162.091L52.8424 159.005L49.7569 153.805L49.9062 150.272L57.3711 146.738L58.5654 143.952L62.8452 140.543L68.3443 133.177L68.8669 131.485L67.2744 124.294L59.7348 119.741L60.8546 114.391L58.7147 111.704L58.8889 108.394L52.892 109.24L51.2249 107.971L52.2203 99.3619L51.1254 96.0524L49.085 93.6387L52.1456 92.2204L56.102 93.614L60.3818 93.5642L71.4796 87.9656L78.2477 91.3496L86.2102 89.5083L88.3004 92.5192L91.2117 91.9966L94.1229 93.2158L98.7264 90.4289L101.09 90.827L105.096 89.0853L111.641 91.3496L115.746 91.2501L117.762 89.4336L118.931 86.5224L118.359 80.2271L119.304 79.1819L124.057 78.6595L130.676 75.0515L133.612 75.2257L137.096 75.7979L146.875 68.5073L147.198 67.2134L145.108 64.4017L148.417 54.6228H149.015L149.861 54.8468H150.931L151.279 55.1952L151.702 55.021H152.772L153.344 55.1454V55.2698L154.041 55.3196L154.315 55.4938L154.389 55.7176L153.966 55.5434H153.469L152.971 55.8918L153.319 56.066V56.2402L154.091 56.8872H154.663L155.086 57.6586L155.509 58.0068L156.156 58.3055H156.504L156.853 57.4844L157.126 57.0116H157.276V56.2651L157.923 56.9121H158.072L158.147 56.6881H158.495L158.42 56.29L158.993 55.8669L159.416 55.0459L160.063 54.6477L160.212 54.3491L160.859 54.0505L160.934 53.7021H161.132L161.356 53.2792L161.63 53.1548L161.705 52.7566L162.277 52.5327L162.426 52.2342L162.999 51.8858L163.422 51.189L164.069 50.9651L165.985 50.9153L166.184 50.6914L166.607 49.2233L167.378 49.7459H167.876V49.3477L168.373 48.8252L168.448 47.6059L168.796 47.2078L168.597 46.4365L168.324 46.2623V45.69L168.174 45.3914L168.398 44.8688L168.548 43.5749L169.195 42.5299V41.5843L169.692 41.3605L170.389 40.3651L170.887 38.9717L171.235 38.4989L171.384 37.8021L171.658 37.3791L171.857 36.7322V35.737L172.28 34.7914L172.355 33.3731L172.778 32.328V31.5567L173.624 29.9642L173.549 29.143L173.897 28.098L174.893 27.227L174.967 26.4556L175.739 26.0327L175.813 25.7341L176.311 25.2115L176.883 24.8633L177.655 23.5693L178.352 23.1463L179.073 22.4496L180.417 22.151L180.342 22.4994L179.272 22.6238L179.994 22.9722H180.267L180.541 22.6736L181.113 22.4994V22.375L182.532 22.3252L182.606 22.4994H183.801L184.373 22.7232V23.2458L184.597 23.2956L184.672 23.1214H185.02L185.717 22.5243L186.364 22.4745L186.637 22.5989L186.787 22.1759L187.857 22.3501L188.354 22.6487L189.001 22.773H189.997L190.345 22.4247L191.067 22.773L191.987 22.7232L192.261 22.6736V22.549L192.983 22.4994L194.6 22.0266V21.504L194.874 21.3796L195.222 21.8524L196.491 21.6782L197.561 22.151L197.835 22.9223L197.486 23.0965L197.337 23.4449H196.989L196.715 23.6688V23.8928H196.914L197.561 23.5444L197.71 23.1214L198.208 22.9971V22.6985L198.78 22.6487L199.552 22.3003L199.825 21.6036L200.895 21.4294L199.701 21.2552L199.203 21.6036L199.054 21.9022L198.283 22.2505L198.084 22.0764V21.8524L198.233 21.8026L198.382 20.3346H197.884L197.462 20.6828L197.038 20.7327L196.839 21.0312L195.77 21.2552L195.346 20.7825L195.496 19.8369L197.337 19.6627H200.149V19.812Z" fill="#F2F2F2"/>
<g filter="url(#filter0_d_331_164)">
<circle cx="82.5" cy="105.5" r="7.5" fill="#D50000"/>
<circle cx="82.5" cy="105.5" r="6.5" stroke="#1C1C1C" stroke-width="2"/>
</g>
<g filter="url(#filter1_d_331_164)">
<circle cx="278.5" cy="94.5" r="7.5" fill="#D50000"/>
<circle cx="278.5" cy="94.5" r="6.5" stroke="#1C1C1C" stroke-width="2"/>
</g>
<g filter="url(#filter2_d_331_164)">
<circle cx="257.5" cy="208.5" r="7.5" fill="#D50000"/>
<circle cx="257.5" cy="208.5" r="6.5" stroke="#1C1C1C" stroke-width="2"/>
</g>
<g filter="url(#filter3_d_331_164)">
<circle cx="225.5" cy="238.5" r="7.5" fill="#D50000"/>
<circle cx="225.5" cy="238.5" r="6.5" stroke="#1C1C1C" stroke-width="2"/>
</g>
<g filter="url(#filter4_d_331_164)">
<circle cx="132.5" cy="174.5" r="7.5" fill="#D50000"/>
<circle cx="132.5" cy="174.5" r="6.5" stroke="#1C1C1C" stroke-width="2"/>
</g>
<g filter="url(#filter5_d_331_164)">
<circle cx="57.5" cy="245.5" r="7.5" fill="#D50000"/>
<circle cx="57.5" cy="245.5" r="6.5" stroke="#1C1C1C" stroke-width="2"/>
</g>
<g filter="url(#filter6_d_331_164)">
<circle cx="88.5" cy="245.5" r="7.5" fill="#D50000"/>
<circle cx="88.5" cy="245.5" r="6.5" stroke="#1C1C1C" stroke-width="2"/>
</g>
<g filter="url(#filter7_d_331_164)">
<circle cx="61.5" cy="292.5" r="7.5" fill="#D50000"/>
<circle cx="61.5" cy="292.5" r="6.5" stroke="#1C1C1C" stroke-width="2"/>
</g>
</g>
<defs>
<filter id="filter0_d_331_164" x="71" y="98" width="23" height="23" filterUnits="userSpaceOnUse" color-interpolation-filters="sRGB">
<feFlood flood-opacity="0" result="BackgroundImageFix"/>
<feColorMatrix in="SourceAlpha" type="matrix" values="0 0 0 0 0 0 0 0 0 0 0 0 0 0 0 0 0 0 127 0" result="hardAlpha"/>
<feOffset dy="4"/>
<feGaussianBlur stdDeviation="2"/>
<feComposite in2="hardAlpha" operator="out"/>
<feColorMatrix type="matrix" values="0 0 0 0 0 0 0 0 0 0 0 0 0 0 0 0 0 0 0.25 0"/>
<feBlend mode="normal" in2="BackgroundImageFix" result="effect1_dropShadow_331_164"/>
<feBlend mode="normal" in="SourceGraphic" in2="effect1_dropShadow_331_164" result="shape"/>
</filter>
<filter id="filter1_d_331_164" x="267" y="87" width="23" height="23" filterUnits="userSpaceOnUse" color-interpolation-filters="sRGB">
<feFlood flood-opacity="0" result="BackgroundImageFix"/>
<feColorMatrix in="SourceAlpha" type="matrix" values="0 0 0 0 0 0 0 0 0 0 0 0 0 0 0 0 0 0 127 0" result="hardAlpha"/>
<feOffset dy="4"/>
<feGaussianBlur stdDeviation="2"/>
<feComposite in2="hardAlpha" operator="out"/>
<feColorMatrix type="matrix" values="0 0 0 0 0 0 0 0 0 0 0 0 0 0 0 0 0 0 0.25 0"/>
<feBlend mode="normal" in2="BackgroundImageFix" result="effect1_dropShadow_331_164"/>
<feBlend mode="normal" in="SourceGraphic" in2="effect1_dropShadow_331_164" result="shape"/>
</filter>
<filter id="filter2_d_331_164" x="246" y="201" width="23" height="23" filterUnits="userSpaceOnUse" color-interpolation-filters="sRGB">
<feFlood flood-opacity="0" result="BackgroundImageFix"/>
<feColorMatrix in="SourceAlpha" type="matrix" values="0 0 0 0 0 0 0 0 0 0 0 0 0 0 0 0 0 0 127 0" result="hardAlpha"/>
<feOffset dy="4"/>
<feGaussianBlur stdDeviation="2"/>
<feComposite in2="hardAlpha" operator="out"/>
<feColorMatrix type="matrix" values="0 0 0 0 0 0 0 0 0 0 0 0 0 0 0 0 0 0 0.25 0"/>
<feBlend mode="normal" in2="BackgroundImageFix" result="effect1_dropShadow_331_164"/>
<feBlend mode="normal" in="SourceGraphic" in2="effect1_dropShadow_331_164" result="shape"/>
</filter>
<filter id="filter3_d_331_164" x="214" y="231" width="23" height="23" filterUnits="userSpaceOnUse" color-interpolation-filters="sRGB">
<feFlood flood-opacity="0" result="BackgroundImageFix"/>
<feColorMatrix in="SourceAlpha" type="matrix" values="0 0 0 0 0 0 0 0 0 0 0 0 0 0 0 0 0 0 127 0" result="hardAlpha"/>
<feOffset dy="4"/>
<feGaussianBlur stdDeviation="2"/>
<feComposite in2="hardAlpha" operator="out"/>
<feColorMatrix type="matrix" values="0 0 0 0 0 0 0 0 0 0 0 0 0 0 0 0 0 0 0.25 0"/>
<feBlend mode="normal" in2="BackgroundImageFix" result="effect1_dropShadow_331_164"/>
<feBlend mode="normal" in="SourceGraphic" in2="effect1_dropShadow_331_164" result="shape"/>
</filter>
<filter id="filter4_d_331_164" x="121" y="167" width="23" height="23" filterUnits="userSpaceOnUse" color-interpolation-filters="sRGB">
<feFlood flood-opacity="0" result="BackgroundImageFix"/>
<feColorMatrix in="SourceAlpha" type="matrix" values="0 0 0 0 0 0 0 0 0 0 0 0 0 0 0 0 0 0 127 0" result="hardAlpha"/>
<feOffset dy="4"/>
<feGaussianBlur stdDeviation="2"/>
<feComposite in2="hardAlpha" operator="out"/>
<feColorMatrix type="matrix" values="0 0 0 0 0 0 0 0 0 0 0 0 0 0 0 0 0 0 0.25 0"/>
<feBlend mode="normal" in2="BackgroundImageFix" result="effect1_dropShadow_331_164"/>
<feBlend mode="normal" in="SourceGraphic" in2="effect1_dropShadow_331_164" result="shape"/>
</filter>
<filter id="filter5_d_331_164" x="46" y="238" width="23" height="23" filterUnits="userSpaceOnUse" color-interpolation-filters="sRGB">
<feFlood flood-opacity="0" result="BackgroundImageFix"/>
<feColorMatrix in="SourceAlpha" type="matrix" values="0 0 0 0 0 0 0 0 0 0 0 0 0 0 0 0 0 0 127 0" result="hardAlpha"/>
<feOffset dy="4"/>
<feGaussianBlur stdDeviation="2"/>
<feComposite in2="hardAlpha" operator="out"/>
<feColorMatrix type="matrix" values="0 0 0 0 0 0 0 0 0 0 0 0 0 0 0 0 0 0 0.25 0"/>
<feBlend mode="normal" in2="BackgroundImageFix" result="effect1_dropShadow_331_164"/>
<feBlend mode="normal" in="SourceGraphic" in2="effect1_dropShadow_331_164" result="shape"/>
</filter>
<filter id="filter6_d_331_164" x="77" y="238" width="23" height="23" filterUnits="userSpaceOnUse" color-interpolation-filters="sRGB">
<feFlood flood-opacity="0" result="BackgroundImageFix"/>
<feColorMatrix in="SourceAlpha" type="matrix" values="0 0 0 0 0 0 0 0 0 0 0 0 0 0 0 0 0 0 127 0" result="hardAlpha"/>
<feOffset dy="4"/>
<feGaussianBlur stdDeviation="2"/>
<feComposite in2="hardAlpha" operator="out"/>
<feColorMatrix type="matrix" values="0 0 0 0 0 0 0 0 0 0 0 0 0 0 0 0 0 0 0.25 0"/>
<feBlend mode="normal" in2="BackgroundImageFix" result="effect1_dropShadow_331_164"/>
<feBlend mode="normal" in="SourceGraphic" in2="effect1_dropShadow_331_164" result="shape"/>
</filter>
<filter id="filter7_d_331_164" x="50" y="285" width="23" height="23" filterUnits="userSpaceOnUse" color-interpolation-filters="sRGB">
<feFlood flood-opacity="0" result="BackgroundImageFix"/>
<feColorMatrix in="SourceAlpha" type="matrix" values="0 0 0 0 0 0 0 0 0 0 0 0 0 0 0 0 0 0 127 0" result="hardAlpha"/>
<feOffset dy="4"/>
<feGaussianBlur stdDeviation="2"/>
<feComposite in2="hardAlpha" operator="out"/>
<feColorMatrix type="matrix" values="0 0 0 0 0 0 0 0 0 0 0 0 0 0 0 0 0 0 0.25 0"/>
<feBlend mode="normal" in2="BackgroundImageFix" result="effect1_dropShadow_331_164"/>
<feBlend mode="normal" in="SourceGraphic" in2="effect1_dropShadow_331_164" result="shape"/>
</filter>
<clipPath id="clip0_331_164">
<rect width="961" height="1250" fill="white" transform="translate(-623 -596)"/>
</clipPath>
</defs>
</svg>
