<svg width="375" height="375" viewBox="0 0 375 375" fill="none" xmlns="http://www.w3.org/2000/svg">
<g clip-path="url(#clip0_331_164)">
<path d="M51.3018 29.9584L54.661 30.1326L61.6282 33.5664L64.2408 37.672L64.5643 41.7777L65.3108 43.7434L72.4771 49.6158L71.7306 53.7711L72.079 56.0852L76.2344 57.6279L77.6527 61.0617L79.5189 61.1115L83.2763 63.3509L83.3509 64.9434L82.3555 67.0833L82.7786 68.626L90.1439 71.6369L91.4876 73.2294L91.388 74.0505L87.9045 76.489L87.3073 77.957L87.9045 78.4298L90.766 79.2011L92.9308 78.604L97.9322 81.8636L107.189 78.2059L110.623 74.6477L115.5 74.2993L116.868 75.0707L117.117 78.2059L119.879 79.6242L123.288 79.9228L124.607 79.2011L126 76.7129L129.16 76.066L130.355 76.8374L129.757 79.7984L132.37 79.9725L134.784 81.6397L143.269 81.1918L144.538 78.3303L148.494 74.1998L147.25 71.6618L150.261 69.9947L151.182 67.7552L150.659 62.9528L154.566 57.8021L157.253 55.6124L162.006 55.4382L164.071 56.6327L165.141 55.8115L168.624 51.0589L169.62 44.9378L176.04 39.7124L179.672 43.1462L179.648 44.0918L177.234 45.4603L177.881 46.0576L193.134 47.3265L195.647 42.5739L198.011 39.9115L198.957 34.0889L214.757 35.9303L215.578 37.0499V39.6129L214.061 44.5396L215.056 46.4307L216.375 47.1523L220.754 47.5007L228.542 45.1866L233.743 42.9223L233.992 41.9768L233.171 39.9613L234.763 36.2289L242.377 34.9101L243.895 33.4917L243.746 31.7748L242.178 30.3565L232.499 29.7097L232.424 28.8885L240.113 22.9415L248.299 25.1561L251.484 24.6833L256.162 19.3335L255.988 15.3523L256.685 13.9838L262.955 17.9152L266.638 22.9664L271.465 23.265L271.54 24.8077L268.032 29.5106L269.773 36.8261L268.952 41.927L272.212 44.7138L273.033 46.5054L275.123 47.625L275.795 49.6903L278.781 52.7012L280.299 52.5768L283.981 49.3669L281.717 46.7542L281.468 45.2115L285.848 34.8851L287.614 33.6908L290.202 34.288L293.238 33.5166L295.403 32.2476L295.552 33.1186L296.199 33.5415L296.622 34.0143L297.543 34.4871L297.617 34.9101L298.538 35.0843L298.314 34.4871L299.384 34.3129L300.529 34.2631L300.952 34.4373L301.225 34.7359L301.3 35.0843L302.146 35.3828L302.37 35.9303L302.644 36.1045L302.992 36.9255L303.266 37.2241L303.415 37.9955L303.838 38.2941V38.543L304.112 38.4932L304.684 38.7172L304.833 39.0158L305.182 39.1401L305.256 39.3143L305.406 39.1899L305.629 39.2396L305.704 39.4138L306.351 39.2894V39.4636L306.575 39.4138L306.724 39.5382V39.8369H307.073L307.222 40.011H307.446V39.8369L307.944 39.6627L308.018 39.3143L308.168 39.2645L308.591 39.5631L308.815 40.0857L309.312 40.5086V40.6828L309.661 40.8072L309.735 41.1058L309.934 41.1556L310.009 41.4044L310.581 41.927L311.303 42.1757L312.995 42.1261L313.194 42.5989L313.393 42.7232V43.0218L313.816 43.4946V43.7932L314.164 44.266V44.5147L314.662 44.9875L314.811 45.7588L315.16 46.1072V46.6298L315.433 47.1026L315.359 47.451L315.707 47.9734L315.558 48.3964L315.782 48.6453L315.632 48.8941L315.707 49.3172L315.931 49.4416L315.782 49.6654L316.205 49.964L316.354 50.5613L316.777 50.8101L316.852 51.1585L317.051 51.2082L316.976 51.3823L317.822 52.2782L318.096 52.9998L318.594 53.2236L318.867 53.174V54.4181L319.091 54.6669L319.365 54.8411L320.435 54.7913L320.584 54.9655V55.264L320.161 55.3886L320.086 55.5626L320.509 56.2843H320.708L320.858 56.5082V57.2299L321.007 57.2795L320.858 57.4537L321.082 57.8021L320.933 58.872L321.082 58.9964L321.156 59.5936L321.505 59.8923V60.3651L321.778 60.589L321.928 61.1115L322.276 61.634L322.475 61.7585L322.674 62.5795L322.824 62.6293L322.749 62.8534L323.247 63.4505L323.446 64.0975L323.719 64.3463L323.918 64.819H324.142L324.64 65.2918L325.287 67.0584L325.71 67.1829V67.7054L326.133 68.5265L326.407 69.5965L326.904 70.1936V70.4922L327.103 70.6167L327.253 71.0895L327.402 71.1392L327.551 71.7363L328.049 72.458L327.974 72.8064L328.173 72.9308L328.248 73.5778L329.094 74.9959L329.019 75.5933L329.293 76.1157V76.4641L329.642 76.8871L329.791 77.7082L330.064 78.0068L330.214 78.6538L330.786 79.5495L330.861 79.8979L331.134 80.1218L331.284 80.7687L331.632 80.9927L331.981 81.988L332.329 82.212V82.5106L332.826 83.2073L332.976 83.8542L333.473 84.3767L333.324 84.5509L333.548 84.9739V85.397L333.896 85.7453L333.822 85.9693L334.021 86.0937L334.17 86.9894L334.394 87.1636V87.6862L334.742 88.159L335.091 89.4528L335.315 89.6269L335.514 90.5228L335.439 90.8214L336.086 91.8913V92.3143L336.235 92.3641V92.6627L336.385 92.7871L336.459 93.6083L336.683 93.9068L336.459 94.1307L336.534 96.4946L336.758 96.619L336.683 97.0917L336.957 97.3903V97.689L337.181 97.9876V98.5848L337.33 98.6345L337.405 98.9828L337.679 99.157L337.878 101.098L338.027 101.446L338.251 101.571L338.4 102.466L338.549 102.516L338.4 103.163L338.624 103.586L338.549 104.109L338.699 104.158V104.457L338.425 104.681V105.029L338.574 105.204L338.351 105.452L338.276 107.642L338.127 107.766V108.413L337.977 108.762L338.052 109.409L337.977 109.757L337.828 109.807L337.753 115.58L337.48 116.923L337.33 116.973L337.405 118.317L337.256 118.491V119.561L336.758 120.158L336.683 120.805L336.459 121.153L336.534 121.452L336.26 123.343L336.036 123.816L335.887 123.766L335.24 124.114L333.822 124.065L333.548 124.662L333.05 124.836H332.403L332.13 125.01V125.234L331.906 125.408L331.408 125.458L331.334 125.284H330.985L330.786 125.458L330.711 126.155H329.94L329.791 126.279V127.1L329.019 127.15L328.746 127.573L328.323 127.747L327.9 128.27V128.867L327.626 129.041L327.203 129.738L326.556 129.962L326.133 130.435L325.785 130.484L324.64 131.256V131.48L324.839 131.604L324.914 131.903L324.416 131.952L324.491 132.301L323.844 132.525L322.998 132.574L322.152 133.744L321.878 133.918L321.455 134.739H320.957L320.534 135.162V135.511H320.111L319.614 136.158L319.041 136.332L318.892 136.556H318.618L318.394 137.028H318.245L317.822 137.551H316.976L316.827 137.675V137.85L317.026 137.974L316.827 138.322V138.745L316.329 138.621L316.18 138.919H315.956L315.807 139.143L315.16 139.268V139.741L314.438 140.388V140.985L314.164 141.159L313.169 141.283L312.671 141.632V142.279L313.318 142.702V142.826L312.049 142.95L311.402 143.597H311.054L311.129 143.821L311.328 143.871V144.095L311.178 144.269L310.83 144.219L310.681 144.344L310.606 144.767L310.805 144.991V145.215H310.307L309.611 145.563L309.536 145.986L309.81 146.459L309.461 146.683H308.964L309.038 147.628L308.541 147.678V147.852H307.894L308.093 148.201V148.425L307.894 148.549L308.466 148.773V148.997L307.819 148.872L307.744 149.644L307.894 150.042L307.322 150.117L307.471 150.764L307.396 151.112L306.625 151.46L306.276 151.411L306.052 151.585L305.854 151.933H305.704L305.779 152.53L305.132 153.302V153.476L305.356 153.65L304.933 153.476L304.784 153.949L304.435 153.899L304.584 154.197L304.36 154.322L304.435 154.919L304.36 155.044H304.012L303.938 155.218L304.211 155.442L304.137 155.566L303.788 155.516L303.365 155.865L303.44 156.213L303.713 156.387L303.639 157.034L303.365 157.681L301.374 159.373L300.603 160.418L299.334 161.538L298.264 162.707L298.19 162.931L297.841 163.23V163.454L298.115 163.578L298.314 163.404L298.389 163.18L299.956 161.836L300.728 160.717L301.922 159.423H302.146L302.569 159.945L302.644 160.766L302.494 161.189L302.146 161.538L302.221 162.533L301.499 162.956L301.648 163.18H302.221L302.494 162.881L303.266 162.757L303.415 162.981L302.992 163.404L303.141 163.927H303.415L303.639 164.101L304.286 163.976L304.709 164.101V164.524H304.933L305.281 165.22H305.854L306.202 164.524H306.55L306.625 165.22L307.819 165.096L308.391 164.325L308.74 164.275L308.939 164.449V165.146L310.432 166.838H311.079L311.228 166.241L311.452 166.29L311.726 166.888L311.577 167.709L311.651 168.306H312.373L312.224 168.654H312.497L312.771 168.878H313.194L313.343 169.351L314.339 169.227L314.413 169.45H314.563L314.836 169.276L314.761 169.052L314.911 168.928L314.761 168.804L315.334 168.928L315.483 169.152L315.334 169.376L315.608 169.6H315.956V169.824H315.757L315.831 170.048H316.18L315.956 170.471L316.304 170.52V170.645L316.031 170.819V171.118L316.304 171.342H316.877L316.951 171.516L316.877 171.814L316.304 172.461L317.374 173.282L318.096 173.631L318.17 174.228L318.021 174.751H318.17L318.245 175.049L318.892 175.173L319.464 175.522L319.539 176.691L319.962 177.388L320.31 177.612L320.385 178.085L320.733 178.781L320.808 179.727H320.957L321.032 179.503L321.306 179.553L321.803 180.498H322.002L322.152 180.324L322.5 180.374L322.998 181.145L323.272 181.021V180.374L323.62 180.598H323.894L324.317 180.299L324.391 180.598L324.665 180.648L324.814 180.996L325.387 180.772L325.884 181.369L326.73 181.494H327.303L327.875 181.27L328.87 181.145L329.442 180.722L329.915 180.673L326.606 190.451L328.696 193.263L328.372 194.557L318.594 201.848L315.11 201.275L312.174 201.101L305.555 204.709L300.802 205.232L299.857 206.277L300.429 212.572L299.259 215.483L297.244 217.3L293.138 217.399L286.594 215.135L282.588 216.877L280.224 216.479L275.621 219.266L272.71 218.046L269.798 218.569L267.708 215.558L259.745 217.399L252.977 214.015L241.954 219.738L237.674 219.788L233.718 218.395L230.657 219.813L232.698 222.227L233.793 225.536L232.797 234.145L234.465 235.414L240.461 234.568L240.287 237.878L242.427 240.565L241.307 245.915L248.847 250.468L250.439 257.659L249.917 259.351L244.418 266.717L240.138 270.126L238.943 272.913L231.479 276.446L231.329 279.979L234.415 285.18L234.763 288.265L229.115 289.459L226.278 293.565V298.293L225.432 300.532L224.263 301.353L222.023 300.881L219.609 297.646L217.942 297.123L211.473 298.567L211.149 300.059L212.095 302.896L212.344 307.499L209.806 312.401L200.3 318.796L196.095 318.622L194.279 321.857L190.372 320.762L189.476 322.081L189.551 323.748L187.909 325.888L181.215 328.251L181.29 330.317L182.733 331.063L184.599 334.522L187.635 337.334L187.66 338.951L186.714 339.523L184.052 340.145L183.977 343.878L179.672 348.108L178.229 348.406L173.228 337.383L172.033 336.985L166.833 339.225L162.677 338.876L160.985 341.166L153.346 343.181L150.51 345.022L147.598 348.581L151.878 350.347L150.51 350.994L148.021 354.378L144.986 354.727L142.249 356.742L135.804 356.344L132.992 357.14L131.848 356.444L128.911 345.993L127.817 344.201L128.165 337.483L126.523 336.214L130.728 334.024L134.56 333.502L135.381 332.357L124.681 318.796L125.154 316.88L126.995 314.74L133.938 311.804L134.361 309.614L131.798 306.504L131.723 305.061L139.089 300.458L138.989 295.78L137.048 293.714L139.81 289.783L139.113 288.738L134.834 287.767L133.838 285.976L135.904 284.358L142.572 282.094L144.588 280.079L144.339 277.814L141.875 273.136L138.665 265.945L134.908 263.805L128.24 252.683L115.176 245.765L114.106 242.979L112.439 241.013L102.511 236.584L99.5994 232.802L96.0163 231.458L96.4891 227.278L94.374 222.923L97.2106 221.181L97.559 218.743L91.6866 211.353L91.2886 209.661L89.1735 209.536L88.1533 207.795L86.3368 209.959L84.0476 209.661L83.3011 205.107L78.7725 203.415L76.3588 201.002L79.9171 194.259L85.4411 191.347L87.2575 185.923L90.343 183.235L88.1036 179.08L85.2669 176.865L73.7461 175.995L71.8799 174.875L69.3916 171.59L65.2113 171.466L63.6437 169.998L60.608 169.575L60.2098 166.415L58.4432 163.429L58.5178 159.274L60.608 159.149L61.5038 158.104L62.2502 154.695L62.1009 151.46L69.0433 147.006L70.6109 143.299L70.3621 138.596L68.2719 136.531L67.6 134.466L66.7043 128.295L67.2765 124.189L63.7432 118.192L63.8179 113.315L63.2207 111.847L60.608 108.787L56.4526 105.95L46.8228 101.994L44.2351 97.9876L41.1247 99.3811L41.8961 94.504L39.3829 92.0905L38.7359 87.3129L38.4125 72.0598L38.0143 69.6463L35.7749 66.2125L36.0237 64.6946L37.5913 63.8984L40.5275 58.7477L39.358 57.0308L36.6706 55.7368L36.4965 54.1444L36.9941 52.5519L40.4031 49.0434L41.0002 43.6937L42.8167 38.1697L46.7731 37.9209L48.5149 36.851L49.6595 32.6209L51.3018 29.9584Z" fill="#F2F2F2"/>
<g filter="url(#filter0_d_331_164)">
<circle cx="154.5" cy="152.5" r="7.5" fill="#D50000"/>
<circle cx="154.5" cy="152.5" r="6.5" stroke="#1C1C1C" stroke-width="2"/>
</g>
<g filter="url(#filter1_d_331_164)">
<circle cx="113.5" cy="86.5" r="7.5" fill="#D50000"/>
<circle cx="113.5" cy="86.5" r="6.5" stroke="#1C1C1C" stroke-width="2"/>
</g>
<g filter="url(#filter2_d_331_164)">
<circle cx="145.5" cy="152.5" r="7.5" fill="#D50000"/>
<circle cx="145.5" cy="152.5" r="6.5" stroke="#1C1C1C" stroke-width="2"/>
</g>
<g filter="url(#filter3_d_331_164)">
<circle cx="176.5" cy="300.5" r="7.5" fill="#D50000"/>
<circle cx="176.5" cy="300.5" r="6.5" stroke="#1C1C1C" stroke-width="2"/>
</g>
<g filter="url(#filter4_d_331_164)">
<circle cx="150.5" cy="220.5" r="7.5" fill="#D50000"/>
<circle cx="150.5" cy="220.5" r="6.5" stroke="#1C1C1C" stroke-width="2"/>
</g>
<g filter="url(#filter5_d_331_164)">
<circle cx="110.5" cy="158.5" r="7.5" fill="#D50000"/>
<circle cx="110.5" cy="158.5" r="6.5" stroke="#1C1C1C" stroke-width="2"/>
</g>
<g filter="url(#filter6_d_331_164)">
<circle cx="225.5" cy="96.5" r="7.5" fill="#D50000"/>
<circle cx="225.5" cy="96.5" r="6.5" stroke="#1C1C1C" stroke-width="2"/>
</g>
<g filter="url(#filter7_d_331_164)">
<circle cx="141.5" cy="111.5" r="7.5" fill="#D50000"/>
<circle cx="141.5" cy="111.5" r="6.5" stroke="#1C1C1C" stroke-width="2"/>
</g>
</g>
<defs>
<filter id="filter0_d_331_164" x="143" y="145" width="23" height="23" filterUnits="userSpaceOnUse" color-interpolation-filters="sRGB">
<feFlood flood-opacity="0" result="BackgroundImageFix"/>
<feColorMatrix in="SourceAlpha" type="matrix" values="0 0 0 0 0 0 0 0 0 0 0 0 0 0 0 0 0 0 127 0" result="hardAlpha"/>
<feOffset dy="4"/>
<feGaussianBlur stdDeviation="2"/>
<feComposite in2="hardAlpha" operator="out"/>
<feColorMatrix type="matrix" values="0 0 0 0 0 0 0 0 0 0 0 0 0 0 0 0 0 0 0.25 0"/>
<feBlend mode="normal" in2="BackgroundImageFix" result="effect1_dropShadow_331_164"/>
<feBlend mode="normal" in="SourceGraphic" in2="effect1_dropShadow_331_164" result="shape"/>
</filter>
<filter id="filter1_d_331_164" x="102" y="79" width="23" height="23" filterUnits="userSpaceOnUse" color-interpolation-filters="sRGB">
<feFlood flood-opacity="0" result="BackgroundImageFix"/>
<feColorMatrix in="SourceAlpha" type="matrix" values="0 0 0 0 0 0 0 0 0 0 0 0 0 0 0 0 0 0 127 0" result="hardAlpha"/>
<feOffset dy="4"/>
<feGaussianBlur stdDeviation="2"/>
<feComposite in2="hardAlpha" operator="out"/>
<feColorMatrix type="matrix" values="0 0 0 0 0 0 0 0 0 0 0 0 0 0 0 0 0 0 0.25 0"/>
<feBlend mode="normal" in2="BackgroundImageFix" result="effect1_dropShadow_331_164"/>
<feBlend mode="normal" in="SourceGraphic" in2="effect1_dropShadow_331_164" result="shape"/>
</filter>
<filter id="filter2_d_331_164" x="134" y="145" width="23" height="23" filterUnits="userSpaceOnUse" color-interpolation-filters="sRGB">
<feFlood flood-opacity="0" result="BackgroundImageFix"/>
<feColorMatrix in="SourceAlpha" type="matrix" values="0 0 0 0 0 0 0 0 0 0 0 0 0 0 0 0 0 0 127 0" result="hardAlpha"/>
<feOffset dy="4"/>
<feGaussianBlur stdDeviation="2"/>
<feComposite in2="hardAlpha" operator="out"/>
<feColorMatrix type="matrix" values="0 0 0 0 0 0 0 0 0 0 0 0 0 0 0 0 0 0 0.25 0"/>
<feBlend mode="normal" in2="BackgroundImageFix" result="effect1_dropShadow_331_164"/>
<feBlend mode="normal" in="SourceGraphic" in2="effect1_dropShadow_331_164" result="shape"/>
</filter>
<filter id="filter3_d_331_164" x="165" y="293" width="23" height="23" filterUnits="userSpaceOnUse" color-interpolation-filters="sRGB">
<feFlood flood-opacity="0" result="BackgroundImageFix"/>
<feColorMatrix in="SourceAlpha" type="matrix" values="0 0 0 0 0 0 0 0 0 0 0 0 0 0 0 0 0 0 127 0" result="hardAlpha"/>
<feOffset dy="4"/>
<feGaussianBlur stdDeviation="2"/>
<feComposite in2="hardAlpha" operator="out"/>
<feColorMatrix type="matrix" values="0 0 0 0 0 0 0 0 0 0 0 0 0 0 0 0 0 0 0.25 0"/>
<feBlend mode="normal" in2="BackgroundImageFix" result="effect1_dropShadow_331_164"/>
<feBlend mode="normal" in="SourceGraphic" in2="effect1_dropShadow_331_164" result="shape"/>
</filter>
<filter id="filter4_d_331_164" x="139" y="213" width="23" height="23" filterUnits="userSpaceOnUse" color-interpolation-filters="sRGB">
<feFlood flood-opacity="0" result="BackgroundImageFix"/>
<feColorMatrix in="SourceAlpha" type="matrix" values="0 0 0 0 0 0 0 0 0 0 0 0 0 0 0 0 0 0 127 0" result="hardAlpha"/>
<feOffset dy="4"/>
<feGaussianBlur stdDeviation="2"/>
<feComposite in2="hardAlpha" operator="out"/>
<feColorMatrix type="matrix" values="0 0 0 0 0 0 0 0 0 0 0 0 0 0 0 0 0 0 0.25 0"/>
<feBlend mode="normal" in2="BackgroundImageFix" result="effect1_dropShadow_331_164"/>
<feBlend mode="normal" in="SourceGraphic" in2="effect1_dropShadow_331_164" result="shape"/>
</filter>
<filter id="filter5_d_331_164" x="99" y="151" width="23" height="23" filterUnits="userSpaceOnUse" color-interpolation-filters="sRGB">
<feFlood flood-opacity="0" result="BackgroundImageFix"/>
<feColorMatrix in="SourceAlpha" type="matrix" values="0 0 0 0 0 0 0 0 0 0 0 0 0 0 0 0 0 0 127 0" result="hardAlpha"/>
<feOffset dy="4"/>
<feGaussianBlur stdDeviation="2"/>
<feComposite in2="hardAlpha" operator="out"/>
<feColorMatrix type="matrix" values="0 0 0 0 0 0 0 0 0 0 0 0 0 0 0 0 0 0 0.25 0"/>
<feBlend mode="normal" in2="BackgroundImageFix" result="effect1_dropShadow_331_164"/>
<feBlend mode="normal" in="SourceGraphic" in2="effect1_dropShadow_331_164" result="shape"/>
</filter>
<filter id="filter6_d_331_164" x="214" y="89" width="23" height="23" filterUnits="userSpaceOnUse" color-interpolation-filters="sRGB">
<feFlood flood-opacity="0" result="BackgroundImageFix"/>
<feColorMatrix in="SourceAlpha" type="matrix" values="0 0 0 0 0 0 0 0 0 0 0 0 0 0 0 0 0 0 127 0" result="hardAlpha"/>
<feOffset dy="4"/>
<feGaussianBlur stdDeviation="2"/>
<feComposite in2="hardAlpha" operator="out"/>
<feColorMatrix type="matrix" values="0 0 0 0 0 0 0 0 0 0 0 0 0 0 0 0 0 0 0.25 0"/>
<feBlend mode="normal" in2="BackgroundImageFix" result="effect1_dropShadow_331_164"/>
<feBlend mode="normal" in="SourceGraphic" in2="effect1_dropShadow_331_164" result="shape"/>
</filter>
<filter id="filter7_d_331_164" x="130" y="104" width="23" height="23" filterUnits="userSpaceOnUse" color-interpolation-filters="sRGB">
<feFlood flood-opacity="0" result="BackgroundImageFix"/>
<feColorMatrix in="SourceAlpha" type="matrix" values="0 0 0 0 0 0 0 0 0 0 0 0 0 0 0 0 0 0 127 0" result="hardAlpha"/>
<feOffset dy="4"/>
<feGaussianBlur stdDeviation="2"/>
<feComposite in2="hardAlpha" operator="out"/>
<feColorMatrix type="matrix" values="0 0 0 0 0 0 0 0 0 0 0 0 0 0 0 0 0 0 0.25 0"/>
<feBlend mode="normal" in2="BackgroundImageFix" result="effect1_dropShadow_331_164"/>
<feBlend mode="normal" in="SourceGraphic" in2="effect1_dropShadow_331_164" result="shape"/>
</filter>
<clipPath id="clip0_331_164">
<rect width="961" height="1250" fill="white" transform="translate(-442 -470)"/>
</clipPath>
</defs>
</svg>
