<svg width="368" height="368" viewBox="0 0 368 368" fill="none" xmlns="http://www.w3.org/2000/svg">
<rect width="368" height="368"/>
<path d="M213.276 286.473L214.471 286.523L214.894 286.921L215.615 287.269L215.764 287.493L215.068 287.891H214.645L214.222 288.165L213.575 288.215L212.928 287.767L211.733 287.419L211.46 287.145L211.609 286.573L212.53 286.622L213.276 286.473ZM207.255 285.727L207.677 286.249V286.523L208.175 286.747V287.145L208.374 287.419L208.175 288.339L207.901 288.563L206.757 288.165L205.911 288.339L205.488 287.941L206.334 287.369L206.409 286.672L206.682 286.1L207.031 285.702H207.255V285.727ZM238.706 269.702L240.398 270.722L241.817 270.772L242.389 270.946L243.036 271.394L243.608 271.494L243.384 272.24L242.812 272.862H242.538L242.464 273.086H242.265L242.115 273.609L241.692 273.659L241.344 274.007L240.623 274.181L240.349 274.529L239.702 274.753L239.129 275.152L238.433 275.201L237.661 275.599H237.388L236.044 276.694H235.123L234.626 276.993L232.56 277.043L230.794 276.769L230.221 276.819L229.873 276.545L229.798 275.45L229.948 275.4V275.052L230.371 274.082L230.943 273.46L231.217 273.41L231.64 273.012L232.063 272.962L232.411 272.738L232.56 271.942L232.983 271.593L233.182 271.195L234.103 271.245L234.252 270.797L234.825 270.623L235.397 270.1L237.164 269.926L237.811 269.702H238.706ZM203.149 23.812L204.493 23.9862L204.99 24.2848L210.091 25.2802L210.663 25.6284L210.887 26.0515L210.539 26.3501L210.39 26.773L211.236 27.0716L211.037 27.5444H210.887L210.962 27.7684H211.31L211.46 27.4698L211.385 26.6985L211.037 26.6487L211.186 26.0515L212.181 25.7031L213.376 25.8275L213.649 25.6533L213.724 25.4294L213.923 25.4791L214.072 25.8275H214.794L217.058 26.3003L219.124 26.2505L219.547 26.773L219.198 26.9971L218.701 26.9472L218.626 27.4698L218.85 27.5942L219.198 27.5444L219.547 27.0218H219.771L219.845 26.798L220.268 26.4994L221.612 26.3252L222.756 26.549L222.956 26.6736L223.105 27.0218L223.03 27.5444H222.458L222.383 27.7684L222.11 27.8181V28.2412L223.105 28.8384L223.304 30.0078L223.727 30.3562H223.951V30.1321L223.677 28.9627L224.449 28.49L224.722 27.7186L225.22 27.42L225.444 26.9971L225.519 26.6985L225.369 26.5739L225.519 25.9768L226.29 25.8026V25.3796L226.713 25.4294V25.7777L227.434 25.9022L227.509 26.2008H227.783V26.4247L227.285 26.3003L227.136 26.5243L227.41 26.8725V27.3951H227.982L228.554 26.798L228.828 26.8478L229.052 27.2707L229.823 27.2209L229.898 27.0965L230.246 27.2707H230.819L230.968 26.8478H231.117L231.267 27.0716V27.5942L232.187 28.0172L231.689 28.49V28.8384H231.914L232.112 28.3656L232.461 28.3158L232.536 28.0919L233.232 27.5693L234.004 27.9177L233.655 28.0919L233.506 28.6143L234.153 28.7387V28.9129L234.651 29.0373L235.372 28.9129L235.521 28.6143H236.293L237.91 29.4355H238.134V29.3111L238.482 29.1369V28.714L238.632 28.5398L238.98 28.8384H239.403L239.552 28.6143L240.623 28.3905L241.269 28.5149L241.468 28.6891H242.315L242.588 28.8633L242.513 28.4401H242.787V28.6642H242.937L243.011 28.4401L243.857 28.3158L244.629 28.7387H244.977L245.624 28.3905L246.047 28.3407V28.2163L245.475 28.0421L245.325 27.7435L244.604 27.4449L243.608 27.2707L243.111 27.5693L242.339 27.5195V27.2209H241.842L241.643 27.6439L240.996 27.8679V27.7435L240.349 27.6937L240.125 27.5195L240.05 27.2209H239.776L239.851 26.798L240.125 26.7481L240.398 26.4496L240.896 26.3252L241.045 26.1012L241.543 26.2257L241.767 25.927H242.041L242.389 26.2257L243.957 26.5243L244.031 26.6985L246.296 27.3951L246.719 27.6937L247.291 27.7435L247.44 27.9177L248.436 28.3407L248.933 28.3905L249.431 28.6891L250.003 28.7387L250.153 28.9129L251.222 29.1369L251.571 29.3608L251.77 29.3111L253.188 29.9083L254.109 30.0825L254.532 30.3811H254.955L255.03 30.5553H255.453L255.677 30.7295L256.821 30.9035L257.17 31.1275L258.737 31.4261L259.235 31.7247L259.509 31.675L261.076 32.098L261.723 32.0482L262.295 32.2224L265.207 32.3965L265.555 32.5707L269.661 32.6204L269.735 32.7449L272.497 33.1679L272.647 33.3421L274.289 33.4665L274.488 33.6407L276.553 33.9393L276.703 34.1135L277.474 34.2378L278.046 34.5862H278.693L278.892 34.8101L279.614 34.8599L279.688 35.0839L280.958 35.258L281.729 35.7806H281.953L282.102 36.0046L282.874 36.1289L282.948 36.4275L283.595 36.6515L284.168 37.1242H284.74L285.013 37.5473L285.511 37.5969L286.506 38.0697L287.004 38.5923L287.651 38.8163L287.8 38.9904L287.726 39.2144L287.95 39.4384L288.223 39.488V39.6622L288.721 39.8862L289.293 40.4834L289.94 40.6078L291.558 41.8519L292.553 42.3247L292.702 42.5487L293.051 42.4989L293.125 42.8473L293.698 42.9717V43.1459L294.27 43.3697L294.618 43.7181H294.892L295.464 44.3651L296.111 44.6637L296.684 45.2359L297.181 45.4101L298.176 46.4055L298.898 46.8783L299.247 47.4754L299.819 47.9482L299.893 48.2468L300.963 49.1176L301.113 49.466L302.954 50.9838V51.158L303.228 51.2824L303.452 51.805H303.8L304.87 53.0242L305.019 52.9745L305.865 53.7956H306.064L306.288 54.1439L306.935 54.4425L308.428 55.7365L309.573 56.4331L310.071 57.0801L310.991 57.8514L311.14 58.15L311.787 58.4984V58.7224L312.857 59.7674L313.504 59.9416V60.1655L314.002 60.5886L314.574 60.8872L315.42 61.7082L315.993 61.9322L316.067 62.2308L316.416 62.3552L316.565 62.6538L316.839 62.7036L316.913 62.9276L317.486 63.3256L317.685 63.674L318.531 64.2463L318.879 64.8435L319.302 65.1918H319.501L320.696 66.3116L321.392 67.2571L321.815 67.3815L322.238 67.8045V67.9787L323.01 68.4515L323.084 68.6755H323.233L323.308 69.2477L323.806 69.5463L323.955 69.8947L324.229 69.9444L324.577 70.5168L325.224 70.8153L326.07 71.9848L326.916 72.7314L328.758 75.4684L330.101 76.9364L331.942 79.9223L332.863 82.7341L332.789 83.2068L332.988 84.1524L335.177 90.398L335.327 90.7464L335.551 90.8707V91.3435L335.824 91.9158V92.6622L336.173 93.3092L336.098 93.8318L336.372 94.1304L336.297 94.4788L336.571 94.7773V95.2998L336.77 95.4243L336.994 96.9919L337.143 97.2158L337.068 97.5642L337.342 97.6886V97.9871L337.616 98.3853L337.765 99.6046L337.914 99.7788L337.765 100.998L337.566 101.048V102.093L337.417 102.615L337.491 104.059L337.143 105.153V105.85L336.944 106.024L337.143 107.069L336.944 107.99L336.795 108.114L336.869 108.687L337.019 108.811L336.795 109.458L336.944 110.329L337.093 110.453L337.019 110.752L337.168 111.324L337.093 111.498L336.247 111.897L336.471 113.862L336.397 114.957L336.969 118.565L337.666 120.182V120.655L337.89 121.352L338.089 121.576L338.437 123.094L338.636 123.268L339.134 125.756L339.358 125.881L339.507 126.751L339.781 127.15L339.98 129.364L340.253 129.837L340.328 130.534L340.179 130.583L340.104 131.28L339.681 132.275H339.258L339.333 131.803L339.482 131.753V131.529H339.333L338.984 132.101L339.059 132.4L338.487 132.574L338.561 132.698L338.362 132.873V133.097L338.089 133.271L337.939 133.967L337.666 134.366V134.664L337.815 134.714H337.666L337.392 135.585L336.894 136.282L336.322 138.421L335.973 140.561L335.899 143.174L336.322 143.821L336.397 144.568L336.198 144.966L336.397 145.015V145.19L336.247 146.06L336.098 146.185L335.874 147.28L335.725 147.404L335.65 148.325L335.227 148.847L334.879 149.942L334.68 150.066L334.456 150.937L333.883 151.336V151.634L333.684 151.858V152.331L333.46 152.505L333.187 153.152L332.913 154.247L332.415 154.894L332.341 155.366L331.918 155.939L331.694 156.685L331.495 156.735V156.959L331.221 157.258L331.296 157.88L331.097 158.104L330.897 159.547L330.673 159.895V160.766L330.474 160.99V161.637L330.25 161.811L329.977 162.956L329.703 163.254V163.553L329.479 163.677L329.28 164.2L328.932 164.424V164.648L329.081 164.697L329.006 165.17H328.807L328.111 165.693L327.837 166.091L327.066 166.663L326.792 167.186L326.443 167.36L326.02 167.883L325.946 168.231L325.523 168.579L325.448 168.928L324.876 169.848V170.147L323.731 172.859L323.383 175.447L323.308 179.901L323.035 182.314L322.835 182.936L322.686 185.3L322.537 185.649L322.611 186.868L322.388 188.013V189.754L322.611 191.198L322.537 191.596L322.338 191.72L322.188 192.068L321.84 193.288L320.845 195.129V195.651L320.347 197.045L320.123 198.662L319.626 200.454L319.551 201.374L318.78 203.962L318.133 208.516L317.71 209.959L317.51 211.402L316.863 212.771L315.171 213.99L314.326 214.214L309.374 216.677L305.84 218.22L303.427 220.012L302.506 221.206L301.934 222.575L301.361 223.197L300.939 223.421V223.644L300.366 223.943L299.595 224.913L299.321 226.058L298.55 227.949V228.522L298.276 228.646L297.928 229.517L295.813 231.532L293.324 233.075V231.532L293.051 230.96L292.852 230.836V230.612L292.279 230.039L291.583 229.741L291.234 229.392L290.239 229.044L289.667 228.522L289.517 228.347V227.551L289.667 227.501L289.741 226.879L289.393 225.784L289.119 225.56L288.895 224.988L288.248 224.764L288.099 224.54L287.402 224.242V224.117H287.203L286.929 223.719L287.004 223.371L287.999 222.45L287.85 221.305L287.999 220.858L287.576 220.634L287.303 220.236L286.954 220.111L286.805 219.813L286.88 219.589L286.656 219.464L286.73 218.942L287.004 218.643L286.929 217.722L286.78 217.673L286.929 217.051L286.656 216.876H286.307L285.81 216.429L285.312 216.254L285.038 215.906L284.964 215.558L284.391 215.16V214.413L284.242 214.189L283.819 214.015L283.471 214.139L282.923 213.94V213.716L283.346 213.542L283.57 213.244L283.421 212.099L284.267 211.8V211.626L284.466 211.502V210.979L284.889 211.029V210.332L284.242 210.556L284.168 211.701L284.018 211.825H283.297L283.097 212.223L283.247 212.92L282.898 213.094L282.625 213.965L282.774 214.438L283.421 214.562L283.346 214.687L283.57 214.811L283.645 215.383L284.416 216.08V216.603L284.765 216.777L285.113 217.349L285.188 217.747L285.461 217.971V218.32L285.188 218.668V219.589L285.387 220.161L286.158 220.957L287.079 221.48V222.226L286.656 222.45L286.158 223.147V224.067L286.73 224.864L287.875 225.436L288.447 226.058L288.646 226.581L288.572 228.422L288.721 228.472V228.82L288.995 229.268L290.687 230.189H290.96L291.184 230.636L291.757 231.209V231.557L292.03 231.906V232.304H292.603V232.826L292.453 233.05L292.528 233.573L292.379 234.319L291.184 235.514V235.737L290.96 235.862L290.612 236.434V236.658L290.264 237.006L290.189 237.305L289.915 237.479L289.99 237.778L289.069 237.952L288.92 238.176L287.726 238.524L286.531 239.271L286.457 239.619L286.233 239.843L286.083 239.793V240.017L285.884 240.191L285.611 240.888L284.964 241.859L284.74 241.958L284.391 242.754L284.043 243.103L283.968 243.501L283.321 244.372L283.172 244.148V243.451L283.521 242.879L283.595 241.784L283.446 241.61V241.162L283.297 241.037L282.948 241.162V240.863L283.172 240.59L282.898 240.142L281.829 239.445L281.107 238.748L279.191 237.554V237.206L278.693 236.807L278.494 235.787V234.643L278.693 232.577L278.843 232.528L278.768 231.831L278.494 231.706L278.419 231.881H277.996L277.648 231.706V231.408L277.499 231.283L276.852 231.408L276.777 231.184L275.931 231.134L275.857 230.836L275.359 231.01L274.712 230.661L273.99 230.487L273.916 230.263L273.194 229.965L272.049 229.044L270.855 229.094L270.009 228.92L269.511 227.999L268.168 227.427L268.018 227.203L266.675 227.252L265.978 226.63L265.829 226.183L264.634 225.138L264.361 224.217H263.365L263.291 223.918L263.017 223.794L262.743 223.097L262.669 222.4H262.519L262.295 223.147L262.445 223.844L262.718 224.018V224.316L263.365 224.714L263.291 225.063L263.564 225.287L263.987 226.481L265.679 228.248L266.6 228.82H266.874L267.148 228.596L268.068 228.82L268.64 229.343L268.715 229.741L269.412 230.487L269.487 230.836L270.407 230.786L270.681 230.96H271.95L272.522 231.358L273.095 231.483L273.169 231.657L274.165 232.005L274.314 232.179L275.234 232.304L276.155 232.652H276.578L276.777 232.826L277.2 233.797V236.559L277.623 237.081L278.196 238.524L277.996 239.146L277.648 239.32V239.495L276.727 239.669L275.657 238.873L274.513 238.475L273.866 238.425L273.294 238.823L272.522 239.047L272.448 239.221L271.676 239.395L271.602 239.569L271.029 239.619L270.955 239.893L270.681 240.067H270.332L270.059 239.943V239.719L269.835 239.594L269.188 239.719L268.84 239.669L268.69 239.495L268.118 239.544L267.695 239.37L267.048 239.544L266.351 239.495L266.003 239.196L265.505 237.828L265.157 237.429L263.166 237.081L263.017 237.479L262.669 237.355L262.395 237.529L262.47 237.828L261.201 238.002L260.355 238.45L260.081 238.798L259.434 239.146L259.285 239.768L259.061 239.818L257.916 239.37L257.07 239.42L256.572 239.768H255.801L255.652 239.644L255.229 239.768L254.308 238.972L253.387 238.848L252.691 239.544L252.268 239.594L252.044 239.47L251.894 239.594V239.868L251.397 240.042V240.266L251.048 240.838L250.775 240.565L250.849 240.167L250.625 239.992L250.202 240.167L250.128 240.39L250.7 240.838L250.003 240.39H249.779V240.614L250.352 240.963L250.551 241.311L252.616 241.261L252.89 241.709H253.313L253.661 241.411H254.084L254.507 241.759L255.577 241.933L255.652 242.107H257.219L257.792 242.63H258.215L258.638 242.282L259.981 242.58L261.126 242.058L261.4 241.834L261.474 241.535L264.037 240.913L264.46 240.963L264.659 241.585L265.232 242.107L266.874 242.506L268.018 242.456L269.437 241.834L270.009 241.933L270.357 241.659L270.706 241.709L271.129 242.157H271.701L271.975 241.585L272.622 241.461L272.846 241.635L273.343 241.012L273.617 240.888H275.185L275.832 241.062L276.105 241.411L276.255 241.286L276.528 241.336L276.727 241.51V242.132L277.3 242.306L277.524 242.705L277.797 242.829L278.37 242.655L278.295 242.207L277.947 241.908V241.56L278.444 241.61L278.718 241.485V241.187L279.066 240.963L279.34 240.515L279.838 240.689L279.987 241.137L279.838 241.436L279.614 241.485L279.763 242.058L279.614 243.028L279.763 243.202L278.917 243.327L277.723 244.422L277.573 244.869L277.151 244.919L277.225 245.317L277.076 245.84L276.802 246.014L276.603 246.537L276.031 247.059L275.956 247.407L275.757 247.582V247.93L275.409 248.726L275.259 249.821L274.836 250.169L274.637 250.692L274.712 250.866L274.364 251.214L274.09 252.185L274.165 252.633L274.015 253.155L273.443 253.728L272.373 253.678L272.025 253.28L272.099 252.757L272.249 252.707L272.049 252.533L271.701 253.155L272.049 254.001L271.701 254.051L271.552 254.225H271.054V254.623L269.71 254.972L269.785 255.146L270.059 255.196L270.134 255.096L270.781 255.146L271.353 254.922V255.768L271.079 256.166L271.228 256.29L271.577 256.116L271.651 255.27L271.801 255.146L271.726 254.847L272.298 254.549L273.941 254.847L274.637 254.549L274.563 254.325H274.911L275.185 254.151L275.757 254.2L275.906 254.325L275.981 255.021L276.404 255.32L276.329 256.34L276.553 256.39L276.703 256.689L276.777 257.435L276.976 257.833V258.182L276.28 258.406V258.53L276.553 258.58L277.25 258.281L277.325 257.883L277.051 256.614L276.827 256.315L276.752 255.171L276.479 254.773L276.28 253.976H276.429L276.578 254.375H277.001L276.802 254.151L276.951 254.026L277.101 254.375L277.524 254.598L277.673 254.897L278.096 255.245L278.793 255.544L279.365 255.992V256.166L279.937 256.514L279.788 258.455L279.589 258.679V258.903L278.867 259.6L278.718 259.998L278.37 260.346V260.695H278.171L277.947 260.919L277.673 261.615L277.101 262.188L276.827 262.76L276.255 263.108L275.906 263.556L275.757 264.004L275.409 264.228L274.911 265.074L274.413 265.472L273.692 266.741L273.194 267.015L272.92 267.637L271.776 268.383L271.577 268.831L271.154 269.005L270.581 269.578L270.233 269.628L269.462 270.374L268.392 270.822L268.242 271.046L266.675 271.842L265.53 272.365L265.381 272.315L264.958 272.663L264.883 272.962L262.818 274.057L262.743 274.355L263.017 274.704L262.942 274.878L262.594 274.828L262.096 274.43L261.449 275.127L260.603 275.749L260.404 275.699L259.757 276.221H259.484L259.409 276.396H258.762L258.488 276.62L257.717 276.844L257.369 277.192L257.02 277.068L255.253 277.291H253.611L253.338 277.167L251.496 277.69L248.585 277.814L247.814 277.515V277.291L247.391 276.893V276.445L247.042 276.396L246.893 276.221V275.375L246.669 275.201L246.52 274.679L246.445 273.659L246.097 273.211L246.171 272.813L246.445 272.763L246.37 273.111L246.52 273.236L246.793 274.33L246.993 274.206V274.032H247.191L247.415 274.33V273.634L246.918 273.335V272.813L246.569 272.415L246.146 272.016H245.873L245.101 271.568L245.027 271.295L245.3 270.847L246.37 271.469H247.067L247.415 271.17L248.261 270.996L248.411 270.772L248.908 270.648L249.63 270.125V269.951L250.775 269.329L250.999 268.657L250.775 268.607L250.576 269.055L250.003 269.453L248.361 270.076L247.938 270.424L245.45 270.598V270.299L245.3 270.175L244.877 270.349L243.957 270.175L243.459 269.827L243.185 269.304L241.991 268.334L241.568 267.313L241.22 266.915L240.946 266.069L240.672 265.895L240.523 265.273L240.797 264.004L241.643 263.706L240.996 263.606L240.722 263.382V263.158L240.299 262.71L240.374 262.138L239.951 261.566L239.378 261.267L239.03 261.317L238.184 260.869L238.682 261.491H239.105L239.876 262.063L240.025 263.954L239.951 264.402L239.602 264.676L239.528 265.472L239.677 265.696V266.144L240.1 266.766L240.448 267.861L239.453 267.637L238.458 267.015L238.234 266.617L238.308 265.995L238.035 266.119L238.109 266.965H237.761L236.691 266.517H236.467V266.741L238.582 267.488L239.304 268.06L239.577 268.582L240.224 269.03L240.871 269.254L241.643 270.051L240.299 270.001L239.801 269.379L238.806 268.806L237.885 268.931L237.189 269.279L235.621 269.453L234.899 269.901L233.207 269.951L233.058 270.076L233.207 270.25L234.476 270.2L234.7 270.25V270.424L234.053 270.772L233.904 271.121L233.257 270.996L232.336 271.693V272.041L231.988 272.613L231.416 272.738L230.147 273.708L229.873 274.231L229.724 274.928L229.525 275.102V274.529L229.948 273.907L230.097 273.335L230.595 272.589L231.167 272.066L231.242 271.668L231.043 271.718V271.942L230.271 272.514V272.738L229.923 273.186V273.534H229.773V273.758L229.575 273.932L229.301 274.853L229.151 275.948L229.226 276.868L229.077 276.819L228.928 276.246L228.007 275.674L227.658 275.152L226.812 274.853L226.539 275.027H226.116L224.921 274.505L223.578 274.729L223.155 275.127V275.301L223.926 274.903L224.349 274.952L224.772 274.778V274.903L225.27 275.127L227.186 275.699L227.459 276.097L228.032 276.495L228.679 277.59L228.952 277.764L228.803 278.113L229.5 278.511L228.654 278.784L228.305 279.083H227.957L227.111 278.784L226.464 278.336L225.12 278.162L224.897 277.889L224.971 277.142H224.697V277.491H224.548L224.623 277.938L223.976 277.59H223.627L224.399 278.212L223.478 278.336V278.461L224.399 278.585L224.971 278.809V279.033L224.473 279.481H224.747L225.095 279.133H225.444L226.638 279.879H226.912L227.484 280.228H227.907L227.41 280.75L226.34 281.372L225.917 282.069L225.643 282.119L225.568 282.343L224.424 283.189L224.001 283.014L223.727 283.064L224.075 283.363L223.926 283.587L223.428 283.885L223.005 283.935L222.931 284.283L221.861 284.159L220.791 284.283L219.298 284.159L218.949 284.283L218.452 284.159L218.377 283.935L217.656 283.537L217.233 283.661L217.083 283.487H216.66V283.313L216.461 283.189V283.413L216.188 283.761H216.959L217.108 283.985L217.382 284.035H216.536L215.964 284.259L215.814 284.532L214.471 284.259L214.321 283.811L213.973 283.636L213.774 283.686V283.91L214.047 284.134L212.903 284.084L212.754 283.786L212.53 283.736L212.455 284.184L212.107 284.458L211.758 284.507L211.534 284.806L211.037 284.856L210.539 284.632L210.962 285.328L210.887 285.503L210.315 285.776L209.171 285.652L209.245 285.926L209.096 286.05L208.598 285.926L207.877 285.353L207.528 284.831L206.956 284.557H206.533L206.11 284.682L206.259 285.13L206.035 285.304L206.11 285.528L205.687 286.05L205.538 287.021L205.388 287.145L204.891 287.095L204.741 286.473L203.97 286.249L204.045 286.075L204.692 286.199L204.965 286.498L205.115 287.021H205.264L205.189 286.797L205.388 286.448L204.318 285.652V285.478L203.97 285.204L203.622 285.08L203.472 285.353L203.821 285.478L203.671 285.702L203.746 286.1L203.522 286.15L203.671 286.374H203.248V286.548L204.318 286.672L204.169 286.797L204.244 287.021L204.094 287.294L204.667 287.468L204.866 287.991L205.936 289.011L206.583 288.787L207.852 289.484H208.698L209.842 289.882L210.265 289.832L210.912 290.28L211.559 290.056L212.555 290.454L213.276 290.33V290.504L212.629 290.628L212.355 291.201L211.932 291.475H211.659L211.161 291.997L211.086 292.221L211.36 292.569L211.286 293.191L210.564 293.316L210.415 293.888L209.917 293.838L209.992 293.44H209.842L209.618 293.714V294.112L209.195 294.336V294.56H209.419L210.116 294.112H210.34L210.539 294.51H211.037L210.962 294.062L211.534 293.938V293.764L211.808 293.714L212.007 293.316L211.808 292.619L211.883 292.221L212.803 291.599L213.376 291.649L213.649 291.873L213.575 293.465L213.923 293.814H214.197V293.639H213.923L213.774 293.415L213.923 291.748L213.5 291.226L214.147 290.877L214.57 290.828L214.993 290.479L215.565 290.604V290.38L215.764 290.255H216.262V290.081L215.914 289.957L216.188 289.733L216.038 289.285L216.188 288.439L216.536 288.265L217.606 288.314L217.456 288.713L217.805 288.837L217.73 288.538L217.88 288.414L219.372 287.792L220.293 287.916L221.488 289.061L221.836 288.887L223.105 288.762L223.254 288.588L223.827 288.638L224.25 288.414H224.598L224.872 287.966L225.643 287.667L225.917 287.394H226.066V287.667L226.489 287.543L226.414 286.971L226.688 286.846L226.887 286.399L227.236 286.274L227.385 286L227.31 285.702L228.38 284.557L228.305 283.935L229.226 283.014L229.724 282.89L229.997 282.666L232.063 282.392L232.56 282.168L233.63 282.343L234.128 282.741V282.965L234.825 283.413L234.899 283.761L235.173 283.885L235.248 284.234L235.521 284.408L235.87 284.98V285.328L236.143 285.901L235.945 286.697L236.143 287.618L235.994 287.667L235.273 289.608V291.027L234.999 291.549L235.074 292.744L235.92 294.635L235.845 294.983L236.044 295.605L235.77 296.053V297.198L235.347 297.82V298.74L235.123 298.964L235.273 299.188L235.123 299.81L235.198 300.159L234.924 300.507L234.85 301.477L234.427 302.398L234.775 302.672L234.626 302.896L234.7 303.418L234.277 303.692L234.427 304.214V305.185L234.277 305.284L234.128 305.956L233.481 306.479L234.75 308.519L235.82 308.345L236.243 308.469L237.388 308.345L237.189 309.191L236.915 309.415V309.689L236.417 310.087L236.193 310.709L235.994 310.833L235.845 311.231L235.621 311.356L235.123 312.152L234.551 312.5V312.724L233.904 313.645L233.257 314.317L232.61 314.715V314.889L232.187 315.163L232.038 315.511L231.689 315.636L231.117 316.307L230.843 316.357L230.769 316.581L230.346 316.805L230.271 317.079H229.997L229.425 317.527L229.35 317.8L229.077 317.85L228.928 318.198L228.654 318.149L227.882 318.895L227.385 318.995L227.111 319.219L227.036 319.443L226.041 320.114L225.817 320.562L225.17 321.085L224.598 321.433L224.026 321.483L222.756 320.737L222.408 320.687V320.911L223.403 321.483L223.478 322.155L223.279 322.205V322.379L222.781 322.827L222.209 323.001L221.064 323.921H220.791L220.219 324.593H219.721L219.223 324.867L219.024 325.215L217.83 326.061L217.133 326.858L216.486 327.306L215.565 328.276L215.491 328.55L214.346 328.599L213.923 328.251L213.575 328.201L212.803 327.529H212.604L212.38 327.256L211.31 327.131L210.614 326.858H208.2L207.354 326.584L207.13 326.31L206.06 326.484L205.712 326.26H204.293L204.094 326.086L203.373 325.962L203.099 325.738L201.457 325.613L199.889 325.041H198.048L197.401 324.693H196.829L196.679 324.817L196.829 324.991L197.177 325.041L197.252 325.439L196.903 325.564L196.406 326.31L195.709 326.534H195.062L194.788 326.36L193.221 326.41L192.375 325.887V325.763H192.026L191.678 325.414L191.18 325.365L190.956 325.19L189.264 324.917H188.418L187.647 324.693L188.418 325.215L189.414 325.166L191.603 325.738L192.101 326.26V326.833L192.375 327.057L194.141 326.932L194.639 327.156L194.863 327.43H195.062L195.137 327.654L195.361 327.753V327.977L195.087 327.853L195.161 328.077L195.734 328.127L195.933 328.301V328.525L195.584 328.873L195.012 328.749L194.514 329.495L194.092 329.595L193.594 330.043L192.175 330.217L190.185 330.739L189.687 329.993L189.463 329.943L189.314 330.117L189.463 330.565L189.389 330.789L189.04 331.063L188.393 331.113L188.244 331.287H187.672L186.03 330.938L185.955 330.814H185.457L184.736 329.445L184.462 329.396L184.313 330.192L184.163 330.316L184.089 331.113L184.736 331.237V331.511H184.586L184.014 331.287L184.163 329.47L184.512 329.122L183.516 328.724L182.247 329.246L181.75 328.724L181.526 327.803L180.953 326.783L180.381 326.609L180.53 326.833L180.381 326.882L180.033 326.659H179.61L180.381 326.932L180.729 327.281L180.928 327.903V328.425L180.655 328.599L180.928 328.823L181.003 329.271L181.277 329.669L181.998 329.844L182.197 330.068L183.392 330.018L183.591 330.142V330.54L182.82 330.988H182.397L181.476 331.337L181.202 330.938H180.978L179.834 331.859L178.838 331.809L178.689 331.585L178.191 331.76L178.042 331.536H177.843L177.768 331.71L177.495 331.76L175.429 331.809L174.857 332.083L174.359 332.133L174.011 331.735L173.24 331.511L173.016 331.685L173.09 331.859L172.667 331.809L172.443 332.033L172.518 332.257L172.319 332.382L172.17 332.73L171.523 333.004L171.597 333.75L170.95 334.596L171.025 335.343L170.876 335.616L170.95 336.462L170.801 336.512V337.707L170.652 337.756L170.726 338.503L170.577 338.677L170.502 339.349L170.353 339.448L170.428 340.021L170.279 340.543L169.706 341.215L168.139 341.713L167.989 341.936L167.143 342.036L167.492 343.081L164.008 343.405L161.371 344.45L158.21 343.828L154.478 339.921L148.531 341.737L143.181 338.329L142.285 337.408L142.559 335.766L145.545 333.103L146.267 328.798L149.452 329.47L150.372 327.38L157.539 324.718L154.976 320.164L153.98 316.755L150.945 315.735L149.178 313.745L146.69 308.967L146.291 306.802L144.177 306.454L138.229 308.445L128.998 309.241L126.883 311.853L125.39 312.202L118.622 308.096L117.427 304.861L114.69 303.045L113.048 302.199L113.794 298.89L113.247 296.6L95.8042 294.162L94.4854 296.899L92.5695 298.84L89.1107 299.686L86.9459 301.328L85.5027 298.367L84.3084 297.62L83.4125 298.591L82.2679 303.368L73.7579 305.359L66.9898 309.465L59.5997 309.29L56.1658 310.211L54.7475 308.843L53.3043 309.116L52.7071 312.874L51.7864 314.267L48.5765 310.833L47.6807 307.3L47.9046 303.99L51.1892 298.516L51.3385 296.924L50.0943 296.177L46.1877 297.023L45.914 293.216L44.4709 290.131L44.7943 288.538L47.9545 286.075L47.5563 284.706L45.6901 283.86L42.7041 285.279L39.6187 281.795L34.1942 281.845L30.2876 279.854L28.7946 277.64L28.8195 274.206L28.1726 272.215L25.8336 269.702L24.1665 269.478L21.5786 265.646L23.7434 261.416L25.2364 261.118L28.6702 262.486L29.0186 263.805L28.4214 265.348L31.2829 269.005L36.3839 269.354L40.7633 271.071L44.2718 266.89L46.6108 267.338L46.5361 265.796L44.4211 263.332L43.1023 260.073L37.7525 254.872L34.891 255.619L30.3623 251.488L26.9284 250.169L29.1928 243.302L32.8505 237.977L31.258 232.577L33.7712 229.193L34.3435 224.267L33.3233 222.475L30.7355 222.077L33.0745 218.568L36.2595 217.125L35.3637 215.284L35.8365 214.761L41.5346 210.108L39.6933 205.679L34.1444 199.782L35.4632 193.885L31.2332 190.227L33.7712 185.325L33.5224 180.722L32.5769 177.885L32.9003 176.392L39.3698 174.949L41.037 175.472L43.4507 178.706L45.6901 179.179L46.8596 178.358L47.7056 176.119V171.391L50.5422 167.285L56.1906 166.091L55.8424 163.005L52.7569 157.805L52.9062 154.272L60.3711 150.738L61.5654 147.952L65.8452 144.543L71.3443 137.177L71.8669 135.485L70.2744 128.294L62.7348 123.741L63.8546 118.391L61.7147 115.704L61.8889 112.394L55.892 113.24L54.2249 111.971L55.2203 103.362L54.1254 100.052L52.085 97.6387L55.1456 96.2204L59.102 97.614L63.3818 97.5642L74.4796 91.9656L81.2477 95.3496L89.2102 93.5083L91.3004 96.5192L94.2117 95.9966L97.1229 97.2158L101.726 94.4289L104.09 94.827L108.096 93.0853L114.641 95.3496L118.746 95.2501L120.762 93.4336L121.931 90.5224L121.359 84.2271L122.304 83.1819L127.057 82.6595L133.676 79.0515L136.612 79.2257L140.096 79.7979L149.875 72.5073L150.198 71.2134L148.108 68.4017L151.417 58.6228H152.015L152.861 58.8468H153.931L154.279 59.1952L154.702 59.021H155.772L156.344 59.1454V59.2698L157.041 59.3196L157.315 59.4938L157.389 59.7176L156.966 59.5434H156.469L155.971 59.8918L156.319 60.066V60.2402L157.091 60.8872H157.663L158.086 61.6586L158.509 62.0068L159.156 62.3055H159.504L159.853 61.4844L160.126 61.0116H160.276V60.2651L160.923 60.9121H161.072L161.147 60.6881H161.495L161.42 60.29L161.993 59.8669L162.416 59.0459L163.063 58.6477L163.212 58.3491L163.859 58.0505L163.934 57.7021H164.132L164.356 57.2792L164.63 57.1548L164.705 56.7566L165.277 56.5327L165.426 56.2342L165.999 55.8858L166.422 55.189L167.069 54.9651L168.985 54.9153L169.184 54.6914L169.607 53.2233L170.378 53.7459H170.876V53.3477L171.373 52.8252L171.448 51.6059L171.796 51.2078L171.597 50.4365L171.324 50.2623V49.69L171.174 49.3914L171.398 48.8688L171.548 47.5749L172.195 46.5299V45.5843L172.692 45.3605L173.389 44.3651L173.887 42.9717L174.235 42.4989L174.384 41.8021L174.658 41.3791L174.857 40.7322V39.737L175.28 38.7914L175.355 37.3731L175.778 36.328V35.5567L176.624 33.9642L176.549 33.143L176.897 32.098L177.893 31.227L177.967 30.4556L178.739 30.0327L178.813 29.7341L179.311 29.2115L179.883 28.8633L180.655 27.5693L181.352 27.1463L182.073 26.4496L183.417 26.151L183.342 26.4994L182.272 26.6238L182.994 26.9722H183.267L183.541 26.6736L184.113 26.4994V26.375L185.532 26.3252L185.606 26.4994H186.801L187.373 26.7232V27.2458L187.597 27.2956L187.672 27.1214H188.02L188.717 26.5243L189.364 26.4745L189.637 26.5989L189.787 26.1759L190.857 26.3501L191.354 26.6487L192.001 26.773H192.997L193.345 26.4247L194.067 26.773L194.987 26.7232L195.261 26.6736V26.549L195.983 26.4994L197.6 26.0266V25.504L197.874 25.3796L198.222 25.8524L199.491 25.6782L200.561 26.151L200.835 26.9223L200.486 27.0965L200.337 27.4449H199.989L199.715 27.6688V27.8928H199.914L200.561 27.5444L200.71 27.1214L201.208 26.9971V26.6985L201.78 26.6487L202.552 26.3003L202.825 25.6036L203.895 25.4294L202.701 25.2552L202.203 25.6036L202.054 25.9022L201.283 26.2505L201.084 26.0764V25.8524L201.233 25.8026L201.382 24.3346H200.884L200.462 24.6828L200.038 24.7327L199.839 25.0312L198.77 25.2552L198.346 24.7825L198.496 23.8369L200.337 23.6627H203.149V23.812Z" fill="#F2F2F2"/>
</svg>
