<svg width="122" height="122" viewBox="0 0 122 122" fill="none" xmlns="http://www.w3.org/2000/svg">
<rect width="122" height="122"/>
<path d="M9.28438 40.3664L10.2298 38.9979L10.8271 35.2406L12.2702 34.942L13.6885 36.3106L17.1224 35.4148L24.5374 35.5641L31.3057 31.4833L39.7906 29.4927L40.9353 24.6904L41.8061 23.7449L43.0255 24.4664L44.4686 27.4274L46.6334 25.7853L50.0922 24.9392L52.0082 22.9983L53.3269 20.2612L70.7698 22.6997L71.3173 24.989L70.5707 28.2983L72.2131 29.1444L74.9252 30.9607L76.1446 34.2204L82.9127 38.3011L84.3808 37.9527L86.5207 35.3401L95.7523 34.5438L101.724 32.5533L103.839 32.9017L104.212 35.0664L106.701 39.8439L108.467 41.8344L111.528 42.8547L112.523 46.2636L115.061 50.8172L107.92 53.4795L106.999 55.5697L103.789 54.8978L103.093 59.2026L100.107 61.8898L99.833 63.5322L100.729 64.4279L99.1613 67.787L95.3043 71.6936L92.7165 75.8739L93.7865 81.7214L91.995 88.6139L88.9343 91.4008L87.5161 94.8346L84.5301 97.4969L84.1817 102.125L80.9967 103.319L79.1553 101.777L78.3591 100.781L75.0747 101.851L74.3032 95.9791L72.2131 93.7645L68.8041 93.4908L66.266 96.6011L63.8525 96.427L61.4139 97.4969L59.1994 101.229L55.8899 101.951L52.9289 99.1392L49.4701 91.7739L48.1514 91.6744L44.2199 93.9885L44.3941 88.9622L41.209 84.7819L37.9991 87.1956L34.8141 93.8641L32.4005 94.8346L32.0521 90.1566L34.192 85.404L32.4751 80.9251L30.6836 80.6763L28.4193 80.5767L24.3881 77.9641L21.1783 74.3064L17.1722 73.2116L16.0774 71.6439L15.9281 68.4091L11.8223 67.389L8.81152 63.5073L10.4289 60.1233L12.096 48.7768L9.28438 40.3664Z" fill="#F2F2F2"/>
</svg>
