<svg width="340" height="322" viewBox="0 0 340 322" fill="none" xmlns="http://www.w3.org/2000/svg">
<g clip-path="url(#clip0_331_164)">
<path d="M161.644 26.3175L161.718 26.5166H162.365L162.639 26.0687L162.913 26.0189L162.763 26.7654L163.485 27.0888H163.759L164.182 26.7654H164.829L164.903 27.0142L164.406 27.8354L164.331 28.5818L164.182 28.7809L164.256 30.3983L164.605 30.8959L164.53 31.095L163.535 30.7715H162.813L162.539 30.5226L162.191 30.5973L162.266 30.9208L161.345 30.9954L160.773 30.3734V28.756L160.35 28.1837L159.852 28.109L159.13 27.6612H157.637L156.941 28.109L156.667 28.8057L155.821 28.8804L154.975 28.2583L154.627 27.263L154.776 26.5166L155.05 26.3175H155.97L156.742 26.5663L157.389 27.0142L158.235 27.2133L160.151 27.0888L160.499 26.7156V26.5166L161.071 26.3175L161.42 25.9443H161.917L161.644 26.3175ZM132.332 0.116058L132.605 0.389807H132.879L133.377 0.713293L133.65 1.41L134.347 2.2311L134.422 2.85316L134.695 3.10201L135.467 3.35085V3.79872L136.039 4.17194V5.24188L136.81 5.68982V6.13769L136.586 6.26207V6.58556L137.084 6.95878L137.01 7.58085L137.432 8.07853V8.40202L137.233 8.65086H136.512L136.014 8.97427L135.442 9.09873V9.59634L135.79 9.91982H136.213L136.288 10.0443H136.636L136.86 9.84518L137.059 9.91982L137.482 11.2386L138.552 12.4827L139.125 12.9306L139.324 13.3785L139.548 13.4532L139.821 14.3241L140.817 15.0208L141.041 16.0161L141.464 16.5884L142.608 17.4593L142.956 18.0813L144.449 19.6489L146.141 20.7687L146.49 21.2166L146.689 21.9133L147.336 22.5353L148.331 22.8588L149.327 23.7297L149.973 23.9785L150.173 24.302L150.446 24.4264L151.367 25.994L151.641 26.2428L152.288 27.487L152.561 29.4278L153.557 31.1199L153.631 32.0654L153.905 33.0109L154.253 33.633L154.826 34.2053L155.597 34.5288L156.368 35.972L156.219 36.2208L156.294 36.6687L156.717 36.7185L157.563 37.4649L159.13 38.0373L159.827 38.5349H160.549L161.469 37.664L162.465 34.9767L162.614 34.7278L162.838 34.6532L162.763 34.0311L162.34 33.5832L162.539 33.21H162.813L163.087 33.5335L163.858 36.9175L166.122 40.2269L166.048 41.048L165.326 42.2922L164.903 42.6156L163.634 42.5658L163.709 42.8147L164.132 42.8893L164.48 43.1382L164.704 43.7602L165.55 45.1287L165.476 45.4522L166.197 45.2532L166.769 44.5067V43.8846L166.919 43.6856L167.192 43.5612L167.466 43.1879L167.964 43.0635L168.884 42.118L169.581 42.0682L170.079 42.3917L170.8 42.3419L171.074 42.541H171.497L171.646 42.6654L171.721 43.4866L174.259 44.432L174.831 44.8551L175.18 44.9297L175.752 45.925L176.822 46.9203L176.897 47.2936L177.544 47.6668L178.614 49.5329L179.037 49.7819L180.53 50.155L180.729 50.4039L181.152 50.4785L181.226 50.7274H181.5L182.072 51.1753V51.4988L181.923 51.6231L181.774 51.7475H181.276L181.127 51.9965L181.276 52.9917L181.699 53.9372L182.47 54.6837L182.819 55.6292L183.391 56.1269L183.54 56.749L183.963 56.9232V57.1719H184.685L184.113 57.6696H183.764L183.54 57.2963H183.192L182.918 57.4954L182.421 59.4363L182.072 59.8842V60.3321L182.495 60.4066L182.645 60.9043L182.869 61.1034L182.943 61.6757L183.366 62.0988L183.516 62.4719L184.287 62.9696H184.71L184.486 63.3429L184.561 63.8405L185.705 64.0396L185.78 64.2387L184.785 65.6819V66.1794L185.058 66.6025L185.282 66.6771V67.3739L185.009 68.0705V69.0161L185.158 69.3894L186.004 70.2104H186.925L187.497 70.8325H187.994L188.144 71.0814V72.4001L187.92 72.5246L188.194 73.7189L188.044 74.5401L188.119 76.033L188.467 76.5307L188.617 77.078V77.7001L188.343 77.8245L188.268 78.3222L188.119 78.4466V79.019L188.617 79.5912L188.816 80.462L188.741 80.9597L188.318 81.5321L188.243 81.9551L188.044 82.2039V82.6517L188.691 83.7715L189.114 83.8959L189.811 84.4434L189.886 85.4386L189.662 85.8866L189.587 86.7574L189.438 87.1804L189.288 87.2551L189.363 88.2007L189.711 89.0715V89.8927L189.363 90.2161L188.791 90.1414L188.218 90.5147L187.721 91.5099L187.372 92.8786L186.8 93.0776L186.153 93.65L185.73 94.1973L185.805 94.6203L185.581 94.8194H185.307L185.033 94.4959L184.337 94.1227L184.834 93.8738L184.76 93.6749L184.113 93.7494L184.038 94.0729L184.386 94.4462L184.735 94.5706V94.9936L185.158 95.9391L185.357 95.8147L185.282 94.9438L185.855 94.8941L186.004 96.387L186.153 96.5861V97.0838L186.302 97.2082L186.377 98.3279L186.8 99.6964L186.875 100.443L187.223 100.941V101.314L188.069 103.105L189.338 105.096V105.22H189.189L188.194 104.772L187.771 105.021V105.146L188.343 105.519L189.114 105.718H189.761L190.11 105.519L190.184 105.768H190.533L190.607 105.569H190.831L190.98 106.066L191.752 107.311L192.672 107.933L193.319 108.878L193.394 111.292L193.245 111.615L192.822 111.789L192.249 112.411V112.66L191.528 114.278L191.379 114.352L190.732 116.019L190.582 119.379L192.075 124.455L192.573 125.251L192.921 126.172L193.693 127.341L194.688 127.963L195.459 128.71L196.032 130.252L195.957 131.87L196.231 132.666L197.574 135.079L198.296 135.95L198.371 136.249L199.366 136.747V137.12L199.167 137.493V138.289L199.59 139.036L199.789 139.16L199.64 139.534L199.217 139.658L199.067 139.484H198.719L198.072 139.981L197.873 140.404V141.325L198.072 141.748L197.151 142.793L196.504 144.46L195.509 144.336L195.011 144.585L194.439 144.659L193.17 144.112L191.901 144.037L191.702 143.913H191.478V144.037L192.125 144.535L193.046 144.41L193.195 144.535L193.966 144.61L194.389 144.858L195.882 144.734L196.529 145.281L196.803 147.023L197.226 148.267L198.993 150.98L200.063 151.975L200.336 152.771L200.759 153.393L200.685 153.766L200.411 153.144H200.212V153.393L200.56 153.816L200.635 154.189L200.287 154.438L199.864 155.732L200.088 157.474L200.511 158.469L200.66 158.544L201.307 159.912L202.377 161.405L202.725 161.704L203.447 161.654L203.72 161.828L203.646 162.749L204.367 162.923L204.517 163.172V163.844L204.741 164.142L205.238 164.391L205.313 165.063H205.811L205.96 165.188V165.859L205.537 166.158L205.96 168.323L207.229 170.612L208.15 171.358L208.722 171.607L208.647 171.856L208.996 172.155L208.647 173.274L208.846 174.021L209.12 174.444L209.195 175.315L209.543 175.564H209.966L210.041 176.559H210.613V176.733L210.887 176.982H211.31L212.081 177.355V177.48H211.932L211.235 177.305L211.011 177.131H210.588L210.389 177.554L210.165 177.679H208.821L208.548 178.599L208.697 178.972H209.269L209.419 179.644L209.767 180.018L210.041 180.067L210.19 179.769L210.538 179.644L211.111 178.848L211.608 178.724L210.538 179.843L210.762 180.764L211.036 180.839L211.111 181.137L211.384 181.262L211.459 181.56L211.807 181.734V181.909L212.504 182.033L212.728 182.406L213.375 182.456L213.45 182.954L213.599 183.078H214.097V183.203L214.37 183.277L214.594 183.526L215.092 183.601L215.241 184.098L215.092 184.223L215.017 185.094L215.515 185.641H215.863L216.933 186.636L217.779 186.885V187.756L218.053 187.93L218.202 188.303H218.352L218.202 188.428L218.277 189.224L218.625 190.344L218.426 190.468L218.202 191.016L218.128 192.135L217.854 192.26V192.509L217.63 192.757L217.132 193.056L216.635 194.897L216.784 195.694L217.058 195.818L217.207 196.241L216.784 196.49L217.008 197.162L216.933 197.709H218.128L218.849 198.132L218.625 198.182L217.854 197.809L217.083 197.883L217.506 198.804L217.431 199.053L217.58 199.003L217.73 199.302V199.675L218.302 199.501L218.65 198.63L218.874 198.58L218.526 199.501L218.028 199.924L218.177 200.347L218.526 200.521V200.944L218.874 201.317V201.616L218.65 201.989L218.227 202.238L218.078 202.611L217.73 202.86L217.58 203.407L217.73 203.532L217.804 204.328L217.655 204.378L217.73 204.552L217.58 204.801L217.929 205.597L217.854 205.771L218.128 206.02L217.978 206.144V206.518L218.252 206.642L218.451 207.065L218.252 207.687L218.401 207.986L218.252 208.16L218.327 208.782L218.6 209.155L218.874 210.2L219.073 210.325L219.297 210.748L219.223 211.718L219.297 212.017L219.446 212.066L219.521 212.813L219.745 213.31L220.093 213.559V213.858L220.019 213.734L220.591 214.032L220.442 214.281L220.939 214.828V215.077L221.089 215.202L221.586 215.152L221.81 215.45V215.824L222.009 215.948L221.935 216.072L222.283 216.371V216.67L222.432 216.719L222.283 217.516L222.482 217.889L222.557 218.735L222.756 218.984L223.03 219.033L223.104 219.208L222.83 220.178L223.104 220.925L223.303 221.099V221.348L223.801 221.721V222.094L224.025 222.393L223.95 223.189L224.1 223.363V224.209L223.95 224.458L224.299 224.632V225.18L224.149 225.229L224.075 225.851V226.822L224.224 227.245L224.448 227.369V227.917L224.224 228.464L224.572 228.837V229.459L224.771 229.633L224.921 230.256L225.12 230.43L225.194 230.927L225.468 231.226L225.393 231.4L225.816 232.072V232.445L226.463 232.819L226.538 233.192L226.812 233.441V233.739L227.085 233.864L227.16 234.162L228.081 234.884L228.006 235.058L228.23 235.182L228.504 235.804L229.35 236.302L229.499 236.8L229.698 236.924V237.297L230.046 237.596L230.121 238.094L231.042 239.014L230.967 239.313L231.241 239.363L231.39 239.86L231.888 240.283L232.037 240.706L232.958 241.677L233.032 241.926L234.799 243.468L235.222 243.518L235.72 243.817L235.869 244.065L236.516 244.314L237.287 244.936L238.059 245.185L238.258 245.434H238.532L239.676 246.23L240.597 246.479L241.169 247.151L241.094 247.648L240.821 248.022L239.975 248.072L239.9 247.897L240.049 247.773L239.477 247.599L239.328 246.877L239.054 246.703L238.855 246.778L238.78 247.026L239.004 247.076L239.154 247.499L239.427 247.798L239.278 247.873V248.171L238.432 248.42L238.507 248.918L238.855 249.092L239.004 249.341L238.656 249.764L238.308 249.938V250.983L238.457 251.157V251.53L238.656 251.655V252.028L239.228 252.65L239.427 253.496L239.776 253.994L239.701 254.491L240.049 255.113V255.536L240.472 255.661V256.382L240.746 256.507L240.945 256.88H241.169L241.667 257.676L242.015 257.85L242.364 257.726L242.637 258.224L243.284 258.099L243.085 258.522L242.314 258.448L242.115 258.572V260.413L243.035 260.587L243.11 260.886L242.612 261.608L242.339 261.558V261.309H242.563L242.712 261.011L242.289 260.513H242.09L241.741 261.011L242.015 261.259V261.434L240.323 261.384L239.676 261.508L239.527 261.807L239.179 262.056V262.304L239.029 262.255L238.755 262.429L238.606 262.976L238.258 263.225L238.183 263.723L238.034 263.847L241.791 263.971L242.364 263.051V262.877L242.165 262.802V262.13L242.737 262.304V263.225L242.463 263.399V263.573L242.04 263.822L242.314 264.121L243.011 263.325L243.085 263.026L244.006 263.076L244.155 262.951L244.304 262.329L245.374 262.504L245.797 262.454L246.021 262.28L246.22 262.528L246.444 262.28L246.519 261.782L245.748 261.234L245.598 260.264L245.748 260.14V258.672L245.897 258.622L246.046 258.199L246.32 258.074L246.046 259.169V260.015L247.614 261.11L248.111 262.031L250.301 263.325L251.993 263.872L252.267 264.121L253.76 264.171L254.407 263.996L255.327 264.494L256.024 264.544L256.248 264.793L257.02 264.967L257.169 265.514L257.741 266.062L257.89 266.684L258.114 266.634L258.313 266.883L258.537 266.833L258.612 267.132L259.383 267.505L260.155 268.227L261.996 269.272L263.19 269.769L263.39 270.018H263.887L264.111 270.192L265.107 270.441L267.52 271.536L268.441 271.486L268.938 271.735H269.287L269.486 271.486L270.058 271.536L270.904 270.988H271.477L272.248 271.412L273.169 271.461L273.392 271.71L273.965 271.959L274.313 272.382L274.388 272.755L276.453 274.348L276.602 274.771H277.175L277.249 274.895L277.822 274.771L278.593 274.845L279.29 275.219H280.136L281.405 274.796L282.898 274.92L285.087 275.89L285.585 276.264L286.083 276.935L286.655 276.985L287.65 277.483H287.924L288.073 277.657H288.845L289.118 277.483L289.765 277.533L290.263 277.358L290.462 277.657L291.383 277.607L291.607 277.906L291.93 278.03L290.711 280.245L287.352 281.713L285.485 284.027L284.416 287.137L284.341 293.408L278.916 291.517L272.323 293.532L269.411 291.168L266.749 290.621L259.981 292.263L254.208 289.526L249.132 291.044L237.984 289.327L233.729 290.671L232.037 293.358L222.059 298.882L221.213 297.737H217.555L216.56 293.059L214.992 292.039L214.221 293.059L211.633 292.263L210.563 295.473L208.622 294.727L208.1 292.661L206.731 291.069L205.139 290.895L204.193 291.865L204.218 294.353L206.831 301.295L206.433 302.764L205.014 303.361L203.497 301.967L201.929 296.916L200.585 295.224L196.679 294.801L197.35 297.911L195.783 298.21L190.01 292.86L188.343 288.73L187.148 287.884L183.366 288.804L182.694 288.506L181.799 285.52L179.236 283.878L172.692 283.679L171.273 285.147L168.188 283.927L165.874 284.35L165.849 287.585L164.281 290.397L163.286 294.652L158.533 290.024L157.09 289.65L155.323 292.089L155.174 294.901L145.022 300.549L141.762 300.599L135.268 296.642L130.341 295.075L123.473 297.588L118.472 301.594L116.407 300.275L117.029 296.468L116.033 293.731L115.386 284.425L111.729 283.704L109.464 279.125L99.7848 271.262L98.3664 267.978L97.1969 262.553L99.6852 259.816L100.581 257.626L100.407 255.984L99.0881 254.218L92.2204 250.61L91.0509 248.719L94.4598 240.632L97.2965 228.34L90.0307 222.268L85.1785 214.231L83.6109 214.604L81.247 217.366L72.4385 223.512L68.1586 222.89L64.3267 219.457L63.4807 216.645L64.3764 214.306L63.9783 211.793L61.291 208.533L60.5196 206.393L63.5055 204.129L64.899 199.078L67.1633 197.485L65.1727 194.275L64.1774 189.772L60.7436 187.806L63.829 183.501L63.9286 179.122L64.8243 177.778L74.7775 171.732L73.1601 167.527L73.5831 165.909L73.0108 164.441L74.3545 162.774L71.7916 161.107L66.4417 162.649L65.4464 160.559L61.291 157.524L59.9722 152.945L54.473 151.029L52.781 148.566L49.7951 139.11L48.75 137.891L52.0594 132.318L56.3392 130.775L57.3346 126.122L55.767 123.708L56.0407 121.344L63.4807 115.397L65.745 110.197L69.5023 107.957L72.8366 103.603L77.1164 99.995L81.6202 98.7011L84.8799 99.9452L87.0696 103.802L91.5734 99.1987L92.5936 94.5955L93.987 91.6841L98.665 90.6391L101.327 86.9067L108.618 85.6626L112.898 78.1232L112.375 75.7593L108.892 71.0814L108.494 66.7766L103.293 57.794L100.681 48.7368L97.7444 45.3528L97.9932 43.2875L94.634 41.4213L93.987 37.2907L105.757 34.7278L108.12 31.7917L111.405 25.3471L113.57 23.3316L114.167 19.5743L118.522 15.618L121.284 14.4236L124.867 10.6912L125.912 2.55458L132.332 0.116058Z" fill="#F2F2F2"/>
<g filter="url(#filter0_d_331_164)">
<circle cx="186.5" cy="184.5" r="7.5" fill="#D50000"/>
<circle cx="186.5" cy="184.5" r="6.5" stroke="#1C1C1C" stroke-width="2"/>
</g>
<g filter="url(#filter1_d_331_164)">
<circle cx="215.5" cy="198.5" r="7.5" fill="#D50000"/>
<circle cx="215.5" cy="198.5" r="6.5" stroke="#1C1C1C" stroke-width="2"/>
</g>
<g filter="url(#filter2_d_331_164)">
<circle cx="238.5" cy="270.5" r="7.5" fill="#D50000"/>
<circle cx="238.5" cy="270.5" r="6.5" stroke="#1C1C1C" stroke-width="2"/>
</g>
</g>
<defs>
<filter id="filter0_d_331_164" x="175" y="177" width="23" height="23" filterUnits="userSpaceOnUse" color-interpolation-filters="sRGB">
<feFlood flood-opacity="0" result="BackgroundImageFix"/>
<feColorMatrix in="SourceAlpha" type="matrix" values="0 0 0 0 0 0 0 0 0 0 0 0 0 0 0 0 0 0 127 0" result="hardAlpha"/>
<feOffset dy="4"/>
<feGaussianBlur stdDeviation="2"/>
<feComposite in2="hardAlpha" operator="out"/>
<feColorMatrix type="matrix" values="0 0 0 0 0 0 0 0 0 0 0 0 0 0 0 0 0 0 0.25 0"/>
<feBlend mode="normal" in2="BackgroundImageFix" result="effect1_dropShadow_331_164"/>
<feBlend mode="normal" in="SourceGraphic" in2="effect1_dropShadow_331_164" result="shape"/>
</filter>
<filter id="filter1_d_331_164" x="204" y="191" width="23" height="23" filterUnits="userSpaceOnUse" color-interpolation-filters="sRGB">
<feFlood flood-opacity="0" result="BackgroundImageFix"/>
<feColorMatrix in="SourceAlpha" type="matrix" values="0 0 0 0 0 0 0 0 0 0 0 0 0 0 0 0 0 0 127 0" result="hardAlpha"/>
<feOffset dy="4"/>
<feGaussianBlur stdDeviation="2"/>
<feComposite in2="hardAlpha" operator="out"/>
<feColorMatrix type="matrix" values="0 0 0 0 0 0 0 0 0 0 0 0 0 0 0 0 0 0 0.25 0"/>
<feBlend mode="normal" in2="BackgroundImageFix" result="effect1_dropShadow_331_164"/>
<feBlend mode="normal" in="SourceGraphic" in2="effect1_dropShadow_331_164" result="shape"/>
</filter>
<filter id="filter2_d_331_164" x="227" y="263" width="23" height="23" filterUnits="userSpaceOnUse" color-interpolation-filters="sRGB">
<feFlood flood-opacity="0" result="BackgroundImageFix"/>
<feColorMatrix in="SourceAlpha" type="matrix" values="0 0 0 0 0 0 0 0 0 0 0 0 0 0 0 0 0 0 127 0" result="hardAlpha"/>
<feOffset dy="4"/>
<feGaussianBlur stdDeviation="2"/>
<feComposite in2="hardAlpha" operator="out"/>
<feColorMatrix type="matrix" values="0 0 0 0 0 0 0 0 0 0 0 0 0 0 0 0 0 0 0.25 0"/>
<feBlend mode="normal" in2="BackgroundImageFix" result="effect1_dropShadow_331_164"/>
<feBlend mode="normal" in="SourceGraphic" in2="effect1_dropShadow_331_164" result="shape"/>
</filter>
<clipPath id="clip0_331_164">
<rect width="961" height="1250" fill="white" transform="translate(-344)"/>
</clipPath>
</defs>
</svg>
