<svg width="518" height="518" viewBox="0 0 518 518" fill="none" xmlns="http://www.w3.org/2000/svg">
<g clip-path="url(#clip0_331_164)">
<path d="M203.142 241.314L203.565 241.488V241.911L203.142 241.861L202.719 242.234L202.072 242.409L201.798 243.429L201.997 244.101L202.42 244.524V245.071L203.067 245.32L203.142 245.793L203.416 246.041L203.913 247.908L203.839 249.425L204.063 250.023L204.411 250.371L204.336 251.342L204.56 252.486L204.759 252.909V253.083L204.485 253.332V253.929L204.336 254.228L204.983 254.477L205.257 254.85L205.605 255.024L205.68 255.497L206.103 255.248L206.526 255.422V255.895L206.327 255.945L206.252 256.243L206.824 256.293L207.248 257.015L207.024 257.438L207.098 257.911L207.248 257.96L207.098 258.508L207.173 258.931L207.87 260.075L208.367 260.026L208.865 260.324L208.94 260.872L209.163 261.046L209.238 261.469V262.738L209.661 263.335L210.159 263.509L210.433 263.882H210.632L211.129 263.758L213.045 262.564L213.269 262.862L213.344 263.335L213.543 263.385L213.468 262.489L213.692 262.439L214.041 262.613L214.115 262.987L213.618 264.305H212.772L212.697 264.43L212.498 264.38L212.149 264.554L211.154 264.679L210.955 264.853L209.761 264.728L209.114 264.355L208.964 263.982L208.467 263.434V263.186L208.044 262.763L207.695 261.618L207.422 261.195L207.073 261.021L206.078 259.279L205.73 258.98L205.157 257.96L204.66 257.537L202.669 253.979L202.52 253.208L202.171 252.785L202.022 252.063L201.375 250.968L201.226 249.998L200.878 249.276L200.803 248.43L201.002 248.38V247.709L200.803 247.46L200.728 246.44L200.454 245.768L200.38 243.23L200.728 242.807V242.558L201.3 242.011L202.221 241.712L202.793 241.239H203.142V241.314ZM275.775 12.8166L276.82 14.0358L279.806 23.4912L281.498 25.9545L286.997 27.8706L288.316 32.4489L292.471 35.4846L293.467 37.5747L298.816 36.032L301.379 37.6992L300.036 39.3663L300.608 40.8345L300.185 42.4517L301.802 46.6569L291.849 52.7034L290.953 54.0471L290.854 58.4264L287.768 62.7312L291.202 64.6968L292.198 69.2006L294.188 72.4104L291.924 74.0029L290.53 79.0542L287.544 81.3184L288.316 83.4583L291.003 86.7179L291.401 89.2311L290.506 91.57L291.352 94.3818L295.184 97.8156L299.463 98.4377L308.272 92.2917L310.636 89.5296L312.203 89.1565L317.056 97.1935L324.321 103.265L321.485 115.557L318.076 123.644L319.245 125.535L326.113 129.143L327.432 130.909L327.606 132.552L326.71 134.742L324.222 137.479L325.391 142.903L326.81 146.187L336.489 154.05L338.753 158.629L342.411 159.35L343.058 168.657L344.054 171.394L343.431 175.201L341.764 174.33L338.48 177.191L332.035 176.893L327.954 179.63L325.541 183.511L327.108 188.538V191.15L318.972 198.242L319.743 200.009L323.351 202.671L324.197 204.736L324.272 210.857L323.525 213.271L324.943 216.779L324.496 220.412L323.749 221.557L321.236 222.104L318.3 219.989L314.443 221.93L312.179 224.841L306.182 224.418L305.435 227.255L297.995 237.158L297.075 239.647L293.417 241.637L292.919 246.589L293.74 249.774L297.025 253.332L303.569 257.139L304.639 258.881L304.788 264.181L306.033 265.748L308.794 266.172L314.717 264.554L318.001 265.226L318.748 266.42L319.146 269.68L320.29 270.526L318.947 273.96L320.539 276.373L324.993 276.796L326.611 280.703L328.278 280.952L334.225 278.19L334.125 280.355L334.897 281.375L338.928 281.848L340.445 284.261L341.018 288.292L349.826 292.92L350.772 298.569L354.778 304.142L359.058 307.402L358.461 310.488L357.192 312.403L351.021 315.389L347.836 319.52L347.736 327.283L342.859 333.678L344.203 338.033L343.929 339.899L345.099 340.421L346.442 342.984L348.184 342.81L350.672 345.199L352.912 344.602L354.977 342.686L357.341 342.561L357.689 344.776L359.257 347.04L358.784 350.549L360.202 352.166L361.098 356.645L364.781 357.466L366.199 361.92L371.201 367.444L376.376 374.934L374.734 377.621L373.589 381.851L371.848 382.921L367.891 383.17L366.075 388.694L365.478 394.043L362.069 397.552L361.571 399.144L361.745 400.737L364.433 402.031L365.602 403.748L362.666 408.898L361.098 409.695L360.849 411.212L363.089 414.646L363.487 417.06L363.81 432.313L364.457 437.09L366.971 439.504L366.199 444.381L362.541 448.91L359.356 449.208L354.529 453.214H350.274L347.288 451.273L345.621 451.522L345.372 452.343L346.542 454.931L346.044 456.524L343.108 457.121L331.811 470.607L328.527 471.951L324.272 471.603L320.44 476.48L316.583 477.301L315.563 480.486L316.508 488.299L314.941 490.563L309.218 492.877L308.297 495.764L305.933 497.456L302.176 498.053L297.846 496.46L296.005 499.521L292.073 497.58L289.56 498.177L288.067 493.25L283.812 491.384L270.425 495.44L264.478 491.558L259.601 491.733L257.735 487.926L253.53 483.77L253.978 481.531L253.032 477.077L249.076 467.099L249.275 466.377L243.601 462.023L240.939 457.245L241.138 456.3L247.309 452.12L246.886 448.934L241.437 442.739L235.564 437.663L230.986 435.174L225.387 435.299L224.442 433.283L223.944 433.98L223.795 433.657L224.019 433.532V433.358L223.596 433.657V433.433L223.247 433.084L223.173 432.736H222.949L222.799 432.512L222.575 430.969L223.72 430.919L223.869 431.342H224.019L223.869 430.87L224.591 430.82L224.666 430.646L224.019 430.696L223.67 430.397L223.247 430.347L223.098 430.472L222.874 430.297L223.297 430.074L223.496 429.725L223.844 429.775L224.267 430.248H224.491L224.566 429.999L224.342 430.049V429.825L224.566 429.352L225.064 429.526L225.91 429.402L225.984 429.277L226.258 429.327V429.153L225.91 429.103L225.636 429.277L224.218 429.028L223.72 429.277L223.869 428.979L223.72 428.63L224.143 428.456L224.342 428.506L224.417 428.158L223.645 428.282L223.421 428.705L222.998 428.755L222.799 428.531L222.376 428.406L222.302 428.108L222.65 428.158V428.033H222.924L223.073 427.685L222.575 427.859L222.302 427.809L222.376 427.461L222.103 427.685L221.68 427.461L221.605 426.864L221.406 426.565V426.092H222.55L222.7 426.043V425.819L221.854 425.868L222.003 425.445L221.356 425.744L220.784 424.923L220.635 424.45V424.151L220.858 423.977L220.137 423.803V423.156L219.938 422.982L219.789 422.459L219.863 421.464L219.639 421.041L219.291 420.817L219.216 419.399L218.793 419.1L219.216 419.051L219.44 419.349H219.639V419.175L218.943 418.453L218.718 418.404L216.952 416.04L216.529 415.865L215.882 415.144L215.459 415.019L214.389 413.825L214.041 413.651L213.692 413.054L213.419 412.058L213.07 411.586L212.348 411.113L212.199 410.516L211.702 409.918L211.627 409.496L211.478 409.446V409.023L211.204 408.849L210.856 407.356L210.656 407.132V406.883L210.308 406.709L210.234 406.36L210.731 406.236L211.726 405.415L212 404.818H212.149L212.921 403.922V403.673L213.692 403.325L214.19 402.852H214.414L215.061 402.379H215.334L215.757 401.956L216.604 401.782L216.803 401.533L217.524 401.309L218.022 400.961L218.594 400.836L219.017 400.413L219.938 400.289L221.008 399.642L221.505 399.518L222.078 399.045H222.575L223.148 398.796L223.571 398.273L223.919 398.224L224.417 397.577L225.064 397.452L224.914 397.203L225.487 396.979L226.183 396.158L228.025 395.81L228.298 395.462L229.642 395.039L230.065 394.74H230.837L231.11 394.914L231.309 395.437L231.459 395.487V396.308L231.807 396.905L231.732 397.328L232.081 397.626L232.23 398.746L232.504 399.169L232.429 399.418L233.076 400.239V400.463L233.3 400.513L233.648 401.284L233.922 401.334V402.528L232.927 402.951L232.653 402.777L232.454 402.902L231.608 402.479L230.19 402.703L229.841 402.479L229.766 402.18H229.543L229.393 401.881H229.244L229.443 402.479L230.165 402.902H230.812L231.085 402.727L231.782 402.777L232.429 403.126L232.703 403.598H232.852V403.847L233.126 404.021H233.474V403.847L233.822 403.723H234.395V404.146L234.743 404.494L234.594 405.614L235.017 407.281L235.365 407.58L235.589 408.401L236.087 408.351L236.161 408.873L235.937 408.998V409.819L236.087 410.167L236.51 410.342L236.734 410.988L237.231 411.337L237.157 411.635L237.43 411.685L237.58 411.262L237.779 411.66L238.127 411.859L238.053 412.083L238.202 412.332L238.923 412.805L238.849 413.029L239.197 413.377V413.676L239.844 414.621L239.769 414.97L240.043 415.219V415.517L240.392 415.766V416.114L240.74 416.587L240.889 416.935L240.814 417.358L241.088 417.781V418.08L241.437 418.428L241.785 419.249L242.706 419.971L243.054 420.966L243.253 421.016L243.328 421.489L243.9 421.912L244.049 422.385L244.472 422.609V422.783L244.895 423.007L245.045 423.256L245.542 423.554L246.189 423.43L246.413 423.604L246.687 423.48L247.035 423.604L247.259 423.952L247.533 424.077L247.608 424.375L248.105 424.425L249.3 425.495L249.723 426.217L249.996 426.266L250.718 426.864L250.992 426.814L251.415 427.112L252.062 427.063L252.634 426.839L252.908 426.888L253.181 426.665V426.49L253.604 426.366L254.177 426.54L254.401 426.49V426.316L254.475 426.441L255.172 426.391L255.52 426.515L255.744 426.167L256.242 426.117L257.66 425.221L258.158 425.097L258.506 424.624L259.651 423.803L259.8 423.927L260.024 423.753L260.298 423.878L260.721 423.828L260.995 424.002L261.144 423.828H261.915L262.064 423.654L262.562 423.952L262.711 423.778H263.856L264.13 423.903V424.326H264.279L264.702 424.102L264.851 423.853L265.2 423.728L266.12 422.833L267.041 422.41L267.315 422.061L267.514 422.285H268.011L268.434 423.181L268.783 423.405H269.778L269.704 423.231H269.057L268.634 423.007L268.061 421.763L267.215 421.116L266.568 420.394L266.369 419.673L266.145 419.548V419.249L265.872 418.951L263.881 418.901L263.607 419.548L263.334 419.598L263.06 420.021L261.865 420.145L260.945 419.2L260.099 418.777L259.825 418.428L258.83 417.956L258.481 418.08V418.304L257.486 418.354L256.715 419.001H256.491L256.416 419.175L253.878 418.876L251.962 417.931L251.24 418.055V417.881L251.514 417.657L250.942 417.533L250.519 417.06L249.947 416.886L249.25 416.164L248.404 415.816L248.205 415.393L247.632 415.044L247.558 414.746L246.911 414.273L246.637 413.626L246.139 413.327L246.065 413.079L245.567 412.78L245.492 412.556L244.995 412.133L244.348 411.909L243.999 411.486L243.353 411.188L243.004 410.765L242.158 410.466L241.934 410.118L241.238 409.869L241.014 409.52H240.74L239.745 408.923L239.322 408.326L238.252 407.43H238.053L237.903 406.783L237.256 406.062L236.609 404.046L236.385 403.872L236.037 402.752L235.813 402.703L235.738 401.807L235.39 401.334V400.438L235.191 400.09L234.843 398.423V396.83L234.569 395.238L234.494 394.989L234.221 394.939L233.872 393.919L234.022 393.745H234.668V393.62H234.171L234.668 393.322V393.148L234.245 393.396L234.022 393.347V393.173H233.748L233.897 393.471L233.822 393.72L233.524 392.799L233.175 392.501V392.277L233.673 392.152L234.022 391.854L234.096 391.555L233.598 391.804L233.947 391.505V391.281L233.375 391.456L233.524 391.207H233.175L232.827 391.381L232.976 391.904L232.703 391.555L232.13 391.68L231.981 391.431L231.633 391.257L230.861 390.137L230.712 389.714H230.563L230.289 389.291L230.787 388.868L230.861 388.345L230.588 387.45L229.667 386.031L229.169 384.837L228.821 384.538L228.473 382.871L228.199 382.448L228.05 381.727H227.9L227.627 379.711L227.477 379.587V378.641L227.676 378.293L227.477 376.8L227.278 376.576L226.134 376.277L225.288 374.909L224.79 374.685L224.516 374.336L223.944 373.988L223.745 373.515L223.322 373.266L222.899 372.719L222.55 371.127L222.974 367.792L223.123 367.742V367.394L223.471 366.498L224.242 365.254V364.906L224.516 364.657L224.715 364.01L225.487 362.94L225.561 362.517L225.91 362.219L226.557 361.273L226.83 360.502L227.029 360.377L227.527 359.606L227.676 359.009H227.826L228.025 358.71L228.249 357.939L228.672 357.391L228.746 356.794L228.896 356.744L229.169 355.849L229.443 355.6L229.866 354.779L230.214 353.758L230.413 353.46L230.637 353.41V353.236L230.837 353.112V352.937L231.259 352.39L231.757 352.141L232.479 350.648L232.678 350.524L233.25 349.628L233.598 349.379L233.175 348.956L232.752 348.782V348.608H233.175L233.673 349.155L233.897 349.105L234.096 348.757L234.519 348.583L234.942 348.16L235.714 347.14L236.211 347.015L236.56 346.667L236.634 346.244L236.833 346.194L236.983 344.577L236.833 344.278L236.485 344.029L237.48 343.557L237.555 342.959L237.903 342.536L238.102 341.889L238.376 341.715L238.525 341.292L238.874 341.043L239.147 340.446L239.919 339.899L240.765 339.774L241.113 339.177L241.685 339.053V338.505L241.884 337.958L242.158 337.41L242.581 337.162V337.037L241.735 336.863L241.586 335.918L242.507 335.445L242.78 335.022L243.004 335.072L243.153 334.599L243.502 334.3V333.753L242.855 332.31L242.93 332.185L242.432 332.135L242.283 331.961L242.084 332.135L241.81 332.086V331.737H241.461L241.188 331.911L238.426 331.787L236.659 331.314L236.161 331.016H235.888L235.813 331.265L235.614 331.314L235.465 331.14L234.693 331.09L233.424 330.543L233.001 330.12L232.429 329.871V329.747L231.583 329.274L230.936 328.503L230.588 327.731L229.816 326.711L229.319 325.218L228.821 324.372L228.249 322.207V318.674L228.448 317.654L228.298 314.295L228.448 313.225L228.373 310.96L228.597 307.974L228.796 307.502L229.368 303.371L229.592 302.948L229.518 301.505L229.667 301.157L229.592 297.549L229.368 296.603L229.443 295.757L229.368 295.035L229.219 294.861L229.294 294.314L229.144 293.941L229.219 293.045L229.07 292.92V291.85L229.717 291.004L230.861 290.407L231.931 290.109H232.354L232.429 290.283H233.001V290.158L234.42 289.437H234.693L234.892 289.611L235.241 290.756L235.017 291.303L234.32 291.726L234.668 291.9L234.743 292.149L234.668 293.717L234.868 296.603L235.29 297.449L235.714 297.573V298.245L236.286 298.793L236.435 299.216L238.923 300.41L239.073 300.883L239.496 301.231L239.57 302.003L239.147 302.251L238.376 302.301V303.023L238.65 303.794L238.575 304.217L239.222 304.565H239.72L239.869 304.391L240.566 304.267L241.063 304.69L241.486 305.835L242.059 306.481L242.556 306.73H243.203L243.552 306.556L243.477 306.382L242.631 306.506L242.059 306.158L241.785 305.735L241.561 304.839L241.287 304.366H241.063L240.79 304.068H240.292L240.217 303.894L239.794 304.018L239.147 303.769L239.57 302.699H239.794L240.143 302.276L240.217 301.679L239.869 300.659L239.446 300.36V300.111L238.724 299.564V299.39L238.451 299.34L238.376 299.091L238.028 298.917L237.605 298.37L237.182 297.399L236.684 296.976L236.336 294.986L236.485 294.388L236.211 294.214L236.41 293.07L236.211 293.02L235.987 292.423L236.136 290.507L235.913 290.208L236.136 289.86L237.406 289.686L237.555 289.511L238.699 289.039L238.923 288.79L239.421 288.74L240.342 288.093L240.989 287.919L241.835 287.446L242.83 287.272L243.328 286.973L244.398 286.799L244.821 286.252H245.244L245.393 286.078L245.965 286.202L246.612 286.078L247.533 286.973L247.956 287.148H248.951L249.15 287.023V286.551H250.071L250.643 286.202L250.718 285.953L251.066 285.904L251.415 285.605L251.639 285.057L251.489 284.809L251.639 284.137L252.286 283.788L252.783 283.963L253.007 283.614L253.355 283.565L253.704 282.793L253.978 282.619L254.177 282.022L254.45 281.972L254.376 281.798L253.38 281.673L251.738 280.703L251.39 279.31L251.539 278.961L251.39 278.911L250.693 276.274L249.922 275.552L249.772 275.079L249.349 274.482L249.2 273.462L248.553 272.741L248.354 272.069L248.279 270.999L248.055 270.75L247.906 270.028L247.757 269.779L247.184 269.829L246.911 269.655L246.762 269.357L246.413 269.108L246.189 268.56L245.492 267.889L245.766 267.839L245.99 267.465L246.562 267.341L246.637 267.167L246.363 267.042L245.716 267.092L245.567 267.465L245.418 267.416V267.167L246.189 266.619L246.538 266.57L246.737 266.196L247.085 266.246L247.234 266.072H247.657L247.732 265.475L247.508 265.301V265.002L247.782 264.703L247.508 264.529L247.583 264.156L248.23 264.206L248.653 263.957L248.926 262.812L249.275 262.215V261.543L249.847 261.071L249.996 260.349L250.419 260.399L251.265 259.802L251.415 258.906L250.917 258.234L251.141 258.184L251.415 258.558L251.838 258.433L252.609 258.682L253.455 257.786L253.878 257.836L254.226 257.711L254.575 257.886H254.998L256.068 257.338L256.715 256.567L256.789 256.094L257.486 255.97V255.795L258.257 255.621L258.83 255.248L259.054 253.68L259.477 252.785L259.402 252.013L259.551 251.889V251.466L259.701 251.292L260.124 251.242L260.397 250.769L260.671 250.645L261.442 249.202L261.791 248.181L261.716 247.584L261.99 247.161V246.614L262.139 246.564L262.214 246.266H261.99L261.641 246.937L261.144 246.987L260.497 246.564L260.422 246.091L260.223 245.842L259.228 245.668V245.195L258.879 244.822L258.805 244.349L258.606 244.3V243.454L258.257 242.608V242.433L258.83 242.011V241.413L258.68 241.164L257.536 241.413L256.615 239.896V237.606L256.466 237.009L256.117 236.586L255.62 236.337L255.396 235.964L254.898 235.914L254.749 235.616L253.405 235.143L253.132 235.193L252.708 234.894L252.783 234.172L253.206 233.749L252.708 233.078L253.355 232.53H254.351L254.625 231.933L255.545 231.684L255.694 231.211L256.615 230.838L256.764 230.465H258.257L258.332 230.092L258.481 230.042V229.619L258.904 229.445V229.022L259.676 228.474V228.101L260.173 227.38L260.248 227.006L260.447 226.882L260.87 226.932L261.567 226.036L262.064 225.911L262.263 225.364L262.612 225.24V224.817L262.338 224.518L262.114 223.796L261.691 223.672L261.617 223.125L261.417 222.95L261.492 222.403L261.293 221.98L261.368 221.806L261.094 221.209L260.248 221.034H259.327L259.402 221.532L259.676 221.905L259.949 222.03H260.149L260.223 221.781L260.422 221.657L261.069 221.781L260.92 222.453L260.497 223.125L260.422 223.622L260.497 225.737L259.502 225.911L259.153 226.384L256.814 227.28L256.54 227.703L256.192 228.972L255.844 229.445V229.868L255.645 230.042L255.296 230.092L254.027 229.793L253.38 230.266L252.111 230.39L251.041 230.813L250.195 231.361L250.345 232.033L250.146 232.406H249.872V231.858L249.598 231.809L248.255 232.232L248.18 232.48L247.682 232.779V232.953L247.259 233.252L247.184 233.799H246.985L247.06 234.347L246.786 234.396L246.587 234.645V235.665L246.438 235.964L246.513 236.636L246.015 237.606L246.214 238.452L245.94 238.627L245.667 238.502H245.393L245.318 238.627L245.542 238.875L246.115 238.925L245.965 239.174V240.07L245.194 240.493L244.622 241.164L244.472 241.762L244.049 241.289L243.9 240.319L243.477 240.144L242.631 240.518L242.283 240.468L241.86 241.065L241.287 241.314L240.79 241.737H240.367L239.222 242.21L238.077 242.259L237.007 241.538L236.584 241.413V241.164L236.311 241.04L236.236 240.567L235.589 240.443L235.44 240.02L235.241 239.896L235.589 239.472V239.298L236.012 239.124L236.087 238.751L235.863 238.203L236.435 237.357L236.161 236.462L235.888 236.412L235.813 236.113H235.465L235.266 235.939L234.345 234.72L233.698 234.297L233.35 233.824L232.777 233.525L232.205 232.978L232.13 232.729L231.284 232.132L231.782 231.833H231.931L232.006 232.008L232.504 231.833L232.653 231.162L232.877 230.988L233.375 231.037L233.723 230.863L233.947 230.614V230.191L233.673 229.345L232.902 228.798L232.827 227.653L232.329 227.23L232.18 226.086L231.608 225.19L231.384 225.016H230.961L230.538 225.488H230.264L229.617 224.891L229.543 223.796L230.04 223.672L229.891 223.199L230.812 223.125L230.961 223L231.459 222.403L231.384 221.806H231.882V221.507L231.683 221.457L231.11 221.706L231.185 222.502L231.036 222.627L229.841 222.453L229.692 222.627L229.543 223.597L229.045 224.394V225.115L229.194 225.414L228.97 225.837V226.558L228.821 226.857L229.169 227.404L229.866 227.23L230.787 227.604L231.21 228.026L231.284 228.698L230.787 229.669L230.637 230.689L230.14 230.938L229.866 231.41L229.294 231.361L228.945 231.734L228.796 232.456L228.647 232.58V233.003L228.995 233.302V233.899L228.423 234.272L228.149 234.695L228.074 235.118L227.652 235.591L227.726 236.014L228 236.263V236.81L228.224 237.233V237.706L228 237.955L228.074 238.975L227.925 239.149V239.696L227.278 239.821L227.005 240.07L226.93 240.319L226.581 240.493L226.507 240.916L226.084 241.164L225.735 241.712L225.586 242.259L225.163 242.732L224.964 243.28L225.039 243.752L224.541 244.897V245.32L224.043 245.668L223.546 246.464L222.899 246.888L222.824 247.36L222.476 247.609V248.58L222.277 249.003L221.008 249.674L220.435 250.147L220.087 251.167H219.888L219.042 251.939L219.191 252.187L219.042 252.486L218.121 253.158V253.282L217.773 253.407L217.574 253.78L216.429 254.626L215.658 255.472L215.509 255.945L214.663 256.666L214.389 257.338V257.811L214.464 258.06L214.737 258.234V258.533L215.384 258.831L215.583 259.254L216.23 259.727H216.653L217.076 260.399L217.002 260.772L216.803 260.822V260.946L216.156 260.822L216.081 260.996H215.857L215.658 259.603L214.513 258.707L214.314 258.334L214.389 258.085L214.041 257.612L213.767 257.662L213.916 258.01L213.642 258.184L213.866 259.03L213.518 259.08L213.443 258.831L213.17 258.707L213.319 258.284L213.518 258.159V257.736L213.866 257.139L213.792 256.666L212.224 255.397L211.876 254.8V254.502L212.149 254.377V253.83L211.95 253.656V253.233L211.303 252.436L210.383 252.312L210.532 251.889L210.034 251.117H209.761L209.114 251.59L208.616 251.764V251.939L208.964 252.312L209.039 253.083L208.541 253.208L207.969 253.68L207.77 254.651L206.775 254.352L206.078 253.034L205.655 252.859L205.381 252.486L205.033 251.715L204.958 250.695L204.809 250.57L204.884 250.097L204.535 249.625L204.461 249.251L204.61 248.281L204.461 246.763L204.61 245.619L205.108 243.877V243.28L205.257 243.105L205.182 242.135L205.605 241.463V241.04L205.033 240.443L204.461 240.567V240.941L204.038 240.891L203.839 240.169L203.341 239.796L202.918 239L202.993 238.402L203.416 237.855L204.61 237.382L205.879 237.507L206.103 237.681H206.874L207.571 237.133V236.71L208.069 236.462L208.417 235.616L208.342 234.77L208.118 234.471H207.919L207.198 233.998L207.471 233.874L207.969 234.172L208.467 234.048L208.616 232.953L208.467 232.779L208.541 232.406L209.039 232.033L209.537 231.361V230.938L209.263 230.639L209.188 230.042L208.84 229.793L208.691 229.37L209.039 229.619H209.313L209.587 229.32L209.86 228.773L210.009 226.957L210.234 226.782L210.433 226.185L210.706 226.011L210.781 225.638L211.129 225.265L211.403 224.543L211.975 223.996L212.125 223.448H211.776L211.577 223.996L211.08 224.543L210.93 225.09L210.582 225.265L210.358 225.215L210.433 224.841L210.009 222.677L209.81 222.304L209.039 221.632L208.89 221.209L208.616 221.084L208.541 220.612L208.815 220.313L208.591 219.467L207.248 218.372L206.75 218.322V217.949L207.024 217.7L207.297 217.028L207.073 216.357L206.924 216.232L206.576 216.282L206.377 217.003L206.153 217.053L206.302 217.426L206.028 217.601L205.954 218.073L206.227 218.198V218.496L206.501 219.044L207.272 219.417L207.048 220.686L206.849 220.81V220.985L206.999 221.034L207.073 222.129L206.725 222.726L206.526 222.851L206.451 223.398L206.103 223.647V224.194L205.68 224.742L205.605 225.115L205.456 225.289H205.108L204.958 225.588L204.461 225.712L204.112 226.857H203.764L203.565 227.031L203.416 227.529L203.49 227.778L203.764 227.827L203.913 228.201H204.187V228.375L203.913 228.549V229.022L204.635 229.32L204.784 229.918L205.132 230.291V230.589L204.71 230.838L204.361 232.157L203.59 232.754L203.44 233.053L203.092 232.928L202.868 233.177L202.097 233.426H201.525L200.828 233.177L200.181 232.505L200.032 232.033L199.758 231.908L199.409 232.082L198.489 233.227L197.344 233.949L196.001 233.998L195.154 233.749L194.657 233.451L194.458 233.202V232.953L193.462 231.809L193.313 231.386L193.039 231.087L192.691 229.992L191.845 228.773L189.929 225.265L189.581 224.966L188.934 223.523L188.088 222.602L187.242 221.283L186.968 221.109L186.769 220.636L186.197 219.965L185.699 219.666L184.928 218.223L184.579 217.849L184.306 217.302L184.38 216.381L184.032 216.257L183.833 215.759L183.634 215.635L182.788 214.241L182.29 212.973L182.215 212.251L182.365 211.828L182.141 211.703L181.991 211.33L181.917 210.534L182.116 210.161L182.763 209.663L182.837 208.27L182.688 206.702L182.539 206.652V205.682L182.116 205.01L181.967 204.04L181.693 203.542L181.618 203.069V202.148L181.842 201.651L181.917 200.432L182.489 199.834L182.912 199.586L183.484 198.366L183.708 198.416L183.783 198.715L183.559 199.187L183.634 200.108L183.36 200.83L183.783 201.253L184.48 201.551H184.977L185.898 200.531H186.122L186.694 200.108L186.62 199.611L186.346 199.561L186.197 199.81L186.271 199.984L185.624 200.407H185.4L185.201 200.656L184.554 200.78L183.982 200.656V199.984L184.206 199.735V198.64L183.982 198.043L183.41 197.62L183.484 196.824L183.833 196.027L184.554 195.903V195.53L184.753 195.156H184.48L184.281 195.579L183.509 195.53L183.435 195.356H183.161V195.729L183.31 195.853L183.236 196.401L183.385 196.45L183.186 196.824H182.912L182.564 196.401L181.867 196.351L181.593 196.525L181.394 197.072H181.046L180.125 196.401V195.978L180.399 195.43V195.132L180.051 194.709L179.702 194.659L179.628 194.783L179.901 195.156V195.455L179.677 195.579V196.376L180.449 197.097L181.444 197.471L182.29 198.068L182.215 198.914L181.295 199.586L180.648 199.71L180.374 199.337L179.951 199.088L179.453 198.118L178.458 197.147L177.96 196.127L177.189 195.156L176.766 194.136L176.194 193.29L175.621 191.175L175.422 191.001L175.149 190.28L174.576 189.732L173.656 187.916L173.233 187.418H173.083L172.013 186.025L171.789 185.975L171.142 185.004V184.756L170.296 183.785L170.147 183.412H169.998L170.222 183.238L169.998 183.288L169.724 183.039L169.376 182.242L168.231 180.973L168.082 180.6L167.51 180.103L167.161 179.381L166.464 178.659L166.191 178.062L165.27 177.341L164.573 176.494L164.15 176.32L163.926 175.474L163.429 174.927L163.279 174.33L162.931 174.156L162.359 173.434L161.712 171.667L160.94 170.871L160.592 169.95L160.244 169.577L160.045 169.08L159.696 168.905L159.423 168.408L158.427 167.562H158.228L158.029 167.86H157.308L156.81 167.611L156.586 166.566L156.014 165.646L155.74 164.8L155.242 164.675L154.819 164.252L154.247 162.237L154.396 161.739L154.595 161.565L155.864 161.142L156.561 160.47L157.333 160.097L157.556 160.221L157.905 159.798L158.253 158.952L158.527 158.778L158.676 158.057L158.826 157.932L158.975 156.29L159.622 154.697V154.324L159.821 154.374L160.045 154.673L160.542 154.623L160.468 154.374L160.617 154.249L160.766 153.578L160.617 152.483L161.463 151.512L161.538 150.119L162.035 149.82V149.447L161.762 149.273L161.687 148.551L161.538 148.502L161.687 146.61L161.612 145.64L162.035 145.342L162.309 144.794L162.657 143.575L162.857 143.45L162.931 142.903L163.08 142.853L163.006 142.181L163.23 141.883L163.08 141.385L163.23 140.664V138.349L162.881 137.628L162.533 136.234V134.045L162.11 132.278L162.458 132.452L162.682 132.875L163.329 133.124L163.603 133.074L163.528 132.278L164.101 131.606V131.308L164.374 131.009L164.225 130.213L165.071 129.417L165.419 128.919V128.67L165.842 128.421V128.048L166.191 127.749L166.415 127.202L166.987 126.953L167.261 126.456L167.684 126.406L168.181 126.033V125.659L168.455 125.411L168.53 125.112L169.177 124.614L169.45 123.694L169.948 123.146V122.723L170.172 122.425V121.703L170.52 121.156L170.446 120.733L170.72 120.558V120.135L170.919 119.837V117.995L171.142 118.045L171.217 118.294H171.864L171.789 118.12L172.362 117.572L172.859 116.104L174.278 115.258L175.348 114.164V113.989L176.492 113.442L176.716 113.143L177.139 113.019L177.562 112.272L178.135 111.849L178.209 111.601H178.358V111.103L179.205 110.431L179.279 110.182L179.851 109.635L180.424 108.59L180.498 107.968L180.697 107.594L180.847 105.206L180.996 105.032L180.921 103.738L181.121 103.364H180.971V102.941L180.747 102.892V102.518L180.598 102.469L180.399 101.498L180.175 101.125L180.026 99.0348L180.598 98.2386L181.17 96.3973L181.519 95.8996L181.668 95.1531L181.942 94.7302V94.3569L182.365 93.5606L182.29 93.4362L182.564 93.0631L182.912 91.8935L183.609 90.4255L184.107 87.788L184.33 87.4894V86.5686L184.604 85.7725L184.753 85.7227V85.225L185.102 84.4287L185.674 84.18L186.943 82.7616L187.092 82.2141L187.515 81.7166L187.864 80.8456L188.784 79.8006V79.6264L190.974 78.2828L191.248 77.9842L191.522 77.9344L191.596 77.7602L192.019 77.6358H193.015L193.363 77.8846L192.094 78.5565L192.169 78.7307L192.666 78.6809L192.94 79.3527L194.707 80.0246L195.354 79.9748L196.001 80.149L196.075 80.3978H196.2L197.269 81.0696L197.842 81.2438L197.916 81.4428L198.19 81.5673L198.115 81.8161L198.464 82.3634H199.235L199.509 82.5376L199.733 82.8362L199.509 83.3339L199.658 83.3837V83.6325L199.932 83.7072L200.081 83.3339L200.007 82.7118L200.156 82.5376L199.808 82.2889L199.584 81.4428L199.385 81.2438L199.534 80.1987L198.688 79.9499V79.5269L198.912 79.3527L199.608 79.2283L201.3 79.7259L201.5 79.4771L202.221 79.1785L202.42 78.8052L202.694 78.7556L202.893 78.2081L203.739 77.2129L203.814 75.6203L203.963 75.3218H204.162V75.6203L204.436 75.7447H205.929L206.277 76.4912L206.974 77.0387L207.322 76.9639V76.2922L206.252 75.9935L205.829 75.247L204.411 75.1227L204.137 74.8739V74.625H203.938L203.863 74.7992L202.445 75.2969L202.022 76.1677L201.176 77.0883H199.409L199.26 76.9639L199.409 76.7897L199.335 76.541L198.837 76.4166L198.339 76.541L198.115 76.1677H197.543L197.618 75.5456L197.12 75.1227L196.971 74.625L197.394 72.7837L198.041 71.4897L198.812 70.6936L198.961 70.3203L200.156 69.4495L201.35 68.8274L202.072 68.7029L202.769 68.1555H203.042L203.192 67.9066L203.54 67.9564L204.734 67.5833L205.083 67.0856L205.804 66.5879L206.078 66.2146L207.272 66.0902L207.969 65.5926H209.611L210.955 66.2644L211.602 66.3143L212.025 66.8118L212.299 67.6828L212.995 68.479L213.419 68.6532L214.19 68.7278L214.464 69.0264L215.459 69.1508L215.807 69.5241L215.882 70.1959H216.031L216.106 70.3701L217.176 70.7931L217.45 71.0419H217.798L218.221 71.4152L219.838 71.241L220.983 71.6143L221.555 71.5645L222.401 71.1912L222.974 70.5194L223.67 70.2208L224.815 69.9719L226.581 69.1011L227.154 68.479L227.427 67.4837L228.498 67.5584L228.572 67.4339H228.846L228.92 67.2598H229.194L229.468 67.5086L230.165 67.5833L230.239 67.7077L231.882 67.8321L232.529 67.4588L233.375 67.21L233.101 67.0856L232.031 67.5086L230.961 67.4588L230.389 67.5833L229.244 66.4137L228.174 66.2893L227.676 66.5381L227.328 66.4885L226.557 65.6175L226.134 65.8664L225.91 66.2893L225.636 66.3392L225.213 66.7621L224.715 66.8865L224.218 66.6377V66.2146L224.019 66.0157V65.095L224.442 64.473L225.586 63.8011L225.86 63.2536L226.507 62.7062L227.154 61.7109L227.726 59.795L228.423 58.9988L228.995 58.9489L229.269 59.1231L229.493 60.5911L229.841 60.9644L230.264 61.1386L230.115 61.7607L230.264 62.4326L231.11 62.557L232.752 61.8851H232.329L230.986 62.4326H230.637L230.364 62.1837L230.588 60.9395L230.314 60.5166L229.816 60.3922V59.4715L229.667 59.347V59.0484L229.244 58.7498L229.766 55.0922L231.633 51.7578L231.309 43.7953L233.648 43.8452L238.401 46.5574L241.884 46.4331L244.721 39.5903L250.345 37.3757L252.186 32.6729L256.54 28.7663L258.531 24.3869L264.777 22.9686L267.962 21.1771L273.909 16.0513L275.775 12.8166Z" fill="#F2F2F2"/>
<g filter="url(#filter0_d_331_164)">
<circle cx="346.5" cy="401.5" r="7.5" fill="#D50000"/>
<circle cx="346.5" cy="401.5" r="6.5" stroke="#1C1C1C" stroke-width="2"/>
</g>
<g filter="url(#filter1_d_331_164)">
<circle cx="328.5" cy="388.5" r="7.5" fill="#D50000"/>
<circle cx="328.5" cy="388.5" r="6.5" stroke="#1C1C1C" stroke-width="2"/>
</g>
<g filter="url(#filter2_d_331_164)">
<circle cx="330.5" cy="374.5" r="7.5" fill="#D50000"/>
<circle cx="330.5" cy="374.5" r="6.5" stroke="#1C1C1C" stroke-width="2"/>
</g>
<g filter="url(#filter3_d_331_164)">
<circle cx="340.5" cy="387.5" r="7.5" fill="#D50000"/>
<circle cx="340.5" cy="387.5" r="6.5" stroke="#1C1C1C" stroke-width="2"/>
</g>
<g filter="url(#filter4_d_331_164)">
<circle cx="282.5" cy="368.5" r="7.5" fill="#D50000"/>
<circle cx="282.5" cy="368.5" r="6.5" stroke="#1C1C1C" stroke-width="2"/>
</g>
<g filter="url(#filter5_d_331_164)">
<circle cx="298.5" cy="361.5" r="7.5" fill="#D50000"/>
<circle cx="298.5" cy="361.5" r="6.5" stroke="#1C1C1C" stroke-width="2"/>
</g>
<g filter="url(#filter6_d_331_164)">
<circle cx="278.5" cy="321.5" r="7.5" fill="#D50000"/>
<circle cx="278.5" cy="321.5" r="6.5" stroke="#1C1C1C" stroke-width="2"/>
</g>
<g filter="url(#filter7_d_331_164)">
<circle cx="318.5" cy="322.5" r="7.5" fill="#D50000"/>
<circle cx="318.5" cy="322.5" r="6.5" stroke="#1C1C1C" stroke-width="2"/>
</g>
<g filter="url(#filter8_d_331_164)">
<circle cx="303.5" cy="326.5" r="7.5" fill="#D50000"/>
<circle cx="303.5" cy="326.5" r="6.5" stroke="#1C1C1C" stroke-width="2"/>
</g>
<g filter="url(#filter9_d_331_164)">
<circle cx="336.5" cy="316.5" r="7.5" fill="#D50000"/>
<circle cx="336.5" cy="316.5" r="6.5" stroke="#1C1C1C" stroke-width="2"/>
</g>
<g filter="url(#filter10_d_331_164)">
<circle cx="232.5" cy="314.5" r="7.5" fill="#D50000"/>
<circle cx="232.5" cy="314.5" r="6.5" stroke="#1C1C1C" stroke-width="2"/>
</g>
<g filter="url(#filter11_d_331_164)">
<circle cx="235.5" cy="290.5" r="7.5" fill="#D50000"/>
<circle cx="235.5" cy="290.5" r="6.5" stroke="#1C1C1C" stroke-width="2"/>
</g>
<g filter="url(#filter12_d_331_164)">
<circle cx="259.5" cy="256.5" r="7.5" fill="#D50000"/>
<circle cx="259.5" cy="256.5" r="6.5" stroke="#1C1C1C" stroke-width="2"/>
</g>
<g filter="url(#filter13_d_331_164)">
<circle cx="209.5" cy="244.5" r="7.5" fill="#D50000"/>
<circle cx="209.5" cy="244.5" r="6.5" stroke="#1C1C1C" stroke-width="2"/>
</g>
<g filter="url(#filter14_d_331_164)">
<circle cx="251.5" cy="76.5" r="7.5" fill="#D50000"/>
<circle cx="251.5" cy="76.5" r="6.5" stroke="#1C1C1C" stroke-width="2"/>
</g>
<g filter="url(#filter15_d_331_164)">
<circle cx="235.5" cy="405.5" r="7.5" fill="#D50000"/>
<circle cx="235.5" cy="405.5" r="6.5" stroke="#1C1C1C" stroke-width="2"/>
</g>
<g filter="url(#filter16_d_331_164)">
<circle cx="238.5" cy="390.5" r="7.5" fill="#D50000"/>
<circle cx="238.5" cy="390.5" r="6.5" stroke="#1C1C1C" stroke-width="2"/>
</g>
<g filter="url(#filter17_d_331_164)">
<circle cx="246.5" cy="393.5" r="7.5" fill="#D50000"/>
<circle cx="246.5" cy="393.5" r="6.5" stroke="#1C1C1C" stroke-width="2"/>
</g>
<g filter="url(#filter18_d_331_164)">
<circle cx="311.5" cy="468.5" r="7.5" fill="#D50000"/>
<circle cx="311.5" cy="468.5" r="6.5" stroke="#1C1C1C" stroke-width="2"/>
</g>
</g>
<defs>
<filter id="filter0_d_331_164" x="335" y="394" width="23" height="23" filterUnits="userSpaceOnUse" color-interpolation-filters="sRGB">
<feFlood flood-opacity="0" result="BackgroundImageFix"/>
<feColorMatrix in="SourceAlpha" type="matrix" values="0 0 0 0 0 0 0 0 0 0 0 0 0 0 0 0 0 0 127 0" result="hardAlpha"/>
<feOffset dy="4"/>
<feGaussianBlur stdDeviation="2"/>
<feComposite in2="hardAlpha" operator="out"/>
<feColorMatrix type="matrix" values="0 0 0 0 0 0 0 0 0 0 0 0 0 0 0 0 0 0 0.25 0"/>
<feBlend mode="normal" in2="BackgroundImageFix" result="effect1_dropShadow_331_164"/>
<feBlend mode="normal" in="SourceGraphic" in2="effect1_dropShadow_331_164" result="shape"/>
</filter>
<filter id="filter1_d_331_164" x="317" y="381" width="23" height="23" filterUnits="userSpaceOnUse" color-interpolation-filters="sRGB">
<feFlood flood-opacity="0" result="BackgroundImageFix"/>
<feColorMatrix in="SourceAlpha" type="matrix" values="0 0 0 0 0 0 0 0 0 0 0 0 0 0 0 0 0 0 127 0" result="hardAlpha"/>
<feOffset dy="4"/>
<feGaussianBlur stdDeviation="2"/>
<feComposite in2="hardAlpha" operator="out"/>
<feColorMatrix type="matrix" values="0 0 0 0 0 0 0 0 0 0 0 0 0 0 0 0 0 0 0.25 0"/>
<feBlend mode="normal" in2="BackgroundImageFix" result="effect1_dropShadow_331_164"/>
<feBlend mode="normal" in="SourceGraphic" in2="effect1_dropShadow_331_164" result="shape"/>
</filter>
<filter id="filter2_d_331_164" x="319" y="367" width="23" height="23" filterUnits="userSpaceOnUse" color-interpolation-filters="sRGB">
<feFlood flood-opacity="0" result="BackgroundImageFix"/>
<feColorMatrix in="SourceAlpha" type="matrix" values="0 0 0 0 0 0 0 0 0 0 0 0 0 0 0 0 0 0 127 0" result="hardAlpha"/>
<feOffset dy="4"/>
<feGaussianBlur stdDeviation="2"/>
<feComposite in2="hardAlpha" operator="out"/>
<feColorMatrix type="matrix" values="0 0 0 0 0 0 0 0 0 0 0 0 0 0 0 0 0 0 0.25 0"/>
<feBlend mode="normal" in2="BackgroundImageFix" result="effect1_dropShadow_331_164"/>
<feBlend mode="normal" in="SourceGraphic" in2="effect1_dropShadow_331_164" result="shape"/>
</filter>
<filter id="filter3_d_331_164" x="329" y="380" width="23" height="23" filterUnits="userSpaceOnUse" color-interpolation-filters="sRGB">
<feFlood flood-opacity="0" result="BackgroundImageFix"/>
<feColorMatrix in="SourceAlpha" type="matrix" values="0 0 0 0 0 0 0 0 0 0 0 0 0 0 0 0 0 0 127 0" result="hardAlpha"/>
<feOffset dy="4"/>
<feGaussianBlur stdDeviation="2"/>
<feComposite in2="hardAlpha" operator="out"/>
<feColorMatrix type="matrix" values="0 0 0 0 0 0 0 0 0 0 0 0 0 0 0 0 0 0 0.25 0"/>
<feBlend mode="normal" in2="BackgroundImageFix" result="effect1_dropShadow_331_164"/>
<feBlend mode="normal" in="SourceGraphic" in2="effect1_dropShadow_331_164" result="shape"/>
</filter>
<filter id="filter4_d_331_164" x="271" y="361" width="23" height="23" filterUnits="userSpaceOnUse" color-interpolation-filters="sRGB">
<feFlood flood-opacity="0" result="BackgroundImageFix"/>
<feColorMatrix in="SourceAlpha" type="matrix" values="0 0 0 0 0 0 0 0 0 0 0 0 0 0 0 0 0 0 127 0" result="hardAlpha"/>
<feOffset dy="4"/>
<feGaussianBlur stdDeviation="2"/>
<feComposite in2="hardAlpha" operator="out"/>
<feColorMatrix type="matrix" values="0 0 0 0 0 0 0 0 0 0 0 0 0 0 0 0 0 0 0.25 0"/>
<feBlend mode="normal" in2="BackgroundImageFix" result="effect1_dropShadow_331_164"/>
<feBlend mode="normal" in="SourceGraphic" in2="effect1_dropShadow_331_164" result="shape"/>
</filter>
<filter id="filter5_d_331_164" x="287" y="354" width="23" height="23" filterUnits="userSpaceOnUse" color-interpolation-filters="sRGB">
<feFlood flood-opacity="0" result="BackgroundImageFix"/>
<feColorMatrix in="SourceAlpha" type="matrix" values="0 0 0 0 0 0 0 0 0 0 0 0 0 0 0 0 0 0 127 0" result="hardAlpha"/>
<feOffset dy="4"/>
<feGaussianBlur stdDeviation="2"/>
<feComposite in2="hardAlpha" operator="out"/>
<feColorMatrix type="matrix" values="0 0 0 0 0 0 0 0 0 0 0 0 0 0 0 0 0 0 0.25 0"/>
<feBlend mode="normal" in2="BackgroundImageFix" result="effect1_dropShadow_331_164"/>
<feBlend mode="normal" in="SourceGraphic" in2="effect1_dropShadow_331_164" result="shape"/>
</filter>
<filter id="filter6_d_331_164" x="267" y="314" width="23" height="23" filterUnits="userSpaceOnUse" color-interpolation-filters="sRGB">
<feFlood flood-opacity="0" result="BackgroundImageFix"/>
<feColorMatrix in="SourceAlpha" type="matrix" values="0 0 0 0 0 0 0 0 0 0 0 0 0 0 0 0 0 0 127 0" result="hardAlpha"/>
<feOffset dy="4"/>
<feGaussianBlur stdDeviation="2"/>
<feComposite in2="hardAlpha" operator="out"/>
<feColorMatrix type="matrix" values="0 0 0 0 0 0 0 0 0 0 0 0 0 0 0 0 0 0 0.25 0"/>
<feBlend mode="normal" in2="BackgroundImageFix" result="effect1_dropShadow_331_164"/>
<feBlend mode="normal" in="SourceGraphic" in2="effect1_dropShadow_331_164" result="shape"/>
</filter>
<filter id="filter7_d_331_164" x="307" y="315" width="23" height="23" filterUnits="userSpaceOnUse" color-interpolation-filters="sRGB">
<feFlood flood-opacity="0" result="BackgroundImageFix"/>
<feColorMatrix in="SourceAlpha" type="matrix" values="0 0 0 0 0 0 0 0 0 0 0 0 0 0 0 0 0 0 127 0" result="hardAlpha"/>
<feOffset dy="4"/>
<feGaussianBlur stdDeviation="2"/>
<feComposite in2="hardAlpha" operator="out"/>
<feColorMatrix type="matrix" values="0 0 0 0 0 0 0 0 0 0 0 0 0 0 0 0 0 0 0.25 0"/>
<feBlend mode="normal" in2="BackgroundImageFix" result="effect1_dropShadow_331_164"/>
<feBlend mode="normal" in="SourceGraphic" in2="effect1_dropShadow_331_164" result="shape"/>
</filter>
<filter id="filter8_d_331_164" x="292" y="319" width="23" height="23" filterUnits="userSpaceOnUse" color-interpolation-filters="sRGB">
<feFlood flood-opacity="0" result="BackgroundImageFix"/>
<feColorMatrix in="SourceAlpha" type="matrix" values="0 0 0 0 0 0 0 0 0 0 0 0 0 0 0 0 0 0 127 0" result="hardAlpha"/>
<feOffset dy="4"/>
<feGaussianBlur stdDeviation="2"/>
<feComposite in2="hardAlpha" operator="out"/>
<feColorMatrix type="matrix" values="0 0 0 0 0 0 0 0 0 0 0 0 0 0 0 0 0 0 0.25 0"/>
<feBlend mode="normal" in2="BackgroundImageFix" result="effect1_dropShadow_331_164"/>
<feBlend mode="normal" in="SourceGraphic" in2="effect1_dropShadow_331_164" result="shape"/>
</filter>
<filter id="filter9_d_331_164" x="325" y="309" width="23" height="23" filterUnits="userSpaceOnUse" color-interpolation-filters="sRGB">
<feFlood flood-opacity="0" result="BackgroundImageFix"/>
<feColorMatrix in="SourceAlpha" type="matrix" values="0 0 0 0 0 0 0 0 0 0 0 0 0 0 0 0 0 0 127 0" result="hardAlpha"/>
<feOffset dy="4"/>
<feGaussianBlur stdDeviation="2"/>
<feComposite in2="hardAlpha" operator="out"/>
<feColorMatrix type="matrix" values="0 0 0 0 0 0 0 0 0 0 0 0 0 0 0 0 0 0 0.25 0"/>
<feBlend mode="normal" in2="BackgroundImageFix" result="effect1_dropShadow_331_164"/>
<feBlend mode="normal" in="SourceGraphic" in2="effect1_dropShadow_331_164" result="shape"/>
</filter>
<filter id="filter10_d_331_164" x="221" y="307" width="23" height="23" filterUnits="userSpaceOnUse" color-interpolation-filters="sRGB">
<feFlood flood-opacity="0" result="BackgroundImageFix"/>
<feColorMatrix in="SourceAlpha" type="matrix" values="0 0 0 0 0 0 0 0 0 0 0 0 0 0 0 0 0 0 127 0" result="hardAlpha"/>
<feOffset dy="4"/>
<feGaussianBlur stdDeviation="2"/>
<feComposite in2="hardAlpha" operator="out"/>
<feColorMatrix type="matrix" values="0 0 0 0 0 0 0 0 0 0 0 0 0 0 0 0 0 0 0.25 0"/>
<feBlend mode="normal" in2="BackgroundImageFix" result="effect1_dropShadow_331_164"/>
<feBlend mode="normal" in="SourceGraphic" in2="effect1_dropShadow_331_164" result="shape"/>
</filter>
<filter id="filter11_d_331_164" x="224" y="283" width="23" height="23" filterUnits="userSpaceOnUse" color-interpolation-filters="sRGB">
<feFlood flood-opacity="0" result="BackgroundImageFix"/>
<feColorMatrix in="SourceAlpha" type="matrix" values="0 0 0 0 0 0 0 0 0 0 0 0 0 0 0 0 0 0 127 0" result="hardAlpha"/>
<feOffset dy="4"/>
<feGaussianBlur stdDeviation="2"/>
<feComposite in2="hardAlpha" operator="out"/>
<feColorMatrix type="matrix" values="0 0 0 0 0 0 0 0 0 0 0 0 0 0 0 0 0 0 0.25 0"/>
<feBlend mode="normal" in2="BackgroundImageFix" result="effect1_dropShadow_331_164"/>
<feBlend mode="normal" in="SourceGraphic" in2="effect1_dropShadow_331_164" result="shape"/>
</filter>
<filter id="filter12_d_331_164" x="248" y="249" width="23" height="23" filterUnits="userSpaceOnUse" color-interpolation-filters="sRGB">
<feFlood flood-opacity="0" result="BackgroundImageFix"/>
<feColorMatrix in="SourceAlpha" type="matrix" values="0 0 0 0 0 0 0 0 0 0 0 0 0 0 0 0 0 0 127 0" result="hardAlpha"/>
<feOffset dy="4"/>
<feGaussianBlur stdDeviation="2"/>
<feComposite in2="hardAlpha" operator="out"/>
<feColorMatrix type="matrix" values="0 0 0 0 0 0 0 0 0 0 0 0 0 0 0 0 0 0 0.25 0"/>
<feBlend mode="normal" in2="BackgroundImageFix" result="effect1_dropShadow_331_164"/>
<feBlend mode="normal" in="SourceGraphic" in2="effect1_dropShadow_331_164" result="shape"/>
</filter>
<filter id="filter13_d_331_164" x="198" y="237" width="23" height="23" filterUnits="userSpaceOnUse" color-interpolation-filters="sRGB">
<feFlood flood-opacity="0" result="BackgroundImageFix"/>
<feColorMatrix in="SourceAlpha" type="matrix" values="0 0 0 0 0 0 0 0 0 0 0 0 0 0 0 0 0 0 127 0" result="hardAlpha"/>
<feOffset dy="4"/>
<feGaussianBlur stdDeviation="2"/>
<feComposite in2="hardAlpha" operator="out"/>
<feColorMatrix type="matrix" values="0 0 0 0 0 0 0 0 0 0 0 0 0 0 0 0 0 0 0.25 0"/>
<feBlend mode="normal" in2="BackgroundImageFix" result="effect1_dropShadow_331_164"/>
<feBlend mode="normal" in="SourceGraphic" in2="effect1_dropShadow_331_164" result="shape"/>
</filter>
<filter id="filter14_d_331_164" x="240" y="69" width="23" height="23" filterUnits="userSpaceOnUse" color-interpolation-filters="sRGB">
<feFlood flood-opacity="0" result="BackgroundImageFix"/>
<feColorMatrix in="SourceAlpha" type="matrix" values="0 0 0 0 0 0 0 0 0 0 0 0 0 0 0 0 0 0 127 0" result="hardAlpha"/>
<feOffset dy="4"/>
<feGaussianBlur stdDeviation="2"/>
<feComposite in2="hardAlpha" operator="out"/>
<feColorMatrix type="matrix" values="0 0 0 0 0 0 0 0 0 0 0 0 0 0 0 0 0 0 0.25 0"/>
<feBlend mode="normal" in2="BackgroundImageFix" result="effect1_dropShadow_331_164"/>
<feBlend mode="normal" in="SourceGraphic" in2="effect1_dropShadow_331_164" result="shape"/>
</filter>
<filter id="filter15_d_331_164" x="224" y="398" width="23" height="23" filterUnits="userSpaceOnUse" color-interpolation-filters="sRGB">
<feFlood flood-opacity="0" result="BackgroundImageFix"/>
<feColorMatrix in="SourceAlpha" type="matrix" values="0 0 0 0 0 0 0 0 0 0 0 0 0 0 0 0 0 0 127 0" result="hardAlpha"/>
<feOffset dy="4"/>
<feGaussianBlur stdDeviation="2"/>
<feComposite in2="hardAlpha" operator="out"/>
<feColorMatrix type="matrix" values="0 0 0 0 0 0 0 0 0 0 0 0 0 0 0 0 0 0 0.25 0"/>
<feBlend mode="normal" in2="BackgroundImageFix" result="effect1_dropShadow_331_164"/>
<feBlend mode="normal" in="SourceGraphic" in2="effect1_dropShadow_331_164" result="shape"/>
</filter>
<filter id="filter16_d_331_164" x="227" y="383" width="23" height="23" filterUnits="userSpaceOnUse" color-interpolation-filters="sRGB">
<feFlood flood-opacity="0" result="BackgroundImageFix"/>
<feColorMatrix in="SourceAlpha" type="matrix" values="0 0 0 0 0 0 0 0 0 0 0 0 0 0 0 0 0 0 127 0" result="hardAlpha"/>
<feOffset dy="4"/>
<feGaussianBlur stdDeviation="2"/>
<feComposite in2="hardAlpha" operator="out"/>
<feColorMatrix type="matrix" values="0 0 0 0 0 0 0 0 0 0 0 0 0 0 0 0 0 0 0.25 0"/>
<feBlend mode="normal" in2="BackgroundImageFix" result="effect1_dropShadow_331_164"/>
<feBlend mode="normal" in="SourceGraphic" in2="effect1_dropShadow_331_164" result="shape"/>
</filter>
<filter id="filter17_d_331_164" x="235" y="386" width="23" height="23" filterUnits="userSpaceOnUse" color-interpolation-filters="sRGB">
<feFlood flood-opacity="0" result="BackgroundImageFix"/>
<feColorMatrix in="SourceAlpha" type="matrix" values="0 0 0 0 0 0 0 0 0 0 0 0 0 0 0 0 0 0 127 0" result="hardAlpha"/>
<feOffset dy="4"/>
<feGaussianBlur stdDeviation="2"/>
<feComposite in2="hardAlpha" operator="out"/>
<feColorMatrix type="matrix" values="0 0 0 0 0 0 0 0 0 0 0 0 0 0 0 0 0 0 0.25 0"/>
<feBlend mode="normal" in2="BackgroundImageFix" result="effect1_dropShadow_331_164"/>
<feBlend mode="normal" in="SourceGraphic" in2="effect1_dropShadow_331_164" result="shape"/>
</filter>
<filter id="filter18_d_331_164" x="300" y="461" width="23" height="23" filterUnits="userSpaceOnUse" color-interpolation-filters="sRGB">
<feFlood flood-opacity="0" result="BackgroundImageFix"/>
<feColorMatrix in="SourceAlpha" type="matrix" values="0 0 0 0 0 0 0 0 0 0 0 0 0 0 0 0 0 0 127 0" result="hardAlpha"/>
<feOffset dy="4"/>
<feGaussianBlur stdDeviation="2"/>
<feComposite in2="hardAlpha" operator="out"/>
<feColorMatrix type="matrix" values="0 0 0 0 0 0 0 0 0 0 0 0 0 0 0 0 0 0 0.25 0"/>
<feBlend mode="normal" in2="BackgroundImageFix" result="effect1_dropShadow_331_164"/>
<feBlend mode="normal" in="SourceGraphic" in2="effect1_dropShadow_331_164" result="shape"/>
</filter>
<clipPath id="clip0_331_164">
<rect width="961" height="1250" fill="white" transform="translate(-117 -125)"/>
</clipPath>
</defs>
</svg>
