<svg width="339" height="339" viewBox="0 0 339 339" fill="none" xmlns="http://www.w3.org/2000/svg">
<rect width="339" height="339"/>
<path d="M170.644 43.3175L170.718 43.5166H171.365L171.639 43.0687L171.913 43.0189L171.763 43.7654L172.485 44.0888H172.759L173.182 43.7654H173.829L173.903 44.0142L173.406 44.8354L173.331 45.5818L173.182 45.7809L173.256 47.3983L173.605 47.8959L173.53 48.095L172.535 47.7715H171.813L171.539 47.5226L171.191 47.5973L171.266 47.9208L170.345 47.9954L169.773 47.3734V45.756L169.35 45.1837L168.852 45.109L168.13 44.6612H166.637L165.941 45.109L165.667 45.8057L164.821 45.8804L163.975 45.2583L163.627 44.263L163.776 43.5166L164.05 43.3175H164.97L165.742 43.5663L166.389 44.0142L167.235 44.2133L169.151 44.0888L169.499 43.7156V43.5166L170.071 43.3175L170.42 42.9442H170.917L170.644 43.3175ZM141.332 17.1161L141.605 17.3898H141.879L142.377 17.7133L142.65 18.41L143.347 19.2311L143.422 19.8532L143.695 20.102L144.467 20.3508V20.7987L145.039 21.1719V22.2419L145.81 22.6898V23.1377L145.586 23.2621V23.5856L146.084 23.9588L146.01 24.5808L146.432 25.0785V25.402L146.233 25.6509H145.512L145.014 25.9743L144.442 26.0987V26.5963L144.79 26.9198H145.213L145.288 27.0443H145.636L145.86 26.8452L146.059 26.9198L146.482 28.2386L147.552 29.4827L148.125 29.9306L148.324 30.3785L148.548 30.4532L148.821 31.3241L149.817 32.0208L150.041 33.0161L150.464 33.5884L151.608 34.4593L151.956 35.0813L153.449 36.6489L155.141 37.7687L155.49 38.2166L155.689 38.9133L156.336 39.5353L157.331 39.8588L158.327 40.7297L158.973 40.9785L159.173 41.302L159.446 41.4264L160.367 42.994L160.641 43.2428L161.288 44.487L161.561 46.4278L162.557 48.1199L162.631 49.0654L162.905 50.0109L163.253 50.633L163.826 51.2053L164.597 51.5288L165.368 52.9719L165.219 53.2208L165.294 53.6687L165.717 53.7185L166.563 54.4649L168.13 55.0373L168.827 55.5349H169.549L170.469 54.664L171.465 51.9767L171.614 51.7278L171.838 51.6532L171.763 51.0311L171.34 50.5832L171.539 50.21H171.813L172.087 50.5335L172.858 53.9175L175.122 57.2269L175.048 58.048L174.326 59.2922L173.903 59.6156L172.634 59.5658L172.709 59.8147L173.132 59.8893L173.48 60.1382L173.704 60.7602L174.55 62.1287L174.476 62.4522L175.197 62.2532L175.769 61.5067V60.8846L175.919 60.6856L176.192 60.5612L176.466 60.1879L176.964 60.0635L177.884 59.118L178.581 59.0682L179.079 59.3917L179.8 59.3419L180.074 59.541H180.497L180.646 59.6654L180.721 60.4866L183.259 61.432L183.831 61.8551L184.18 61.9297L184.752 62.925L185.822 63.9203L185.897 64.2936L186.544 64.6668L187.614 66.5329L188.037 66.7819L189.53 67.155L189.729 67.4039L190.152 67.4785L190.226 67.7274H190.5L191.072 68.1753V68.4988L190.923 68.6232L190.774 68.7475H190.276L190.127 68.9965L190.276 69.9917L190.699 70.9372L191.47 71.6837L191.819 72.6292L192.391 73.1269L192.54 73.749L192.963 73.9232V74.1719H193.685L193.113 74.6696H192.764L192.54 74.2963H192.192L191.918 74.4954L191.421 76.4363L191.072 76.8842V77.3321L191.495 77.4066L191.645 77.9043L191.869 78.1034L191.943 78.6757L192.366 79.0988L192.516 79.4719L193.287 79.9696H193.71L193.486 80.3429L193.561 80.8405L194.705 81.0396L194.78 81.2387L193.785 82.6819V83.1794L194.058 83.6025L194.282 83.6771V84.3739L194.009 85.0705V86.0161L194.158 86.3894L195.004 87.2104H195.925L196.497 87.8325H196.994L197.144 88.0814V89.4001L196.92 89.5246L197.194 90.7189L197.044 91.5401L197.119 93.033L197.467 93.5307L197.617 94.078V94.7001L197.343 94.8245L197.268 95.3222L197.119 95.4466V96.019L197.617 96.5912L197.816 97.462L197.741 97.9597L197.318 98.5321L197.243 98.9551L197.044 99.2039V99.6517L197.691 100.771L198.114 100.896L198.811 101.443L198.886 102.439L198.662 102.887L198.587 103.757L198.438 104.18L198.288 104.255L198.363 105.201L198.711 106.071V106.893L198.363 107.216L197.791 107.141L197.218 107.515L196.721 108.51L196.372 109.879L195.8 110.078L195.153 110.65L194.73 111.197L194.805 111.62L194.581 111.819H194.307L194.033 111.496L193.337 111.123L193.834 110.874L193.76 110.675L193.113 110.749L193.038 111.073L193.386 111.446L193.735 111.571V111.994L194.158 112.939L194.357 112.815L194.282 111.944L194.855 111.894L195.004 113.387L195.153 113.586V114.084L195.302 114.208L195.377 115.328L195.8 116.696L195.875 117.443L196.223 117.941V118.314L197.069 120.105L198.338 122.096V122.22H198.189L197.194 121.772L196.771 122.021V122.146L197.343 122.519L198.114 122.718H198.761L199.11 122.519L199.184 122.768H199.533L199.607 122.569H199.831L199.98 123.066L200.752 124.311L201.672 124.933L202.319 125.878L202.394 128.292L202.245 128.615L201.822 128.789L201.249 129.411V129.66L200.528 131.278L200.379 131.352L199.732 133.019L199.582 136.379L201.075 141.455L201.573 142.251L201.921 143.172L202.693 144.341L203.688 144.963L204.459 145.71L205.032 147.252L204.957 148.87L205.231 149.666L206.574 152.079L207.296 152.95L207.371 153.249L208.366 153.747V154.12L208.167 154.493V155.289L208.59 156.036L208.789 156.16L208.64 156.534L208.217 156.658L208.067 156.484H207.719L207.072 156.981L206.873 157.404V158.325L207.072 158.748L206.151 159.793L205.504 161.46L204.509 161.336L204.011 161.585L203.439 161.659L202.17 161.112L200.901 161.037L200.702 160.913H200.478V161.037L201.125 161.535L202.046 161.41L202.195 161.535L202.966 161.61L203.389 161.858L204.882 161.734L205.529 162.281L205.803 164.023L206.226 165.267L207.993 167.98L209.063 168.975L209.336 169.771L209.759 170.393L209.685 170.766L209.411 170.144H209.212V170.393L209.56 170.816L209.635 171.189L209.287 171.438L208.864 172.732L209.088 174.474L209.511 175.469L209.66 175.544L210.307 176.912L211.377 178.405L211.725 178.704L212.447 178.654L212.72 178.828L212.646 179.749L213.367 179.923L213.517 180.172V180.844L213.741 181.142L214.238 181.391L214.313 182.063H214.811L214.96 182.188V182.859L214.537 183.158L214.96 185.323L216.229 187.612L217.15 188.358L217.722 188.607L217.647 188.856L217.996 189.155L217.647 190.274L217.846 191.021L218.12 191.444L218.195 192.315L218.543 192.564H218.966L219.041 193.559H219.613V193.733L219.887 193.982H220.31L221.081 194.355V194.48H220.932L220.235 194.305L220.011 194.131H219.588L219.389 194.554L219.165 194.679H217.821L217.548 195.599L217.697 195.972H218.269L218.419 196.644L218.767 197.018L219.041 197.067L219.19 196.769L219.538 196.644L220.111 195.848L220.608 195.724L219.538 196.843L219.762 197.764L220.036 197.839L220.111 198.137L220.384 198.262L220.459 198.56L220.807 198.734V198.909L221.504 199.033L221.728 199.406L222.375 199.456L222.45 199.954L222.599 200.078H223.097V200.203L223.37 200.277L223.594 200.526L224.092 200.601L224.241 201.098L224.092 201.223L224.017 202.094L224.515 202.641H224.863L225.933 203.636L226.779 203.885V204.756L227.053 204.93L227.202 205.303H227.352L227.202 205.428L227.277 206.224L227.625 207.344L227.426 207.468L227.202 208.016L227.128 209.135L226.854 209.26V209.509L226.63 209.757L226.132 210.056L225.635 211.897L225.784 212.694L226.058 212.818L226.207 213.241L225.784 213.49L226.008 214.162L225.933 214.709H227.128L227.849 215.132L227.625 215.182L226.854 214.809L226.083 214.883L226.506 215.804L226.431 216.053L226.58 216.003L226.73 216.302V216.675L227.302 216.501L227.65 215.63L227.874 215.58L227.526 216.501L227.028 216.924L227.177 217.347L227.526 217.521V217.944L227.874 218.317V218.616L227.65 218.989L227.227 219.238L227.078 219.611L226.73 219.86L226.58 220.407L226.73 220.532L226.804 221.328L226.655 221.378L226.73 221.552L226.58 221.801L226.929 222.597L226.854 222.771L227.128 223.02L226.978 223.144V223.518L227.252 223.642L227.451 224.065L227.252 224.687L227.401 224.986L227.252 225.16L227.327 225.782L227.6 226.155L227.874 227.2L228.073 227.325L228.297 227.748L228.222 228.718L228.297 229.017L228.446 229.066L228.521 229.813L228.745 230.31L229.093 230.559V230.858L229.019 230.734L229.591 231.032L229.442 231.281L229.939 231.828V232.077L230.089 232.202L230.586 232.152L230.81 232.45V232.824L231.009 232.948L230.935 233.072L231.283 233.371V233.67L231.432 233.719L231.283 234.516L231.482 234.889L231.557 235.735L231.756 235.984L232.03 236.033L232.104 236.208L231.83 237.178L232.104 237.925L232.303 238.099V238.348L232.801 238.721V239.094L233.025 239.393L232.95 240.189L233.1 240.363V241.209L232.95 241.458L233.299 241.632V242.18L233.149 242.229L233.075 242.851V243.822L233.224 244.245L233.448 244.369V244.917L233.224 245.464L233.572 245.837V246.459L233.771 246.633L233.921 247.256L234.12 247.43L234.194 247.927L234.468 248.226L234.393 248.4L234.816 249.072V249.445L235.463 249.819L235.538 250.192L235.812 250.441V250.739L236.085 250.864L236.16 251.162L237.081 251.884L237.006 252.058L237.23 252.182L237.504 252.804L238.35 253.302L238.499 253.8L238.698 253.924V254.297L239.046 254.596L239.121 255.094L240.042 256.014L239.967 256.313L240.241 256.363L240.39 256.86L240.888 257.283L241.037 257.706L241.958 258.677L242.032 258.926L243.799 260.468L244.222 260.518L244.72 260.817L244.869 261.065L245.516 261.314L246.287 261.936L247.059 262.185L247.258 262.434H247.532L248.676 263.23L249.597 263.479L250.169 264.151L250.094 264.648L249.821 265.022L248.975 265.072L248.9 264.897L249.049 264.773L248.477 264.599L248.328 263.877L248.054 263.703L247.855 263.778L247.78 264.026L248.004 264.076L248.154 264.499L248.427 264.798L248.278 264.873V265.171L247.432 265.42L247.507 265.918L247.855 266.092L248.004 266.341L247.656 266.764L247.308 266.938V267.983L247.457 268.157V268.53L247.656 268.655V269.028L248.228 269.65L248.427 270.496L248.776 270.994L248.701 271.491L249.049 272.113V272.536L249.472 272.661V273.382L249.746 273.507L249.945 273.88H250.169L250.667 274.676L251.015 274.85L251.364 274.726L251.637 275.224L252.284 275.099L252.085 275.522L251.314 275.448L251.115 275.572V277.413L252.035 277.587L252.11 277.886L251.612 278.608L251.339 278.558V278.309H251.563L251.712 278.011L251.289 277.513H251.09L250.741 278.011L251.015 278.259V278.434L249.323 278.384L248.676 278.508L248.527 278.807L248.179 279.056V279.304L248.029 279.255L247.755 279.429L247.606 279.976L247.258 280.225L247.183 280.723L247.034 280.847L250.791 280.972L251.364 280.051V279.877L251.164 279.802V279.13L251.737 279.304V280.225L251.463 280.399V280.573L251.04 280.822L251.314 281.121L252.011 280.325L252.085 280.026L253.006 280.076L253.155 279.951L253.304 279.329L254.374 279.504L254.797 279.454L255.021 279.28L255.22 279.528L255.444 279.28L255.519 278.782L254.748 278.234L254.598 277.264L254.748 277.14V275.672L254.897 275.622L255.046 275.199L255.32 275.074L255.046 276.169V277.015L256.614 278.11L257.111 279.031L259.301 280.325L260.993 280.872L261.267 281.121L262.76 281.171L263.407 280.996L264.327 281.494L265.024 281.544L265.248 281.793L266.02 281.967L266.169 282.514L266.741 283.062L266.89 283.684L267.114 283.634L267.313 283.883L267.537 283.833L267.612 284.132L268.383 284.505L269.155 285.226L270.996 286.272L272.19 286.769L272.39 287.018H272.887L273.111 287.192L274.106 287.441L276.52 288.536L277.441 288.486L277.938 288.735H278.287L278.486 288.486L279.058 288.536L279.904 287.988H280.477L281.248 288.412L282.169 288.461L282.392 288.71L282.965 288.959L283.313 289.382L283.388 289.755L285.453 291.348L285.602 291.771H286.175L286.249 291.895L286.822 291.771L287.593 291.845L288.29 292.219H289.136L290.405 291.796L291.898 291.92L294.087 292.89L294.585 293.264L295.083 293.935L295.655 293.985L296.65 294.483H296.924L297.073 294.657H297.845L298.118 294.483L298.765 294.533L299.263 294.358L299.462 294.657L300.383 294.607L300.607 294.906L300.93 295.03L299.711 297.245L296.352 298.713L294.485 301.027L293.416 304.137L293.341 310.408L287.916 308.517L281.323 310.532L278.411 308.168L275.749 307.621L268.981 309.263L263.208 306.526L258.132 308.044L246.984 306.327L242.729 307.671L241.037 310.358L231.059 315.882L230.213 314.737H226.555L225.56 310.059L223.992 309.039L223.221 310.059L220.633 309.263L219.563 312.473L217.622 311.727L217.1 309.661L215.731 308.069L214.139 307.895L213.193 308.865L213.218 311.353L215.831 318.295L215.433 319.764L214.014 320.361L212.497 318.967L210.929 313.916L209.585 312.224L205.679 311.801L206.35 314.911L204.783 315.21L199.01 309.86L197.343 305.73L196.148 304.884L192.366 305.804L191.694 305.506L190.799 302.52L188.236 300.878L181.692 300.679L180.273 302.147L177.188 300.927L174.874 301.35L174.849 304.585L173.281 307.397L172.286 311.652L167.533 307.024L166.09 306.65L164.323 309.089L164.174 311.901L154.022 317.549L150.762 317.599L144.268 313.642L139.341 312.075L132.473 314.588L127.472 318.594L125.407 317.275L126.029 313.468L125.033 310.731L124.386 301.425L120.729 300.704L118.464 296.125L108.785 288.262L107.366 284.978L106.197 279.553L108.685 276.816L109.581 274.626L109.407 272.984L108.088 271.218L101.22 267.61L100.051 265.719L103.46 257.632L106.296 245.34L99.0307 239.268L94.1785 231.231L92.6109 231.604L90.247 234.366L81.4385 240.512L77.1586 239.89L73.3267 236.457L72.4807 233.645L73.3764 231.306L72.9783 228.793L70.291 225.533L69.5196 223.393L72.5055 221.129L73.899 216.078L76.1633 214.485L74.1727 211.275L73.1774 206.772L69.7436 204.806L72.829 200.501L72.9286 196.122L73.8243 194.778L83.7775 188.732L82.1601 184.527L82.5831 182.909L82.0108 181.441L83.3545 179.774L80.7916 178.107L75.4417 179.649L74.4464 177.559L70.291 174.524L68.9722 169.945L63.473 168.029L61.781 165.566L58.7951 156.11L57.75 154.891L61.0594 149.318L65.3392 147.775L66.3346 143.122L64.767 140.708L65.0407 138.344L72.4807 132.397L74.745 127.197L78.5023 124.957L81.8366 120.603L86.1164 116.995L90.6202 115.701L93.8799 116.945L96.0696 120.802L100.573 116.199L101.594 111.596L102.987 108.684L107.665 107.639L110.327 103.907L117.618 102.663L121.898 95.1232L121.375 92.7593L117.892 88.0814L117.494 83.7766L112.293 74.794L109.681 65.7368L106.744 62.3528L106.993 60.2875L103.634 58.4213L102.987 54.2907L114.757 51.7278L117.12 48.7917L120.405 42.3471L122.57 40.3316L123.167 36.5743L127.522 32.618L130.284 31.4236L133.867 27.6912L134.912 19.5546L141.332 17.1161Z" fill="#F2F2F2"/>
</svg>
