<svg width="562" height="523" viewBox="0 0 562 523" fill="none" xmlns="http://www.w3.org/2000/svg">
<g clip-path="url(#clip0_181_164)">
<path d="M-74.5251 519.462L-74.0523 519.686L-73.8035 520.184L-73.6293 519.736L-73.3556 519.836L-73.1316 520.284L-72.7335 520.383L-72.7086 520.209L-73.0321 519.711L-72.7086 519.761L-72.4598 519.587L-71.6387 520.234L-71.7133 520.507L-71.4645 520.731L-71.6138 520.831L-71.5889 521.154L-71.8378 521.428H-72.0866L-72.5593 520.507L-72.7335 520.458L-72.9823 520.632L-72.9575 521.005L-72.6838 521.503V522.001L-72.9575 522.05V522.423L-73.1068 522.523H-73.6044L-73.7786 521.752L-74.0026 521.702V521.204H-74.1518L-74.326 521.652L-74.5998 521.602L-74.6246 521.777L-74.8983 521.677L-74.973 520.756L-74.6495 520.707L-74.4753 520.383L-74.6993 520.209L-74.8735 520.532H-75.0228L-75.0476 520.358L-75.2716 520.308L-75.2965 519.935L-75.5453 519.761V519.587L-75.1969 519.637L-74.7988 520.085L-74.5748 519.811L-74.7241 519.487L-74.5251 519.462ZM-77.5857 519.288L-77.2373 519.885L-76.7148 519.985L-76.6401 520.308H-76.3913V520.756L-76.5655 521.08L-76.9885 521.13L-77.0134 520.756L-77.1627 520.707L-77.0631 520.333L-77.312 520.507L-77.8843 520.557L-78.2078 520.284V519.836L-77.7848 519.885L-77.9341 519.662L-77.5857 519.288ZM-67.5828 511.923L-67.2593 512.197L-66.9109 512.097L-66.9358 512.321L-66.6123 512.645L-66.4381 512.694L-66.3635 512.595L-66.2889 513.142L-65.6419 513.192L-65.7166 513.466L-65.5673 513.515L-65.418 513.292L-65.0198 513.466L-64.995 513.739L-65.1443 513.839L-65.617 513.739L-65.6419 513.914L-65.2936 514.088L-65.2189 514.312H-65.0447L-65.194 514.536L-64.8456 514.635L-64.8705 515.083L-65.3433 516.402L-66.264 515.954V516.178L-65.5921 516.452L-65.5175 516.676L-65.8658 516.501V516.949L-66.2889 517.223L-66.3635 517.497L-67.3588 517.273L-67.3837 517.173L-67.6574 517.447L-67.757 517.273H-68.1053L-68.18 517.049H-68.4039L-68.4288 517.323L-68.2048 517.273L-67.9809 517.497V517.721H-68.2048L-67.9809 518.268L-68.1551 518.318L-68.2297 518.641L-68.5034 518.741L-68.8518 518.417L-68.9513 517.969L-69.3743 517.372H-69.7725L-69.8471 517.049L-69.5236 516.999L-69.872 516.626L-70.2701 516.899L-70.295 517.546L-70.6931 517.721H-71.0166L-71.1659 517.347L-71.564 517.024V516.75L-71.1659 516.153L-70.8176 515.929L-70.3199 516.029L-70.0711 516.253L-69.6481 516.203L-69.7227 516.103L-69.4739 515.929L-69.2001 515.979L-69.1255 515.805L-69.3495 515.581L-69.3246 515.307L-69.7973 515.257L-69.6481 514.984L-69.1504 515.083L-69.0758 514.909L-69.4739 514.585L-69.8222 514.685L-69.5983 514.362L-69.8471 514.038L-69.6232 513.491L-69.2997 513.316V512.595L-68.9513 512.271L-68.6278 512.446L-68.2795 512.396L-68.0804 511.948H-67.5828V511.923ZM-74.9481 511.599L-74.7241 511.823H-74.5002L-74.4256 512.047L-74.5998 512.645L-74.326 512.868L-74.127 513.366V513.69L-74.326 514.013L-74.5748 513.963L-74.6495 513.739H-75.0476L-75.1969 513.466L-75.5204 513.515L-75.5951 513.416L-75.2716 512.769H-74.9979L-75.4209 511.774H-75.1471L-74.9481 511.599ZM-63.7011 509.733L-63.5518 509.907L-63.4522 509.858L-63.4273 510.082L-63.7508 510.181V510.455L-63.3527 510.405L-63.1288 510.729L-63.3527 511.102L-63.6264 511.002L-64.0992 510.355L-63.7011 509.733ZM-63.1536 508.215L-62.9546 508.39V508.614L-62.6311 508.713L-62.5316 509.037L-62.1086 509.31L-62.1832 509.758H-62.432L-62.9048 509.111L-63.3029 508.887L-63.3278 508.514L-63.6015 508.464L-63.5766 508.29L-63.1536 508.215ZM-75.6199 505.951L-75.396 506.275L-75.4209 506.723L-75.0725 506.772V506.946L-74.749 507.046L-74.5002 507.768L-74.2763 507.817L-74.1767 508.041V508.415L-74.4007 508.688L-74.326 509.062L-74.4256 509.012L-74.6744 509.285V509.46L-74.3509 509.733L-74.4504 510.331L-74.55 510.43L-75.2218 510.38L-75.5453 510.878L-76.0181 510.977L-75.9932 510.704L-75.6448 510.604L-75.4706 510.331L-76.2171 510.281L-76.2918 509.907L-75.6199 509.808L-75.3711 509.484L-75.5204 509.435L-75.6697 509.609L-76.0678 509.335H-76.5655V509.111L-76.1425 508.39L-76.1176 507.792L-75.8688 507.842L-75.7692 507.568L-75.5204 507.519L-75.4955 507.146H-75.7195L-75.8688 506.822L-76.2669 506.723L-75.8688 506.076L-75.6199 505.951ZM-74.0274 505.727L-73.4551 505.777L-73.3805 506.051H-73.2063L-73.1068 506.324L-73.2809 506.424L-73.2561 506.747H-72.8579L-72.634 506.523L-72.3852 506.573L-72.0617 507.121L-72.2856 507.295L-72.1115 507.345L-72.0119 507.618H-71.788L-71.6387 507.394L-71.1659 507.568V508.016L-70.8424 508.24L-70.7678 508.564H-70.4443L-70.9171 509.708V510.032L-70.4443 510.206L-70.2203 510.604L-70.295 510.828L-70.7926 510.604H-71.2654L-71.4147 510.828H-71.8129L-72.1612 511.649L-72.4349 511.55L-72.6091 511.774L-72.9326 511.724V511.45H-72.6589L-72.5096 511.276L-72.4847 510.505L-72.5842 510.281H-72.9823L-73.1316 510.057L-73.2063 509.136L-73.6044 508.912L-73.5298 508.688L-73.1068 508.912L-73.0073 508.539L-73.5049 508.091H-73.6791L-73.9528 507.768L-74.0274 507.444L-74.5002 507.121L-74.749 506.349L-74.2265 505.628H-74.0026L-74.0274 505.727ZM-69.4241 504.906L-69.2748 505.08L-69.3495 505.528L-69.2001 505.478L-69.2748 505.926H-69.1255L-68.9762 506.2L-68.9513 506.598L-69.0509 506.772L-69.3743 506.723L-69.4739 506.548L-69.3743 506.1L-69.5485 506.051L-69.8222 506.275L-70.0959 505.777L-70.0711 506.374L-70.4692 506.648V505.653L-69.9466 505.279L-69.6978 505.503L-69.5485 505.006L-69.4241 504.906ZM-71.2654 504.408L-71.0415 504.682L-70.6931 504.732V504.956L-71.0415 505.404L-71.1908 505.354L-71.365 505.578H-71.564L-71.9621 504.856H-71.7382L-71.6636 504.533L-71.4894 504.433H-71.2654V504.408ZM-68.3541 503.488L-68.2795 503.662L-67.9311 503.762L-68.0058 504.209L-67.8316 504.433L-67.5081 504.657H-67.1598L-67.0602 505.379L-66.7865 506.051L-66.4381 506.374L-66.0898 506.424L-65.8658 506.2H-65.617L-65.4428 506.474L-65.1691 506.573L-64.6715 506.125L-64.4475 506.573H-64.2236L-63.9748 505.926H-63.5766L-63.1038 506.523L-63.1288 506.897L-63.5269 507.071L-63.5518 507.245L-63.9499 507.295L-64.0494 507.618L-64.3231 507.792L-64.5968 507.568H-65.2687L-65.617 508.24L-66.04 508.29L-66.7119 507.071L-67.2344 507.021L-67.4833 506.698H-68.6776L-68.7523 506.1L-68.6528 505.876H-68.4786L-68.4039 505.379L-67.8316 505.478L-68.0058 505.254L-67.9063 504.931L-68.1302 505.031L-68.4786 504.931L-68.1302 504.483L-68.4039 504.11L-68.3541 503.488ZM-67.3339 503.214L-67.1598 503.438L-66.7368 503.488V503.762L-66.5128 503.861V504.135L-66.8363 504.632L-67.0851 504.458L-67.0602 503.961L-67.3091 503.911L-67.4086 504.085L-67.5828 503.811L-67.6076 503.314L-67.3339 503.214ZM427.387 383.031L427.462 383.703L427.263 385.818L426.765 386.216H426.541L427.039 385.818L427.263 383.081L427.387 383.031ZM425.247 381.19L426.019 381.812L426.168 382.135L427.014 382.907L426.865 382.956L425.67 381.911L425.596 381.687L425.098 381.289L425.247 381.19ZM397.627 131.915L398.349 126.765L399.095 125.446H399.941L401.136 128.706L403.947 126.889L405.565 127.287L406.436 125.272L410.019 123.779L413.95 124.351L415.717 119.997L420.246 119.424L424.824 116.563L425.272 115.12L424.874 112.656L422.211 109.67L421.49 106.012L418.802 103.897L419.126 100.389L420.569 97.9754L419.972 95.7857L421.415 91.1327L423.903 92.4515L425.421 96.3581L427.512 97.4031L430.025 96.3083L433.135 92.7003L436.594 92.128L439.455 96.7811L440.898 100.688L448.065 102.927L450.304 102.653L453.639 97.1542L457.893 97.7763L459.785 96.2834L457.694 93.7204L458.441 88.2464L459.187 86.8777L465.533 86.5294L461.924 93.9444L463.617 96.2336L466.702 93.6458H471.057L476.257 95.2633L483.896 89.8636L487.554 88.9928L490.565 89.6894L492.406 88.7688L495.641 89.4656L500.145 93.6458L501.638 93.596L502.484 91.2322L502.16 88.1218L499.498 84.2154L497.507 83.1702L497.606 82.2496L500.194 80.1097L503.927 80.9805L508.455 74.7599L511.068 73.3168L513.731 76.7008L516.418 77.6214L517.587 81.7022L521.693 88.7688L523.883 89.6398L528.486 88.8933L529.631 89.6894L526.819 94.9645L524.555 97.4281L524.48 98.498L523.908 103.624L528.76 106.535L529.581 107.68L529.556 109.297L525.301 113.751L526.396 117.085L523.808 119.325L521.519 125.048L521.096 136.991L517.264 141.57L519.379 144.133L520.972 150.528L521.469 156.002L525.152 159.759L525.55 161.128L524.903 162.347L520.548 161.352L520.126 163.292L520.474 167.099L524.231 170.906L523.559 175.161L521.27 177.5L521.594 183.024L522.489 183.995L525.251 183.895L530.85 193.774L533.189 194.346L534.209 200.168L537.494 205.792L540.33 207.832L541.251 211.341L541.151 213.033L537.145 214.177L535.876 215.82L539.708 222.886L544.212 225.2L544.361 227.589L545.78 229.729L545.63 232.043L540.554 232.615L541.4 238.164L538.962 243.638L540.405 248.316L539.061 249.834L533.786 247.246L531.198 248.316L529.332 251.128L527.64 252.024L520.947 250.829L518.931 251.501L520.349 257.871L524.206 264.739L525.127 269.068L524.48 273.846L527.516 275.712L528.411 277.504L527.217 282.007L528.635 288.477L528.411 292.533L530.85 294.1L531.621 295.892L529.208 298.355L528.461 300.495L531.223 304.078L529.83 307.562L524.157 309.478L522.141 308.582L518.682 304.476L513.258 303.854L509.924 302.113L504.3 300.868L500.891 297.559L499.647 297.957L498.303 300.495L496.91 300.222L497.407 298.604L496.885 298.281L489.544 299.55L486.534 301.814L491.983 310.797L495.491 314.653L497.681 315.052L500.941 312.862L505.022 313.708L504.2 318.535L500.667 321.397L501.488 326.547L504.947 326.174L506.166 333.44L504.823 335.953L504.474 339.362L505.718 343.318L507.41 346.08L513.979 344.214L514.477 344.712L514.079 348.967H521.419L522.066 352.799L519.603 352.351L519.379 352.575H517.314L515.622 352.898L514.353 353.669V353.844H514.203V354.167L513.706 354.839L513.357 354.938V355.486H513.208L513.133 356.108L512.71 356.78V357.103L512.287 357.427H512.014L511.591 357.153L510.098 356.655H509.675V356.556L509.326 356.606L506.987 356.058L506.34 356.108L505.768 355.834L504.623 355.884L504.126 355.71L502.484 355.76L501.911 355.66L500.344 355.934L499.572 355.884L499.373 356.058H498.801L497.656 356.382L497.159 356.332L496.238 356.73L494.745 357.053L493.6 357.601L493.526 357.825L492.331 358.223L491.635 358.845L490.913 359.119V359.293L489.843 360.064L489.768 360.338L489.271 360.736L488.922 361.358L488.151 361.98L488.002 362.478L487.728 362.577L487.653 362.851L487.156 363.125L487.081 363.349L486.583 363.299L486.235 362.975V362.528L486.807 362.254V362.03L487.006 362.204L487.429 362.154L487.579 361.98L487.852 362.03L488.201 361.706V361.532L488.698 361.259L488.848 360.637L488.698 360.587V360.189L488.275 359.865L488.201 359.591L488.051 359.542L487.852 359.716L487.628 359.442L487.429 359.492L486.857 358.596L486.633 358.646V358.87L486.359 359.144L485.936 359.193L486.285 358.745L486.21 358.422L486.559 358.472L486.708 358.074L486.285 357.526L486.011 357.75V357.974L486.21 358.074L486.061 358.248L485.638 358.024L485.439 357.7L485.215 357.8V358.024H485.016V357.8L484.792 357.576H485.066L485.215 357.253L485.563 357.153V356.83L484.991 356.78L484.22 356.954L484.02 357.452L484.095 357.551L483.672 357.875H483.523V357.476L482.751 357.526L482.602 357.7L481.831 357.476V357.875L482.03 358.148H481.681L481.607 358.472L481.035 358.522L480.338 358.422L480.114 358.248V357.85L478.198 357.8L477.924 357.626H477.501L477.003 357.352L476.78 356.954L475.71 356.68L475.361 356.357H475.088L474.864 355.959L474.515 356.058L474.441 356.183L474.665 356.282L474.316 356.382V356.705L474.465 356.805L474.117 356.755L473.968 356.531H473.619L473.694 356.431L473.42 356.332H472.773L472.201 356.556L471.629 357.228L471.554 357.551L471.28 357.725V358.049L471.554 358.273L472.201 358.322L472.276 358.497L471.703 358.945L470.708 358.845L470.932 359.069L470.783 359.741L470.932 360.288L470.509 360.388L470.285 360.786L470.36 360.885H470.161L470.086 360.711L469.738 360.811L469.812 360.985L470.036 360.935L470.186 361.109V362.105L469.912 362.329L470.484 362.378L470.708 362.204L471.206 362.428L471.977 362.204L472.624 361.657V360.985L472.898 360.661L473.047 359.99L474.739 359.218V358.77L475.013 358.447L475.585 358.273L476.78 358.322L477.203 359.044L477.85 359.367V359.691L477.65 359.741H477.227L476.954 359.193H476.381L476.182 359.467V359.567H476.456V359.89L476.804 360.114L477.028 360.612V361.159L476.879 361.209L477.103 361.433L477.028 362.279L476.307 362.727L475.958 363.274L475.61 363.374L475.535 363.772H474.54L474.266 364.17L474.764 363.996L475.834 363.946L476.182 363.324L476.829 363L476.904 363.398L476.755 363.498L476.904 363.598V363.921L476.556 364.469V364.916L476.755 365.016L477.028 364.742L477.103 364.344H477.252L477.402 363.498L478.248 363.175H478.745L479.318 363.622V364.07L479.542 364.17V364.269L479.119 364.444V364.618L480.039 364.568V364.742L480.736 365.016V365.115L480.039 365.339L480.114 365.787L480.686 365.887L480.612 366.285L480.761 366.335L481.109 366.285L481.035 365.837L481.383 365.389L482.03 364.991L482.378 364.493L482.801 364.394L482.876 364.668H482.727L482.304 365.215L482.229 365.837L482.503 365.937V366.161L483.647 366.608L483.224 367.006L482.801 367.056V367.28L483 367.454V367.181H483.349L483.498 366.957H483.772L483.971 367.28L484.12 367.23L484.045 366.832L484.195 366.733V366.235L483.971 365.912L484.891 365.638L485.165 364.966L485.364 365.016V365.19L485.712 365.14L485.986 364.817L486.26 364.095L486.484 363.996L486.832 364.543V364.817L487.405 365.041L487.554 365.314L486.285 368.052L486.136 369.669L486.359 369.843L486.633 370.614L486.982 370.714L487.554 371.56L489.544 371.336L489.893 371.51L489.744 372.132L489.171 372.68L488.748 373.675L487.255 374.073L486.683 374.521L486.111 375.243V375.516L485.613 376.238L485.538 377.283L485.737 378.005L486.16 378.278L486.384 377.955H486.583L486.434 378.129L486.509 378.229H487.355L487.205 378.502L486.434 378.95L486.359 379.498L486.136 379.721L486.21 380.568L486.434 380.792L486.285 381.065L485.936 381.115L485.29 381.662L484.095 381.563L481.184 381.787L479.417 381.563L479.069 381.737H478.422L477.427 382.06L476.705 382.11L476.133 382.882L475.287 383.504L475.137 383.827L474.416 384.151L473.42 384.325L473.147 384.549L472.724 384.499L472.45 384.275V384.051L472.102 383.653V382.931L471.903 382.707L471.753 381.812L472.027 381.364L471.952 381.14H471.679L471.529 381.364L470.609 381.414L470.335 381.09L470.26 380.767L469.489 380.941L467.722 380.269H467.15L466.652 380.543L465.881 380.095L465.383 380.045L464.612 379.323L463.542 378.826L463.318 378.428L463.542 377.656L462.97 377.333L462.472 377.507L462.323 377.781H461.626V378.054L461.352 378.154L461.278 377.756L460.78 377.582L460.705 377.308L459.984 376.76L458.565 377.084L457.147 376.91L456.799 376.736L456.226 376.835V376.611L456.575 376.387L456.5 376.114L456.077 375.715L455.156 375.317H454.509L454.285 375.492L453.564 375.317L453.215 375.641L452.867 375.74L451.723 375.84L451.573 375.939L451.648 376.387L450.951 376.437L450.802 376.611L448.961 376.561L448.737 376.462L448.886 376.014L448.538 375.84L448.264 376.014V376.337H448.065L446.646 376.064L446.422 375.666L446.074 375.492L445.153 375.392L444.88 375.566L444.606 375.342H442.989L441.794 374.894L441.147 374.845L441.073 374.67L438.734 374.77L438.51 374.546L437.863 374.322L437.017 373.327L436.171 373.277L434.976 373.6L434.553 373.426L433.483 373.526L432.065 372.978L431.642 372.655H430.796L430.647 372.481L430.298 372.53L429.801 372.356L428.606 372.63L428.109 372.904L428.034 373.177H427.81L427.536 372.854L426.765 372.68L426.541 372.456L426.043 372.506L424.973 373.177L423.63 374.571L423.48 375.019L423.207 375.193L422.858 375.74L422.361 376.96V377.507L422.585 377.831L423.082 377.557L423.505 377.607L423.58 377.781V378.328L422.659 378.776V379.05L422.858 379.149L422.933 379.423L424.849 380.194L424.998 380.368L424.849 380.418L422.659 379.523L421.515 380.194L421.291 380.692L420.644 381.19L420.495 381.961L420.072 382.633L420.271 383.479L420.694 384.474L420.843 384.524L420.992 385.071L421.266 385.295L422.112 385.469L422.684 386.141L422.958 385.868L424.103 385.693L424.177 385.519H424.451L424.725 385.245L425.073 385.295L424.874 385.843L425.596 385.967L425.944 385.743L426.168 385.793V385.892L425.521 386.116L425.446 386.39L425.72 386.564L425.994 387.236L426.267 387.46V387.784L426.466 387.958V388.505L426.964 389.003L427.113 389.625L426.84 390.073L426.765 391.192L425.994 391.74L425.844 392.013L425.496 392.063V392.238H425.347L425.197 392.735L424.973 392.785L424.824 393.108L424.252 393.606V394.328L423.53 395.099L423.381 395.597L422.037 396.592L421.838 396.99L421.415 396.891L421.141 396.343L421.415 395.074L421.764 394.626L421.689 393.407L421.913 393.009V392.188L422.062 391.964V391.74L421.639 391.118L421.913 390.496L422.261 390.172L422.336 389.625L422.187 389.525V389.127L422.759 388.231V387.833L422.411 387.211L421.266 386.042L420.992 385.544L420.271 384.872V384.698L419.574 384.2L419.425 383.877L418.653 383.255L418.305 382.707L417.807 382.434L417.086 381.538L415.468 380.145L415.394 379.921L413.627 378.527L413.552 378.303L412.781 377.756L412.632 377.482L407.033 372.978V372.804L402.853 369.52L400.588 367.952L397.752 366.235L397.528 365.961H397.329L395.263 364.668L394.915 364.269L389.814 361.358L389.391 361.259L387.898 360.263L386.405 359.492L386.057 359.442L385.783 359.218V359.044L384.166 358.372L383.245 357.825L382.598 357.775L382.449 357.377L382.25 357.277L381.603 357.228V357.053L381.105 356.78H380.757L380.682 356.606L380.11 356.332L378.915 355.934L377.845 356.033L377.422 355.76H376.999L376.427 355.983L375.73 355.436L374.959 355.262L374.685 354.988L373.615 354.764H373.043L372.819 354.988H372.62L371.426 354.59L371.152 354.316L370.157 353.918L369.087 353.819L365.827 352.923L365.056 353.022L364.981 352.848L363.911 352.749L363.563 353.022L362.717 353.072L362.443 353.172V353.346L361.871 353.52L361.522 354.067L361.448 354.515L360.726 354.739L360.452 355.013V355.337L360.726 355.66L359.755 355.61L359.009 355.884L358.661 356.431L357.815 356.979L356.67 356.929L356.247 357.7L355.6 357.75L354.605 358.646L353.535 358.372H352.962L352.539 359.094L351.27 359.591L350.076 359.815H349.155L344.826 358.969L342.636 358.92L341.865 359.193L341.715 359.815L341.442 359.915L341.367 360.313L340.944 360.263L340.795 360.363L340.645 361.433L340.297 362.503H338.953L337.311 362.179L336.117 362.13L334.773 362.304L334.624 362.478H334.051L333.778 362.652H333.131V362.553L332.484 362.378L331.837 362.428L331.489 362.652L328.727 362.602L327.806 362.702L327.532 363.025L327.109 363.2L326.114 363.15L322.705 363.822L321.635 364.22L321.137 364.543L319.794 364.817L319.719 365.041L318.724 365.364L318.45 365.762L318.525 365.986L318.301 366.608L317.38 367.23V367.554L317.032 367.877L316.758 367.927L316.833 368.425L316.186 368.748L316.26 369.968L315.688 370.814V371.361L315.34 371.585L315.19 372.033L314.27 373.078L314.195 373.352H313.971L313.548 373.75L311.98 373.65L311.259 373.874L310.761 374.198L308.994 374.869L308.721 375.143L308.148 375.317L307.651 375.765H307.427L306.655 376.537V376.81L306.855 377.084L306.78 378.253L306.431 378.079L306.083 378.179L305.934 377.557L305.013 377.656L304.516 377.98L303.097 378.079L302.823 377.582L300.285 377.184L299.788 376.412L298.295 376.238L298.071 376.014L297.996 375.74L298.195 375.516L299.191 375.292V373.277L299.041 372.953L298.618 372.68V372.282L298.419 372.182V371.635L297.15 370.366V369.868L296.951 369.768L297.1 369.445L296.901 369.221L296.827 368.45L296.329 367.728L296.254 367.181L295.906 366.783L295.707 365.837L295.359 365.514L295.209 365.066L294.936 364.892V364.344L294.662 364.07L294.314 364.568L293.741 364.469L293.816 364.294L293.393 364.07L293.244 363.896L293.318 363.622L292.895 363.224V364.22L293.045 364.493L292.97 365.215L292.821 365.314L292.97 367.255L293.244 367.653L293.592 367.703L294.09 368.027L294.587 369.37L294.861 369.768V370.49L294.712 370.664L294.786 371.51L295.135 371.908V373.252L295.284 373.352V373.75L295.433 374.023L295.657 374.073L295.508 374.247V375.591L295.583 376.362L295.782 376.636V378.577L296.205 378.751L296.279 378.477L296.702 378.303L296.852 378.029L297.623 377.482L297.474 377.308L297.623 377.034L298.121 376.86L298.27 376.96V377.582L297.996 378.079V378.353L297.499 378.851L297.076 379.025L297.001 379.348L296.503 379.672L296.279 380.169L295.856 380.568L296.006 381.115L295.732 381.165L294.886 381.787L294.612 382.185L294.189 382.409L293.766 383.081L293.343 383.305L293.418 383.578L293.144 383.678L292.945 384.076L292.721 387.087L292.522 387.261H291.95L291.377 387.808L291.029 388.704L290.531 388.978L290.108 389.874L289.536 390.496L289.735 390.769H289.461L289.387 391.043H289.188L288.839 391.441H288.69L288.839 391.267V390.595L288.64 390.421L287.446 390.247L286.451 390.471L285.605 390.073H284.609L284.037 390.396V390.57L282.843 390.471L282.569 390.695L282.42 390.521L281.847 390.62L281.424 390.396L280.927 390.446L280.28 390.993H279.011L278.588 391.267V391.441L278.165 391.541V391.864L278.662 391.914L278.886 391.74H279.807L281.424 391.466L282.071 391.143H282.42L282.569 391.367L283.141 391.416L283.489 391.64L283.639 391.242L284.485 391.342L284.559 391.242H285.629L285.978 391.018L286.127 391.192L287.968 391.018L288.466 391.242L288.615 391.566L289.312 391.74L289.387 392.063L289.188 392.163L288.765 392.835V393.382L288.541 393.556L288.342 394.178L288.416 394.352L288.217 394.676L288.292 394.776L288.068 394.95L287.869 395.995L287.72 396.044L287.869 396.368H287.72L287.645 396.915L287.371 397.139L287.521 397.96L287.247 398.135V398.906L287.396 399.006V399.279L287.172 399.777L287.321 400.399L287.098 401.344L287.172 401.892L287.321 401.991L286.973 402.39V402.887L287.396 403.385L288.242 403.485L288.391 403.758H288.74L288.939 404.082L289.213 404.131L288.989 404.405L288.64 404.505L288.715 404.952L288.989 405.127L289.909 405.226L290.183 406.346L290.531 406.62H290.954L291.029 406.446H291.228V406.943L291.029 407.341L290.382 407.291L290.108 407.739L288.192 407.466L287.695 407.864L287.471 408.411L287.272 408.361L286.998 408.585H286.65L286.003 408.312L285.853 407.914H285.132L284.858 407.69L284.933 407.142L284.51 406.819L284.161 406.869L283.738 407.192L283.664 407.814L283.091 408.088V408.411L283.241 408.511L283.166 408.909L282.519 408.959L282.096 409.232L282.171 409.407L281.947 409.904L281.449 410.526V411.347L281.25 411.397L281.101 412.019L281.325 412.193L281.25 412.641L281.598 412.691L282.096 413.089V413.711L281.325 413.761L281.175 414.159L281.325 414.433L281.25 415.204L281.449 415.428H281.673L281.822 415.752V415.926L281.623 415.975V416.249L281.972 416.423L281.897 416.747L282.046 417.07L281.847 417.12L281.698 417.842L281.897 418.165L282.544 417.941L282.818 418.165L283.042 418.787H283.39L284.112 418.389L285.182 418.29L285.903 418.688H286.326L287.098 419.509L287.371 419.459L287.57 419.185H287.844L288.192 419.409L289.038 419.011L290.531 419.111L290.954 419.21L291.104 419.434L290.954 419.708L290.233 419.882L290.307 420.554L289.959 420.604L289.81 420.778L289.959 421.101H289.188L288.839 421.5L288.416 421.674V422.271L289.138 422.445L289.412 422.769L289.337 423.167L287.919 423.44L287.844 423.938L287.272 424.212L286.849 424.759L286.774 425.306L287.197 425.406V425.63L286.774 425.804L286.849 426.476L286.351 426.65V427.422L286.202 427.645V427.869L286.699 428.044L286.973 428.492L286.898 429.263L286.625 429.437L286.699 429.835L286.5 430.109H286.301V430.333L285.654 430.432L285.455 430.706L284.883 430.532V430.806L284.684 430.98V431.602L284.41 431.701L284.559 431.925L283.216 432.323L282.867 431.602L282.295 431.776L281.947 431.552L281.872 431.054L281.225 431.005L280.802 430.781V430.507L280.454 430.059L279.732 430.009L279.458 429.835L279.384 429.213L279.583 429.039L279.384 428.939L279.533 428.765V428.317L279.807 428.218V427.82L279.583 427.72L279.434 427.222L279.085 426.899V426.401L278.812 426.352V426.028L279.035 425.705L278.886 424.261L278.612 423.814H278.389L278.239 423.59H277.965L277.891 423.366L277.543 423.142H277.194L277.045 422.868L277.468 422.594L277.393 422.495L277.617 422.321L278.314 421.997L278.538 421.549L278.886 421.5L278.961 421.002L278.04 420.728L277.816 420.778L277.617 420.454L275.701 420.554L275.204 421.002L274.706 420.952L274.358 420.728V420.405L274.009 419.957L273.437 419.733L272.939 419.832L271.795 419.335V418.937L272.143 418.837V418.514L271.72 418.016L271.297 417.966L270.6 418.364L270.028 418.265V418.041L270.6 417.717V417.22L270.376 417.045L269.68 416.946L268.759 417.22L268.834 417.319L270.326 417.22L270.401 417.667L269.903 417.941L269.829 418.339L270.824 418.613L271.322 418.29H271.67L271.819 418.389V418.663L271.62 418.762L271.396 419.384H270.973L270.625 419.658L270.476 420.056L268.983 420.28L268.485 420.454V420.629L270.55 420.23L270.7 419.957L271.048 419.783L272.043 419.832L272.466 420.38L272.889 420.653L272.964 420.977H273.387L274.805 421.599L275.378 421.549L275.029 421.873V422.271L275.303 422.221L275.378 421.823L276.298 421.002L276.448 421.226L276.871 421.325V422.097L276.522 422.694L276.796 422.744V423.192L276.945 423.291L277.443 423.391L277.667 423.938L278.314 424.162L278.588 424.436L278.737 425.108L278.588 425.207L278.438 426.202L278.239 426.376L278.165 426.775L277.941 426.949L277.667 426.899L276.672 427.67L276.945 427.72L277.294 427.272H278.015L278.289 427.098L278.787 427.148L279.011 427.372L279.359 428.193V428.815L279.21 428.914V429.313L279.06 429.362V429.91L279.633 430.507L280.628 430.855L280.553 431.453L280.628 432.075L280.777 432.174V432.572H280.578L280.23 432.846L280.155 433.244L279.881 433.344V433.617L280.081 433.667V433.841L279.807 434.165H279.533L279.259 434.439L278.986 434.215L278.214 434.389L277.99 434.165L276.796 434.936V435.384L275.801 435.558L275.154 435.384L274.656 435.707L274.581 436.155L274.233 436.379L274.158 436.777L273.586 437.275L273.437 437.599L272.168 438.42L270.973 440.584L270.127 442.899L269.854 444.665L269.704 444.715L269.555 446.805L269.356 446.905V447.228L269.207 447.278V448.049L269.057 448.149L268.908 449.144V450.363L268.709 450.861L268.784 452.528L268.983 452.976L269.754 454.071L271.098 454.618L270.949 455.066L270.451 454.842H270.028L269.331 455.39L269.256 455.614H268.759L268.485 455.066L267.788 455.24L266.295 454.917H265.649L265.499 455.24L265.002 455.415L264.852 455.962L264.28 456.136L263.932 456.634L263.011 456.957L263.086 457.505L262.439 458.226L261.792 458.052L261.443 458.102L261.17 458.276L260.896 458.774L260.473 458.873L260.398 458.425L260.174 458.326L259.975 457.878V457.604L259.826 457.554L259.677 457.778L259.254 457.679L259.104 457.505V457.107L258.831 457.007L258.756 456.46L258.557 456.285L257.711 456.111L257.288 455.838L257.437 455.738L257.362 455.638L256.019 455.464L255.67 455.191L254.899 455.141L254.551 454.867H254.352L254.078 454.32V454.046L254.426 453.648L254.277 453.374L254.775 453.275L254.849 452.777L255.123 452.603L255.198 452.23L255.397 452.18V451.906H256.044L256.317 451.632L257.736 451.583L257.885 451.359L258.233 451.259L258.582 451.309L259.005 451.632L259.278 451.583L258.358 451.035L258.855 450.936V450.712H258.507L257.661 451.16L256.392 451.384L256.193 451.209V449.94L256.541 450.115L256.616 449.841L256.044 449.119L256.467 448.671L257.039 448.621L257.313 448.721L257.114 448.223L257.387 447.676L257.96 447.726L258.109 447.9L258.756 447.85L258.557 447.527L257.711 447.477L257.562 447.253L258.059 446.979L259.204 446.929L259.552 446.656L259.627 446.158L259.129 446.656L258.482 446.706L257.562 447.029L256.915 447.701V448.298L256.268 448.472L255.994 448.199L256.566 447.751L256.417 447.203L256.218 447.154L256.143 447.328H255.944L255.447 447.154L255.596 446.059L255.82 445.835V445.163L255.596 445.063L255.67 444.74L255.397 444.69L255.322 445.088H254.974L254.327 444.541L254.252 444.143L254.103 444.093L254.028 444.541L254.227 444.989L254.078 445.387L254.501 445.437V445.835L254.775 446.059L254.924 446.457V447.054L254.65 447.377H254.227L253.954 447.054H253.73V447.651L254.003 447.751L254.153 448.024L252.585 448.124L252.51 448.298H254.128L255.272 448.522L255.347 449.119L255.994 449.667V449.94L255.795 450.164V450.985L255.994 451.085V451.408H255.496L254.999 450.737L254.725 450.637L254.65 450.737L255.223 451.284L254.999 451.508L255.223 451.782L255.073 452.18L254.078 453.001L253.804 453.548L253.307 453.449L253.232 453.275L253.083 453.324L253.232 453.822L252.734 454.096L253.008 454.146L253.356 454.469V454.693L253.132 454.792V455.116L253.356 455.439L253.207 455.713L253.282 456.037L252.51 456.31V456.758L252.784 456.858V457.256L252.436 457.156L252.361 457.38H252.162L251.963 457.33L251.814 457.057H251.117L250.893 456.833L250.744 456.285L248.977 456.335L248.405 456.161V455.937L247.758 455.838L247.559 455.39L247.36 455.34L247.136 454.668L246.563 454.394L246.29 454.071V453.847L245.095 453.175H244.448L243.801 452.404L243.602 452.503L242.955 452.404L242.259 451.583L241.91 451.483L241.985 451.209L241.637 451.035V450.587L241.86 450.762L242.06 450.662L243.129 450.712L243.204 450.388L242.98 450.289V450.065L243.129 450.015L242.98 448.298L243.403 447.85V447.129L243.204 446.855H242.98V446.457L242.831 446.283L242.259 446.606L241.91 446.507L241.985 445.785L241.214 445.685V445.412L240.517 444.864L240.591 444.69L240.392 444.64V444.143L240.119 443.919L240.193 443.745L240.766 443.794V443.346L240.567 443.247L240.641 442.923L240.915 442.874L240.99 443.272L241.338 443.446H242.109L242.333 442.824L242.408 441.928L243.329 441.157L243.975 441.107L243.901 441.007H243.329L243.179 440.46L243.03 440.41V439.863L243.528 439.415L243.951 439.315L244.224 438.644L244.647 438.146L244.498 438.096L244.299 438.27L243.801 439.216L243.304 439.266L242.955 439.49L242.881 440.485L243.08 440.883V441.207L242.234 441.928L241.96 443.197L241.736 443.371L241.238 443.272L241.039 442.774L240.691 442.5L239.994 442.6L239.571 443.098L239.223 442.923L238.875 443.098L238.601 443.048L238.178 442.5L238.252 442.227L238.452 442.127V441.903L238.178 441.679L238.029 441.853H237.755V441.58L237.605 441.48L236.959 441.381L237.108 441.281L237.033 441.057L236.685 441.107L236.536 441.007L236.685 440.759L235.963 440.734L235.814 440.336L234.047 440.286V440.609L233.774 440.784V440.46L233.201 440.236L233.052 440.012L232.704 440.236L232.281 440.186L232.206 439.639L232.405 439.365L232.256 439.266L231.907 439.315L231.833 439.141L231.907 438.146L232.554 437.648L232.405 437.325L232.753 437.151L232.977 436.429L233.251 436.031L233.475 434.986L233.624 434.936L233.425 434.837L233.351 434.513L233.425 433.841L233.624 433.742L233.55 433.568L233.201 433.841L233.052 434.165L233.251 435.21L232.753 436.603L232.405 436.777V436.952L231.907 437.4V437.723L231.26 437.773L231.111 438.171L230.962 438.121L230.887 438.345L230.464 438.519L230.19 438.917L229.767 438.868L229.618 438.469L229.344 438.693L229.071 438.295L228.648 438.395L228.225 438.171H227.453L226.956 438.345L226.806 438.121H226.159L226.01 438.519L225.861 438.42L225.662 438.519L225.736 438.843L225.313 438.892L225.164 439.116H223.97L223.771 438.942L223.621 439.216H223.273V439.49L223.049 439.664L223.124 439.937L222.974 439.888L223.049 440.286L222.626 440.609L222.352 440.659L222.079 440.261L221.506 440.485L221.581 440.584L221.307 440.684L221.233 440.908L220.884 440.958L220.735 440.908L220.81 440.808L220.312 440.908L220.163 440.634L219.665 440.858L219.74 440.759H219.466L219.317 440.584H218.67L218.52 439.987L218.097 440.161L217.824 439.937L217.625 439.44L216.853 439.042L216.58 439.141L216.306 438.818L216.156 438.917L215.659 438.868V438.594L216.082 437.648L216.231 437.549H217.077L217.152 437.225L217.351 437.126L217.774 437.225L218.197 437.549H218.471L218.695 437.449L218.844 436.952H219.341L219.565 437.176L220.138 437.076L220.063 436.976L219.64 437.026L219.366 436.802L218.595 436.753V435.807L219.167 435.309L219.441 434.762V434.14L219.715 433.966L219.939 433.344L220.586 432.846L221.581 432.398L221.656 432.075L222.8 431.453V431.278L222.452 431.453L222.178 431.403L221.481 431.801H221.133L221.058 431.477L221.332 431.253H221.058L220.486 431.925L220.337 432.473L220.063 432.523L219.715 433.468L219.217 432.921L219.292 432.746L218.943 432.572V431.95L219.093 431.776H218.819L218.744 432.547L218.894 432.821L219.466 433.269V433.99L219.043 434.389V435.21L218.471 435.832V436.653L218.62 436.753L218.471 437.2H218.122L217.848 436.877L216.505 437.151L216.43 436.653L215.783 436.379H215.211L214.713 435.931L214.017 436.205L213.594 436.031L213.245 436.131L212.524 436.031L212.101 436.529L211.255 436.354L210.981 435.956L211.056 435.633L210.284 435.533L210.135 435.21L210.209 434.812L209.936 434.488V433.941L210.284 433.617L210.209 433.02L210.01 432.846L210.085 432.298L209.388 432.398L209.164 432.174L209.09 430.955L209.438 430.457L209.637 430.408L209.911 429.412H209.762L209.687 428.964H209.538L209.388 428.516L208.891 427.969L208.617 427.869L208.542 427.596L208.692 427.496L208.542 427.447H209.239L209.513 427.894H210.284L210.359 427.571L210.906 427.621L211.354 427.297L211.429 426.401H211.578L211.503 426.177L211.727 426.128V425.854L212.3 425.232L212.723 423.639L214.066 422.918L214.216 422.694L214.489 422.744L214.639 422.196H214.141L213.917 422.42L212.922 422.744L212.424 423.067L211.926 423.739L211.852 424.237L211.653 424.336L211.727 424.56L211.454 424.884V426.003L211.18 426.227L211.031 426.949L210.757 427.048L210.682 427.272L209.762 427.173V426.949L209.488 426.725L208.916 426.775L208.841 426.352L208.567 426.277L208.343 426.451L208.418 426.949L208.194 427.048L207.622 426.874H206.701L206.626 427.098L206.278 427.198L205.855 426.974L205.507 427.297L204.86 427.247L204.661 427.347V427.745H204.238L204.088 427.123L204.586 426.899L204.661 426.725L204.511 426.327L204.238 426.103V426.824H204.014L203.815 426.501L203.665 426.551L203.466 426.376L203.043 426.551H202.272L202.197 426.227L201.7 426.128L201.774 425.73L201.923 425.779V425.555L202.197 425.506L201.923 425.282L202.073 424.062L201.799 423.789L201.948 423.565L201.675 423.291V422.968L201.401 422.744L201.476 422.52L201.252 422.246V421.798L200.903 421.574L201.053 421.251L200.704 421.201L200.63 421.101L200.829 420.927H200.63L200.207 420.479L199.634 420.255V420.031L199.41 419.982V419.534L199.684 419.26L199.609 418.713L199.808 418.489V418.041L200.455 416.921L200.306 416.747L200.381 416.473L200.605 416.423L200.53 416.15L200.679 416.05L200.605 415.826L200.878 415.105V414.607L201.376 414.557L202.023 414.881L202.67 414.93L202.595 414.607L201.326 414.06L201.252 413.661L201.525 413.711L202.098 413.537L202.446 413.039L203.367 412.368V412.044L203.566 411.945L203.839 411.223L204.188 411.173L204.387 410.775L204.238 410.327L204.511 410.277V410.053L204.785 409.655L204.71 409.332L205.059 409.232L205.556 408.61L205.706 407.615L205.556 407.391L205.407 407.441L205.482 407.764L205.208 408.312L204.86 408.536L204.511 408.361L204.362 408.809L204.213 408.76L203.939 409.207H203.74L203.815 409.481L203.591 409.531L203.665 409.854H203.516L203.441 410.402L203.093 410.8L203.018 411.347L202.371 411.895L202.098 412.392L201.6 412.666L201.102 412.442L200.903 412.119V411.497H201.053V411.322L200.48 410.999L199.983 410.452L200.132 410.352V409.68L199.908 409.506L199.983 408.785L199.759 408.735V408.337L199.186 407.714H198.962L199.037 407.491L198.888 407.441L198.738 406.943L198.515 406.893L198.365 406.446L197.669 405.724H197.395L196.823 406.047V406.321L196.325 406.819L196.524 407.092L196.375 407.192L196.449 407.914L196.176 408.138H195.902L195.33 407.864L195.056 407.316L195.28 406.197L196.051 405.475L196.972 405.077L197.395 404.753L197.544 404.53L197.345 404.48L196.922 404.928L195.927 405.375L195.155 406.047L194.956 406.495L194.882 407.316L195.454 408.212L196.3 408.312L196.723 407.914L196.798 407.192L197.221 406.57H197.868L198.067 406.968L197.992 407.291L198.216 407.391L198.141 407.565H198.291L198.49 407.963V408.859L198.639 408.909L198.714 409.531L198.863 409.63L198.714 410.253L198.913 410.302L199.261 410.8L199.535 410.85V411.123H199.186V411.223L200.107 411.994L200.032 412.392L199.609 412.94V413.388L199.385 413.612L197.768 413.562L197.494 413.786L197.569 414.109L197.146 414.209L196.723 413.537H196.524V413.711L197.096 414.383H197.445L198.017 414.06L198.738 414.159V414.433L198.515 414.657L198.664 414.831L198.589 416.598L199.162 417.269L199.236 417.991L199.087 418.314L198.589 418.489L198.738 418.588V418.986L198.465 419.658H198.116L197.843 419.932L196.773 420.156L196.847 420.604L196.623 420.778L196.126 420.728L196.2 420.504L195.927 420.405L195.777 420.853L195.081 420.902L194.658 421.226L194.807 421.5L194.235 421.599L194.16 421.873L194.309 422.047L193.961 422.495L193.115 422.669V422.843L192.194 422.296L191.348 422.072L191.075 422.52L191.149 422.793L191 423.192L191.149 423.241V423.515L190.801 424.187L190.229 424.087L190.029 423.639L189.382 423.092L189.233 422.694L189.308 422.52L189.034 422.296L189.109 422.196L188.835 422.246L188.611 421.748V420.703L188.76 420.604H188.487L188.213 421.599L187.566 421.549L187.143 421.276V420.728L187.417 420.23L187.268 419.733L187.193 419.633L186.621 419.733L187.118 420.006L187.044 420.405L186.844 420.629L186.994 420.853V421.798H187.641L187.914 422.246L188.412 422.569V422.744H188.91L189.333 423.515L189.756 423.739L190.328 424.635H190.751L191.025 424.411L191.746 424.461L191.945 424.237L192.443 424.137L192.642 424.311L193.364 424.212L193.712 424.311L193.861 423.988H194.359L194.508 423.664L195.155 423.341L195.23 422.893L195.578 422.719L195.504 422.097L196.001 421.425L196.847 421.599L197.345 421.201L197.494 421.251L197.644 421.077L197.992 421.027V420.927L198.191 421.027L198.465 420.853L198.813 420.902L199.311 421.674L199.808 421.723V422.122L199.535 422.171L199.261 421.997L199.037 422.047L198.962 422.321L199.46 422.37L199.684 422.644L200.107 422.694L200.381 422.968V423.192L199.609 423.515L200.455 423.689L200.53 423.963L200.754 423.863L200.679 424.037L200.878 424.087L201.028 424.411V424.684L200.804 424.784L200.878 424.884L200.729 425.108L200.306 425.381L199.535 425.331L199.261 425.108L199.186 425.381L198.042 425.655V425.829H197.843L197.917 426.003L197.693 426.177H197.544V425.953L197.046 425.904L196.325 426.451H195.678V426.625L196.599 426.675L196.673 426.775L197.32 426.675L197.469 426.849H197.818L197.892 427.173L197.669 427.397L198.091 427.571L198.241 428.392L198.515 428.069L198.44 427.521L199.012 427.471L199.162 427.148L200.505 427.546L200.58 427.82L200.356 428.093L200.58 428.492L200.505 428.939L199.808 429.114L199.734 429.736L199.584 429.785H199.311V429.512L199.037 429.462L199.261 429.785L199.186 430.009L199.46 429.91L199.535 430.084L200.256 429.586L201.028 429.362L201.102 429.139L200.878 429.188L200.804 428.914L201.301 428.392L201.525 428.417L201.799 428.143L202.147 428.093L202.297 427.596L202.521 427.372H203.018L203.217 427.198L203.367 427.645L203.79 427.82L203.64 428.492L204.213 428.939L204.437 429.387L204.362 430.432L203.79 430.756L203.715 430.98L203.367 430.93L203.217 431.03L203.143 430.93L202.496 431.253L201.923 431.303L201.849 431.477L201.5 431.428L200.082 432.821V433.319L199.933 433.543L200.157 433.493L200.306 433.816L201.227 434.488L201.5 434.886V436.056H200.729L200.654 435.956L199.236 436.056L198.962 435.956L198.539 436.23L198.39 436.18L198.116 436.578H197.843L197.42 437.35L196.997 437.4L196.648 436.802L196.997 436.529V436.354L196.574 435.633L197.345 435.185L197.569 434.637L196.648 433.194L195.081 431.975L194.508 431.303L193.09 430.408L192.443 430.233L192.368 430.009H192.095L190.95 429.064H190.602L190.527 428.84L190.104 428.74L189.905 428.516L189.681 428.566L189.532 428.342L188.536 428.118L188.313 427.845L187.74 427.894L187.666 427.67L186.471 427.571L186.322 427.347H186.048L186.272 427.447L185.551 427.397L185.476 427.496L185.327 427.222H184.978V427.447H184.555L184.63 427.272L184.132 427.322L183.635 427.148L183.062 427.247V427.471L182.988 427.372L182.764 427.422L182.614 427.745L180.997 427.297H180.002L179.429 427.521H178.733L177.24 427.123L176.17 426.625L175.398 426.899L173.283 426.8L172.711 426.899L172.487 427.123L170.72 427.173L170.372 427.397L169.874 427.347L169.8 427.571L169.377 427.67L169.153 428.069H168.954L169.028 428.168L168.829 428.218V428.392L168.481 428.616L168.332 428.89L167.759 429.163L168.033 429.337L168.182 429.736L167.909 430.233V430.507L168.133 430.557L168.058 430.731L167.411 430.781L167.212 431.179L165.221 431.9L165.57 432.572H165.42L165.271 432.97L165.047 433.07L164.126 432.896L163.479 432.572L162.982 432.672L162.633 432.274H161.937V433.045L161.787 432.995L161.588 433.443L160.518 433.393L160.444 433.568H159.672L159.747 433.742L159.324 434.015L159.05 433.966L158.777 434.19L158.428 434.14L158.155 434.463L157.508 434.687L157.234 434.637L156.96 434.861H156.811L156.885 434.687L156.463 434.787L156.114 434.613L155.467 434.787L155.243 434.687L155.169 434.414L154.746 434.463L154.323 434.239L154.248 434.015L153.253 433.841L151.834 433.12L151.411 433.294L150.839 433.12L150.117 433.617L149.968 433.891L149.545 434.065V434.339H149.396L149.47 434.737L149.271 434.837L148.699 434.613L148.624 434.289L148.774 434.239V434.015L148.55 433.841L147.355 434.015L147.082 434.637L146.858 434.737H145.29L145.365 434.637L144.942 434.737L144.096 434.339L143.897 433.891L144.096 433.493L144.668 433.592L144.743 433.368L145.091 433.145V432.97L145.589 432.746H146.012L146.161 432.473L146.808 432.572L146.957 432.398L146.111 432.348V432.448L145.614 432.672L145.191 432.572L145.265 431.851L145.041 431.179L145.191 431.079L145.265 430.258L145.415 430.084L144.569 430.134L144.419 430.034L144.643 429.263L144.419 428.865L144.345 428.143L144.494 427.745L145.688 427.969L146.111 427.645L145.265 427.82L144.419 427.496L144.494 426.874L144.768 426.65L144.693 425.829L144.469 425.506L144.618 425.108L144.544 424.834L144.768 424.56L144.693 423.838H144.469V424.734L144.32 424.958L144.096 424.908L143.673 424.237L143.1 423.789L142.951 423.465L142.453 423.241L142.254 422.918L141.981 422.818L141.632 422.097L141.284 421.823L141.209 421.922L141.856 422.818L141.931 423.54L142.777 424.037L143.349 424.66V424.834L144.121 425.331V426.103L143.922 426.998L144.121 427.397L144.046 428.79L144.32 429.337L144.17 430.159L144.369 430.383L144.867 430.432L145.091 430.756L144.743 431.204L145.016 431.925L144.817 432.149L144.743 432.547L143.747 433.319L143.175 434.215L142.528 434.314V434.414L142.379 434.239L142.23 434.837L141.384 434.936L140.886 435.16L140.388 434.936V435.334L140.164 435.384V436.429L139.891 436.703L139.393 436.653L139.119 435.931L138.621 435.882V435.658L138.273 435.558V435.16L138.472 434.936L138.398 433.269L138.547 431.876L138.049 431.602L137.9 431.278H137.626V430.831L137.402 430.606L137.477 430.208H136.905L136.755 430.034L136.258 430.134L136.108 430.233L136.258 430.781L135.835 430.731L135.909 430.955L135.561 431.353L134.914 431.403L134.143 431.851L132.451 431.95L132.376 432.124L131.729 432.224L131.53 432.498L131.032 432.547L130.535 433.095H129.539L128.892 433.767H128.544L128.345 434.215L128.419 434.613L127.997 434.662L127.797 434.886V435.284L127.947 435.334L127.872 435.658L128.021 435.757V436.205L128.171 436.255L128.021 436.852L128.22 437.026V437.424L128.494 437.748L129.141 437.922L129.365 438.146L129.44 438.544L129.29 438.594L129.216 439.092L129.365 438.992L129.564 439.888L129.141 439.788V439.564H128.942L128.668 439.838L128.32 439.44H128.096L127.822 439.838V440.062L127.175 440.336L127.026 440.659H126.877L127.026 440.833L126.802 441.107L125.881 441.555L125.533 442.227L125.682 442.55L125.608 442.774H125.807L125.732 443.172L126.379 443.67L126.105 443.844L126.18 444.018L125.832 444.192L125.981 444.367L125.633 444.466V444.964L125.782 445.063L125.633 445.113L125.707 445.387L125.508 445.437V445.66L125.782 445.76V445.984L125.931 446.034L125.658 446.357V446.905L125.434 447.004L125.782 447.054L126.205 447.502L127.275 447.726L127.424 447.95H127.997L128.071 448.049L127.3 448.223L127.648 448.497L127.573 448.945L127.001 449.343H126.429L125.434 450.289L125.508 450.562L125.284 450.836L125.21 451.284L125.633 451.384V451.607L125.906 451.707L125.981 451.931L125.906 452.105H125.707L125.633 452.429L125.284 452.379L124.588 452.603L123.816 453.275L123.742 454.046L123.891 454.146L123.966 454.867L123.816 455.464L122.895 455.738L122.97 455.514L122.821 455.24H122.597L122.398 454.743L122.174 454.792V454.568L121.975 454.469L121.826 453.374L121.328 453.324L121.129 453.1L119.984 453.374L119.71 453.324L119.511 452.876L118.665 452.976L118.392 452.652L118.466 452.379L118.317 452.055L118.118 452.006L117.969 452.454H116.973L116.899 452.354L116.625 452.404V452.503L115.281 452.454L115.207 452.677L114.784 452.901L114.51 453.349L114.236 453.299L114.311 453.523L114.037 453.971L113.963 454.519L113.614 454.568L113.54 454.743L113.042 454.693L112.818 454.967V455.24L112.47 455.464L112.395 455.738H112.196L111.847 456.012V456.335L111.499 456.783L111.225 456.833L111.076 456.659L110.728 456.758L110.379 457.355L110.728 457.754L110.379 458.425L109.882 458.201L109.608 458.301V459.346L109.185 459.446L109.036 459.893L108.463 460.117L108.314 460.341L107.966 460.242L108.04 459.744L107.891 459.52V459.023H107.617V458.799L107.344 458.699L106.697 457.977L104.781 458.201L104.706 458.376L103.437 459.097L103.363 459.495L102.939 459.819L103.014 460.267L102.591 460.441L102.168 461.038L102.243 461.71H102.392L102.317 462.257L102.044 462.207L101.82 462.431L101.621 462.332L101.546 462.506L101.397 463.377L101.894 463.601L101.546 464.596L101.695 466.537L101.347 466.761V466.985L101.148 467.035L100.999 467.308L100.576 467.408L100.227 467.806L100.377 468.354L100.302 468.627L100.526 468.677L100.6 469L100.252 469.448L99.4061 469.399L98.8338 469.573L98.4854 470.294L97.9878 470.568L97.9132 470.842L97.5648 471.016L97.2911 471.464H97.0671L97.1418 471.563L96.868 471.514L96.6441 471.24L96.1464 471.29L96.2957 470.245L96.022 470.021L95.9474 469.424L96.9427 468.652V468.478L97.2164 468.577L97.1418 468.976L97.5648 469.075L97.6394 468.752L98.2864 467.98L98.361 466.985L98.6347 466.935V467.035L99.0577 467.085L98.5601 466.761L98.784 466.039L98.0126 465.94L97.8633 465.666L97.938 465.393L98.5103 465.442L98.7343 465.268V464.945L99.008 464.845L99.2319 464.123H99.008L98.7343 464.447V464.049L98.5103 463.999L98.585 464.497H98.7343L98.5103 465.094L98.361 465.268H97.6394V465.442H97.7887L97.7141 465.766L98.1371 466.089V466.413L97.5648 466.96L97.7141 468.005L97.4901 468.105L97.0671 468.055L96.9924 467.781L96.4948 467.607V467.781L96.2211 467.955H95.7235L95.3751 468.453H95.0267L94.6037 467.856V467.458L94.753 466.96L95.176 466.462V465.691L95.4497 465.243V464.969L95.176 464.696L95.7483 463.825L95.5493 463.054L96.0469 462.83V462.606L95.5493 462.655V462.83L94.9769 463.004L94.7032 462.332L94.4295 460.018L94.0065 459.023L93.8074 458.848L93.0361 458.799L92.9614 458.699L92.6877 458.873H92.1154L91.5431 459.421V459.794L91.344 459.893L91.1948 460.441L90.9957 460.665H90.6473V460.441L90.8464 460.267V459.545L90.3487 459.271L90.2741 458.998H90.0003L89.9257 458.276L90.075 458.002L89.8511 457.729L89.7018 457.778V458.176L89.2788 458.226L88.7811 457.778L88.1341 457.828L87.7858 457.43L87.5121 457.53V457.704L87.313 457.53L86.5417 457.48L86.691 457.878L87.3379 457.704L87.4872 458.027L88.0595 457.853L88.2088 458.027L88.6318 458.077L88.8309 458.301L88.7562 458.749L89.1046 459.346L89.6769 459.52L90.0999 459.918L90.299 460.366V460.814L91.2943 461.411L91.5182 462.63L91.369 463.452L90.5229 463.676L90.0253 463.576L89.4529 462.979L89.1792 462.929V463.153L89.4529 463.327V463.501L89.9506 463.725L90.4483 463.825L91.369 463.725L91.5182 463.899L91.8666 463.85L92.4389 464.123L92.6379 464.298V465.019L92.5633 465.517L91.6426 466.661L91.4436 467.159L91.0206 467.209L90.5976 466.935L89.4529 466.985L89.3036 466.537L88.7314 465.99H88.5074L88.3581 466.263H88.2088L87.9848 466.164V465.94L87.4126 466.114L87.0642 465.716L86.6412 465.666L86.4172 466.064L86.9149 466.164L87.2633 466.562H87.4126L87.2633 466.338L87.96 466.288L88.1093 466.512L88.6069 466.736L88.8807 467.06L89.03 467.657L89.6023 468.378L90.1745 468.826L90.5976 468.876L90.6722 468.279L90.8962 468.055H91.1698V468.453L91.4436 468.677L91.7919 468.577L91.991 468.254L91.9164 468.702L92.1901 468.876L92.6877 470.095L93.0361 470.493L92.9614 470.767L92.1154 470.543L91.8417 470.319V470.145L91.344 469.871L90.9957 469.921L90.4234 470.369L89.7018 470.469L89.5027 470.643L89.5774 470.916L89.4281 471.24L89.2042 471.14L88.8558 471.364L88.4328 471.265L88.3581 470.668L88.159 470.568L88.3083 471.339L88.5323 471.514V471.912L88.6816 472.185L88.9553 472.285L89.03 472.608L88.1093 473.106L87.8854 473.653L87.2384 474.027L86.5168 474.126L86.3177 474.3L86.3924 474.475L86.9646 474.524L87.0393 475.346L86.7656 475.52V476.565L87.0393 476.838L87.6863 477.013L87.96 477.237V477.51L87.3877 477.784V478.008L87.114 478.232L87.2633 478.506L86.7656 478.904H86.2679L85.845 479.227L85.7703 479.501L85.0487 479.451V479.128H84.8497L84.9243 478.904L84.6505 478.953V478.854L84.1529 478.68L83.8792 478.854L83.4562 478.754L83.3816 478.929L82.8839 479.153L82.8092 479.476L82.5355 479.7H82.2618L82.0627 479.476L81.2913 479.526L81.1421 479.352H80.4205L80.6444 479.028V478.754L80.4205 478.705V478.207L81.1421 477.66V477.56H80.8684V477.734L80.296 478.232V478.779L80.4453 479.053L79.8731 479.924L79.5247 479.974L79.1764 479.7H78.9773L78.7782 479.874V480.098L77.5838 480.148L77.3102 479.824V479.501L77.5341 479.327V479.053H77.3848V479.227L77.1609 479.327V480.048L77.5838 480.372L78.2308 480.422L78.1562 480.745L77.7331 480.695L77.4594 480.869L77.1857 480.77L76.1904 481.442L75.4688 481.342L75.1951 481.566L74.2744 481.616L74.0007 481.392H73.727V481.616L74.4237 481.939L74.0007 482.487L74.15 482.586L74.797 481.815L75.4439 481.492L75.7176 481.442L76.2153 481.716L76.7129 481.218L77.2106 481.168L77.4345 480.994H78.5791V480.72L79.2261 480.894V480.571L80.4952 480.073H80.8435L80.9181 480.297L81.4158 480.247L81.5651 480.471L81.366 480.571V480.745L82.5107 480.198H83.6552L84.5013 480.645L85.1482 480.471L85.7205 480.845L85.9942 481.292H86.6412L86.7159 481.79L86.2928 481.89L85.5215 481.666L85.4468 481.989L84.6755 482.263L84.5262 482.537L84.9491 482.263H85.2229L85.5712 481.939L85.9942 482.263L87.4126 482.089L87.6116 482.537L87.8854 482.586V482.686L88.3083 482.586L88.5074 482.188H88.9304V482.362L88.6567 482.586L88.9304 483.233L88.6567 483.507L88.7314 483.955L88.383 484.129L88.5323 484.353V485.348L88.383 485.448V485.722L89.7267 485.771L90.075 486.095L90.0003 486.592L90.2244 486.866L90.498 486.916L90.722 487.414L90.6473 487.861L90.3737 487.961L90.299 488.185L90.8713 488.359L91.4436 488.906H91.0206L90.9459 489.18L90.299 489.354V489.578L90.0253 489.802V491.171L89.6769 491.345V491.793L90.0253 492.067L89.8262 492.166L89.6769 492.564L88.7562 492.614L88.4825 492.888L87.9102 492.987L87.4126 492.937L86.9895 493.211L86.8403 493.435L86.9149 493.535L86.3426 493.808L86.1435 494.455L86.5666 494.555L86.6412 494.878L86.2928 495.053V495.227L86.5666 495.899L86.8403 495.948L86.9149 496.222L86.691 496.272L86.3426 496.098V496.421L86.1435 496.371L86.0689 497.093L86.2182 497.143H86.0689L86.1435 497.367H85.9942V497.591L85.845 497.64V498.188L85.6957 498.412L84.9243 498.312L84.5013 498.685H84.0783L83.7299 498.039H83.2322L83.1576 497.665L82.9336 497.491L82.5853 497.815H82.3862L82.1872 497.591L81.6895 497.69V498.113L81.4158 498.138L81.0674 497.715L79.8731 497.765L79.5247 497.939H78.9524L78.604 497.765L78.3303 497.939L78.604 498.163L78.5294 498.387H78.3801L78.3054 498.163H78.0317L77.9571 497.989L77.8078 498.039V498.312L77.3102 498.586V498.81L77.111 498.984L77.1609 499.382L76.9867 499.656L76.7627 499.706L76.9368 501.024L76.3397 501.746L75.8172 502.02L75.643 502.891L75.2946 503.214L75.0209 503.264L74.9213 504.259L74.6477 504.483L74.8716 505.205L75.1204 505.304L75.0955 505.578L75.2946 505.702L74.9712 506.2L74.996 506.648L74.5979 506.698L74.2744 506.971L73.7518 506.598H73.4782L73.2293 506.872L73.4284 507.32L73.3537 507.494H72.4331L72.4082 507.768H72.1843L71.9354 507.394H71.6617L71.4875 507.568L71.2138 507.519L71.0645 507.693H71.2387L71.2636 507.917L70.9899 508.141L70.7659 508.091V507.817L70.9152 507.718L70.7659 506.573L70.9152 506.349L70.6913 506.25L70.8654 505.926L70.6415 505.827L70.542 505.18L70.3181 505.08L69.6213 505.13L69.472 504.757H69.273L69.1983 504.533L69.0988 504.981H68.7006L68.5513 504.757L68.626 504.657L68.4767 504.607L68.5513 504.384L67.9044 504.334L67.8298 504.558H67.5063L66.8344 504.234L66.6105 503.861L66.7598 503.687L66.6603 503.314L66.9091 502.99L66.8842 502.716L67.1579 502.667V502.567L66.1377 502.194L65.7147 501.646L65.7396 501.472L66.2372 501.149L65.8391 500.153L65.3166 500.328L64.4208 499.606L64.4706 499.009L64.1968 498.909V498.188L64.6945 498.088L65.0428 497.491L64.9682 497.043L65.5405 496.769V496.595H65.3166L65.1175 496.147H65.3166L65.4659 495.874L65.3166 495.7H65.5405L65.8142 495.252V494.853H65.6152L65.1921 494.53L64.9931 494.032L64.8438 494.082L64.6945 493.858L64.5452 493.087L65.0428 492.987L65.1175 492.813L64.3959 492.639L64.4706 491.917L63.9729 491.967V491.42L62.7785 491.196L62.7038 490.922H62.5546V490.698L63.3259 489.653L63.0522 489.479V489.106L62.8283 488.832L62.903 488.284H62.7537L62.4053 487.563L61.2109 486.244L61.2856 485.473H62.2062L62.4799 485.249V485.149L61.833 485.249L61.4846 484.975V484.751L61.7584 484.353V483.134L62.032 483.034L62.256 482.586L62.032 482.537L61.1114 482.91L61.4597 483.184V484.403L61.2607 484.677L61.186 485.174L60.4147 485.348L59.4194 484.253H59.1954L58.9963 483.88L58.4987 483.606L58.424 483.383L58.1503 483.208H57.578L57.155 482.711L56.6573 482.537L56.732 482.263L55.9606 481.492L54.0447 481.268L53.547 481.591L52.9747 481.641L52.7756 481.865H52.2033L51.7057 480.919L51.0089 480.969L50.8597 480.869L51.0089 480.695L50.785 480.596L50.9343 480.496L50.7104 480.446L50.6357 480.048H50.4118L50.0634 479.6L48.869 478.929L48.3714 478.879L48.2221 479.202L47.7244 479.526L47.3761 479.476V479.302L46.6544 478.804L46.0821 478.754L45.5845 479.153L45.6591 479.7L45.1615 479.526L45.0868 479.75L44.6638 479.7L44.5891 479.924H44.1662L43.8178 480.198L43.6187 480.023L43.8178 479.924V479.426L43.9671 479.377L43.8924 478.929H43.7431L43.8178 478.655L43.121 478.481L43.0464 477.933L42.3249 477.485L42.2501 477.261L41.7525 477.212L41.4041 477.436L41.2548 477.212H41.0309L40.8816 476.838H40.5333V476.117L39.8366 475.744L39.6126 475.146H39.4135L39.3389 474.972H38.6173L38.468 475.146L37.9704 475.097L37.821 475.196L37.7463 474.873L37.0994 474.325L35.7557 473.927H34.7604L31.2271 474.524L31.0778 474.798L30.8787 474.848L30.9534 476.44H30.7294V476.614H30.1571L29.8834 477.013L29.535 477.062V477.237L28.8134 477.734V478.008L28.6641 478.108L28.7388 478.506L29.3857 479.177L29.3111 479.352L29.1618 479.302V479.75L29.5102 479.924L29.7839 480.322L29.8585 481.143L30.6299 481.815L30.2815 482.362L30.2069 482.86L29.8585 483.184V483.955H29.7092L29.3609 485.274L29.1618 485.722L28.5895 486.169L28.5148 486.767L28.2411 487.364L27.9674 487.588L27.8181 487.538V487.712H27.4697L26.6237 487.165V488.036L24.9317 489.354L24.7824 489.18L24.7077 489.28L23.9862 489.106L23.8369 489.28H23.4885L23.4138 489.454L23.0655 489.504L22.7171 489.131L22.3688 489.18L22.2195 489.354L22.1448 489.18H21.9457L21.4481 489.504L21.249 489.952H20.7514L20.4777 489.777L19.9054 489.877L19.7063 489.603L19.3579 489.777L19.0842 489.678L18.7359 489.852V490.35L18.5866 490.3V490.474H18.4373L18.5119 490.698L18.3626 490.922L18.0889 491.146L17.7405 490.972L17.6659 491.42L17.3175 491.693H17.1682V491.42L16.8199 490.972H16.2476L16.1729 491.196L15.9739 491.022H15.4762V491.345L15.7002 491.395V491.569L15.3518 491.843L15.2772 492.166L14.8542 492.067L14.5058 491.743L14.3067 492.141L14.033 492.191L13.7593 492.017L12.9879 492.614L12.2165 492.664L11.7935 492.614L11.5696 492.216H11.1466V491.992H10.9973L11.271 491.892V491.718L10.2757 490.574V490.4H10.5494L10.624 489.902L10.1264 489.678L9.85268 489.728L9.92732 488.782L9.35503 488.608L9.28038 488.434L9.13109 488.608H8.70809L8.63344 488.782L8.35973 488.558V488.11H7.86204V487.389H7.58837L7.51368 487.065H7.31465L7.09068 486.12L7.16532 485.846L7.01603 485.747L7.43904 485.697L7.93672 485.299L8.08602 484.925L7.93672 484.253L8.08602 484.03L8.50902 483.855L9.28038 483.905L9.85268 483.532L10.1264 483.034V482.362L10.3255 482.138V482.039L10.5992 481.989V481.591L10.4001 481.367L10.5494 481.143L10.2757 480.869L9.92732 480.82V480.446L9.65361 480.272L9.57896 479.725H9.42967L9.57896 479.551L9.65361 478.953L9.30525 478.132L9.52923 477.585L9.10618 477.187V476.913L9.25551 476.814L9.10618 476.216L9.18087 475.893H8.95689V475.719L8.75783 475.669V475.495L8.48411 475.321L8.5588 475.221H8.40947L8.48411 474.549H8.06111L7.91182 474.226L8.13575 474.176L8.21044 473.952L8.85738 474.052V473.28L8.65831 473.007L8.73296 472.683H9.08131L9.28038 472.36L9.77803 472.409L10.0517 472.185V471.514L10.201 471.29L10.002 471.116V470.518L10.3503 470.021L10.2757 469.622L10.624 469.299H10.8978V469.075L11.1715 469.025L11.4452 468.577H11.6442L11.8682 467.906L12.3659 467.582L12.5649 467.085H12.7142L12.5649 466.587L12.7142 466.637L12.9879 466.413L14.68 466.96L14.7546 466.637L15.0283 466.363L15.3767 466.189L16.148 466.139V466.039L16.571 466.214L16.8448 466.164V466.263L17.6908 466.164V466.338L17.9645 466.388L18.3875 466.064V465.89L18.7359 465.791L18.5866 465.616L18.7359 465.218L19.0842 464.895L19.3082 464.945L19.1589 464.447L19.5072 464.273L19.5819 463.875L19.8556 463.924L19.781 463.825H19.9302L20.1542 463.427H20.6519L21.0002 463.601L20.6519 462.78L20.8509 462.556L21.2739 462.606L21.473 462.382L21.6969 461.785L21.896 461.735L21.8213 461.237L21.9707 461.138L22.319 461.361L22.2444 461.585L22.5181 462.083L23.0904 461.983L23.0157 461.76L23.2148 461.486L23.7124 461.536V460.814L24.0608 460.715L24.2847 460.889L24.5585 460.715V460.117L24.9068 459.719L25.1805 459.545L25.5289 460.142L26.2505 459.869L26.3252 459.595L26.5989 459.545V459.321L26.8726 459.222L27.0219 458.948L27.5195 459.047L27.6688 458.45H27.4449V458.226L27.5942 458.002L28.1665 457.952L28.3655 457.505L29.2115 457.455L29.2862 457.057L29.5599 456.883L29.6345 456.659L30.3562 457.057H31.3515L31.9238 456.833L32.0731 456.435L32.3468 456.385L32.6952 456.708H33.1182L33.1928 456.435L33.3919 456.335V456.111L33.6656 456.161V456.335H34.014L34.213 456.161L34.4121 456.211L34.636 455.887L35.2083 455.987L35.5567 456.534L36.0543 456.435L36.3281 456.833L36.975 456.733L37.1741 456.509V456.062L37.8956 456.161L37.9704 456.385L37.6966 456.335V456.833L37.2736 456.932V457.33L37.3483 457.554L37.622 457.654L37.5473 457.928L37.7463 458.201L38.244 458.251L38.3933 458.525L38.6671 458.624V458.724L38.5177 458.674L38.6671 459.893L39.4384 460.291H40.0853L40.2346 460.117L40.4337 460.615L40.7074 460.789L42.5488 461.013L42.6234 461.187L42.4741 461.361L42.8971 461.76L42.9718 462.033L43.4694 462.207V462.655L42.8971 462.755L42.6732 463.078L42.5239 464.173L42.6732 464.447L42.9469 464.397L43.2952 463.899V463.352L43.4445 463.128L44.0169 462.805V462.581L43.8178 462.531L43.7431 461.859L43.0962 461.635L42.9469 461.361L43.2206 461.088L43.4445 460.217L45.7089 458.55V458.326L47.2019 456.659L47.5502 455.489H47.6995L47.7741 455.091L48.1225 454.817L48.1972 454.419L48.3465 454.369L48.4211 453.872L48.1972 453.772L48.3465 453.449L48.1474 452.628L47.9235 452.578L47.8488 451.856L48.0728 451.682L48.4211 451.732V451.831L48.9188 451.657L49.1925 451.831L49.6902 451.16L50.1878 451.06V451.284L50.4615 451.334L50.3869 451.782L50.8845 452.18L50.7352 452.404L51.2329 452.578L51.5066 452.304H52.0042L52.1535 452.03H52.5019L52.7756 451.807H53.4226L53.6963 452.08L54.194 452.13L54.393 452.304L54.816 451.981L55.463 451.931L56.1099 451.384H56.3837L56.4583 451.16L56.8066 451.06L57.155 450.463H57.379L57.2297 450.289L57.3043 450.065L58.0757 450.015V449.567L58.424 449.169V448.995L58.1503 448.945V448.771L58.5734 448.721L58.7227 448.273L59.071 448.099L58.9963 447.999L59.2701 447.95V447.776L59.5438 447.726L59.693 447.328H60.1161L60.1907 447.502L60.4644 447.402L60.7382 447.626V447.452L60.9621 447.402V447.004L61.8081 446.954V446.681L61.6091 446.631L61.4597 446.233L62.032 446.183L62.6044 445.287L63.1766 444.839H64.4457L64.5203 444.74L64.371 444.566H64.9434L64.8687 444.068L65.018 443.844L65.7396 443.521L66.3119 443.57V443.297L66.8096 443.073L66.9589 442.575L67.2325 442.525L67.1579 442.351L67.357 442.301L67.2077 441.978L67.4067 441.754V441.306L67.7551 440.858L67.9044 440.037L68.0537 439.813L68.3274 439.863V439.689H68.1781V439.291L68.3771 438.843V437.574L68.2278 437.524L68.3025 436.081L69.0241 436.031L69.2232 435.807L69.6462 435.707L69.8701 435.434L71.5622 435.707L72.2838 435.434L72.4829 435.533L72.5575 435.807H72.7068L72.9058 435.409L73.1298 435.359L72.9805 435.185L73.2542 434.637L73.6772 434.588V434.314L73.9509 434.14L74.1002 433.866L74.0256 433.468L74.4486 433.244L74.7223 433.344L74.8716 433.07H75.0706L75.1453 432.398L74.996 432.224V431.776L75.7673 431.726L75.9167 431.552L76.265 431.652L76.8374 430.93H77.335L77.4843 430.532H77.7082L77.5589 430.358H77.8327L78.181 430.084L78.4547 430.184L78.604 429.636L78.3801 429.412L78.604 428.516L78.8777 428.243V427.621L79.1017 427.397L79.251 425.953L79.4003 425.779V424.834L79.1266 424.61V424.436H78.7782L78.2805 424.037V423.814L78.8529 423.639L78.9275 423.465L78.7284 422.968L78.4547 422.793L78.5294 422.569L78.0317 422.122L78.181 421.674H78.3303V421.898L78.828 421.947L79.5993 421.549L79.7486 421.101L79.9477 420.927L79.1764 419.534L79.45 418.713H79.9477L80.097 418.937L80.3707 418.986L80.7191 418.439V418.165L80.9181 418.066H81.1919V418.24L81.6895 418.787L82.6101 418.837L82.9585 418.663L83.5309 418.165L82.6848 417.842L82.4858 417.892L82.2618 417.717L82.1872 417.269L82.7595 417.22L83.4064 417.394L84.0534 416.996L84.8247 417.22L85.2478 417.12L85.3224 416.622L85.6708 416.125L85.5961 415.577L85.7454 415.179L85.3224 414.856L85.5215 414.632L85.7951 414.731L85.8699 415.179L86.2928 415.503V415.677L86.8652 415.577L87.0891 415.677L87.2384 415.901V416.573L87.8107 416.399L87.8854 416.224L88.8807 416V415.826L89.229 415.553L89.4529 415.652L89.3783 415.428L90.0253 414.98L89.7516 414.433L89.9009 414.209L90.5478 414.383L90.8215 414.209L90.6722 414.035L91.0952 413.985V413.761L91.2445 413.711L91.0952 413.487H91.3191L91.2445 413.164L91.5182 412.84L91.6675 413.014L91.8915 412.915L92.0408 412.641L91.9661 412.368H92.1154L92.0408 412.094H92.1901V411.87L92.6131 411.596L92.9614 411.049L92.8868 410.377L93.1107 410.103L93.1854 409.282L92.837 408.834L92.9863 408.436L92.7873 408.337V408.063L93.4342 408.013V407.839L92.9366 407.515L92.8619 407.117L93.061 406.719L93.3347 406.769L93.484 406.545L94.1309 406.495L94.2802 406.321L94.0065 405.774L93.2352 405.152L93.3845 404.828L93.3098 404.654L93.5835 404.604L93.4342 404.38L93.5835 404.206H93.3845V403.932H93.5835L93.4342 403.609L93.7826 403.559L93.6333 403.385L93.7826 403.335L93.7079 403.161H93.8572L94.0065 402.439L93.9319 401.942L93.5835 401.494L93.7328 401.17L93.1605 400.722L93.0112 400.822L92.9366 400.648L92.5882 400.598L92.4389 400.324L92.8619 400.051V399.279H93.1356V399.105H93.5587L93.8323 398.881L93.683 398.831L93.7577 398.334L94.2554 398.01L94.9023 397.96L94.6286 397.513L94.4047 397.463L94.6783 397.139L94.4544 396.915L94.6037 395.97L94.3798 395.522L94.6037 394.701L95.1014 394.527V394.253L94.8774 394.203L94.7282 393.581L95.0765 393.258L94.8525 392.984L95.1262 391.939L94.8525 391.839L94.9272 391.74L94.0065 391.466L93.7328 390.968L93.5835 391.143L93.1605 391.043V390.72L93.6581 390.546L93.5835 390.048L95.0765 389.55L95.2756 389.874H95.8478L95.6488 390.197V390.595L95.9971 390.919H96.8431V390.819L97.7639 390.595L98.0375 390.769V390.993H97.8882V391.615L98.0873 391.889H98.8586L98.784 391.79L98.9831 391.342L99.4061 391.242L100.252 391.466L100.327 391.242L100.675 391.143L100.6 390.968L100.874 390.794L100.8 390.62H100.6L100.526 390.297L101.024 390.073L101.223 389.849L101.148 389.575L101.422 389.525L101.347 389.301L101.496 389.202V388.754L101.695 388.43L101.919 388.256H102.566L102.989 388.082L103.263 387.535H103.537L103.462 387.36L103.661 387.186L103.736 386.515L104.084 386.191H105.278L105.005 387.087L104.93 387.983L104.731 388.256V388.804L106 389.202L106.149 389.301V389.799L106.498 390.073L106.647 390.745L106.373 391.192V391.466L106.1 391.74L106.373 391.69L106.299 391.914L106.647 392.362L106.722 392.81L106.498 393.432L106.846 393.656L106.995 393.979L106.921 394.377L106.348 394.601L106.075 395.049L106.498 394.875L107.219 394.925L107.294 394.377L107.518 393.979L108.165 393.706L109.658 393.88L109.882 394.377L111.026 394.776L111.673 394.676L112.246 394.129L113.664 393.905L114.162 394.129L114.809 394.029L115.53 394.203L115.804 394.104L116.575 394.203L117.496 394.651L117.222 394.328V394.154L117.496 393.979L117.421 393.656L116.774 393.755V393.307L116.078 393.133V392.909L115.729 392.959V393.183L115.53 393.357L114.112 393.183L113.042 393.283L112.768 393.233L112.544 392.959H111.648L111.798 393.133L111.648 393.581L110.802 394.079L109.807 393.581L109.583 393.084H109.309L109.036 392.81L108.463 392.636L108.389 391.815L108.662 391.64L108.016 391.541V391.441L107.792 391.491L107.642 391.267H107.219L106.871 390.869L106.946 390.546L106.672 390.147L106.597 389.326L106.747 389.227L106.672 388.679L107.02 388.281L107.095 387.883L106.448 387.56L106.373 387.286L106.647 386.614L106.846 386.44V385.992H107.07L107.344 385.37L107.841 385.146L108.414 385.245V385.021L107.841 384.35L107.916 384.076H107.493L107.07 383.404L106.647 383.354L106.448 383.081L105.95 382.981L105.801 382.757L105.876 382.484L106.1 382.26L106.523 382.309L107.17 381.861L107.593 381.762V381.588L107.319 381.364L107.394 381.19L108.115 381.14L108.19 381.414L108.04 381.737L108.463 382.011L108.389 382.284L109.16 382.508L109.384 383.056L109.807 382.956L110.579 383.056L110.927 382.882L111.499 383.106L111.847 383.504H112.345L112.271 383.28L112.694 383.329L112.619 382.832L112.768 382.732L113.54 382.558L113.614 382.011L113.888 381.961L113.963 381.737V381.19L114.236 380.966L115.082 381.414L115.655 381.364L115.928 380.816L116.127 380.642H116.55L116.7 380.319H116.899L117.123 380.493V380.816L117.546 380.866V381.09H117.77L117.844 381.264L118.267 380.866H118.541L118.765 381.19H118.914V380.966L119.188 380.916H119.462L119.885 381.19L119.81 381.015L119.959 380.966L120.457 380.916V381.015H120.656L121.004 380.742L122.497 380.692L123.692 380.294L123.966 379.746L124.388 379.523L124.314 379.299L124.463 379.075L124.886 378.801V378.303L125.234 378.029V377.582L125.732 377.258L126.006 376.487L126.653 375.591V375.268L126.852 374.944L126.504 374.397L126.777 374.173L126.852 373.053L127.076 372.953L127.001 372.63L127.2 372.083L127.051 371.461L127.623 371.411L127.972 371.187L128.121 369.619L127.698 369.221L127.275 369.171L127.35 369.072L127.2 368.898L127.474 368.45L127.325 368.052L127.972 367.106V366.832L127.549 366.658L127.474 366.21L127.623 365.986L127.972 365.812L128.32 366.31V365.762L128.469 365.663L128.967 365.887L129.465 365.663L129.813 365.837L130.087 365.563L129.813 365.165L130.012 364.842H130.36V364.742L130.709 364.916L130.559 365.24L130.833 365.339L130.908 365.613L131.405 365.663L132.052 364.817V364.319L132.251 363.996L132.102 363.548L132.6 363.224V362.951L133.744 363.349L133.968 362.951L134.964 362.901L135.163 362.677L134.964 362.005L135.461 361.955L135.387 361.856L135.66 361.906L135.586 361.682L135.86 361.234L137.004 361.059L137.153 360.885H137.8V360.985L138.074 360.885L137.576 360.487L137.651 359.94L137.85 359.542L138.074 359.492V359.169L138.721 358.721H139.791L140.015 358.397V357.775L140.712 357.601L140.861 357.103L141.359 357.053L141.508 356.879V356.158L141.707 355.71L141.433 355.386L142.08 354.938L142.23 353.819L141.956 353.147V352.749L142.105 352.575L141.682 352.4V352.077L142.677 352.127L142.827 352.301L143.399 352.351L143.673 352.127V351.803H144.096V351.53L143.598 351.405L143.673 351.231L143.523 350.907L144.096 350.733L144.021 350.335L144.519 349.937L144.867 349.887L145.514 350.061L145.788 349.788H146.012L146.211 349.464L146.136 349.191L146.335 349.091L146.136 348.767L146.484 348.718V348.27L146.908 347.772L148.102 347.15L148.823 347.1L149.396 346.827L149.669 346.877L150.093 346.329L150.515 346.055L150.59 345.831L151.66 345.607L151.859 345.284V344.836L152.083 344.662L152.73 344.562L152.805 344.114L153.452 343.716L153.526 343.492L153.377 343.219L153.651 343.044L153.501 342.771L153.999 342.547V342.223L153.775 341.999L153.999 341.775V341.228H153.775L153.999 340.457L153.576 340.133V339.909L153.85 339.81L153.651 338.914L154.074 338.367L153.924 338.143V337.521L154.074 337.471L153.924 337.073V336.799L154.074 336.749V336.301L153.924 336.252V335.704L154.074 335.654L153.85 335.381L153.999 334.759L153.924 334.311L154.074 333.863L154.646 334.186L154.721 333.962L154.372 333.689V333.017L154.099 332.917L154.173 331.922L153.974 331.748L154.124 331.424L154.049 331.026H154.198L154.124 330.752L154.273 330.653L154.198 330.255L153.999 330.081L154.148 329.857L154.223 328.563L154.074 328.065V326.821L153.725 325.751L153.875 325.079L153.601 325.129L153.452 324.806L153.725 324.184L153.576 323.86H153.427V323.686L153.153 323.462L153.228 323.288L152.73 323.014V322.74L153.004 322.691L153.078 322.516H153.352L153.576 321.745L153.078 321.247V321.023L153.278 320.924L153.004 320.426L153.153 319.854L152.506 319.356V319.182L152.929 319.008L153.004 318.386L153.228 318.336L152.954 317.838L153.103 317.789V317.515L153.377 317.415L153.302 316.968L153.452 316.694L154.024 316.42L154.099 316.146L153.949 315.922H154.099L154.173 315.698L154.746 315.251L154.472 314.803H154.82L155.542 314.305L155.467 313.758L155.617 313.584H155.343L155.567 313.31L155.417 313.21V312.887L155.268 312.837L155.417 312.663L155.218 312.489L155.144 311.867L155.492 311.767L155.766 311.269L155.99 311.145L156.139 310.125L155.915 310.025V309.627L155.716 309.453L156.487 308.383L156.761 307.437L157.259 306.815V306.417L157.06 306.144L157.209 305.696L157.01 305.522V305.422H157.209V305.248L156.935 304.974L157.209 304.526L156.935 304.203L157.582 303.531L157.358 303.207L157.707 302.809L157.632 302.536L157.284 302.361V301.914L157.01 301.64L157.159 301.54V301.316L157.01 301.267L157.085 300.868L157.582 300.819L157.234 299.749V299.4L157.582 298.828V298.48L157.159 298.43L157.01 298.206L157.433 297.758L158.08 297.659L157.931 297.484L158.08 296.987L157.881 296.763V296.539L158.03 296.091L158.304 295.867L158.155 295.593L158.229 295.369H158.578L158.652 295.643H159.374V295.419L159.871 295.369L160.07 295.593L160.916 295.942L161.066 296.166H161.414L161.638 295.668L165.321 295.618L166.391 295.892L167.958 297.012L169.028 296.912L169.252 297.136L169.949 297.36L171.019 297.136L171.666 297.708L172.313 297.758L172.462 298.156L173.955 299.102L174.03 299.425L174.602 299.923L174.876 300.595L175.573 301.092L176.419 301.316L177.488 301.938H180.176L180.524 302.113L181.594 302.212L182.515 301.938L182.789 301.714L184.282 301.54L184.929 301.316L185.152 301.092L185.924 300.993L187.118 300.047V299.823L188.611 297.982L189.034 296.862L189.756 296.638L189.905 296.191L190.328 295.743L190.253 295.17L191.025 294.324L192.294 292.184L193.015 291.836L194.508 291.612L195.23 291.214L195.504 290.144L195.852 289.646L195.777 289.323L196.275 288.253L196.474 287.407L197.046 286.835L197.892 286.884L198.813 287.556L198.614 287.83L198.34 287.78L198.614 288.626H198.763L198.614 288.676L198.763 288.85V289.248L199.186 288.8L199.535 288.676L199.958 288.178L200.455 288.228V288.402L201.152 288.975L201.003 289.646L201.152 290.94L200.953 291.289L200.679 291.388V291.736L200.406 292.234L200.057 292.458V292.632L199.56 293.13L199.709 294.598L199.51 295.27V295.942L199.584 296.34H199.734V296.116L200.082 295.618L200.008 293.553L200.281 293.055L200.63 292.782L201.277 292.607L201.55 292.11V291.264L202.048 291.164L202.396 290.219L202.322 289.945L201.973 289.845V289.671L202.247 289.447L202.172 288.726L202.521 288.054L202.745 287.208L202.322 286.934L203.168 286.262L203.242 285.814L203.441 285.541L203.939 285.367L204.437 284.968H204.934L205.507 284.521V284.122L205.731 283.899L207.721 284.073L207.995 284.297L208.343 284.346H209.339L209.986 284.073L210.259 283.799V282.057L210.832 281.883L211.678 282.455L211.951 282.853L212.449 282.953L212.673 283.227L213.942 283.625L214.514 284.197L215.087 284.371L215.286 284.595H216.057L216.555 284.197L217.127 284.023L216.779 283.749L215.933 283.923L215.783 284.098L215.559 284.048V283.874L214.987 283.55V283.376L214.216 283.152L213.718 282.704L213.071 282.58L212.922 282.356H212.698V282.182L212.499 282.132L211.777 281.286L210.16 281.012L209.015 281.36L208.94 282.53L208.169 282.978H207.821L207.174 283.252L206.825 283.202L206.626 283.376L206.129 283.152L205.979 282.928L205.332 282.878L204.486 283.376L204.138 283.998L203.914 283.948V284.048L203.217 284.147L201.724 284.769L201.525 285.391L201.028 285.964L201.102 286.461L201.376 286.511L201.301 286.909L200.953 286.81L200.679 286.412L199.908 285.914H199.186L198.913 285.69L198.838 285.416L198.415 285.192V285.018L198.216 284.919L198.291 284.819L197.942 284.645L197.743 284.147V282.978L197.519 282.853L197.096 282.182L197.171 275.936L196.897 275.712L195.479 275.538L194.21 274.866L194.434 274.592L194.21 274.244L194.484 274.07V273.846L195.056 273.746L195.13 272.801L194.931 272.627L194.21 272.577L193.563 271.781L192.418 271.283L191.846 270.785L191.921 270.387L192.344 270.163L192.568 269.715L194.185 270.089H195.678L196.25 269.915L196.449 270.188L196.947 270.238L197.295 270.014L197.494 269.392L197.843 269.168V268.82L197.992 268.77L198.067 268.272L198.216 268.173L198.714 264.689L198.241 264.465L198.141 263.793L198.291 263.395L198.017 263.171V262.823L197.245 262.201L196.474 261.753L196.126 261.703L195.977 261.604L196.051 261.429L197.121 261.156H198.191L198.539 260.982L198.962 260.534V260.086L199.186 259.912L199.261 259.414H199.485L199.684 258.966L200.381 259.19L201.948 259.14L202.521 259.414H203.168L203.591 258.916L204.163 258.742L204.238 258.518L205.233 258.643L205.656 258.245L206.651 258.344L207.074 257.772L208.916 257.15L209.115 256.876H209.388L209.886 256.602L210.458 256.652V256.826L211.155 256.702L211.23 257.05L211.653 257.15L212.499 256.353L212.971 256.453L213.842 256.229L214.191 255.607L214.39 255.482L214.738 255.657L214.887 255.482L215.087 255.532V255.433L215.435 255.532L216.082 255.433L216.853 255.93H217.127L217.625 256.503L217.774 256.378L218.272 256.503L218.421 256.951L218.918 257.398L220.063 257.523L220.212 256.901L221.208 256.951L221.407 256.776L221.208 256.154L221.705 255.756L224.044 255.657L224.542 255.482L225.114 255.035L225.687 255.134L225.886 255.358L227.652 255.308V255.184L228.299 255.134L228.523 254.96L230.788 255.084L231.36 254.811L231.858 254.761L232.281 254.487L232.43 254.039L232.778 253.915L233.127 253.243L234.47 253.019L234.893 252.571L235.739 252.969L237.805 253.094L238.078 253.368L238.153 253.766L238.576 253.815L238.999 254.164L240.193 253.815L240.268 253.467L240.542 253.119H240.89L240.965 253.343L241.612 253.517V253.019L241.811 252.671L243.154 252.721L243.727 252.148L244.573 251.924H245.842L246.489 252.273L246.986 252.77L247.832 252.546H249.898L250.395 252.198L250.818 251.576L251.092 251.476V251.302L251.44 250.954L251.515 250.382L251.739 250.108L252.087 250.058L252.436 249.66H252.709L253.207 250.058L253.481 250.63L254.675 251.352L256.94 251.526L257.86 251.8H260.125L261.319 252.472L263.583 252.521L264.429 253.094L265.624 253.442L268.311 253.79L269.082 254.064L270.998 254.338L272.267 254.213L272.616 254.388L272.84 254.835L273.337 255.06L273.263 255.284L273.959 255.557L274.308 255.383L274.532 254.985L275.179 254.811L275.403 254.587H276.249L277.742 254.139L278.513 253.293L278.787 253.193L279.135 252.521L281.126 252.571L281.275 252.397L281.773 252.273L283.465 252.322L284.161 252.596H284.584L285.779 253.318L287.545 253.766L288.391 254.213H288.964L289.113 253.99L289.685 254.039L290.332 254.761L291.029 254.935L291.676 255.433L292.398 256.279L292.671 256.403V256.851L292.945 257.299L293.293 257.523L294.363 257.423L294.513 257.199L294.936 257.075L295.931 257.125L296.852 257.971L296.926 258.643L297.847 259.887L299.464 261.305L299.539 261.529L299.813 261.579L300.086 262.027L300.584 262.3L302.276 262.474L304.117 262.251L304.69 261.977H306.033L307.178 262.375L307.949 262.425L308.596 262.698L309.517 262.3H310.935L311.856 262.4L312.005 262.898L312.777 263.171L313.971 262.997L314.742 262.499L316.509 262.674L316.584 262.848L317.778 262.898L318.276 262.723L319.694 261.479L320.888 261.429L321.734 261.206L322.083 260.932L323.277 260.658L324.546 260.086H324.895L326.388 258.891L327.234 258.444L328.378 258.394L329.573 258.891H329.846L330.12 258.618L330.618 258.444H331.389L331.887 258.269L332.534 257.647V257.249L333.031 257.075L334.723 257.025L335.719 256.677H336.44L337.087 257.075L338.157 257.349H338.655L339.003 257.125L340.198 257.174L341.89 257.971L342.81 258.643H343.457L344.602 258.294H345.597L345.448 258.07L345.796 257.722L347.289 256.776L348.782 255.358L350.424 255.084L350.499 255.358L349.578 256.552L349.504 257.498L349.28 258.12L349.354 258.518L349.006 259.588L348.732 259.986L348.807 260.111L348.11 260.285L347.463 259.937H347.115L346.841 260.509L345.697 261.529L345.199 262.823V263.395L345.473 264.067L346.045 264.515L346.816 265.759L347.09 265.809L347.165 265.46L346.667 264.963L346.244 264.241L345.97 264.142V263.968L345.697 263.744L345.622 263.072L345.771 262.947L345.921 262.101L346.194 261.653L346.543 261.429L348.658 261.031L348.857 260.633L349.13 260.534L349.479 260.185V260.011L349.827 259.787L350.101 259.115L350.325 257.772L350.673 257.274V256.826L351.022 256.428L351.171 255.93H351.32V255.657L351.171 255.607L351.942 254.761L352.44 253.691V252.845L352.589 252.447L352.813 252.397L352.888 251.551L352.813 250.133L352.539 249.959L352.39 249.386L351.669 248.59L351.32 248.018L351.171 247.346L350.599 246.674L350.25 244.808L350.325 244.186L350.474 244.136L350.4 243.564L350.599 242.892L350.673 241.822L350.823 241.698V241.299L351.022 240.901L351.171 239.931L351.395 237.492V234.208L351.171 233.934L349.753 233.984L349.404 233.884L349.205 233.661L348.434 233.312L348.284 232.74L349.28 232.864L349.852 233.138H350.847L351.27 233.412L352.415 233.461L352.689 233.735V234.083L353.037 233.959L353.609 234.307L353.958 234.258L354.032 233.81L354.306 233.412V232.839L354.505 232.043L354.654 231.993V231.545L354.854 231.421L354.928 231.073L354.854 230.177L355.077 229.779V228.759L354.928 228.709V228.435L354.58 228.161L353.808 227.937L353.385 227.539V226.917L353.808 226.519L354.231 226.469L354.729 226.196L356.57 225.798L357.068 225.574L357.342 225.001L357.491 223.658L357.64 223.483V221.891H357.217L356.944 221.667L357.018 221.319L356.67 221.045L355.326 220.771L355.252 220.597L356.023 220.423L357.168 219.676L358.511 219.627L359.158 219.054H359.382L360.228 218.557L360.801 218.507L361 218.731L360.925 218.955L361.696 219.129L362.468 219.079L362.741 218.805L363.164 218.706L363.737 218.88L363.886 218.482L364.608 218.258L365.031 217.736L365.528 217.462L365.951 216.715L366.225 216.591L366.374 215.969L366.947 215.446L367.22 214.252L367.419 214.128L367.345 213.779L367.544 212.983H367.121L367.345 212.411L368.265 212.361L368.34 212.137L368.066 211.963V211.689L368.639 211.415L369.136 211.017L369.211 210.793L369.559 210.694L369.634 210.296L370.057 210.072L370.331 209.101L370.754 208.653L370.903 208.255L371.401 207.857L371.6 207.061L371.948 206.936L372.147 206.588L372.993 206.066L373.217 205.668L373.416 205.618L374.188 204.821H374.461L375.382 204.15L375.88 203.08L376.8 202.234L376.875 201.836L377.596 201.313L378.019 200.691H378.368L378.567 200.467L379.214 200.517L379.363 200.343L380.632 200.069L381.055 199.497L381.478 199.223L381.329 198.874L381.603 198.75L382.299 198.874L383.071 198.601H383.643L383.718 199.049L383.867 199.148L385.858 198.974L386.057 198.75L386.704 198.8L386.778 198.402L387.201 198.352L387.55 197.904L387.898 198.128L388.172 198.078V197.805L387.948 197.755V197.406L388.868 197.581V197.805L389.291 198.327H389.714L389.441 197.307L388.943 196.859V196.113L389.515 195.59L389.864 194.744L390.784 193.998L391.207 193.151L391.854 192.803L392.004 192.355L392.651 191.559L392.725 191.111L392.949 191.061L393.098 190.663L393.522 190.215L393.945 189.071L394.218 188.847L394.716 187.652L394.865 187.603V187.155L395.014 186.981L394.94 184.89L395.164 184.443L395.089 183.821L395.363 183.024L395.86 182.502H396.084V182.377L396.582 182.153L397.005 181.531L397.503 181.133L397.577 180.735L397.926 180.611L398 180.387L398.274 180.212V179.939L398.548 179.715L398.622 179.317L398.822 179.143L398.971 178.297L399.17 178.172L399.394 177.5L399.742 177.276L399.892 176.878L399.817 176.43L399.966 176.206L397.901 174.888L397.677 174.838V175.236L397.528 175.286L397.453 175.684L396.682 175.858L396.532 175.584L396.259 175.535L396.333 175.261L396.184 174.912L395.91 174.813L396.134 174.465V174.191L395.91 173.967L395.637 174.141L395.537 174.664L394.119 169.737L394.791 166.652L393.098 166.378L392.452 165.183L396.209 162.496L393.945 159.187L394.343 156.052L392.725 153.091L392.899 151.448L395.139 148.761L395.039 147.218L393.098 143.511L394.293 139.977L393.994 138.559L397.577 133.906L397.627 131.915Z" fill="#F2F2F2"/>
</g>
<defs>
<clipPath id="clip0_181_164">
<rect width="961" height="1250" fill="white" transform="translate(0 -727)"/>
</clipPath>
</defs>
</svg>
