<svg width="481" height="481" viewBox="0 0 481 481" fill="none" xmlns="http://www.w3.org/2000/svg">
<g clip-path="url(#clip0_331_164)">
<path d="M104.995 357.404L105.767 357.802L105.916 358.25L106.19 358.474V358.797L106.414 359.071L106.264 360.016L106.339 361.136L106.538 361.31L106.687 362.156L106.961 362.331L106.886 363.102L107.16 363.276L107.384 363.674V364.172L107.732 364.844V365.167L107.508 365.441L107.583 365.839L107.434 366.61L107.085 367.158V367.655L106.936 367.705L106.737 368.327L106.812 368.725L106.961 368.676V368.352L107.235 367.904L107.309 367.183L107.807 366.337V365.939L108.155 365.715L108.23 364.719L107.882 364.396H107.658V363.55L107.16 363.102V362.256L106.812 361.932L106.737 361.161L106.588 361.111L106.438 360.564L106.588 359.718L106.513 358.947L106.787 358.723V358.449L107.284 358.051L108.28 357.603H108.554L109.897 358.225V358.449L110.619 358.996L110.893 359.444L110.967 359.992L112.161 360.539L112.385 361.086L112.883 361.534L113.231 362.206L114.227 362.256L114.874 362.704H115.073L115.297 362.978L116.367 363.152L116.516 363.55L116.168 363.998L117.661 363.948L118.009 364.122H118.656L119.004 364.396L120.348 364.296L120.92 364.072L122.115 364.346L122.762 364.296L123.11 364.247V363.799L122.762 363.525L122.961 363.425V363.027L123.384 362.978L123.309 364.097L123.458 364.271H124.105L124.304 364.719H124.727L124.951 364.993L125.3 365.043L125.648 365.441L126.146 365.665L127.066 365.565L127.141 365.739L127.863 366.013L128.012 366.237L129.082 366.635H129.729L130.077 366.909L130.003 367.357L130.226 367.581L130.376 368.352L130.724 368.526L130.799 369.422L131.371 369.87V370.542L131.172 370.766V371.487H131.321L131.471 371.761V372.259L130.973 372.209L130.774 371.985L130.849 371.761L130.5 371.935L130.226 371.761L130.301 372.383L130.998 372.657L131.147 372.881H131.496V372.707L131.769 372.532V372.309H131.918L131.769 371.811L131.993 371.761L133.561 372.309L134.407 372.98L134.681 373.428H134.83L134.979 373.752L134.904 374.473L133.063 375.543L132.839 375.767L132.765 376.215L132.267 376.315L131.496 376.937V377.384L131.769 377.559V377.783L131.421 378.007L131.272 378.28L130.127 378.007H129.405L128.559 378.106L127.788 378.33L127.639 378.504L127.365 378.454L126.793 378.678L126.021 379.077L124.329 380.296L124.18 380.619L124.379 380.669V380.943L123.807 380.843L122.961 381.739L122.388 382.859L122.463 383.132L122.314 383.083L122.164 384.028L122.239 384.476L121.891 385.098V385.546L121.741 385.646L121.468 386.691L121.741 387.686L121.891 387.785V388.184L121.318 388.905L121.592 389.726L121.02 390.722L120.945 391.12L120.174 391.792L119.975 391.742L119.054 392.016L118.631 392.414H118.357L118.084 392.638L117.511 392.687L117.088 392.513L116.815 392.837L115.62 393.285V393.459H115.347L114.575 393.857L113.804 393.956L113.729 394.18L113.455 394.23L113.032 394.678L112.385 394.728L112.037 395.051L111.689 394.952L111.465 395.176L110.818 395.35L109.126 395.25L108.852 395.474L108.429 395.424L108.354 395.648L107.931 395.748L107.359 395.648L106.787 396.046L105.642 396.221L104.373 395.549V395.101L104.025 394.554V394.33L103.452 393.882V393.658L103.179 393.434V393.26L102.109 392.438L100.691 390.946L99.9192 390.323L99.4215 390.149L98.6501 389.477L97.5055 389.204L96.7342 387.985L96.0125 387.537L95.8633 387.263L95.0919 386.715L94.8181 386.268L94.0468 385.646L93.0515 385.372L92.4791 384.824L92.0562 384.725L91.6331 384.327L91.0609 384.277L90.9116 384.103H90.6378L89.8665 383.705L89.3688 383.655L88.2242 382.983L87.1543 382.809L85.7359 381.689L85.3129 380.968L84.8153 380.694L84.3922 380.644L84.1932 380.097L83.7701 379.599L83.5711 379.549L83.4218 379.151L82.9988 378.927L82.9241 378.654L82.4265 378.38L82.2772 378.056L82.0035 377.882L80.6598 377.559H79.0922L78.8185 377.235H78.6194L78.3954 377.633L76.4048 377.807V377.907L75.7081 378.007L75.3598 378.231L74.7128 378.131L73.6429 378.454L73.5682 378.629H72.4236L72.3489 378.902L71.5029 379.126L71.0799 379.45L69.9353 379.35L69.7362 379.027L69.2386 378.703L68.1686 378.803L68.2433 378.579H68.6663L68.8653 378.405H69.6367L71.2043 378.007L71.279 377.832L71.0799 376.986L71.1546 376.364L72.0752 375.867L73.9912 375.369L74.3396 374.697L74.6133 373.403L75.1856 373.13L75.7579 372.234L75.8325 371.836L75.6832 371.736L75.5339 371.015L76.1063 370.616L76.2555 370.343L76.8279 370.069L77.1016 369.571L78.1715 369.621L78.8185 369.895H79.1669L79.6645 369.621L81.9288 369.671L82.5012 369.347L83.9941 369.074L85.7608 367.631L86.5322 367.183L87.0298 367.083L87.5275 366.536L88.1745 366.436L89.0951 365.814L89.5927 365.715L90.3642 365.988L91.2102 366.038V366.486L91.0609 366.536L91.2102 366.859L91.0111 367.083L91.2102 367.133L91.2848 367.357L90.9364 367.805L91.0111 367.979H91.5088L91.658 367.307H92.0064L92.2801 366.859L92.8524 367.531L93.574 367.755L93.6486 367.655L93.3003 367.481V367.257L93.574 366.934L93.6486 366.61L92.6533 366.287L92.8026 366.063L93.151 365.963L92.5041 366.013L92.2304 365.914L92.0313 366.013V366.337L91.882 366.436L91.683 366.386V365.939L92.1806 365.764L92.4543 365.491L94.0219 364.943L94.2956 364.669L95.0172 364.62L95.4402 364.296L96.8586 363.848L97.5802 363.45L98.2271 363.5L98.7248 363.326L98.9985 362.878L99.5708 362.43L99.8445 360.862L100.566 360.315L100.765 359.992L101.91 359.544L102.482 358.922V358.424L102.681 358.15L103.751 357.603H104.995V357.404ZM156.279 346.505L156.553 346.729L156.702 347.177V347.849L156.428 348.122L156.154 348.172L156.08 346.605L156.279 346.505ZM147.421 343.271L147.844 343.669L147.769 343.843L148.416 344.166L148.615 344.614L149.038 344.564L149.809 345.186L149.735 345.585L149.884 345.684L150.033 346.58L150.183 346.679L150.033 347.227L150.307 348.073L150.108 348.172L150.382 348.62L150.606 350.188L150.108 350.461L149.386 350.014L148.814 349.392L148.889 348.944L148.615 348.72L147.918 348.769V348.869H148.615L148.764 349.192L148.117 349.69L147.769 349.64V350.263L148.267 350.163L148.341 349.715H148.839L149.76 350.387L150.108 350.785L150.183 351.108L150.68 351.432L150.332 351.83L150.133 351.656L149.287 351.606L149.486 351.78H149.909L150.058 351.88V352.153L149.909 352.253L149.56 352.153V352.427H149.411L149.486 352.651L148.839 352.701L148.764 352.875H150.382L150.606 353.199V353.522L150.531 353.622H149.959V353.796H150.183V353.895L149.76 354.069L149.113 354.02L149.038 354.244H149.187V354.468H149.386V354.194L150.158 354.144L150.357 353.821H150.63L150.904 353.373L151.327 353.696L151.476 354.094L151.75 354.144L151.899 354.368V354.99L151.626 355.438L151.352 355.388L150.929 355.662H150.581L146.624 354.368L143.514 354.045L143.016 353.821L141.25 353.87L140.677 353.597L140.603 353.423V352.477L140.404 352.203V351.531L141.175 351.631L141.026 351.905L141.175 352.178L141.324 352.129V351.855L142.245 352.029L143.24 351.979L143.589 351.706H143.812L143.887 351.432L144.236 351.258L144.584 350.536L144.932 350.263L145.007 348.595L145.355 348.322V347.426L145.704 346.878V346.655L144.783 345.933V345.659L145.007 345.211L145.853 344.714V344.49L146.351 344.664L146.5 344.564L146.351 344.241H146.774L147.62 343.917L147.197 343.469L147.421 343.271ZM366.315 219.454L366.39 219.678L366.962 220.126L367.609 220.4L368.181 220.45L368.455 220.798L368.953 220.972L369.6 221.022L369.873 221.196L370.645 221.022L371.988 221.246L373.481 222.266L374.054 222.838L374.626 223.062L375.696 223.908L376.343 224.132L377.189 224.083L378.184 224.356L378.607 224.307L380.299 224.705H380.872L381.942 225.103L383.509 224.929L384.156 225.053L385.226 225.625L386.296 225.899V226.123L386.57 226.222L386.769 226.894L387.341 227.641L387.416 228.089L387.764 228.362H387.988L388.187 228.81L388.461 228.935L388.734 229.333L389.008 229.383L390.004 230.278L390.228 230.677L390.8 231.075L391.372 232.269L391.447 232.767L391.795 233.165L391.994 234.061L392.417 234.508L392.268 235.354L391.845 235.628V236.151L391.646 236.2L390.8 235.802L390.078 236.375V236.549L389.879 236.598L389.655 237.121L388.585 237.967L387.441 238.415H387.018V238.515L385.326 238.689L384.629 238.515L384.206 238.166L383.708 238.042L383.36 237.693L382.589 237.519L381.742 236.997L380.324 236.773L379.976 236.499L379.403 236.723H378.06L377.861 236.499L376.169 235.877L375.97 235.603L375.397 235.728L375.173 235.454L374.676 235.504L374.327 235.33L373.979 235.603L373.407 235.479V235.603L373.058 235.728L372.71 235.379L372.212 235.28L371.988 234.757L371.715 234.807V235.081L371.491 235.354L370.993 235.628H370.719L370.495 235.852L369.724 235.802L369.525 235.404H368.953L368.803 235.23L368.729 234.484L368.953 233.812L369.301 233.538L369.152 232.518L368.878 232.344L368.729 231.995H368.53L368.455 231.771L368.032 231.821L367.534 231.597L367.186 231.149L367.111 230.652L366.464 230.303L366.39 230.079L366.191 230.03L365.768 229.532L364.922 229.408L364.499 229.134L364.076 228.114V227.492L363.503 226.596L363.304 226.546V226.372H363.503L363.653 226.645L363.926 226.546L364.076 226.77L364.499 226.82L364.573 226.944L364.424 226.994H364.001L364.573 227.442L365.718 227.168L365.992 226.77V226.372L365.643 226.198L365.718 225.75H365.569V225.352L365.22 225.078L365.295 224.63L365.071 224.506V223.933L365.345 223.087V222.639L365.569 222.416V221.445L366.066 220.549L365.917 219.703L366.315 219.454ZM187.756 66.4263L191.986 70.0839L190.667 75.9811L196.216 81.8783L198.057 86.3075L192.359 90.9605L191.886 91.4831L192.782 93.3244L189.597 94.7675L187.258 98.276L189.846 98.6741L190.866 100.466L190.294 105.392L187.781 108.776L189.373 114.176L185.715 119.501L183.451 126.368L186.885 127.687L191.413 131.818L194.275 131.071L199.625 136.272L200.944 139.531L203.059 141.995L203.133 143.538L200.794 143.09L197.286 147.27L192.906 145.553L187.805 145.205L184.944 141.547L185.541 140.004L185.193 138.685L181.759 137.317L180.266 137.615L178.101 141.846L180.689 145.677L182.356 145.901L184.695 148.415L185.342 150.405L185.317 153.839L186.81 156.053L190.717 158.044L196.141 157.994L199.227 161.478L202.213 160.06L204.079 160.906L204.477 162.274L201.317 164.738L200.993 166.33L202.437 169.415L202.71 173.223L206.617 172.376L207.861 173.123L207.712 174.715L204.427 180.19L204.203 183.499L205.099 187.032L208.309 190.466L211.121 198.852L209.454 210.198L207.836 213.582L210.847 217.464L214.953 218.484L215.102 221.719L216.197 223.311L220.203 224.381L223.438 228.039L227.469 230.652L229.708 230.751L231.5 231L233.242 235.479L231.077 240.231L231.425 244.934L233.839 243.964L237.024 237.295L240.258 234.857L243.443 239.037L243.269 244.063L247.201 241.749L248.52 241.874L251.978 249.214L254.915 252.051L258.249 251.329L260.438 247.597L262.877 246.527L265.291 246.701L267.829 243.591L271.238 243.864L273.328 246.079L274.099 251.951L277.384 250.881L278.155 251.901L279.996 253.419L283.181 252.225L283.53 247.597L286.516 244.934L287.934 241.476L291.02 238.714L292.786 231.821L291.716 225.999L294.304 221.818L298.161 217.912L299.729 214.577L305.078 217.986L311.025 216.17L314.758 220.077L317.918 220.699L320.556 219.653L324.039 219.33L324.462 220.5H324.611L324.81 220.275L325.582 220.151L325.93 219.927L327.349 219.803L327.548 219.355L327.896 219.305L328.17 218.957L328.742 219.007L329.588 218.484V217.961L329.439 217.837L329.588 217.439L329.24 217.041V216.767L329.09 216.717L329.165 216.444L329.016 216.269L329.513 216.046L329.936 216.269H330.782L330.708 216.046L330.135 216.095L329.563 215.921L329.762 215L330.185 214.777L329.911 214.329L330.409 213.483L330.683 213.308L330.608 213.085L330.757 213.035L330.832 212.637L332.524 211.666L333.445 211.616L334.938 212.015L335.162 211.89L336.232 212.064L336.928 212.015L337.774 212.288L338.421 212.238L338.994 212.015H339.765L341.034 211.666L341.109 211.84L341.88 212.238L341.731 212.811L342.228 212.686L342.303 212.288L342.452 212.238H343.945L344.642 212.338L345.065 213.085H345.637L345.911 212.288L346.334 212.562H346.757L347.18 212.786L348.748 213.134L348.822 213.308L349.171 213.433V213.781L349.445 214.179L350.44 214.08L350.788 213.806L351.361 213.632L353.476 213.458L353.749 213.856L355.367 213.682L355.591 214.13L356.511 214.179V214.453L356.785 214.901L357.357 214.627L357.507 214.354H358.079L358.278 214.179L359.472 214.528L359.671 214.752L360.443 214.702L361.363 215.548L362.085 216.518L362.732 217.041L363.304 218.409L363.23 219.554L363.503 219.902V220.176L363.279 220.45L363.354 220.724L362.707 221.793L362.433 221.893L362.284 222.167L361.786 222.391L361.363 222.341L361.015 222.689L360.517 222.789L359.821 222.689L359.398 222.739L359.323 222.913L358.676 222.789L357.108 222.913L357.034 222.639L356.76 222.59V222.49L357.258 222.092L357.183 221.594L356.611 221.42L356.536 220.972L356.312 220.699L355.615 220.649L355.765 220.201L355.566 219.853L355.342 219.803L355.491 219.629L355.217 219.678L354.794 219.504L354.595 219.629L354.446 220.077L354.172 220.176L354.023 220.574L354.446 220.45L354.944 220.848V221.196L355.441 222.042L354.794 221.868L354.371 221.992L353.948 222.44L353.451 222.341L353.252 222.117L353.401 221.943V221.196L352.978 220.972H352.829V221.196H353.028L353.177 221.594L353.028 221.992L352.331 221.943L352.182 221.769L352.331 221.321H352.107L351.833 221.769L350.689 221.992L350.838 222.167L350.763 222.44H350.116V223.013L350.465 222.963V223.411L349.967 223.361L349.395 223.635V223.908L348.972 224.53V224.804L349.245 224.705L349.942 223.635L350.863 224.083L350.714 224.655L350.216 225.153L349.22 225.551V225.775L348.947 226.048L348.3 226.222V227.367L347.603 227.317V227.218L348.101 227.168L348.026 226.372L347.528 226.422L347.379 226.247H347.18L346.683 226.596L346.185 226.496L346.036 226.322H345.264L345.065 226.496L344.642 226.372L344.144 226.919L343.721 226.869L343.572 227.317L343.497 227.044H343.348L343.199 227.392H342.925L343 227.666L342.502 227.442L342.228 227.616L341.805 227.044L340.661 227.143L339.815 226.795H339.317L338.894 227.193L338.62 227.243V227.467L339.118 227.691L339.466 227.417L339.964 227.467L340.736 227.74L341.233 228.188L341.158 228.586L341.432 228.711V229.283L341.656 229.383V229.606L341.855 229.781L342.701 229.831V230.278H342.975L343.124 230.552H343.398L343.746 230.95L344.319 230.9L344.592 231.348L345.588 231.523L345.861 231.348L346.558 231.398L346.981 231.796L347.255 231.572L347.528 231.747L347.678 231.398H347.827L347.902 231.747L347.553 231.871L347.479 232.045L347.902 232.145L347.827 232.418L347.976 232.468L348.2 232.344L348.623 232.393L348.549 232.742L348.2 232.916V233.264L349.046 233.613L349.196 233.837L349.892 233.712V233.538L349.619 233.414L349.693 233.239L350.116 233.289L350.34 233.115L350.191 232.891L350.266 232.145L349.843 231.97V231.796L350.067 231.672H350.639L351.062 231.846L351.983 231.722L352.132 231.846L351.983 232.418L351.833 232.592L351.261 232.767L351.112 233.115L350.689 233.389L350.49 234.011L350.763 234.359H351.037L351.186 233.463L351.41 233.339V233.165L352.256 232.816V232.468L352.455 232.12L352.729 232.07L352.58 231.722L352.804 231.373L352.654 230.701L352.729 230.353L353.799 230.005L353.948 230.278H354.222L354.496 230.677L355.143 230.95L355.068 231.299H355.217L355.143 231.572L355.292 232.02L355.715 232.369V232.642L356.063 232.592L356.138 232.717V233.239L355.914 233.638L356.76 234.036L356.561 234.309H356.984L357.258 234.036V233.762L358.029 233.414V232.393L358.303 231.498L358.576 231.1L359.572 231L359.92 230.726L360.343 230.776L360.692 231.05L360.542 231.498L360.194 231.547L359.97 232.219L359.771 232.269V232.443H359.547V232.617L359.771 232.667V233.016H359.92L359.995 232.742H360.219V232.568L360.791 232.916L361.438 232.692L361.712 232.816L361.786 232.592H362.01L362.284 232.319L362.135 231.97L362.707 231.796V231.622L362.209 231.398L361.513 231.572V231.348L361.786 231.249V230.975L361.637 231.149H361.413L361.264 230.751L360.567 230.477L360.343 229.806L360.144 229.631L359.721 228.487V228.089L360.07 227.417L359.796 225.501L360.07 225.103L360.716 225.377L361.562 225.426L361.712 225.327H362.483L362.981 225.053H363.254L363.528 224.779H363.802L363.951 224.953L363.877 225.401L364.299 225.75L364.374 226.422L363.951 226.471L363.379 226.023L362.732 226.148L362.384 226.994L363.304 228.412L363.454 229.383L363.653 229.781L364.723 230.453L365.369 230.328L366.066 230.9L366.29 231.473L366.564 231.523L366.912 232.145L367.559 232.493L368.057 232.443L368.405 232.792V233.463L368.256 233.588L368.181 234.309L367.957 234.658L368.032 235.106L367.883 235.379H368.231L368.156 235.952L368.355 236.126V236.922L368.505 237.146L367.932 237.27L367.783 237.445L368.43 237.395L368.853 237.121L369.575 237.345H370.421V237.445L370.918 237.569L373.954 237.669L374.875 238.116L374.676 238.863H374.875L374.949 238.589L375.298 238.465H375.447V238.863L375.795 238.739L376.368 238.863L376.517 238.739L376.865 238.913L377.562 238.863L377.637 238.987L378.906 238.763L379.627 238.888L380.2 238.614L380.971 238.49L382.738 238.937L383.808 239.659L384.38 240.505L385.375 240.903V241.077L384.952 241.252L385.027 242.147L384.878 242.371L385.077 242.645H385.226V241.451L385.798 241.401L385.997 241.177L386.843 241.127L387.067 240.953L387.64 241.003L387.789 240.953V240.679L389.207 240.804L389.979 240.406L390.551 240.356L392.318 240.63L392.591 240.804H393.587L394.234 240.455L395.503 240.555L395.851 240.381H396.498L397.145 240.48L397.369 240.306H398.066L398.563 240.132L399.982 239.336L400.405 238.44L401.176 237.818L401.599 237.196L401.524 236.922L402.37 236.698L402.52 236.474L405.779 236.598L406.625 236.424L406.974 236.026L406.899 235.802L408.666 236.026H410.358L410.706 235.852L410.631 235.628L410.905 235.578V235.305L411.104 235.131L413.667 235.255L414.439 234.981L416.205 235.031L416.28 235.131L418.47 235.031L419.614 234.857L419.764 234.683H420.112L421.033 234.235L422.6 234.061L423.098 233.837L424.79 233.488L427.776 233.712L429.692 234.061L429.766 234.16L433.797 234.11L434.444 233.886L434.793 233.613L434.942 233.264L435.29 233.09L436.783 232.966L437.132 233.314L438.202 233.264L438.351 233.488H438.923L438.998 233.264H439.421L439.645 233.09L440.416 233.19L440.989 233.09L441.188 232.916L441.262 232.344L442.531 232.617L442.805 232.393L443.303 232.344L443.153 232.12L443.427 232.07L444.124 232.244L444.273 232.468H444.97L445.467 232.194L446.239 232.095L446.886 232.194L447.035 231.697L447.234 231.647V231.299L447.881 231.025H449.797L449.872 231.149L450.718 231.025L450.991 231.199L451.912 231.299L452.684 231.075L452.609 230.975L452.957 230.801L453.306 231.373L454.027 231.597L454.176 231.821H454.45L455.097 232.269V232.841L455.296 233.016H455.57L455.495 233.762L455.993 234.16V235.006L455.844 235.976L455.421 236.325L455.57 237.967H455.371L455.147 238.315L455.371 238.539L455.222 238.763L455.296 239.112L455.147 239.161V239.385H455.296L455.147 239.734L455.222 239.908H455.072L454.923 240.182L454.649 240.231L454.798 240.729L454.6 240.853L453.828 242.371L453.131 242.993L452.908 243.566L452.261 243.964L452.41 244.412L452.211 244.462L452.783 244.959H452.509L451.937 244.511V244.785L451.663 244.835V245.059L451.091 245.158L450.892 244.486L450.245 244.71L448.603 244.661L448.453 244.437H448.03L447.533 244.088H446.761L446.338 244.262L445.915 244.76L445.567 244.934L444.92 245.83L444.995 246.576L445.343 246.8L445.691 246.626L446.04 247.074L446.114 248.418L446.388 250.234L446.662 251.08L446.736 252.2L447.234 253.842L447.383 253.967L447.458 254.539L447.806 255.161L447.881 255.684L448.528 257.326L448.677 258.271L449.324 259.565L449.399 260.287L450.245 263.173L450.394 265.711L450.32 272.305L450.469 272.43L450.27 274.346L450.469 275.764L450.27 276.485L450.121 276.535V276.983L449.698 277.879L449.548 278.6L448.827 279.546L447.831 280.342V280.566H447.682V281.188L447.458 281.586L446.538 282.532L445.194 283.328L443.85 283.776L443.626 283.677L442.482 284.174V285.692H442.332L442.258 285.294L441.486 285.742L440.839 285.692L440.765 285.792H440.566L440.342 285.443L440.068 285.393L439.297 285.617L438.874 285.966L438.724 286.638L439.496 287.21L439.147 287.434L438.998 287.708L439.346 287.981L440.068 288.031L439.919 288.305L438.998 288.205L438.65 287.708L437.157 287.757L436.584 287.981L436.435 288.33L436.087 288.603L435.44 288.777L435.216 289.001L434.519 289.051L434.37 289.449L433.598 289.723L433.524 289.897H433.3L432.951 290.171L432.678 290.071L432.479 290.171L431.483 290.121L430.712 290.395H428.945L427.378 290.619L426.681 291.067L426.183 291.116L425.462 291.614V291.788L424.889 291.962L424.69 292.41L424.417 292.634L424.491 293.032L424.342 293.132V293.704L424.193 293.878L423.048 294.152L422.774 294.5L422.426 294.55L422.501 294.724L422.924 294.774L423.123 295.272L422.127 295.222L421.854 295.347L421.505 295.172L421.281 295.446L419.788 295.944L417.798 295.894L413.468 296.466L412.199 296.79L411.055 296.914L409.561 297.362L409.138 297.636L408.143 297.86L407.496 298.258L406.999 298.357L406.65 298.706L405.954 298.93L404.46 299.825L403.54 300.622L403.391 301.02L402.744 301.368L402.171 302.04L401.176 302.836L401.101 303.11L399.335 304.354L399.26 304.578L398.837 304.926L398.762 305.275L398.414 305.499L397.145 307.191L396.797 307.763L396.722 308.161L396 309.181V309.53L395.801 309.704V310.376L395.304 311.844L394.881 314.357L394.035 317.168V318.686L394.881 321.996L394.806 322.344L395.08 323.588L395.727 324.932L396.423 327.296L396.274 328.192L395.926 328.59L395.279 328.764L395.204 328.938L394.134 328.988L391.596 328.814L391.248 328.639H390.675L388.187 328.142L387.913 327.968L386.221 327.793L386.022 327.619H385.375L385.102 327.445L384.828 327.495L383.982 327.047L382.29 326.873L382.066 326.699H381.643L381.419 326.524L379.428 325.952H378.657L377.388 325.554L376.318 325.504L375.97 325.231L375.323 325.181L374.75 324.907L373.979 324.857L372.411 324.36L370.495 324.31L370.072 324.409L369.5 324.683L369.575 324.907L369.923 325.081L370.072 325.654L369.351 325.554L367.012 326.4L366.166 327.171L364.051 328.415L363.478 329.087L362.483 329.759L361.836 330.431V330.655L361.189 330.978L361.115 331.377L360.468 331.7V331.874L359.547 332.496L358.9 333.293L358.477 333.516L358.129 334.014L357.855 334.91L357.084 335.408L356.66 336.353L356.237 336.577L356.312 336.677L356.163 336.801H355.74V336.975L355.093 337.249L354.446 337.299L354.098 337.697L353.451 337.523L353.028 337.746L352.605 337.697L352.455 337.921L351.684 338.145L351.41 338.642L350.987 338.891L348.499 339.289L348.001 339.787H347.429L347.28 340.285L346.707 340.185L346.21 340.459L344.791 340.359L342.527 341.081H339.964L338.048 341.354L336.904 341.678V341.777H336.555L336.406 342.176L335.983 342.449L335.211 342.499L334.714 342.897H334.291L333.868 343.171L333.022 343.271L332.748 343.494L331.827 343.768L328.916 344.266H327.722L327.224 344.539H326.154L324.163 344.938L322.745 345.435L321.824 345.983L320.829 346.256L317.221 347.998L315.454 349.342L315.305 349.839L314.808 350.238L314.384 351.233L313.24 353.024L313.439 353.298H313.24L313.041 352.975L312.817 353.024L312.892 353.348L313.539 353.572L313.115 353.796L313.041 354.194L312.692 354.244L312.344 354.567L311.423 354.791L310.229 355.563L308.462 357.578L307.965 358.3L307.741 358.971L306.472 359.917L306.397 360.141L305.7 360.763L305.053 361.758L304.406 363.5L304.133 363.724L302.441 363.948L301.868 364.396L299.803 363.898H298.808L298.31 363.624L297.589 363.575L296.942 363.251L296.369 362.48L295.026 361.634L293.184 361.086L293.11 360.912L292.264 360.464L291.194 360.141L290.621 359.643L290.273 359.544L289.502 359.594L289.079 359.992H288.805V360.166H288.382L286.889 359.668L286.317 359.618L282.485 356.483L280.22 354.965L279.449 354.741H278.678L278.329 354.965L277.682 354.916L277.956 355.538L278.528 356.035L278.379 356.085L277.956 355.861L277.757 355.413L277.259 355.09H275.493L273.726 354.194H273.029L271.387 353.572H270.889L270.616 353.248L269.123 352.8L266.211 351.357L265.44 351.308L264.743 350.909L263.599 350.86L259.418 348.894L259.145 348.944L258.921 349.491L257.303 349.441L257.104 349.168L257.254 348.62L256.482 348.222L253.795 347.451L253.645 347.849L253.72 348.247L253.521 348.346L253.446 348.023L253.596 347.401H252.874L250.958 346.679L241.951 345.51L239.686 345.684L239.537 345.585L239.612 345.311L240.458 345.186L239.811 345.087L239.537 345.137L239.462 345.361L239.039 345.261L239.114 345.485L239.388 345.659V346.008L239.238 346.057L237.745 345.883L234.983 345.933L234.635 346.207L232.221 346.655L230.106 347.376H229.459L228.041 348.098L227.27 348.272L227.071 348.496L225.155 348.894L224.508 349.392L221.596 349.839L221.099 350.063L217.341 350.238L217.192 350.461H216.421L216.222 350.636L214.231 350.86L212.539 350.909L211.394 350.735L209.976 350.785V350.685L204.95 350.86L204.726 350.959L202.113 350.86L201.964 350.959L202.038 351.407L201.889 351.457L201.814 351.233H200.172L199.401 351.457L198.903 351.407L197.759 351.73L197.186 352.228L196.913 352.178V352.353L195.843 352.402V352.676L195.693 352.776L194.773 352.825L194.574 353.099H192.508L192.16 353.298L191.015 353.472L191.09 353.572L190.941 353.622L188.378 353.796L187.457 354.069L187.034 354.517H186.611L186.686 354.692L185.616 354.741L183.774 355.363H182.58L177.827 357.031V357.205L176.757 357.827V358.15L176.409 358.25L176.26 358.573L175.911 358.673L175.837 358.996L175.488 359.17L175.762 359.569L175.19 359.519L175.041 360.016L174.194 360.688L173.697 361.908V362.679L173.199 363.177V363.45L172.204 364.968L171.283 365.814L170.786 366.71L170.363 366.76L169.367 366.436L168.521 365.59L168.247 364.918L167.053 363.923L166.978 363.6L165.784 362.754L165.436 362.206L163.097 360.24L160.409 358.499L155.234 356.209L154.039 355.139L154.189 354.244L154.039 354.144L153.965 353.597L154.189 353.199L154.612 353.248L155.109 353.647L155.184 354.368L155.035 354.542L154.761 354.492V354.716L154.985 354.766L155.408 354.368L155.259 353.87L155.906 353.423L155.831 353.149L156.901 352.751L157.175 352.203L157.1 351.88L157.249 351.258L157.473 350.984L157.399 350.437L157.473 350.337L157.747 350.387V350.561L158.021 350.461V350.238L157.672 350.287L157.523 350.014L158.095 349.566H159.24L160.161 349.392L161.081 349.939L161.23 350.163L163.346 351.108L163.993 350.835L164.266 350.511L164.192 350.412L164.465 350.188H165.61V350.014H165.759V349.118L166.456 348.894L167.178 348.122L166.954 347.003L167.526 346.455L167.451 345.062H167.103L167.178 345.286L166.954 345.385V346.107L166.381 346.829L166.456 347.899L166.182 348.222L165.411 348.496L165.187 348.944L164.416 349.267L163.769 349.765L163.495 350.213L162.425 350.113L161.355 349.79L161.28 349.516L160.011 348.844L159.812 348.57L159.887 347.724L160.235 347.102L160.584 346.878L160.658 346.605L161.23 345.933L161.579 345.983L162.002 345.535H162.201L162.126 345.361H161.778L161.43 345.634L161.156 345.535L161.081 344.863L161.23 343.967L161.43 343.743L161.28 343.569H160.857L160.21 343.295L160.061 343.843L160.285 344.241V344.738L160.633 345.062L160.708 345.858L160.136 346.854L159.489 347.625L159.563 348.396L159.29 348.794L158.568 348.894L158.419 348.57H158.195V348.844L157.423 348.944L156.851 349.217V349.839L156.577 350.063H156.229L155.881 349.79L156.105 349.168L156.03 348.67L157.299 348.272L157.448 348.098V347.6L157.1 347.376L157.249 346.381L156.553 345.385L156.702 345.211L156.627 344.589L157.125 344.415L157.05 343.569L156.826 343.395H156.478L156.403 343.569L155.682 343.395L154.985 343.494L154.91 343.096L154.487 343.146L154.214 343.594L154.562 344.092V345.211L154.91 346.057L155.184 346.232L155.383 346.679L155.184 347.973V348.147L155.383 348.247L155.308 349.914L155.159 350.088L155.234 350.362L155.035 350.636L155.383 350.81L155.458 351.308L155.308 351.482L154.96 351.531L154.537 351.133L154.686 350.909V350.412L154.338 350.461L153.99 350.063L153.343 349.79V349.566H153.193L152.92 349.118L152.994 349.018L152.223 348.396L151.501 348.222V348.122L151.004 348.172L150.805 348.073V347.675H151.004L151.203 347.351L150.854 347.525L150.506 347.426V347.152L150.929 346.704L150.705 346.032L150.979 345.137L151.253 344.913V344.291L151.526 344.191L152.099 343.022L151.899 342.624V342.275L151.178 342.225V342.673L149.983 342.574L149.56 342.4L149.411 342.624L149.56 343.022L149.137 343.196V343.594L149.287 343.644L149.212 344.042L148.789 343.768L148.366 343.718L148.291 343.32L148.441 343.221L148.291 343.121H147.868L147.669 342.897L146.823 342.673L146.674 342.723L146.599 343.046H146.375L146.45 343.32H146.102V344.092H145.753V343.693L145.529 343.519L144.683 343.569L143.539 342.847V342.499H142.767L142.344 342.225L141.001 342.4L141.075 343.345L141.722 343.669L142.369 343.718L142.519 344.042H142.792L143.016 344.365V344.639L143.29 344.813V345.161L143.016 345.112L142.942 344.838L142.593 344.788L142.519 344.465L142.245 344.141L141.747 344.042L141.474 343.768L141.051 344.042L140.777 343.992L140.503 344.316V344.714L140.304 344.938V345.211L140.503 345.385L140.354 345.784L140.005 345.684L139.358 345.784L139.508 345.46L138.935 345.012V344.465L138.786 344.191L138.214 344.241L138.065 344.415H137.368L137.219 344.589L137.866 344.863L138.065 345.933L138.338 346.256L138.189 346.43V346.978L138.04 347.077V347.749L138.114 348.471L138.463 348.745V348.919L138.313 348.969L138.04 349.69L138.264 350.984L138.612 351.755V352.203L138.264 352.477L137.915 353.099L138.189 353.149L139.035 352.527L139.309 352.577L139.582 352.353V352.079L139.433 351.979L139.508 351.706L139.732 351.755V352.975L139.931 353.423L139.284 353.87L137.642 354.194L137.069 354.468L136.796 354.418L136.074 354.816L134.656 355.09L133.934 355.413L131.943 355.637L130.749 354.293L130.326 354.069L130.177 353.572L129.405 353.024V352.527L129.604 352.203L129.331 351.93V351.531H129.107V350.984L128.957 350.81V349.69L129.53 349.591L129.953 349.765L129.754 349.591V349.143L129.903 348.969H130.55L130.973 349.242L131.471 349.068V349.292H131.695L131.62 348.894L131.048 348.993L130.849 348.769L131.048 348.496L130.699 348.67L130.426 348.57L130.849 346.953L131.197 346.903L131.545 347.451L131.471 347.724L131.62 347.824L131.894 347.774V347.5L131.545 347.053V346.729L130.699 346.281L130.625 345.659H131.197L131.396 345.485V345.211H131.744V345.385H131.894L132.043 345.037L131.122 344.763L130.973 344.365L129.779 343.469L130.052 342.748V342.25L130.276 342.026L130.202 341.703L128.858 341.753L128.933 342.026L129.281 342.2V342.375L129.206 342.474L128.559 342.424V342.922L128.833 342.822L128.982 343.271L129.256 343.494L128.982 343.942L128.485 343.992H127.639L127.44 343.768L126.295 343.32L125.3 343.37L124.802 343.146L124.304 343.196L124.578 342.748L123.931 342.922L123.732 342.524V342.2H122.886L122.662 342.3V342.798L121.965 343.022L121.119 342.972V343.246L121.617 343.469L121.692 343.644H121.841V343.469L122.612 343.644L122.961 343.469L123.035 343.246H123.309L123.807 343.743L124.454 343.843L124.528 344.515L124.752 344.614V344.838L124.329 345.51L124.528 345.784L124.951 345.883L125.026 346.281L125.25 346.381L125.325 346.829L125.972 348.122L126.245 348.222L126.818 348.944L127.091 348.993L127.166 349.317L127.44 349.541L127.788 349.367L128.012 349.466V349.64L127.738 349.69V349.914L128.087 350.586L127.664 350.536L127.589 350.76L128.51 350.984L127.937 351.084L127.788 351.357L128.062 351.407L128.559 351.233L128.709 351.631L128.559 352.253L129.206 353.024L128.559 353.796L127.489 354.468L127.415 354.741L127.066 354.965L126.345 356.035L125.424 356.433L124.852 356.16L123.782 354.766L123.135 354.318L122.214 353.92L121.567 353.97L121.144 353.746L120.448 353.696L119.029 353.024L117.959 351.955L117.885 351.556L117.462 351.158L117.387 350.835L116.964 350.437V350.213L116.541 349.591L116.342 349.541L115.993 349.043L115.496 348.72H115.222L114.799 348.272L114.227 348.172L113.032 347.401H112.609L112.46 347.575L111.763 347.525L110.071 345.858L109.3 345.46L108.877 345.41L108.653 345.186L106.961 344.515L105.966 343.967H105.617L105.393 343.693L104.746 343.469L104.174 342.922L104.099 342.599V341.877L104.373 341.927L104.647 341.653L104.498 341.429L104.647 341.155L104.373 340.708L103.95 340.807V341.205L103.676 341.379L103.03 340.882L102.034 340.608L101.835 341.056L101.984 341.504L101.636 341.404L101.561 340.956L101.835 340.857V340.583L101.984 340.533L101.91 340.359L101.138 339.787L100.218 338.493L99.7947 338.269L99.7201 337.995L99.0732 337.722L98.5755 337.224L98.5008 336.95L98.2271 336.776V336.552L97.5055 335.607L97.2318 335.507L96.5102 334.711L96.2365 334.089L95.6641 333.691L95.0172 333.516L94.2956 332.894L94.221 332.446L94.4947 330.879L94.221 330.829L94.1463 330.332L94.4947 329.933L94.5693 329.535L95.1416 329.436L95.913 328.764V328.49L95.3407 327.694H95.1914L95.3407 327.918L95.2661 328.266L94.6191 327.918L94.5445 327.744L94.1961 327.918L93.997 327.868L93.9224 327.246L94.42 327.072L94.5693 326.948L94.4947 326.773L94.1463 326.823L93.6486 327.221L93.4994 327.619L93.8477 328.067L94.2707 328.117L94.4947 328.017L95.2163 328.465L95.3656 328.913L94.7933 329.361L94.3703 329.311L94.0219 329.635L94.0966 329.908L93.8228 330.008V330.406L94.0468 330.506L93.9721 330.904L94.1214 330.954V331.401L93.5492 333.143L93.3252 333.243V333.964L93.4745 334.138L93.2505 334.462L92.7529 334.362L92.4045 332.969L92.1308 332.745V332.347L91.9069 332.123H91.7078V332.297L91.3595 332.123L91.2102 331.949L91.3595 331.551L90.7125 331.202V331.028L89.5679 330.58L89.2195 330.257L88.2242 329.859L88.1496 329.685H87.9505L87.3782 329.286L86.8805 329.336L86.6068 330.058L86.4077 330.107H85.8355L85.4124 329.784H85.0641L84.9148 329.51L84.4171 329.237L84.3425 329.013L83.7701 328.789L83.6955 328.117L83.5462 328.067V327.793L83.3472 327.694L82.9988 326.898L82.3519 327.072L82.5509 327.196V327.47L82.3519 327.57V327.744L82.6256 328.465L82.5509 328.639L82.9739 328.963L83.1232 329.311L83.7701 329.635L84.1185 330.207L84.6161 330.307L85.1138 330.63L87.0298 330.456L87.1044 331.078L87.2538 331.252H87.5275L87.6768 330.904L88.1745 331.128H88.8214L89.0205 331.252L89.0951 331.7L89.2444 331.799L89.5181 331.75L89.9411 331.974L89.7918 332.646L90.6378 333.815V334.039L90.9116 334.138L91.3346 334.636L91.4838 335.034L92.4791 335.607L92.6783 335.88V336.154L92.4045 336.378L92.4791 336.652L92.8275 336.975L93.2505 337.025L93.4745 337.249L93.8975 337.075L93.8228 336.851L94.0966 336.627L94.4449 336.801L94.221 337.025L94.2956 337.249L93.9472 337.348L93.8726 337.746L94.0717 337.921L93.997 338.095L94.42 338.369V338.593L94.7684 338.816L95.0421 339.264L95.6891 339.488V339.837L96.1867 340.285L96.759 340.459L97.1074 340.857L97.605 340.956L98.1773 341.354V341.802L99.4464 341.902L99.944 342.3L100.093 342.624L100.516 342.524L100.367 342.076H100.641V342.3L101.064 342.574L100.989 342.673L101.636 343.221L102.208 344.116L101.711 343.893L101.213 343.221L100.566 343.494L100.491 343.942L100.765 344.216L100.84 344.614L101.114 345.012L101.387 345.112V345.286L101.661 345.51L102.159 345.734V347.252L102.656 347.525L102.806 347.351L102.731 346.953H102.93L103.204 347.127L103.278 347.451L103.477 347.55V347.824L103.751 347.874L103.9 347.7V347.301L103.627 347.127V346.903L103.9 346.679L104.174 346.779L104.249 347.053L104.05 347.948L103.627 348.272V348.496L102.905 348.819L102.208 349.367L101.984 349.765L101.711 349.864L101.636 350.138L101.288 350.461L101.213 350.785L100.939 351.009L100.79 351.631L100.367 352.129L99.7201 353.647L99.0732 353.87H98.5755L98.3764 354.094L97.7295 353.92L96.8835 353.97L96.3858 353.796H95.1914L94.9674 353.895L94.8181 354.219L94.0966 354.318L93.5243 354.766L92.3797 354.94L91.5337 354.219H91.2599V354.045L90.9116 353.771V353.273L91.2599 352.875V352.427L90.9862 352.153L90.9116 351.706L91.0609 351.208L90.9116 350.984L90.9862 350.71L90.7125 350.486H90.4388L90.1651 350.71H89.6674L89.8167 350.088L90.0407 349.989V349.665L89.6923 349.392L88.9706 349.566L88.6223 348.72H88.1246L87.7763 348.894L87.4279 348.496L87.5026 347.874L87.3035 347.7L86.5819 347.6V347.053L86.3082 346.829L85.6613 346.878L85.4622 346.655H85.2382L85.1636 346.829L85.3876 347.053H86.3829V347.774L87.3035 347.948L87.2289 348.496L87.7265 349.043L88.0749 349.093L88.2988 348.869H88.5726L88.6472 349.416L88.8463 349.64H89.4186L89.4932 349.541L89.8416 349.64V349.964L89.6425 350.063L89.4932 350.461L89.5679 350.86H90.2148L90.4885 350.685L90.7622 350.785L90.8369 352.178L91.0609 352.353L91.1355 352.85L90.7871 353.174L90.7125 353.895L92.7778 355.239L93.2754 355.139L93.4994 355.314V355.04L94.0717 354.866L94.2707 354.642H94.6938L94.7684 354.816L94.0717 355.264H93.6486L93.0017 355.986L92.2304 356.259L91.882 356.657L91.1853 356.831L90.4636 357.379L87.4279 357.877L86.358 358.374L84.865 358.424L84.5167 358.648H84.2429L84.019 358.872L83.2476 359.046L82.4763 359.817L82.1279 359.768L82.0532 359.494L81.7049 359.544V359.867L81.3565 360.489L80.7842 360.763H80.3612L80.2866 360.589L81.0579 360.265L80.9833 360.166L81.1824 359.942L81.1077 359.718L80.9086 359.842V360.066L80.7593 359.792L80.5354 359.842L80.6847 360.24L80.411 360.415L80.0626 360.365V360.091L80.2617 359.992L80.187 359.892L79.8387 359.992L79.9133 360.265L79.142 360.091V360.315L79.8636 360.365L79.7889 361.31L79.2166 361.41L79.0175 361.31V361.161H78.8682L78.7189 361.385V361.833L77.7236 361.783L77.45 361.559V361.236L78.2213 360.788L78.8682 360.738L78.9429 360.639L78.3706 360.589L77.6739 360.987L77.45 360.937L77.1762 360.439L76.8279 360.489L76.3302 360.166L76.1809 359.942V359.444L76.0316 359.394L75.957 359.942L76.2306 360.216L76.3053 360.539L77.0766 360.862L77.002 361.484L76.7283 361.708H76.3799L76.5292 361.161L76.3302 361.111L76.4048 361.335L76.2555 361.385V361.609L75.9072 361.783L75.8325 362.107H74.9118L74.7626 362.38L74.9617 362.704L74.887 362.928H75.086L75.1607 362.754L75.5091 362.803L75.5837 363.699L74.663 364.47L74.5884 364.918L74.1654 365.092L73.9663 365.59H73.7424L73.6677 365.988L73.4687 366.162L73.618 366.386L73.5433 366.71L72.772 367.108L72.8466 367.282L72.5729 367.456L72.4982 367.73V368.501L72.2743 368.452L72.1996 368.178L71.8513 367.904V367.68L71.6522 367.581L71.7268 367.083L72.0006 367.183L72.0752 366.959L71.6522 366.859L71.4283 366.536L71.279 366.76L71.4283 366.809L71.5029 367.257L71.279 367.531L71.6274 367.755L71.901 368.203V368.526L70.9057 368.7L70.5574 368.377V368.203L70.3334 368.153L70.2588 367.83H69.9104L70.9057 368.9L71.901 368.725L71.8264 369.397L72.1001 369.347L72.2494 369.447L72.1747 369.547H72.3987L72.3241 369.273H72.4734L72.7471 369.721L72.8963 369.547L72.6724 369.372L72.5978 368.601L72.8217 368.501L73.1701 369.273L73.5184 369.497L73.2447 369.945L72.4734 369.994L71.9757 369.596L71.4034 369.497L68.716 367.208L67.1484 366.76L65.8047 366.138L63.6151 365.516L62.5451 364.968L61.3507 364.694L61.0023 364.47L60.5794 364.52L59.7333 364.247L58.5887 364.197L57.7178 363.973L57.0709 360.141H49.7304L50.1285 355.886L49.6309 355.388L43.0618 357.255L41.3698 354.492L40.1257 350.536L40.474 347.127L41.8177 344.614L40.5984 337.348L37.1397 337.722L36.3186 332.571L39.8519 329.709L40.6731 324.882L36.5923 324.036L33.3326 326.226L31.1429 325.828L27.6344 321.971L22.1851 312.988L25.1959 310.724L32.5363 309.455L33.0589 309.778L32.5612 311.396L33.9547 311.67L35.2984 309.131L36.5425 308.733L39.9515 312.043L45.575 313.287L48.9093 315.029L54.3338 315.651L57.7924 319.756L59.808 320.652L65.4813 318.736L66.8747 315.253L64.1127 311.67L64.8592 309.53L67.2729 307.066L66.5014 305.275L64.063 303.707L64.2869 299.651L62.8686 293.182L64.063 288.678L63.1671 286.886L60.1314 285.02L60.7784 280.243L59.8577 275.913L56.0009 269.046L54.5826 262.676L56.5981 262.004L63.2916 263.198L64.9836 262.302L66.8498 259.491L69.4377 258.421L74.7128 261.009L76.0565 259.491L74.6133 254.813L77.0518 249.339L76.2058 243.79L81.2819 243.217L81.4311 240.903L80.0129 238.763L79.8636 236.375L75.3598 234.061L71.5278 226.994L72.7968 225.352L76.803 224.207L76.9025 222.515L75.9819 219.007L73.1452 216.966L69.8606 211.343L68.8404 205.52L66.5014 204.948L60.9028 195.07L58.1408 195.169L57.245 194.199L56.9216 188.675L59.2108 186.336L59.8827 182.081L56.1253 178.274L55.7769 174.467L56.2 172.526L60.5545 173.521L61.2014 172.302L60.8033 170.933L57.1206 167.176L56.6229 161.702L55.0305 155.307L52.9154 152.744L56.7474 148.166L57.1704 136.222L59.4596 130.499L62.0475 128.26L60.9526 124.925L65.2076 120.471L65.2325 118.854L64.4113 117.709L59.5592 114.798L60.1314 109.672L66.3273 115.669L67.6709 115.495L68.5917 113.156L73.2198 112.758L73.7424 109.548L77.2508 108.801L78.3208 106.736L80.0875 98.0023L80.1622 93.7972L82.7499 90.5126L83.3472 88.0493L87.1293 87.6014L87.6519 87.1534L87.5026 84.1676L88.9458 83.869L91.3096 84.0929L94.8928 87.3774L97.6548 86.6806L98.5008 84.7897L95.6393 81.9032L99.745 78.569L100.74 74.8863L102.333 72.9455L113.032 86.5066L112.211 87.6511L108.379 88.1737L104.174 90.3634L105.816 91.6324L105.468 98.3506L106.563 100.142L109.499 110.593L110.644 111.29L113.455 110.493L119.9 110.892L122.637 108.876L125.673 108.528L128.161 105.144L129.53 104.497L125.25 102.73L128.161 99.1718L130.998 97.3305L138.637 95.315L140.329 93.0258L144.484 93.3741L149.685 91.1347L150.879 91.5328L155.881 102.556L157.324 102.257L161.629 98.0272L161.703 94.2949L164.366 93.6728L165.311 93.1004L165.286 91.4831L162.251 88.6714L160.384 85.2126L158.941 84.4662L158.867 82.4009L165.56 80.037L167.202 77.8971L167.128 76.23L168.024 74.9112L171.93 76.006L173.747 72.7713L177.952 72.9455L187.756 66.4263Z" fill="#F2F2F2"/>
<g filter="url(#filter0_d_331_164)">
<circle cx="179.5" cy="102.5" r="7.5" fill="#D50000"/>
<circle cx="179.5" cy="102.5" r="6.5" stroke="#1C1C1C" stroke-width="2"/>
</g>
<g filter="url(#filter1_d_331_164)">
<circle cx="171.5" cy="177.5" r="7.5" fill="#D50000"/>
<circle cx="171.5" cy="177.5" r="6.5" stroke="#1C1C1C" stroke-width="2"/>
</g>
<g filter="url(#filter2_d_331_164)">
<circle cx="119.5" cy="157.5" r="7.5" fill="#D50000"/>
<circle cx="119.5" cy="157.5" r="6.5" stroke="#1C1C1C" stroke-width="2"/>
</g>
<g filter="url(#filter3_d_331_164)">
<circle cx="147.5" cy="218.5" r="7.5" fill="#D50000"/>
<circle cx="147.5" cy="218.5" r="6.5" stroke="#1C1C1C" stroke-width="2"/>
</g>
<g filter="url(#filter4_d_331_164)">
<circle cx="342.5" cy="229.5" r="7.5" fill="#D50000"/>
<circle cx="342.5" cy="229.5" r="6.5" stroke="#1C1C1C" stroke-width="2"/>
</g>
<g filter="url(#filter5_d_331_164)">
<circle cx="247.5" cy="286.5" r="7.5" fill="#D50000"/>
<circle cx="247.5" cy="286.5" r="6.5" stroke="#1C1C1C" stroke-width="2"/>
</g>
<g filter="url(#filter6_d_331_164)">
<circle cx="261.5" cy="333.5" r="7.5" fill="#D50000"/>
<circle cx="261.5" cy="333.5" r="6.5" stroke="#1C1C1C" stroke-width="2"/>
</g>
<g filter="url(#filter7_d_331_164)">
<circle cx="137.5" cy="344.5" r="7.5" fill="#D50000"/>
<circle cx="137.5" cy="344.5" r="6.5" stroke="#1C1C1C" stroke-width="2"/>
</g>
<g filter="url(#filter8_d_331_164)">
<circle cx="96.5" cy="322.5" r="7.5" fill="#D50000"/>
<circle cx="96.5" cy="322.5" r="6.5" stroke="#1C1C1C" stroke-width="2"/>
</g>
</g>
<defs>
<filter id="filter0_d_331_164" x="168" y="95" width="23" height="23" filterUnits="userSpaceOnUse" color-interpolation-filters="sRGB">
<feFlood flood-opacity="0" result="BackgroundImageFix"/>
<feColorMatrix in="SourceAlpha" type="matrix" values="0 0 0 0 0 0 0 0 0 0 0 0 0 0 0 0 0 0 127 0" result="hardAlpha"/>
<feOffset dy="4"/>
<feGaussianBlur stdDeviation="2"/>
<feComposite in2="hardAlpha" operator="out"/>
<feColorMatrix type="matrix" values="0 0 0 0 0 0 0 0 0 0 0 0 0 0 0 0 0 0 0.25 0"/>
<feBlend mode="normal" in2="BackgroundImageFix" result="effect1_dropShadow_331_164"/>
<feBlend mode="normal" in="SourceGraphic" in2="effect1_dropShadow_331_164" result="shape"/>
</filter>
<filter id="filter1_d_331_164" x="160" y="170" width="23" height="23" filterUnits="userSpaceOnUse" color-interpolation-filters="sRGB">
<feFlood flood-opacity="0" result="BackgroundImageFix"/>
<feColorMatrix in="SourceAlpha" type="matrix" values="0 0 0 0 0 0 0 0 0 0 0 0 0 0 0 0 0 0 127 0" result="hardAlpha"/>
<feOffset dy="4"/>
<feGaussianBlur stdDeviation="2"/>
<feComposite in2="hardAlpha" operator="out"/>
<feColorMatrix type="matrix" values="0 0 0 0 0 0 0 0 0 0 0 0 0 0 0 0 0 0 0.25 0"/>
<feBlend mode="normal" in2="BackgroundImageFix" result="effect1_dropShadow_331_164"/>
<feBlend mode="normal" in="SourceGraphic" in2="effect1_dropShadow_331_164" result="shape"/>
</filter>
<filter id="filter2_d_331_164" x="108" y="150" width="23" height="23" filterUnits="userSpaceOnUse" color-interpolation-filters="sRGB">
<feFlood flood-opacity="0" result="BackgroundImageFix"/>
<feColorMatrix in="SourceAlpha" type="matrix" values="0 0 0 0 0 0 0 0 0 0 0 0 0 0 0 0 0 0 127 0" result="hardAlpha"/>
<feOffset dy="4"/>
<feGaussianBlur stdDeviation="2"/>
<feComposite in2="hardAlpha" operator="out"/>
<feColorMatrix type="matrix" values="0 0 0 0 0 0 0 0 0 0 0 0 0 0 0 0 0 0 0.25 0"/>
<feBlend mode="normal" in2="BackgroundImageFix" result="effect1_dropShadow_331_164"/>
<feBlend mode="normal" in="SourceGraphic" in2="effect1_dropShadow_331_164" result="shape"/>
</filter>
<filter id="filter3_d_331_164" x="136" y="211" width="23" height="23" filterUnits="userSpaceOnUse" color-interpolation-filters="sRGB">
<feFlood flood-opacity="0" result="BackgroundImageFix"/>
<feColorMatrix in="SourceAlpha" type="matrix" values="0 0 0 0 0 0 0 0 0 0 0 0 0 0 0 0 0 0 127 0" result="hardAlpha"/>
<feOffset dy="4"/>
<feGaussianBlur stdDeviation="2"/>
<feComposite in2="hardAlpha" operator="out"/>
<feColorMatrix type="matrix" values="0 0 0 0 0 0 0 0 0 0 0 0 0 0 0 0 0 0 0.25 0"/>
<feBlend mode="normal" in2="BackgroundImageFix" result="effect1_dropShadow_331_164"/>
<feBlend mode="normal" in="SourceGraphic" in2="effect1_dropShadow_331_164" result="shape"/>
</filter>
<filter id="filter4_d_331_164" x="331" y="222" width="23" height="23" filterUnits="userSpaceOnUse" color-interpolation-filters="sRGB">
<feFlood flood-opacity="0" result="BackgroundImageFix"/>
<feColorMatrix in="SourceAlpha" type="matrix" values="0 0 0 0 0 0 0 0 0 0 0 0 0 0 0 0 0 0 127 0" result="hardAlpha"/>
<feOffset dy="4"/>
<feGaussianBlur stdDeviation="2"/>
<feComposite in2="hardAlpha" operator="out"/>
<feColorMatrix type="matrix" values="0 0 0 0 0 0 0 0 0 0 0 0 0 0 0 0 0 0 0.25 0"/>
<feBlend mode="normal" in2="BackgroundImageFix" result="effect1_dropShadow_331_164"/>
<feBlend mode="normal" in="SourceGraphic" in2="effect1_dropShadow_331_164" result="shape"/>
</filter>
<filter id="filter5_d_331_164" x="236" y="279" width="23" height="23" filterUnits="userSpaceOnUse" color-interpolation-filters="sRGB">
<feFlood flood-opacity="0" result="BackgroundImageFix"/>
<feColorMatrix in="SourceAlpha" type="matrix" values="0 0 0 0 0 0 0 0 0 0 0 0 0 0 0 0 0 0 127 0" result="hardAlpha"/>
<feOffset dy="4"/>
<feGaussianBlur stdDeviation="2"/>
<feComposite in2="hardAlpha" operator="out"/>
<feColorMatrix type="matrix" values="0 0 0 0 0 0 0 0 0 0 0 0 0 0 0 0 0 0 0.25 0"/>
<feBlend mode="normal" in2="BackgroundImageFix" result="effect1_dropShadow_331_164"/>
<feBlend mode="normal" in="SourceGraphic" in2="effect1_dropShadow_331_164" result="shape"/>
</filter>
<filter id="filter6_d_331_164" x="250" y="326" width="23" height="23" filterUnits="userSpaceOnUse" color-interpolation-filters="sRGB">
<feFlood flood-opacity="0" result="BackgroundImageFix"/>
<feColorMatrix in="SourceAlpha" type="matrix" values="0 0 0 0 0 0 0 0 0 0 0 0 0 0 0 0 0 0 127 0" result="hardAlpha"/>
<feOffset dy="4"/>
<feGaussianBlur stdDeviation="2"/>
<feComposite in2="hardAlpha" operator="out"/>
<feColorMatrix type="matrix" values="0 0 0 0 0 0 0 0 0 0 0 0 0 0 0 0 0 0 0.25 0"/>
<feBlend mode="normal" in2="BackgroundImageFix" result="effect1_dropShadow_331_164"/>
<feBlend mode="normal" in="SourceGraphic" in2="effect1_dropShadow_331_164" result="shape"/>
</filter>
<filter id="filter7_d_331_164" x="126" y="337" width="23" height="23" filterUnits="userSpaceOnUse" color-interpolation-filters="sRGB">
<feFlood flood-opacity="0" result="BackgroundImageFix"/>
<feColorMatrix in="SourceAlpha" type="matrix" values="0 0 0 0 0 0 0 0 0 0 0 0 0 0 0 0 0 0 127 0" result="hardAlpha"/>
<feOffset dy="4"/>
<feGaussianBlur stdDeviation="2"/>
<feComposite in2="hardAlpha" operator="out"/>
<feColorMatrix type="matrix" values="0 0 0 0 0 0 0 0 0 0 0 0 0 0 0 0 0 0 0.25 0"/>
<feBlend mode="normal" in2="BackgroundImageFix" result="effect1_dropShadow_331_164"/>
<feBlend mode="normal" in="SourceGraphic" in2="effect1_dropShadow_331_164" result="shape"/>
</filter>
<filter id="filter8_d_331_164" x="85" y="315" width="23" height="23" filterUnits="userSpaceOnUse" color-interpolation-filters="sRGB">
<feFlood flood-opacity="0" result="BackgroundImageFix"/>
<feColorMatrix in="SourceAlpha" type="matrix" values="0 0 0 0 0 0 0 0 0 0 0 0 0 0 0 0 0 0 127 0" result="hardAlpha"/>
<feOffset dy="4"/>
<feGaussianBlur stdDeviation="2"/>
<feComposite in2="hardAlpha" operator="out"/>
<feColorMatrix type="matrix" values="0 0 0 0 0 0 0 0 0 0 0 0 0 0 0 0 0 0 0.25 0"/>
<feBlend mode="normal" in2="BackgroundImageFix" result="effect1_dropShadow_331_164"/>
<feBlend mode="normal" in="SourceGraphic" in2="effect1_dropShadow_331_164" result="shape"/>
</filter>
<clipPath id="clip0_331_164">
<rect width="961" height="1250" fill="white" transform="translate(-464 -716)"/>
</clipPath>
</defs>
</svg>
