<svg width="557" height="512" viewBox="0 0 557 512" fill="none" xmlns="http://www.w3.org/2000/svg">
<g clip-path="url(#clip0_331_164)">
<path d="M-74.5251 508.462L-74.0523 508.686L-73.8035 509.184L-73.6293 508.736L-73.3556 508.836L-73.1316 509.284L-72.7335 509.383L-72.7086 509.209L-73.0321 508.711L-72.7086 508.761L-72.4598 508.587L-71.6387 509.234L-71.7133 509.507L-71.4645 509.731L-71.6138 509.831L-71.5889 510.154L-71.8378 510.428H-72.0866L-72.5593 509.507L-72.7335 509.458L-72.9823 509.632L-72.9575 510.005L-72.6838 510.503V511.001L-72.9575 511.05V511.423L-73.1068 511.523H-73.6044L-73.7786 510.752L-74.0026 510.702V510.204H-74.1518L-74.326 510.652L-74.5998 510.602L-74.6246 510.777L-74.8983 510.677L-74.973 509.756L-74.6495 509.707L-74.4753 509.383L-74.6993 509.209L-74.8735 509.532H-75.0228L-75.0476 509.358L-75.2716 509.308L-75.2965 508.935L-75.5453 508.761V508.587L-75.1969 508.637L-74.7988 509.085L-74.5748 508.811L-74.7241 508.487L-74.5251 508.462ZM-77.5857 508.288L-77.2373 508.885L-76.7148 508.985L-76.6401 509.308H-76.3913V509.756L-76.5655 510.08L-76.9885 510.13L-77.0134 509.756L-77.1627 509.707L-77.0631 509.333L-77.312 509.507L-77.8843 509.557L-78.2078 509.284V508.836L-77.7848 508.885L-77.9341 508.662L-77.5857 508.288ZM-67.5828 500.923L-67.2593 501.197L-66.9109 501.097L-66.9358 501.321L-66.6123 501.645L-66.4381 501.694L-66.3635 501.595L-66.2889 502.142L-65.6419 502.192L-65.7166 502.466L-65.5673 502.515L-65.418 502.292L-65.0198 502.466L-64.995 502.739L-65.1443 502.839L-65.617 502.739L-65.6419 502.914L-65.2936 503.088L-65.2189 503.312H-65.0447L-65.194 503.536L-64.8456 503.635L-64.8705 504.083L-65.3433 505.402L-66.264 504.954V505.178L-65.5921 505.452L-65.5175 505.676L-65.8658 505.501V505.949L-66.2889 506.223L-66.3635 506.497L-67.3588 506.273L-67.3837 506.173L-67.6574 506.447L-67.757 506.273H-68.1053L-68.18 506.049H-68.4039L-68.4288 506.323L-68.2048 506.273L-67.9809 506.497V506.721H-68.2048L-67.9809 507.268L-68.1551 507.318L-68.2297 507.641L-68.5034 507.741L-68.8518 507.417L-68.9513 506.969L-69.3743 506.372H-69.7725L-69.8471 506.049L-69.5236 505.999L-69.872 505.626L-70.2701 505.899L-70.295 506.546L-70.6931 506.721H-71.0166L-71.1659 506.347L-71.564 506.024V505.75L-71.1659 505.153L-70.8176 504.929L-70.3199 505.029L-70.0711 505.253L-69.6481 505.203L-69.7227 505.103L-69.4739 504.929L-69.2001 504.979L-69.1255 504.805L-69.3495 504.581L-69.3246 504.307L-69.7973 504.257L-69.6481 503.984L-69.1504 504.083L-69.0758 503.909L-69.4739 503.585L-69.8222 503.685L-69.5983 503.362L-69.8471 503.038L-69.6232 502.491L-69.2997 502.316V501.595L-68.9513 501.271L-68.6278 501.446L-68.2795 501.396L-68.0804 500.948H-67.5828V500.923ZM-74.9481 500.599L-74.7241 500.823H-74.5002L-74.4256 501.047L-74.5998 501.645L-74.326 501.868L-74.127 502.366V502.69L-74.326 503.013L-74.5748 502.963L-74.6495 502.739H-75.0476L-75.1969 502.466L-75.5204 502.515L-75.5951 502.416L-75.2716 501.769H-74.9979L-75.4209 500.774H-75.1471L-74.9481 500.599ZM-63.7011 498.733L-63.5518 498.907L-63.4522 498.858L-63.4273 499.082L-63.7508 499.181V499.455L-63.3527 499.405L-63.1288 499.729L-63.3527 500.102L-63.6264 500.002L-64.0992 499.355L-63.7011 498.733ZM-63.1536 497.215L-62.9546 497.39V497.614L-62.6311 497.713L-62.5316 498.037L-62.1086 498.31L-62.1832 498.758H-62.432L-62.9048 498.111L-63.3029 497.887L-63.3278 497.514L-63.6015 497.464L-63.5766 497.29L-63.1536 497.215ZM-75.6199 494.951L-75.396 495.275L-75.4209 495.723L-75.0725 495.772V495.946L-74.749 496.046L-74.5002 496.768L-74.2763 496.817L-74.1767 497.041V497.415L-74.4007 497.688L-74.326 498.062L-74.4256 498.012L-74.6744 498.285V498.46L-74.3509 498.733L-74.4504 499.331L-74.55 499.43L-75.2218 499.38L-75.5453 499.878L-76.0181 499.977L-75.9932 499.704L-75.6448 499.604L-75.4706 499.331L-76.2171 499.281L-76.2918 498.907L-75.6199 498.808L-75.3711 498.484L-75.5204 498.435L-75.6697 498.609L-76.0678 498.335H-76.5655V498.111L-76.1425 497.39L-76.1176 496.792L-75.8688 496.842L-75.7692 496.568L-75.5204 496.519L-75.4955 496.146H-75.7195L-75.8688 495.822L-76.2669 495.723L-75.8688 495.076L-75.6199 494.951ZM-74.0274 494.727L-73.4551 494.777L-73.3805 495.051H-73.2063L-73.1068 495.324L-73.2809 495.424L-73.2561 495.747H-72.8579L-72.634 495.523L-72.3852 495.573L-72.0617 496.121L-72.2856 496.295L-72.1115 496.345L-72.0119 496.618H-71.788L-71.6387 496.394L-71.1659 496.568V497.016L-70.8424 497.24L-70.7678 497.564H-70.4443L-70.9171 498.708V499.032L-70.4443 499.206L-70.2203 499.604L-70.295 499.828L-70.7926 499.604H-71.2654L-71.4147 499.828H-71.8129L-72.1612 500.649L-72.4349 500.55L-72.6091 500.774L-72.9326 500.724V500.45H-72.6589L-72.5096 500.276L-72.4847 499.505L-72.5842 499.281H-72.9823L-73.1316 499.057L-73.2063 498.136L-73.6044 497.912L-73.5298 497.688L-73.1068 497.912L-73.0073 497.539L-73.5049 497.091H-73.6791L-73.9528 496.768L-74.0274 496.444L-74.5002 496.121L-74.749 495.349L-74.2265 494.628H-74.0026L-74.0274 494.727ZM-69.4241 493.906L-69.2748 494.08L-69.3495 494.528L-69.2001 494.478L-69.2748 494.926H-69.1255L-68.9762 495.2L-68.9513 495.598L-69.0509 495.772L-69.3743 495.723L-69.4739 495.548L-69.3743 495.1L-69.5485 495.051L-69.8222 495.275L-70.0959 494.777L-70.0711 495.374L-70.4692 495.648V494.653L-69.9466 494.279L-69.6978 494.503L-69.5485 494.006L-69.4241 493.906ZM-71.2654 493.408L-71.0415 493.682L-70.6931 493.732V493.956L-71.0415 494.404L-71.1908 494.354L-71.365 494.578H-71.564L-71.9621 493.856H-71.7382L-71.6636 493.533L-71.4894 493.433H-71.2654V493.408ZM-68.3541 492.488L-68.2795 492.662L-67.9311 492.762L-68.0058 493.209L-67.8316 493.433L-67.5081 493.657H-67.1598L-67.0602 494.379L-66.7865 495.051L-66.4381 495.374L-66.0898 495.424L-65.8658 495.2H-65.617L-65.4428 495.474L-65.1691 495.573L-64.6715 495.125L-64.4475 495.573H-64.2236L-63.9748 494.926H-63.5766L-63.1038 495.523L-63.1288 495.897L-63.5269 496.071L-63.5518 496.245L-63.9499 496.295L-64.0494 496.618L-64.3231 496.792L-64.5968 496.568H-65.2687L-65.617 497.24L-66.04 497.29L-66.7119 496.071L-67.2344 496.021L-67.4833 495.698H-68.6776L-68.7523 495.1L-68.6528 494.876H-68.4786L-68.4039 494.379L-67.8316 494.478L-68.0058 494.254L-67.9063 493.931L-68.1302 494.031L-68.4786 493.931L-68.1302 493.483L-68.4039 493.11L-68.3541 492.488ZM-67.3339 492.214L-67.1598 492.438L-66.7368 492.488V492.762L-66.5128 492.861V493.135L-66.8363 493.632L-67.0851 493.458L-67.0602 492.961L-67.3091 492.911L-67.4086 493.085L-67.5828 492.811L-67.6076 492.314L-67.3339 492.214ZM427.387 372.031L427.462 372.703L427.263 374.818L426.765 375.216H426.541L427.039 374.818L427.263 372.081L427.387 372.031ZM425.247 370.19L426.019 370.812L426.168 371.135L427.014 371.907L426.865 371.956L425.67 370.911L425.596 370.687L425.098 370.289L425.247 370.19ZM397.627 120.915L398.349 115.765L399.095 114.446H399.941L401.136 117.706L403.947 115.889L405.565 116.287L406.436 114.272L410.019 112.779L413.95 113.351L415.717 108.997L420.246 108.424L424.824 105.563L425.272 104.12L424.874 101.656L422.211 98.6703L421.49 95.0124L418.802 92.8975L419.126 89.3891L420.569 86.9754L419.972 84.7857L421.415 80.1327L423.903 81.4515L425.421 85.3581L427.512 86.4031L430.025 85.3083L433.135 81.7003L436.594 81.128L439.455 85.7811L440.898 89.6877L448.065 91.927L450.304 91.6533L453.638 86.1542L457.893 86.7763L459.785 85.2834L457.694 82.7204L458.441 77.2464L459.187 75.8777L465.533 75.5294L461.924 82.9444L463.617 85.2336L466.702 82.6458H471.057L476.257 84.2633L483.896 78.8636L487.554 77.9928L490.565 78.6894L492.406 77.7688L495.641 78.4656L500.145 82.6458L501.638 82.596L502.484 80.2322L502.16 77.1218L499.498 73.2154L497.507 72.1702L497.606 71.2496L500.194 69.1097L503.927 69.9805L508.455 63.7599L511.068 62.3168L513.731 65.7008L516.418 66.6214L517.587 70.7022L521.693 77.7688L523.883 78.6398L528.486 77.8933L529.631 78.6894L526.819 83.9645L524.555 86.4281L524.48 87.498L523.908 92.6238L528.76 95.535L529.581 96.6797L529.556 98.297L525.301 102.751L526.396 106.085L523.808 108.325L521.519 114.048L521.096 125.991L517.264 130.57L519.379 133.133L520.971 139.528L521.469 145.002L525.152 148.759L525.55 150.128L524.903 151.347L520.548 150.352L520.125 152.292L520.474 156.099L524.231 159.906L523.559 164.161L521.27 166.5L521.594 172.024L522.489 172.995L525.251 172.895L530.85 182.774L533.189 183.346L534.209 189.168L537.494 194.792L540.33 196.832L541.251 200.341L541.151 202.033L537.145 203.177L535.876 204.82L539.708 211.886L544.212 214.2L544.361 216.589L545.78 218.729L545.63 221.043L540.554 221.615L541.4 227.164L538.962 232.638L540.405 237.316L539.061 238.834L533.786 236.246L531.198 237.316L529.332 240.128L527.64 241.024L520.947 239.829L518.931 240.501L520.349 246.871L524.206 253.739L525.127 258.068L524.48 262.846L527.516 264.712L528.411 266.504L527.217 271.007L528.635 277.477L528.411 281.533L530.85 283.1L531.621 284.892L529.208 287.355L528.461 289.495L531.223 293.078L529.83 296.562L524.156 298.478L522.141 297.582L518.682 293.476L513.258 292.854L509.924 291.113L504.3 289.868L500.891 286.559L499.647 286.957L498.303 289.495L496.91 289.222L497.407 287.604L496.885 287.281L489.544 288.55L486.534 290.814L491.983 299.797L495.492 303.653L497.681 304.052L500.941 301.862L505.022 302.708L504.201 307.535L500.667 310.397L501.488 315.547L504.947 315.174L506.166 322.44L504.823 324.953L504.474 328.362L505.718 332.318L507.41 335.08L513.979 333.214L514.477 333.712L514.079 337.967H521.419L522.066 341.799L519.603 341.351L519.379 341.575H517.314L515.622 341.898L514.353 342.669V342.844H514.203V343.167L513.706 343.839L513.357 343.938V344.486H513.208L513.133 345.108L512.71 345.78V346.103L512.287 346.427H512.014L511.591 346.153L510.098 345.655H509.675V345.556L509.326 345.606L506.987 345.058L506.34 345.108L505.768 344.834L504.623 344.884L504.126 344.71L502.484 344.76L501.911 344.66L500.344 344.934L499.572 344.884L499.373 345.058H498.801L497.656 345.382L497.159 345.332L496.238 345.73L494.745 346.053L493.6 346.601L493.526 346.825L492.331 347.223L491.635 347.845L490.913 348.119V348.293L489.843 349.064L489.768 349.338L489.271 349.736L488.922 350.358L488.151 350.98L488.002 351.478L487.728 351.577L487.653 351.851L487.156 352.125L487.081 352.349L486.583 352.299L486.235 351.975V351.528L486.807 351.254V351.03L487.006 351.204L487.429 351.154L487.579 350.98L487.852 351.03L488.201 350.706V350.532L488.698 350.259L488.848 349.637L488.698 349.587V349.189L488.275 348.865L488.201 348.591L488.051 348.542L487.852 348.716L487.628 348.442L487.429 348.492L486.857 347.596L486.633 347.646V347.87L486.359 348.144L485.936 348.193L486.285 347.745L486.21 347.422L486.559 347.472L486.708 347.074L486.285 346.526L486.011 346.75V346.974L486.21 347.074L486.061 347.248L485.638 347.024L485.439 346.7L485.215 346.8V347.024H485.016V346.8L484.792 346.576H485.066L485.215 346.253L485.563 346.153V345.83L484.991 345.78L484.22 345.954L484.02 346.452L484.095 346.551L483.672 346.875H483.523V346.476L482.751 346.526L482.602 346.7L481.831 346.476V346.875L482.03 347.148H481.681L481.607 347.472L481.035 347.522L480.338 347.422L480.114 347.248V346.85L478.198 346.8L477.924 346.626H477.501L477.003 346.352L476.78 345.954L475.71 345.68L475.361 345.357H475.088L474.864 344.959L474.515 345.058L474.441 345.183L474.665 345.282L474.316 345.382V345.705L474.465 345.805L474.117 345.755L473.968 345.531H473.619L473.694 345.431L473.42 345.332H472.773L472.201 345.556L471.629 346.228L471.554 346.551L471.28 346.725V347.049L471.554 347.273L472.201 347.322L472.276 347.497L471.703 347.945L470.708 347.845L470.932 348.069L470.783 348.741L470.932 349.288L470.509 349.388L470.285 349.786L470.36 349.885H470.161L470.086 349.711L469.738 349.811L469.812 349.985L470.036 349.935L470.186 350.109V351.105L469.912 351.329L470.484 351.378L470.708 351.204L471.206 351.428L471.977 351.204L472.624 350.657V349.985L472.898 349.661L473.047 348.99L474.739 348.218V347.77L475.013 347.447L475.585 347.273L476.78 347.322L477.203 348.044L477.85 348.367V348.691L477.65 348.741H477.227L476.954 348.193H476.381L476.182 348.467V348.567H476.456V348.89L476.804 349.114L477.028 349.612V350.159L476.879 350.209L477.103 350.433L477.028 351.279L476.307 351.727L475.958 352.274L475.61 352.374L475.535 352.772H474.54L474.266 353.17L474.764 352.996L475.834 352.946L476.182 352.324L476.829 352L476.904 352.398L476.755 352.498L476.904 352.598V352.921L476.556 353.469V353.916L476.755 354.016L477.028 353.742L477.103 353.344H477.252L477.402 352.498L478.248 352.175H478.745L479.318 352.622V353.07L479.542 353.17V353.269L479.119 353.444V353.618L480.039 353.568V353.742L480.736 354.016V354.115L480.039 354.339L480.114 354.787L480.686 354.887L480.612 355.285L480.761 355.335L481.109 355.285L481.035 354.837L481.383 354.389L482.03 353.991L482.378 353.493L482.801 353.394L482.876 353.668H482.727L482.304 354.215L482.229 354.837L482.503 354.937V355.161L483.647 355.608L483.224 356.006L482.801 356.056V356.28L483 356.454V356.181H483.349L483.498 355.957H483.772L483.971 356.28L484.12 356.23L484.045 355.832L484.195 355.733V355.235L483.971 354.912L484.891 354.638L485.165 353.966L485.364 354.016V354.19L485.712 354.14L485.986 353.817L486.26 353.095L486.484 352.996L486.832 353.543V353.817L487.405 354.041L487.554 354.314L486.285 357.052L486.135 358.669L486.359 358.843L486.633 359.615L486.982 359.714L487.554 360.56L489.544 360.336L489.893 360.51L489.744 361.132L489.171 361.68L488.748 362.675L487.255 363.073L486.683 363.521L486.111 364.243V364.516L485.613 365.238L485.538 366.283L485.737 367.005L486.16 367.278L486.384 366.955H486.583L486.434 367.129L486.509 367.229H487.355L487.205 367.502L486.434 367.95L486.359 368.498L486.135 368.721L486.21 369.568L486.434 369.792L486.285 370.065L485.936 370.115L485.289 370.662L484.095 370.563L481.184 370.787L479.417 370.563L479.069 370.737H478.422L477.427 371.06L476.705 371.11L476.133 371.882L475.287 372.504L475.137 372.827L474.416 373.151L473.42 373.325L473.147 373.549L472.724 373.499L472.45 373.275V373.051L472.102 372.653V371.931L471.903 371.707L471.753 370.812L472.027 370.364L471.952 370.14H471.679L471.529 370.364L470.609 370.414L470.335 370.09L470.26 369.767L469.489 369.941L467.722 369.269H467.15L466.652 369.543L465.881 369.095L465.383 369.045L464.612 368.323L463.542 367.826L463.318 367.428L463.542 366.656L462.97 366.333L462.472 366.507L462.323 366.781H461.626V367.054L461.352 367.154L461.278 366.756L460.78 366.582L460.705 366.308L459.984 365.76L458.565 366.084L457.147 365.91L456.799 365.736L456.226 365.835V365.611L456.575 365.387L456.5 365.114L456.077 364.715L455.156 364.317H454.509L454.285 364.492L453.564 364.317L453.215 364.641L452.867 364.74L451.723 364.84L451.573 364.939L451.648 365.387L450.951 365.437L450.802 365.611L448.961 365.561L448.737 365.462L448.886 365.014L448.538 364.84L448.264 365.014V365.337H448.065L446.646 365.064L446.422 364.666L446.074 364.492L445.153 364.392L444.88 364.566L444.606 364.342H442.989L441.794 363.894L441.147 363.845L441.073 363.67L438.734 363.77L438.51 363.546L437.863 363.322L437.017 362.327L436.171 362.277L434.976 362.6L434.553 362.426L433.483 362.526L432.065 361.978L431.642 361.655H430.796L430.647 361.481L430.298 361.53L429.801 361.356L428.606 361.63L428.109 361.904L428.034 362.177H427.81L427.536 361.854L426.765 361.68L426.541 361.456L426.043 361.506L424.973 362.177L423.63 363.571L423.48 364.019L423.207 364.193L422.858 364.74L422.361 365.96V366.507L422.585 366.831L423.082 366.557L423.505 366.607L423.58 366.781V367.328L422.659 367.776V368.05L422.858 368.149L422.933 368.423L424.849 369.194L424.998 369.368L424.849 369.418L422.659 368.523L421.515 369.194L421.291 369.692L420.644 370.19L420.495 370.961L420.072 371.633L420.271 372.479L420.694 373.474L420.843 373.524L420.992 374.071L421.266 374.295L422.112 374.469L422.684 375.141L422.958 374.868L424.103 374.693L424.177 374.519H424.451L424.725 374.245L425.073 374.295L424.874 374.843L425.596 374.967L425.944 374.743L426.168 374.793V374.892L425.521 375.116L425.446 375.39L425.72 375.564L425.994 376.236L426.267 376.46V376.784L426.466 376.958V377.505L426.964 378.003L427.113 378.625L426.84 379.073L426.765 380.192L425.994 380.74L425.844 381.013L425.496 381.063V381.238H425.347L425.197 381.735L424.973 381.785L424.824 382.108L424.252 382.606V383.328L423.53 384.099L423.381 384.597L422.037 385.592L421.838 385.99L421.415 385.891L421.141 385.343L421.415 384.074L421.764 383.626L421.689 382.407L421.913 382.009V381.188L422.062 380.964V380.74L421.639 380.118L421.913 379.496L422.261 379.172L422.336 378.625L422.187 378.525V378.127L422.759 377.231V376.833L422.411 376.211L421.266 375.042L420.992 374.544L420.271 373.872V373.698L419.574 373.2L419.425 372.877L418.653 372.255L418.305 371.707L417.807 371.434L417.086 370.538L415.468 369.145L415.394 368.921L413.627 367.527L413.552 367.303L412.781 366.756L412.632 366.482L407.033 361.978V361.804L402.853 358.52L400.588 356.952L397.752 355.235L397.528 354.961H397.329L395.263 353.668L394.915 353.269L389.814 350.358L389.391 350.259L387.898 349.263L386.405 348.492L386.057 348.442L385.783 348.218V348.044L384.166 347.372L383.245 346.825L382.598 346.775L382.449 346.377L382.25 346.277L381.603 346.228V346.053L381.105 345.78H380.757L380.682 345.606L380.11 345.332L378.915 344.934L377.845 345.033L377.422 344.76H376.999L376.427 344.983L375.73 344.436L374.959 344.262L374.685 343.988L373.615 343.764H373.043L372.819 343.988H372.62L371.426 343.59L371.152 343.316L370.157 342.918L369.087 342.819L365.827 341.923L365.056 342.022L364.981 341.848L363.911 341.749L363.563 342.022L362.717 342.072L362.443 342.172V342.346L361.871 342.52L361.522 343.067L361.448 343.516L360.726 343.739L360.452 344.013V344.337L360.726 344.66L359.755 344.61L359.009 344.884L358.661 345.431L357.815 345.979L356.67 345.929L356.247 346.7L355.6 346.75L354.605 347.646L353.535 347.372H352.962L352.539 348.094L351.27 348.591L350.076 348.815H349.155L344.826 347.969L342.636 347.92L341.865 348.193L341.715 348.815L341.442 348.915L341.367 349.313L340.944 349.263L340.795 349.363L340.645 350.433L340.297 351.503H338.953L337.311 351.179L336.117 351.13L334.773 351.304L334.624 351.478H334.051L333.778 351.652H333.131V351.553L332.484 351.378L331.837 351.428L331.489 351.652L328.727 351.602L327.806 351.702L327.532 352.025L327.109 352.2L326.114 352.15L322.705 352.822L321.635 353.22L321.137 353.543L319.794 353.817L319.719 354.041L318.724 354.364L318.45 354.762L318.525 354.986L318.301 355.608L317.38 356.23V356.554L317.032 356.877L316.758 356.927L316.833 357.425L316.186 357.748L316.26 358.968L315.688 359.814V360.361L315.34 360.585L315.19 361.033L314.27 362.078L314.195 362.352H313.971L313.548 362.75L311.98 362.65L311.259 362.874L310.761 363.198L308.994 363.869L308.721 364.143L308.148 364.317L307.651 364.765H307.427L306.655 365.537V365.81L306.855 366.084L306.78 367.253L306.431 367.079L306.083 367.179L305.934 366.557L305.013 366.656L304.516 366.98L303.097 367.079L302.823 366.582L300.285 366.184L299.788 365.412L298.295 365.238L298.071 365.014L297.996 364.74L298.195 364.516L299.191 364.292V362.277L299.041 361.953L298.618 361.68V361.282L298.419 361.182V360.635L297.15 359.366V358.868L296.951 358.768L297.1 358.445L296.901 358.221L296.827 357.45L296.329 356.728L296.254 356.181L295.906 355.783L295.707 354.837L295.359 354.514L295.209 354.066L294.936 353.892V353.344L294.662 353.07L294.314 353.568L293.741 353.469L293.816 353.294L293.393 353.07L293.244 352.896L293.318 352.622L292.895 352.224V353.22L293.044 353.493L292.97 354.215L292.821 354.314L292.97 356.255L293.244 356.653L293.592 356.703L294.09 357.027L294.587 358.37L294.861 358.768V359.49L294.712 359.664L294.786 360.51L295.135 360.908V362.252L295.284 362.352V362.75L295.433 363.023L295.657 363.073L295.508 363.247V364.591L295.583 365.362L295.782 365.636V367.577L296.205 367.751L296.279 367.477L296.702 367.303L296.852 367.029L297.623 366.482L297.474 366.308L297.623 366.034L298.121 365.86L298.27 365.96V366.582L297.996 367.079V367.353L297.499 367.851L297.076 368.025L297.001 368.348L296.503 368.672L296.279 369.169L295.856 369.568L296.006 370.115L295.732 370.165L294.886 370.787L294.612 371.185L294.189 371.409L293.766 372.081L293.343 372.305L293.418 372.578L293.144 372.678L292.945 373.076L292.721 376.087L292.522 376.261H291.95L291.377 376.808L291.029 377.704L290.531 377.978L290.108 378.874L289.536 379.496L289.735 379.769H289.461L289.387 380.043H289.188L288.839 380.441H288.69L288.839 380.267V379.595L288.64 379.421L287.446 379.247L286.451 379.471L285.605 379.073H284.609L284.037 379.396V379.57L282.843 379.471L282.569 379.695L282.42 379.521L281.847 379.62L281.424 379.396L280.927 379.446L280.28 379.993H279.011L278.588 380.267V380.441L278.165 380.541V380.864L278.662 380.914L278.886 380.74H279.807L281.424 380.466L282.071 380.143H282.42L282.569 380.367L283.141 380.416L283.49 380.64L283.639 380.242L284.485 380.342L284.559 380.242H285.629L285.978 380.018L286.127 380.192L287.968 380.018L288.466 380.242L288.615 380.566L289.312 380.74L289.387 381.063L289.188 381.163L288.765 381.835V382.382L288.541 382.556L288.342 383.178L288.416 383.352L288.217 383.676L288.292 383.776L288.068 383.95L287.869 384.995L287.72 385.044L287.869 385.368H287.72L287.645 385.915L287.371 386.139L287.521 386.96L287.247 387.135V387.906L287.396 388.006V388.279L287.172 388.777L287.321 389.399L287.098 390.344L287.172 390.892L287.321 390.991L286.973 391.39V391.887L287.396 392.385L288.242 392.484L288.391 392.758H288.74L288.939 393.082L289.213 393.131L288.989 393.405L288.64 393.505L288.715 393.952L288.989 394.127L289.909 394.226L290.183 395.346L290.531 395.62H290.954L291.029 395.446H291.228V395.943L291.029 396.341L290.382 396.291L290.108 396.739L288.192 396.466L287.695 396.864L287.471 397.411L287.272 397.361L286.998 397.585H286.65L286.003 397.312L285.853 396.914H285.132L284.858 396.69L284.933 396.142L284.51 395.819L284.161 395.868L283.738 396.192L283.664 396.814L283.091 397.088V397.411L283.241 397.511L283.166 397.909L282.519 397.959L282.096 398.232L282.171 398.407L281.947 398.904L281.449 399.526V400.347L281.25 400.397L281.101 401.019L281.325 401.193L281.25 401.641L281.598 401.691L282.096 402.089V402.711L281.325 402.761L281.175 403.159L281.325 403.433L281.25 404.204L281.449 404.428H281.673L281.822 404.752V404.926L281.623 404.975V405.249L281.972 405.423L281.897 405.747L282.046 406.07L281.847 406.12L281.698 406.842L281.897 407.165L282.544 406.941L282.818 407.165L283.042 407.787H283.39L284.112 407.389L285.182 407.29L285.903 407.688H286.326L287.098 408.509L287.371 408.459L287.57 408.185H287.844L288.192 408.409L289.038 408.011L290.531 408.111L290.954 408.21L291.104 408.434L290.954 408.708L290.233 408.882L290.307 409.554L289.959 409.604L289.81 409.778L289.959 410.101H289.188L288.839 410.5L288.416 410.674V411.271L289.138 411.445L289.412 411.769L289.337 412.167L287.919 412.44L287.844 412.938L287.272 413.212L286.849 413.759L286.774 414.306L287.197 414.406V414.63L286.774 414.804L286.849 415.476L286.351 415.65V416.422L286.202 416.645V416.869L286.699 417.044L286.973 417.492L286.898 418.263L286.625 418.437L286.699 418.835L286.5 419.109H286.301V419.333L285.654 419.432L285.455 419.706L284.883 419.532V419.806L284.684 419.98V420.602L284.41 420.701L284.559 420.925L283.216 421.323L282.867 420.602L282.295 420.776L281.947 420.552L281.872 420.054L281.225 420.005L280.802 419.781V419.507L280.454 419.059L279.732 419.009L279.458 418.835L279.384 418.213L279.583 418.039L279.384 417.939L279.533 417.765V417.317L279.807 417.218V416.82L279.583 416.72L279.434 416.223L279.085 415.899V415.401L278.811 415.352V415.028L279.035 414.705L278.886 413.261L278.612 412.814H278.389L278.239 412.59H277.965L277.891 412.366L277.543 412.142H277.194L277.045 411.868L277.468 411.594L277.393 411.495L277.617 411.321L278.314 410.997L278.538 410.549L278.886 410.5L278.961 410.002L278.04 409.728L277.816 409.778L277.617 409.454L275.701 409.554L275.204 410.002L274.706 409.952L274.358 409.728V409.405L274.009 408.957L273.437 408.733L272.939 408.832L271.795 408.335V407.937L272.143 407.837V407.514L271.72 407.016L271.297 406.966L270.6 407.364L270.028 407.265V407.041L270.6 406.717V406.22L270.376 406.045L269.68 405.946L268.759 406.22L268.834 406.319L270.326 406.22L270.401 406.667L269.903 406.941L269.829 407.339L270.824 407.613L271.322 407.29H271.67L271.819 407.389V407.663L271.62 407.762L271.396 408.384H270.973L270.625 408.658L270.476 409.056L268.983 409.28L268.485 409.454V409.629L270.55 409.23L270.7 408.957L271.048 408.783L272.043 408.832L272.466 409.38L272.889 409.653L272.964 409.977H273.387L274.805 410.599L275.378 410.549L275.029 410.873V411.271L275.303 411.221L275.378 410.823L276.298 410.002L276.448 410.226L276.871 410.325V411.097L276.522 411.694L276.796 411.744V412.192L276.945 412.291L277.443 412.391L277.667 412.938L278.314 413.162L278.588 413.436L278.737 414.108L278.588 414.207L278.438 415.202L278.239 415.376L278.165 415.775L277.941 415.949L277.667 415.899L276.672 416.67L276.945 416.72L277.294 416.272H278.015L278.289 416.098L278.787 416.148L279.011 416.372L279.359 417.193V417.815L279.21 417.914V418.313L279.06 418.362V418.91L279.633 419.507L280.628 419.855L280.553 420.453L280.628 421.075L280.777 421.174V421.572H280.578L280.23 421.846L280.155 422.244L279.881 422.344V422.617L280.081 422.667V422.841L279.807 423.165H279.533L279.259 423.439L278.986 423.215L278.214 423.389L277.99 423.165L276.796 423.936V424.384L275.801 424.558L275.154 424.384L274.656 424.707L274.581 425.155L274.233 425.379L274.158 425.777L273.586 426.275L273.437 426.599L272.168 427.42L270.973 429.584L270.127 431.899L269.854 433.665L269.704 433.715L269.555 435.805L269.356 435.905V436.228L269.207 436.278V437.049L269.057 437.149L268.908 438.144V439.363L268.709 439.861L268.784 441.528L268.983 441.976L269.754 443.071L271.098 443.618L270.949 444.066L270.451 443.842H270.028L269.331 444.39L269.257 444.614H268.759L268.485 444.066L267.788 444.24L266.295 443.917H265.649L265.499 444.24L265.002 444.415L264.852 444.962L264.28 445.136L263.932 445.634L263.011 445.957L263.086 446.505L262.439 447.226L261.792 447.052L261.443 447.102L261.17 447.276L260.896 447.774L260.473 447.873L260.398 447.425L260.174 447.326L259.975 446.878V446.604L259.826 446.554L259.677 446.778L259.254 446.679L259.104 446.505V446.107L258.831 446.007L258.756 445.46L258.557 445.285L257.711 445.111L257.288 444.838L257.437 444.738L257.362 444.638L256.019 444.464L255.67 444.191L254.899 444.141L254.551 443.867H254.352L254.078 443.32V443.046L254.426 442.648L254.277 442.374L254.775 442.275L254.849 441.777L255.123 441.603L255.198 441.23L255.397 441.18V440.906H256.044L256.317 440.632L257.736 440.583L257.885 440.359L258.233 440.259L258.582 440.309L259.005 440.632L259.278 440.583L258.358 440.035L258.855 439.936V439.712H258.507L257.661 440.16L256.392 440.384L256.193 440.209V438.94L256.541 439.115L256.616 438.841L256.044 438.119L256.467 437.671L257.039 437.621L257.313 437.721L257.114 437.223L257.387 436.676L257.96 436.726L258.109 436.9L258.756 436.85L258.557 436.527L257.711 436.477L257.562 436.253L258.059 435.979L259.204 435.93L259.552 435.656L259.627 435.158L259.129 435.656L258.482 435.706L257.562 436.029L256.915 436.701V437.298L256.268 437.472L255.994 437.199L256.566 436.751L256.417 436.203L256.218 436.154L256.143 436.328H255.944L255.447 436.154L255.596 435.059L255.82 434.835V434.163L255.596 434.063L255.67 433.74L255.397 433.69L255.322 434.088H254.974L254.327 433.541L254.252 433.143L254.103 433.093L254.028 433.541L254.227 433.989L254.078 434.387L254.501 434.437V434.835L254.775 435.059L254.924 435.457V436.054L254.65 436.377H254.227L253.954 436.054H253.73V436.651L254.003 436.751L254.153 437.024L252.585 437.124L252.51 437.298H254.128L255.272 437.522L255.347 438.119L255.994 438.667V438.94L255.795 439.164V439.985L255.994 440.085V440.408H255.496L254.999 439.737L254.725 439.637L254.65 439.737L255.223 440.284L254.999 440.508L255.223 440.782L255.073 441.18L254.078 442.001L253.804 442.548L253.307 442.449L253.232 442.275L253.083 442.324L253.232 442.822L252.734 443.096L253.008 443.146L253.356 443.469V443.693L253.132 443.793V444.116L253.356 444.439L253.207 444.713L253.282 445.037L252.51 445.31V445.758L252.784 445.858V446.256L252.436 446.156L252.361 446.38H252.162L251.963 446.33L251.814 446.057H251.117L250.893 445.833L250.744 445.285L248.977 445.335L248.405 445.161V444.937L247.758 444.838L247.559 444.39L247.36 444.34L247.136 443.668L246.563 443.394L246.29 443.071V442.847L245.095 442.175H244.448L243.801 441.404L243.602 441.503L242.955 441.404L242.259 440.583L241.91 440.483L241.985 440.209L241.637 440.035V439.587L241.86 439.762L242.06 439.662L243.129 439.712L243.204 439.388L242.98 439.289V439.065L243.129 439.015L242.98 437.298L243.403 436.85V436.129L243.204 435.855H242.98V435.457L242.831 435.283L242.259 435.606L241.91 435.507L241.985 434.785L241.214 434.685V434.412L240.517 433.864L240.591 433.69L240.392 433.64V433.143L240.119 432.919L240.193 432.745L240.766 432.794V432.346L240.567 432.247L240.641 431.923L240.915 431.874L240.99 432.272L241.338 432.446H242.109L242.333 431.824L242.408 430.928L243.329 430.157L243.975 430.107L243.901 430.007H243.329L243.179 429.46L243.03 429.41V428.863L243.528 428.415L243.951 428.315L244.224 427.644L244.647 427.146L244.498 427.096L244.299 427.27L243.801 428.216L243.304 428.266L242.955 428.49L242.881 429.485L243.08 429.883V430.207L242.234 430.928L241.96 432.197L241.736 432.371L241.238 432.272L241.039 431.774L240.691 431.5L239.994 431.6L239.571 432.098L239.223 431.923L238.875 432.098L238.601 432.048L238.178 431.5L238.252 431.227L238.452 431.127V430.903L238.178 430.679L238.029 430.853H237.755V430.58L237.605 430.48L236.959 430.381L237.108 430.281L237.033 430.057L236.685 430.107L236.536 430.007L236.685 429.759L235.963 429.734L235.814 429.336L234.047 429.286V429.609L233.773 429.784V429.46L233.201 429.236L233.052 429.012L232.704 429.236L232.281 429.186L232.206 428.639L232.405 428.365L232.256 428.266L231.907 428.315L231.833 428.141L231.907 427.146L232.554 426.648L232.405 426.325L232.753 426.151L232.977 425.429L233.251 425.031L233.475 423.986L233.624 423.936L233.425 423.837L233.351 423.513L233.425 422.841L233.624 422.742L233.55 422.568L233.201 422.841L233.052 423.165L233.251 424.21L232.753 425.603L232.405 425.777V425.952L231.907 426.4V426.723L231.26 426.773L231.111 427.171L230.962 427.121L230.887 427.345L230.464 427.519L230.19 427.917L229.767 427.868L229.618 427.469L229.344 427.693L229.071 427.295L228.648 427.395L228.225 427.171H227.453L226.956 427.345L226.806 427.121H226.159L226.01 427.519L225.861 427.42L225.662 427.519L225.736 427.843L225.313 427.892L225.164 428.116H223.97L223.771 427.942L223.621 428.216H223.273V428.49L223.049 428.664L223.124 428.937L222.974 428.888L223.049 429.286L222.626 429.609L222.352 429.659L222.079 429.261L221.506 429.485L221.581 429.584L221.307 429.684L221.233 429.908L220.884 429.958L220.735 429.908L220.81 429.808L220.312 429.908L220.163 429.634L219.665 429.858L219.74 429.759H219.466L219.317 429.584H218.67L218.52 428.987L218.097 429.161L217.824 428.937L217.625 428.44L216.853 428.042L216.58 428.141L216.306 427.818L216.156 427.917L215.659 427.868V427.594L216.082 426.648L216.231 426.549H217.077L217.152 426.225L217.351 426.126L217.774 426.225L218.197 426.549H218.471L218.695 426.449L218.844 425.952H219.341L219.565 426.176L220.138 426.076L220.063 425.976L219.64 426.026L219.366 425.802L218.595 425.753V424.807L219.167 424.309L219.441 423.762V423.14L219.715 422.966L219.939 422.344L220.586 421.846L221.581 421.398L221.656 421.075L222.8 420.453V420.278L222.452 420.453L222.178 420.403L221.481 420.801H221.133L221.058 420.477L221.332 420.253H221.058L220.486 420.925L220.337 421.473L220.063 421.522L219.715 422.468L219.217 421.921L219.292 421.746L218.943 421.572V420.95L219.093 420.776H218.819L218.744 421.547L218.894 421.821L219.466 422.269V422.991L219.043 423.389V424.21L218.471 424.832V425.653L218.62 425.753L218.471 426.2H218.122L217.849 425.877L216.505 426.151L216.43 425.653L215.783 425.379H215.211L214.713 424.931L214.017 425.205L213.594 425.031L213.245 425.131L212.524 425.031L212.101 425.529L211.255 425.354L210.981 424.956L211.056 424.633L210.284 424.533L210.135 424.21L210.209 423.812L209.936 423.488V422.941L210.284 422.617L210.209 422.02L210.01 421.846L210.085 421.298L209.388 421.398L209.164 421.174L209.09 419.955L209.438 419.457L209.637 419.408L209.911 418.412H209.762L209.687 417.964H209.538L209.388 417.516L208.891 416.969L208.617 416.869L208.542 416.596L208.692 416.496L208.542 416.447H209.239L209.513 416.894H210.284L210.359 416.571L210.906 416.621L211.354 416.297L211.429 415.401H211.578L211.503 415.177L211.727 415.128V414.854L212.3 414.232L212.723 412.639L214.066 411.918L214.216 411.694L214.489 411.744L214.639 411.196H214.141L213.917 411.42L212.922 411.744L212.424 412.067L211.926 412.739L211.852 413.237L211.653 413.336L211.727 413.56L211.454 413.884V415.003L211.18 415.227L211.031 415.949L210.757 416.048L210.682 416.272L209.762 416.173V415.949L209.488 415.725L208.916 415.775L208.841 415.352L208.567 415.277L208.343 415.451L208.418 415.949L208.194 416.048L207.622 415.874H206.701L206.626 416.098L206.278 416.198L205.855 415.974L205.507 416.297L204.86 416.247L204.661 416.347V416.745H204.238L204.088 416.123L204.586 415.899L204.661 415.725L204.511 415.327L204.238 415.103V415.824H204.014L203.815 415.501L203.665 415.551L203.466 415.376L203.043 415.551H202.272L202.197 415.227L201.7 415.128L201.774 414.73L201.923 414.779V414.555L202.197 414.506L201.923 414.282L202.073 413.062L201.799 412.789L201.948 412.565L201.675 412.291V411.967L201.401 411.744L201.476 411.52L201.252 411.246V410.798L200.903 410.574L201.053 410.251L200.704 410.201L200.63 410.101L200.829 409.927H200.63L200.207 409.479L199.634 409.255V409.031L199.41 408.982V408.534L199.684 408.26L199.609 407.713L199.808 407.489V407.041L200.455 405.921L200.306 405.747L200.381 405.473L200.605 405.423L200.53 405.15L200.679 405.05L200.605 404.826L200.878 404.105V403.607L201.376 403.557L202.023 403.881L202.67 403.93L202.595 403.607L201.326 403.06L201.252 402.661L201.525 402.711L202.098 402.537L202.446 402.039L203.367 401.368V401.044L203.566 400.945L203.839 400.223L204.188 400.173L204.387 399.775L204.238 399.327L204.511 399.277V399.053L204.785 398.655L204.71 398.332L205.059 398.232L205.556 397.61L205.706 396.615L205.556 396.391L205.407 396.441L205.482 396.764L205.208 397.312L204.86 397.536L204.511 397.361L204.362 397.809L204.213 397.76L203.939 398.207H203.74L203.815 398.481L203.591 398.531L203.665 398.854H203.516L203.441 399.402L203.093 399.8L203.018 400.347L202.371 400.895L202.098 401.392L201.6 401.666L201.102 401.442L200.903 401.119V400.497H201.053V400.322L200.48 399.999L199.983 399.452L200.132 399.352V398.68L199.908 398.506L199.983 397.785L199.759 397.735V397.336L199.186 396.714H198.962L199.037 396.491L198.888 396.441L198.738 395.943L198.515 395.893L198.365 395.446L197.669 394.724H197.395L196.823 395.047V395.321L196.325 395.819L196.524 396.092L196.375 396.192L196.449 396.914L196.176 397.138H195.902L195.33 396.864L195.056 396.316L195.28 395.197L196.051 394.475L196.972 394.077L197.395 393.753L197.544 393.53L197.345 393.48L196.922 393.928L195.927 394.375L195.155 395.047L194.956 395.495L194.882 396.316L195.454 397.212L196.3 397.312L196.723 396.914L196.798 396.192L197.221 395.57H197.868L198.067 395.968L197.992 396.291L198.216 396.391L198.141 396.565H198.291L198.49 396.963V397.859L198.639 397.909L198.714 398.531L198.863 398.63L198.714 399.253L198.913 399.302L199.261 399.8L199.535 399.85V400.124H199.186V400.223L200.107 400.994L200.032 401.392L199.609 401.94V402.388L199.385 402.612L197.768 402.562L197.494 402.786L197.569 403.109L197.146 403.209L196.723 402.537H196.524V402.711L197.096 403.383H197.445L198.017 403.06L198.738 403.159V403.433L198.515 403.657L198.664 403.831L198.589 405.598L199.162 406.269L199.236 406.991L199.087 407.314L198.589 407.489L198.738 407.588V407.986L198.465 408.658H198.116L197.843 408.932L196.773 409.156L196.847 409.604L196.623 409.778L196.126 409.728L196.2 409.504L195.927 409.405L195.777 409.853L195.081 409.902L194.658 410.226L194.807 410.5L194.235 410.599L194.16 410.873L194.309 411.047L193.961 411.495L193.115 411.669V411.843L192.194 411.296L191.348 411.072L191.075 411.52L191.149 411.793L191 412.192L191.149 412.241V412.515L190.801 413.187L190.229 413.087L190.029 412.639L189.383 412.092L189.233 411.694L189.308 411.52L189.034 411.296L189.109 411.196L188.835 411.246L188.611 410.748V409.703L188.76 409.604H188.487L188.213 410.599L187.566 410.549L187.143 410.276V409.728L187.417 409.23L187.268 408.733L187.193 408.633L186.621 408.733L187.118 409.006L187.044 409.405L186.844 409.629L186.994 409.853V410.798H187.641L187.914 411.246L188.412 411.569V411.744H188.91L189.333 412.515L189.756 412.739L190.328 413.635H190.751L191.025 413.411L191.746 413.461L191.945 413.237L192.443 413.137L192.642 413.311L193.364 413.212L193.712 413.311L193.861 412.988H194.359L194.508 412.664L195.155 412.341L195.23 411.893L195.578 411.719L195.504 411.097L196.001 410.425L196.847 410.599L197.345 410.201L197.494 410.251L197.644 410.077L197.992 410.027V409.927L198.191 410.027L198.465 409.853L198.813 409.902L199.311 410.674L199.808 410.723V411.122L199.535 411.171L199.261 410.997L199.037 411.047L198.962 411.321L199.46 411.37L199.684 411.644L200.107 411.694L200.381 411.967V412.192L199.609 412.515L200.455 412.689L200.53 412.963L200.754 412.863L200.679 413.037L200.878 413.087L201.028 413.411V413.684L200.804 413.784L200.878 413.884L200.729 414.108L200.306 414.381L199.535 414.331L199.261 414.108L199.186 414.381L198.042 414.655V414.829H197.843L197.917 415.003L197.693 415.177H197.544V414.953L197.046 414.904L196.325 415.451H195.678V415.625L196.599 415.675L196.673 415.775L197.32 415.675L197.469 415.849H197.818L197.892 416.173L197.669 416.397L198.091 416.571L198.241 417.392L198.515 417.069L198.44 416.521L199.012 416.471L199.162 416.148L200.505 416.546L200.58 416.82L200.356 417.093L200.58 417.492L200.505 417.939L199.808 418.114L199.734 418.736L199.584 418.785H199.311V418.512L199.037 418.462L199.261 418.785L199.186 419.009L199.46 418.91L199.535 419.084L200.256 418.586L201.028 418.362L201.102 418.138L200.878 418.188L200.804 417.914L201.301 417.392L201.525 417.417L201.799 417.143L202.147 417.093L202.297 416.596L202.521 416.372H203.018L203.217 416.198L203.367 416.645L203.79 416.82L203.64 417.492L204.213 417.939L204.437 418.387L204.362 419.432L203.79 419.756L203.715 419.98L203.367 419.93L203.217 420.03L203.143 419.93L202.496 420.253L201.923 420.303L201.849 420.477L201.5 420.428L200.082 421.821V422.319L199.933 422.543L200.157 422.493L200.306 422.816L201.227 423.488L201.5 423.886V425.056H200.729L200.654 424.956L199.236 425.056L198.962 424.956L198.539 425.23L198.39 425.18L198.116 425.578H197.843L197.42 426.35L196.997 426.4L196.648 425.802L196.997 425.529V425.354L196.574 424.633L197.345 424.185L197.569 423.637L196.648 422.194L195.081 420.975L194.508 420.303L193.09 419.408L192.443 419.233L192.368 419.009H192.095L190.95 418.064H190.602L190.527 417.84L190.104 417.74L189.905 417.516L189.681 417.566L189.532 417.342L188.536 417.118L188.313 416.845L187.74 416.894L187.666 416.67L186.471 416.571L186.322 416.347H186.048L186.272 416.447L185.551 416.397L185.476 416.496L185.327 416.223H184.978V416.447H184.555L184.63 416.272L184.132 416.322L183.635 416.148L183.062 416.247V416.471L182.988 416.372L182.764 416.422L182.614 416.745L180.997 416.297H180.002L179.429 416.521H178.733L177.24 416.123L176.17 415.625L175.398 415.899L173.283 415.8L172.711 415.899L172.487 416.123L170.72 416.173L170.372 416.397L169.874 416.347L169.8 416.571L169.377 416.67L169.153 417.069H168.954L169.028 417.168L168.829 417.218V417.392L168.481 417.616L168.332 417.89L167.759 418.163L168.033 418.337L168.182 418.736L167.909 419.233V419.507L168.133 419.557L168.058 419.731L167.411 419.781L167.212 420.179L165.221 420.9L165.57 421.572H165.42L165.271 421.97L165.047 422.07L164.126 421.896L163.479 421.572L162.982 421.672L162.633 421.274H161.937V422.045L161.787 421.995L161.588 422.443L160.518 422.393L160.444 422.568H159.672L159.747 422.742L159.324 423.015L159.05 422.966L158.777 423.19L158.428 423.14L158.155 423.463L157.508 423.687L157.234 423.637L156.96 423.861H156.811L156.885 423.687L156.463 423.787L156.114 423.613L155.467 423.787L155.243 423.687L155.169 423.414L154.746 423.463L154.323 423.239L154.248 423.015L153.253 422.841L151.834 422.12L151.411 422.294L150.839 422.12L150.117 422.617L149.968 422.891L149.545 423.065V423.339H149.396L149.47 423.737L149.271 423.837L148.699 423.613L148.624 423.289L148.774 423.239V423.015L148.55 422.841L147.355 423.015L147.082 423.637L146.858 423.737H145.29L145.365 423.637L144.942 423.737L144.096 423.339L143.897 422.891L144.096 422.493L144.668 422.592L144.743 422.368L145.091 422.145V421.97L145.589 421.746H146.012L146.161 421.473L146.808 421.572L146.957 421.398L146.111 421.348V421.448L145.614 421.672L145.191 421.572L145.265 420.851L145.041 420.179L145.191 420.079L145.265 419.258L145.415 419.084L144.569 419.134L144.419 419.034L144.643 418.263L144.419 417.865L144.345 417.143L144.494 416.745L145.688 416.969L146.111 416.645L145.265 416.82L144.419 416.496L144.494 415.874L144.768 415.65L144.693 414.829L144.469 414.506L144.618 414.108L144.544 413.834L144.768 413.56L144.693 412.839H144.469V413.734L144.32 413.958L144.096 413.908L143.673 413.237L143.1 412.789L142.951 412.465L142.453 412.241L142.254 411.918L141.981 411.818L141.632 411.097L141.284 410.823L141.209 410.922L141.856 411.818L141.931 412.54L142.777 413.037L143.349 413.66V413.834L144.121 414.331V415.103L143.922 415.998L144.121 416.397L144.046 417.79L144.32 418.337L144.17 419.159L144.369 419.383L144.867 419.432L145.091 419.756L144.743 420.204L145.016 420.925L144.817 421.149L144.743 421.547L143.747 422.319L143.175 423.215L142.528 423.314V423.414L142.379 423.239L142.23 423.837L141.384 423.936L140.886 424.16L140.388 423.936V424.334L140.164 424.384V425.429L139.891 425.703L139.393 425.653L139.119 424.931L138.621 424.882V424.658L138.273 424.558V424.16L138.472 423.936L138.398 422.269L138.547 420.876L138.049 420.602L137.9 420.278H137.626V419.831L137.402 419.607L137.477 419.208H136.905L136.755 419.034L136.258 419.134L136.108 419.233L136.258 419.781L135.835 419.731L135.909 419.955L135.561 420.353L134.914 420.403L134.143 420.851L132.451 420.95L132.376 421.124L131.729 421.224L131.53 421.498L131.032 421.547L130.535 422.095H129.539L128.892 422.767H128.544L128.345 423.215L128.419 423.613L127.997 423.662L127.797 423.886V424.284L127.947 424.334L127.872 424.658L128.021 424.757V425.205L128.171 425.255L128.021 425.852L128.22 426.026V426.424L128.494 426.748L129.141 426.922L129.365 427.146L129.44 427.544L129.29 427.594L129.216 428.092L129.365 427.992L129.564 428.888L129.141 428.788V428.564H128.942L128.668 428.838L128.32 428.44H128.096L127.822 428.838V429.062L127.175 429.336L127.026 429.659H126.877L127.026 429.833L126.802 430.107L125.881 430.555L125.533 431.227L125.682 431.55L125.608 431.774H125.807L125.732 432.172L126.379 432.67L126.105 432.844L126.18 433.018L125.832 433.192L125.981 433.367L125.633 433.466V433.964L125.782 434.063L125.633 434.113L125.707 434.387L125.508 434.437V434.66L125.782 434.76V434.984L125.931 435.034L125.658 435.357V435.905L125.434 436.004L125.782 436.054L126.205 436.502L127.275 436.726L127.424 436.95H127.997L128.071 437.049L127.3 437.223L127.648 437.497L127.573 437.945L127.001 438.343H126.429L125.434 439.289L125.508 439.562L125.284 439.836L125.21 440.284L125.633 440.384V440.607L125.906 440.707L125.981 440.931L125.906 441.105H125.707L125.633 441.429L125.284 441.379L124.588 441.603L123.816 442.275L123.742 443.046L123.891 443.146L123.966 443.867L123.816 444.464L122.895 444.738L122.97 444.514L122.821 444.24H122.597L122.398 443.743L122.174 443.793V443.568L121.975 443.469L121.826 442.374L121.328 442.324L121.129 442.1L119.984 442.374L119.71 442.324L119.511 441.876L118.665 441.976L118.392 441.652L118.466 441.379L118.317 441.055L118.118 441.006L117.969 441.454H116.973L116.899 441.354L116.625 441.404V441.503L115.281 441.454L115.207 441.677L114.784 441.901L114.51 442.349L114.236 442.299L114.311 442.523L114.037 442.971L113.963 443.519L113.614 443.568L113.54 443.743L113.042 443.693L112.818 443.967V444.24L112.47 444.464L112.395 444.738H112.196L111.848 445.012V445.335L111.499 445.783L111.225 445.833L111.076 445.659L110.728 445.758L110.379 446.355L110.728 446.754L110.379 447.425L109.882 447.201L109.608 447.301V448.346L109.185 448.446L109.036 448.893L108.463 449.117L108.314 449.341L107.966 449.242L108.04 448.744L107.891 448.52V448.023H107.617V447.799L107.344 447.699L106.697 446.977L104.781 447.201L104.706 447.376L103.437 448.097L103.363 448.495L102.939 448.819L103.014 449.267L102.591 449.441L102.168 450.038L102.243 450.71H102.392L102.317 451.257L102.044 451.207L101.82 451.431L101.621 451.332L101.546 451.506L101.397 452.377L101.894 452.601L101.546 453.596L101.695 455.537L101.347 455.761V455.985L101.148 456.035L100.999 456.308L100.576 456.408L100.227 456.806L100.377 457.354L100.302 457.627L100.526 457.677L100.6 458L100.252 458.448L99.4061 458.399L98.8338 458.573L98.4854 459.294L97.9878 459.568L97.9132 459.842L97.5648 460.016L97.2911 460.464H97.0672L97.1418 460.563L96.868 460.514L96.6441 460.24L96.1464 460.29L96.2957 459.245L96.022 459.021L95.9474 458.423L96.9427 457.652V457.478L97.2164 457.577L97.1418 457.976L97.5648 458.075L97.6394 457.752L98.2864 456.98L98.361 455.985L98.6347 455.935V456.035L99.0577 456.085L98.5601 455.761L98.784 455.039L98.0126 454.94L97.8633 454.666L97.938 454.393L98.5103 454.442L98.7343 454.268V453.944L99.008 453.845L99.2319 453.123H99.008L98.7343 453.447V453.049L98.5103 452.999L98.585 453.497H98.7343L98.5103 454.094L98.361 454.268H97.6394V454.442H97.7887L97.7141 454.766L98.1371 455.089V455.413L97.5648 455.96L97.7141 457.005L97.4901 457.105L97.0672 457.055L96.9924 456.781L96.4948 456.607V456.781L96.2211 456.955H95.7234L95.3751 457.453H95.0267L94.6037 456.856V456.458L94.753 455.96L95.176 455.462V454.691L95.4497 454.243V453.969L95.176 453.696L95.7483 452.825L95.5493 452.054L96.0469 451.83V451.606L95.5493 451.655V451.83L94.9769 452.004L94.7032 451.332L94.4295 449.018L94.0065 448.023L93.8074 447.848L93.0361 447.799L92.9614 447.699L92.6877 447.873H92.1154L91.5432 448.421V448.794L91.344 448.893L91.1947 449.441L90.9957 449.665H90.6473V449.441L90.8464 449.267V448.545L90.3487 448.271L90.2741 447.998H90.0004L89.9257 447.276L90.075 447.002L89.8511 446.729L89.7018 446.778V447.177L89.2788 447.226L88.7811 446.778L88.1341 446.828L87.7858 446.43L87.5121 446.53V446.704L87.313 446.53L86.5417 446.48L86.691 446.878L87.3379 446.704L87.4872 447.027L88.0595 446.853L88.2088 447.027L88.6318 447.077L88.8309 447.301L88.7562 447.749L89.1046 448.346L89.6769 448.52L90.0999 448.918L90.299 449.366V449.814L91.2943 450.411L91.5182 451.63L91.369 452.452L90.5229 452.676L90.0253 452.576L89.4529 451.979L89.1792 451.929V452.153L89.4529 452.327V452.501L89.9506 452.725L90.4483 452.825L91.369 452.725L91.5182 452.899L91.8666 452.85L92.4389 453.123L92.6379 453.298V454.019L92.5633 454.517L91.6426 455.661L91.4436 456.159L91.0206 456.209L90.5976 455.935L89.4529 455.985L89.3036 455.537L88.7314 454.99H88.5074L88.3581 455.263H88.2088L87.9848 455.164V454.94L87.4126 455.114L87.0642 454.716L86.6412 454.666L86.4172 455.064L86.9149 455.164L87.2633 455.562H87.4126L87.2633 455.338L87.96 455.288L88.1093 455.512L88.6069 455.736L88.8807 456.06L89.03 456.657L89.6023 457.378L90.1745 457.826L90.5976 457.876L90.6722 457.279L90.8962 457.055H91.1698V457.453L91.4436 457.677L91.7919 457.577L91.991 457.254L91.9164 457.702L92.19 457.876L92.6877 459.095L93.0361 459.493L92.9614 459.767L92.1154 459.543L91.8417 459.319V459.145L91.344 458.871L90.9957 458.921L90.4234 459.369L89.7018 459.469L89.5027 459.643L89.5774 459.916L89.4281 460.24L89.2041 460.14L88.8558 460.364L88.4328 460.265L88.3581 459.668L88.159 459.568L88.3083 460.339L88.5323 460.514V460.912L88.6816 461.185L88.9553 461.285L89.03 461.608L88.1093 462.106L87.8854 462.653L87.2384 463.027L86.5168 463.126L86.3177 463.3L86.3924 463.475L86.9646 463.524L87.0393 464.346L86.7656 464.52V465.565L87.0393 465.838L87.6863 466.013L87.96 466.237V466.51L87.3877 466.784V467.008L87.114 467.232L87.2633 467.506L86.7656 467.904H86.2679L85.845 468.227L85.7703 468.501L85.0487 468.451V468.128H84.8497L84.9243 467.904L84.6505 467.953V467.854L84.1529 467.68L83.8792 467.854L83.4562 467.754L83.3816 467.929L82.8839 468.153L82.8092 468.476L82.5355 468.7H82.2618L82.0627 468.476L81.2914 468.526L81.1421 468.352H80.4205L80.6444 468.028V467.754L80.4205 467.705V467.207L81.1421 466.66V466.56H80.8684V466.734L80.2961 467.232V467.779L80.4453 468.053L79.8731 468.924L79.5247 468.974L79.1764 468.7H78.9773L78.7782 468.874V469.098L77.5838 469.148L77.3102 468.824V468.501L77.5341 468.327V468.053H77.3848V468.227L77.1609 468.327V469.048L77.5838 469.372L78.2308 469.422L78.1562 469.745L77.7331 469.695L77.4594 469.869L77.1857 469.77L76.1904 470.442L75.4688 470.342L75.1951 470.566L74.2744 470.616L74.0007 470.392H73.727V470.616L74.4237 470.939L74.0007 471.487L74.15 471.586L74.797 470.815L75.4439 470.492L75.7176 470.442L76.2153 470.716L76.7129 470.218L77.2106 470.168L77.4345 469.994H78.5791V469.72L79.2261 469.894V469.571L80.4951 469.073H80.8435L80.9181 469.297L81.4158 469.247L81.5651 469.471L81.366 469.571V469.745L82.5107 469.198H83.6552L84.5013 469.645L85.1482 469.471L85.7205 469.845L85.9942 470.292H86.6412L86.7159 470.79L86.2928 470.89L85.5215 470.666L85.4468 470.989L84.6755 471.263L84.5262 471.537L84.9491 471.263H85.2229L85.5712 470.939L85.9942 471.263L87.4126 471.089L87.6116 471.537L87.8854 471.586V471.686L88.3083 471.586L88.5074 471.188H88.9304V471.362L88.6567 471.586L88.9304 472.233L88.6567 472.507L88.7314 472.955L88.383 473.129L88.5323 473.353V474.348L88.383 474.448V474.722L89.7267 474.771L90.075 475.095L90.0004 475.592L90.2244 475.866L90.498 475.916L90.722 476.414L90.6473 476.861L90.3737 476.961L90.299 477.185L90.8713 477.359L91.4436 477.906H91.0206L90.9459 478.18L90.299 478.354V478.578L90.0253 478.802V480.171L89.6769 480.345V480.793L90.0253 481.067L89.8262 481.166L89.6769 481.564L88.7562 481.614L88.4825 481.888L87.9102 481.987L87.4126 481.937L86.9895 482.211L86.8403 482.435L86.9149 482.535L86.3426 482.808L86.1435 483.455L86.5666 483.555L86.6412 483.878L86.2928 484.053V484.227L86.5666 484.898L86.8403 484.948L86.9149 485.222L86.691 485.272L86.3426 485.098V485.421L86.1435 485.371L86.0689 486.093L86.2182 486.143H86.0689L86.1435 486.367H85.9942V486.591L85.845 486.64V487.188L85.6957 487.412L84.9243 487.312L84.5013 487.685H84.0783L83.7299 487.039H83.2322L83.1576 486.665L82.9336 486.491L82.5853 486.815H82.3862L82.1872 486.591L81.6895 486.69V487.113L81.4158 487.138L81.0674 486.715L79.8731 486.765L79.5247 486.939H78.9523L78.604 486.765L78.3303 486.939L78.604 487.163L78.5294 487.387H78.3801L78.3055 487.163H78.0317L77.957 486.989L77.8078 487.039V487.312L77.3102 487.586V487.81L77.111 487.984L77.1609 488.382L76.9867 488.656L76.7627 488.706L76.9368 490.024L76.3397 490.746L75.8172 491.02L75.643 491.891L75.2946 492.214L75.0209 492.264L74.9213 493.259L74.6477 493.483L74.8716 494.205L75.1205 494.304L75.0955 494.578L75.2946 494.702L74.9712 495.2L74.996 495.648L74.5979 495.698L74.2744 495.971L73.7518 495.598H73.4782L73.2293 495.872L73.4284 496.32L73.3537 496.494H72.4331L72.4082 496.768H72.1843L71.9354 496.394H71.6617L71.4875 496.568L71.2138 496.519L71.0645 496.693H71.2387L71.2636 496.917L70.9899 497.141L70.7659 497.091V496.817L70.9152 496.718L70.7659 495.573L70.9152 495.349L70.6913 495.25L70.8654 494.926L70.6415 494.827L70.542 494.18L70.3181 494.08L69.6213 494.13L69.472 493.757H69.273L69.1983 493.533L69.0988 493.981H68.7006L68.5513 493.757L68.626 493.657L68.4767 493.607L68.5513 493.384L67.9044 493.334L67.8298 493.558H67.5063L66.8344 493.234L66.6105 492.861L66.7598 492.687L66.6603 492.314L66.9091 491.99L66.8842 491.716L67.1579 491.667V491.567L66.1377 491.194L65.7147 490.646L65.7396 490.472L66.2372 490.149L65.8391 489.154L65.3166 489.328L64.4208 488.606L64.4706 488.009L64.1968 487.909V487.188L64.6945 487.088L65.0428 486.491L64.9682 486.043L65.5405 485.77V485.595H65.3166L65.1175 485.147H65.3166L65.4659 484.874L65.3166 484.7H65.5405L65.8142 484.252V483.853H65.6152L65.1921 483.53L64.9931 483.032L64.8438 483.082L64.6945 482.858L64.5452 482.087L65.0428 481.987L65.1175 481.813L64.3959 481.639L64.4706 480.917L63.9729 480.967V480.42L62.7785 480.196L62.7038 479.922H62.5546V479.698L63.3259 478.653L63.0522 478.479V478.106L62.8283 477.832L62.903 477.284H62.7537L62.4053 476.563L61.2109 475.244L61.2856 474.473H62.2062L62.4799 474.249V474.149L61.833 474.249L61.4846 473.975V473.751L61.7584 473.353V472.134L62.032 472.034L62.256 471.586L62.032 471.537L61.1114 471.91L61.4597 472.184V473.403L61.2607 473.677L61.186 474.174L60.4147 474.348L59.4194 473.253H59.1954L58.9963 472.88L58.4987 472.606L58.424 472.383L58.1503 472.208H57.578L57.155 471.711L56.6573 471.537L56.732 471.263L55.9606 470.492L54.0447 470.268L53.547 470.591L52.9747 470.641L52.7756 470.865H52.2033L51.7057 469.919L51.0089 469.969L50.8597 469.869L51.0089 469.695L50.785 469.596L50.9343 469.496L50.7104 469.447L50.6357 469.048H50.4118L50.0634 468.6L48.869 467.929L48.3714 467.879L48.2221 468.202L47.7244 468.526L47.3761 468.476V468.302L46.6544 467.804L46.0821 467.754L45.5845 468.153L45.6591 468.7L45.1615 468.526L45.0868 468.75L44.6638 468.7L44.5891 468.924H44.1662L43.8178 469.198L43.6187 469.023L43.8178 468.924V468.426L43.9671 468.377L43.8924 467.929H43.7431L43.8178 467.655L43.121 467.481L43.0464 466.933L42.3249 466.485L42.2501 466.261L41.7525 466.212L41.4041 466.436L41.2548 466.212H41.0309L40.8816 465.838H40.5333V465.117L39.8366 464.744L39.6126 464.146H39.4135L39.3389 463.972H38.6173L38.468 464.146L37.9704 464.097L37.821 464.196L37.7463 463.873L37.0994 463.325L35.7557 462.927H34.7604L31.2271 463.524L31.0778 463.798L30.8787 463.848L30.9534 465.44H30.7294V465.614H30.1571L29.8834 466.013L29.535 466.062V466.237L28.8134 466.734V467.008L28.6641 467.108L28.7388 467.506L29.3857 468.177L29.3111 468.352L29.1618 468.302V468.75L29.5102 468.924L29.7839 469.322L29.8585 470.143L30.6299 470.815L30.2815 471.362L30.2069 471.86L29.8585 472.184V472.955H29.7092L29.3609 474.274L29.1618 474.722L28.5895 475.169L28.5148 475.767L28.2411 476.364L27.9674 476.588L27.8181 476.538V476.712H27.4697L26.6237 476.165V477.036L24.9317 478.354L24.7824 478.18L24.7077 478.28L23.9862 478.106L23.8369 478.28H23.4885L23.4138 478.454L23.0655 478.504L22.7171 478.13L22.3688 478.18L22.2195 478.354L22.1448 478.18H21.9457L21.4481 478.504L21.249 478.952H20.7514L20.4777 478.777L19.9054 478.877L19.7063 478.603L19.3579 478.777L19.0842 478.678L18.7359 478.852V479.35L18.5866 479.3V479.474H18.4373L18.5119 479.698L18.3626 479.922L18.0889 480.146L17.7405 479.972L17.6659 480.42L17.3175 480.693H17.1682V480.42L16.8199 479.972H16.2476L16.1729 480.196L15.9739 480.022H15.4762V480.345L15.7002 480.395V480.569L15.3518 480.843L15.2772 481.166L14.8542 481.067L14.5058 480.743L14.3067 481.141L14.033 481.191L13.7593 481.017L12.9879 481.614L12.2165 481.664L11.7935 481.614L11.5696 481.216H11.1466V480.992H10.9973L11.271 480.892V480.718L10.2757 479.574V479.4H10.5494L10.624 478.902L10.1264 478.678L9.85268 478.728L9.92732 477.782L9.35503 477.608L9.28038 477.434L9.13109 477.608H8.70808L8.63344 477.782L8.35973 477.558V477.11H7.86204V476.389H7.58836L7.51368 476.065H7.31465L7.09068 475.12L7.16532 474.846L7.01603 474.746L7.43903 474.697L7.93672 474.299L8.08601 473.925L7.93672 473.253L8.08601 473.03L8.50902 472.855L9.28038 472.905L9.85268 472.532L10.1264 472.034V471.362L10.3255 471.138V471.039L10.5992 470.989V470.591L10.4001 470.367L10.5494 470.143L10.2757 469.869L9.92732 469.82V469.447L9.65361 469.272L9.57896 468.725H9.42967L9.57896 468.551L9.65361 467.953L9.30525 467.132L9.52923 466.585L9.10619 466.187V465.913L9.25552 465.814L9.10619 465.216L9.18087 464.893H8.95689V464.719L8.75783 464.669V464.495L8.48412 464.321L8.55879 464.221H8.40947L8.48412 463.549H8.06111L7.91182 463.226L8.13575 463.176L8.21043 462.952L8.85738 463.052V462.28L8.65831 462.007L8.73296 461.683H9.08131L9.28038 461.36L9.77803 461.409L10.0517 461.185V460.514L10.201 460.29L10.002 460.116V459.518L10.3503 459.021L10.2757 458.622L10.624 458.299H10.8978V458.075L11.1715 458.025L11.4452 457.577H11.6442L11.8682 456.906L12.3659 456.582L12.5649 456.085H12.7142L12.5649 455.587L12.7142 455.637L12.9879 455.413L14.68 455.96L14.7546 455.637L15.0283 455.363L15.3767 455.189L16.148 455.139V455.039L16.571 455.214L16.8448 455.164V455.263L17.6908 455.164V455.338L17.9645 455.388L18.3875 455.064V454.89L18.7359 454.791L18.5866 454.616L18.7359 454.218L19.0842 453.895L19.3082 453.944L19.1589 453.447L19.5072 453.273L19.5819 452.875L19.8556 452.924L19.781 452.825H19.9302L20.1542 452.427H20.6519L21.0002 452.601L20.6519 451.78L20.8509 451.556L21.2739 451.606L21.473 451.382L21.6969 450.785L21.896 450.735L21.8213 450.237L21.9707 450.138L22.319 450.361L22.2444 450.585L22.5181 451.083L23.0904 450.983L23.0157 450.76L23.2148 450.486L23.7124 450.536V449.814L24.0608 449.715L24.2847 449.889L24.5585 449.715V449.117L24.9068 448.719L25.1805 448.545L25.5289 449.142L26.2505 448.868L26.3252 448.595L26.5989 448.545V448.321L26.8726 448.222L27.0219 447.948L27.5195 448.047L27.6688 447.45H27.4449V447.226L27.5942 447.002L28.1665 446.952L28.3655 446.505L29.2115 446.455L29.2862 446.057L29.5599 445.883L29.6345 445.659L30.3562 446.057H31.3515L31.9238 445.833L32.0731 445.435L32.3468 445.385L32.6952 445.708H33.1182L33.1928 445.435L33.3919 445.335V445.111L33.6656 445.161V445.335H34.014L34.213 445.161L34.4121 445.211L34.636 444.887L35.2083 444.987L35.5567 445.534L36.0543 445.435L36.3281 445.833L36.975 445.733L37.1741 445.509V445.062L37.8956 445.161L37.9704 445.385L37.6966 445.335V445.833L37.2736 445.932V446.33L37.3483 446.554L37.622 446.654L37.5473 446.928L37.7463 447.201L38.244 447.251L38.3933 447.525L38.6671 447.624V447.724L38.5177 447.674L38.6671 448.893L39.4384 449.291H40.0853L40.2346 449.117L40.4337 449.615L40.7074 449.789L42.5488 450.013L42.6234 450.187L42.4741 450.361L42.8971 450.76L42.9718 451.033L43.4694 451.207V451.655L42.8971 451.755L42.6732 452.078L42.5239 453.173L42.6732 453.447L42.9469 453.397L43.2952 452.899V452.352L43.4445 452.128L44.0169 451.805V451.581L43.8178 451.531L43.7431 450.859L43.0962 450.635L42.9469 450.361L43.2206 450.088L43.4445 449.217L45.7089 447.55V447.326L47.2019 445.659L47.5502 444.489H47.6995L47.7741 444.091L48.1225 443.817L48.1972 443.419L48.3465 443.369L48.4211 442.872L48.1972 442.772L48.3465 442.449L48.1474 441.628L47.9235 441.578L47.8488 440.856L48.0728 440.682L48.4211 440.732V440.831L48.9188 440.657L49.1925 440.831L49.6902 440.16L50.1878 440.06V440.284L50.4615 440.334L50.3869 440.782L50.8845 441.18L50.7352 441.404L51.2329 441.578L51.5066 441.304H52.0042L52.1535 441.03H52.5019L52.7756 440.807H53.4226L53.6963 441.08L54.194 441.13L54.393 441.304L54.816 440.981L55.463 440.931L56.1099 440.384H56.3837L56.4583 440.16L56.8066 440.06L57.155 439.463H57.379L57.2297 439.289L57.3043 439.065L58.0757 439.015V438.567L58.424 438.169V437.995L58.1503 437.945V437.771L58.5734 437.721L58.7227 437.273L59.071 437.099L58.9963 436.999L59.2701 436.95V436.776L59.5437 436.726L59.693 436.328H60.1161L60.1907 436.502L60.4644 436.402L60.7382 436.626V436.452L60.9621 436.402V436.004L61.8081 435.954V435.681L61.6091 435.631L61.4597 435.233L62.032 435.183L62.6044 434.287L63.1766 433.839H64.4457L64.5203 433.74L64.371 433.566H64.9434L64.8687 433.068L65.018 432.844L65.7396 432.521L66.3119 432.57V432.297L66.8096 432.073L66.9589 431.575L67.2325 431.525L67.1579 431.351L67.357 431.301L67.2077 430.978L67.4067 430.754V430.306L67.7551 429.858L67.9044 429.037L68.0537 428.813L68.3274 428.863V428.689H68.1781V428.29L68.3771 427.843V426.574L68.2278 426.524L68.3025 425.081L69.0241 425.031L69.2232 424.807L69.6462 424.707L69.8701 424.434L71.5622 424.707L72.2838 424.434L72.4829 424.533L72.5575 424.807H72.7068L72.9058 424.409L73.1298 424.359L72.9805 424.185L73.2542 423.637L73.6772 423.588V423.314L73.9509 423.14L74.1002 422.866L74.0256 422.468L74.4486 422.244L74.7223 422.344L74.8716 422.07H75.0706L75.1453 421.398L74.996 421.224V420.776L75.7673 420.726L75.9167 420.552L76.265 420.652L76.8374 419.93H77.335L77.4843 419.532H77.7082L77.5589 419.358H77.8327L78.181 419.084L78.4547 419.184L78.604 418.636L78.3801 418.412L78.604 417.516L78.8777 417.243V416.621L79.1017 416.397L79.251 414.953L79.4003 414.779V413.834L79.1266 413.61V413.436H78.7782L78.2805 413.037V412.814L78.8529 412.639L78.9275 412.465L78.7284 411.967L78.4547 411.793L78.5294 411.569L78.0317 411.122L78.181 410.674H78.3303V410.898L78.828 410.947L79.5993 410.549L79.7486 410.101L79.9477 409.927L79.1764 408.534L79.45 407.713H79.9477L80.097 407.937L80.3707 407.986L80.7191 407.439V407.165L80.9181 407.066H81.1919V407.24L81.6895 407.787L82.6101 407.837L82.9585 407.663L83.5309 407.165L82.6848 406.842L82.4857 406.892L82.2618 406.717L82.1872 406.269L82.7595 406.22L83.4064 406.394L84.0534 405.996L84.8248 406.22L85.2478 406.12L85.3224 405.622L85.6708 405.125L85.5961 404.577L85.7454 404.179L85.3224 403.856L85.5215 403.632L85.7951 403.731L85.8699 404.179L86.2928 404.503V404.677L86.8652 404.577L87.0891 404.677L87.2384 404.901V405.573L87.8107 405.399L87.8854 405.224L88.8807 405V404.826L89.229 404.553L89.4529 404.652L89.3783 404.428L90.0253 403.98L89.7516 403.433L89.9009 403.209L90.5478 403.383L90.8215 403.209L90.6722 403.035L91.0952 402.985V402.761L91.2445 402.711L91.0952 402.487H91.3191L91.2445 402.164L91.5182 401.84L91.6675 402.014L91.8915 401.915L92.0408 401.641L91.9661 401.368H92.1154L92.0408 401.094H92.19V400.87L92.6131 400.596L92.9614 400.049L92.8868 399.377L93.1107 399.103L93.1853 398.282L92.837 397.834L92.9863 397.436L92.7873 397.336V397.063L93.4342 397.013V396.839L92.9366 396.515L92.8619 396.117L93.061 395.719L93.3347 395.769L93.484 395.545L94.1309 395.495L94.2802 395.321L94.0065 394.774L93.2352 394.152L93.3845 393.828L93.3098 393.654L93.5835 393.604L93.4342 393.38L93.5835 393.206H93.3845V392.932H93.5835L93.4342 392.609L93.7826 392.559L93.6333 392.385L93.7826 392.335L93.7079 392.161H93.8572L94.0065 391.439L93.9319 390.942L93.5835 390.494L93.7328 390.17L93.1605 389.722L93.0112 389.822L92.9366 389.648L92.5882 389.598L92.4389 389.324L92.8619 389.051V388.279H93.1356V388.105H93.5587L93.8323 387.881L93.683 387.831L93.7577 387.334L94.2554 387.01L94.9023 386.96L94.6286 386.513L94.4047 386.463L94.6783 386.139L94.4544 385.915L94.6037 384.97L94.3798 384.522L94.6037 383.701L95.1014 383.527V383.253L94.8774 383.203L94.7281 382.581L95.0765 382.258L94.8525 381.984L95.1262 380.939L94.8525 380.839L94.9272 380.74L94.0065 380.466L93.7328 379.968L93.5835 380.143L93.1605 380.043V379.72L93.6581 379.546L93.5835 379.048L95.0765 378.55L95.2756 378.874H95.8478L95.6488 379.197V379.595L95.9971 379.919H96.8431V379.819L97.7639 379.595L98.0375 379.769V379.993H97.8882V380.615L98.0873 380.889H98.8586L98.784 380.79L98.9831 380.342L99.4061 380.242L100.252 380.466L100.327 380.242L100.675 380.143L100.6 379.968L100.874 379.794L100.8 379.62H100.6L100.526 379.297L101.024 379.073L101.223 378.849L101.148 378.575L101.422 378.525L101.347 378.301L101.496 378.202V377.754L101.695 377.43L101.919 377.256H102.566L102.989 377.082L103.263 376.535H103.537L103.462 376.36L103.661 376.186L103.736 375.515L104.084 375.191H105.278L105.005 376.087L104.93 376.983L104.731 377.256V377.804L106 378.202L106.149 378.301V378.799L106.498 379.073L106.647 379.745L106.373 380.192V380.466L106.1 380.74L106.373 380.69L106.299 380.914L106.647 381.362L106.722 381.81L106.498 382.432L106.846 382.656L106.995 382.979L106.921 383.377L106.348 383.601L106.075 384.049L106.498 383.875L107.219 383.925L107.294 383.377L107.518 382.979L108.165 382.706L109.658 382.88L109.882 383.377L111.026 383.776L111.673 383.676L112.246 383.129L113.664 382.905L114.162 383.129L114.809 383.029L115.53 383.203L115.804 383.104L116.575 383.203L117.496 383.651L117.222 383.328V383.154L117.496 382.979L117.421 382.656L116.774 382.755V382.307L116.078 382.133V381.909L115.729 381.959V382.183L115.53 382.357L114.112 382.183L113.042 382.283L112.768 382.233L112.544 381.959H111.648L111.798 382.133L111.648 382.581L110.802 383.079L109.807 382.581L109.583 382.084H109.309L109.036 381.81L108.463 381.636L108.389 380.815L108.662 380.64L108.016 380.541V380.441L107.792 380.491L107.642 380.267H107.219L106.871 379.869L106.946 379.546L106.672 379.147L106.597 378.326L106.747 378.227L106.672 377.679L107.02 377.281L107.095 376.883L106.448 376.56L106.373 376.286L106.647 375.614L106.846 375.44V374.992H107.07L107.344 374.37L107.841 374.146L108.414 374.245V374.021L107.841 373.35L107.916 373.076H107.493L107.07 372.404L106.647 372.354L106.448 372.081L105.95 371.981L105.801 371.757L105.876 371.484L106.1 371.26L106.523 371.309L107.17 370.861L107.593 370.762V370.588L107.319 370.364L107.394 370.19L108.115 370.14L108.19 370.414L108.04 370.737L108.463 371.011L108.389 371.284L109.16 371.508L109.384 372.056L109.807 371.956L110.579 372.056L110.927 371.882L111.499 372.106L111.848 372.504H112.345L112.271 372.28L112.694 372.329L112.619 371.832L112.768 371.732L113.54 371.558L113.614 371.011L113.888 370.961L113.963 370.737V370.19L114.236 369.966L115.082 370.414L115.655 370.364L115.928 369.816L116.127 369.642H116.55L116.7 369.319H116.899L117.123 369.493V369.816L117.546 369.866V370.09H117.77L117.844 370.264L118.267 369.866H118.541L118.765 370.19H118.914V369.966L119.188 369.916H119.462L119.885 370.19L119.81 370.015L119.959 369.966L120.457 369.916V370.015H120.656L121.004 369.742L122.497 369.692L123.692 369.294L123.966 368.746L124.388 368.523L124.314 368.298L124.463 368.075L124.886 367.801V367.303L125.234 367.029V366.582L125.732 366.258L126.006 365.487L126.653 364.591V364.268L126.852 363.944L126.504 363.397L126.777 363.173L126.852 362.053L127.076 361.953L127.001 361.63L127.2 361.083L127.051 360.461L127.623 360.411L127.972 360.187L128.121 358.619L127.698 358.221L127.275 358.171L127.35 358.072L127.2 357.898L127.474 357.45L127.325 357.052L127.972 356.106V355.832L127.549 355.658L127.474 355.21L127.623 354.986L127.972 354.812L128.32 355.31V354.762L128.469 354.663L128.967 354.887L129.465 354.663L129.813 354.837L130.087 354.563L129.813 354.165L130.012 353.842H130.36V353.742L130.709 353.916L130.559 354.24L130.833 354.339L130.908 354.613L131.405 354.663L132.052 353.817V353.319L132.251 352.996L132.102 352.548L132.6 352.224V351.951L133.744 352.349L133.968 351.951L134.964 351.901L135.163 351.677L134.964 351.005L135.461 350.955L135.387 350.856L135.66 350.906L135.586 350.682L135.86 350.234L137.004 350.059L137.153 349.885H137.8V349.985L138.074 349.885L137.576 349.487L137.651 348.94L137.85 348.542L138.074 348.492V348.169L138.721 347.721H139.791L140.015 347.397V346.775L140.712 346.601L140.861 346.103L141.359 346.053L141.508 345.879V345.158L141.707 344.71L141.433 344.386L142.08 343.938L142.23 342.819L141.956 342.147V341.749L142.105 341.575L141.682 341.4V341.077L142.677 341.127L142.827 341.301L143.399 341.351L143.673 341.127V340.803H144.096V340.53L143.598 340.405L143.673 340.231L143.523 339.907L144.096 339.733L144.021 339.335L144.519 338.937L144.867 338.887L145.514 339.061L145.788 338.788H146.012L146.211 338.464L146.136 338.191L146.335 338.091L146.136 337.767L146.484 337.718V337.27L146.908 336.772L148.102 336.15L148.823 336.1L149.396 335.827L149.669 335.876L150.093 335.329L150.515 335.055L150.59 334.831L151.66 334.607L151.859 334.284V333.836L152.083 333.662L152.73 333.562L152.805 333.114L153.452 332.716L153.526 332.492L153.377 332.219L153.651 332.044L153.501 331.771L153.999 331.547V331.223L153.775 330.999L153.999 330.775V330.228H153.775L153.999 329.457L153.576 329.133V328.909L153.85 328.81L153.651 327.914L154.074 327.367L153.924 327.143V326.521L154.074 326.471L153.924 326.073V325.799L154.074 325.749V325.301L153.924 325.252V324.704L154.074 324.654L153.85 324.381L153.999 323.759L153.924 323.311L154.074 322.863L154.646 323.186L154.721 322.962L154.372 322.689V322.017L154.099 321.917L154.173 320.922L153.974 320.748L154.124 320.424L154.049 320.026H154.198L154.124 319.752L154.273 319.653L154.198 319.255L153.999 319.081L154.148 318.857L154.223 317.563L154.074 317.065V315.821L153.725 314.751L153.875 314.079L153.601 314.129L153.452 313.806L153.725 313.184L153.576 312.86H153.427V312.686L153.153 312.462L153.228 312.288L152.73 312.014V311.74L153.004 311.691L153.078 311.516H153.352L153.576 310.745L153.078 310.247V310.023L153.278 309.924L153.004 309.426L153.153 308.854L152.506 308.356V308.182L152.929 308.008L153.004 307.386L153.228 307.336L152.954 306.838L153.103 306.789V306.515L153.377 306.415L153.302 305.968L153.452 305.694L154.024 305.42L154.099 305.146L153.949 304.923H154.099L154.173 304.698L154.746 304.251L154.472 303.803H154.82L155.542 303.305L155.467 302.758L155.617 302.584H155.343L155.567 302.31L155.417 302.21V301.887L155.268 301.837L155.417 301.663L155.218 301.489L155.144 300.867L155.492 300.767L155.766 300.269L155.99 300.145L156.139 299.125L155.915 299.025V298.627L155.716 298.453L156.487 297.383L156.761 296.437L157.259 295.815V295.417L157.06 295.144L157.209 294.696L157.01 294.522V294.422H157.209V294.248L156.935 293.974L157.209 293.526L156.935 293.203L157.582 292.531L157.358 292.207L157.707 291.809L157.632 291.536L157.284 291.361V290.914L157.01 290.64L157.159 290.54V290.316L157.01 290.267L157.085 289.868L157.582 289.819L157.234 288.749V288.4L157.582 287.828V287.48L157.159 287.43L157.01 287.206L157.433 286.758L158.08 286.659L157.931 286.484L158.08 285.987L157.881 285.763V285.539L158.03 285.091L158.304 284.867L158.155 284.593L158.229 284.369H158.577L158.652 284.643H159.374V284.419L159.871 284.369L160.07 284.593L160.917 284.942L161.066 285.166H161.414L161.638 284.668L165.321 284.618L166.391 284.892L167.958 286.012L169.028 285.912L169.252 286.136L169.949 286.36L171.019 286.136L171.666 286.708L172.313 286.758L172.462 287.156L173.955 288.102L174.03 288.425L174.602 288.923L174.876 289.595L175.573 290.092L176.419 290.316L177.488 290.938H180.176L180.524 291.113L181.594 291.212L182.515 290.938L182.789 290.714L184.282 290.54L184.929 290.316L185.152 290.092L185.924 289.993L187.118 289.047V288.823L188.611 286.982L189.034 285.862L189.756 285.638L189.905 285.191L190.328 284.743L190.253 284.17L191.025 283.324L192.294 281.184L193.015 280.836L194.508 280.612L195.23 280.214L195.504 279.144L195.852 278.646L195.777 278.323L196.275 277.253L196.474 276.407L197.046 275.835L197.892 275.884L198.813 276.556L198.614 276.83L198.34 276.78L198.614 277.626H198.763L198.614 277.676L198.763 277.85V278.248L199.186 277.8L199.535 277.676L199.958 277.178L200.455 277.228V277.402L201.152 277.975L201.003 278.646L201.152 279.94L200.953 280.289L200.679 280.388V280.736L200.406 281.234L200.057 281.458V281.632L199.56 282.13L199.709 283.598L199.51 284.27V284.942L199.584 285.34H199.734V285.116L200.082 284.618L200.008 282.553L200.281 282.055L200.63 281.782L201.276 281.607L201.55 281.11V280.264L202.048 280.164L202.396 279.219L202.322 278.945L201.973 278.845V278.671L202.247 278.447L202.172 277.726L202.521 277.054L202.745 276.208L202.322 275.934L203.168 275.262L203.242 274.814L203.441 274.541L203.939 274.367L204.437 273.968H204.934L205.507 273.521V273.122L205.731 272.899L207.721 273.073L207.995 273.297L208.343 273.346H209.339L209.986 273.073L210.259 272.799V271.057L210.832 270.883L211.678 271.455L211.951 271.853L212.449 271.953L212.673 272.227L213.942 272.625L214.514 273.197L215.087 273.371L215.286 273.595H216.057L216.555 273.197L217.127 273.023L216.779 272.749L215.933 272.923L215.783 273.098L215.559 273.048V272.874L214.987 272.55V272.376L214.216 272.152L213.718 271.704L213.071 271.58L212.922 271.356H212.698V271.182L212.499 271.132L211.777 270.286L210.16 270.012L209.015 270.36L208.94 271.53L208.169 271.978H207.821L207.174 272.252L206.825 272.202L206.626 272.376L206.129 272.152L205.979 271.928L205.332 271.878L204.486 272.376L204.138 272.998L203.914 272.948V273.048L203.217 273.147L201.724 273.769L201.525 274.391L201.028 274.964L201.102 275.461L201.376 275.511L201.301 275.909L200.953 275.81L200.679 275.412L199.908 274.914H199.186L198.913 274.69L198.838 274.416L198.415 274.192V274.018L198.216 273.919L198.291 273.819L197.942 273.645L197.743 273.147V271.978L197.519 271.853L197.096 271.182L197.171 264.936L196.897 264.712L195.479 264.538L194.21 263.866L194.434 263.592L194.21 263.244L194.484 263.07V262.846L195.056 262.746L195.13 261.801L194.931 261.627L194.21 261.577L193.563 260.781L192.418 260.283L191.846 259.785L191.921 259.387L192.344 259.163L192.568 258.715L194.185 259.089H195.678L196.25 258.915L196.449 259.188L196.947 259.238L197.295 259.014L197.494 258.392L197.843 258.168V257.82L197.992 257.77L198.067 257.272L198.216 257.173L198.714 253.689L198.241 253.465L198.141 252.793L198.291 252.395L198.017 252.171V251.823L197.245 251.201L196.474 250.753L196.126 250.703L195.977 250.604L196.051 250.429L197.121 250.156H198.191L198.539 249.982L198.962 249.534V249.086L199.186 248.912L199.261 248.414H199.485L199.684 247.966L200.381 248.19L201.948 248.14L202.521 248.414H203.168L203.591 247.916L204.163 247.742L204.238 247.518L205.233 247.643L205.656 247.245L206.651 247.344L207.074 246.772L208.916 246.15L209.115 245.876H209.388L209.886 245.602L210.458 245.652V245.826L211.155 245.702L211.23 246.05L211.653 246.15L212.499 245.353L212.971 245.453L213.842 245.229L214.191 244.607L214.39 244.482L214.738 244.657L214.887 244.482L215.087 244.532V244.433L215.435 244.532L216.082 244.433L216.853 244.93H217.127L217.625 245.503L217.774 245.378L218.272 245.503L218.421 245.951L218.918 246.398L220.063 246.523L220.212 245.901L221.208 245.951L221.407 245.776L221.208 245.154L221.705 244.756L224.044 244.657L224.542 244.482L225.114 244.035L225.687 244.134L225.886 244.358L227.652 244.308V244.184L228.299 244.134L228.523 243.96L230.788 244.084L231.36 243.811L231.858 243.761L232.281 243.487L232.43 243.039L232.778 242.915L233.127 242.243L234.47 242.019L234.893 241.571L235.739 241.969L237.805 242.094L238.078 242.368L238.153 242.766L238.576 242.815L238.999 243.164L240.193 242.815L240.268 242.467L240.542 242.119H240.89L240.965 242.343L241.612 242.517V242.019L241.811 241.671L243.154 241.721L243.727 241.148L244.573 240.924H245.842L246.489 241.273L246.986 241.77L247.832 241.546H249.898L250.395 241.198L250.818 240.576L251.092 240.476V240.302L251.44 239.954L251.515 239.382L251.739 239.108L252.087 239.058L252.436 238.66H252.709L253.207 239.058L253.481 239.63L254.675 240.352L256.94 240.526L257.86 240.8H260.125L261.319 241.472L263.583 241.521L264.429 242.094L265.624 242.442L268.311 242.79L269.082 243.064L270.998 243.338L272.267 243.213L272.616 243.388L272.84 243.835L273.337 244.06L273.263 244.284L273.959 244.557L274.308 244.383L274.532 243.985L275.179 243.811L275.403 243.587H276.249L277.742 243.139L278.513 242.293L278.787 242.193L279.135 241.521L281.126 241.571L281.275 241.397L281.773 241.273L283.465 241.322L284.161 241.596H284.584L285.779 242.318L287.545 242.766L288.391 243.213H288.964L289.113 242.99L289.685 243.039L290.332 243.761L291.029 243.935L291.676 244.433L292.398 245.279L292.671 245.403V245.851L292.945 246.299L293.293 246.523L294.363 246.423L294.513 246.199L294.936 246.075L295.931 246.125L296.852 246.971L296.926 247.643L297.847 248.887L299.464 250.305L299.539 250.529L299.813 250.579L300.086 251.027L300.584 251.3L302.276 251.474L304.117 251.251L304.69 250.977H306.033L307.178 251.375L307.949 251.425L308.596 251.699L309.517 251.3H310.935L311.856 251.4L312.005 251.898L312.777 252.171L313.971 251.997L314.742 251.499L316.509 251.674L316.584 251.848L317.778 251.898L318.276 251.723L319.694 250.479L320.888 250.429L321.734 250.206L322.083 249.932L323.277 249.658L324.546 249.086H324.895L326.388 247.891L327.234 247.444L328.378 247.394L329.573 247.891H329.846L330.12 247.618L330.618 247.444H331.389L331.887 247.269L332.534 246.647V246.249L333.031 246.075L334.723 246.025L335.719 245.677H336.44L337.087 246.075L338.157 246.349H338.655L339.003 246.125L340.198 246.174L341.89 246.971L342.81 247.643H343.457L344.602 247.294H345.597L345.448 247.07L345.796 246.722L347.289 245.776L348.782 244.358L350.424 244.084L350.499 244.358L349.578 245.552L349.504 246.498L349.28 247.12L349.354 247.518L349.006 248.588L348.732 248.986L348.807 249.111L348.11 249.285L347.463 248.937H347.115L346.841 249.509L345.697 250.529L345.199 251.823V252.395L345.473 253.067L346.045 253.515L346.816 254.759L347.09 254.809L347.165 254.46L346.667 253.963L346.244 253.241L345.97 253.142V252.968L345.697 252.744L345.622 252.072L345.771 251.947L345.921 251.101L346.194 250.653L346.543 250.429L348.658 250.031L348.857 249.633L349.13 249.534L349.479 249.185V249.011L349.827 248.787L350.101 248.115L350.325 246.772L350.673 246.274V245.826L351.022 245.428L351.171 244.93H351.32V244.657L351.171 244.607L351.942 243.761L352.44 242.691V241.845L352.589 241.447L352.813 241.397L352.888 240.551L352.813 239.133L352.539 238.959L352.39 238.386L351.669 237.59L351.32 237.018L351.171 236.346L350.599 235.674L350.25 233.808L350.325 233.186L350.474 233.136L350.4 232.564L350.599 231.892L350.673 230.822L350.823 230.698V230.299L351.022 229.901L351.171 228.931L351.395 226.492V223.208L351.171 222.934L349.753 222.984L349.404 222.884L349.205 222.661L348.434 222.312L348.284 221.74L349.28 221.864L349.852 222.138H350.847L351.27 222.412L352.415 222.461L352.689 222.735V223.083L353.037 222.959L353.609 223.307L353.958 223.258L354.032 222.81L354.306 222.412V221.839L354.505 221.043L354.654 220.993V220.545L354.854 220.421L354.928 220.073L354.854 219.177L355.077 218.779V217.759L354.928 217.709V217.435L354.58 217.161L353.808 216.937L353.385 216.539V215.917L353.808 215.519L354.231 215.469L354.729 215.196L356.57 214.798L357.068 214.574L357.342 214.001L357.491 212.658L357.64 212.483V210.891H357.217L356.944 210.667L357.018 210.319L356.67 210.045L355.326 209.771L355.252 209.597L356.023 209.423L357.168 208.676L358.511 208.627L359.158 208.054H359.382L360.228 207.557L360.801 207.507L361 207.731L360.925 207.955L361.696 208.129L362.468 208.079L362.741 207.805L363.164 207.706L363.737 207.88L363.886 207.482L364.608 207.258L365.031 206.736L365.528 206.462L365.951 205.715L366.225 205.591L366.374 204.969L366.947 204.446L367.22 203.252L367.419 203.128L367.345 202.779L367.544 201.983H367.121L367.345 201.411L368.265 201.361L368.34 201.137L368.066 200.963V200.689L368.639 200.415L369.136 200.017L369.211 199.793L369.559 199.694L369.634 199.296L370.057 199.072L370.331 198.101L370.754 197.653L370.903 197.255L371.401 196.857L371.6 196.061L371.948 195.936L372.147 195.588L372.993 195.066L373.217 194.668L373.416 194.618L374.188 193.821H374.461L375.382 193.15L375.88 192.08L376.8 191.234L376.875 190.836L377.596 190.313L378.019 189.691H378.368L378.567 189.467L379.214 189.517L379.363 189.343L380.632 189.069L381.055 188.497L381.478 188.223L381.329 187.874L381.603 187.75L382.299 187.874L383.071 187.601H383.643L383.718 188.049L383.867 188.148L385.858 187.974L386.057 187.75L386.704 187.8L386.778 187.402L387.201 187.352L387.55 186.904L387.898 187.128L388.172 187.078V186.805L387.948 186.755V186.406L388.868 186.581V186.805L389.291 187.327H389.714L389.441 186.307L388.943 185.859V185.113L389.515 184.59L389.864 183.744L390.784 182.998L391.207 182.151L391.854 181.803L392.004 181.355L392.651 180.559L392.725 180.111L392.949 180.061L393.098 179.663L393.522 179.215L393.945 178.071L394.218 177.847L394.716 176.652L394.865 176.603V176.155L395.014 175.981L394.94 173.89L395.164 173.443L395.089 172.821L395.363 172.024L395.861 171.502H396.084V171.377L396.582 171.153L397.005 170.531L397.503 170.133L397.577 169.735L397.926 169.611L398 169.387L398.274 169.212V168.939L398.548 168.715L398.622 168.317L398.822 168.143L398.971 167.297L399.17 167.172L399.394 166.5L399.742 166.276L399.892 165.878L399.817 165.43L399.966 165.206L397.901 163.888L397.677 163.838V164.236L397.528 164.286L397.453 164.684L396.682 164.858L396.532 164.584L396.259 164.535L396.333 164.261L396.184 163.912L395.91 163.813L396.134 163.465V163.191L395.91 162.967L395.637 163.141L395.537 163.664L394.119 158.737L394.791 155.652L393.098 155.378L392.452 154.183L396.209 151.496L393.945 148.187L394.343 145.052L392.725 142.091L392.899 140.448L395.139 137.761L395.039 136.218L393.098 132.511L394.293 128.977L393.994 127.559L397.577 122.906L397.627 120.915Z" fill="#F2F2F2"/>
<g filter="url(#filter0_d_331_164)">
<circle cx="475.5" cy="100.5" r="7.5" fill="#D50000"/>
<circle cx="475.5" cy="100.5" r="6.5" stroke="#1C1C1C" stroke-width="2"/>
</g>
<g filter="url(#filter1_d_331_164)">
<circle cx="410.5" cy="184.5" r="7.5" fill="#D50000"/>
<circle cx="410.5" cy="184.5" r="6.5" stroke="#1C1C1C" stroke-width="2"/>
</g>
<g filter="url(#filter2_d_331_164)">
<circle cx="403.5" cy="194.5" r="7.5" fill="#D50000"/>
<circle cx="403.5" cy="194.5" r="6.5" stroke="#1C1C1C" stroke-width="2"/>
</g>
<g filter="url(#filter3_d_331_164)">
<circle cx="512.5" cy="166.5" r="7.5" fill="#D50000"/>
<circle cx="512.5" cy="166.5" r="6.5" stroke="#1C1C1C" stroke-width="2"/>
</g>
<g filter="url(#filter4_d_331_164)">
<circle cx="503.5" cy="335.5" r="7.5" fill="#D50000"/>
<circle cx="503.5" cy="335.5" r="6.5" stroke="#1C1C1C" stroke-width="2"/>
</g>
<g filter="url(#filter5_d_331_164)">
<circle cx="292.5" cy="334.5" r="7.5" fill="#D50000"/>
<circle cx="292.5" cy="334.5" r="6.5" stroke="#1C1C1C" stroke-width="2"/>
</g>
<g filter="url(#filter6_d_331_164)">
<circle cx="213.5" cy="404.5" r="7.5" fill="#D50000"/>
<circle cx="213.5" cy="404.5" r="6.5" stroke="#1C1C1C" stroke-width="2"/>
</g>
</g>
<defs>
<filter id="filter0_d_331_164" x="464" y="93" width="23" height="23" filterUnits="userSpaceOnUse" color-interpolation-filters="sRGB">
<feFlood flood-opacity="0" result="BackgroundImageFix"/>
<feColorMatrix in="SourceAlpha" type="matrix" values="0 0 0 0 0 0 0 0 0 0 0 0 0 0 0 0 0 0 127 0" result="hardAlpha"/>
<feOffset dy="4"/>
<feGaussianBlur stdDeviation="2"/>
<feComposite in2="hardAlpha" operator="out"/>
<feColorMatrix type="matrix" values="0 0 0 0 0 0 0 0 0 0 0 0 0 0 0 0 0 0 0.25 0"/>
<feBlend mode="normal" in2="BackgroundImageFix" result="effect1_dropShadow_331_164"/>
<feBlend mode="normal" in="SourceGraphic" in2="effect1_dropShadow_331_164" result="shape"/>
</filter>
<filter id="filter1_d_331_164" x="399" y="177" width="23" height="23" filterUnits="userSpaceOnUse" color-interpolation-filters="sRGB">
<feFlood flood-opacity="0" result="BackgroundImageFix"/>
<feColorMatrix in="SourceAlpha" type="matrix" values="0 0 0 0 0 0 0 0 0 0 0 0 0 0 0 0 0 0 127 0" result="hardAlpha"/>
<feOffset dy="4"/>
<feGaussianBlur stdDeviation="2"/>
<feComposite in2="hardAlpha" operator="out"/>
<feColorMatrix type="matrix" values="0 0 0 0 0 0 0 0 0 0 0 0 0 0 0 0 0 0 0.25 0"/>
<feBlend mode="normal" in2="BackgroundImageFix" result="effect1_dropShadow_331_164"/>
<feBlend mode="normal" in="SourceGraphic" in2="effect1_dropShadow_331_164" result="shape"/>
</filter>
<filter id="filter2_d_331_164" x="392" y="187" width="23" height="23" filterUnits="userSpaceOnUse" color-interpolation-filters="sRGB">
<feFlood flood-opacity="0" result="BackgroundImageFix"/>
<feColorMatrix in="SourceAlpha" type="matrix" values="0 0 0 0 0 0 0 0 0 0 0 0 0 0 0 0 0 0 127 0" result="hardAlpha"/>
<feOffset dy="4"/>
<feGaussianBlur stdDeviation="2"/>
<feComposite in2="hardAlpha" operator="out"/>
<feColorMatrix type="matrix" values="0 0 0 0 0 0 0 0 0 0 0 0 0 0 0 0 0 0 0.25 0"/>
<feBlend mode="normal" in2="BackgroundImageFix" result="effect1_dropShadow_331_164"/>
<feBlend mode="normal" in="SourceGraphic" in2="effect1_dropShadow_331_164" result="shape"/>
</filter>
<filter id="filter3_d_331_164" x="501" y="159" width="23" height="23" filterUnits="userSpaceOnUse" color-interpolation-filters="sRGB">
<feFlood flood-opacity="0" result="BackgroundImageFix"/>
<feColorMatrix in="SourceAlpha" type="matrix" values="0 0 0 0 0 0 0 0 0 0 0 0 0 0 0 0 0 0 127 0" result="hardAlpha"/>
<feOffset dy="4"/>
<feGaussianBlur stdDeviation="2"/>
<feComposite in2="hardAlpha" operator="out"/>
<feColorMatrix type="matrix" values="0 0 0 0 0 0 0 0 0 0 0 0 0 0 0 0 0 0 0.25 0"/>
<feBlend mode="normal" in2="BackgroundImageFix" result="effect1_dropShadow_331_164"/>
<feBlend mode="normal" in="SourceGraphic" in2="effect1_dropShadow_331_164" result="shape"/>
</filter>
<filter id="filter4_d_331_164" x="492" y="328" width="23" height="23" filterUnits="userSpaceOnUse" color-interpolation-filters="sRGB">
<feFlood flood-opacity="0" result="BackgroundImageFix"/>
<feColorMatrix in="SourceAlpha" type="matrix" values="0 0 0 0 0 0 0 0 0 0 0 0 0 0 0 0 0 0 127 0" result="hardAlpha"/>
<feOffset dy="4"/>
<feGaussianBlur stdDeviation="2"/>
<feComposite in2="hardAlpha" operator="out"/>
<feColorMatrix type="matrix" values="0 0 0 0 0 0 0 0 0 0 0 0 0 0 0 0 0 0 0.25 0"/>
<feBlend mode="normal" in2="BackgroundImageFix" result="effect1_dropShadow_331_164"/>
<feBlend mode="normal" in="SourceGraphic" in2="effect1_dropShadow_331_164" result="shape"/>
</filter>
<filter id="filter5_d_331_164" x="281" y="327" width="23" height="23" filterUnits="userSpaceOnUse" color-interpolation-filters="sRGB">
<feFlood flood-opacity="0" result="BackgroundImageFix"/>
<feColorMatrix in="SourceAlpha" type="matrix" values="0 0 0 0 0 0 0 0 0 0 0 0 0 0 0 0 0 0 127 0" result="hardAlpha"/>
<feOffset dy="4"/>
<feGaussianBlur stdDeviation="2"/>
<feComposite in2="hardAlpha" operator="out"/>
<feColorMatrix type="matrix" values="0 0 0 0 0 0 0 0 0 0 0 0 0 0 0 0 0 0 0.25 0"/>
<feBlend mode="normal" in2="BackgroundImageFix" result="effect1_dropShadow_331_164"/>
<feBlend mode="normal" in="SourceGraphic" in2="effect1_dropShadow_331_164" result="shape"/>
</filter>
<filter id="filter6_d_331_164" x="202" y="397" width="23" height="23" filterUnits="userSpaceOnUse" color-interpolation-filters="sRGB">
<feFlood flood-opacity="0" result="BackgroundImageFix"/>
<feColorMatrix in="SourceAlpha" type="matrix" values="0 0 0 0 0 0 0 0 0 0 0 0 0 0 0 0 0 0 127 0" result="hardAlpha"/>
<feOffset dy="4"/>
<feGaussianBlur stdDeviation="2"/>
<feComposite in2="hardAlpha" operator="out"/>
<feColorMatrix type="matrix" values="0 0 0 0 0 0 0 0 0 0 0 0 0 0 0 0 0 0 0.25 0"/>
<feBlend mode="normal" in2="BackgroundImageFix" result="effect1_dropShadow_331_164"/>
<feBlend mode="normal" in="SourceGraphic" in2="effect1_dropShadow_331_164" result="shape"/>
</filter>
<clipPath id="clip0_331_164">
<rect width="961" height="1250" fill="white" transform="translate(0 -738)"/>
</clipPath>
</defs>
</svg>
