<svg width="472" height="472" viewBox="0 0 472 472" fill="none" xmlns="http://www.w3.org/2000/svg">
<path d="M101.995 358.404L102.767 358.802L102.916 359.25L103.19 359.474V359.797L103.414 360.071L103.265 361.016L103.339 362.136L103.538 362.31L103.688 363.156L103.961 363.331L103.887 364.102L104.16 364.276L104.384 364.674V365.172L104.733 365.844V366.167L104.509 366.441L104.583 366.839L104.434 367.61L104.086 368.158V368.655L103.936 368.705L103.737 369.327L103.812 369.725L103.961 369.676V369.352L104.235 368.904L104.31 368.183L104.807 367.337V366.939L105.156 366.715L105.23 365.719L104.882 365.396H104.658V364.55L104.16 364.102V363.256L103.812 362.932L103.737 362.161L103.588 362.111L103.439 361.564L103.588 360.718L103.513 359.947L103.787 359.723V359.449L104.285 359.051L105.28 358.603H105.554L106.897 359.225V359.449L107.619 359.996L107.893 360.444L107.967 360.992L109.162 361.539L109.386 362.086L109.883 362.534L110.232 363.206L111.227 363.256L111.874 363.704H112.073L112.297 363.978L113.367 364.152L113.516 364.55L113.168 364.998L114.661 364.948L115.009 365.122H115.656L116.005 365.396L117.348 365.296L117.921 365.072L119.115 365.346L119.762 365.296L120.11 365.247V364.799L119.762 364.525L119.961 364.425V364.027L120.384 363.978L120.309 365.097L120.459 365.271H121.106L121.305 365.719H121.728L121.952 365.993L122.3 366.043L122.648 366.441L123.146 366.665L124.067 366.565L124.141 366.739L124.863 367.013L125.012 367.237L126.082 367.635H126.729L127.077 367.909L127.003 368.357L127.227 368.581L127.376 369.352L127.724 369.526L127.799 370.422L128.371 370.87V371.542L128.172 371.766V372.487H128.322L128.471 372.761V373.259L127.973 373.209L127.774 372.985L127.849 372.761L127.5 372.935L127.227 372.761L127.301 373.383L127.998 373.657L128.147 373.881H128.496V373.707L128.769 373.532V373.308H128.919L128.769 372.811L128.993 372.761L130.561 373.308L131.407 373.98L131.681 374.428H131.83L131.979 374.752L131.905 375.473L130.063 376.543L129.839 376.767L129.765 377.215L129.267 377.315L128.496 377.937V378.384L128.769 378.559V378.783L128.421 379.007L128.272 379.28L127.127 379.007H126.406L125.56 379.106L124.788 379.33L124.639 379.504L124.365 379.454L123.793 379.678L123.022 380.077L121.329 381.296L121.18 381.619L121.379 381.669V381.943L120.807 381.843L119.961 382.739L119.389 383.859L119.463 384.132L119.314 384.083L119.165 385.028L119.239 385.476L118.891 386.098V386.546L118.742 386.646L118.468 387.691L118.742 388.686L118.891 388.785V389.184L118.319 389.905L118.592 390.726L118.02 391.722L117.945 392.12L117.174 392.792L116.975 392.742L116.054 393.016L115.631 393.414H115.358L115.084 393.638L114.512 393.687L114.089 393.513L113.815 393.837L112.62 394.285V394.459H112.347L111.575 394.857L110.804 394.956L110.729 395.18L110.456 395.23L110.033 395.678L109.386 395.728L109.037 396.051L108.689 395.952L108.465 396.176L107.818 396.35L106.126 396.25L105.852 396.474L105.429 396.424L105.355 396.648L104.932 396.748L104.359 396.648L103.787 397.046L102.642 397.221L101.373 396.549V396.101L101.025 395.554V395.33L100.453 394.882V394.658L100.179 394.434V394.26L99.1091 393.438L97.6908 391.946L96.9194 391.324L96.4217 391.149L95.6504 390.477L94.5058 390.204L93.7344 388.985L93.0128 388.537L92.8635 388.263L92.0921 387.715L91.8184 387.268L91.047 386.646L90.0517 386.372L89.4794 385.824L89.0564 385.725L88.6334 385.327L88.0611 385.277L87.9118 385.103H87.6381L86.8667 384.705L86.369 384.655L85.2244 383.983L84.1545 383.809L82.7362 382.689L82.3132 381.968L81.8155 381.694L81.3925 381.644L81.1934 381.097L80.7704 380.599L80.5714 380.549L80.4221 380.151L79.999 379.927L79.9244 379.654L79.4268 379.38L79.2775 379.056L79.0037 378.882L77.66 378.559H76.0925L75.8187 378.235H75.6197L75.3957 378.633L73.4051 378.807V378.907L72.7084 379.007L72.36 379.231L71.7131 379.131L70.6431 379.454L70.5685 379.629H69.4238L69.3492 379.902L68.5032 380.126L68.0802 380.45L66.9355 380.35L66.7365 380.027L66.2388 379.703L65.1689 379.803L65.2435 379.579H65.6665L65.8656 379.405H66.6369L68.2046 379.007L68.2792 378.832L68.0802 377.986L68.1548 377.364L69.0755 376.867L70.9914 376.369L71.3398 375.697L71.6135 374.403L72.1858 374.13L72.7581 373.234L72.8327 372.836L72.6835 372.736L72.5342 372.015L73.1065 371.616L73.2558 371.343L73.8281 371.069L74.1018 370.571L75.1717 370.621L75.8187 370.895H76.1671L76.6647 370.621L78.9291 370.671L79.5014 370.347L80.9943 370.074L82.7611 368.631L83.5324 368.183L84.03 368.083L84.5277 367.536L85.1747 367.436L86.0954 366.814L86.593 366.715L87.3644 366.988L88.2104 367.038V367.486L88.0611 367.536L88.2104 367.859L88.0113 368.083L88.2104 368.133L88.2851 368.357L87.9367 368.805L88.0113 368.979H88.509L88.6583 368.307H89.0066L89.2804 367.859L89.8527 368.531L90.5742 368.755L90.6489 368.655L90.3006 368.481V368.257L90.5742 367.934L90.6489 367.61L89.6536 367.287L89.8029 367.063L90.1513 366.963L89.5043 367.013L89.2306 366.914L89.0315 367.013V367.337L88.8822 367.436L88.6832 367.386V366.939L89.1808 366.764L89.4546 366.491L91.0222 365.943L91.2959 365.67L92.0175 365.62L92.4405 365.296L93.8588 364.848L94.5804 364.45L95.2273 364.5L95.725 364.326L95.9988 363.878L96.571 363.43L96.8448 361.862L97.5663 361.315L97.7654 360.992L98.91 360.544L99.4823 359.922V359.424L99.6814 359.15L100.751 358.603H101.995V358.404ZM153.279 347.505L153.553 347.729L153.702 348.177V348.849L153.428 349.122L153.155 349.172L153.08 347.605L153.279 347.505ZM144.421 344.271L144.844 344.669L144.769 344.843L145.416 345.166L145.615 345.614L146.038 345.564L146.81 346.186L146.735 346.585L146.884 346.684L147.033 347.58L147.183 347.679L147.033 348.227L147.307 349.073L147.108 349.172L147.382 349.62L147.606 351.188L147.108 351.461L146.387 351.014L145.814 350.392L145.889 349.944L145.615 349.72L144.918 349.769V349.869H145.615L145.764 350.192L145.118 350.69L144.769 350.64V351.263L145.267 351.163L145.341 350.715H145.839L146.76 351.387L147.108 351.785L147.183 352.108L147.68 352.432L147.332 352.83L147.133 352.656L146.287 352.606L146.486 352.78H146.909L147.058 352.88V353.153L146.909 353.253L146.561 353.153V353.427H146.411L146.486 353.651L145.839 353.701L145.764 353.875H147.382L147.606 354.199V354.522L147.531 354.622H146.959V354.796H147.183V354.895L146.76 355.069L146.113 355.02L146.038 355.244H146.187V355.468H146.387V355.194L147.158 355.144L147.357 354.821H147.631L147.904 354.373L148.327 354.696L148.477 355.094L148.75 355.144L148.9 355.368V355.99L148.626 356.438L148.352 356.388L147.929 356.662H147.581L143.625 355.368L140.514 355.045L140.016 354.821L138.25 354.87L137.678 354.597L137.603 354.423V353.477L137.404 353.203V352.531L138.175 352.631L138.026 352.905L138.175 353.178L138.324 353.129V352.855L139.245 353.029L140.24 352.979L140.589 352.706H140.813L140.887 352.432L141.236 352.258L141.584 351.536L141.933 351.263L142.007 349.595L142.355 349.322V348.426L142.704 347.878V347.655L141.783 346.933V346.659L142.007 346.211L142.853 345.714V345.49L143.351 345.664L143.5 345.564L143.351 345.241H143.774L144.62 344.917L144.197 344.469L144.421 344.271ZM363.315 220.454L363.39 220.678L363.962 221.126L364.609 221.4L365.181 221.45L365.455 221.798L365.953 221.972L366.6 222.022L366.874 222.196L367.645 222.022L368.989 222.246L370.482 223.266L371.054 223.838L371.626 224.062L372.696 224.908L373.343 225.132L374.189 225.083L375.184 225.356L375.607 225.307L377.299 225.705H377.872L378.942 226.103L380.509 225.929L381.156 226.053L382.226 226.625L383.296 226.899V227.123L383.57 227.222L383.769 227.894L384.341 228.641L384.416 229.089L384.764 229.362H384.988L385.187 229.81L385.461 229.935L385.735 230.333L386.008 230.383L387.004 231.278L387.228 231.677L387.8 232.075L388.372 233.269L388.447 233.767L388.795 234.165L388.994 235.061L389.418 235.508L389.268 236.354L388.845 236.628V237.151L388.646 237.2L387.8 236.802L387.079 237.375V237.549L386.879 237.599L386.655 238.121L385.585 238.967L384.441 239.415H384.018V239.515L382.326 239.689L381.629 239.515L381.206 239.166L380.709 239.042L380.36 238.693L379.589 238.519L378.743 237.997L377.324 237.773L376.976 237.499L376.404 237.723H375.06L374.861 237.499L373.169 236.877L372.97 236.603L372.398 236.728L372.174 236.454L371.676 236.504L371.328 236.33L370.979 236.603L370.407 236.479V236.603L370.059 236.728L369.71 236.379L369.212 236.28L368.989 235.757L368.715 235.807V236.081L368.491 236.354L367.993 236.628H367.72L367.496 236.852L366.724 236.802L366.525 236.404H365.953L365.804 236.23L365.729 235.484L365.953 234.812L366.301 234.538L366.152 233.518L365.878 233.344L365.729 232.995H365.53L365.455 232.771L365.032 232.821L364.535 232.597L364.186 232.149L364.112 231.652L363.465 231.303L363.39 231.079L363.191 231.03L362.768 230.532L361.922 230.408L361.499 230.134L361.076 229.114V228.492L360.503 227.596L360.305 227.546V227.372H360.503L360.653 227.645L360.927 227.546L361.076 227.77L361.499 227.82L361.574 227.944L361.424 227.994H361.001L361.574 228.442L362.718 228.168L362.992 227.77V227.372L362.644 227.198L362.718 226.75H362.569V226.352L362.22 226.078L362.295 225.63L362.071 225.506V224.933L362.345 224.087V223.639L362.569 223.416V222.445L363.066 221.549L362.917 220.703L363.315 220.454ZM184.756 67.4263L188.986 71.0839L187.667 76.9811L193.216 82.8783L195.057 87.3075L189.359 91.9605L188.886 92.4831L189.782 94.3244L186.597 95.7675L184.258 99.276L186.846 99.6741L187.866 101.466L187.294 106.392L184.781 109.776L186.373 115.176L182.715 120.501L180.451 127.368L183.885 128.687L188.414 132.818L191.275 132.071L196.625 137.272L197.944 140.531L200.059 142.995L200.133 144.538L197.794 144.09L194.286 148.27L189.907 146.553L184.806 146.205L181.944 142.547L182.541 141.004L182.193 139.685L178.759 138.317L177.266 138.615L175.101 142.846L177.689 146.677L179.356 146.901L181.695 149.415L182.342 151.405L182.317 154.839L183.81 157.053L187.717 159.044L193.141 158.994L196.227 162.478L199.213 161.06L201.079 161.906L201.477 163.274L198.317 165.738L197.994 167.33L199.437 170.415L199.711 174.223L203.617 173.376L204.861 174.123L204.712 175.715L201.427 181.19L201.204 184.499L202.099 188.032L205.309 191.466L208.121 199.852L206.454 211.198L204.836 214.582L207.847 218.464L211.953 219.484L212.102 222.719L213.197 224.311L217.203 225.381L220.438 229.039L224.469 231.652L226.708 231.751L228.5 232L230.242 236.479L228.077 241.231L228.425 245.934L230.839 244.964L234.024 238.295L237.259 235.857L240.444 240.037L240.27 245.063L244.201 242.749L245.52 242.874L248.979 250.214L251.915 253.051L255.249 252.329L257.439 248.597L259.877 247.527L262.291 247.701L264.829 244.591L268.238 244.864L270.328 247.079L271.099 252.951L274.384 251.881L275.155 252.901L276.997 254.419L280.182 253.225L280.53 248.597L283.516 245.934L284.934 242.476L288.02 239.714L289.786 232.821L288.716 226.999L291.304 222.818L295.161 218.912L296.729 215.577L302.079 218.986L308.026 217.17L311.758 221.077L314.918 221.699L317.556 220.653L321.039 220.33L321.462 221.5H321.612L321.811 221.275L322.582 221.151L322.93 220.927L324.349 220.803L324.548 220.355L324.896 220.305L325.17 219.957L325.742 220.007L326.588 219.484V218.961L326.439 218.837L326.588 218.439L326.24 218.041V217.767L326.091 217.717L326.165 217.444L326.016 217.269L326.514 217.046L326.937 217.269H327.783L327.708 217.046L327.136 217.095L326.563 216.921L326.762 216L327.185 215.777L326.912 215.329L327.409 214.483L327.683 214.308L327.608 214.085L327.758 214.035L327.832 213.637L329.524 212.666L330.445 212.616L331.938 213.015L332.162 212.89L333.232 213.064L333.929 213.015L334.775 213.288L335.422 213.238L335.994 213.015H336.765L338.034 212.666L338.109 212.84L338.88 213.238L338.731 213.811L339.229 213.686L339.303 213.288L339.453 213.238H340.946L341.642 213.338L342.065 214.085H342.638L342.911 213.288L343.334 213.562H343.757L344.18 213.786L345.748 214.134L345.823 214.308L346.171 214.433V214.781L346.445 215.179L347.44 215.08L347.788 214.806L348.361 214.632L350.476 214.458L350.749 214.856L352.367 214.682L352.591 215.13L353.511 215.179V215.453L353.785 215.901L354.357 215.627L354.507 215.354H355.079L355.278 215.179L356.472 215.528L356.672 215.752L357.443 215.702L358.364 216.548L359.085 217.518L359.732 218.041L360.305 219.409L360.23 220.554L360.503 220.902V221.176L360.28 221.45L360.354 221.724L359.707 222.793L359.434 222.893L359.284 223.167L358.787 223.391L358.364 223.341L358.015 223.689L357.518 223.789L356.821 223.689L356.398 223.739L356.323 223.913L355.676 223.789L354.109 223.913L354.034 223.639L353.76 223.59V223.49L354.258 223.092L354.183 222.594L353.611 222.42L353.536 221.972L353.312 221.699L352.616 221.649L352.765 221.201L352.566 220.853L352.342 220.803L352.491 220.629L352.218 220.678L351.794 220.504L351.596 220.629L351.446 221.077L351.172 221.176L351.023 221.574L351.446 221.45L351.944 221.848V222.196L352.441 223.042L351.794 222.868L351.372 222.992L350.949 223.44L350.451 223.341L350.252 223.117L350.401 222.943V222.196L349.978 221.972H349.829V222.196H350.028L350.177 222.594L350.028 222.992L349.331 222.943L349.182 222.769L349.331 222.321H349.107L348.834 222.769L347.689 222.992L347.838 223.167L347.763 223.44H347.117V224.013L347.465 223.963V224.411L346.967 224.361L346.395 224.635V224.908L345.972 225.53V225.804L346.246 225.705L346.942 224.635L347.863 225.083L347.714 225.655L347.216 226.153L346.221 226.551V226.775L345.947 227.048L345.3 227.222V228.367L344.603 228.317V228.218L345.101 228.168L345.026 227.372L344.529 227.422L344.379 227.247H344.18L343.683 227.596L343.185 227.496L343.036 227.322H342.264L342.065 227.496L341.642 227.372L341.145 227.919L340.722 227.869L340.572 228.317L340.498 228.044H340.348L340.199 228.392H339.925L340 228.666L339.502 228.442L339.229 228.616L338.806 228.044L337.661 228.143L336.815 227.795H336.317L335.894 228.193L335.621 228.243V228.467L336.118 228.691L336.467 228.417L336.964 228.467L337.736 228.74L338.233 229.188L338.159 229.586L338.432 229.711V230.283L338.656 230.383V230.606L338.856 230.781L339.701 230.83V231.278H339.975L340.125 231.552H340.398L340.747 231.95L341.319 231.9L341.593 232.348L342.588 232.522L342.862 232.348L343.558 232.398L343.981 232.796L344.255 232.572L344.529 232.747L344.678 232.398H344.827L344.902 232.747L344.554 232.871L344.479 233.045L344.902 233.145L344.827 233.418L344.977 233.468L345.201 233.344L345.624 233.393L345.549 233.742L345.201 233.916V234.264L346.047 234.613L346.196 234.837L346.893 234.712V234.538L346.619 234.414L346.694 234.239L347.117 234.289L347.341 234.115L347.191 233.891L347.266 233.145L346.843 232.97V232.796L347.067 232.672H347.639L348.062 232.846L348.983 232.722L349.132 232.846L348.983 233.418L348.834 233.592L348.261 233.767L348.112 234.115L347.689 234.389L347.49 235.011L347.763 235.359H348.037L348.187 234.463L348.41 234.339V234.165L349.257 233.816V233.468L349.456 233.12L349.729 233.07L349.58 232.722L349.804 232.373L349.655 231.701L349.729 231.353L350.799 231.005L350.949 231.278H351.222L351.496 231.677L352.143 231.95L352.068 232.299H352.218L352.143 232.572L352.292 233.02L352.715 233.369V233.642L353.064 233.592L353.138 233.717V234.239L352.914 234.638L353.76 235.036L353.561 235.309H353.984L354.258 235.036V234.762L355.029 234.414V233.393L355.303 232.498L355.577 232.1L356.572 232L356.92 231.726L357.343 231.776L357.692 232.05L357.543 232.498L357.194 232.547L356.97 233.219L356.771 233.269V233.443H356.547V233.617L356.771 233.667V234.016H356.92L356.995 233.742H357.219V233.568L357.791 233.916L358.438 233.692L358.712 233.816L358.787 233.592H359.011L359.284 233.319L359.135 232.97L359.707 232.796V232.622L359.21 232.398L358.513 232.572V232.348L358.787 232.249V231.975L358.637 232.149H358.413L358.264 231.751L357.567 231.477L357.343 230.806L357.144 230.631L356.721 229.487V229.089L357.07 228.417L356.796 226.501L357.07 226.103L357.717 226.377L358.563 226.426L358.712 226.327H359.483L359.981 226.053H360.255L360.528 225.779H360.802L360.952 225.953L360.877 226.401L361.3 226.75L361.374 227.422L360.952 227.471L360.379 227.023L359.732 227.148L359.384 227.994L360.305 229.412L360.454 230.383L360.653 230.781L361.723 231.453L362.37 231.328L363.066 231.9L363.291 232.473L363.564 232.522L363.913 233.145L364.559 233.493L365.057 233.443L365.405 233.792V234.463L365.256 234.588L365.181 235.309L364.958 235.658L365.032 236.106L364.883 236.379H365.231L365.157 236.952L365.356 237.126V237.922L365.505 238.146L364.933 238.27L364.783 238.445L365.43 238.395L365.853 238.121L366.575 238.345H367.421V238.445L367.919 238.569L370.954 238.669L371.875 239.116L371.676 239.863H371.875L371.95 239.589L372.298 239.465H372.447V239.863L372.796 239.739L373.368 239.863L373.517 239.739L373.866 239.913L374.562 239.863L374.637 239.987L375.906 239.763L376.628 239.888L377.2 239.614L377.971 239.49L379.738 239.937L380.808 240.659L381.38 241.505L382.376 241.903V242.077L381.953 242.252L382.027 243.147L381.878 243.371L382.077 243.645H382.226V242.451L382.799 242.401L382.998 242.177L383.844 242.127L384.068 241.953L384.64 242.003L384.789 241.953V241.679L386.208 241.804L386.979 241.406L387.551 241.356L389.318 241.63L389.592 241.804H390.587L391.234 241.455L392.503 241.555L392.851 241.381H393.498L394.145 241.48L394.369 241.306H395.066L395.564 241.132L396.982 240.336L397.405 239.44L398.176 238.818L398.599 238.196L398.525 237.922L399.371 237.698L399.52 237.474L402.78 237.599L403.626 237.424L403.974 237.026L403.899 236.802L405.666 237.026H407.358L407.706 236.852L407.632 236.628L407.905 236.578V236.305L408.104 236.131L410.667 236.255L411.439 235.981L413.206 236.031L413.28 236.131L415.47 236.031L416.614 235.857L416.764 235.683H417.112L418.033 235.235L419.6 235.061L420.098 234.837L421.79 234.488L424.776 234.712L426.692 235.061L426.767 235.16L430.798 235.11L431.445 234.886L431.793 234.613L431.942 234.264L432.291 234.09L433.784 233.966L434.132 234.314L435.202 234.264L435.351 234.488H435.924L435.998 234.264H436.421L436.645 234.09L437.416 234.19L437.989 234.09L438.188 233.916L438.262 233.344L439.531 233.617L439.805 233.393L440.303 233.344L440.154 233.12L440.427 233.07L441.124 233.244L441.273 233.468H441.97L442.468 233.194L443.239 233.095L443.886 233.194L444.035 232.697L444.234 232.647V232.299L444.881 232.025H446.797L446.872 232.149L447.718 232.025L447.992 232.199L448.912 232.299L449.684 232.075L449.609 231.975L449.957 231.801L450.306 232.373L451.027 232.597L451.177 232.821H451.45L452.097 233.269V233.841L452.296 234.016H452.57L452.496 234.762L452.993 235.16V236.006L452.844 236.976L452.421 237.325L452.57 238.967H452.371L452.147 239.315L452.371 239.539L452.222 239.763L452.296 240.112L452.147 240.161V240.385H452.296L452.147 240.734L452.222 240.908H452.073L451.923 241.182L451.649 241.231L451.799 241.729L451.6 241.853L450.828 243.371L450.132 243.993L449.908 244.566L449.261 244.964L449.41 245.412L449.211 245.462L449.783 245.959H449.51L448.937 245.511V245.785L448.664 245.835V246.059L448.091 246.158L447.892 245.486L447.245 245.71L445.603 245.661L445.454 245.437H445.031L444.533 245.088H443.762L443.339 245.262L442.916 245.76L442.567 245.934L441.92 246.83L441.995 247.576L442.343 247.8L442.692 247.626L443.04 248.074L443.115 249.418L443.388 251.234L443.662 252.08L443.737 253.2L444.234 254.842L444.384 254.967L444.458 255.539L444.807 256.161L444.881 256.684L445.528 258.326L445.678 259.271L446.325 260.565L446.399 261.287L447.245 264.173L447.395 266.711L447.32 273.305L447.469 273.43L447.27 275.346L447.469 276.764L447.27 277.485L447.121 277.535V277.983L446.698 278.879L446.548 279.6L445.827 280.546L444.832 281.342V281.566H444.682V282.188L444.458 282.586L443.538 283.532L442.194 284.328L440.85 284.776L440.626 284.677L439.482 285.174V286.692H439.333L439.258 286.294L438.486 286.742L437.839 286.692L437.765 286.792H437.566L437.342 286.443L437.068 286.393L436.297 286.617L435.874 286.966L435.724 287.638L436.496 288.21L436.147 288.434L435.998 288.708L436.347 288.981L437.068 289.031L436.919 289.305L435.998 289.205L435.65 288.708L434.157 288.757L433.585 288.981L433.435 289.33L433.087 289.603L432.44 289.777L432.216 290.001L431.519 290.051L431.37 290.449L430.599 290.723L430.524 290.897H430.3L429.952 291.171L429.678 291.071L429.479 291.171L428.483 291.121L427.712 291.395H425.946L424.378 291.619L423.681 292.067L423.183 292.116L422.462 292.614V292.788L421.89 292.962L421.691 293.41L421.417 293.634L421.491 294.032L421.342 294.132V294.704L421.193 294.878L420.048 295.152L419.774 295.5L419.426 295.55L419.501 295.724L419.924 295.774L420.123 296.272L419.128 296.222L418.854 296.347L418.506 296.172L418.282 296.446L416.789 296.944L414.798 296.894L410.468 297.466L409.199 297.79L408.055 297.914L406.562 298.362L406.139 298.636L405.143 298.86L404.497 299.258L403.999 299.357L403.65 299.706L402.954 299.93L401.461 300.825L400.54 301.622L400.391 302.02L399.744 302.368L399.172 303.04L398.176 303.836L398.102 304.11L396.335 305.354L396.26 305.578L395.837 305.926L395.763 306.275L395.414 306.499L394.145 308.191L393.797 308.763L393.722 309.161L393.001 310.181V310.53L392.802 310.704V311.376L392.304 312.844L391.881 315.357L391.035 318.168V319.686L391.881 322.996L391.806 323.344L392.08 324.588L392.727 325.932L393.424 328.296L393.274 329.192L392.926 329.59L392.279 329.764L392.204 329.938L391.134 329.988L388.596 329.814L388.248 329.64H387.676L385.187 329.142L384.914 328.968L383.222 328.793L383.023 328.619H382.376L382.102 328.445L381.828 328.495L380.982 328.047L379.29 327.873L379.066 327.699H378.643L378.419 327.524L376.429 326.952H375.657L374.388 326.554L373.318 326.504L372.97 326.231L372.323 326.181L371.751 325.907L370.979 325.857L369.412 325.36L367.496 325.31L367.073 325.409L366.5 325.683L366.575 325.907L366.923 326.081L367.073 326.654L366.351 326.554L364.012 327.4L363.166 328.171L361.051 329.415L360.479 330.087L359.483 330.759L358.836 331.431V331.655L358.189 331.978L358.115 332.377L357.468 332.7V332.874L356.547 333.496L355.9 334.293L355.477 334.516L355.129 335.014L354.855 335.91L354.084 336.408L353.661 337.353L353.238 337.577L353.312 337.677L353.163 337.801H352.74V337.975L352.093 338.249L351.446 338.299L351.098 338.697L350.451 338.523L350.028 338.746L349.605 338.697L349.456 338.921L348.684 339.145L348.41 339.642L347.987 339.891L345.499 340.289L345.002 340.787H344.429L344.28 341.285L343.708 341.185L343.21 341.459L341.792 341.359L339.527 342.081H336.964L335.048 342.354L333.904 342.678V342.777H333.555L333.406 343.176L332.983 343.449L332.212 343.499L331.714 343.897H331.291L330.868 344.171L330.022 344.271L329.748 344.494L328.828 344.768L325.916 345.266H324.722L324.224 345.539H323.154L321.164 345.938L319.745 346.435L318.825 346.983L317.829 347.256L314.221 348.998L312.455 350.342L312.305 350.839L311.808 351.238L311.385 352.233L310.24 354.024L310.439 354.298H310.24L310.041 353.975L309.817 354.024L309.892 354.348L310.539 354.572L310.116 354.796L310.041 355.194L309.693 355.244L309.344 355.567L308.424 355.791L307.229 356.563L305.463 358.578L304.965 359.3L304.741 359.971L303.472 360.917L303.397 361.141L302.701 361.763L302.054 362.758L301.407 364.5L301.133 364.724L299.441 364.948L298.869 365.396L296.803 364.898H295.808L295.311 364.624L294.589 364.575L293.942 364.251L293.37 363.48L292.026 362.634L290.185 362.086L290.11 361.912L289.264 361.464L288.194 361.141L287.622 360.643L287.273 360.544L286.502 360.594L286.079 360.992H285.805V361.166H285.382L283.889 360.668L283.317 360.618L279.485 357.483L277.221 355.965L276.449 355.741H275.678L275.329 355.965L274.683 355.916L274.956 356.538L275.529 357.035L275.379 357.085L274.956 356.861L274.757 356.413L274.26 356.09H272.493L270.726 355.194H270.029L268.387 354.572H267.89L267.616 354.248L266.123 353.8L263.212 352.357L262.44 352.308L261.744 351.909L260.599 351.86L256.419 349.894L256.145 349.944L255.921 350.491L254.303 350.441L254.104 350.168L254.254 349.62L253.482 349.222L250.795 348.451L250.646 348.849L250.72 349.247L250.521 349.347L250.447 349.023L250.596 348.401H249.874L247.958 347.679L238.951 346.51L236.686 346.684L236.537 346.585L236.612 346.311L237.458 346.186L236.811 346.087L236.537 346.137L236.462 346.361L236.04 346.261L236.114 346.485L236.388 346.659V347.008L236.239 347.057L234.746 346.883L231.984 346.933L231.635 347.207L229.222 347.655L227.106 348.376H226.46L225.041 349.098L224.27 349.272L224.071 349.496L222.155 349.894L221.508 350.392L218.597 350.839L218.099 351.063L214.342 351.238L214.192 351.461H213.421L213.222 351.636L211.231 351.86L209.539 351.909L208.395 351.735L206.976 351.785V351.685L201.95 351.86L201.726 351.959L199.113 351.86L198.964 351.959L199.039 352.407L198.889 352.457L198.815 352.233H197.172L196.401 352.457L195.903 352.407L194.759 352.731L194.187 353.228L193.913 353.178V353.353L192.843 353.402V353.676L192.694 353.776L191.773 353.825L191.574 354.099H189.509L189.16 354.298L188.016 354.472L188.09 354.572L187.941 354.622L185.378 354.796L184.457 355.069L184.034 355.517H183.611L183.686 355.692L182.616 355.741L180.775 356.363H179.58L174.828 358.031V358.205L173.758 358.827V359.15L173.409 359.25L173.26 359.573L172.912 359.673L172.837 359.996L172.489 360.17L172.762 360.569L172.19 360.519L172.041 361.016L171.195 361.688L170.697 362.908V363.679L170.199 364.177V364.45L169.204 365.968L168.283 366.814L167.786 367.71L167.363 367.76L166.367 367.436L165.521 366.59L165.248 365.918L164.053 364.923L163.979 364.6L162.784 363.753L162.436 363.206L160.097 361.24L157.41 359.499L152.234 357.209L151.04 356.139L151.189 355.244L151.04 355.144L150.965 354.597L151.189 354.199L151.612 354.248L152.11 354.647L152.184 355.368L152.035 355.542L151.761 355.492V355.716L151.985 355.766L152.408 355.368L152.259 354.87L152.906 354.423L152.831 354.149L153.901 353.751L154.175 353.203L154.1 352.88L154.249 352.258L154.473 351.984L154.399 351.437L154.473 351.337L154.747 351.387V351.561L155.021 351.461V351.238L154.673 351.287L154.523 351.014L155.096 350.566H156.24L157.161 350.392L158.081 350.939L158.231 351.163L160.346 352.108L160.993 351.835L161.266 351.511L161.192 351.412L161.466 351.188H162.61V351.014H162.759V350.118L163.456 349.894L164.178 349.122L163.954 348.003L164.526 347.455L164.451 346.062H164.103L164.178 346.286L163.954 346.385V347.107L163.382 347.829L163.456 348.899L163.182 349.222L162.411 349.496L162.187 349.944L161.416 350.267L160.769 350.765L160.495 351.213L159.425 351.113L158.355 350.79L158.281 350.516L157.012 349.844L156.812 349.57L156.887 348.724L157.235 348.102L157.584 347.878L157.658 347.605L158.231 346.933L158.579 346.983L159.002 346.535H159.201L159.127 346.361H158.778L158.43 346.634L158.156 346.535L158.081 345.863L158.231 344.967L158.43 344.743L158.281 344.569H157.858L157.211 344.295L157.061 344.843L157.285 345.241V345.738L157.634 346.062L157.708 346.858L157.136 347.854L156.489 348.625L156.564 349.396L156.29 349.794L155.568 349.894L155.419 349.57H155.195V349.844L154.424 349.944L153.851 350.217V350.839L153.578 351.063H153.229L152.881 350.79L153.105 350.168L153.03 349.67L154.299 349.272L154.449 349.098V348.6L154.1 348.376L154.249 347.381L153.553 346.385L153.702 346.211L153.627 345.589L154.125 345.415L154.05 344.569L153.827 344.395H153.478L153.403 344.569L152.682 344.395L151.985 344.494L151.91 344.096L151.488 344.146L151.214 344.594L151.562 345.092V346.211L151.91 347.057L152.184 347.232L152.383 347.679L152.184 348.973V349.147L152.383 349.247L152.309 350.914L152.159 351.088L152.234 351.362L152.035 351.636L152.383 351.81L152.458 352.308L152.309 352.482L151.96 352.531L151.537 352.133L151.687 351.909V351.412L151.338 351.461L150.99 351.063L150.343 350.79V350.566H150.194L149.92 350.118L149.995 350.018L149.223 349.396L148.502 349.222V349.122L148.004 349.172L147.805 349.073V348.675H148.004L148.203 348.351L147.855 348.525L147.506 348.426V348.152L147.929 347.704L147.705 347.032L147.979 346.137L148.253 345.913V345.291L148.526 345.191L149.099 344.022L148.9 343.624V343.275L148.178 343.225V343.673L146.984 343.574L146.561 343.4L146.411 343.624L146.561 344.022L146.138 344.196V344.594L146.287 344.644L146.212 345.042L145.789 344.768L145.366 344.718L145.292 344.32L145.441 344.221L145.292 344.121H144.869L144.67 343.897L143.824 343.673L143.674 343.723L143.6 344.046H143.376L143.45 344.32H143.102V345.092H142.754V344.693L142.53 344.519L141.684 344.569L140.539 343.847V343.499H139.768L139.345 343.225L138.001 343.4L138.076 344.345L138.723 344.669L139.37 344.718L139.519 345.042H139.793L140.016 345.365V345.639L140.29 345.813V346.161L140.016 346.112L139.942 345.838L139.594 345.788L139.519 345.465L139.245 345.141L138.748 345.042L138.474 344.768L138.051 345.042L137.777 344.992L137.503 345.316V345.714L137.304 345.938V346.211L137.503 346.385L137.354 346.784L137.006 346.684L136.359 346.784L136.508 346.46L135.936 346.012V345.465L135.786 345.191L135.214 345.241L135.065 345.415H134.368L134.219 345.589L134.866 345.863L135.065 346.933L135.339 347.256L135.189 347.43V347.978L135.04 348.077V348.749L135.115 349.471L135.463 349.745V349.919L135.314 349.969L135.04 350.69L135.264 351.984L135.612 352.755V353.203L135.264 353.477L134.916 354.099L135.189 354.149L136.035 353.527L136.309 353.577L136.583 353.353V353.079L136.433 352.979L136.508 352.706L136.732 352.755V353.975L136.931 354.423L136.284 354.87L134.642 355.194L134.07 355.468L133.796 355.418L133.074 355.816L131.656 356.09L130.934 356.413L128.944 356.637L127.749 355.293L127.326 355.069L127.177 354.572L126.406 354.024V353.527L126.605 353.203L126.331 352.93V352.531H126.107V351.984L125.958 351.81V350.69L126.53 350.591L126.953 350.765L126.754 350.591V350.143L126.903 349.969H127.55L127.973 350.242L128.471 350.068V350.292H128.695L128.62 349.894L128.048 349.993L127.849 349.769L128.048 349.496L127.7 349.67L127.426 349.57L127.849 347.953L128.197 347.903L128.546 348.451L128.471 348.724L128.62 348.824L128.894 348.774V348.5L128.546 348.053V347.729L127.7 347.281L127.625 346.659H128.197L128.396 346.485V346.211H128.745V346.385H128.894L129.043 346.037L128.122 345.763L127.973 345.365L126.779 344.469L127.053 343.748V343.25L127.276 343.026L127.202 342.703L125.858 342.753L125.933 343.026L126.281 343.2V343.375L126.207 343.474L125.56 343.424V343.922L125.833 343.822L125.983 344.271L126.256 344.494L125.983 344.942L125.485 344.992H124.639L124.44 344.768L123.295 344.32L122.3 344.37L121.802 344.146L121.305 344.196L121.578 343.748L120.931 343.922L120.732 343.524V343.2H119.886L119.662 343.3V343.798L118.966 344.022L118.12 343.972V344.246L118.617 344.469L118.692 344.644H118.841V344.469L119.613 344.644L119.961 344.469L120.036 344.246H120.309L120.807 344.743L121.454 344.843L121.529 345.515L121.752 345.614V345.838L121.329 346.51L121.529 346.784L121.952 346.883L122.026 347.281L122.25 347.381L122.325 347.829L122.972 349.122L123.245 349.222L123.818 349.944L124.091 349.993L124.166 350.317L124.44 350.541L124.788 350.367L125.012 350.466V350.64L124.738 350.69V350.914L125.087 351.586L124.664 351.536L124.589 351.76L125.51 351.984L124.937 352.084L124.788 352.357L125.062 352.407L125.56 352.233L125.709 352.631L125.56 353.253L126.207 354.024L125.56 354.796L124.49 355.468L124.415 355.741L124.067 355.965L123.345 357.035L122.424 357.433L121.852 357.16L120.782 355.766L120.135 355.318L119.214 354.92L118.567 354.97L118.144 354.746L117.448 354.696L116.029 354.024L114.959 352.955L114.885 352.556L114.462 352.158L114.387 351.835L113.964 351.437V351.213L113.541 350.591L113.342 350.541L112.994 350.043L112.496 349.72H112.222L111.799 349.272L111.227 349.172L110.033 348.401H109.61L109.46 348.575L108.764 348.525L107.072 346.858L106.3 346.46L105.877 346.41L105.653 346.186L103.961 345.515L102.966 344.967H102.618L102.394 344.693L101.747 344.469L101.174 343.922L101.1 343.599V342.877L101.373 342.927L101.647 342.653L101.498 342.429L101.647 342.155L101.373 341.708L100.95 341.807V342.205L100.677 342.379L100.03 341.882L99.0344 341.608L98.8354 342.056L98.9847 342.504L98.6363 342.404L98.5617 341.956L98.8354 341.857V341.583L98.9847 341.533L98.91 341.359L98.1387 340.787L97.218 339.493L96.795 339.269L96.7203 338.995L96.0734 338.722L95.5757 338.224L95.5011 337.95L95.2273 337.776V337.552L94.5058 336.607L94.232 336.507L93.5105 335.711L93.2367 335.089L92.6644 334.691L92.0175 334.516L91.2959 333.894L91.2212 333.446L91.4949 331.879L91.2212 331.829L91.1466 331.332L91.4949 330.933L91.5695 330.535L92.1419 330.436L92.9132 329.764V329.49L92.341 328.694H92.1916L92.341 328.918L92.2663 329.266L91.6194 328.918L91.5447 328.744L91.1963 328.918L90.9973 328.868L90.9226 328.246L91.4202 328.072L91.5695 327.947L91.4949 327.773L91.1466 327.823L90.6489 328.221L90.4996 328.619L90.848 329.067L91.271 329.117L91.4949 329.017L92.2165 329.465L92.3658 329.913L91.7936 330.361L91.3705 330.311L91.0222 330.635L91.0968 330.908L90.8231 331.008V331.406L91.047 331.506L90.9724 331.904L91.1217 331.954V332.401L90.5494 334.143L90.3254 334.243V334.964L90.4748 335.138L90.2508 335.462L89.7531 335.362L89.4047 333.969L89.1311 333.745V333.347L88.9071 333.123H88.708V333.297L88.3597 333.123L88.2104 332.949L88.3597 332.551L87.7127 332.202V332.028L86.5681 331.58L86.2197 331.257L85.2244 330.859L85.1498 330.685H84.9508L84.3784 330.286L83.8807 330.336L83.6071 331.058L83.408 331.107H82.8357L82.4127 330.784H82.0643L81.9151 330.51L81.4174 330.237L81.3427 330.013L80.7704 329.789L80.6957 329.117L80.5465 329.067V328.793L80.3474 328.694L79.999 327.898L79.3521 328.072L79.5512 328.196V328.47L79.3521 328.57V328.744L79.6258 329.465L79.5512 329.64L79.9742 329.963L80.1235 330.311L80.7704 330.635L81.1188 331.207L81.6164 331.307L82.1141 331.63L84.03 331.456L84.1047 332.078L84.254 332.252H84.5277L84.677 331.904L85.1747 332.128H85.8216L86.0207 332.252L86.0954 332.7L86.2446 332.799L86.5183 332.75L86.9414 332.974L86.7921 333.646L87.6381 334.815V335.039L87.9118 335.138L88.3348 335.636L88.4841 336.034L89.4794 336.607L89.6785 336.88V337.154L89.4047 337.378L89.4794 337.652L89.8278 337.975L90.2508 338.025L90.4748 338.249L90.8977 338.075L90.8231 337.851L91.0968 337.627L91.4452 337.801L91.2212 338.025L91.2959 338.249L90.9475 338.348L90.8728 338.746L91.0719 338.921L90.9973 339.095L91.4202 339.369V339.593L91.7686 339.816L92.0423 340.264L92.6893 340.488V340.837L93.187 341.285L93.7592 341.459L94.1076 341.857L94.6053 341.956L95.1776 342.354V342.802L96.4466 342.902L96.9442 343.3L97.0935 343.624L97.5166 343.524L97.3673 343.076H97.641V343.3L98.064 343.574L97.9894 343.673L98.6363 344.221L99.2086 345.116L98.711 344.893L98.2133 344.221L97.5663 344.494L97.4917 344.942L97.7654 345.216L97.8401 345.614L98.1137 346.012L98.3875 346.112V346.286L98.6612 346.51L99.1589 346.734V348.252L99.6565 348.525L99.8058 348.351L99.7312 347.953H99.9302L100.204 348.127L100.279 348.451L100.478 348.55V348.824L100.751 348.874L100.901 348.7V348.301L100.627 348.127V347.903L100.901 347.679L101.174 347.779L101.249 348.053L101.05 348.948L100.627 349.272V349.496L99.9053 349.819L99.2086 350.367L98.9847 350.765L98.711 350.864L98.6363 351.138L98.2879 351.461L98.2133 351.785L97.9396 352.009L97.7903 352.631L97.3673 353.129L96.7203 354.647L96.0734 354.87H95.5757L95.3767 355.094L94.7297 354.92L93.8837 354.97L93.386 354.796H92.1916L91.9677 354.895L91.8184 355.219L91.0968 355.318L90.5245 355.766L89.3799 355.94L88.5339 355.219H88.2602V355.045L87.9118 354.771V354.273L88.2602 353.875V353.427L87.9865 353.153L87.9118 352.706L88.0611 352.208L87.9118 351.984L87.9865 351.71L87.7127 351.486H87.4391L87.1653 351.71H86.6677L86.817 351.088L87.0409 350.989V350.665L86.6925 350.392L85.9709 350.566L85.6226 349.72H85.1249L84.7766 349.894L84.4282 349.496L84.5028 348.874L84.3038 348.7L83.5822 348.6V348.053L83.3085 347.829L82.6615 347.878L82.4625 347.655H82.2385L82.1638 347.829L82.3878 348.053H83.3831V348.774L84.3038 348.948L84.2291 349.496L84.7268 350.043L85.0752 350.093L85.2991 349.869H85.5728L85.6475 350.416L85.8465 350.64H86.4188L86.4935 350.541L86.8418 350.64V350.964L86.6428 351.063L86.4935 351.461L86.5681 351.86H87.215L87.4888 351.685L87.7625 351.785L87.8371 353.178L88.0611 353.353L88.1358 353.85L87.7874 354.174L87.7127 354.895L89.778 356.239L90.2757 356.139L90.4996 356.314V356.04L91.0719 355.866L91.271 355.642H91.694L91.7686 355.816L91.0719 356.264H90.6489L90.002 356.985L89.2306 357.259L88.8822 357.657L88.1855 357.831L87.4639 358.379L84.4282 358.877L83.3582 359.374L81.8652 359.424L81.5169 359.648H81.2432L81.0192 359.872L80.2479 360.046L79.4765 360.817L79.1281 360.768L79.0535 360.494L78.7051 360.544V360.867L78.3567 361.489L77.7845 361.763H77.3614L77.2868 361.589L78.0582 361.265L77.9835 361.166L78.1826 360.942L78.108 360.718L77.9089 360.842V361.066L77.7596 360.792L77.5356 360.842L77.6849 361.24L77.4113 361.415L77.0629 361.365V361.091L77.2619 360.992L77.1872 360.892L76.8389 360.992L76.9136 361.265L76.1422 361.091V361.315L76.8638 361.365L76.7892 362.31L76.2169 362.41L76.0178 362.31V362.161H75.8685L75.7192 362.385V362.833L74.7239 362.783L74.4502 362.559V362.236L75.2216 361.788L75.8685 361.738L75.9431 361.639L75.3708 361.589L74.6741 361.987L74.4502 361.937L74.1764 361.439L73.8281 361.489L73.3304 361.166L73.1811 360.942V360.444L73.0319 360.394L72.9572 360.942L73.2309 361.216L73.3055 361.539L74.0769 361.862L74.0022 362.484L73.7286 362.708H73.3802L73.5295 362.161L73.3304 362.111L73.4051 362.335L73.2558 362.385V362.609L72.9074 362.783L72.8327 363.107H71.9121L71.7628 363.38L71.9619 363.704L71.8873 363.928H72.0863L72.1609 363.753L72.5093 363.803L72.584 364.699L71.6633 365.47L71.5886 365.918L71.1656 366.092L70.9665 366.59H70.7426L70.668 366.988L70.4689 367.162L70.6182 367.386L70.5436 367.71L69.7722 368.108L69.8469 368.282L69.5731 368.456L69.4985 368.73V369.501L69.2745 369.452L69.1999 369.178L68.8516 368.904V368.68L68.6524 368.581L68.7271 368.083L69.0008 368.183L69.0755 367.959L68.6524 367.859L68.4285 367.536L68.2792 367.76L68.4285 367.809L68.5032 368.257L68.2792 368.531L68.6276 368.755L68.9013 369.203V369.526L67.906 369.7L67.5576 369.377V369.203L67.3337 369.153L67.259 368.83H66.9107L67.906 369.9L68.9013 369.725L68.8266 370.397L69.1003 370.347L69.2497 370.447L69.175 370.547H69.399L69.3243 370.273H69.4736L69.7473 370.721L69.8966 370.547L69.6727 370.372L69.598 369.601L69.8219 369.501L70.1703 370.273L70.5187 370.497L70.245 370.945L69.4736 370.994L68.9759 370.596L68.4036 370.497L65.7163 368.208L64.1487 367.76L62.805 367.138L60.6153 366.516L59.5453 365.968L58.351 365.694L58.0026 365.47L57.5796 365.52L56.7335 365.247L55.5889 365.197L54.718 364.973L54.0711 361.141H46.7306L47.1288 356.886L46.6311 356.388L40.0621 358.255L38.37 355.492L37.1259 351.536L37.4742 348.127L38.8179 345.614L37.5987 338.348L34.1399 338.722L33.3188 333.571L36.8522 330.709L37.6733 325.882L33.5925 325.036L30.3329 327.226L28.1431 326.828L24.6347 322.971L19.1853 313.988L22.1962 311.724L29.5366 310.455L30.0592 310.778L29.5615 312.396L30.9549 312.67L32.2986 310.131L33.5428 309.733L36.9517 313.043L42.5753 314.287L45.9095 316.029L51.334 316.651L54.7927 320.756L56.8083 321.652L62.4815 319.736L63.875 316.253L61.1129 312.67L61.8595 310.53L64.2731 308.066L63.5017 306.275L61.0632 304.707L61.2871 300.651L59.8688 294.182L61.0632 289.678L60.1674 287.886L57.1317 286.02L57.7786 281.243L56.858 276.913L53.0011 270.046L51.5828 263.676L53.5983 263.004L60.2918 264.198L61.9839 263.302L63.8501 260.491L66.4379 259.421L71.7131 262.009L73.0568 260.491L71.6135 255.813L74.0521 250.339L73.2061 244.79L78.2821 244.217L78.4314 241.903L77.0131 239.763L76.8638 237.375L72.36 235.061L68.5281 227.994L69.797 226.352L73.8032 225.207L73.9028 223.515L72.9821 220.007L70.1454 217.966L66.8609 212.343L65.8407 206.52L63.5017 205.948L57.903 196.07L55.1411 196.169L54.2452 195.199L53.9218 189.675L56.211 187.336L56.8829 183.081L53.1256 179.274L52.7772 175.467L53.2002 173.526L57.5547 174.521L58.2017 173.302L57.8036 171.933L54.1209 168.176L53.6232 162.702L52.0307 156.307L49.9157 153.744L53.7476 149.166L54.1706 137.222L56.4599 131.499L59.0477 129.26L57.9528 125.925L62.2078 121.471L62.2327 119.854L61.4115 118.709L56.5594 115.798L57.1317 110.672L63.3276 116.669L64.6712 116.495L65.5919 114.156L70.2201 113.758L70.7426 110.548L74.2511 109.801L75.321 107.736L77.0878 99.0023L77.1624 94.7972L79.7502 91.5126L80.3474 89.0493L84.1296 88.6014L84.6521 88.1534L84.5028 85.1676L85.9461 84.869L88.3099 85.0929L91.893 88.3774L94.6551 87.6806L95.5011 85.7897L92.6396 82.9032L96.7452 79.569L97.7405 75.8863L99.3331 73.9455L110.033 87.5066L109.212 88.6511L105.38 89.1737L101.174 91.3634L102.817 92.6324L102.468 99.3506L103.563 101.142L106.499 111.593L107.644 112.29L110.456 111.493L116.9 111.892L119.637 109.876L122.673 109.528L125.161 106.144L126.53 105.497L122.25 103.73L125.161 100.172L127.998 98.3305L135.637 96.315L137.329 94.0258L141.485 94.3741L146.685 92.1347L147.879 92.5328L152.881 103.556L154.324 103.257L158.629 99.0272L158.704 95.2949L161.366 94.6728L162.312 94.1004L162.287 92.4831L159.251 89.6714L157.385 86.2126L155.942 85.4662L155.867 83.4009L162.56 81.037L164.203 78.8971L164.128 77.23L165.024 75.9112L168.93 77.006L170.747 73.7713L174.952 73.9455L184.756 67.4263Z" fill="#F2F2F2"/>
</svg>
