<svg width="460" height="460" viewBox="0 0 460 460" fill="none" xmlns="http://www.w3.org/2000/svg">
<g clip-path="url(#clip0_331_164)">
<path d="M136.805 383.944L137.079 384.068L137.004 384.292L136.581 384.118L136.805 383.944ZM62.8533 377.325L63.2016 377.674L64.0476 377.549L63.8237 377.723V378.072L63.4006 378.171L63.2016 378.47L63.2762 378.868L62.8533 378.992L62.7786 379.216L62.4302 379.44L60.8626 379.49V379.142L60.6387 378.967L60.7133 378.743L61.4349 378.519V378.345L61.7086 378.221L61.8579 377.698L62.2063 377.649L62.48 377.3H62.8533V377.325ZM36.8507 371.453L36.9253 371.677L36.5023 372.075H36.2286L35.9548 371.776L36.1042 371.428H36.8507V371.453ZM59.5936 368.766L59.9419 368.815L60.0166 368.99L60.8626 369.388L61.8579 369.562V370.308L62.1317 370.358L62.2063 370.059H62.48L62.7537 370.408H62.9528L63.3758 370.756V370.98L62.8781 371.03L62.7288 371.204H62.2312L62.0818 371.552H61.8828L61.6091 371.204L61.7584 370.856L61.5344 370.806L60.9622 371.204V371.901L60.6138 372.249L60.5391 372.523H60.3401L60.2654 372.299L59.9917 372.125L59.4194 372.075V371.901L59.6185 371.776L59.5438 371.652L58.8222 371.527L58.6232 371.353H57.9762L57.7025 370.831V369.811L58.2748 369.587L59.1955 368.741H59.5936V368.766ZM54.5672 341.22L54.841 341.519H55.1147L55.3386 341.295L55.6124 341.419V341.867L55.264 342.39V342.962L55.1147 343.012L55.1893 343.534L55.04 343.659L55.3137 344.356V345.45L55.1644 345.799L55.3137 345.849L55.3884 346.869L54.9654 347.217L54.8161 347.565L54.4677 347.74L54.3184 348.038H54.0945V347.69L54.5175 347.416L54.9405 346.968V346.794L54.7414 346.67L54.6668 346.396L53.9701 346.57V345.873L53.8208 345.749L53.5968 345.873L53.0245 345.749V345.45L52.8006 345.276V344.704L52.6015 344.579L52.6761 344.231L52.5268 343.933L52.6761 343.758L53.8208 343.41V343.136L53.3977 342.838L53.1738 341.867L54.1691 341.519L54.5672 341.22ZM124.538 156.118L125.533 156.342L125.807 156.566L125.882 157.139L125.682 157.313L125.757 158.258L125.409 158.607L125.259 159.005L125.036 159.129L124.961 159.428L124.463 159.254L124.19 159.378L123.966 159.254L123.617 159.303V159.478L123.966 159.602V159.901L123.692 160.373L123.194 160.722L123.119 161.02L122.771 161.07L122.697 160.672L122.92 160.373L122.846 159.726L123.194 159.428V158.856L123.692 158.681L123.543 157.985L123.692 157.039L123.543 156.915V156.392L123.891 156.094H124.538V156.118ZM146.211 37.0302L146.285 37.2044L145.788 37.5528L145.141 38.3241L143.076 38.4485L142.876 38.6973L142.653 39.5932L143.076 39.6428L143.648 40.0659L144.494 40.0161L144.992 40.3645H145.215V39.5932L145.713 39.7175L145.987 38.4236L146.41 38.1748L146.485 38.349L146.136 38.8218L145.862 39.7672L146.36 39.419L146.435 39.6428L145.788 40.1156V40.5884L146.211 40.7128V40.8373L145.066 40.7875V41.0861L144.793 41.2104L144.718 41.509L145.066 41.3846L145.34 41.0362L145.912 40.9866L146.186 41.4594H146.609L147.032 41.8823L146.758 42.4049L147.107 42.7531V43.0517L147.38 43.1763L148.102 43.1264L148.376 42.7035V42.4795H149.072L149.346 42.6537L149.769 43.425L150.466 43.3752V43.5992L150.117 43.7734L150.192 44.072L149.993 44.8434V45.1419L150.267 45.4903L150.043 45.6147V45.7889H149.471L149.246 46.4855L148.824 46.4359V46.1373H148.674L148.525 46.187L148.6 46.3113H148.326V46.4855L148.898 46.6099L149.047 47.2569L148.973 47.7297L149.396 47.5555L149.595 47.8044V48.2772L149.246 48.3268V48.9241L149.819 49.0982V48.8494H150.018L149.943 49.0982L150.715 48.9738L151.063 49.1978V50.019L151.486 50.3176L151.337 50.5663L151.486 50.7903L150.988 51.0889L151.337 51.1386L151.76 50.84L152.033 50.9644L152.606 50.84L153.452 51.3128L153.302 51.6612H152.805L152.73 51.4124H152.581L152.506 51.711L152.083 51.8354H152.506V52.0841L153.203 52.4325L153.278 52.9053L153.924 53.6767L153.85 54.1494H153.626L153.352 53.9007L153.153 53.9503L153.576 54.2987L153.502 54.6471L153.85 54.6968L153.924 54.5227H154.124L154.397 54.8213L154.049 55.4185L153.775 54.9955H153.203L152.855 55.1696L153.078 55.518L152.805 55.6921L151.312 55.9162L151.386 56.3889L151.187 56.4386L150.54 56.4884L150.043 56.0156L150.267 55.7171L150.043 55.3687H149.694L149.62 55.5927V55.8913L149.968 56.5382H149.471L148.774 56.3142L147.853 55.5429H147.132L146.485 54.5973L147.132 54.0747L146.783 53.6518L147.057 52.9302L146.833 52.5818L146.136 52.0592V51.6363L145.415 51.5119L145.763 50.6161H145.191L145.116 50.4918L145.315 49.5462L145.166 49.0236H145.439L145.663 48.5508H146.31L146.161 48.0283L145.663 47.8541L145.166 48.2772L144.668 47.7546L143.399 47.7048L143.548 47.0579H141.981L141.831 46.7096H140.836L140.911 46.8837L140.762 47.3067L140.115 47.3565L139.766 47.8293L139.418 47.4062H139.069L138.92 47.0579L138.199 47.3067L138.124 47.6551H137.975L137.253 46.8837L137.402 46.4606L136.979 46.0377L137.402 45.6893L137.552 45.341L138.323 44.7437L137.975 44.3955L138.174 43.9724L138.024 43.7983L137.104 43.848L136.606 43.4996V43.1514L136.183 42.803L136.108 42.4546L135.461 42.3302V42.0316L135.884 41.9072L136.457 41.2603L136.88 41.3846V41.2603L137.377 41.2104V40.9119L137.875 40.2649L137.95 39.6677L137.875 39.0706L137.527 38.8964V38.7222L137.8 38.6725L137.95 38.4236L138.298 38.548L138.646 39.2697H138.92V39.0955L139.492 39.0457L139.915 39.4686L140.338 39.5184L141.184 39.0457L141.259 38.6973H141.757L142.18 38.8715L142.752 38.2245L144.743 38.1748L146.211 37.0302ZM311.831 31.6556L313.175 32.178H312.752L312.826 32.9494L312.677 33.0739L312.876 33.4222L312.677 33.7706L313.025 33.8949V34.0691H313.2L313.274 34.7161L313.623 34.8405L313.548 35.1391L313.822 35.2634L313.971 36.2588L315.588 37.5528L315.663 37.7766L315.887 37.8264L316.584 38.5978L317.305 39.0208L318.002 39.1949L318.226 38.9462L318.649 38.8964L318.923 38.3738L319.42 38.125L319.495 38.2992L319.147 38.4236V38.5978L318.724 38.9462L318.649 39.2946L319.147 39.419L319.346 39.7672H319.619V40.3645L319.769 40.6133L319.993 40.7377L320.416 40.688L320.764 41.0362L321.262 41.1608L321.535 41.3846V41.5588L322.531 41.9818L322.605 42.2058H322.755V42.5044L322.979 42.6786L324.397 43.3256L324.596 43.5743H324.87V43.6987L325.293 43.8231L326.711 44.719L327.283 45.3658L327.507 45.4156L328.353 46.5354L328.926 46.8339L328.851 47.2569L329.125 47.6053L329.398 47.7297L330.394 48.6752L330.667 48.725L330.941 49.0734L331.713 49.5462L331.862 50.019L332.509 50.5414V50.7156L333.28 50.9396L333.703 51.711L334.425 52.2334L335.918 52.5818V53.0048L336.191 53.4279L336.117 53.6021L337.037 54.5475L338.232 55.1448L338.431 55.095L338.779 55.5678L339.202 55.9162L339.7 56.0904L340.272 56.6128H340.695L341.691 56.9612L343.034 58.1306L343.806 58.6034L344.154 59.0761L344.229 59.4993L344.925 60.2706L346.692 60.4448L347.613 60.9673L347.687 60.7434L346.991 60.3203L345.075 59.8973L344.925 59.4744L344.577 59.2503L344.428 58.8274L344.079 58.4044L342.885 57.5085L341.616 56.14L341.691 55.7916L342.263 55.5678L342.686 55.6176L342.761 55.8414L342.984 55.7916L343.059 55.9658L342.91 56.0904L343.109 56.2644L343.258 56.14V55.8414L344.03 55.7916L344.104 55.493L342.761 55.3687L342.487 55.1448H342.138L342.064 54.9706L341.417 54.6222L340.571 54.672L339.799 54.0251L339.874 53.0795L340.944 53.2039L341.516 52.9053V52.7809L340.869 52.8058L341.367 52.109L342.313 54.1245L347.911 54.0001L352.49 56.4884L358.362 61.5644L363.811 67.7602L364.234 70.9452L358.063 75.1255L357.864 76.071L360.527 80.8485L366.2 85.2029L366.001 85.9246L369.957 95.9026L370.903 100.357L370.455 102.596L374.66 106.751L376.527 110.558L381.404 110.384L387.351 114.266L388.719 118.596L388.371 124.692L384.514 125.214L380.259 128.623L371.301 119.939L368.042 119.466L361.771 121.407L357.392 117.202L353.41 117.028L345.124 123.174L344.328 122.85L341.243 125.563L340.322 129.544L335.868 131.833L337.46 137.556L333.355 142.234L332.783 144.747L334.699 150.122L335.868 151.689L338.132 152.635L343.034 153.257L343.98 155.621L345.149 156.566L352.515 158.258L353.659 160.871L358.113 163.509L358.263 164.778L356.645 166.992L351.27 168.062L348.508 174.233L349.354 178.612L348.956 180.304L344.527 183.44L343.457 189.387L342.387 191.253L336.838 195.209L336.739 198.593L338.929 202.898L337.485 206.381L338.655 207.028L341.666 206.381L344.005 202.773L351.295 197.822L355.127 201.728L355.948 203.644L353.784 208.397L350.176 209.566L348.931 213.05L338.829 213.573L333.629 216.932L327.682 219.246L325.367 222.605V226.71L326.014 229.025L327.682 231.115L331.464 232.508L334.798 236.614L339.451 239.799L344.054 244.726L349.902 245.696L355.824 244.427L358.138 245.497L358.636 247.388L358.188 248.956L353.684 251.966L352.539 256.769L353.908 259.133L357.914 260.227L358.735 261.272L358.561 262.143L351.022 263.363L349.006 266.125L345.672 268.439L344.826 271.773L338.207 281.925L338.356 283.418L339.376 284.389L342.984 283.642L343.408 284.214L343.059 285.657L336.142 290.037L336.465 291.53L339.949 293.023L339.401 293.595L337.933 295.984L336.465 301.707L338.356 301.956L342.213 306.658L342.611 308.898L341.666 311.71L346.169 319.747L349.031 323.877L353.435 328.008L354.132 331.666L356.869 332.934L357.69 334.95L359.88 335.572L366.051 331.516L369.758 330.994L375.556 336.617L380.931 339.877L382.374 342.29L382.449 343.883L386.206 349.432H391.232L393.198 352.218L395.413 352.691L396.234 354.483L397.627 352.965L397.478 355.03L393.895 359.683L394.193 361.102L392.999 364.635L394.94 368.343L395.039 369.885L392.8 372.572L392.626 374.215L394.243 377.176L393.845 380.311L396.109 383.62L392.352 386.308L392.999 387.502L394.691 387.776L394.019 390.861L395.438 395.788L395.189 396.858L394.467 397.032L394.268 397.381H393.77L393.198 397.605L392.352 398.227L392.277 398.5L391.556 398.948L390.984 399.968H390.834V400.939L390.411 401.038L390.187 401.312H389.914L389.839 401.884L389.615 401.934V402.108L389.192 402.457L386.355 402.506L384.091 403.029L383.892 403.253L382.747 403.601L382.1 404.124L381.329 404.298L380.981 404.696L379.139 405.542L375.457 408.155L374.685 408.329L373.914 408.951L373.416 409.001L372.222 409.921L371.027 410.096L370.381 410.369L369.186 410.419L368.191 411.041L367.345 411.215L366.648 411.788L365.877 411.663L365.18 411.887L365.031 411.987V412.434H364.384V412.31L363.662 411.912L362.518 411.788L362.443 411.613L360.104 411.788L357.989 411.738L357.068 411.215L356.148 411.265L355.799 410.643H355.6L355.326 410.295V410.071L355.127 409.847L353.983 409.896L353.908 410.12L353.634 410.17L353.56 410.618L353.211 411.066L353.286 411.514L352.863 411.962V412.136L351.669 413.156L350.176 413.903L349.977 414.251L348.708 415.097L347.787 415.047L347.364 416.018L345.746 416.689L345.025 417.361L344.751 417.411L344.104 417.983L343.408 418.257V418.381H343.134L343.059 418.655H342.785L342.014 419.277H341.516L341.292 419.551L340.645 419.775L340.496 419.999L340.073 420.049L338.879 420.621L337.386 420.895L336.963 422.313L336.739 422.437V423.059L336.092 423.582L336.017 424.104L335.594 424.552L335.445 424.652L335.097 424.602L335.171 424.951L335.395 425L335.594 425.349V425.573L334.4 427.115L333.405 427.961L332.832 428.857L332.484 428.907L332.335 428.558L332.061 428.608L331.912 428.434L331.762 427.762L331.961 427.712V427.364L332.185 427.19V426.916L331.961 426.866L331.887 426.468L331.688 426.518L331.538 426.792L331.464 427.364L330.817 427.414H330.543L330.045 427.14L330.269 426.518L329.996 426.468L329.846 426.593L329.772 427.613L329.971 428.011L329.821 428.459L329.896 429.205L330.045 429.38H330.394V429.827L330.543 429.927L331.265 429.877V430.051L331.538 430.151L331.762 430.823L331.19 433.311L330.966 433.535L330.891 436.77L331.09 437.566V438.138L330.941 438.263H330.518L329.871 438.76L328.951 438.935L328.727 439.109V439.333L328.453 439.432L326.462 439.382L325.965 439.158L325.741 439.208L324.82 438.76L323.974 438.711L323.626 438.835L323.476 439.059L322.904 439.333L322.829 439.606L322.182 439.955L320.689 440.179L320.042 440.701L319.47 440.527V440.925L318.823 440.975L318.898 441.995H318.475L317.977 441.373L317.131 441.423L316.982 441.697L317.131 442.095L317.057 442.319L316.285 441.522L316.36 441.348L316.708 441.249L316.857 440.975L316.783 440.751L316.061 440.875L315.987 441.497L315.788 441.547V442.219H315.514L314.942 441.547L314.095 441.025L313.025 440.85L311.831 441.97L311.184 442.02L310.189 442.816L309.766 442.866L309.194 443.214H308.621L308.472 443.04L307.128 442.642L302.749 442.866L302.027 443.04L301.679 442.99L301.331 443.214H301.057L300.982 442.766L300.758 442.717L300.485 442.219L299.987 441.945L298.793 441.721L298.146 442.07L297.225 441.721L295.583 441.896L294.09 441.547L292.522 440.751L291.95 440.801L291.676 441.025L290.108 440.303L288.765 440.179L288.416 440.353L287.844 439.83L286.152 439.382L285.231 439.432L284.734 439.606L284.535 439.83L283.962 439.955L282.967 439.731L282.395 439.333L281.2 439.109L280.852 438.487L280.703 437.641L280.553 437.591L280.205 436.795L278.861 435.426L278.438 433.958L278.09 433.435L277.667 433.261V432.689L277.244 432.017L276.746 431.619L276.473 430.997L275.278 430.873V430.599L275.477 430.549L275.278 429.977L273.512 428.558L271.869 427.812L271.372 427.289L271.297 427.016L270.874 426.742V426.468L270.725 426.369V424.602L269.804 423.532L267.963 423.134L266.818 423.308L266.544 423.482L266.047 424.453L265.773 424.503L265.574 423.881L265.35 423.706H265.076L265.002 424.229H264.653L264.504 424.104V423.482L264.28 423.358L263.434 423.408L263.285 423.582L263.359 424.378L263.011 424.428L262.737 424.08L261.966 423.955L261.543 423.383H260.971L260.697 423.109L260.622 422.537L260.423 422.412L260.349 421.965L260.075 421.616L260.224 421.168L259.801 420.895L259.527 420.223L258.88 419.825L258.955 419.302L257.81 418.78L257.611 418.605L257.462 418.157H256.964L257.387 417.361L256.541 415.993L256.392 415.371L256.541 414.848L255.621 412.683L255.397 411.887V410.817L255.198 410.693V410.344L254.974 410.22L254.401 409.374L253.904 408.354V408.08L253.481 407.508L253.282 406.712L253.132 406.662L252.784 405.741L252.56 405.617L252.411 405.169L252.062 404.771V404.547L251.49 404.422L250.843 404.945L250.196 404.895L249.773 404.671L249.276 404.621L248.206 403.701L248.28 403.526H248.479L249.325 404.323L250.395 404.721L250.893 404.671L250.818 404.149L250.047 403.925V403.651H250.619L250.694 403.477L249.972 402.457L248.977 402.332L248.554 402.73L248.28 402.681V402.506L248.853 402.108L249.699 401.984L249.624 401.76L249.898 401.66L249.699 401.212L249.201 400.989V400.814L248.28 399.57L247.285 398.724L246.514 398.276L246.24 397.754L245.518 397.306L244.672 396.062L244.598 395.539L244.797 395.017H244.946V394.444L245.145 394.171L246.215 393.723L246.563 392.877L246.489 392.603L246.29 392.653L245.941 393.623L245.444 393.897L244.946 393.947L244.871 394.22L244.374 394.345L244.299 394.569L244.1 394.619L242.184 394.842L240.915 394.793L240.766 394.967H239.994L238.651 394.619L237.655 395.763L236.312 396.161L235.665 396.559L234.595 396.51L234.52 396.161L234.321 396.111L234.396 395.763L233.973 395.589L230.862 395.763L230.141 396.037L229.444 395.987L227.379 397.231L226.458 398.152L225.313 399.968L225.388 400.192L225.239 400.317L225.164 400.839V403.004L225.811 403.925L227.304 404.373L228.15 404.771L228.225 404.945L228.921 405.169V405.442L228.498 405.219L227.777 405.169L227.628 405.691L227.404 405.816L227.13 405.592H226.781L226.284 405.99L226.01 406.04L225.313 405.766L224.542 405.716V405.542L224.268 405.492L224.119 405.268L223.472 405.094L223.248 405.268V405.841L222.676 405.791L221.904 405.965L221.705 405.741L221.78 405.517L221.058 405.119L221.133 404.895L220.984 404.721L220.635 404.621L220.362 405.069L219.665 405.194L219.317 405.642L218.894 405.467L218.321 405.865L218.097 405.691L217.674 405.865V406.712L217.525 406.936L217.251 407.159L216.604 407.234L215.609 406.313L215.335 406.438L215.136 406.313L214.788 406.438L214.066 406.388L213.718 405.816H213.22L212.947 405.642H211.951L211.454 404.845L210.956 404.796L210.881 404.572L211.08 404.447L210.931 404.273V403.875L210.583 403.75L210.434 404.373L209.513 404.995L209.239 404.945V404.721L208.592 404.771L208.443 404.671L207.945 404.845L207.522 404.721L206.527 404.895L206.452 405.169L205.756 405.617L205.407 405.965L205.482 406.065L205.332 406.289L205.059 406.413V406.687L204.86 406.786L204.785 407.234L204.636 407.284V407.682L204.91 407.732L205.258 408.18L206.178 408.802L206.378 409.075V409.598L206.527 409.648L206.452 409.921L206.178 410.046L205.955 410.394L205.183 410.494L204.611 410.046H203.914L203.566 409.697L202.073 409.473L201.849 409.125L201.501 409.175L201.351 409.349L200.779 409.399L200.854 409.274L200.704 409.175L200.132 409.225L199.784 409.05L198.714 409.573L198.788 410.718L198.938 411.066L199.211 411.19L198.938 411.365L198.863 411.638L198.515 411.589L198.241 411.365L197.594 411.315L197.445 411.041H197.246L196.748 410.693L196.101 410.568L195.902 410.742L195.554 410.518L194.782 410.344L193.787 409.498L193.438 409.449L192.792 408.926L192.592 408.976L192.443 408.752H192.169L191.896 408.478V408.13L191.622 408.229L191.05 407.732L190.353 407.558L190.278 407.334L189.93 407.234L189.781 407.01H189.432L189.283 406.487L188.935 406.388L188.711 406.487L188.561 406.313L188.213 406.363L187.79 406.139L187.516 406.413L187.591 406.811L187.317 406.861L186.894 406.413L185.974 406.363L185.775 406.139V405.865L187.118 404.796L187.89 404.746V404.572L188.163 404.397L188.313 403.95L188.238 401.834L187.591 399.57L187.442 399.52L187.168 398.724L186.82 398.202L186.894 398.027L186.546 397.754L186.198 396.734L185.974 396.609L185.476 396.883H185.128L184.854 396.783L184.779 396.485L184.978 396.385L185.625 396.485L186.397 395.738L186.82 395.788L187.093 395.34H187.865L188.014 395.564L188.362 395.514L188.636 395.689L189.482 395.564L189.681 395.39L189.955 394.768L189.806 394.37L190.154 394.195L190.303 393.748L190.801 393.076L190.876 393.175H191.448L192.294 392.553L192.369 392.329L192.792 391.981L192.717 391.757L193.14 391.011L193.414 389.99L193.339 389.418L193.613 389.119V388.771L194.11 388.896L194.608 389.692L195.031 389.518L195.305 389.816L194.956 390.09L195.155 390.612L194.956 390.787V391.185L195.23 391.409V391.757L194.882 391.981H195.23L195.578 391.707L196.151 392.678H196.3V392.454L195.952 391.881V391.608L196.101 391.558L196.3 391.832H196.574L196.648 391.558L196.872 391.508L197.295 392.031L198.639 392.479L198.788 392.827L199.435 393.101L200.157 392.976L200.729 393.101L201.376 392.877L201.874 393.101L202.222 392.479L203.292 392.081L203.367 391.906L203.64 392.031L203.715 392.553L203.989 392.727L203.839 392.503L203.914 391.931L204.337 391.707L204.835 391.658L205.034 391.434H205.382L205.656 391.16L206.004 391.384V390.762L206.776 390.886L206.975 390.612V390.164L207.398 389.816L209.886 389.542L210.309 388.697L211.08 388.348L211.23 387.95L211.578 387.726L212.573 387.602L212.996 387.154L213.494 387.029L214.639 386.407L214.838 386.532L214.912 386.98L215.261 386.93V386.631L214.987 386.457L214.912 386.183L214.564 386.009L215.41 385.089L215.982 384.79L216.057 384.516L216.331 384.392V383.994L216.181 383.645L215.908 383.471L215.982 383.372L215.261 382.675L215.111 381.928L215.186 381.356L215.534 381.132L216.181 381.257L216.455 380.51L216.804 380.112L216.953 379.54L217.6 379.241L217.45 378.893L217.6 378.32L218.371 378.196L218.57 377.624L218.222 377.45L218.072 377.798L217.301 378.022L216.878 378.544L216.604 378.669L216.754 378.943L217.027 378.992L216.455 379.565L216.306 380.236L215.883 380.411H215.385L215.037 380.236L214.688 380.286L214.539 380.46V381.257L214.813 382.053L214.664 383.297L214.863 383.645V384.043L214.589 384.566L215.012 384.69L215.087 385.039L214.813 385.163L214.315 385.785L212.972 385.686L212.474 386.034L211.13 386.208L211.205 386.606L209.787 386.507L209.563 386.681L208.99 386.731L208.269 386.681L208.07 386.507L207.92 386.731L207.348 386.78L207.273 386.905L206.776 386.78L206.427 387.353H205.78L204.088 385.81L204.238 385.586L203.74 384.889L203.466 384.765L203.392 385.064L203.118 385.014L202.919 383.869L202.571 383.645L202.147 382.451L201.874 382.152L201.376 381.804L198.54 381.132L197.345 381.082L196.922 381.356L196.424 381.406L196.201 381.58L196.35 382.277L195.578 382.327L195.379 382.501L193.264 382.55L193.19 382.725L192.468 382.55L191.547 382.774L191.274 382.6L190.079 382.426V382.6L190.652 382.65L191.149 382.874L191.299 383.546L190.652 383.944L190.303 383.994L189.582 384.566H187.666L186.67 384.118H186.397L185.899 383.72L185.327 383.496L183.56 382.078L182.142 380.709L182.067 380.485L181.569 380.211L180.723 379.017L179.23 377.375V377.151L178.957 377.027V376.753L178.683 376.529V376.255L178.111 375.733L177.762 374.588L177.538 374.464V374.19L177.265 373.742V373.344L177.041 373.12L176.966 372.274L176.767 372.1L176.916 371.304L177.762 372L178.459 372.274L179.031 372.15L179.454 371.801L180.027 371.751L180.176 371.577L180.873 371.702L181.146 371.577L181.345 371.702L181.495 372.1L181.694 372.05L181.768 371.652H182.042L182.39 372.1L182.465 372.498L182.814 372.722H183.162L183.51 373.07L184.282 373.244L184.63 372.971L183.286 372.398L182.938 372L183.087 371.378L183.734 371.328V371.104L182.54 370.657H181.768L181.619 370.831H181.42L180.922 370.532H179.778L179.504 370.358L178.658 370.408L178.235 370.059L178.16 369.661L177.24 369.437L177.439 369.089L177.165 368.99V368.641L176.817 368.467L177.24 367.77L176.966 366.849L177.115 366.725V366.277L177.339 366.103L177.538 365.531V364.685L177.762 364.411V363.888L178.608 362.968L178.758 362.57L178.832 361.599L178.26 361.151L178.111 360.305L178.459 360.131L179.031 360.305L179.181 359.857L180.45 359.012L180.674 358.489L181.321 358.091L182.515 358.215L183.784 357.369L183.983 356.225L183.908 355.528L184.182 355.08V354.682L184.381 354.458L184.232 354.234L184.008 354.458V354.806L183.66 355.204L183.46 357.32L183.261 357.369L183.037 357.718L182.39 357.892L181.619 357.718L181.196 357.767L179.355 358.912L178.509 359.136L177.812 359.708L177.737 360.231L177.464 360.455L177.389 361.375L177.19 361.599V362.346L176.692 362.694L176.618 362.918H176.344L175.921 363.938L175.573 364.162L175.647 364.784L175 365.182H174.428L174.005 366.153L173.582 366.501H172.935L172.661 366.277L172.014 366.103L171.243 365.357L170.969 365.406L170.397 365.108L169.551 365.232L169.053 364.61L167.859 364.038L167.71 363.59L167.934 363.192L168.083 363.018L168.78 362.794L169.003 362.346L169.203 362.296V361.773L169.053 361.599H168.63V361.151L168.431 360.803L168.207 360.853L167.934 360.629L167.436 360.579L167.013 360.057L166.938 359.708L166.092 359.659L165.744 359.833L165.818 360.007L166.739 359.882L166.889 360.405L167.66 361.027L168.008 361.599L167.934 362.047L167.585 362.321L167.361 363.018L166.59 363.64L166.515 364.436L166.938 364.784V365.008L167.784 365.406L168.78 366.203L169.203 367.173L169.85 367.521L170.273 367.571L170.845 368.268V368.79L170.621 368.84L170.77 369.064L170.496 369.288L170.422 369.562L169.775 370.01L169.128 370.234L169.053 370.408L167.859 370.856L167.635 370.806L167.361 371.08L164.873 370.955L164.027 371.129L161.613 370.731H160.842L158.578 370.109L156.96 369.935L155.691 369.587H154.497L154.148 369.412L154.074 369.537L153.8 369.487L153.452 369.761L153.377 369.985L152.805 370.507H152.456L152.307 370.283H152.033L151.76 370.806L151.337 371.204L150.341 370.93L149.769 370.582L148.425 370.532L148.077 370.358H146.883L145.315 371.055L145.091 371.279L144.593 371.179L144.444 371.005L143.523 371.055L143.175 371.279L142.528 371.179L140.687 371.702L139.99 372.15L139.492 372.274L137.502 373.866V374.215L137.303 374.265L137.228 374.663L136.581 374.837L136.506 375.359L136.233 375.758L136.307 376.38L136.506 376.653L136.432 377.002L136.93 377.3V377.574L137.079 377.624L137.153 377.972H137.303L137.377 378.495L138.572 378.544L138.796 378.818L138.149 378.694L137.875 378.868L137.8 379.44L137.452 379.664L137.253 380.286H137.104L136.905 380.635H136.681L136.332 381.257V381.779L136.183 381.829L136.108 382.277L135.76 382.675V383.471L136.681 383.695V383.869L136.407 383.994L135.909 384.566L135.337 384.74L134.989 385.089L133.919 386.905L133.769 387.303L134.541 387.751L134.466 388.025L133.545 387.975L133.122 388.149L131.704 387.925L131.132 388.05V387.875L130.858 387.701H130.286L130.062 387.925H129.788L129.514 387.701L129.166 387.826L128.519 387.776L128.171 388L128.096 388.92L128.743 389.269V389.667L128.544 389.791L127.897 389.742L127.822 389.866L127.126 389.692L126.852 390.04H126.155L126.081 390.264L126.28 390.389V390.662L125.857 390.886L125.707 391.06V391.458L125.434 391.633L124.936 391.583L124.662 391.309V391.085L124.389 390.911L124.115 391.085H123.617L123.468 390.911L122.398 390.861L122.124 390.637V390.364L122.547 390.189L122.473 389.916H121.826L121.179 389.642V389.916L120.98 390.04L120.631 390.14L119.785 390.09L119.636 389.866L119.835 389.294L119.76 389.194L118.69 389.144L118.616 389.592L118.118 389.717H117.347L116.924 389.269L115.082 389.219L114.659 389.617L114.51 390.189L115.356 390.637L115.431 390.811L115.281 390.986L114.933 391.11L114.361 390.986L114.211 391.16L113.44 391.21L113.017 391.608L112.793 392.28H112.296L111.947 392.628L111.599 392.578L110.952 393.026V393.25L110.753 393.3L110.479 393.748L110.703 394.046V394.444L110.355 394.718L109.782 394.892L109.932 395.29L110.131 395.241L110.479 395.415L110.33 395.813L110.603 396.111L110.877 396.161L110.952 396.734L110.678 396.783L109.907 396.336H109.633L109.21 396.51V396.684L108.862 396.734L108.712 396.609V397.132L108.439 397.306L108.09 397.132L107.941 396.783H107.593L107.518 397.231L107.866 397.505L107.642 397.629L107.717 398.251L107.219 398.65V398.998L107.493 399.172V399.52L107.07 399.695L106.498 399.122L105.726 399.247L105.527 399.471L104.955 399.247L104.681 399.471H104.333L104.059 399.023H103.91V398.849L103.711 398.799V398.625H103.213L103.139 398.052L100.8 397.53V396.858L99.6052 396.982L99.5306 396.634L99.0329 396.41L98.809 396.758L98.386 396.584L97.8137 396.808H97.316L96.893 397.107L96.1714 397.057L95.4747 396.534L95.1263 395.912L94.554 395.962L93.7827 395.689L93.4343 395.166L92.6629 395.34L92.5136 394.942L92.3146 394.818L91.7422 394.942L91.5183 394.768H90.3239L90.1 394.643L89.6024 393.972V392.827L90.1 392.155L91.0206 391.807V391.533L90.8216 391.234L91.1699 391.135V390.115L90.4484 389.368L90.2493 388.348L89.8263 387.9L89.7516 387.627L89.9507 387.577L90.0253 387.228L89.6024 386.606L89.5276 386.258L89.03 385.735L86.915 385.561L86.268 385.163L85.7704 385.213L85.5713 384.815L84.8497 385.089L84.2774 384.864L84.2027 384.641L83.929 384.74L83.73 384.242L83.0083 383.795L82.5107 384.019V384.242L81.9384 384.292L81.8637 384.068L82.2868 384.019V383.795L82.5605 383.62V383.396L82.3614 383.272V382.924L82.1375 382.526L81.6398 382.177V381.953L82.1375 381.555L83.1328 381.381L83.3567 381.107L83.929 381.281V380.933L83.3567 380.883L83.506 380.535L83.1576 380.361V380.012L83.6553 379.788L84.4267 379.838L85.5713 380.187H86.8403L87.6117 380.361L88.1094 380.759V380.983L87.338 381.655L87.5619 381.879L87.6366 382.327L88.1342 382.675L88.7065 382.725L88.7812 382.899H89.3535L89.6272 382.625L90.3985 382.451L90.4732 382.575L90.1995 382.7L90.2742 382.974H91.4686L92.0408 382.451L92.1155 381.829L91.9662 381.555L91.2695 381.107H90.9211L90.3488 380.833L91.0455 380.261L90.9709 379.813L91.1202 379.764V379.415L90.9709 378.893L92.1155 378.843L92.3146 378.619L93.0859 378.669L93.1606 378.544H93.5089L93.4343 378.843L91.3192 379.017L91.2446 379.415L94.0066 379.366L93.7827 378.569H94.131L94.2056 378.743L94.554 378.619L94.977 378.793L94.9023 378.967L94.131 378.918V379.092L94.2056 379.44L95.201 380.062L96.047 380.112L96.893 380.46L98.2366 380.336L98.9334 380.635L99.3564 380.46H100.003L100.202 380.635L100.277 381.082L99.7794 381.207L99.6301 381.431L99.9038 382.227H100.103L100.377 382.75L100.576 382.799L100.501 383.372L100.775 383.596L101.77 383.322L102.044 383.048L102.616 383.272H102.89L103.039 383.098L103.611 383.222L103.761 382.949L104.457 382.998L104.731 383.172L105.005 382.998L105.353 383.123L105.428 382.675L106.125 382.401L105.851 382.277L105.353 382.55L104.855 382.451L103.86 382.501L102.666 381.879H101.894L101.471 381.48L100.775 381.356L100.501 381.082V380.809L101.496 380.635L101.72 380.236L102.566 379.714L102.641 378.793L102.865 378.445L103.139 378.495L103.213 378.843L103.636 378.569L103.91 378.694L103.761 378.868L103.96 379.092L104.806 379.142L104.532 378.569L104.607 378.395L105.254 378.445L105.826 378.096L106.05 377.425L106.821 377.599L107.17 378.047L107.817 378.221L107.667 378.843L107.891 379.067L107.966 379.465L109.658 379.515V379.291L108.24 379.117L107.966 378.843V378.569L109.036 377.773L109.459 377.201V376.803L109.608 376.678H110.678L111.101 376.852L111.45 376.728L111.872 376.28L112.022 375.21L112.296 374.862L114.485 374.911L114.983 375.31L115.132 375.708L115.555 375.982L115.63 376.156L115.481 376.33L115.754 376.504V376.728L115.953 376.778L116.152 377.3L116.575 377.524L116.924 378.047L117.197 378.096L116.55 377.176L116.625 376.827L116.202 376.653L116.053 376.205L115.854 376.156L115.928 375.633L115.008 374.314L115.58 373.966L116.774 373.792L117.123 373.568L117.62 373.618L117.82 373.493L118.168 373.841L118.74 373.568H118.541L118.193 373.269L117.123 373.145L116.774 373.195L115.779 373.767L115.431 373.667L114.236 373.717L113.888 374.289L113.117 374.638L112.395 374.464L112.246 374.339L112.395 374.115V373.593L112.196 372.971L112.345 371.776L112.694 371.552L113.415 371.727H113.689L113.764 371.552L113.266 371.428L112.918 371.08H112.42L111.773 370.507L110.703 370.159V369.811L110.778 369.412L110.977 369.238L111.051 368.442L111.25 368.268L111.176 367.745L110.952 367.646L111.026 366.8L111.45 366.402V365.954L111.872 365.78L111.524 365.382L111.872 364.361L112.221 364.013L113.49 363.615L113.988 363.217L114.485 362.644V362.072L114.709 361.848L114.784 361.226L115.132 360.927L116.277 360.305L117.77 360.131L118.342 359.857L118.84 359.907L118.765 359.733L116.426 359.857L116.078 360.131H115.729L115.232 360.529L115.157 360.828L114.883 360.878L114.535 361.226L114.386 361.973L113.739 362.719L113.316 363.067L112.395 363.117L112.32 363.515H111.823L110.827 364.436L110.404 364.137L110.205 363.739L109.558 363.341V363.067L109.285 362.769L109.359 362.42H109.21L109.061 362.644L109.285 362.993L109.135 363.441L107.991 363.092H107.269L106.697 363.266L106 363.888L105.776 364.336L105.129 364.635L104.905 364.237L104.632 364.063L104.706 362.819L104.781 362.52L105.055 362.346V362.122L105.751 361.674L105.826 361.276H105.627L105.353 361.674L104.582 362.196L104.507 362.719L104.358 362.843V363.64L104.507 363.814L104.358 364.162L104.781 364.386L105.055 364.958H105.403L105.901 364.51L106.249 364.461L107.518 363.714L107.792 363.764L108.364 363.59L108.563 363.938L108.837 363.988L108.911 364.162L109.484 364.386L110.056 364.834L110.33 365.406L110.255 365.63L109.757 365.854V366.028L109.907 366.153V366.775L110.18 367.173L110.106 367.87L110.305 368.044L110.379 368.666L110.031 368.94L109.757 368.89L109.608 369.238L109.807 369.412V369.86L110.23 370.831L111.3 371.279L111.872 371.727L111.947 372L111.673 372.747L111.872 373.319L111.101 374.737L111.176 375.708L110.902 376.156L110.628 376.205L110.404 375.982H109.26L108.488 376.604L108.414 376.827L107.642 377.35H107.369L106.597 376.554L106.1 376.38L105.453 376.429L104.955 376.653L104.806 376.877V377.325L104.383 377.499L103.387 377.226L103.238 377.051L102.591 377.002L102.243 377.275H101.521L101.098 377.723L99.7545 378.296V378.395L99.4808 378.519L98.8339 378.47L98.7592 378.594L98.5601 378.37L98.3362 378.42L98.2615 378.32H97.7639L97.5648 378.096H97.0672L96.9925 377.922L95.5742 377.4L94.9272 377.002L94.8526 376.778H94.6536L95.0019 376.205L95.0765 375.534L94.9272 375.484L94.778 376.23L94.5042 376.628L94.1559 376.454H93.6582L93.2352 376.106L92.8868 376.156L92.4639 375.882H92.0408L92.1901 376.106H92.5385L92.8868 376.38L92.2399 376.827L91.2446 376.653L91.0455 377.002H90.8962L90.2493 376.827L90.0502 376.305L89.7765 376.18L89.5774 376.355V376.753L89.8511 378.121L90.2742 377.897L90.5478 377.947L89.8263 378.519L89.4779 378.47L89.7018 378.121L89.4282 377.499L89.3535 376.803L87.6614 376.977L87.3877 378.47L87.7361 378.594L88.9305 378.47L88.8558 378.644L87.7112 378.768L86.8652 378.594L86.9399 378.42L87.1389 378.47L87.4126 376.977L86.7657 377.101L86.3426 376.927L86.1187 376.529L86.3426 375.857L85.2727 374.887L85.1234 373.966L84.6258 373.692L84.2774 373.742L84.0784 373.394L83.8792 373.443L83.9539 373.792L84.2276 374.016L83.8792 374.289L84.0285 374.986L83.8046 375.16L83.4563 374.986L83.2323 375.111L82.8093 375.558L82.9586 375.782L82.8093 376.18L82.3116 376.106L82.237 375.434L81.5154 374.812L81.3661 374.986H80.5947V375.16L80.321 375.285L80.3957 375.683L80.2464 375.807H79.8233L79.2511 375.583H78.828L78.4797 375.807H77.7581L77.2604 375.583L77.1858 375.135L76.9121 374.787L75.8421 374.663L75.4191 374.936L75.3444 375.21L75.6928 375.434V375.658L75.8919 375.882L76.1158 375.932L75.9665 376.33L76.0412 376.728L76.3895 376.852L76.8872 377.3L78.2309 377.425L78.4548 377.773L77.5341 378.072L77.4595 378.644L77.8825 378.943L77.9571 379.216L77.4595 379.664L76.9618 379.838L77.3102 380.112L77.4595 380.809L76.2651 381.033L75.7674 380.983L75.5684 381.257L75.7674 381.704V382.103L75.0707 382.376L74.8468 382.152L74.7721 381.704L74.0007 381.182L74.15 380.61L73.4285 380.336L73.5778 379.54L73.304 379.366L73.3787 378.694L73.105 378.519L73.0304 378.296L73.528 377.723V377.201L73.3289 377.076L73.528 376.454L71.4627 375.932V375.359L71.6618 375.185L71.5871 374.663L70.5172 373.692L70.0195 373.468L68.8251 373.419L68.626 373.643L68.5514 374.439L68.2777 374.488L68.1284 374.712L67.5561 374.663V374.389L68.2031 374.115L68.2777 373.593L67.4317 373.07L66.934 373.02V372.846L66.1627 372.324L66.088 372.15L66.2373 371.926L66.088 371.801L65.665 371.751L65.5157 371.527H65.0927L65.3167 370.781L65.0429 370.607V370.333L65.3167 370.283L65.3913 370.457L66.0383 370.408L66.6852 370.582L68.7505 370.532L69.1735 370.657L69.7458 371.104H70.0195L70.2186 371.279L70.6415 371.229L70.8655 370.706L71.2885 370.258V369.512L71.5125 369.164V368.069H71.836V367.795L71.5623 367.621L71.7613 366.874L72.259 367.049L72.4829 366.924L72.5576 366.626L72.9805 366.576L73.2543 366.849L73.9758 366.974L74.3242 366.128L74.8966 365.829V365.431L75.2449 365.157V364.934L75.8919 364.411L76.3895 364.237L76.6632 363.789L77.2356 363.391L77.5839 363.565H78.2806L78.4299 363.391L78.7783 363.341L79.8482 363.689L80.0722 363.291L80.4206 363.241L80.9182 363.515L81.1173 363.963L82.4609 364.137L82.8093 363.839L82.9586 363.49L83.8046 362.868V362.644L84.0037 362.52L83.929 362.122L84.352 361.948L84.5013 361.549V361.027L84.2276 360.803L84.3023 360.231L84.153 359.783L84.3023 359.733V359.385L84.153 358.937L83.929 358.812L84.153 356.996L84.352 356.822L84.2027 355.976L84.352 355.13L83.929 354.508V354.06L83.506 353.662V353.264L83.8543 352.816L83.6553 352.766L83.5807 352.99L83.3816 353.04L83.0332 352.691L82.8839 351.671L83.1576 351.397V350.427L82.9586 350.203V349.755L82.7596 349.481L82.3365 347.814L81.8388 347.068L81.5652 346.272L80.7192 345.575L80.4454 345.003L80.0971 344.704H79.8233L79.475 345.052L77.8576 345.102L77.6585 344.978L77.5839 345.55L77.4346 345.674L77.2853 345.625L77.36 345.102L76.5886 344.654L75.5186 344.878L75.1702 344.828L74.8219 345.226L74.5482 345.276L74.4735 345.052L74.8966 344.654L74.6228 343.957L73.5529 343.833L72.9059 344.007L72.8312 343.833L72.9805 343.659L72.7069 343.609L72.5576 343.957H72.2092L72.1345 344.082H71.836V343.734L70.6415 344.007L70.5669 343.833L70.7162 343.783V343.559L69.8702 342.813L68.0289 342.863L67.2575 343.311L66.3369 342.912L65.8392 343.534L65.9138 343.833L65.6401 343.783L65.5655 344.007L65.4162 343.957L65.4909 343.609L65.3416 343.559L65.2668 342.937L64.8439 343.161L64.6448 343.684H64.3711L64.2218 343.335L63.7241 343.112L62.8035 343.734H62.3805L61.8082 344.306L60.6636 344.604L60.4645 345.003L59.9669 345.177V345.525L60.1659 345.699L59.9669 345.923L59.7429 345.873V344.505L59.3199 344.729L58.8222 344.679L58.3992 345.301L57.7025 345.525H57.4288L56.8565 344.953V344.331L57.5532 343.883V343.584L57.7025 343.46H58.0508L58.2001 343.286L58.2748 342.539L58.4739 342.365L58.3246 341.743L57.9762 341.619L57.8269 341.27L57.4786 341.046L57.3293 340.3L58.0508 339.728H58.3246L58.4739 339.951L58.8222 340.001L59.1706 339.255L59.6682 338.906L59.9419 338.384L59.8673 337.762L59.3696 337.712L59.5189 337.314L58.7974 337.09L58.7227 336.567L57.578 336.791L57.6527 336.393L57.8518 336.343L58.4241 335.547L59.4941 335.149L59.5687 334.975L60.2156 334.751L60.4894 334.353L60.763 334.228L61.2607 334.353L61.1861 334.801H61.3354L61.9077 334.452L62.6044 334.676L63.1767 334.228L64.7941 333.88L65.0678 333.706L65.2171 333.183L65.5655 333.009L65.7148 332.661L66.4862 332.536L67.0584 332.089L67.2078 331.466L67.5561 331.342L67.7054 330.944H68.0538L68.2031 330.77H69.1237L70.0444 330.421L70.766 330.372L71.189 330.023V329.675L70.4674 329.327V329.152L72.2341 328.456V328.157L72.035 327.983H71.189L70.965 327.759L72.3087 327.709L72.3834 327.535L72.1096 327.311L72.8064 327.137L72.7317 326.963H72.458L72.5327 326.739L73.2294 326.614L73.304 326.739L74.2247 326.789L74.4984 326.614L75.4191 326.564L75.5684 326.789L75.9914 326.664L76.7628 327.112H77.5341L77.8078 326.938L77.6585 326.241L77.9323 326.067H78.5045V325.719L79.2013 325.544L79.052 325.32L79.3257 324.922L78.6787 324.698L78.6041 324.474L79.1764 324.3V324.176L79.674 324.126L79.7487 323.728H79.9726L80.1717 324.076L80.744 324.35L81.0177 324.126L81.2914 324.35L81.6398 324.176L81.8637 324.35L83.7797 324.25L84.2774 323.852V323.28L84.0784 323.23L84.153 322.882L85.0737 322.484L85.2229 322.832H85.9943L86.1436 323.006H86.3675L86.8652 322.608V322.036L87.0145 321.862L86.7408 321.737L86.8154 321.389L86.6164 321.215V320.866L86.4173 320.742V320.518L86.5666 320.394V319.846L86.9896 319.622L87.2634 319.1L86.8403 318.926L86.069 318.975L86.268 318.279L85.845 317.831L85.4966 317.706V317.532L86.915 316.611L88.184 315.467V315.293L87.9103 315.119L87.0643 315.243V315.069L87.2634 314.944L87.1887 314.546L87.4126 314.496L87.2634 314.322L87.4126 313.974L86.8403 313.924L86.4173 313.451H86.1436L85.9197 313.277L86.3426 312.755L86.268 312.406L86.7657 312.008L86.9896 311.56L88.3333 310.864L88.4826 310.64L88.4079 310.416L87.8356 310.59L87.4126 310.54L88.1094 309.918L88.607 309.968L89.254 309.794L89.4032 309.619H89.8263L90.1 310.067L90.2493 309.943L90.523 310.067L90.3737 310.465L90.8713 310.416L91.0206 310.54L91.5183 310.366L91.9413 310.665L92.7874 310.441L93.1357 310.789L93.708 310.739L94.2803 311.088L94.7033 311.038L94.977 311.958L95.1761 311.909V311.56L95.5244 311.212L96.246 311.511L96.5944 311.287H97.0174V310.988L97.2413 310.938V311.112L97.5151 311.287H97.739V311.063L98.2366 311.112L98.5104 311.56L98.585 310.938L99.1574 311.162L99.431 311.685L99.2817 311.809L99.2071 313.004H99.9785L100.053 313.178L101.248 313.476L101.471 313.65L101.198 313.7L99.9287 313.352L99.431 314.546L99.2071 314.496L98.5601 315.193L98.6348 315.89H98.9832L98.9085 316.114L99.2568 316.412H99.5306L100.028 316.014L100.302 316.238L100.576 316.064L100.725 316.238L100.65 316.636L100.924 316.811L101.123 317.209L101.397 317.084L101.123 316.86L101.272 316.512L101.198 315.94L101.969 315.89L102.317 316.238H102.74L102.666 315.89L102.94 315.716L104.283 315.542L104.433 315.193L104.855 314.969L105.005 314.571L105.652 314.87L105.726 314.297L106.448 314.347L106.722 313.725L106.995 313.899L107.269 313.725L107.543 314.248H107.692L107.543 313.327L107.394 313.203L107.891 313.028L108.389 312.63L108.538 312.232L108.961 312.058L108.887 311.834L108.464 311.784V311.386L107.966 311.088L107.891 310.739L108.09 310.515L108.165 310.117H108.439L108.364 309.943L108.638 309.819L108.787 309.196L109.061 309.072L109.285 309.196L109.932 309.147L110.205 309.321L110.355 309.669L111.076 309.893L111.275 310.291L111.126 311.436L111.325 311.262L111.673 311.311L112.022 312.008H112.868L113.938 311.784L114.435 312.083H114.784L114.933 311.635L115.854 311.461L116.053 311.685L116.327 311.56L116.675 311.685L117.173 311.511L117.098 311.809L117.596 311.983L117.745 311.859L118.093 311.983L118.74 311.933L119.586 312.282V311.983L118.889 311.759L118.466 311.361L118.317 310.565L118.118 310.043L117.894 309.918V309.346L116.899 308.773L117.048 308.649L116.899 308.027L117.123 307.803V307.579L117.471 307.28V307.106L117.745 306.982V306.633L118.093 306.459L118.242 305.937L118.666 305.588L119.088 305.539L119.437 305.19L120.208 304.966L120.358 304.743H121.005L121.577 304.518H121.801V304.643L122.572 304.518L122.721 304.693H122.92L124.563 303.896L124.986 302.752L125.757 302.578V302.18L126.031 301.956L125.956 301.732L126.529 301.682L126.728 301.11L127.076 300.811V300.512L127.424 300.388V300.264H127.698L128.27 298.771L128.843 298.149L129.042 297.701L128.967 297.178L129.962 296.606L130.037 296.158L130.186 296.108V295.536L129.838 295.138L129.415 295.088L129.34 294.864L129.689 294.516L130.037 294.466L131.032 293.894L131.381 292.849L131.306 292.451L131.729 291.978L132.923 292.774L133.073 293.222L133.919 293.396L134.118 293.57V293.918L134.267 294.093H134.69L134.839 294.267L135.262 294.142L135.412 294.317L135.262 294.441L135.337 294.615H136.108L136.755 295.063L136.905 295.635L137.552 296.108L137.751 296.332V296.631L138.024 296.855L138.099 297.302L137.95 297.427L137.875 297.949L138.024 298.124V298.572H138.174L138.447 298.223V297.079L138.87 296.631V295.835L138.646 295.212L137.999 294.814L137.651 294.765L137.303 295.063H137.104L137.452 294.317L137.527 293.695L137.253 293.122V292.55L136.606 291.928V291.704L136.88 291.48V291.007L137.104 290.559L137.029 290.161L137.178 290.112L137.253 289.664L137.601 289.614L137.751 289.788L138.746 289.912L139.244 289.614V289.39L139.468 289.216H140.164L140.936 288.693L142.852 288.867L143.051 288.569L142.702 288.22V287.922L142.852 287.872H145.962L147.306 287.573L147.654 287.225L148.152 287.573V287.499L150.341 287.723L150.764 287.25H151.038L151.312 286.678L152.382 286.279L153.377 286.404L153.949 286.703L154.024 287.051L153.875 287.275L154.024 287.499H154.746L155.019 287.797L155.243 288.37H155.393L155.542 288.021L156.811 288.37L158.926 288.146L159.349 287.748L160.618 287.225L161.389 286.479L161.663 286.429L161.812 285.633L162.235 285.16L162.584 284.289L163.081 283.841L163.43 283.791L163.853 283.318L164.35 283.194L164.624 282.97L165.122 281.875V281.477L164.898 281.353V281.129L165.172 281.004L165.321 280.382H165.669L165.595 281.179L165.744 281.353L166.167 281.527H166.739L167.237 281.228H167.511L167.784 280.83H168.058L168.481 280.208L169.675 279.735L170.82 278.516L171.392 277.645L171.467 277.297L173.035 276.152L173.184 275.804L174.105 275.008L175.1 273.614L175.871 273.142L175.946 272.569L176.717 271.599L177.712 271.25L178.359 270.778L178.857 271.002L178.932 271.35L179.205 271.524L179.429 272.495L179.703 272.719L180.201 272.768L181.047 272.594L182.117 271.624L182.341 271.673L182.415 272.146L182.565 272.196L183.336 272.072L185.451 270.678L185.725 270.156L186.446 269.758L186.521 269.534L186.869 269.359V269.185L187.292 269.061L188.014 268.488L188.089 268.14L188.736 267.966L189.656 266.995L190.726 266.373V266.075L191.149 265.627L191.224 265.279L191.722 264.88L192.642 264.408H193.712L194.359 264.234L194.583 264.01L195.006 264.059L195.355 263.835L195.429 263.487L196.201 262.865L196.698 262.691L198.54 261.372L199.311 260.153L199.236 259.456L199.46 259.406V259.232L199.958 258.759L200.232 258.71V258.535H200.455L200.53 258.237H200.679V258.063L200.953 257.839L201.028 257.316L200.878 256.968L201.376 256.445L201.102 256.097L201.177 255.873L201.401 255.749L201.476 255.45L201.824 255.276L202.894 255.325L203.093 254.977L203.317 254.927L204.088 253.086L204.014 252.862L204.163 252.389L204.86 252.265V252.091L205.283 251.867L205.631 250.722L206.278 250.324L207.049 249.105L207.249 248.707V248.085L207.472 248.035V247.736L207.622 247.612V247.139L207.895 246.617L208.542 245.97V245.671L208.891 245.198L209.164 243.805L209.438 243.407L209.637 242.66L209.861 240.869L210.01 240.819L210.657 239.55L210.732 238.555L211.006 238.082V237.734L211.727 236.738L211.802 236.39L212.076 236.166V235.693L212.424 235.121L212.499 234.598L212.773 234.374L212.847 233.976L213.071 233.802L213.718 233.678L213.867 233.504L213.444 232.807V232.284L213.171 231.762L213.594 231.289V230.941L213.37 230.816L213.519 230.418H213.668L213.519 230.244V229.771L213.942 229.721L214.166 229.373L214.017 229.199L213.867 228.029L214.141 227.681L214.29 226.86L214.713 226.462V226.163L214.514 226.113L214.44 225.889L214.514 225.591L214.29 225.292L214.44 225.068L214.589 223.725L214.937 222.903L214.863 222.431L215.211 222.132L215.36 221.137L216.007 219.395V218.922L216.853 217.579V217.056L218.272 216.235V214.618L218.122 214.095L218.197 212.577L217.923 210.363L217.724 209.716V208.895L217.376 207.277L217.525 206.108L217.749 205.759L218.446 205.635L218.52 206.456L219.167 206.68L219.317 206.904L219.59 206.73L219.74 206.954H219.939L220.088 206.73H220.362L220.71 206.381L221.282 206.506L221.556 206.73L222.054 206.68V206.904H222.402L223.547 206.207L223.771 205.859L224.418 205.461L224.691 205.336L225.264 205.461L225.338 205.112L225.761 204.764H226.11L226.309 204.465L226.732 204.416L226.806 204.242L226.383 204.018V203.495L226.607 203.196L227.453 203.072V202.898H227.03L227.379 202.5L227.652 202.45L227.578 202.052L228.001 202.002L227.926 202.4L228.075 202.624L228.498 202.798L228.573 202.574H228.722L228.797 202.923L229.021 202.972L229.295 202.624L229.519 201.977H229.718L230.141 201.231L230.713 200.708L231.484 200.534L231.982 200.235H232.405L232.604 200.41L232.878 201.106L233.301 201.455L234.022 201.231L234.371 200.758V200.111H234.172L234.097 200.858L233.823 201.081H233.475L233.052 200.609L232.853 199.912L232.629 199.788L232.131 199.738L231.435 200.036H231.012L229.942 199.738L229.718 199.862L229.519 200.26L228.797 200.783H228.523L228.299 200.609L227.105 200.833L225.836 201.48L225.562 201.355L225.139 201.654V201.828L224.219 201.952L223.796 202.35L221.681 202.649L220.984 202.997H220.411L219.64 203.221L219.366 203.445L218.172 203.495L218.097 203.619L216.107 203.321V203.147L215.46 202.5L215.311 201.504L215.111 201.38L214.614 199.812L214.265 199.414V198.892L213.842 198.419L213.643 197.672L213.37 197.548L213.22 197.15L213.071 197.1L212.996 196.627L212.499 195.931L212.349 195.284L212.076 195.06V194.662L211.877 194.488L211.727 193.915L211.379 193.517L211.304 192.945L210.956 192.721L210.732 192.149L210.384 191.626L210.11 191.452V191.153L208.766 189.884L208.692 189.411L208.493 189.113L208.692 187.719L208.891 187.371L208.965 186.799L209.164 186.575L209.09 186.351L209.289 186.052L209.363 185.306L209.712 184.908L209.637 184.559L209.986 183.987L209.911 183.116L210.11 182.892L210.259 182.196L210.906 181.325L211.18 180.329L211.951 179.11L212.026 178.886L211.877 178.538L212.449 178.14L212.524 177.741L212.748 177.567L212.673 177.094L214.241 176.448L214.664 176.099L214.863 175.577L215.435 175.104L215.783 174.581L216.356 174.407L216.928 173.71L217.699 173.188L217.774 171.322L217.55 170.625L217.625 169.928L217.351 169.182L217.426 168.784L218.072 168.311L218.147 167.963L218.421 167.788L218.57 167.44L218.844 167.39V167.689L218.57 167.813V168.162L218.296 168.386L218.446 169.207L219.018 169.257L220.013 168.908L220.237 168.684L220.735 168.51V168.162L221.009 168.037L221.083 167.639L221.233 167.515L221.805 167.639L222.153 167.341L222.427 166.818L222.701 166.768L222.974 166.37L223.174 166.32V166.669L223.447 166.793L223.87 166.619L224.02 166.221L225.214 165.823V165.599L225.488 165.3V164.902L225.712 164.554L226.06 164.379L226.334 163.21L226.533 162.911L228.299 162.687L228.872 162.041L229.22 161.916L229.991 160.697L230.638 160.573L230.788 160.349L231.211 160.224L231.285 160L231.708 160.05L231.907 160.274L232.405 160.324L233.127 160.722L233.4 160.324V160.025L234.321 159.503V159.378H234.122L233.4 159.677L233.201 159.901L233.127 160.373L231.932 159.677L231.285 159.552L230.365 160.149H229.942L229.519 160.448L228.747 160.622L228.474 160.921L228.324 161.394L227.478 161.792L226.781 162.488H226.433L226.359 162.314L226.01 162.364V162.488L225.363 162.439L225.139 162.613V162.961H224.567L224.144 163.135L223.995 163.534L222.8 163.658L222.601 163.882L221.83 163.932L221.257 164.454L220.984 165.574L220.262 166.395L219.69 166.271L219.267 166.569H218.62L218.545 166.793L218.346 166.843L218.072 166.37L217.724 166.32L217.575 166.096L217.077 165.922L216.928 165.449L216.356 164.802L216.206 164.056L216.007 163.583L215.783 163.534V163.135L215.286 162.663L215.211 162.24L214.863 161.667L214.664 160.722L214.091 159.677L213.668 159.079L213.32 158.856L212.673 157.81L212.399 157.636L212.2 156.94L211.628 156.542V156.367L210.434 155.024L210.085 154.277L209.314 153.232V153.008L209.04 152.834L208.542 151.963L207.821 151.316L207.472 150.545L206.975 150.022L206.701 149.375H206.552L206.129 148.256L205.905 148.032L205.83 147.335L205.407 146.937V146.414H205.681L205.756 146.066L206.104 145.767V145.593L206.801 145.17L206.95 144.822L207.671 144.473L207.871 144.125L208.443 143.901L208.717 143.478H208.866L208.791 144.001L208.517 144.05V144.225L208.02 144.573L208.169 144.697L208.368 144.473L208.642 144.523L208.443 145.12L209.015 144.896L209.289 144.424L209.787 144.299V143.428L210.01 143.304L210.508 143.354L210.359 143.055L209.787 143.229V143.354L209.289 143.304L209.09 143.428L208.741 143.254L208.816 142.856L208.667 142.732V142.433L208.816 141.662L209.09 141.363L209.363 140.592L209.861 140.069L209.936 139.124L209.587 137.83L209.239 137.307L208.741 135.964L208.318 135.441L207.895 134.495L207.547 134.197V133.898L206.825 132.729L206.552 131.385L206.353 131.087L206.427 130.216L206.651 129.817L207.298 129.395L207.572 129.519L208.219 129.22L208.717 129.345L209.488 128.922L209.911 129.046L210.483 128.996L211.056 128.399L214.041 128.175L214.539 128.225L214.688 128.449L215.037 128.499L215.111 128.076L215.311 127.852L216.505 126.906L216.654 126.309L216.231 126.185L216.58 125.588L217.077 125.289L217.575 125.239L217.65 124.468L217.998 123.871V123.572H218.197L218.421 123.224L218.919 123.174L219.491 122.875L219.565 122.402L219.839 122.179V121.532L220.262 121.109L221.681 120.885L221.755 120.71H222.104L222.303 120.536L222.452 120.362L222.377 120.238L222.029 120.288L221.382 120.71L220.959 120.586L220.312 120.636L219.665 121.407V121.83L219.391 122.477L218.819 122.9L218.396 122.776L217.898 123.423L217.674 123.199L217.102 123.149L215.261 123.796L214.415 124.493L213.992 124.617L213.842 125.04L213.643 125.09L213.718 125.264L213.22 125.737L212.449 125.961V126.309L212.101 126.657L211.528 126.608L211.329 126.259L210.757 126.085V125.861L211.255 125.388L211.404 124.741L211.329 124.343L212.175 123.696V123.472L211.603 123.348L211.752 122.825L211.479 122.776L210.906 123.373L210.334 123.547L210.259 122.9L210.06 122.776V122.552L209.214 122.502L209.015 122.552L208.866 122.85V123.323L209.09 123.373L209.164 123.199L209.363 123.323L209.015 123.92L208.592 124.045L208.443 124.916L208.02 125.264V125.861L207.597 125.911L207.373 126.259L206.95 126.284L206.875 126.583L205.731 126.633L205.457 126.458L205.233 126.856L205.457 127.031L205.88 127.08L205.805 127.304L203.043 127.13L202.197 126.707L202.123 126.533L201.7 126.409L201.202 125.986L200.555 125.762L200.48 125.538H200.207L199.933 125.836H199.361L198.938 125.413L197.594 124.891L197.445 124.667L196.449 124.717L196.375 124.592H196.026L195.877 124.642L195.952 124.766L195.529 125.463L194.608 125.413L193.414 125.712L192.493 125.762L192.344 125.811L192.269 126.284L191.547 126.334L191.473 126.508H190.975L190.776 126.16L190.278 126.11L190.204 126.234H189.134L188.785 126.359V126.533L188.288 126.409L187.865 126.533L186.446 126.483L186.173 126.657L185.526 126.608L185.028 126.906H184.68L184.481 127.205L184.058 127.255L183.784 127.678L183.933 128.623L183.361 129.32V129.494L183.709 129.668L183.56 129.892L183.635 130.315L183.485 130.44L182.764 130.39L182.49 130.216L180.076 129.693H178.658L178.086 129.395L177.887 129.569L176.319 129.444L174.901 129.793L174.328 130.141L173.831 130.788V130.738H173.632L173.905 131.559L173.756 131.783L173.059 131.485L172.985 130.838H173.333L173.482 130.489L173.408 130.365H172.985L171.79 131.186V131.36L172.213 131.485L172.288 131.833L172.562 132.007L173.408 131.883L173.905 132.057H174.179L174.453 131.833L174.527 131.36H174.727L174.527 132.231L174.304 132.356H172.612L171.417 132.754L170.496 132.878L169.153 133.401H168.73L168.157 133.923L166.963 134.396L166.764 134.62H166.49L165.794 135.217L165.943 136.163L165.022 136.561L164.326 137.382L164.102 138.079L165.246 138.775V139.547L164.674 140.019H163.903L163.629 140.368L162.136 141.313L161.713 142.184L161.215 142.781L161.29 143.18L161.016 143.478V143.777L161.663 143.951L161.812 144.125V144.473L161.24 144.946L161.091 145.593L161.165 146.588L161.514 146.812L161.787 147.335L162.509 147.459L162.708 147.235H162.982L163.181 147.708L163.405 147.833L163.33 148.231L163.604 148.828L163.181 149.525L163.106 150.694L162.758 150.818V151.117L162.559 151.465H162.285L162.136 151.167L161.787 150.943L161.638 150.595H161.141L159.498 151.067L159.225 151.416L159.15 152.112L158.876 152.809L158.727 152.859V153.033L159.001 153.157L159.075 153.381L158.503 153.506L158.229 153.979L157.732 154.327L157.383 154.277L157.109 153.68L156.537 153.332L156.463 152.983L155.89 152.859L155.741 152.511L155.965 152.287L156.04 151.764L155.89 151.416L155.965 151.117L155.816 150.943L155.89 150.644L156.164 150.694V150.395H156.313L156.463 150.172L156.388 149.997L156.587 149.873V149.4L156.313 148.927L156.04 148.703L155.816 148.753L155.542 148.33L155.119 148.106L154.845 147.634L153.352 146.638L153.203 146.414H152.855L151.859 145.543H151.585L150.317 144.847L148.326 144.324H147.679L147.032 144.747L146.808 144.971L146.659 145.494L146.31 145.842V146.14L146.037 146.439L146.111 146.564L145.838 146.862L145.614 147.509L144.618 148.256L144.469 148.604L143.822 148.728L143.324 149.475L142.901 149.699L142.18 149.823L141.981 148.778L141.209 148.654L140.936 148.355H140.662L139.592 148.952L139.667 149.301L138.746 149.35L138.671 149.574L138.174 149.873L138.024 150.221L137.601 150.395L137.527 150.794L137.253 150.843L136.755 150.619L136.681 150.221L136.905 149.997L136.755 149.699L136.332 149.4L135.188 148.927L134.342 148.753L133.57 148.803L133.073 149.151V149.972L132.724 150.321L132.799 151.092L132.301 152.212L131.953 152.511V153.381L131.804 153.506L131.58 153.556V153.431L131.007 153.083L130.933 152.784L130.659 153.008L130.161 153.058L129.813 152.71L129.888 152.486L129.39 152.262L129.042 151.839L128.544 152.063L128.395 151.714L127.822 151.366L127.673 150.893L127.175 150.843L127.25 150.495L127.051 149.972L127.2 149.748H127.773L127.922 149.102L128.121 148.878L128.469 149.002L128.743 148.529L129.166 148.405L129.241 147.932L128.892 147.634H129.091L129.315 147.335V146.116L129.888 145.718L130.659 144.847L130.584 144.722L130.933 144.2V143.901L130.659 143.777V143.603L131.306 143.478V143.304L131.032 143.08L132.177 142.383L132.252 142.035H132.525L132.675 142.209L132.948 142.085L133.023 141.487L132.824 141.189L132.899 140.542L132.625 140.368L132.401 139.771L132.675 138.9V138.477L132.525 138.427L132.451 138.128L132.675 138.079L133.023 137.606H133.247L133.321 137.78H134.093L134.167 137.656L133.944 137.606L134.367 137.481L134.715 137.183L134.64 137.058L135.063 136.76H135.262L135.412 136.984H136.258L136.83 136.038L136.755 134.819L136.905 134.645V134.048L137.104 133.749L137.601 133.326L138.323 133.625L139.169 133.45L139.94 132.679V132.331L140.289 131.858V131.211L139.94 130.863L140.09 130.514L140.662 130.041L140.811 129.569L141.085 129.519L141.284 128.648L141.707 128.524L141.856 127.927L142.055 127.578L142.254 127.528L142.105 127.354L142.18 127.006H142.528L142.951 127.304L143.374 127.354L143.648 127.304L143.797 127.006L144.146 127.23L144.419 127.105L144.643 126.508L145.066 126.284L145.713 125.164V124.642L146.061 124.169V123.696L146.41 123.572L146.634 123.224H147.206L147.281 123L147.704 122.701L147.978 122.875H148.4V122.751L148.898 122.875V122.651L149.321 122.602L149.396 122.253L150.59 121.258V121.034L150.814 120.91L151.013 120.387L151.287 120.263V120.138L152.357 120.014L152.282 118.969L152.481 118.794L152.556 118.148L152.979 118.098L153.128 118.222V118.446L152.855 118.396L153.078 118.745L153.004 118.969L152.78 119.093V119.392L153.004 119.516L152.929 119.864L153.153 120.163L153.85 120.387L155.194 120.437L155.268 120.263L156.189 120.213L156.463 119.616L156.811 119.665L156.662 119.715L156.811 120.486L157.657 120.362L158.802 119.84L159.374 119.417L159.797 118.77L160.22 118.546V118.372H160.369L160.643 117.725L160.568 117.501L160.842 117.625L161.414 117.501L161.763 117.028L162.335 116.605L163.032 115.435L162.957 115.087L163.305 114.788L163.455 114.365H163.878L163.952 114.141L164.674 114.316L165.022 114.017L165.172 113.619L165.371 113.494V113.072L165.719 112.723L165.868 112.126L166.092 111.952L166.366 110.782L166.59 110.558L166.864 110.683L167.212 110.036L168.481 109.09L168.556 108.667L168.755 108.443L168.904 107.846L169.103 107.722L169.178 107.373L171.094 107.249L171.318 107.299V107.473H171.517L171.79 107.299L172.139 107.771L172.636 107.722L173.059 107.299V107.075L173.408 106.776L173.681 106.129L174.826 105.01L175.249 104.139L175.971 103.84L176.244 103.318L177.513 102.496L177.787 101.501L178.484 101.277L178.832 100.755V100.456H179.554L180.251 99.2866L180.475 98.2166L180.4 97.5697L180.674 97.5199L180.748 97.296L181.246 97.2462L181.594 96.1264L181.943 91.0006L182.142 90.5777L182.067 89.4081L180.798 85.178L180.599 82.9387L181.943 81.1223L182.938 80.9481L183.087 81.0725V81.7194L184.356 81.4209L184.207 81.6447L183.361 82.0677L182.366 83.0132L183.635 84.5559L183.56 85.8997L183.908 86.4969L184.132 86.5467L184.331 86.1983L184.68 86.0739L185.177 85.004L185.6 84.8298V84.4814L185.103 84.5312L185.252 84.0086V82.7645L184.978 82.4161L185.202 82.1175L185.053 80.6495L185.401 80.0522L185.476 79.6292L186.048 79.2063H186.546L186.969 78.6091L188.586 77.6636L189.432 77.6137V76.718L189.706 76.295L190.278 76.1705L191.473 74.2796L192.12 72.8114L193.687 71.5175L193.961 70.995L196.723 69.4523L196.798 69.0292L197.868 68.432L198.017 67.6607L198.291 67.4865L198.141 67.2626L198.34 66.0185V65.7199L198.191 65.6701V64.3265L198.34 64.2767L198.689 63.381L199.336 63.0824V62.734L200.331 61.9128L201.525 61.5644L202.521 60.7931L204.163 60.7434L204.362 60.4448L204.785 60.2706L206.054 58.7279L206.701 58.3795L207.622 58.1555L209.115 56.8617L208.766 56.2147H209.04L209.538 57.1603L210.035 57.2847L209.886 57.7076L210.234 58.056H210.434L210.583 57.8071L210.384 57.1105L210.956 57.2847L211.304 57.8818L211.653 57.7575L212.3 57.2349H213.668V57.3592L214.091 57.5334L213.942 58.1804L214.589 58.5288V58.7527H214.813L214.887 58.3297L215.734 58.1555L216.729 57.6331L218.645 57.6827L219.491 57.5085L219.69 57.2847L220.959 56.9363L221.307 56.7124L221.581 56.4137L221.73 55.8913L223.845 55.2941L224.119 54.7715L224.691 54.6471L225.04 54.4231L224.816 54.1245L225.04 53.5274H225.463L226.035 53.0048H226.533V52.8306H226.806L227.304 52.4823V52.3081H227.155L227.229 52.1339L227.652 52.0841L227.926 52.2085L228.349 51.9099L228.921 51.7856L229.145 51.487L229.842 51.3128L230.191 50.9644L231.037 50.6658L233.102 50.417L233.326 50.2428L233.973 50.1185L234.893 49.6457L234.819 49.5213L235.391 49.3471L236.113 48.7499H236.312L237.879 47.3814L239.148 46.6597L240.293 45.7142H240.567L241.064 46.0626L241.637 46.2368H242.06L242.557 45.8138L242.98 45.764L243.329 45.54L243.403 45.2414L243.553 45.1917V44.8434L243.901 44.6692L244.175 44.1466L245.319 44.495L245.892 44.3208L245.742 43.2508L245.095 41.7081L245.021 39.3941L244.747 39.2697L244.175 38.548L243.329 38.2992L243.254 38.0006L242.483 37.3537L240.641 36.5823L240.442 35.2884L241.288 34.6912H241.487L241.711 34.3926L242.06 34.3428L242.831 34.7659L243.677 34.7161L244.175 35.1391L245.17 35.4875H245.892L246.041 35.6118L246.613 35.4875L246.762 35.6118L246.613 36.5574L246.837 36.6072L246.986 37.2044L247.136 37.2542L246.937 38.0255L247.509 38.4485L247.708 38.3987L248.28 38.6973L249.699 38.8218L251.963 38.2245L252.162 38.0006L252.884 37.7766L253.157 37.5279H253.879L253.954 37.7021H254.153L254.078 38.0504L254.227 38.349L254.8 38.6973L254.874 39.1204L255.372 39.6428L256.069 39.7672L256.641 40.1156L258.408 40.464L258.632 40.9866L258.408 42.1062L258.632 42.8775L259.055 43.0517L259.254 43.5245L259.677 43.8729L261.369 44.6941L263.708 45.0425L265.201 44.9179L266.121 44.6941L266.694 44.9926L268.037 45.0425L268.236 45.1668L271.073 44.9926L271.571 44.6941H271.994L272.715 45.0425L272.566 45.0921L272.641 45.3161L272.84 45.1917V45.3658L273.561 45.4903V45.6147H274.98L276.547 45.0176L277.12 44.9677L277.194 44.7935L277.841 44.6692L279.11 44.072H279.533L279.682 43.848L281.3 43.2508L281.798 42.8279H281.997L282.196 42.5293H282.42L282.619 42.2804L283.191 42.1062L284.112 41.509L284.808 41.3846L285.53 40.7875L286.028 40.6631L286.6 40.1405L287.67 39.8419L287.894 40.0161V40.3147L287.67 40.4889L287.819 40.6133L287.745 41.0362L288.168 41.7579L288.665 41.9321L288.74 42.5293L289.461 43.1264L289.661 43.5494L289.884 43.4996L290.233 43.7983L290.656 43.9227L291.154 44.5697L292.074 44.9926L291.925 44.6941L291.079 44.0969V43.8729L289.934 43.2259L289.014 41.9818L288.516 41.6832L288.018 41.0861L288.093 40.9617L288.168 41.1359L288.516 41.3101L289.014 41.0113L288.516 40.5387L288.093 40.6631L288.018 40.3645L289.088 39.5433L289.163 39.2448L289.735 38.772L290.158 38.1748L291.651 37.6522L292.497 37.1296L292.92 37.2542L293.418 37.1296L293.567 37.2542L293.642 37.08L293.567 37.5029L293.716 37.5528H294.065L294.214 37.3786L295.06 37.1296L295.558 37.1795L295.632 36.9307L296.354 36.2837L298.419 35.3382L298.618 35.0894L299.265 34.9649L301.679 33.8453L302.6 33.6711L303.296 33.248L304.142 33.1983L304.366 32.8997L304.789 32.7255L307.551 32.7752L308.621 32.178L309.691 32.0038L310.338 31.7052H311.11L311.333 31.5311L311.831 31.6556ZM170.795 15.9547L171.293 16.4771L172.288 16.9002H172.636L172.835 16.5518L173.532 16.6762L173.607 17.0246L173.383 17.4475L173.657 17.5719L173.806 17.8208H174.005L174.08 17.5719L174.279 17.5223L174.428 16.925L174.652 16.8753L174.851 17.0992H175.274L175.349 17.2235L176.419 17.0495L176.618 16.8753L177.265 17.1739H178.185L178.335 17.2983L178.26 17.771L178.534 18.0198V18.617L178.882 18.7415L179.031 18.9903L179.454 19.2143H179.803L180.947 18.617H181.37L181.644 18.194H182.142L182.838 18.841L183.187 18.7912L183.336 18.5673L183.61 18.5175L184.331 18.9404L184.68 18.8908L185.401 19.065L186.098 19.5378H186.322L186.471 19.3636H186.969L187.89 19.8363V18.7664L188.537 18.8161L188.462 19.239L188.686 19.3636L188.835 19.886L189.109 20.1846L188.76 21.0805L189.407 21.1301L189.557 21.3541L189.905 21.404V21.7522L190.253 21.9264V22.1006L189.98 22.3992L190.054 22.8221L190.751 23.3447L190.677 24.2405L190.9 24.4147L190.751 25.3602L189.831 26.6043V27.1269L189.407 27.4255L189.831 27.7739H190.477L190.552 28.0227L190.403 28.2467L190.552 28.4954L190.975 28.5453V28.7691H191.174V29.2419L191.523 29.3663L191.323 30.2622L191.174 30.3118L191.398 30.909L192.592 31.0335L192.742 30.8095L193.239 30.7597L193.314 30.9339L194.384 31.0583L194.533 31.357L194.882 31.6058H195.23L195.653 31.357L195.852 31.5311L195.927 31.8794L195.23 32.6011L195.155 33.0739L195.23 33.4969L195.802 33.7456L195.653 33.9198L196.001 34.0442L196.151 34.4673L195.429 35.0645V35.2387L195.927 35.8359L196.151 35.786L196.3 35.5373H196.524L196.673 35.7115L196.748 36.9556L197.022 37.5528V38.0255L197.171 38.1499L197.246 39.7424L198.739 40.6382H199.162L199.311 40.862L198.739 42.7035L198.092 43.2259L197.893 43.8729L198.092 44.3457L198.863 44.8184L199.709 44.8683L199.983 44.4451L201.749 44.3955L202.396 43.9724H203.168L204.312 43.5494L204.536 43.201L206.228 42.9772L206.875 42.7282L207.149 41.5339L207.647 41.111L207.846 40.6382L209.04 39.9166L209.687 39.8668L209.886 39.6428L211.578 39.7672L211.926 39.9912L212.499 39.8668L213.419 40.3893L214.191 40.4391L214.539 40.7875L215.609 40.8373L215.808 41.0113L216.654 40.9617L216.804 40.7128L217.948 40.4889L218.371 40.8373L219.018 41.0611L219.516 41.1855L219.939 41.0611V41.1855L219.665 41.2353H219.939L220.088 41.4594L219.516 42.1809L219.366 42.7035L218.52 42.7531L218.023 42.9772V43.3256H217.749V44.6193L217.475 44.6692L217.401 44.8434H216.828L216.555 45.0672L216.206 45.5898L215.982 46.5354L215.485 47.7297L214.141 48.9738L214.066 49.6955L214.216 51.1635L213.992 51.6363L212.499 52.109L212.15 52.9302L212.225 53.3532H211.653L210.583 54.2489H210.359L210.16 54.5475L209.388 54.8462L207.97 56.14L207.398 56.4386L206.701 57.21L205.979 57.434L204.91 58.1555L204.561 60.3452L204.064 60.5194L203.491 60.3452V59.748L202.496 59.9222L201.65 60.818L201.575 60.9922L201.774 61.042L201.7 61.1664L201.277 61.2162L200.928 61.44H200.082L199.236 61.9128L198.39 62.734L197.818 64.0278L197.743 65.1973L197.893 66.2673L197.669 66.9888L197.246 67.4616V67.9842L196.748 67.9344L196.549 68.3575L196.201 68.4071L195.554 68.8799H194.832L193.911 69.3527L193.638 69.9498L192.443 70.5472L191.871 71.3185L191.224 71.841L191.149 72.065H190.577L190.229 72.2392L189.532 73.2344L189.109 74.3541L188.462 74.7025L187.044 75.8719L184.63 76.6931H183.709L183.635 76.3447L183.983 76.1208L183.908 75.9467L182.988 76.1705L182.49 76.0461L181.918 75.6977L181.569 75.7475L181.992 75.9217L182.142 76.3945L181.868 77.4645L180.027 78.7086H179.181V78.9326H179.529L179.877 79.2312L180.375 79.3556H181.221L182.714 79.9527L183.286 79.9029L183.436 80.4255L183.286 80.5997H183.013L182.515 80.0025L181.744 79.7785L179.405 79.5547L177.837 78.3851L177.115 77.6137L175.971 77.0166L174.279 76.5438H173.856L173.358 76.7678L173.209 77.4146L173.408 77.6387L173.134 77.9372L172.786 78.0616V78.4847L172.512 79.1315L172.164 79.3057L171.89 78.833L172.164 77.8874L172.437 77.7132V77.4146L172.661 77.365L173.159 76.5936L172.238 74.7025L172.014 73.533L171.865 73.4833L171.94 73.1847L172.661 72.2392L173.234 72.463L173.507 71.9902L174.279 71.7664L174.627 71.4678L174.702 71.7664H175.697L175.971 71.0696L176.045 70.2484L176.618 68.9048L176.419 67.9593L175.921 66.7899H175.647L175.722 67.0884L174.652 67.5114L174.005 68.3326L173.731 69.2283L173.308 69.5269H172.736L172.512 70.4724L172.587 70.8208L172.313 71.2438L171.591 71.9406H171.367L170.87 72.5377L170.596 73.533L169.899 73.7072L169.476 74.0057L169.327 74.3043H168.979L168.755 74.4785V74.7771L168.481 74.3541L168.68 74.1303V73.7072L168.332 73.5828L167.983 72.7119L167.486 72.6621L167.137 73.0105V72.5874L167.411 72.065V71.2936L167.063 71.3433L166.64 70.3481L166.789 69.1785L165.794 68.5317L165.644 68.9546L165.495 68.8303L164.798 68.9546L164.649 69.4274L163.803 69.303L163.455 69.9002L163.032 70.0744V69.6513H162.758V68.9546H162.609V68.6561L162.957 68.3575L162.882 68.0091L162.683 67.9593L162.534 68.432H162.186L162.036 68.1335L160.344 67.7851L160.27 67.5612L160.543 67.4368L160.693 67.1381V66.7899L160.419 66.4415L160.494 65.8443L160.718 65.6701V65.0729L161.215 64.5504L161.29 63.779L161.862 63.7292L161.937 63.5053L160.792 63.8039L160.718 62.9827L161.29 62.6343L160.792 61.8133L160.071 61.2907L159.722 60.5941L158.727 60.2954L158.304 59.6486L158.453 59.0512L158.379 58.5786L158.727 58.2799L158.652 57.8071L157.955 57.5085H157.458L156.96 57.21L156.463 56.2644L155.393 55.742L155.467 55.6176L155.119 55.3936L155.044 55.095L154.397 54.6222L154.621 54.3982L154.696 53.801L154.97 53.5025L154.621 53.3283L154.348 52.8555L154.074 52.8058L153.949 52.109L154.099 52.0592L154.024 51.7607L154.721 51.0391L154.571 50.6907L154.348 50.7405L154.074 51.1635V51.3875L153.85 51.4372L153.352 50.9644L153.427 50.6161H153.228L152.954 50.3176L153.029 50.0936L152.879 49.8697L153.228 49.8199L152.954 49.6457L153.029 49.3969L152.83 49.3471L152.606 49.5213H152.332V49.8199L152.183 49.8697L151.909 49.6457V49.5213L152.183 49.4715L151.959 49.2973L152.033 49.0485L151.884 48.9241L151.461 49.2724L151.312 49.0236L150.739 48.725L150.939 47.9537L150.665 47.9039L150.59 48.2523L150.242 48.3021L150.317 47.8293L150.167 47.7795V47.6053L150.814 47.5555L150.739 47.2072L151.585 46.7841V46.187L151.934 46.0626L153.004 44.8932L153.651 44.4204L153.8 43.6987L153.949 43.649L154.173 44.072H154.447L154.87 43.8978L154.945 43.7236L155.517 43.5494L155.592 42.7781L156.089 42.1809H156.512V42.0565H155.741L155.318 42.7781L154.472 42.9522H154.273V42.6537H154.124L153.701 43.5992L153.352 43.7734L153.078 43.3503L153.576 42.2804L153.427 41.7579L153.651 41.2353L153.502 40.2898L153.228 39.8668L152.506 39.817V39.0955L152.307 38.4983L151.66 38.4485L151.461 38.5729V38.3987L150.963 38.2245L151.163 37.4035H150.739L150.59 37.2293L150.665 36.8809L150.939 36.8311L151.088 36.4081L151.362 36.5823H151.934L152.506 35.9851V35.3382L152.307 35.0894V34.8654L152.581 34.4424H152.855L152.929 34.094L152.432 34.0442V33.8204L152.506 33.5714L152.929 33.2232L153.078 32.6259L152.307 32.3273L152.581 32.2029L153.228 31.3072L153.725 31.133L153.8 30.3118L153.999 30.0631L154.074 28.2218L154.422 28.172L153.999 27.2762H153.502L153.302 27.0522V26.4052L153.029 26.2809L152.83 25.9325V25.41L153.029 25.2358L153.103 24.763L152.904 24.4645L152.257 24.2156L152.332 23.8673L152.058 23.7429V23.5189L152.332 23.4691V22.9467L151.76 22.5983V21.8767L151.909 21.578L153.327 20.757L153.75 20.8066L153.9 21.2298L154.248 21.4536L155.019 21.404L155.094 21.1052L155.592 20.8565L155.865 20.9808H156.861L157.134 20.8066L157.707 20.9312L157.781 20.757L157.582 20.4086L157.856 19.886L158.428 19.5874L158.503 19.9358L159.001 19.9856L159.424 19.0897L159.996 18.7415L160.344 18.8659L160.12 19.0897V19.3387L159.847 19.5128V19.9856L160.618 20.5081L160.892 20.4584L160.966 20.11L161.464 19.5128L161.887 19.463L162.31 19.9856H162.534L162.609 19.8114H163.106L162.833 19.3885L163.106 18.9157L162.882 18.3184H163.156L163.355 18.0696L163.927 18.2438L164.201 17.6467L164.425 17.5223L165.122 17.7461V17.9949L164.699 18.5922L165.545 18.841L165.619 19.0152L165.47 19.2639H165.968L165.893 18.841H166.042L166.316 18.9654H167.311L167.386 19.4879L168.157 19.3636L168.232 19.1395H167.958L167.535 18.4926L168.381 17.9701V17.6716L167.685 17.8456H167.411L167.336 17.6716H167.535L167.884 17.3232L168.73 17.2734V16.925L169.003 16.7508H169.352L169.501 16.5269L170.422 16.6513V16.2283L170.795 15.9547Z" fill="#F2F2F2"/>
<g filter="url(#filter0_d_331_164)">
<circle cx="330.5" cy="418.5" r="7.5" fill="#D50000"/>
<circle cx="330.5" cy="418.5" r="6.5" stroke="#1C1C1C" stroke-width="2"/>
</g>
<g filter="url(#filter1_d_331_164)">
<circle cx="239.5" cy="384.5" r="7.5" fill="#D50000"/>
<circle cx="239.5" cy="384.5" r="6.5" stroke="#1C1C1C" stroke-width="2"/>
</g>
<g filter="url(#filter2_d_331_164)">
<circle cx="358.5" cy="396.5" r="7.5" fill="#D50000"/>
<circle cx="358.5" cy="396.5" r="6.5" stroke="#1C1C1C" stroke-width="2"/>
</g>
<g filter="url(#filter3_d_331_164)">
<circle cx="355.5" cy="94.5" r="7.5" fill="#D50000"/>
<circle cx="355.5" cy="94.5" r="6.5" stroke="#1C1C1C" stroke-width="2"/>
</g>
</g>
<defs>
<filter id="filter0_d_331_164" x="319" y="411" width="23" height="23" filterUnits="userSpaceOnUse" color-interpolation-filters="sRGB">
<feFlood flood-opacity="0" result="BackgroundImageFix"/>
<feColorMatrix in="SourceAlpha" type="matrix" values="0 0 0 0 0 0 0 0 0 0 0 0 0 0 0 0 0 0 127 0" result="hardAlpha"/>
<feOffset dy="4"/>
<feGaussianBlur stdDeviation="2"/>
<feComposite in2="hardAlpha" operator="out"/>
<feColorMatrix type="matrix" values="0 0 0 0 0 0 0 0 0 0 0 0 0 0 0 0 0 0 0.25 0"/>
<feBlend mode="normal" in2="BackgroundImageFix" result="effect1_dropShadow_331_164"/>
<feBlend mode="normal" in="SourceGraphic" in2="effect1_dropShadow_331_164" result="shape"/>
</filter>
<filter id="filter1_d_331_164" x="228" y="377" width="23" height="23" filterUnits="userSpaceOnUse" color-interpolation-filters="sRGB">
<feFlood flood-opacity="0" result="BackgroundImageFix"/>
<feColorMatrix in="SourceAlpha" type="matrix" values="0 0 0 0 0 0 0 0 0 0 0 0 0 0 0 0 0 0 127 0" result="hardAlpha"/>
<feOffset dy="4"/>
<feGaussianBlur stdDeviation="2"/>
<feComposite in2="hardAlpha" operator="out"/>
<feColorMatrix type="matrix" values="0 0 0 0 0 0 0 0 0 0 0 0 0 0 0 0 0 0 0.25 0"/>
<feBlend mode="normal" in2="BackgroundImageFix" result="effect1_dropShadow_331_164"/>
<feBlend mode="normal" in="SourceGraphic" in2="effect1_dropShadow_331_164" result="shape"/>
</filter>
<filter id="filter2_d_331_164" x="347" y="389" width="23" height="23" filterUnits="userSpaceOnUse" color-interpolation-filters="sRGB">
<feFlood flood-opacity="0" result="BackgroundImageFix"/>
<feColorMatrix in="SourceAlpha" type="matrix" values="0 0 0 0 0 0 0 0 0 0 0 0 0 0 0 0 0 0 127 0" result="hardAlpha"/>
<feOffset dy="4"/>
<feGaussianBlur stdDeviation="2"/>
<feComposite in2="hardAlpha" operator="out"/>
<feColorMatrix type="matrix" values="0 0 0 0 0 0 0 0 0 0 0 0 0 0 0 0 0 0 0.25 0"/>
<feBlend mode="normal" in2="BackgroundImageFix" result="effect1_dropShadow_331_164"/>
<feBlend mode="normal" in="SourceGraphic" in2="effect1_dropShadow_331_164" result="shape"/>
</filter>
<filter id="filter3_d_331_164" x="344" y="87" width="23" height="23" filterUnits="userSpaceOnUse" color-interpolation-filters="sRGB">
<feFlood flood-opacity="0" result="BackgroundImageFix"/>
<feColorMatrix in="SourceAlpha" type="matrix" values="0 0 0 0 0 0 0 0 0 0 0 0 0 0 0 0 0 0 127 0" result="hardAlpha"/>
<feOffset dy="4"/>
<feGaussianBlur stdDeviation="2"/>
<feComposite in2="hardAlpha" operator="out"/>
<feColorMatrix type="matrix" values="0 0 0 0 0 0 0 0 0 0 0 0 0 0 0 0 0 0 0.25 0"/>
<feBlend mode="normal" in2="BackgroundImageFix" result="effect1_dropShadow_331_164"/>
<feBlend mode="normal" in="SourceGraphic" in2="effect1_dropShadow_331_164" result="shape"/>
</filter>
<clipPath id="clip0_331_164">
<rect width="961" height="1250" fill="white" transform="translate(0 -506)"/>
</clipPath>
</defs>
</svg>
