<svg width="320" height="320" viewBox="0 0 320 320" fill="none" xmlns="http://www.w3.org/2000/svg">
<g clip-path="url(#clip0_331_164)">
<path d="M187.149 15.3814L190.235 14.0127L192.823 18.0189L202.477 21.9752L206.608 24.7869L209.221 27.8723L209.843 29.3405L209.768 34.2175L213.301 40.2391L212.729 44.3446L213.625 50.5156L214.297 52.5808L216.387 54.6212L216.636 59.324L215.068 63.0315L208.126 67.4856L208.275 70.7203L207.528 74.1043L206.633 75.1743L204.543 75.2739L204.493 79.4293L206.259 82.4399L206.633 85.6001L209.693 85.9983L211.261 87.4663L215.441 87.5907L217.905 90.8503L219.796 91.97L231.292 92.841L234.128 95.0804L236.368 99.211L233.282 101.898L231.466 107.347L225.942 110.259L222.383 117.002L224.822 119.416L229.351 121.108L230.097 125.661L232.386 125.96L234.203 123.795L235.223 125.537L237.363 125.661L237.736 127.353L243.633 134.743L243.26 137.182L240.424 138.948L242.564 143.303L242.091 147.483L245.674 148.827L248.585 152.609L258.489 157.013L260.156 159.004L261.226 161.791L274.289 168.683L280.958 179.831L284.715 181.971L287.9 189.137L290.388 193.84L290.612 196.079L288.597 198.119L281.953 200.359L279.888 201.976L280.883 203.768L285.163 204.763L285.885 205.808L283.123 209.74L285.063 211.805L285.163 216.483L277.798 221.086L277.872 222.529L280.435 225.64L279.987 227.854L273.045 230.79L271.204 232.905L270.731 234.821L269.163 236.762L268.168 240.445L264.062 243.804L266.924 246.665L266.078 248.556L263.316 249.253L259.733 245.969L257.369 245.745L255.901 246.043L256.05 249.029L255.527 249.477L251.72 249.95L251.123 252.413L248.535 255.698L248.486 259.878L246.694 268.612L245.649 270.677L242.14 271.424L241.593 274.634L236.965 275.032L236.044 277.396L234.701 277.57L228.505 271.573L228.579 270.503L230.844 268.04L233.631 262.765L232.511 261.968L227.883 262.715L225.693 261.844L221.587 254.777L220.418 250.696L217.73 249.776L215.068 246.392L212.455 247.81L207.927 254.031L204.194 253.16L201.606 255.3L201.507 256.22L203.497 257.24L206.16 261.147L206.458 264.257L205.612 266.596L204.119 266.671L199.641 262.466L196.406 261.794L194.564 262.715L191.554 262.018L187.896 262.864L180.257 268.264L175.056 266.671H170.702L167.616 269.234L165.924 266.97L169.532 259.555L163.187 259.878L162.441 261.272L161.694 266.746L163.809 269.309L161.918 270.802L157.663 270.155L154.329 275.679L152.089 275.952L144.948 273.713L143.48 269.831L140.618 265.178L137.16 265.75L134.024 269.358L131.511 270.453L129.421 269.408L127.903 265.526L125.44 264.183L123.972 268.836L124.569 271.026L123.126 273.439L122.802 276.923L125.49 279.063L126.211 282.72L128.874 285.706L129.247 288.17L128.799 289.588L124.221 292.449L119.692 293.022L117.925 297.376L113.994 296.804L110.411 298.297L109.54 300.288L107.922 299.889L105.135 301.731L103.941 298.471H103.07L102.324 299.765L101.627 304.916L100.234 306.434L99.4124 304.642L97.1978 304.169L95.2072 301.382H90.1808L86.4236 295.833L86.3489 294.241L84.9057 291.827L79.531 288.568L73.7084 282.944L70.0009 283.467L63.8299 287.523L61.6402 286.901L60.8191 284.885L58.1069 283.641L57.3852 279.958L53.0059 275.853L50.1195 271.722L45.6157 263.685L46.5861 260.873L46.188 258.634L42.3311 253.906L40.44 253.682L41.9081 247.959L43.3762 245.571L43.9236 244.998L40.4649 243.505L40.1414 242.012L47.034 237.633L47.4073 236.19L46.9842 235.617L43.3513 236.364L42.3311 235.394L42.1818 233.901L48.8255 223.749L49.6715 220.414L53.0059 218.1L55.0214 215.338L62.5609 214.119L62.735 213.248L61.9139 212.203L57.9078 211.108L56.5392 208.744L57.659 203.942L62.1628 200.956L62.6356 199.388L62.113 197.497L59.7989 196.427L53.8767 197.696L48.0293 196.726L43.426 191.799L38.7977 188.614L35.4634 184.509L31.6813 183.115L30.0141 181.025L29.3672 178.711V174.605L31.6813 171.246L37.6282 168.932L42.8287 165.548L52.9312 165.025L54.1753 161.542L57.7834 160.397L59.9482 155.62L59.1271 153.704L55.2951 149.822L48.0044 154.749L45.6654 158.357L42.6546 159.004L41.4851 158.357L42.9283 154.873L40.7386 150.569L40.8382 147.21L46.4119 143.253L47.4819 141.387L48.5269 135.44L52.9561 132.305L53.3542 130.613L52.5082 126.233L55.2702 120.063L60.6449 119.142L62.2872 116.902L62.1379 115.633L57.659 112.996L56.5392 110.383L49.1739 108.691L48.0044 107.746L47.0589 105.407L42.1569 104.76L39.8926 103.839L38.7231 102.247L36.8071 96.872L37.3794 94.3588L41.4851 89.6809L39.8926 83.9579L44.3466 81.6686L45.2673 77.6874L48.3777 74.9752L49.1739 75.2739L57.4599 69.1278L61.4412 69.302L65.8206 73.5321L72.091 71.5912L75.3507 72.0639L84.3085 80.723L88.5635 77.339L92.4204 76.8166L92.7687 70.7203L91.4001 66.3908L104.787 62.31L109.017 64.2011L110.51 69.1278L113.023 68.5306L116.955 70.4714L118.796 67.4358L123.126 69.0034L126.883 68.4312L129.247 66.7143L130.168 63.8527L135.891 61.5137L137.458 59.2742L136.513 51.4612L137.533 48.2761L141.415 47.455L145.222 42.5781L149.477 42.9265L152.761 41.5827L164.083 28.0964L167.019 27.4992L167.517 25.9067L166.347 23.3189L166.596 22.4978L168.263 22.2737L171.224 24.2147H175.479L180.282 20.2086L183.492 19.91L187.149 15.3814Z" fill="#F2F2F2"/>
<g filter="url(#filter0_d_331_164)">
<circle cx="162.5" cy="47.5" r="7.5" fill="#D50000"/>
<circle cx="162.5" cy="47.5" r="6.5" stroke="#1C1C1C" stroke-width="2"/>
</g>
<g filter="url(#filter1_d_331_164)">
<circle cx="165.5" cy="58.5" r="7.5" fill="#D50000"/>
<circle cx="165.5" cy="58.5" r="6.5" stroke="#1C1C1C" stroke-width="2"/>
</g>
<g filter="url(#filter2_d_331_164)">
<circle cx="170.5" cy="140.5" r="7.5" fill="#D50000"/>
<circle cx="170.5" cy="140.5" r="6.5" stroke="#1C1C1C" stroke-width="2"/>
</g>
<g filter="url(#filter3_d_331_164)">
<circle cx="191.5" cy="160.5" r="7.5" fill="#D50000"/>
<circle cx="191.5" cy="160.5" r="6.5" stroke="#1C1C1C" stroke-width="2"/>
</g>
<g filter="url(#filter4_d_331_164)">
<circle cx="204.5" cy="165.5" r="7.5" fill="#D50000"/>
<circle cx="204.5" cy="165.5" r="6.5" stroke="#1C1C1C" stroke-width="2"/>
</g>
<g filter="url(#filter5_d_331_164)">
<circle cx="203.5" cy="157.5" r="7.5" fill="#D50000"/>
<circle cx="203.5" cy="157.5" r="6.5" stroke="#1C1C1C" stroke-width="2"/>
</g>
<g filter="url(#filter6_d_331_164)">
<circle cx="251.5" cy="173.5" r="7.5" fill="#D50000"/>
<circle cx="251.5" cy="173.5" r="6.5" stroke="#1C1C1C" stroke-width="2"/>
</g>
<g filter="url(#filter7_d_331_164)">
<circle cx="190.5" cy="147.5" r="7.5" fill="#D50000"/>
<circle cx="190.5" cy="147.5" r="6.5" stroke="#1C1C1C" stroke-width="2"/>
</g>
<g filter="url(#filter8_d_331_164)">
<circle cx="228.5" cy="98.5" r="7.5" fill="#D50000"/>
<circle cx="228.5" cy="98.5" r="6.5" stroke="#1C1C1C" stroke-width="2"/>
</g>
</g>
<defs>
<filter id="filter0_d_331_164" x="151" y="40" width="23" height="23" filterUnits="userSpaceOnUse" color-interpolation-filters="sRGB">
<feFlood flood-opacity="0" result="BackgroundImageFix"/>
<feColorMatrix in="SourceAlpha" type="matrix" values="0 0 0 0 0 0 0 0 0 0 0 0 0 0 0 0 0 0 127 0" result="hardAlpha"/>
<feOffset dy="4"/>
<feGaussianBlur stdDeviation="2"/>
<feComposite in2="hardAlpha" operator="out"/>
<feColorMatrix type="matrix" values="0 0 0 0 0 0 0 0 0 0 0 0 0 0 0 0 0 0 0.25 0"/>
<feBlend mode="normal" in2="BackgroundImageFix" result="effect1_dropShadow_331_164"/>
<feBlend mode="normal" in="SourceGraphic" in2="effect1_dropShadow_331_164" result="shape"/>
</filter>
<filter id="filter1_d_331_164" x="154" y="51" width="23" height="23" filterUnits="userSpaceOnUse" color-interpolation-filters="sRGB">
<feFlood flood-opacity="0" result="BackgroundImageFix"/>
<feColorMatrix in="SourceAlpha" type="matrix" values="0 0 0 0 0 0 0 0 0 0 0 0 0 0 0 0 0 0 127 0" result="hardAlpha"/>
<feOffset dy="4"/>
<feGaussianBlur stdDeviation="2"/>
<feComposite in2="hardAlpha" operator="out"/>
<feColorMatrix type="matrix" values="0 0 0 0 0 0 0 0 0 0 0 0 0 0 0 0 0 0 0.25 0"/>
<feBlend mode="normal" in2="BackgroundImageFix" result="effect1_dropShadow_331_164"/>
<feBlend mode="normal" in="SourceGraphic" in2="effect1_dropShadow_331_164" result="shape"/>
</filter>
<filter id="filter2_d_331_164" x="159" y="133" width="23" height="23" filterUnits="userSpaceOnUse" color-interpolation-filters="sRGB">
<feFlood flood-opacity="0" result="BackgroundImageFix"/>
<feColorMatrix in="SourceAlpha" type="matrix" values="0 0 0 0 0 0 0 0 0 0 0 0 0 0 0 0 0 0 127 0" result="hardAlpha"/>
<feOffset dy="4"/>
<feGaussianBlur stdDeviation="2"/>
<feComposite in2="hardAlpha" operator="out"/>
<feColorMatrix type="matrix" values="0 0 0 0 0 0 0 0 0 0 0 0 0 0 0 0 0 0 0.25 0"/>
<feBlend mode="normal" in2="BackgroundImageFix" result="effect1_dropShadow_331_164"/>
<feBlend mode="normal" in="SourceGraphic" in2="effect1_dropShadow_331_164" result="shape"/>
</filter>
<filter id="filter3_d_331_164" x="180" y="153" width="23" height="23" filterUnits="userSpaceOnUse" color-interpolation-filters="sRGB">
<feFlood flood-opacity="0" result="BackgroundImageFix"/>
<feColorMatrix in="SourceAlpha" type="matrix" values="0 0 0 0 0 0 0 0 0 0 0 0 0 0 0 0 0 0 127 0" result="hardAlpha"/>
<feOffset dy="4"/>
<feGaussianBlur stdDeviation="2"/>
<feComposite in2="hardAlpha" operator="out"/>
<feColorMatrix type="matrix" values="0 0 0 0 0 0 0 0 0 0 0 0 0 0 0 0 0 0 0.25 0"/>
<feBlend mode="normal" in2="BackgroundImageFix" result="effect1_dropShadow_331_164"/>
<feBlend mode="normal" in="SourceGraphic" in2="effect1_dropShadow_331_164" result="shape"/>
</filter>
<filter id="filter4_d_331_164" x="193" y="158" width="23" height="23" filterUnits="userSpaceOnUse" color-interpolation-filters="sRGB">
<feFlood flood-opacity="0" result="BackgroundImageFix"/>
<feColorMatrix in="SourceAlpha" type="matrix" values="0 0 0 0 0 0 0 0 0 0 0 0 0 0 0 0 0 0 127 0" result="hardAlpha"/>
<feOffset dy="4"/>
<feGaussianBlur stdDeviation="2"/>
<feComposite in2="hardAlpha" operator="out"/>
<feColorMatrix type="matrix" values="0 0 0 0 0 0 0 0 0 0 0 0 0 0 0 0 0 0 0.25 0"/>
<feBlend mode="normal" in2="BackgroundImageFix" result="effect1_dropShadow_331_164"/>
<feBlend mode="normal" in="SourceGraphic" in2="effect1_dropShadow_331_164" result="shape"/>
</filter>
<filter id="filter5_d_331_164" x="192" y="150" width="23" height="23" filterUnits="userSpaceOnUse" color-interpolation-filters="sRGB">
<feFlood flood-opacity="0" result="BackgroundImageFix"/>
<feColorMatrix in="SourceAlpha" type="matrix" values="0 0 0 0 0 0 0 0 0 0 0 0 0 0 0 0 0 0 127 0" result="hardAlpha"/>
<feOffset dy="4"/>
<feGaussianBlur stdDeviation="2"/>
<feComposite in2="hardAlpha" operator="out"/>
<feColorMatrix type="matrix" values="0 0 0 0 0 0 0 0 0 0 0 0 0 0 0 0 0 0 0.25 0"/>
<feBlend mode="normal" in2="BackgroundImageFix" result="effect1_dropShadow_331_164"/>
<feBlend mode="normal" in="SourceGraphic" in2="effect1_dropShadow_331_164" result="shape"/>
</filter>
<filter id="filter6_d_331_164" x="240" y="166" width="23" height="23" filterUnits="userSpaceOnUse" color-interpolation-filters="sRGB">
<feFlood flood-opacity="0" result="BackgroundImageFix"/>
<feColorMatrix in="SourceAlpha" type="matrix" values="0 0 0 0 0 0 0 0 0 0 0 0 0 0 0 0 0 0 127 0" result="hardAlpha"/>
<feOffset dy="4"/>
<feGaussianBlur stdDeviation="2"/>
<feComposite in2="hardAlpha" operator="out"/>
<feColorMatrix type="matrix" values="0 0 0 0 0 0 0 0 0 0 0 0 0 0 0 0 0 0 0.25 0"/>
<feBlend mode="normal" in2="BackgroundImageFix" result="effect1_dropShadow_331_164"/>
<feBlend mode="normal" in="SourceGraphic" in2="effect1_dropShadow_331_164" result="shape"/>
</filter>
<filter id="filter7_d_331_164" x="179" y="140" width="23" height="23" filterUnits="userSpaceOnUse" color-interpolation-filters="sRGB">
<feFlood flood-opacity="0" result="BackgroundImageFix"/>
<feColorMatrix in="SourceAlpha" type="matrix" values="0 0 0 0 0 0 0 0 0 0 0 0 0 0 0 0 0 0 127 0" result="hardAlpha"/>
<feOffset dy="4"/>
<feGaussianBlur stdDeviation="2"/>
<feComposite in2="hardAlpha" operator="out"/>
<feColorMatrix type="matrix" values="0 0 0 0 0 0 0 0 0 0 0 0 0 0 0 0 0 0 0.25 0"/>
<feBlend mode="normal" in2="BackgroundImageFix" result="effect1_dropShadow_331_164"/>
<feBlend mode="normal" in="SourceGraphic" in2="effect1_dropShadow_331_164" result="shape"/>
</filter>
<filter id="filter8_d_331_164" x="217" y="91" width="23" height="23" filterUnits="userSpaceOnUse" color-interpolation-filters="sRGB">
<feFlood flood-opacity="0" result="BackgroundImageFix"/>
<feColorMatrix in="SourceAlpha" type="matrix" values="0 0 0 0 0 0 0 0 0 0 0 0 0 0 0 0 0 0 127 0" result="hardAlpha"/>
<feOffset dy="4"/>
<feGaussianBlur stdDeviation="2"/>
<feComposite in2="hardAlpha" operator="out"/>
<feColorMatrix type="matrix" values="0 0 0 0 0 0 0 0 0 0 0 0 0 0 0 0 0 0 0.25 0"/>
<feBlend mode="normal" in2="BackgroundImageFix" result="effect1_dropShadow_331_164"/>
<feBlend mode="normal" in="SourceGraphic" in2="effect1_dropShadow_331_164" result="shape"/>
</filter>
<clipPath id="clip0_331_164">
<rect width="961" height="1250" fill="white" transform="translate(-296 -554)"/>
</clipPath>
</defs>
</svg>
