<svg width="370" height="370" viewBox="0 0 370 370" fill="none" xmlns="http://www.w3.org/2000/svg">
<g clip-path="url(#clip0_331_164)">
<path d="M267.536 237.163L269.104 237.586L269.253 238.009L268.681 238.258L266.69 238.134L266.118 237.885L265.894 237.586V237.287L266.118 237.163H267.536ZM252.084 229.698L252.233 231.017L251.81 231.365V231.714L251.462 231.664L251.039 231.838L250.964 232.087L250.268 232.435L250.193 232.61L249.845 232.659L249.571 232.485L249.496 232.311L249.646 231.963L249.496 231.714L250.342 230.221L251.263 229.922L251.412 229.748L252.084 229.698ZM237.204 48.0053L237.627 48.08L237.428 48.3287V48.7517L237.702 49.1748H237.926L238.125 49.4734L238.548 49.7222L238.324 50.0955L238.548 50.5931L238.971 50.9663H239.618L240.389 51.2649L240.588 51.6382L240.663 52.1855L240.936 52.5588L241.011 53.3551L240.812 53.5293V53.778L241.31 54.4996L242.38 54.6738L243.151 54.2508L243.499 53.8775L244.271 53.9273L244.843 53.5044V53.2058L245.117 53.156L245.391 53.2804L245.465 53.4546L245.888 53.5044L246.311 54.0517L246.46 54.649L247.033 54.9476L247.381 55.6193L247.73 55.9179L249.347 56.2912L249.422 56.5898L249.695 56.8386L249.969 57.809L250.691 57.8588L250.268 59.3268L250.915 60.1729L251.263 60.2227L251.338 60.4715L252.258 60.9692L253.677 61.3921L254.746 61.5165L255.393 61.7654L256.314 62.3875L257.807 62.5119L257.956 62.8105L259.101 62.5617L259.375 62.8105L260.942 63.2334L261.515 64.0795L263.082 64.4526L264.078 65.4231L264.849 67.0654L264.924 67.6128L265.645 68.5832L266.068 68.9565H266.342L266.765 69.3795H267.039L267.536 70.2254L268.183 70.7231L268.258 71.2208L268.457 71.395H268.731L269.154 71.818L269.801 72.1165V73.2114L269.651 73.7589L268.656 74.4804L268.457 75.5753V76.6701L268.955 77.7649L269.179 77.8893L269.253 78.4865L269.602 78.9842L270.249 79.2827L270.821 79.9546L271.592 80.2532L271.866 80.6762L272.587 80.9251H273.234L273.583 80.6762L274.28 81.6466L274.927 82.1443L275.126 82.5175L275.549 82.5673L275.972 82.9406L276.743 84.4584L277.166 84.5828L277.589 85.5532V85.8518L278.087 86.5733L278.236 87.2452L279.082 88.3899L279.43 89.3105L279.505 91.5002L280.276 91.6742L280.699 92.3959L280.774 92.8189L281.122 93.2419V93.7395L281.471 94.287L281.247 95.3819L282.317 95.5559L282.665 96.0536L282.59 96.5264L282.74 97.0241L283.163 97.1485L283.312 97.3227V97.696L283.163 97.7456L283.013 98.3429L282.59 98.4673L282.516 99.1889L282.789 99.6616H283.138L282.789 100.259V100.98L283.213 102.548L283.486 102.847H284.058L284.407 103.27L284.258 103.693L284.034 103.742L283.884 104.24V104.713H284.034L284.307 105.982L284.531 106.032L284.73 106.455L285.079 106.753L285.775 106.803L286.348 106.33H286.696L287.194 106.878V107.475L286.92 108.072L286.572 108.371L285.95 108.147V108.321H285.8L285.601 108.694L285.527 108.943L285.726 109.615V110.287L286.298 110.884L286.522 110.934L287.169 112.028L287.741 112.327L288.388 112.377L288.463 113.223L288.811 113.521L288.96 113.944L289.234 114.118H289.583L289.732 114.591L289.309 115.064H289.159V115.313L289.657 116.109L290.155 116.532L290.727 116.706L291.15 117.179H291.722L291.922 116.806L293.191 116.632L293.414 117.527L293.987 117.95L294.41 118.075V118.199L295.057 118.324L295.206 118.498L296.127 118.871L296.624 119.717L299.809 120.986L299.959 121.16L300.954 121.583L301.452 122.006L302.223 122.056L303.567 122.653V122.778L303.218 122.827L300.879 122.355L300.307 123.151V123.698L300.108 124.246L300.183 124.619L299.909 125.042L300.058 125.216L299.984 125.888L300.133 126.137V126.734L300.282 126.784V127.58L300.631 128.003L300.705 128.426L300.904 128.55L301.128 129.347L301.402 129.72H301.75L301.601 130.093L302.372 130.641L302.522 131.188L302.721 131.238L303.144 131.785L303.417 131.835V132.009L304.189 132.557L304.338 132.805H304.686V133.179L304.96 133.427L305.607 133.552V133.801L305.881 133.85L306.03 134.149L306.801 134.448L307.025 134.696L307.523 134.746L307.797 135.045L310.907 135.592L311.131 135.642V135.766L311.33 135.642L311.828 135.891L312.524 135.941V136.065L314.167 136.438L314.59 136.612L314.739 136.861L315.461 137.11L315.535 137.483L315.958 137.782L317.451 138.379L319.442 139.897L321.781 140.867L322.353 140.693L322.627 140.743L322.901 141.166L323.05 140.867L323.697 141.041L324.12 141.639H324.543L324.891 142.236L325.464 142.534L325.538 142.783L325.887 142.833V143.803H326.16L326.733 144.102L326.658 144.898L325.389 146.043L324.742 146.217L324.319 146.59L323.548 146.764L322.975 147.138L321.557 147.262L321.482 147.013L320.985 147.138H318.571L318.073 147.013L317.874 147.312L316.108 147.785L314.764 148.332L314.689 148.581L314.416 148.705L314.341 148.954L313.769 149.502L313.619 149.974L313.196 150.273L312.848 150.945V151.318L312.574 151.567L312.425 152.239L312.226 152.363L311.579 152.313L311.504 152.487L311.007 152.786L310.808 153.508L310.235 154.18V154.428L309.812 154.976L309.538 155.697L308.817 159.853L308.892 160.873L308.742 161.122L308.817 162.864L308.668 164.779L308.742 165.327L309.016 165.626L308.867 166.173L308.941 166.944L309.215 167.243L309.14 167.915L309.364 168.039L309.29 168.213H309.14V168.512L309.364 168.885L309.514 169.656L309.787 169.955L309.987 171.274L310.185 171.821L310.409 171.995L310.609 173.14L311.032 173.986V174.334L311.455 175.479V175.952L311.878 176.922L311.952 177.694L312.599 179.187L312.748 180.082L313.246 181.277V181.749L313.968 183.193L314.241 184.387L314.515 184.686L314.714 185.457L315.137 186.054L315.212 186.477L315.784 187.547L316.058 188.866L315.983 189.339H316.182L316.332 189.588V190.608L318.024 194.216L318.247 194.34L318.745 195.485L318.894 195.535L319.118 196.256L319.318 196.38L319.392 196.729L319.616 196.903L320.114 197.923L320.313 198.048L320.736 198.943L321.457 199.839L321.88 200.735L322.727 201.705V201.88L323.647 203.024L323.722 203.323L323.995 203.497L324.493 204.467L325.14 205.114L325.414 205.786L326.135 206.433L326.21 206.732L326.558 206.98L326.758 207.827L327.678 208.971L328.823 210.937L329.818 212.131L330.739 213.748L331.162 214.172L331.386 214.644L331.585 214.694L332.082 215.764L332.854 216.709L333.128 217.307L334.894 219.272L335.541 220.168V220.417L335.964 220.89V221.188L336.312 221.238L336.462 221.711L337.034 222.358L337.183 222.781L337.532 223.03L337.88 223.751L338.527 224.224L338.676 224.697L338.875 224.747V224.921L339.075 225.045L339.298 225.468H339.448L339.597 225.817L340.244 226.414L340.742 227.31L341.09 227.558L341.165 227.857L341.737 228.504L342.185 230.072L342.682 230.37L343.106 231.142L343.678 231.614L344.673 233.107L344.872 233.655L345.146 233.779L345.917 235.098L346.191 235.272L346.39 235.745L346.813 236.043L347.162 236.815L347.51 236.989L348.082 237.536L348.157 237.835L348.505 238.084L348.704 238.382V238.681L349.426 239.826L349.625 239.95L349.849 240.547L350.048 240.846H350.197L350.894 242.09L351.242 242.388L351.516 243.284L351.939 243.533L351.864 244.006L352.138 244.777L352.287 244.827V245.175L352.785 245.773L353.979 250.052L354.402 251.122V251.943L354.552 252.118L354.477 252.715L354.676 252.964L354.601 253.312L354.875 253.785L354.95 255.203L354.8 255.726L354.079 256.97L353.357 257.567L353.158 258.04L352.735 258.338L352.038 259.358L350.969 260.379L350.322 261.324L350.048 261.573H349.699L349.55 261.225L349.899 260.802L349.824 260.627L350.247 260.677V260.503L350.745 260.329L350.67 259.98L351.093 260.03L351.242 259.906V259.607L351.441 259.557L351.715 258.96L352.063 258.736L352.262 258.189L352.611 257.94L352.685 257.691H353.034L353.73 256.92L354.502 255.551L354.577 254.481L354.377 253.71L353.954 253.237L353.88 252.889L353.308 252.341L352.885 252.167L352.81 251.869L352.312 251.446L352.238 251.097L351.964 250.799L351.391 250.749L351.118 250.276L350.894 250.226L349.55 248.982L347.709 247.962L347.51 247.663L346.664 247.365L346.39 247.066L345.32 246.643H344.972L344.399 246.295L343.329 246.171L341.264 245.573L339.995 245.449L337.88 246.27L336.387 246.395L336.114 246.569L334.77 246.867L333.998 247.29L332.505 247.763L332.082 248.062L329.744 248.833L329.097 249.356H328.25L325.215 248.883L323.299 248.36L322.727 248.012L322.229 247.888L318.82 244.678V244.504L318.546 244.379L318.471 244.08L318.247 244.031L316.058 241.418L314.64 240.348L314.44 240L314.515 239.452L314.316 239.154L314.092 239.104L314.018 238.557L313.744 238.432L313.594 238.009L313.171 237.885L312.4 236.989L310.285 235.247L310.21 234.7L309.066 233.505L308.419 233.157L308.27 232.908L307.772 232.784L307.274 232.435H307.001V232.137L306.577 231.415L306.229 230.271L305.881 229.798V228.554L305.035 227.608L304.811 227.185V226.538L304.537 226.414L304.313 227.061H304.114L304.039 226.812L303.766 226.638L303.193 226.389L302.77 226.439L302.696 226.264L301.775 225.966L301.203 225.493L300.133 225.195L297.794 225.02L297.296 225.269L296.798 225.145L294.883 225.568L293.962 225.991H293.614L293.34 226.24L292.842 226.364L292.767 226.613L292.544 226.563L291.548 227.036L291.399 227.285H290.976V227.409L290.404 227.534L290.254 227.708L288.562 228.429L287.99 228.479L287.716 228.728L286.646 228.977L286.223 229.226L284.307 229.474L283.113 229.947L282.541 229.997L282.391 230.171L281.695 230.295L280.699 230.843L279.281 231.142L279.057 231.316L278.41 231.266L277.34 230.669L274.852 230.544L274.777 230.669L273.633 230.718L273.558 230.843L272.488 231.017L272.214 231.191L271.294 231.316L268.805 232.087L267.312 232.211L266.889 232.386H265.62L264.849 232.037L264.7 231.739L263.431 231.017L263.008 230.37L262.361 229.947L261.515 229.002L261.241 228.952L260.893 228.529L259.972 228.106L258.827 227.932L258.753 227.757L257.757 227.708L256.115 227.832L254.97 228.181H254.323L253.751 228.479L252.557 228.778L252.208 229.076L250.566 229.425L250.367 229.673L249.869 229.848L249.795 230.146L249.372 230.495L249.148 231.34L248.874 231.639L248.799 232.286L248.451 232.634L248.376 232.933L247.456 233.481L246.61 235.446V236.889L247.107 238.208L247.953 239.104L248.6 238.93L247.953 236.964L247.456 236.491L247.307 235.944L247.381 235.595L247.232 235.297L247.953 234.65L249.372 234.302L250.516 233.704L251.512 233.58L252.432 232.933L253.776 232.585L254.423 231.987L256.911 231.216H257.907L258.404 231.465L260.096 233.903L260.868 234.451H261.092L261.44 234.924H261.788L262.211 235.272L263.207 236.591L264.053 237.238L264.625 237.959L265.695 238.681L267.113 238.979L270.572 238.805L271.642 238.507L272.563 237.735L272.836 237.188L273.334 236.715L273.906 236.367L274.18 235.894L274.528 235.77L274.951 235.173L275.648 234.874L275.797 234.625L276.643 234.799H278.758L278.833 234.924L283.586 234.749L284.432 234.501L284.705 234.55L286.397 233.903L287.318 233.854L287.542 233.679L287.891 233.729L289.234 233.306V232.56L288.886 232.386L289.085 232.137H289.433V232.858L289.781 232.908L290.279 232.56L291.125 232.61L293.041 231.838L294.957 231.49H296.226L297.296 231.067L298.217 231.117L299.212 231.415L299.561 231.589L299.635 231.888L300.282 232.361L300.78 233.257L301.128 233.555L301.9 235.396L302.173 235.745L302.447 236.641L302.87 237.238L303.069 237.885L303.343 238.183L303.617 239.029L303.89 239.203L304.537 240.273L305.184 240.871V241.119L306.105 241.717L306.254 242.264L306.752 242.911L307.175 244.056L307.946 244.902L307.871 245.026L308.145 245.499L308.493 245.623L308.842 245.275V245.026H309.19L309.34 245.374L308.991 245.325L308.493 245.847L308.767 246.146L309.116 246.096L309.389 245.847V245.673H309.738V245.847L308.892 246.444L309.24 246.569L309.315 246.867H309.514L310.086 246.444L310.434 246.967L311.156 247.564V247.813L310.882 247.863L310.385 247.315L310.161 247.265L310.011 247.688L310.509 248.112L311.504 248.534L311.156 248.236V248.062H311.355L311.778 248.41L311.853 248.883H312.126V249.181L312.326 249.132L312.4 248.883L312.972 249.132L312.898 249.306L312.475 249.132L312.326 249.43L312.898 249.729L313.545 250.326L314.192 249.729H314.391L314.241 249.38H314.59L314.515 249.157L313.744 248.808L313.818 248.684H314.316L314.59 248.933H314.863L315.137 249.281L315.71 249.455V249.58H315.436L314.789 249.331L314.714 249.679L313.719 250.5L314.565 250.849L314.64 251.097L315.212 251.396V251.57L315.859 251.869L316.058 252.167L316.555 252.466L317.327 253.66L317.899 253.884L318.621 254.531L318.77 254.88L320.039 256.198L320.238 256.671L321.01 257.144L321.706 257.915L323.199 258.985L323.274 259.234L323.622 259.533L324.195 259.408L325.264 259.831L325.414 260.478L325.688 260.602L325.887 260.055L326.16 259.757L326.359 258.985L326.782 259.11L326.857 259.632L327.429 260.105L327.927 260.354H328.35L327.778 259.632L327.355 259.458L327.205 259.209L328.051 259.333L328.4 259.931L328.599 259.98L328.45 260.105L328.524 260.403H328.798L329.072 260.652L328.997 260.827L329.271 261.075L329.196 261.424L329.967 261.722L330.241 262.071L331.51 262.792L332.008 263.688L332.431 263.812L332.207 264.235L332.928 265.057L333.128 265.604L333.476 265.778V265.952L333.824 266.201V266.425H333.973L334.247 266.848L334.82 266.898L335.317 267.371L335.392 268.018L335.665 268.067L336.014 268.839L336.785 269.61L337.432 270.804L337.706 270.929V271.526L337.283 271.825V271.949H337.557L337.706 272.148L335.541 273.417L332.505 274.188L329.918 273.591L328.151 274.786L323.772 285.112L324.02 286.655L326.285 289.267L322.602 292.477L321.084 292.602L318.098 289.591L317.426 287.526L315.336 286.406L314.515 284.614L311.255 281.827L312.077 276.727L310.335 269.411L313.843 264.708L313.769 263.165L308.941 262.867L305.259 257.816L298.988 253.884L298.292 255.253L298.466 259.234L293.788 264.584L290.603 265.057L282.416 262.842L274.727 268.789L274.802 269.61L284.482 270.257L286.049 271.675L286.199 273.392L284.681 274.811L277.066 276.129L275.474 279.862L276.295 281.877L276.046 282.823L270.846 285.087L263.057 287.401L258.678 287.053L257.359 286.331L256.364 284.44L257.882 279.513V276.95L257.061 275.831L241.26 273.989L240.314 279.812L237.951 282.474L235.437 287.227L220.184 285.958L219.537 285.361L221.951 283.992L221.976 283.047L218.343 279.613L211.923 284.838L210.928 290.959L207.444 295.712L206.374 296.533L204.309 295.339L199.556 295.513L196.869 297.703L192.962 302.853L193.485 307.656L192.564 309.895L189.553 311.562L190.798 314.1L186.841 318.231L185.572 321.092L177.087 321.54L174.673 319.873L172.061 319.699L172.658 316.738L171.464 315.966L168.303 316.613L166.91 319.102L165.591 319.823L162.182 319.525L159.42 318.106L159.171 314.971L157.803 314.2L152.926 314.548L149.492 318.106L140.236 321.764L135.234 318.504L133.069 319.102L130.208 318.33L129.611 317.857L130.208 316.389L133.691 313.951L133.791 313.13L132.447 311.537L125.082 308.526L124.659 306.984L125.654 304.844L125.58 303.251L121.822 301.012L119.956 300.962L118.538 297.528L114.382 295.986L114.034 293.672L114.78 289.516L107.614 283.644L106.868 281.678L106.544 277.572L103.931 273.467L96.9643 270.033L93.6051 269.859L88.4294 262.369L83.428 256.845L82.0097 252.391L78.327 251.57L77.4312 247.091L76.0129 245.474L76.4857 241.965L74.918 239.701L74.5697 237.487L72.2058 237.611L70.1406 239.527L67.9011 240.124L65.4128 237.735L63.671 237.91L62.3273 235.347L61.1578 234.824L61.4316 232.958L60.0879 228.603L64.9649 222.209L65.0644 214.445L68.2494 210.315L74.4204 207.329L75.6894 205.413L76.2866 202.327L72.0068 199.068L68.0006 193.494L67.055 187.846L58.2466 183.218L57.6742 179.187L56.1563 176.773L52.1253 176.3L51.354 175.28L51.4535 173.115L45.5065 175.877L43.8394 175.628L42.222 171.722L37.7679 171.299L36.1754 168.885L37.5191 165.451L36.3745 164.605L35.9764 161.346L35.2299 160.151L31.9454 159.479L26.0232 161.097L23.2612 160.674L22.017 159.106L21.8678 153.806L20.7978 152.064L14.2536 148.257L10.9691 144.699L10.1479 141.514L10.6456 136.563L14.3034 134.572L15.2241 132.084L22.664 122.18L23.4106 119.344L29.4073 119.767L31.6716 116.856L35.5285 114.915L38.4647 117.03L40.9779 116.482L41.7243 115.338L42.1722 111.705L40.7538 108.196L41.5004 105.783L41.4257 99.6616L40.5797 97.5963L36.9717 94.9339L36.2003 93.1673L44.337 86.0757V83.463L42.7694 78.4368L45.1831 74.5551L49.2638 71.818L55.7085 72.1165L58.993 69.2551L60.6601 70.126L62.7254 71.4448L67.7269 67.4386L74.6444 64.8758L79.5711 66.4434L86.0656 70.3996L89.3252 70.35L99.4774 64.7016L99.6267 61.8898L101.393 59.4514L102.837 59.8245L107.589 64.4526L108.585 60.1978L110.152 57.3861L110.177 54.1513L112.491 53.7282L115.577 54.9476L116.995 53.4795L123.539 53.6786L126.102 55.3208L126.998 58.3067L127.67 58.6053L131.452 57.6846L132.646 58.5307L134.313 62.6612L140.086 68.011L141.654 67.7124L140.982 64.6021L144.889 65.025L146.232 66.717L147.8 71.7681L149.318 73.1616L150.736 72.5644L151.134 71.0964L148.522 64.1541L148.497 61.6658L149.442 60.6955L151.035 60.8697L152.403 62.4621L152.926 64.5274L154.867 65.2738L155.937 62.064L158.524 62.8603L159.296 61.84L160.863 62.8603L161.859 67.5382H165.517L166.363 68.6827L176.341 63.1588L178.033 60.4715L182.288 59.1279L193.435 60.8448L198.511 59.3268L204.284 62.064L211.052 60.4217L213.715 60.9692L216.626 63.333L223.22 61.3176L228.644 63.2085L228.719 56.9382L229.789 53.8279L231.655 51.5138L235.014 50.0456L236.234 47.8311H237.204V48.0053Z" fill="#F2F2F2"/>
<g filter="url(#filter0_d_331_164)">
<circle cx="150.5" cy="299.5" r="7.5" fill="#D50000"/>
<circle cx="150.5" cy="299.5" r="6.5" stroke="#1C1C1C" stroke-width="2"/>
</g>
<g filter="url(#filter1_d_331_164)">
<circle cx="145.5" cy="292.5" r="7.5" fill="#D50000"/>
<circle cx="145.5" cy="292.5" r="6.5" stroke="#1C1C1C" stroke-width="2"/>
</g>
<g filter="url(#filter2_d_331_164)">
<circle cx="194.5" cy="270.5" r="7.5" fill="#D50000"/>
<circle cx="194.5" cy="270.5" r="6.5" stroke="#1C1C1C" stroke-width="2"/>
</g>
<g filter="url(#filter3_d_331_164)">
<circle cx="150.5" cy="258.5" r="7.5" fill="#D50000"/>
<circle cx="150.5" cy="258.5" r="6.5" stroke="#1C1C1C" stroke-width="2"/>
</g>
<g filter="url(#filter4_d_331_164)">
<circle cx="112.5" cy="241.5" r="7.5" fill="#D50000"/>
<circle cx="112.5" cy="241.5" r="6.5" stroke="#1C1C1C" stroke-width="2"/>
</g>
<g filter="url(#filter5_d_331_164)">
<circle cx="114.5" cy="209.5" r="7.5" fill="#D50000"/>
<circle cx="114.5" cy="209.5" r="6.5" stroke="#1C1C1C" stroke-width="2"/>
</g>
<g filter="url(#filter6_d_331_164)">
<circle cx="137.5" cy="213.5" r="7.5" fill="#D50000"/>
<circle cx="137.5" cy="213.5" r="6.5" stroke="#1C1C1C" stroke-width="2"/>
</g>
<g filter="url(#filter7_d_331_164)">
<circle cx="142.5" cy="168.5" r="7.5" fill="#D50000"/>
<circle cx="142.5" cy="168.5" r="6.5" stroke="#1C1C1C" stroke-width="2"/>
</g>
<g filter="url(#filter8_d_331_164)">
<circle cx="288.5" cy="221.5" r="7.5" fill="#D50000"/>
<circle cx="288.5" cy="221.5" r="6.5" stroke="#1C1C1C" stroke-width="2"/>
</g>
<g filter="url(#filter9_d_331_164)">
<circle cx="328.5" cy="258.5" r="7.5" fill="#D50000"/>
<circle cx="328.5" cy="258.5" r="6.5" stroke="#1C1C1C" stroke-width="2"/>
</g>
</g>
<defs>
<filter id="filter0_d_331_164" x="139" y="292" width="23" height="23" filterUnits="userSpaceOnUse" color-interpolation-filters="sRGB">
<feFlood flood-opacity="0" result="BackgroundImageFix"/>
<feColorMatrix in="SourceAlpha" type="matrix" values="0 0 0 0 0 0 0 0 0 0 0 0 0 0 0 0 0 0 127 0" result="hardAlpha"/>
<feOffset dy="4"/>
<feGaussianBlur stdDeviation="2"/>
<feComposite in2="hardAlpha" operator="out"/>
<feColorMatrix type="matrix" values="0 0 0 0 0 0 0 0 0 0 0 0 0 0 0 0 0 0 0.25 0"/>
<feBlend mode="normal" in2="BackgroundImageFix" result="effect1_dropShadow_331_164"/>
<feBlend mode="normal" in="SourceGraphic" in2="effect1_dropShadow_331_164" result="shape"/>
</filter>
<filter id="filter1_d_331_164" x="134" y="285" width="23" height="23" filterUnits="userSpaceOnUse" color-interpolation-filters="sRGB">
<feFlood flood-opacity="0" result="BackgroundImageFix"/>
<feColorMatrix in="SourceAlpha" type="matrix" values="0 0 0 0 0 0 0 0 0 0 0 0 0 0 0 0 0 0 127 0" result="hardAlpha"/>
<feOffset dy="4"/>
<feGaussianBlur stdDeviation="2"/>
<feComposite in2="hardAlpha" operator="out"/>
<feColorMatrix type="matrix" values="0 0 0 0 0 0 0 0 0 0 0 0 0 0 0 0 0 0 0.25 0"/>
<feBlend mode="normal" in2="BackgroundImageFix" result="effect1_dropShadow_331_164"/>
<feBlend mode="normal" in="SourceGraphic" in2="effect1_dropShadow_331_164" result="shape"/>
</filter>
<filter id="filter2_d_331_164" x="183" y="263" width="23" height="23" filterUnits="userSpaceOnUse" color-interpolation-filters="sRGB">
<feFlood flood-opacity="0" result="BackgroundImageFix"/>
<feColorMatrix in="SourceAlpha" type="matrix" values="0 0 0 0 0 0 0 0 0 0 0 0 0 0 0 0 0 0 127 0" result="hardAlpha"/>
<feOffset dy="4"/>
<feGaussianBlur stdDeviation="2"/>
<feComposite in2="hardAlpha" operator="out"/>
<feColorMatrix type="matrix" values="0 0 0 0 0 0 0 0 0 0 0 0 0 0 0 0 0 0 0.25 0"/>
<feBlend mode="normal" in2="BackgroundImageFix" result="effect1_dropShadow_331_164"/>
<feBlend mode="normal" in="SourceGraphic" in2="effect1_dropShadow_331_164" result="shape"/>
</filter>
<filter id="filter3_d_331_164" x="139" y="251" width="23" height="23" filterUnits="userSpaceOnUse" color-interpolation-filters="sRGB">
<feFlood flood-opacity="0" result="BackgroundImageFix"/>
<feColorMatrix in="SourceAlpha" type="matrix" values="0 0 0 0 0 0 0 0 0 0 0 0 0 0 0 0 0 0 127 0" result="hardAlpha"/>
<feOffset dy="4"/>
<feGaussianBlur stdDeviation="2"/>
<feComposite in2="hardAlpha" operator="out"/>
<feColorMatrix type="matrix" values="0 0 0 0 0 0 0 0 0 0 0 0 0 0 0 0 0 0 0.25 0"/>
<feBlend mode="normal" in2="BackgroundImageFix" result="effect1_dropShadow_331_164"/>
<feBlend mode="normal" in="SourceGraphic" in2="effect1_dropShadow_331_164" result="shape"/>
</filter>
<filter id="filter4_d_331_164" x="101" y="234" width="23" height="23" filterUnits="userSpaceOnUse" color-interpolation-filters="sRGB">
<feFlood flood-opacity="0" result="BackgroundImageFix"/>
<feColorMatrix in="SourceAlpha" type="matrix" values="0 0 0 0 0 0 0 0 0 0 0 0 0 0 0 0 0 0 127 0" result="hardAlpha"/>
<feOffset dy="4"/>
<feGaussianBlur stdDeviation="2"/>
<feComposite in2="hardAlpha" operator="out"/>
<feColorMatrix type="matrix" values="0 0 0 0 0 0 0 0 0 0 0 0 0 0 0 0 0 0 0.25 0"/>
<feBlend mode="normal" in2="BackgroundImageFix" result="effect1_dropShadow_331_164"/>
<feBlend mode="normal" in="SourceGraphic" in2="effect1_dropShadow_331_164" result="shape"/>
</filter>
<filter id="filter5_d_331_164" x="103" y="202" width="23" height="23" filterUnits="userSpaceOnUse" color-interpolation-filters="sRGB">
<feFlood flood-opacity="0" result="BackgroundImageFix"/>
<feColorMatrix in="SourceAlpha" type="matrix" values="0 0 0 0 0 0 0 0 0 0 0 0 0 0 0 0 0 0 127 0" result="hardAlpha"/>
<feOffset dy="4"/>
<feGaussianBlur stdDeviation="2"/>
<feComposite in2="hardAlpha" operator="out"/>
<feColorMatrix type="matrix" values="0 0 0 0 0 0 0 0 0 0 0 0 0 0 0 0 0 0 0.25 0"/>
<feBlend mode="normal" in2="BackgroundImageFix" result="effect1_dropShadow_331_164"/>
<feBlend mode="normal" in="SourceGraphic" in2="effect1_dropShadow_331_164" result="shape"/>
</filter>
<filter id="filter6_d_331_164" x="126" y="206" width="23" height="23" filterUnits="userSpaceOnUse" color-interpolation-filters="sRGB">
<feFlood flood-opacity="0" result="BackgroundImageFix"/>
<feColorMatrix in="SourceAlpha" type="matrix" values="0 0 0 0 0 0 0 0 0 0 0 0 0 0 0 0 0 0 127 0" result="hardAlpha"/>
<feOffset dy="4"/>
<feGaussianBlur stdDeviation="2"/>
<feComposite in2="hardAlpha" operator="out"/>
<feColorMatrix type="matrix" values="0 0 0 0 0 0 0 0 0 0 0 0 0 0 0 0 0 0 0.25 0"/>
<feBlend mode="normal" in2="BackgroundImageFix" result="effect1_dropShadow_331_164"/>
<feBlend mode="normal" in="SourceGraphic" in2="effect1_dropShadow_331_164" result="shape"/>
</filter>
<filter id="filter7_d_331_164" x="131" y="161" width="23" height="23" filterUnits="userSpaceOnUse" color-interpolation-filters="sRGB">
<feFlood flood-opacity="0" result="BackgroundImageFix"/>
<feColorMatrix in="SourceAlpha" type="matrix" values="0 0 0 0 0 0 0 0 0 0 0 0 0 0 0 0 0 0 127 0" result="hardAlpha"/>
<feOffset dy="4"/>
<feGaussianBlur stdDeviation="2"/>
<feComposite in2="hardAlpha" operator="out"/>
<feColorMatrix type="matrix" values="0 0 0 0 0 0 0 0 0 0 0 0 0 0 0 0 0 0 0.25 0"/>
<feBlend mode="normal" in2="BackgroundImageFix" result="effect1_dropShadow_331_164"/>
<feBlend mode="normal" in="SourceGraphic" in2="effect1_dropShadow_331_164" result="shape"/>
</filter>
<filter id="filter8_d_331_164" x="277" y="214" width="23" height="23" filterUnits="userSpaceOnUse" color-interpolation-filters="sRGB">
<feFlood flood-opacity="0" result="BackgroundImageFix"/>
<feColorMatrix in="SourceAlpha" type="matrix" values="0 0 0 0 0 0 0 0 0 0 0 0 0 0 0 0 0 0 127 0" result="hardAlpha"/>
<feOffset dy="4"/>
<feGaussianBlur stdDeviation="2"/>
<feComposite in2="hardAlpha" operator="out"/>
<feColorMatrix type="matrix" values="0 0 0 0 0 0 0 0 0 0 0 0 0 0 0 0 0 0 0.25 0"/>
<feBlend mode="normal" in2="BackgroundImageFix" result="effect1_dropShadow_331_164"/>
<feBlend mode="normal" in="SourceGraphic" in2="effect1_dropShadow_331_164" result="shape"/>
</filter>
<filter id="filter9_d_331_164" x="317" y="251" width="23" height="23" filterUnits="userSpaceOnUse" color-interpolation-filters="sRGB">
<feFlood flood-opacity="0" result="BackgroundImageFix"/>
<feColorMatrix in="SourceAlpha" type="matrix" values="0 0 0 0 0 0 0 0 0 0 0 0 0 0 0 0 0 0 127 0" result="hardAlpha"/>
<feOffset dy="4"/>
<feGaussianBlur stdDeviation="2"/>
<feComposite in2="hardAlpha" operator="out"/>
<feColorMatrix type="matrix" values="0 0 0 0 0 0 0 0 0 0 0 0 0 0 0 0 0 0 0.25 0"/>
<feBlend mode="normal" in2="BackgroundImageFix" result="effect1_dropShadow_331_164"/>
<feBlend mode="normal" in="SourceGraphic" in2="effect1_dropShadow_331_164" result="shape"/>
</filter>
<clipPath id="clip0_331_164">
<rect width="961" height="1250" fill="white" transform="translate(-400 -230)"/>
</clipPath>
</defs>
</svg>
