<svg width="244" height="304" viewBox="0 0 244 304" fill="none" xmlns="http://www.w3.org/2000/svg">
<path d="M113.644 26.3175L113.718 26.5166H114.365L114.639 26.0687L114.913 26.0189L114.763 26.7654L115.485 27.0889H115.759L116.182 26.7654H116.829L116.903 27.0142L116.406 27.8354L116.331 28.5818L116.182 28.7809L116.256 30.3983L116.605 30.8959L116.53 31.095L115.535 30.7715H114.813L114.539 30.5227L114.191 30.5973L114.266 30.9208L113.345 30.9955L112.773 30.3734V28.756L112.35 28.1837L111.852 28.1091L111.13 27.6612H109.638L108.941 28.1091L108.667 28.8058L107.821 28.8804L106.975 28.2583L106.627 27.2631L106.776 26.5166L107.05 26.3175H107.97L108.742 26.5663L109.389 27.0142L110.235 27.2133L112.151 27.0889L112.499 26.7156V26.5166L113.071 26.3175L113.42 25.9443H113.917L113.644 26.3175ZM84.3316 0.116089L84.6054 0.389837H84.8791L85.3768 0.713324L85.6504 1.41003L86.3471 2.23113L86.4218 2.85319L86.6955 3.10204L87.4669 3.35088V3.79875L88.0392 4.17197V5.24191L88.8105 5.68985V6.13772L88.5866 6.2621V6.58559L89.0843 6.95881L89.0096 7.58088L89.4326 8.07856V8.40205L89.2336 8.65089H88.5119L88.0143 8.9743L87.442 9.09876V9.59637L87.7904 9.91985H88.2134L88.288 10.0443H88.6364L88.8603 9.84521L89.0594 9.91985L89.4824 11.2386L90.5524 12.4828L91.1247 12.9306L91.3237 13.3786L91.5477 13.4532L91.8214 14.3241L92.8167 15.0208L93.0406 16.0161L93.4637 16.5884L94.6083 17.4593L94.9566 18.0814L96.4496 19.649L98.1416 20.7687L98.49 21.2166L98.689 21.9133L99.336 22.5354L100.331 22.8589L101.327 23.7298L101.974 23.9785L102.173 24.302L102.446 24.4265L103.367 25.994L103.641 26.2429L104.288 27.487L104.561 29.4278L105.557 31.1199L105.631 32.0654L105.905 33.0109L106.253 33.633L106.826 34.2053L107.597 34.5288L108.368 35.972L108.219 36.2208L108.294 36.6687L108.717 36.7185L109.563 37.465L111.13 38.0373L111.827 38.5349H112.549L113.469 37.664L114.465 34.9767L114.614 34.7278L114.838 34.6532L114.763 34.0311L114.34 33.5833L114.539 33.21H114.813L115.087 33.5335L115.858 36.9175L118.123 40.2269L118.048 41.0481L117.326 42.2922L116.903 42.6157L115.634 42.5659L115.709 42.8147L116.132 42.8894L116.48 43.1382L116.704 43.7603L117.55 45.1288L117.476 45.4523L118.197 45.2532L118.77 44.5067V43.8846L118.919 43.6856L119.193 43.5612L119.466 43.1879L119.964 43.0635L120.885 42.118L121.581 42.0683L122.079 42.3917L122.801 42.3419L123.074 42.541H123.497L123.647 42.6654L123.721 43.4866L126.259 44.4321L126.832 44.8551L127.18 44.9297L127.752 45.925L128.822 46.9203L128.897 47.2936L129.544 47.6669L130.614 49.533L131.037 49.7819L132.53 50.155L132.729 50.404L133.152 50.4785L133.226 50.7274H133.5L134.072 51.1753V51.4988L133.923 51.6232L133.774 51.7476H133.276L133.127 51.9965L133.276 52.9917L133.699 53.9372L134.471 54.6837L134.819 55.6292L135.391 56.1269L135.541 56.749L135.964 56.9232V57.172H136.685L136.113 57.6696H135.765L135.541 57.2963H135.192L134.919 57.4954L134.421 59.4364L134.072 59.8842V60.3321L134.495 60.4067L134.645 60.9044L134.869 61.1035L134.943 61.6757L135.366 62.0988L135.516 62.472L136.287 62.9697H136.71L136.486 63.343L136.561 63.8405L137.705 64.0396L137.78 64.2387L136.785 65.6819V66.1795L137.058 66.6026L137.282 66.6771V67.3739L137.009 68.0706V69.0161L137.158 69.3894L138.004 70.2104H138.925L139.497 70.8325H139.995L140.144 71.0814V72.4001L139.92 72.5247L140.194 73.719L140.044 74.5401L140.119 76.033L140.467 76.5307L140.617 77.0781V77.7001L140.343 77.8245L140.268 78.3222L140.119 78.4466V79.019L140.617 79.5912L140.816 80.4621L140.741 80.9598L140.318 81.5322L140.243 81.9551L140.044 82.2039V82.6518L140.691 83.7715L141.114 83.8959L141.811 84.4434L141.886 85.4386L141.662 85.8866L141.587 86.7575L141.438 87.1804L141.289 87.2551L141.363 88.2007L141.712 89.0715V89.8927L141.363 90.2162L140.791 90.1415L140.219 90.5148L139.721 91.51L139.373 92.8786L138.8 93.0776L138.153 93.65L137.73 94.1973L137.805 94.6203L137.581 94.8194H137.307L137.034 94.4959L136.337 94.1228L136.834 93.8739L136.76 93.6749L136.113 93.7495L136.038 94.073L136.387 94.4463L136.735 94.5706V94.9936L137.158 95.9392L137.357 95.8148L137.282 94.9438L137.855 94.8941L138.004 96.387L138.153 96.5861V97.0838L138.303 97.2082L138.377 98.3279L138.8 99.6965L138.875 100.443L139.223 100.941V101.314L140.069 103.105L141.338 105.096V105.22H141.189L140.194 104.772L139.771 105.021V105.146L140.343 105.519L141.114 105.718H141.761L142.11 105.519L142.184 105.768H142.533L142.607 105.569H142.831L142.981 106.066L143.752 107.311L144.673 107.933L145.32 108.878L145.394 111.292L145.245 111.615L144.822 111.789L144.25 112.411V112.66L143.528 114.278L143.379 114.352L142.732 116.019L142.582 119.379L144.075 124.455L144.573 125.251L144.921 126.172L145.693 127.341L146.688 127.963L147.459 128.71L148.032 130.252L147.957 131.87L148.231 132.666L149.575 135.079L150.296 135.95L150.371 136.249L151.366 136.747V137.12L151.167 137.493V138.289L151.59 139.036L151.789 139.16L151.64 139.534L151.217 139.658L151.067 139.484H150.719L150.072 139.981L149.873 140.404V141.325L150.072 141.748L149.151 142.793L148.505 144.46L147.509 144.336L147.012 144.585L146.439 144.659L145.17 144.112L143.901 144.037L143.702 143.913H143.478V144.037L144.125 144.535L145.046 144.41L145.195 144.535L145.966 144.61L146.389 144.858L147.882 144.734L148.529 145.281L148.803 147.023L149.226 148.267L150.993 150.98L152.063 151.975L152.337 152.771L152.76 153.393L152.685 153.766L152.411 153.144H152.212V153.393L152.56 153.816L152.635 154.189L152.287 154.438L151.864 155.732L152.088 157.474L152.511 158.469L152.66 158.544L153.307 159.912L154.377 161.405L154.725 161.704L155.447 161.654L155.721 161.828L155.646 162.749L156.368 162.923L156.517 163.172V163.844L156.741 164.142L157.238 164.391L157.313 165.063H157.811L157.96 165.188V165.859L157.537 166.158L157.96 168.323L159.229 170.612L160.15 171.358L160.722 171.607L160.647 171.856L160.996 172.155L160.647 173.274L160.846 174.021L161.12 174.444L161.195 175.315L161.543 175.564H161.966L162.041 176.559H162.613V176.733L162.887 176.982H163.31L164.081 177.355V177.48H163.932L163.235 177.305L163.011 177.131H162.588L162.389 177.554L162.165 177.679H160.822L160.548 178.599L160.697 178.973H161.269L161.419 179.644L161.767 180.018L162.041 180.067L162.19 179.769L162.538 179.644L163.111 178.848L163.608 178.724L162.538 179.843L162.762 180.764L163.036 180.839L163.111 181.137L163.384 181.262L163.459 181.56L163.807 181.734V181.909L164.504 182.033L164.728 182.406L165.375 182.456L165.45 182.954L165.599 183.078H166.097V183.203L166.37 183.277L166.594 183.526L167.092 183.601L167.241 184.098L167.092 184.223L167.017 185.094L167.515 185.641H167.863L168.933 186.636L169.779 186.885V187.756L170.053 187.93L170.202 188.303H170.352L170.202 188.428L170.277 189.224L170.625 190.344L170.426 190.468L170.202 191.016L170.128 192.135L169.854 192.26V192.509L169.63 192.757L169.132 193.056L168.635 194.897L168.784 195.694L169.058 195.818L169.207 196.241L168.784 196.49L169.008 197.162L168.933 197.709H170.128L170.849 198.132L170.625 198.182L169.854 197.809L169.083 197.883L169.506 198.804L169.431 199.053L169.58 199.003L169.73 199.302V199.675L170.302 199.501L170.65 198.63L170.874 198.58L170.526 199.501L170.028 199.924L170.178 200.347L170.526 200.521V200.944L170.874 201.317V201.616L170.65 201.989L170.227 202.238L170.078 202.611L169.73 202.86L169.58 203.407L169.73 203.532L169.804 204.328L169.655 204.378L169.73 204.552L169.58 204.801L169.929 205.597L169.854 205.771L170.128 206.02L169.978 206.144V206.518L170.252 206.642L170.451 207.065L170.252 207.687L170.401 207.986L170.252 208.16L170.327 208.782L170.601 209.155L170.874 210.2L171.073 210.325L171.297 210.748L171.223 211.718L171.297 212.017L171.447 212.066L171.521 212.813L171.745 213.311L172.093 213.559V213.858L172.019 213.734L172.591 214.032L172.442 214.281L172.94 214.828V215.077L173.089 215.202L173.586 215.152L173.81 215.45V215.824L174.009 215.948L173.935 216.072L174.283 216.371V216.67L174.432 216.719L174.283 217.516L174.482 217.889L174.557 218.735L174.756 218.984L175.03 219.033L175.104 219.208L174.831 220.178L175.104 220.925L175.303 221.099V221.348L175.801 221.721V222.094L176.025 222.393L175.95 223.189L176.1 223.363V224.209L175.95 224.458L176.299 224.632V225.18L176.149 225.229L176.075 225.851V226.822L176.224 227.245L176.448 227.369V227.917L176.224 228.464L176.572 228.837V229.459L176.771 229.634L176.921 230.256L177.12 230.43L177.194 230.927L177.468 231.226L177.394 231.4L177.817 232.072V232.445L178.464 232.819L178.538 233.192L178.812 233.441V233.739L179.086 233.864L179.16 234.162L180.081 234.884L180.006 235.058L180.23 235.182L180.504 235.805L181.35 236.302L181.499 236.8L181.698 236.924V237.297L182.047 237.596L182.121 238.094L183.042 239.014L182.967 239.313L183.241 239.363L183.39 239.86L183.888 240.283L184.037 240.706L184.958 241.677L185.033 241.926L186.799 243.468L187.222 243.518L187.72 243.817L187.869 244.065L188.516 244.314L189.288 244.936L190.059 245.185L190.258 245.434H190.532L191.676 246.23L192.597 246.479L193.169 247.151L193.095 247.649L192.821 248.022L191.975 248.072L191.9 247.897L192.05 247.773L191.477 247.599L191.328 246.877L191.054 246.703L190.855 246.778L190.781 247.026L191.004 247.076L191.154 247.499L191.427 247.798L191.278 247.873V248.171L190.432 248.42L190.507 248.918L190.855 249.092L191.004 249.341L190.656 249.764L190.308 249.938V250.983L190.457 251.157V251.53L190.656 251.655V252.028L191.228 252.65L191.427 253.496L191.776 253.994L191.701 254.491L192.05 255.113V255.536L192.473 255.661V256.382L192.746 256.507L192.945 256.88H193.169L193.667 257.676L194.015 257.85L194.364 257.726L194.637 258.224L195.284 258.099L195.085 258.522L194.314 258.448L194.115 258.572V260.413L195.035 260.588L195.11 260.886L194.612 261.608L194.339 261.558V261.309H194.563L194.712 261.011L194.289 260.513H194.09L193.742 261.011L194.015 261.259V261.434L192.323 261.384L191.676 261.508L191.527 261.807L191.179 262.056V262.304L191.029 262.255L190.756 262.429L190.606 262.976L190.258 263.225L190.183 263.723L190.034 263.847L193.791 263.972L194.364 263.051V262.877L194.165 262.802V262.13L194.737 262.304V263.225L194.463 263.399V263.573L194.04 263.822L194.314 264.121L195.011 263.325L195.085 263.026L196.006 263.076L196.155 262.951L196.305 262.329L197.374 262.504L197.798 262.454L198.021 262.28L198.22 262.528L198.444 262.28L198.519 261.782L197.748 261.234L197.598 260.264L197.748 260.14V258.672L197.897 258.622L198.046 258.199L198.32 258.074L198.046 259.169V260.015L199.614 261.11L200.112 262.031L202.301 263.325L203.993 263.872L204.267 264.121L205.76 264.171L206.407 263.996L207.328 264.494L208.024 264.544L208.248 264.793L209.02 264.967L209.169 265.514L209.741 266.062L209.891 266.684L210.114 266.634L210.314 266.883L210.538 266.833L210.612 267.132L211.384 267.505L212.155 268.227L213.996 269.272L215.191 269.769L215.39 270.018H215.887L216.111 270.192L217.107 270.441L219.52 271.536L220.441 271.486L220.939 271.735H221.287L221.486 271.486L222.058 271.536L222.904 270.988H223.477L224.248 271.412L225.169 271.461L225.393 271.71L225.965 271.959L226.313 272.382L226.388 272.755L228.453 274.348L228.602 274.771H229.175L229.249 274.895L229.822 274.771L230.593 274.845L231.29 275.219H232.136L233.405 274.796L234.898 274.92L237.088 275.89L237.585 276.264L238.083 276.935L238.655 276.985L239.65 277.483H239.924L240.073 277.657H240.845L241.119 277.483L241.765 277.533L242.263 277.358L242.462 277.657L243.383 277.607L243.607 277.906L243.93 278.03L242.711 280.245L239.352 281.713L237.486 284.027L236.416 287.137L236.341 293.408L230.917 291.517L224.323 293.532L221.411 291.168L218.749 290.621L211.981 292.263L206.208 289.526L201.132 291.044L189.984 289.327L185.729 290.671L184.037 293.358L174.059 298.882L173.213 297.737H169.555L168.56 293.059L166.993 292.039L166.221 293.059L163.633 292.263L162.563 295.473L160.622 294.727L160.1 292.661L158.731 291.069L157.139 290.895L156.193 291.865L156.218 294.353L158.831 301.296L158.433 302.764L157.014 303.361L155.497 301.967L153.929 296.916L152.585 295.224L148.679 294.801L149.351 297.911L147.783 298.21L142.01 292.86L140.343 288.73L139.149 287.884L135.366 288.805L134.695 288.506L133.799 285.52L131.236 283.878L124.692 283.679L123.273 285.147L120.188 283.927L117.874 284.35L117.849 287.585L116.281 290.397L115.286 294.652L110.533 290.024L109.09 289.65L107.323 292.089L107.174 294.901L97.0219 300.549L93.7623 300.599L87.2678 296.642L82.341 295.075L75.4734 297.588L70.4719 301.594L68.4066 300.275L69.0287 296.468L68.0334 293.731L67.3864 284.425L63.7286 283.704L61.4643 279.125L51.7849 271.262L50.3666 267.978L49.1971 262.553L51.6853 259.816L52.5811 257.626L52.407 255.984L51.0882 254.218L44.2205 250.61L43.051 248.719L46.4599 240.632L49.2966 228.34L42.0308 222.268L37.1786 214.231L35.611 214.604L33.2471 217.366L24.4386 223.512L20.1587 222.89L16.3268 219.457L15.4808 216.645L16.3766 214.306L15.9784 211.793L13.2911 208.533L12.5197 206.393L15.5056 204.129L16.8991 199.078L19.1634 197.485L17.1728 194.275L16.1775 189.772L12.7437 187.806L15.8291 183.501L15.9287 179.122L16.8244 177.778L26.7776 171.732L25.1602 167.527L25.5832 165.909L25.0109 164.441L26.3546 162.774L23.7917 161.107L18.4418 162.65L17.4465 160.559L13.2911 157.524L11.9723 152.945L6.47315 151.029L4.78113 148.566L1.79524 139.11L0.750122 137.891L4.05951 132.318L8.33936 130.775L9.33474 126.122L7.76711 123.708L8.04078 121.344L15.4808 115.397L17.7451 110.197L21.5024 107.958L24.8367 103.603L29.1166 99.995L33.6204 98.7011L36.88 99.9452L39.0697 103.802L43.5735 99.1988L44.5937 94.5955L45.9871 91.6842L50.6651 90.6391L53.3276 86.9067L60.6183 85.6626L64.8981 78.1233L64.3756 75.7594L60.892 71.0814L60.4939 66.7766L55.2934 57.794L52.6806 48.7368L49.7445 45.3528L49.9933 43.2875L46.6341 41.4213L45.9871 37.2908L57.7568 34.7278L60.1206 31.7917L63.4051 25.3471L65.5699 23.3316L66.1672 19.5743L70.5217 15.618L73.2836 14.4236L76.8668 10.6912L77.9119 2.55461L84.3316 0.116089Z" fill="#F2F2F2"/>
</svg>