<svg width="72" height="72" viewBox="0 0 72 72" fill="none" xmlns="http://www.w3.org/2000/svg">
<path d="M35.8491 0C21.0443 0 9 12.0492 9 26.8598C9 48.9266 33.1766 70.473 34.2062 71.3796C34.6756 71.793 35.2622 72 35.8491 72C36.436 72 37.0227 71.7932 37.4923 71.3796C38.5214 70.4732 62.6982 48.9269 62.6982 26.8598C62.6982 12.0492 50.6539 0 35.8491 0ZM35.8491 66.1062C30.5039 60.9266 13.9721 43.5538 13.9721 26.8598C13.9721 14.791 23.7861 4.9721 35.8491 4.9721C47.9121 4.9721 57.7261 14.791 57.7261 26.8598C57.7261 43.5535 41.1943 60.9263 35.8491 66.1062Z" fill="white"/>
<path d="M35.8492 14.3474C28.9952 14.3474 23.4192 19.9605 23.4192 26.8599C23.4192 33.7595 28.9952 39.3723 35.8492 39.3723C42.7032 39.3723 48.2792 33.7595 48.2792 26.8599C48.2792 19.9605 42.7032 14.3474 35.8492 14.3474ZM35.8492 34.4002C31.7367 34.4002 28.3911 31.0177 28.3911 26.8599C28.3911 22.7023 31.7367 19.3195 35.8492 19.3195C39.9617 19.3195 43.3074 22.7021 43.3074 26.8599C43.3074 31.0177 39.9617 34.4002 35.8492 34.4002Z" fill="white"/>
</svg>
