<svg width="72" height="72" viewBox="0 0 72 72" fill="none" xmlns="http://www.w3.org/2000/svg">
<path d="M11.928 47.0942C10.9017 48.3791 9.97581 49.7776 9.16219 51.2717C9.00135 51.5615 8.94015 51.9167 8.99173 52.2609C9.04331 52.6051 9.20355 52.9109 9.43805 53.1127C9.61837 53.2526 9.82686 53.3292 10.0406 53.3339C10.2203 53.3348 10.3974 53.281 10.5559 53.1775C10.7143 53.074 10.8491 52.9239 10.948 52.7409C11.6891 51.3851 12.5298 50.1142 13.4597 48.944C13.6501 48.6892 13.7518 48.3542 13.7432 48.0097C13.7347 47.6651 13.6165 47.3382 13.4138 47.0979C13.2111 46.8577 12.9397 46.723 12.657 46.7223C12.3743 46.7216 12.1025 46.855 11.899 47.0942H11.928Z" fill="white"/>
<path d="M49.1718 31.8445C48.0102 32.1189 46.7034 32.4021 45.0554 32.7296C44.7666 32.7578 44.4988 32.9247 44.3109 33.1935C44.123 33.4624 44.0304 33.8113 44.0535 34.1634C44.0766 34.5155 44.2135 34.842 44.4341 35.0711C44.6547 35.3001 44.9408 35.413 45.2296 35.3848H45.4039C47.0737 35.0573 48.4022 34.7652 49.5929 34.4997C49.8817 34.4317 50.1365 34.2265 50.3012 33.9294C50.466 33.6323 50.5272 33.2676 50.4713 32.9155C50.4155 32.5634 50.2472 32.2527 50.0035 32.0519C49.7598 31.8511 49.4606 31.7765 49.1718 31.8445Z" fill="white"/>
<path d="M29.7662 36.1017C28.2779 36.5443 26.9275 36.9868 25.6352 37.509C25.387 37.6048 25.1751 37.806 25.038 38.076C24.9009 38.346 24.8478 38.6669 24.8882 38.9806C24.9286 39.2942 25.0598 39.5799 25.2582 39.7856C25.4565 39.9914 25.7088 40.1038 25.9692 40.1022C26.0801 40.1033 26.1905 40.0824 26.2959 40.0403C27.5446 39.5535 28.8441 39.1552 30.2816 38.6861C30.5627 38.6028 30.8052 38.3867 30.9556 38.0855C31.1061 37.7842 31.1522 37.4224 31.0838 37.0797C31.0155 36.737 30.8383 36.4415 30.5911 36.258C30.344 36.0746 30.0473 36.0184 29.7662 36.1017Z" fill="white"/>
<path d="M13.0681 54.9005C12.9675 54.7763 12.8476 54.6777 12.7155 54.6105C12.5834 54.5432 12.4417 54.5085 12.2985 54.5085C12.1554 54.5085 12.0136 54.5432 11.8815 54.6105C11.7494 54.6777 11.6296 54.7763 11.529 54.9005L9.09688 57.8654L8.86457 57.5822L6.68658 54.927C6.48537 54.6677 6.20788 54.5163 5.91516 54.5064C5.62243 54.4964 5.33845 54.6286 5.12569 54.8739C4.91293 55.1192 4.78881 55.4575 4.78064 55.8144C4.77247 56.1712 4.88092 56.5174 5.08213 56.7768L7.51422 59.7418L5.08213 62.7067C4.98006 62.8302 4.89905 62.977 4.84376 63.1388C4.78847 63.3006 4.76001 63.4741 4.76001 63.6493C4.76001 63.8246 4.78847 63.9981 4.84376 64.1599C4.89905 64.3217 4.98006 64.4685 5.08213 64.5919C5.18328 64.7144 5.30341 64.8112 5.43553 64.8765C5.56765 64.9419 5.70912 64.9745 5.85169 64.9725C6.13907 64.9727 6.41516 64.8361 6.62124 64.5919L9.05333 61.6181L9.21304 61.8217L11.4854 64.5919C11.5866 64.7144 11.7067 64.8112 11.8388 64.8765C11.9709 64.9419 12.1124 64.9745 12.255 64.9725C12.4047 64.9807 12.5542 64.9511 12.6941 64.8856C12.834 64.8202 12.9613 64.7202 13.0681 64.5919C13.2707 64.3404 13.3842 64.0019 13.3842 63.6493C13.3842 63.2968 13.2707 62.9583 13.0681 62.7067L10.5997 59.7418L13.0681 56.7768C13.2703 56.5268 13.3836 56.1898 13.3836 55.8387C13.3836 55.4875 13.2703 55.1505 13.0681 54.9005Z" fill="white"/>
<path d="M71.2059 14.6921C71.7312 13.3929 72.002 11.9629 71.9973 10.5146C71.9896 7.7288 71.0785 5.0598 69.4627 3.08995C67.8468 1.12011 65.6575 0.00933262 63.3724 0C61.088 0.00699934 58.8987 1.11581 57.2827 3.08425C55.6667 5.05269 54.7553 7.72077 54.7476 10.5057C54.744 11.575 54.8888 12.6373 55.176 13.6477L53.6659 13.3025H53.4771H53.3465H53.2738L36.0315 17.1879L18.7963 13.3025C18.7094 13.2937 18.622 13.2937 18.535 13.3025H18.3245L0.900573 17.2322C0.647396 17.2847 0.417805 17.4453 0.252872 17.6853C0.0879389 17.9253 -0.00157622 18.229 0.000339704 18.5421V70.6193C-0.00376279 70.8208 0.0293381 71.0209 0.0971958 71.2047C0.165053 71.3885 0.265933 71.5514 0.392377 71.6814C0.597089 71.8842 0.854648 71.991 1.11837 71.9823C1.18351 71.991 1.24925 71.991 1.31439 71.9823L18.5931 68.088L35.8645 71.9823C35.9945 72.0059 36.1266 72.0059 36.2565 71.9823L53.4989 68.0968L70.734 71.9823C70.8016 71.9914 70.8698 71.9914 70.9373 71.9823C71.2006 71.9879 71.4574 71.8815 71.6633 71.6814C71.7792 71.5448 71.8692 71.379 71.9269 71.1955C71.9846 71.012 72.0086 70.8153 71.9973 70.6193V18.5421C71.998 18.2308 71.909 17.929 71.7458 17.6896C71.5826 17.4501 71.3555 17.2882 71.1043 17.2322L70.1678 17.0198L71.1479 14.9753C71.1772 14.8844 71.1968 14.7891 71.2059 14.6921ZM63.3652 26.313L57.6298 13.9221C57.6112 13.8556 57.5894 13.7906 57.5645 13.7273C57.1394 12.7457 56.9199 11.6511 56.9256 10.5411C56.9256 8.45668 57.6048 6.45762 58.8138 4.9837C60.0229 3.50978 61.6626 2.68174 63.3724 2.68174C65.0823 2.68174 66.722 3.50978 67.931 4.9837C69.1401 6.45762 69.8193 8.45668 69.8193 10.5411C69.8208 11.6477 69.6015 12.7382 69.1804 13.7185C69.1524 13.78 69.1304 13.8454 69.1151 13.9132L63.3652 26.313ZM2.17832 69.0616V19.6396L17.4242 16.2055V41.8724C17.0903 42.1114 16.7636 42.3592 16.4441 42.607C16.2463 42.7627 16.0953 42.9924 16.0136 43.2617C15.9319 43.5309 15.924 43.8251 15.9911 44.1003C16.0581 44.3754 16.1966 44.6167 16.3856 44.7879C16.5746 44.9591 16.804 45.0509 17.0394 45.0498C17.1717 45.0481 17.3024 45.0151 17.4242 44.9524V65.6275L2.17832 69.0616ZM19.6893 43.3947C20.1757 43.0761 20.6694 42.7575 21.1921 42.4565C21.3227 42.3835 21.4399 42.2793 21.5369 42.1501C21.6338 42.0209 21.7085 41.8692 21.7566 41.7042C21.8046 41.5392 21.8251 41.3641 21.8166 41.1893C21.8082 41.0144 21.7711 40.8434 21.7076 40.6864C21.6468 40.5281 21.561 40.386 21.455 40.2682C21.3491 40.1504 21.2251 40.0593 21.0902 40.0001C20.9553 39.9409 20.8121 39.9148 20.6689 39.9232C20.5257 39.9316 20.3852 39.9744 20.2556 40.0492L19.6821 40.3943V16.2055L34.928 19.6396V34.845C34.7447 34.9876 34.6 35.1931 34.5122 35.4356C34.4244 35.678 34.3973 35.9468 34.4343 36.208C34.4613 36.3894 34.5191 36.5619 34.6042 36.7143C34.6892 36.8668 34.7995 36.9958 34.928 37.093V69.0616L19.6821 65.6275L19.6893 43.3947ZM37.1132 37.0134C38.028 36.8187 38.9427 36.624 39.8429 36.4469C40.1318 36.3906 40.3904 36.1967 40.5619 35.9079C40.7335 35.6191 40.8039 35.259 40.7577 34.9069C40.7115 34.5548 40.5524 34.2395 40.3155 34.0304C40.0786 33.8213 39.7833 33.7354 39.4945 33.7918C38.7104 33.9422 37.9118 34.1192 37.1132 34.2785V19.6396L52.3591 16.2055V65.6275L37.1132 69.0616V37.0134ZM69.783 19.6661V69.0616L54.5371 65.6275V32.8093C54.6295 32.8399 54.7245 32.8577 54.8202 32.8624C54.9288 32.8642 55.0369 32.8432 55.1397 32.8005C56.5583 32.2903 57.9341 31.6176 59.2488 30.7914C59.4996 30.6276 59.6879 30.3507 59.7733 30.0199C59.8588 29.6891 59.8347 29.3307 59.7062 29.0213C59.5705 28.7172 59.3433 28.4891 59.0725 28.3851C58.8017 28.2811 58.5083 28.3093 58.2542 28.4637C57.0764 29.1888 55.8468 29.7813 54.5806 30.2338V16.2055L56.4101 16.6215L62.4359 29.6674C62.5309 29.8717 62.6686 30.0416 62.8351 30.1598C63.0015 30.2781 63.1907 30.3404 63.3833 30.3404C63.576 30.3404 63.7652 30.2781 63.9316 30.1598C64.098 30.0416 64.2358 29.8717 64.3308 29.6674L69.0497 19.4626L69.783 19.6661Z" fill="white"/>
<path d="M63.3653 14.7274C64.155 14.7274 64.927 14.4419 65.5837 13.907C66.2403 13.3721 66.7521 12.6119 67.0543 11.7224C67.3565 10.8329 67.4356 9.85415 67.2815 8.90988C67.1275 7.96561 66.7472 7.09824 66.1887 6.41746C65.6303 5.73668 64.9188 5.27306 64.1443 5.08524C63.3697 4.89741 62.5669 4.99381 61.8372 5.36224C61.1076 5.73068 60.484 6.35461 60.0453 7.15512C59.6065 7.95563 59.3723 8.89678 59.3723 9.85956C59.3723 11.1506 59.793 12.3887 60.5418 13.3016C61.2907 14.2145 62.3063 14.7274 63.3653 14.7274ZM63.3653 7.64689C63.7243 7.64689 64.0752 7.77666 64.3736 8.01979C64.6721 8.26293 64.9047 8.6085 65.0421 9.01281C65.1795 9.41712 65.2154 9.86201 65.1454 10.2912C65.0754 10.7204 64.9025 11.1147 64.6487 11.4241C64.3948 11.7336 64.0714 11.9443 63.7194 12.0297C63.3673 12.1151 63.0024 12.0713 62.6707 11.9038C62.3391 11.7363 62.0556 11.4527 61.8562 11.0888C61.6567 10.725 61.5503 10.2972 61.5503 9.85956C61.5503 9.56898 61.5972 9.28126 61.6885 9.01281C61.7797 8.74435 61.9134 8.50043 62.0819 8.29497C62.2504 8.0895 62.4505 7.92652 62.6707 7.81532C62.8909 7.70413 63.1269 7.64689 63.3653 7.64689Z" fill="white"/>
</svg>
