<svg width="72" height="73" viewBox="0 0 72 73" fill="none" xmlns="http://www.w3.org/2000/svg">
<path d="M35.9999 0C16.1511 0 0 16.2495 0 36.2193C0 43.4551 2.07484 50.3322 6.02727 56.276L4.02994 65.8799C3.58269 68.0142 4.34653 70.2241 6.01168 71.6231C7.08573 72.5278 8.42536 73 9.77831 73C10.5223 73 11.2707 72.8574 11.9838 72.5678L20.717 69.0101C25.4844 71.2601 30.7123 72.4387 36.0001 72.4387C55.8512 72.4387 72 56.1915 72 36.2194C71.9999 16.2495 55.851 0 35.9999 0ZM35.9999 66.5282C30.5439 66.5282 25.4333 65.0624 21.0203 62.5115L9.77831 67.0896L12.3092 54.9281C8.28138 49.7774 5.8745 43.2834 5.8745 36.2191C5.8745 19.4796 19.3618 5.91015 35.9999 5.91015C52.6381 5.91015 66.1276 19.4796 66.1276 36.2191C66.1276 52.9586 52.6381 66.5282 35.9999 66.5282Z" fill="white"/>
</svg>
