<svg width="72" height="72" viewBox="0 0 72 72" fill="none" xmlns="http://www.w3.org/2000/svg">
<path d="M63.2517 10H8.74819C3.92005 10.0082 0.00816498 13.9242 0 18.7569V53.0824C0.00816498 57.9158 3.91999 61.8318 8.74745 61.84H63.2518C68.0799 61.8318 71.9918 57.9158 72 53.0831V18.7721C72 13.9325 68.0851 10.0082 63.2526 10.0001L63.2517 10ZM34.4748 42.9852C31.164 42.2944 28.7122 39.3975 28.7122 35.9272C28.7122 32.4569 31.1641 29.5599 34.4281 28.8774L34.4748 42.9852ZM37.3525 28.8692C40.6633 29.5599 43.1151 32.4569 43.1151 35.9272C43.1151 39.3975 40.6632 42.2944 37.3992 42.977L37.3525 28.8693V28.8692ZM2.82011 25.8444H9.03593C10.4743 25.8444 11.6402 27.0116 11.6402 28.4514V43.4172C11.6402 44.8571 10.4743 46.0243 9.03593 46.0243H2.82011V25.8587V25.8444ZM2.82011 53.0968V48.8908H9.03593C12.0635 48.8908 14.5179 46.4337 14.5179 43.4028V28.4947C14.5179 25.4638 12.0635 23.0068 9.03593 23.0068H2.82011V18.8008C2.82827 15.5584 5.45175 12.9321 8.68987 12.9239H34.4747V26.0028C29.6035 26.7672 25.9212 30.9383 25.9212 35.9704C25.9212 41.0024 29.6035 45.1736 34.4178 45.9306L34.4747 59.0168H8.74813C8.7353 59.0169 8.72007 59.017 8.70485 59.017C5.4547 59.017 2.81999 56.3794 2.81999 53.1258C2.81999 53.1156 2.82005 53.1054 2.82011 53.0952V53.0968ZM63.2517 58.9736H37.3525V45.8947C42.2237 45.1303 45.906 40.9592 45.906 35.9271C45.906 30.8951 42.2237 26.7239 37.4094 25.9669L37.3524 12.8807H63.2517C66.4906 12.8889 69.114 15.5152 69.1222 18.7568V22.9636H63.2517C60.2241 22.9636 57.7697 25.4206 57.7697 28.4515V43.4173C57.7697 46.4481 60.224 48.9052 63.2517 48.9052H69.0071V53.1112C68.9918 56.3077 66.4358 58.9015 63.2579 58.9736H63.2517ZM69.1222 25.8444V46.01H63.2517C61.8134 46.01 60.6475 44.8428 60.6475 43.4029V28.4948C60.6475 27.0549 61.8134 25.8877 63.2517 25.8877H69.0071L69.1222 25.8444Z" fill="white"/>
</svg>
