<svg width="72" height="72" viewBox="0 0 72 72" fill="none" xmlns="http://www.w3.org/2000/svg">
<g clip-path="url(#clip0_161_14)">
<path opacity="0.5" d="M63.2828 55.1667C64.6634 55.1667 65.7828 54.0474 65.7828 52.6667C65.7828 51.286 64.6634 50.1667 63.2828 50.1667V55.1667ZM40.9338 66.877C40.4978 68.187 41.2061 69.6024 42.5161 70.0387C43.8261 70.4747 45.2418 69.7664 45.6778 68.4564L40.9338 66.877ZM9.32591 50.1667C7.94518 50.1667 6.82591 51.286 6.82591 52.6667C6.82591 54.0474 7.94518 55.1667 9.32591 55.1667V50.1667ZM26.9308 68.4564C27.367 69.7664 28.7825 70.4747 30.0924 70.0387C31.4024 69.6024 32.1111 68.187 31.6748 66.877L26.9308 68.4564ZM14.5202 14.1981C14.1633 12.8643 12.7927 12.0725 11.4589 12.4294C10.1251 12.7864 9.33328 14.157 9.69024 15.4908L14.5202 14.1981ZM1.42491 35.9597C0.27311 36.721 -0.0434234 38.272 0.717943 39.4237C1.47931 40.5757 3.03028 40.892 4.18208 40.1307L1.42491 35.9597ZM62.4468 15.4911C62.8038 14.1573 62.0121 12.7867 60.6781 12.4297C59.3444 12.0728 57.9738 12.8646 57.6168 14.1984L62.4468 15.4911ZM67.9551 40.131C69.1068 40.8924 70.6578 40.576 71.4191 39.424C72.1804 38.2724 71.8641 36.7214 70.7121 35.96L67.9551 40.131ZM49.6344 8.78747C50.7628 7.99171 51.0324 6.43191 50.2364 5.30361C49.4408 4.17527 47.8811 3.90571 46.7528 4.70151L49.6344 8.78747ZM24.7182 3.98867C23.6074 3.16867 22.0421 3.40447 21.2221 4.51534C20.4021 5.62617 20.6379 7.19144 21.7488 8.01141L24.7182 3.98867ZM44.3081 31.5827C43.0324 32.111 42.4264 33.5734 42.9548 34.849C43.4831 36.1247 44.9454 36.7307 46.2211 36.2024L44.3081 31.5827ZM33.4618 26.8614C33.4618 28.2421 34.5811 29.3614 35.9618 29.3614C37.3424 29.3614 38.4618 28.2421 38.4618 26.8614H33.4618ZM43.6288 43.6514C42.7258 42.607 41.1471 42.4924 40.1024 43.3954C39.0581 44.2984 38.9434 45.877 39.8464 46.9217L43.6288 43.6514ZM32.1521 46.8307C33.0051 45.7447 32.8158 44.173 31.7301 43.3204C30.6441 42.4677 29.0724 42.6567 28.2197 43.7427L32.1521 46.8307ZM25.6881 36.1964C26.9605 36.7327 28.4266 36.1357 28.9628 34.8634C29.4991 33.591 28.9022 32.125 27.6299 31.5887L25.6881 36.1964ZM63.2828 50.1667H57.8991V55.1667H63.2828V50.1667ZM42.8924 60.994L40.9338 66.877L45.6778 68.4564L47.6364 62.5734L42.8924 60.994ZM57.8991 50.1667C55.6404 50.1667 53.7361 50.163 52.1854 50.34C50.5704 50.5247 49.0884 50.927 47.7431 51.8977L50.6688 55.9524C51.0674 55.6647 51.6154 55.4377 52.7531 55.3077C53.9548 55.1704 55.5251 55.1667 57.8991 55.1667V50.1667ZM47.6364 62.5734C48.3871 60.3187 48.8874 58.828 49.3978 57.7297C49.8811 56.6897 50.2701 56.24 50.6688 55.9524L47.7431 51.8977C46.3981 52.8684 45.5488 54.148 44.8634 55.6227C44.2054 57.039 43.6068 58.8484 42.8924 60.994L47.6364 62.5734ZM9.32591 55.1667H14.7095V50.1667H9.32591V55.1667ZM24.9721 62.5734L26.9308 68.4564L31.6748 66.877L29.7161 60.994L24.9721 62.5734ZM14.7095 55.1667C17.0836 55.1667 18.6539 55.1704 19.8555 55.3077C20.993 55.4377 21.5412 55.6647 21.9397 55.9524L24.8655 51.8977C23.5202 50.927 22.0382 50.5247 20.4233 50.34C18.8725 50.163 16.9683 50.1667 14.7095 50.1667V55.1667ZM29.7161 60.994C29.0017 58.8484 28.4033 57.039 27.7451 55.6227C27.0599 54.1484 26.2106 52.8684 24.8655 51.8977L21.9397 55.9524C22.3385 56.24 22.7274 56.6897 23.2107 57.7297C23.7211 58.828 24.2214 60.3187 24.9721 62.5734L29.7161 60.994ZM9.69024 15.4908L11.0836 20.697L15.9136 19.4043L14.5202 14.1981L9.69024 15.4908ZM6.59398 32.5427L1.42491 35.9597L4.18208 40.1307L9.35114 36.714L6.59398 32.5427ZM11.0836 20.697C11.698 22.9926 12.101 24.5127 12.2795 25.7108C12.4486 26.8454 12.3716 27.4357 12.1968 27.8968L16.8721 29.669C17.4601 28.1181 17.4646 26.5822 17.2249 24.9737C16.9946 23.4288 16.4983 21.5888 15.9136 19.4043L11.0836 20.697ZM9.35114 36.714C11.2361 35.468 12.8272 34.4207 14.0236 33.4174C15.2694 32.373 16.2841 31.2204 16.8721 29.669L12.1968 27.8968C12.0221 28.3577 11.6889 28.85 10.8109 29.5864C9.88364 30.3637 8.57508 31.2334 6.59398 32.5427L9.35114 36.714ZM57.6168 14.1984L56.2234 19.4046L61.0534 20.6973L62.4468 15.4911L57.6168 14.1984ZM62.7861 36.7144L67.9551 40.131L70.7121 35.96L65.5431 32.543L62.7861 36.7144ZM56.2234 19.4046C55.6388 21.5891 55.1424 23.4291 54.9121 24.974C54.6724 26.5825 54.6771 28.1184 55.2651 29.6694L59.9404 27.8971C59.7654 27.436 59.6884 26.8458 59.8574 25.7111C60.0361 24.513 60.4391 22.9929 61.0534 20.6973L56.2234 19.4046ZM65.5431 32.543C63.5621 31.2337 62.2534 30.364 61.3261 29.5864C60.4481 28.8503 60.1151 28.358 59.9404 27.8971L55.2651 29.6694C55.8531 31.2207 56.8678 32.3734 58.1134 33.4177C59.3098 34.421 60.9011 35.4684 62.7861 36.7144L65.5431 32.543ZM46.7528 4.70151L42.3514 7.80557L45.2331 11.8916L49.6344 8.78747L46.7528 4.70151ZM29.7038 7.66874L24.7182 3.98867L21.7488 8.01141L26.7343 11.6915L29.7038 7.66874ZM42.3514 7.80557C40.4108 9.17437 39.1244 10.0768 38.0631 10.6574C37.0581 11.2072 36.4794 11.3375 35.9888 11.3322L35.9348 16.3319C37.5934 16.3499 39.0364 15.8241 40.4628 15.044C41.8321 14.2949 43.3868 13.1939 45.2331 11.8916L42.3514 7.80557ZM26.7343 11.6915C28.5523 13.0335 30.0828 14.1678 31.4358 14.9464C32.8444 15.7571 34.2758 16.314 35.9348 16.3319L35.9888 11.3322C35.4981 11.3269 34.9224 11.184 33.9294 10.6127C32.8808 10.0092 31.6144 9.07921 29.7038 7.66874L26.7343 11.6915ZM56.6461 26.4735L44.3081 31.5827L46.2211 36.2024L58.5591 31.093L56.6461 26.4735ZM38.4618 26.8614V13.8321H33.4618V26.8614H38.4618ZM51.0971 52.29L43.6288 43.6514L39.8464 46.9217L47.3148 55.56L51.0971 52.29ZM25.3689 55.469L32.1521 46.8307L28.2197 43.7427L21.4364 52.381L25.3689 55.469ZM27.6299 31.5887L15.5053 26.4791L13.5636 31.0867L25.6881 36.1964L27.6299 31.5887Z" fill="white"/>
<path d="M36.464 29.533L42.5857 34.215L45.6233 30.2434L39.5017 25.5614L36.464 29.533ZM42.8757 35.1247L40.471 42.9147L45.2487 44.3894L47.6533 36.5994L42.8757 35.1247ZM39.679 43.5014H32.2443V48.5014H39.679V43.5014ZM31.452 42.9147L29.0477 35.1247L24.2701 36.5994L26.6745 44.3894L31.452 42.9147ZM29.3373 34.215L35.4593 29.533L32.4217 25.5614L26.3 30.2434L29.3373 34.215ZM42.5857 34.215C42.7263 34.3224 42.825 34.4677 42.8757 34.6314L47.6533 33.1564C47.304 32.0247 46.6093 30.9974 45.6233 30.2434L42.5857 34.215ZM42.8757 34.6314C42.9243 34.7894 42.9267 34.96 42.8757 35.1247L47.6533 36.5994C48.0077 35.451 47.9917 34.2524 47.6533 33.1564L42.8757 34.6314ZM39.5017 25.5614C38.4573 24.7626 37.208 24.3627 35.9617 24.3627V29.3627C36.14 29.3627 36.3153 29.419 36.464 29.533L39.5017 25.5614ZM35.9617 24.3627C34.7153 24.3627 33.466 24.7626 32.4217 25.5614L35.4593 29.533C35.608 29.419 35.7833 29.3627 35.9617 29.3627V24.3627ZM40.471 42.9147C40.4197 43.0817 40.321 43.2214 40.1907 43.3237L43.284 47.252C44.1917 46.5374 44.8903 45.55 45.2487 44.3894L40.471 42.9147ZM40.1907 43.3237C40.0467 43.437 39.869 43.5014 39.679 43.5014V48.5014C41.0213 48.5014 42.2823 48.0407 43.284 47.252L40.1907 43.3237ZM32.2443 43.5014C32.0543 43.5014 31.8767 43.437 31.7323 43.3237L28.6392 47.252C29.641 48.0407 30.902 48.5014 32.2443 48.5014V43.5014ZM31.7323 43.3237C31.6023 43.2214 31.5037 43.0817 31.452 42.9147L26.6745 44.3894C27.0328 45.55 27.7316 46.5374 28.6392 47.252L31.7323 43.3237ZM29.0477 35.1247C28.9968 34.96 28.9988 34.7894 29.0476 34.6314L24.2701 33.1564C23.9318 34.2524 23.9156 35.451 24.2701 36.5994L29.0477 35.1247ZM29.0476 34.6314C29.0981 34.4677 29.197 34.3224 29.3373 34.215L26.3 30.2434C25.3138 30.9977 24.6194 32.0247 24.2701 33.1564L29.0476 34.6314Z" fill="white"/>
<path d="M66.7564 36C66.7564 53.0316 52.9664 66.8333 35.9618 66.8333V71.8333C55.7334 71.8333 71.7564 55.7873 71.7564 36H66.7564ZM35.9618 66.8333C18.9568 66.8333 5.16675 53.0316 5.16675 36H0.166748C0.166748 55.7873 16.1899 71.8333 35.9618 71.8333V66.8333ZM5.16675 36C5.16675 18.9685 18.9568 5.16663 35.9618 5.16663V0.166626C16.1899 0.166626 0.166748 16.2125 0.166748 36H5.16675ZM35.9618 5.16663C52.9664 5.16663 66.7564 18.9685 66.7564 36H71.7564C71.7564 16.2125 55.7334 0.166626 35.9618 0.166626V5.16663Z" fill="white"/>
</g>
<defs>
<clipPath id="clip0_161_14">
<rect width="72" height="72" fill="white"/>
</clipPath>
</defs>
</svg>
